<svg viewBox="0 0 66 76" fill="none" xmlns="http://www.w3.org/2000/svg">
<g style="mix-blend-mode:hard-light" filter="url(#filter0_f_611_3697)">
<path d="M39.4147 56.7061L39.4234 56.7032L39.4321 56.7002C41.4726 55.9999 43.1858 55.075 44.4717 53.8661C45.7256 52.7193 46.6475 51.4078 47.1436 49.9217C47.6186 48.5658 47.8686 47.212 47.8686 45.8686C47.8686 43.2203 47.0334 40.896 45.3186 39.0102C44.5454 38.1418 43.648 37.4367 42.6401 36.8869C42.9944 36.5899 43.327 36.2611 43.6381 35.9027C44.3884 35.0795 44.977 34.0958 45.4244 32.9851C45.9134 31.7709 46.1288 30.393 46.1288 28.8971C46.1288 27.1566 45.7645 25.5554 44.966 24.1578C44.2366 22.7877 43.2081 21.6623 41.9044 20.7948C40.6414 19.8973 39.1528 19.2749 37.4799 18.8934C35.8189 18.4806 34.0312 18.2809 32.1258 18.2809H20H18.2809V20V56V57.7191H20H31.6513C34.7044 57.7191 37.3131 57.4024 39.4147 56.7061ZM31.1241 32.8867H29.2054V27.3762H30.8078C32.1344 27.3762 32.9721 27.5554 33.4551 27.7807C34.1242 28.0929 34.4705 28.382 34.6356 28.5869L34.6587 28.6156L34.683 28.6433C34.9337 28.9286 34.9943 29.1232 35.0093 29.2328L35.017 29.2894L35.0284 29.3453C35.0764 29.5791 35.1087 29.7645 35.1286 29.9066C35.1384 29.977 35.1445 30.0315 35.1479 30.072C35.1513 30.112 35.1516 30.1304 35.1516 30.1314L35.1516 30.1314C35.1516 30.3523 35.113 30.6591 35.0015 31.0667C34.9438 31.2779 34.8152 31.5399 34.5475 31.8507C34.3431 32.0587 33.9862 32.3069 33.3866 32.5462L33.3736 32.5514L33.3606 32.5568C32.9097 32.7453 32.1934 32.8867 31.1241 32.8867ZM36.2983 44.0073L36.3033 44.0218L36.3085 44.0363C36.4482 44.4222 36.5223 44.8406 36.5223 45.3029C36.5223 45.7261 36.4445 46.1392 36.2821 46.5523C36.147 46.8663 35.9261 47.1857 35.579 47.5069C35.2498 47.7794 34.7717 48.0558 34.0959 48.3059C33.4716 48.5047 32.6672 48.6238 31.6513 48.6238H29.2054V41.9819H31.6513C32.8326 41.9819 33.6867 42.1243 34.2767 42.3401L34.306 42.3509L34.3357 42.3605C34.9986 42.5761 35.4138 42.8375 35.6702 43.0877L35.693 43.1099L35.7166 43.1312C35.9968 43.3851 36.1834 43.6709 36.2983 44.0073Z" stroke="#0094FF" stroke-width="3.43812"/>
</g>
<g style="mix-blend-mode:hard-light" filter="url(#filter1_f_611_3697)">
<path d="M45.7117 38.6563C45.0618 37.9267 44.33 37.3082 43.5255 36.7956C43.7007 36.6228 43.8699 36.4423 44.0334 36.2542C44.8305 35.3783 45.4489 34.34 45.915 33.1826C46.4355 31.8903 46.6577 30.4419 46.6577 28.8971C46.6577 27.0848 46.2786 25.3921 45.4292 23.9023C44.6593 22.4587 43.5739 21.2718 42.2042 20.359C40.8773 19.4176 39.3255 18.7723 37.6025 18.3788C35.8955 17.9551 34.066 17.752 32.1258 17.752H20H17.752V20V56V58.248H20H31.6513C34.7353 58.248 37.406 57.9288 39.581 57.2082L39.5924 57.2044L39.6038 57.2005C41.6884 56.4851 43.4743 55.5288 44.8313 54.254C46.136 53.06 47.1144 51.6772 47.6441 50.0929C48.1355 48.6888 48.3975 47.2772 48.3975 45.8686C48.3975 43.1016 47.5216 40.6477 45.7117 38.6563ZM31.1241 32.3577H29.7344V27.9051H30.8078C32.0992 27.9051 32.8486 28.0815 33.2314 28.2601C33.8577 28.5522 34.1268 28.7984 34.2237 28.9187L34.2539 28.9562L34.2857 28.9924C34.3863 29.1069 34.4364 29.19 34.4605 29.2385C34.4827 29.2835 34.4851 29.3035 34.4852 29.3044L34.4852 29.3044L34.4953 29.3784L34.5103 29.4515C34.5567 29.6781 34.5869 29.852 34.6047 29.9798C34.62 30.0891 34.6223 30.1368 34.6226 30.1389C34.6217 30.3015 34.5922 30.5581 34.4913 30.9272L36.6598 31.52L34.4913 30.9272C34.4585 31.0472 34.3758 31.2362 34.1587 31.4915C34.0163 31.6322 33.7299 31.8397 33.1905 32.055L33.1735 32.0618L33.1566 32.0688C32.7941 32.2204 32.1547 32.3577 31.1241 32.3577ZM35.7978 44.1783L35.8043 44.1973L35.8112 44.2163C35.9289 44.5416 35.9934 44.8988 35.9934 45.3029C35.9934 45.6559 35.9295 46.0008 35.793 46.3507C35.6913 46.5841 35.5203 46.8383 35.2306 47.1086C34.9598 47.3302 34.5442 47.5748 33.9239 47.8055C33.3658 47.9815 32.6217 48.0949 31.6513 48.0949H29.7344V42.5109H31.6513C32.7959 42.5109 33.583 42.6496 34.095 42.8369L34.1333 42.8509L34.1721 42.8635C34.7795 43.061 35.117 43.2869 35.3009 43.4663L35.3307 43.4953L35.3615 43.5233C35.5766 43.7181 35.7124 43.9283 35.7978 44.1783Z" stroke="#0094FF" stroke-width="4.49601"/>
</g>
<g style="mix-blend-mode:hard-light" filter="url(#filter2_ddi_611_3697)">
<path d="M39.4147 56.7061L39.4234 56.7032L39.4321 56.7002C41.4726 55.9999 43.1858 55.075 44.4717 53.8661C45.7256 52.7193 46.6475 51.4078 47.1436 49.9217C47.6186 48.5658 47.8686 47.212 47.8686 45.8686C47.8686 43.2203 47.0334 40.896 45.3186 39.0102C44.5454 38.1418 43.648 37.4367 42.6401 36.8869C42.9944 36.5899 43.327 36.2611 43.6381 35.9027C44.3884 35.0795 44.977 34.0958 45.4244 32.9851C45.9134 31.7709 46.1288 30.393 46.1288 28.8971C46.1288 27.1566 45.7645 25.5554 44.966 24.1578C44.2366 22.7877 43.2081 21.6623 41.9044 20.7948C40.6414 19.8973 39.1528 19.2749 37.4799 18.8934C35.8189 18.4806 34.0312 18.2809 32.1258 18.2809H20H18.2809V20V56V57.7191H20H31.6513C34.7044 57.7191 37.3131 57.4024 39.4147 56.7061ZM31.1241 32.8867H29.2054V27.3762H30.8078C32.1344 27.3762 32.9721 27.5554 33.4551 27.7807C34.1242 28.0929 34.4705 28.382 34.6356 28.5869L34.6587 28.6156L34.683 28.6433C34.9337 28.9286 34.9943 29.1232 35.0093 29.2328L35.017 29.2894L35.0284 29.3453C35.0764 29.5791 35.1087 29.7645 35.1286 29.9066C35.1384 29.977 35.1445 30.0315 35.1479 30.072C35.1513 30.112 35.1516 30.1304 35.1516 30.1314L35.1516 30.1314C35.1516 30.3523 35.113 30.6591 35.0015 31.0667C34.9438 31.2779 34.8152 31.5399 34.5475 31.8507C34.3431 32.0587 33.9862 32.3069 33.3866 32.5462L33.3736 32.5514L33.3606 32.5568C32.9097 32.7453 32.1934 32.8867 31.1241 32.8867ZM36.2983 44.0073L36.3033 44.0218L36.3085 44.0363C36.4482 44.4222 36.5223 44.8406 36.5223 45.3029C36.5223 45.7261 36.4445 46.1392 36.2821 46.5523C36.147 46.8663 35.9261 47.1857 35.579 47.5069C35.2498 47.7794 34.7717 48.0558 34.0959 48.3059C33.4716 48.5047 32.6672 48.6238 31.6513 48.6238H29.2054V41.9819H31.6513C32.8326 41.9819 33.6867 42.1243 34.2767 42.3401L34.306 42.3509L34.3357 42.3605C34.9986 42.5761 35.4138 42.8375 35.6702 43.0877L35.693 43.1099L35.7166 43.1312C35.9968 43.3851 36.1834 43.6709 36.2983 44.0073Z" stroke="#00B3FF" stroke-opacity="0.2" stroke-width="3.43812"/>
</g>
<g filter="url(#filter3_f_611_3697)">
<path d="M39.2067 56.0785L39.2067 56.0786L39.2175 56.0749C41.203 55.3934 42.825 54.5078 44.022 53.3814C45.2125 52.2933 46.0639 51.0708 46.5179 49.7078C46.9724 48.4119 47.2074 47.1305 47.2074 45.8686C47.2074 43.3686 46.4231 41.2063 44.8271 39.4524C43.8717 38.3785 42.7075 37.5664 41.3548 37.0044C42.0152 36.5942 42.6114 36.078 43.144 35.4633C43.8356 34.706 44.3871 33.7907 44.8111 32.7381C45.2607 31.6216 45.4676 30.332 45.4676 28.8971C45.4676 27.246 45.1219 25.7595 44.387 24.4773C43.7084 23.199 42.7509 22.1503 41.5297 21.3397C40.3467 20.4971 38.9371 19.9032 37.3267 19.5366C35.7232 19.1375 33.9877 18.9421 32.1258 18.9421H20H18.9421V20V56V57.0579H20H31.6513C34.6656 57.0579 37.197 56.7443 39.2067 56.0785ZM31.1241 33.5478H28.5442V26.715H30.8078C32.1784 26.715 33.1265 26.8978 33.7346 27.1815C34.4573 27.5187 34.9002 27.8614 35.1505 28.1722L35.1647 28.1898L35.1797 28.2068C35.4962 28.567 35.6281 28.878 35.6643 29.1433L35.6691 29.1781L35.6762 29.2125C35.78 29.7191 35.8128 30.0064 35.8128 30.1314C35.8128 30.4256 35.762 30.7924 35.6393 31.241C35.5499 31.568 35.3631 31.9207 35.0349 32.2978C34.7485 32.5954 34.3003 32.8935 33.6316 33.1603L33.6236 33.1635L33.6157 33.1668C33.0543 33.4015 32.2417 33.5478 31.1241 33.5478ZM36.924 43.7935L36.9271 43.8025L36.9303 43.8113C37.0973 44.273 37.1835 44.7678 37.1835 45.3029C37.1835 45.8139 37.0883 46.3121 36.8937 46.8039C36.7161 47.2204 36.432 47.6214 36.0148 48.0044C35.6106 48.3425 35.0533 48.658 34.3112 48.9312C33.6032 49.1588 32.7231 49.285 31.6513 49.285H28.5442V41.3207H31.6513C32.8784 41.3207 33.8163 41.4677 34.5038 41.7192L34.5219 41.7258L34.5401 41.7318C35.2725 41.9699 35.7849 42.2758 36.1319 42.6144L36.1459 42.6281L36.1604 42.6412C36.5222 42.9689 36.7721 43.3491 36.924 43.7935Z" stroke="#82D9FF" stroke-width="2.11577"/>
</g>
<g filter="url(#filter4_f_611_3697)">
<path d="M39.0404 55.5764L39.0457 55.5746C40.9874 54.9081 42.5365 54.0539 43.6623 52.9936C44.8022 51.9525 45.597 50.8012 46.0174 49.5368C46.4555 48.2889 46.6784 47.0653 46.6784 45.8686C46.6784 43.4872 45.9348 41.4546 44.4339 39.8062C43.2885 38.518 41.8174 37.6209 40.0416 37.1031C40.2619 36.9997 40.4832 36.8883 40.7057 36.769C41.4679 36.36 42.1487 35.8054 42.7488 35.1117C43.3934 34.4072 43.9152 33.5467 44.3204 32.5405C44.7385 31.5022 44.9386 30.2831 44.9386 28.8971C44.9386 27.3174 44.6077 25.9227 43.9239 24.7329C43.2858 23.5281 42.3853 22.5408 41.2299 21.7755C40.1111 20.977 38.7648 20.4058 37.2041 20.0511C35.6466 19.663 33.953 19.4711 32.1258 19.4711H20H19.4711V20V56V56.5289H20H31.6513C34.6346 56.5289 37.1041 56.2179 39.0404 55.5764ZM31.1241 34.0768H28.0153V26.1861H30.8078C32.2136 26.1861 33.25 26.3718 33.9582 26.7022C34.7238 27.0593 35.244 27.445 35.5625 27.8404L35.5696 27.8492L35.577 27.8577C35.9462 28.2778 36.1351 28.6819 36.1884 29.0716L36.1908 29.089L36.1943 29.1062C36.299 29.6167 36.3417 29.9489 36.3417 30.1314C36.3417 30.4842 36.2812 30.8991 36.1495 31.3805C36.0346 31.8009 35.8007 32.2259 35.4254 32.6548C35.0717 33.026 34.5492 33.3637 33.8277 33.6516L33.8276 33.6515L33.8197 33.6548C33.17 33.9265 32.2804 34.0768 31.1241 34.0768ZM37.4245 43.6225L37.4244 43.6225L37.4277 43.6314C37.6166 44.1536 37.7124 44.7096 37.7124 45.3029C37.7124 45.8841 37.6033 46.4504 37.383 47.0049C37.1713 47.5043 36.836 47.9706 36.3636 48.4023C35.8982 48.7939 35.277 49.1402 34.4837 49.4313C33.7082 49.6822 32.7673 49.8139 31.6513 49.8139H28.0153V40.7918H31.6513C32.9151 40.7918 33.92 40.9424 34.6855 41.2225L34.6946 41.2258L34.7037 41.2287C35.4916 41.4849 36.0817 41.8265 36.5013 42.2358L36.5083 42.2426L36.5155 42.2492C36.9424 42.6359 37.2432 43.0917 37.4245 43.6225Z" stroke="white" stroke-width="1.05788"/>
</g>
<defs>
<filter id="filter0_f_611_3697" x="0.693751" y="0.693751" width="64.7619" height="74.6125" filterUnits="userSpaceOnUse" color-interpolation-filters="sRGB">
<feFlood flood-opacity="0" result="BackgroundImageFix"/>
<feBlend mode="normal" in="SourceGraphic" in2="BackgroundImageFix" result="shape"/>
<feGaussianBlur stdDeviation="7.93413" result="effect1_foregroundBlur_611_3697"/>
</filter>
<filter id="filter1_f_611_3697" x="10.2145" y="10.2145" width="45.7204" height="55.571" filterUnits="userSpaceOnUse" color-interpolation-filters="sRGB">
<feFlood flood-opacity="0" result="BackgroundImageFix"/>
<feBlend mode="normal" in="SourceGraphic" in2="BackgroundImageFix" result="shape"/>
<feGaussianBlur stdDeviation="2.64471" result="effect1_foregroundBlur_611_3697"/>
</filter>
<filter id="filter2_ddi_611_3697" x="9.68577" y="14.9752" width="46.7779" height="56.6285" filterUnits="userSpaceOnUse" color-interpolation-filters="sRGB">
<feFlood flood-opacity="0" result="BackgroundImageFix"/>
<feColorMatrix in="SourceAlpha" type="matrix" values="0 0 0 0 0 0 0 0 0 0 0 0 0 0 0 0 0 0 127 0" result="hardAlpha"/>
<feOffset dy="3.43812"/>
<feGaussianBlur stdDeviation="1.32236"/>
<feColorMatrix type="matrix" values="0 0 0 0 0 0 0 0 0 0.051 0 0 0 0 0.082 0 0 0 0.7 0"/>
<feBlend mode="multiply" in2="BackgroundImageFix" result="effect1_dropShadow_611_3697"/>
<feColorMatrix in="SourceAlpha" type="matrix" values="0 0 0 0 0 0 0 0 0 0 0 0 0 0 0 0 0 0 127 0" result="hardAlpha"/>
<feOffset dy="5.28942"/>
<feGaussianBlur stdDeviation="3.43812"/>
<feColorMatrix type="matrix" values="0 0 0 0 0 0 0 0 0 0.4 0 0 0 0 1 0 0 0 1 0"/>
<feBlend mode="color-dodge" in2="effect1_dropShadow_611_3697" result="effect2_dropShadow_611_3697"/>
<feBlend mode="normal" in="SourceGraphic" in2="effect2_dropShadow_611_3697" result="shape"/>
<feColorMatrix in="SourceAlpha" type="matrix" values="0 0 0 0 0 0 0 0 0 0 0 0 0 0 0 0 0 0 127 0" result="hardAlpha"/>
<feOffset dx="-0.343812" dy="0.687625"/>
<feGaussianBlur stdDeviation="0.171906"/>
<feComposite in2="hardAlpha" operator="arithmetic" k2="-1" k3="1"/>
<feColorMatrix type="matrix" values="0 0 0 0 1 0 0 0 0 1 0 0 0 0 1 0 0 0 0.5 0"/>
<feBlend mode="normal" in2="shape" result="effect3_innerShadow_611_3697"/>
</filter>
<filter id="filter3_f_611_3697" x="17.3553" y="17.3553" width="31.4387" height="41.2893" filterUnits="userSpaceOnUse" color-interpolation-filters="sRGB">
<feFlood flood-opacity="0" result="BackgroundImageFix"/>
<feBlend mode="normal" in="SourceGraphic" in2="BackgroundImageFix" result="shape"/>
<feGaussianBlur stdDeviation="0.264471" result="effect1_foregroundBlur_611_3697"/>
</filter>
<filter id="filter4_f_611_3697" x="18.5893" y="18.5893" width="28.9709" height="38.8215" filterUnits="userSpaceOnUse" color-interpolation-filters="sRGB">
<feFlood flood-opacity="0" result="BackgroundImageFix"/>
<feBlend mode="normal" in="SourceGraphic" in2="BackgroundImageFix" result="shape"/>
<feGaussianBlur stdDeviation="0.176314" result="effect1_foregroundBlur_611_3697"/>
</filter>
</defs>
</svg>
