<svg viewBox="0 0 64 85" fill="none" xmlns="http://www.w3.org/2000/svg">
<g style="mix-blend-mode:hard-light" filter="url(#filter0_f_472_9662)">
<path d="M28.0598 52.6394C27.9078 52.6394 27.7845 52.5161 27.7845 52.3641V52.3641C27.8151 49.4425 28.1209 47.1174 28.702 45.3889C29.2831 43.6605 30.1089 42.2608 31.1793 41.1901C32.2498 40.1193 33.5343 39.1327 35.0329 38.2302C35.9352 37.6796 36.7456 37.0295 37.4644 36.28C38.1831 35.5151 38.7489 34.6356 39.1618 33.6413C39.59 32.6471 39.804 31.5457 39.804 30.3373C39.804 28.8383 39.4523 27.5381 38.7489 26.4367C38.0455 25.3354 37.105 24.4865 35.9275 23.8899C34.75 23.2933 33.4425 22.9951 32.0051 22.9951C30.7511 22.9951 29.5431 23.2551 28.3809 23.7752C27.2187 24.2953 26.2476 25.1136 25.4677 26.2302C25.1176 26.7316 24.8337 27.3022 24.6161 27.9423C24.1225 29.3943 22.9235 30.6127 21.3898 30.6127V30.6127C19.7259 30.6127 18.3596 29.2061 18.7648 27.5923C19.1034 26.2437 19.6327 25.0249 20.3525 23.9358C21.5912 22.0849 23.2198 20.67 25.2384 19.691C27.2722 18.7121 29.5278 18.2226 32.0051 18.2226C34.6965 18.2226 37.0362 18.758 39.0242 19.8287C41.0274 20.8995 42.5719 22.3679 43.6576 24.2341C44.7587 26.1002 45.3092 28.2264 45.3092 30.6127C45.3092 32.2953 45.0492 33.8172 44.5293 35.1786C44.0247 36.54 43.2906 37.7561 42.3272 38.8268C41.3791 39.8975 40.2322 40.8459 38.8865 41.6719C37.5408 42.5132 36.4627 43.4004 35.6523 44.3335C34.8418 45.2513 34.253 46.345 33.886 47.6146C33.519 48.8842 33.3202 50.4673 33.2896 52.3641V52.3641C33.2896 52.5161 33.1664 52.6394 33.0143 52.6394H28.0598ZM30.7206 66.2226C29.5889 66.2226 28.6179 65.8172 27.8074 65.0065C26.9969 64.1958 26.5917 63.2245 26.5917 62.0926C26.5917 60.9606 26.9969 59.9893 27.8074 59.1786C28.6179 58.3679 29.5889 57.9626 30.7206 57.9626C31.8522 57.9626 32.8232 58.3679 33.6337 59.1786C34.4442 59.9893 34.8494 60.9606 34.8494 62.0926C34.8494 62.8421 34.6583 63.5304 34.276 64.1576C33.909 64.7847 33.412 65.2895 32.785 65.6719C32.1733 66.039 31.4852 66.2226 30.7206 66.2226Z" stroke="#0094FF" stroke-width="3.50678"/>
</g>
<g style="mix-blend-mode:hard-light" filter="url(#filter1_f_472_9662)">
<path d="M28.0598 52.6394C27.9078 52.6394 27.7845 52.5161 27.7845 52.3641V52.3641C27.8151 49.4425 28.1209 47.1174 28.702 45.3889C29.2831 43.6605 30.1089 42.2608 31.1793 41.1901C32.2498 40.1193 33.5343 39.1327 35.0329 38.2302C35.9352 37.6796 36.7456 37.0295 37.4644 36.28C38.1831 35.5151 38.7489 34.6356 39.1618 33.6413C39.59 32.6471 39.804 31.5457 39.804 30.3373C39.804 28.8383 39.4523 27.5381 38.7489 26.4367C38.0455 25.3354 37.105 24.4865 35.9275 23.8899C34.75 23.2933 33.4425 22.9951 32.0051 22.9951C30.7511 22.9951 29.5431 23.2551 28.3809 23.7752C27.2187 24.2953 26.2476 25.1136 25.4677 26.2302C25.1176 26.7316 24.8337 27.3022 24.6161 27.9423C24.1225 29.3943 22.9235 30.6127 21.3898 30.6127V30.6127C19.7259 30.6127 18.3596 29.2061 18.7648 27.5923C19.1034 26.2437 19.6327 25.0249 20.3525 23.9358C21.5912 22.0849 23.2198 20.67 25.2384 19.691C27.2722 18.7121 29.5278 18.2226 32.0051 18.2226C34.6965 18.2226 37.0362 18.758 39.0242 19.8287C41.0274 20.8995 42.5719 22.3679 43.6576 24.2341C44.7587 26.1002 45.3092 28.2264 45.3092 30.6127C45.3092 32.2953 45.0492 33.8172 44.5293 35.1786C44.0247 36.54 43.2906 37.7561 42.3272 38.8268C41.3791 39.8975 40.2322 40.8459 38.8865 41.6719C37.5408 42.5132 36.4627 43.4004 35.6523 44.3335C34.8418 45.2513 34.253 46.345 33.886 47.6146C33.519 48.8842 33.3202 50.4673 33.2896 52.3641V52.3641C33.2896 52.5161 33.1664 52.6394 33.0143 52.6394H28.0598ZM30.7206 66.2226C29.5889 66.2226 28.6179 65.8172 27.8074 65.0065C26.9969 64.1958 26.5917 63.2245 26.5917 62.0926C26.5917 60.9606 26.9969 59.9893 27.8074 59.1786C28.6179 58.3679 29.5889 57.9626 30.7206 57.9626C31.8522 57.9626 32.8232 58.3679 33.6337 59.1786C34.4442 59.9893 34.8494 60.9606 34.8494 62.0926C34.8494 62.8421 34.6583 63.5304 34.276 64.1576C33.909 64.7847 33.412 65.2895 32.785 65.6719C32.1733 66.039 31.4852 66.2226 30.7206 66.2226Z" stroke="#0094FF" stroke-width="4.58579"/>
</g>
<g style="mix-blend-mode:hard-light" filter="url(#filter2_ddi_472_9662)">
<path d="M28.0598 52.6394C27.9078 52.6394 27.7845 52.5161 27.7845 52.3641V52.3641C27.8151 49.4425 28.1209 47.1174 28.702 45.3889C29.2831 43.6605 30.1089 42.2608 31.1793 41.1901C32.2498 40.1193 33.5343 39.1327 35.0329 38.2302C35.9352 37.6796 36.7456 37.0295 37.4644 36.28C38.1831 35.5151 38.7489 34.6356 39.1618 33.6413C39.59 32.6471 39.804 31.5457 39.804 30.3373C39.804 28.8383 39.4523 27.5381 38.7489 26.4367C38.0455 25.3354 37.105 24.4865 35.9275 23.8899C34.75 23.2933 33.4425 22.9951 32.0051 22.9951C30.7511 22.9951 29.5431 23.2551 28.3809 23.7752C27.2187 24.2953 26.2476 25.1136 25.4677 26.2302C25.1176 26.7316 24.8337 27.3022 24.6161 27.9423C24.1225 29.3943 22.9235 30.6127 21.3898 30.6127V30.6127C19.7259 30.6127 18.3596 29.2061 18.7648 27.5923C19.1034 26.2437 19.6327 25.0249 20.3525 23.9358C21.5912 22.0849 23.2198 20.67 25.2384 19.691C27.2722 18.7121 29.5278 18.2226 32.0051 18.2226C34.6965 18.2226 37.0362 18.758 39.0242 19.8287C41.0274 20.8995 42.5719 22.3679 43.6576 24.2341C44.7587 26.1002 45.3092 28.2264 45.3092 30.6127C45.3092 32.2953 45.0492 33.8172 44.5293 35.1786C44.0247 36.54 43.2906 37.7561 42.3272 38.8268C41.3791 39.8975 40.2322 40.8459 38.8865 41.6719C37.5408 42.5132 36.4627 43.4004 35.6523 44.3335C34.8418 45.2513 34.253 46.345 33.886 47.6146C33.519 48.8842 33.3202 50.4673 33.2896 52.3641V52.3641C33.2896 52.5161 33.1664 52.6394 33.0143 52.6394H28.0598ZM30.7206 66.2226C29.5889 66.2226 28.6179 65.8172 27.8074 65.0065C26.9969 64.1958 26.5917 63.2245 26.5917 62.0926C26.5917 60.9606 26.9969 59.9893 27.8074 59.1786C28.6179 58.3679 29.5889 57.9626 30.7206 57.9626C31.8522 57.9626 32.8232 58.3679 33.6337 59.1786C34.4442 59.9893 34.8494 60.9606 34.8494 62.0926C34.8494 62.8421 34.6583 63.5304 34.276 64.1576C33.909 64.7847 33.412 65.2895 32.785 65.6719C32.1733 66.039 31.4852 66.2226 30.7206 66.2226Z" stroke="#00B3FF" stroke-opacity="0.2" stroke-width="3.50678"/>
</g>
<g filter="url(#filter3_f_472_9662)">
<path d="M28.0598 52.6394C27.9078 52.6394 27.7845 52.5161 27.7845 52.3641V52.3641C27.8151 49.4425 28.1209 47.1174 28.702 45.3889C29.2831 43.6605 30.1089 42.2608 31.1793 41.1901C32.2498 40.1193 33.5343 39.1327 35.0329 38.2302C35.9352 37.6796 36.7456 37.0295 37.4644 36.28C38.1831 35.5151 38.7489 34.6356 39.1618 33.6413C39.59 32.6471 39.804 31.5457 39.804 30.3373C39.804 28.8383 39.4523 27.5381 38.7489 26.4367C38.0455 25.3354 37.105 24.4865 35.9275 23.8899C34.75 23.2933 33.4425 22.9951 32.0051 22.9951C30.7511 22.9951 29.5431 23.2551 28.3809 23.7752C27.2187 24.2953 26.2476 25.1136 25.4677 26.2302C25.1176 26.7316 24.8337 27.3022 24.6161 27.9423C24.1225 29.3943 22.9235 30.6127 21.3898 30.6127V30.6127C19.7259 30.6127 18.3596 29.2061 18.7648 27.5923C19.1034 26.2437 19.6327 25.0249 20.3525 23.9358C21.5912 22.0849 23.2198 20.67 25.2384 19.691C27.2722 18.7121 29.5278 18.2226 32.0051 18.2226C34.6965 18.2226 37.0362 18.758 39.0242 19.8287C41.0274 20.8995 42.5719 22.3679 43.6576 24.2341C44.7587 26.1002 45.3092 28.2264 45.3092 30.6127C45.3092 32.2953 45.0492 33.8172 44.5293 35.1786C44.0247 36.54 43.2906 37.7561 42.3272 38.8268C41.3791 39.8975 40.2322 40.8459 38.8865 41.6719C37.5408 42.5132 36.4627 43.4004 35.6523 44.3335C34.8418 45.2513 34.253 46.345 33.886 47.6146C33.519 48.8842 33.3202 50.4673 33.2896 52.3641V52.3641C33.2896 52.5161 33.1664 52.6394 33.0143 52.6394H28.0598ZM30.7206 66.2226C29.5889 66.2226 28.6179 65.8172 27.8074 65.0065C26.9969 64.1958 26.5917 63.2245 26.5917 62.0926C26.5917 60.9606 26.9969 59.9893 27.8074 59.1786C28.6179 58.3679 29.5889 57.9626 30.7206 57.9626C31.8522 57.9626 32.8232 58.3679 33.6337 59.1786C34.4442 59.9893 34.8494 60.9606 34.8494 62.0926C34.8494 62.8421 34.6583 63.5304 34.276 64.1576C33.909 64.7847 33.412 65.2895 32.785 65.6719C32.1733 66.039 31.4852 66.2226 30.7206 66.2226Z" stroke="#82D9FF" stroke-width="2.15802"/>
</g>
<g filter="url(#filter4_f_472_9662)">
<path d="M28.0598 52.6394C27.9078 52.6394 27.7845 52.5161 27.7845 52.3641V52.3641C27.8151 49.4425 28.1209 47.1174 28.702 45.3889C29.2831 43.6605 30.1089 42.2608 31.1793 41.1901C32.2498 40.1193 33.5343 39.1327 35.0329 38.2302C35.9352 37.6796 36.7456 37.0295 37.4644 36.28C38.1831 35.5151 38.7489 34.6356 39.1618 33.6413C39.59 32.6471 39.804 31.5457 39.804 30.3373C39.804 28.8383 39.4523 27.5381 38.7489 26.4367C38.0455 25.3354 37.105 24.4865 35.9275 23.8899C34.75 23.2933 33.4425 22.9951 32.0051 22.9951C30.7511 22.9951 29.5431 23.2551 28.3809 23.7752C27.2187 24.2953 26.2476 25.1136 25.4677 26.2302C25.1176 26.7316 24.8337 27.3022 24.6161 27.9423C24.1225 29.3943 22.9235 30.6127 21.3898 30.6127V30.6127C19.7259 30.6127 18.3596 29.2061 18.7648 27.5923C19.1034 26.2437 19.6327 25.0249 20.3525 23.9358C21.5912 22.0849 23.2198 20.67 25.2384 19.691C27.2722 18.7121 29.5278 18.2226 32.0051 18.2226C34.6965 18.2226 37.0362 18.758 39.0242 19.8287C41.0274 20.8995 42.5719 22.3679 43.6576 24.2341C44.7587 26.1002 45.3092 28.2264 45.3092 30.6127C45.3092 32.2953 45.0492 33.8172 44.5293 35.1786C44.0247 36.54 43.2906 37.7561 42.3272 38.8268C41.3791 39.8975 40.2322 40.8459 38.8865 41.6719C37.5408 42.5132 36.4627 43.4004 35.6523 44.3335C34.8418 45.2513 34.253 46.345 33.886 47.6146C33.519 48.8842 33.3202 50.4673 33.2896 52.3641V52.3641C33.2896 52.5161 33.1664 52.6394 33.0143 52.6394H28.0598ZM30.7206 66.2226C29.5889 66.2226 28.6179 65.8172 27.8074 65.0065C26.9969 64.1958 26.5917 63.2245 26.5917 62.0926C26.5917 60.9606 26.9969 59.9893 27.8074 59.1786C28.6179 58.3679 29.5889 57.9626 30.7206 57.9626C31.8522 57.9626 32.8232 58.3679 33.6337 59.1786C34.4442 59.9893 34.8494 60.9606 34.8494 62.0926C34.8494 62.8421 34.6583 63.5304 34.276 64.1576C33.909 64.7847 33.412 65.2895 32.785 65.6719C32.1733 66.039 31.4852 66.2226 30.7206 66.2226Z" stroke="white" stroke-width="1.07901"/>
</g>
<defs>
<filter id="filter0_f_472_9662" x="0.746517" y="0.284084" width="62.5011" height="83.877" filterUnits="userSpaceOnUse" color-interpolation-filters="sRGB">
<feFlood flood-opacity="0" result="BackgroundImageFix"/>
<feBlend mode="normal" in="SourceGraphic" in2="BackgroundImageFix" result="shape"/>
<feGaussianBlur stdDeviation="8.09256" result="effect1_foregroundBlur_472_9662"/>
</filter>
<filter id="filter1_f_472_9662" x="10.9949" y="10.5347" width="42.0022" height="63.3759" filterUnits="userSpaceOnUse" color-interpolation-filters="sRGB">
<feFlood flood-opacity="0" result="BackgroundImageFix"/>
<feBlend mode="normal" in="SourceGraphic" in2="BackgroundImageFix" result="shape"/>
<feGaussianBlur stdDeviation="2.69752" result="effect1_foregroundBlur_472_9662"/>
</filter>
<filter id="filter2_ddi_472_9662" x="9.91809" y="14.8507" width="44.158" height="65.5339" filterUnits="userSpaceOnUse" color-interpolation-filters="sRGB">
<feFlood flood-opacity="0" result="BackgroundImageFix"/>
<feColorMatrix in="SourceAlpha" type="matrix" values="0 0 0 0 0 0 0 0 0 0 0 0 0 0 0 0 0 0 127 0" result="hardAlpha"/>
<feOffset dy="3.50678"/>
<feGaussianBlur stdDeviation="1.34876"/>
<feColorMatrix type="matrix" values="0 0 0 0 0 0 0 0 0 0.051 0 0 0 0 0.082 0 0 0 0.7 0"/>
<feBlend mode="multiply" in2="BackgroundImageFix" result="effect1_dropShadow_472_9662"/>
<feColorMatrix in="SourceAlpha" type="matrix" values="0 0 0 0 0 0 0 0 0 0 0 0 0 0 0 0 0 0 127 0" result="hardAlpha"/>
<feOffset dy="5.39504"/>
<feGaussianBlur stdDeviation="3.50678"/>
<feColorMatrix type="matrix" values="0 0 0 0 0 0 0 0 0 0.4 0 0 0 0 1 0 0 0 1 0"/>
<feBlend mode="color-dodge" in2="effect1_dropShadow_472_9662" result="effect2_dropShadow_472_9662"/>
<feBlend mode="normal" in="SourceGraphic" in2="effect2_dropShadow_472_9662" result="shape"/>
<feColorMatrix in="SourceAlpha" type="matrix" values="0 0 0 0 0 0 0 0 0 0 0 0 0 0 0 0 0 0 127 0" result="hardAlpha"/>
<feOffset dx="-0.350678" dy="0.701355"/>
<feGaussianBlur stdDeviation="0.175339"/>
<feComposite in2="hardAlpha" operator="arithmetic" k2="-1" k3="1"/>
<feColorMatrix type="matrix" values="0 0 0 0 1 0 0 0 0 1 0 0 0 0 1 0 0 0 0.5 0"/>
<feBlend mode="normal" in2="shape" result="effect3_innerShadow_472_9662"/>
</filter>
<filter id="filter3_f_472_9662" x="17.0696" y="16.6041" width="29.8581" height="51.237" filterUnits="userSpaceOnUse" color-interpolation-filters="sRGB">
<feFlood flood-opacity="0" result="BackgroundImageFix"/>
<feBlend mode="normal" in="SourceGraphic" in2="BackgroundImageFix" result="shape"/>
<feGaussianBlur stdDeviation="0.269752" result="effect1_foregroundBlur_472_9662"/>
</filter>
<filter id="filter4_f_472_9662" x="17.7912" y="17.3234" width="28.4171" height="49.7983" filterUnits="userSpaceOnUse" color-interpolation-filters="sRGB">
<feFlood flood-opacity="0" result="BackgroundImageFix"/>
<feBlend mode="normal" in="SourceGraphic" in2="BackgroundImageFix" result="shape"/>
<feGaussianBlur stdDeviation="0.179835" result="effect1_foregroundBlur_472_9662"/>
</filter>
</defs>
</svg>
