<svg viewBox="0 0 206 84" fill="none" xmlns="http://www.w3.org/2000/svg">
<g style="mix-blend-mode:hard-light" filter="url(#filter0_f_599_4879)">
<path d="M33.5225 24.4V22.3134H31.4359H24.3359H22.2493V24.4V59.4V61.4866H24.3359H69.2359H71.3225V59.4V24.4V22.3134H69.2359H62.1359H60.0493V24.4V51.1134H52.4225V24.4V22.3134H50.3359H43.2359H41.1493V24.4V51.1134H33.5225V24.4ZM89.4902 22.3134H88.0586L87.5434 23.6491L74.0434 58.6491L72.949 61.4866H75.9902H83.4902H84.9822L85.4647 60.0748L87.6822 53.5866H98.7983L101.016 60.0748L101.498 61.4866H102.99H110.99H114.031L112.937 58.6491L99.437 23.6491L98.9218 22.3134H97.4902H89.4902ZM126.95 24.4V22.3134H124.864H117.764H115.677V24.4V59.4V61.4866H117.764H124.864H126.95V59.4V46.3366H136.977V59.4V61.4866H139.064H146.164H148.25V59.4V24.4V22.3134H146.164H139.064H136.977V24.4V36.4134H126.95V24.4ZM165.5 60.8443L165.514 60.8487L165.529 60.8528C167.877 61.5394 170.241 61.8866 172.614 61.8866C174.13 61.8866 175.702 61.7603 177.328 61.5128C178.991 61.2598 180.661 60.8457 182.337 60.2753L183.751 59.7939V58.3V52.15V48.8888L180.79 50.2555C180.031 50.6057 179.058 50.9738 177.853 51.3547C176.875 51.6433 175.577 51.8134 173.914 51.8134C172.553 51.8134 171.244 51.6269 169.983 51.2571C168.813 50.8728 167.802 50.3092 166.928 49.5706C166.088 48.8289 165.38 47.8582 164.825 46.6108C164.299 45.3992 164.001 43.8809 164.001 42C164.001 40.4203 164.249 39.0467 164.71 37.852L164.713 37.8447L164.716 37.8374C165.185 36.5967 165.845 35.5697 166.69 34.7254C167.526 33.8891 168.563 33.2283 169.837 32.7572L169.849 32.753L169.86 32.7486C171.152 32.2541 172.659 31.9866 174.414 31.9866C175.797 31.9866 176.947 32.1101 177.886 32.3312L177.899 32.3341C178.975 32.5801 179.978 32.885 180.911 33.2459L183.751 34.3452V31.3V25.2V23.6841L182.309 23.2156C180.882 22.7519 179.487 22.4227 178.125 22.2365C176.806 22.0186 175.4 21.9134 173.914 21.9134C170.958 21.9134 168.176 22.3226 165.584 23.1608C162.963 23.9746 160.642 25.2425 158.648 26.9732C156.663 28.6909 155.119 30.8324 154.005 33.3578C152.866 35.9396 152.327 38.8699 152.327 42.1C152.327 45.5234 152.897 48.5654 154.131 51.1493L154.137 51.1607L154.142 51.172C155.358 53.6413 156.951 55.7177 158.934 57.358L158.944 57.3657L158.953 57.3732C160.897 58.9432 163.084 60.1009 165.5 60.8443ZM91.0506 43.6634L93.2402 37.2029L95.4299 43.6634H91.0506Z" stroke="#0094FF" stroke-width="4.17319"/>
</g>
<g style="mix-blend-mode:hard-light" filter="url(#filter1_f_599_4879)">
<path d="M34.1646 24.4V21.6714H31.4359H24.3359H21.6073V24.4V59.4V62.1286H24.3359H69.2359H71.9646V59.4V24.4V21.6714H69.2359H62.1359H59.4073V24.4V50.4714H53.0646V24.4V21.6714H50.3359H43.2359H40.5073V24.4V50.4714H34.1646V24.4ZM89.4902 21.6714H87.6181L86.9444 23.418L73.4444 58.418L72.0132 62.1286H75.9902H83.4902H85.4413L86.0722 60.2825L88.1413 54.2286H98.3392L100.408 60.2825L101.039 62.1286H102.99H110.99H114.967L113.536 58.418L100.036 23.418L99.3623 21.6714H97.4902H89.4902ZM127.592 24.4V21.6714H124.864H117.764H115.035V24.4V59.4V62.1286H117.764H124.864H127.592V59.4V46.9786H136.335V59.4V62.1286H139.064H146.164H148.892V59.4V24.4V21.6714H146.164H139.064H136.335V24.4V35.7714H127.592V24.4ZM165.312 61.458L165.33 61.4636L165.348 61.469C167.753 62.172 170.178 62.5286 172.614 62.5286C174.165 62.5286 175.77 62.3994 177.425 62.1476C179.128 61.8884 180.834 61.4649 182.543 60.883L184.393 60.2535V58.3V52.15V47.8854L180.521 49.6725C179.795 50.0075 178.851 50.3657 177.666 50.7406C176.765 51.0055 175.535 51.1714 173.914 51.1714C172.616 51.1714 171.372 50.9942 170.174 50.6439C169.086 50.2851 168.152 49.7635 167.348 49.0848C166.587 48.412 165.934 47.5218 165.412 46.3525C164.93 45.2397 164.643 43.8131 164.643 42C164.643 40.4881 164.88 39.1944 165.309 38.0834L165.313 38.0739L165.317 38.0643C165.755 36.9034 166.368 35.9552 167.143 35.1794C167.909 34.414 168.865 33.8011 170.06 33.3594L170.075 33.3539L170.09 33.3481C171.296 32.8861 172.725 32.6286 174.414 32.6286C175.761 32.6286 176.859 32.7491 177.739 32.9561L177.748 32.9581L177.756 32.96C178.805 33.1997 179.778 33.4957 180.679 33.8446L184.393 35.2821V31.3V25.2V23.2177L182.507 22.605C181.052 22.132 179.622 21.7938 178.221 21.6016C176.865 21.3782 175.427 21.2714 173.914 21.2714C170.9 21.2714 168.052 21.6885 165.39 22.5489C162.692 23.3872 160.293 24.696 158.229 26.4867C156.166 28.2717 154.567 30.493 153.418 33.0986C152.236 35.7774 151.685 38.799 151.685 42.1C151.685 45.5921 152.266 48.7343 153.552 51.426L153.559 51.4409L153.566 51.4556C154.818 53.9975 156.464 56.1487 158.525 57.8528L158.537 57.8628L158.55 57.8727C160.558 59.4949 162.819 60.6909 165.312 61.458ZM91.9461 43.0214L93.2402 39.2031L94.5343 43.0214H91.9461Z" stroke="#0094FF" stroke-width="5.45725"/>
</g>
<path d="M32.078 24.4V23.758H31.4359H24.3359H23.6939V24.4V59.4V60.042H24.3359H69.2359H69.878V59.4V24.4V23.758H69.2359H62.1359H61.4939V24.4V52.558H50.978V24.4V23.758H50.3359H43.2359H42.5939V24.4V52.558H32.078V24.4ZM89.4902 23.758H89.0497L88.8912 24.1689L75.3912 59.169L75.0545 60.042H75.9902H83.4902H83.9493L84.0978 59.6076L86.6493 52.142H99.8312L102.383 59.6076L102.531 60.042H102.99H110.99H111.926L111.589 59.169L98.0892 24.1689L97.9307 23.758H97.4902H89.4902ZM125.506 24.4V23.758H124.864H117.764H117.122V24.4V59.4V60.042H117.764H124.864H125.506V59.4V44.892H138.422V59.4V60.042H139.064H146.164H146.806V59.4V24.4V23.758H146.164H139.064H138.422V24.4V37.858H125.506V24.4ZM165.925 59.4637L165.934 59.4662C168.157 60.116 170.384 60.442 172.614 60.442C174.05 60.442 175.549 60.3224 177.111 60.0847C178.684 59.8453 180.271 59.4525 181.871 58.9078L182.306 58.7596V58.3V52.15V51.1466L181.395 51.5671C180.562 51.9518 179.524 52.3419 178.276 52.7361C177.121 53.0787 175.672 53.258 173.914 53.258C172.41 53.258 170.958 53.0506 169.554 52.6368C168.202 52.1954 167.014 51.5374 165.984 50.6642C164.964 49.7667 164.134 48.6141 163.502 47.1915C162.879 45.7573 162.556 44.0325 162.556 42C162.556 40.2678 162.829 38.7144 163.363 37.3314L163.365 37.3269C163.901 35.9067 164.67 34.7022 165.668 33.704C166.664 32.7082 167.883 31.9395 169.337 31.4023L169.344 31.3996C170.826 30.832 172.513 30.542 174.414 30.542C175.878 30.542 177.143 30.6723 178.217 30.925L178.221 30.9259C179.36 31.1862 180.43 31.5108 181.432 31.8987L182.306 32.237V31.3V25.2V24.7336L181.863 24.5894C180.501 24.1468 179.183 23.8378 177.91 23.6651C176.673 23.4596 175.34 23.358 173.914 23.358C171.089 23.358 168.456 23.7493 166.02 24.538C163.575 25.2961 161.431 26.4707 159.594 28.0645C157.783 29.6316 156.362 31.5944 155.327 33.9409C154.284 36.3045 153.772 39.0292 153.772 42.1C153.772 45.3687 154.317 48.1855 155.435 50.5267L155.438 50.5337C156.574 52.8396 158.045 54.7477 159.855 56.2448L159.861 56.2495C161.659 57.7017 163.682 58.7733 165.925 59.4637ZM89.0357 45.108L93.2402 32.7026L97.4447 45.108H89.0357Z" fill="#0094FF" stroke="white" stroke-width="1.28406"/>
<g style="mix-blend-mode:hard-light" filter="url(#filter2_ddi_599_4879)">
<path d="M33.5225 24.4V22.3134H31.4359H24.3359H22.2493V24.4V59.4V61.4866H24.3359H69.2359H71.3225V59.4V24.4V22.3134H69.2359H62.1359H60.0493V24.4V51.1134H52.4225V24.4V22.3134H50.3359H43.2359H41.1493V24.4V51.1134H33.5225V24.4ZM89.4902 22.3134H88.0586L87.5434 23.6491L74.0434 58.6491L72.949 61.4866H75.9902H83.4902H84.9822L85.4647 60.0748L87.6822 53.5866H98.7983L101.016 60.0748L101.498 61.4866H102.99H110.99H114.031L112.937 58.6491L99.437 23.6491L98.9218 22.3134H97.4902H89.4902ZM126.95 24.4V22.3134H124.864H117.764H115.677V24.4V59.4V61.4866H117.764H124.864H126.95V59.4V46.3366H136.977V59.4V61.4866H139.064H146.164H148.25V59.4V24.4V22.3134H146.164H139.064H136.977V24.4V36.4134H126.95V24.4ZM165.5 60.8443L165.514 60.8487L165.529 60.8528C167.877 61.5394 170.241 61.8866 172.614 61.8866C174.13 61.8866 175.702 61.7603 177.328 61.5128C178.991 61.2598 180.661 60.8457 182.337 60.2753L183.751 59.7939V58.3V52.15V48.8888L180.79 50.2555C180.031 50.6057 179.058 50.9738 177.853 51.3547C176.875 51.6433 175.577 51.8134 173.914 51.8134C172.553 51.8134 171.244 51.6269 169.983 51.2571C168.813 50.8728 167.802 50.3092 166.928 49.5706C166.088 48.8289 165.38 47.8582 164.825 46.6108C164.299 45.3992 164.001 43.8809 164.001 42C164.001 40.4203 164.249 39.0467 164.71 37.852L164.713 37.8447L164.716 37.8374C165.185 36.5967 165.845 35.5697 166.69 34.7254C167.526 33.8891 168.563 33.2283 169.837 32.7572L169.849 32.753L169.86 32.7486C171.152 32.2541 172.659 31.9866 174.414 31.9866C175.797 31.9866 176.947 32.1101 177.886 32.3312L177.899 32.3341C178.975 32.5801 179.978 32.885 180.911 33.2459L183.751 34.3452V31.3V25.2V23.6841L182.309 23.2156C180.882 22.7519 179.487 22.4227 178.125 22.2365C176.806 22.0186 175.4 21.9134 173.914 21.9134C170.958 21.9134 168.176 22.3226 165.584 23.1608C162.963 23.9746 160.642 25.2425 158.648 26.9732C156.663 28.6909 155.119 30.8324 154.005 33.3578C152.866 35.9396 152.327 38.8699 152.327 42.1C152.327 45.5234 152.897 48.5654 154.131 51.1493L154.137 51.1607L154.142 51.172C155.358 53.6413 156.951 55.7177 158.934 57.358L158.944 57.3657L158.953 57.3732C160.897 58.9432 163.084 60.1009 165.5 60.8443ZM91.0506 43.6634L93.2402 37.2029L95.4299 43.6634H91.0506Z" stroke="#00B3FF" stroke-opacity="0.2" stroke-width="4.17319"/>
</g>
<g filter="url(#filter3_f_599_4879)">
<path d="M32.72 24.4V23.1159H31.4359H24.3359H23.0519V24.4V59.4V60.6841H24.3359H69.2359H70.52V59.4V24.4V23.1159H69.2359H62.1359H60.8519V24.4V51.9159H51.62V24.4V23.1159H50.3359H43.2359H41.9519V24.4V51.9159H32.72V24.4ZM89.4902 23.1159H88.6092L88.2922 23.9379L74.7922 58.9379L74.1187 60.6841H75.9902H83.4902H84.4084L84.7053 59.8153L87.1084 52.7841H99.3721L101.775 59.8153L102.072 60.6841H102.99H110.99H112.862L112.188 58.9379L98.6883 23.9379L98.3712 23.1159H97.4902H89.4902ZM126.148 24.4V23.1159H124.864H117.764H116.48V24.4V59.4V60.6841H117.764H124.864H126.148V59.4V45.5341H137.78V59.4V60.6841H139.064H146.164H147.448V59.4V24.4V23.1159H146.164H139.064H137.78V24.4V37.2159H126.148V24.4ZM165.736 60.0773L165.745 60.0799L165.754 60.0825C168.033 60.7486 170.32 61.0841 172.614 61.0841C174.085 61.0841 175.617 60.9615 177.207 60.7194C178.82 60.474 180.444 60.0717 182.078 59.5156L182.948 59.2193V58.3V52.15V50.1431L181.126 50.9841C180.326 51.3535 179.317 51.7339 178.088 52.1222C177.012 52.4407 175.63 52.6159 173.914 52.6159C172.474 52.6159 171.085 52.4178 169.745 52.0236C168.474 51.6076 167.364 50.9916 166.404 50.1783C165.464 49.35 164.688 48.2781 164.089 46.9329C163.51 45.5978 163.198 43.9649 163.198 42C163.198 40.3356 163.46 38.8621 163.962 37.5628L163.965 37.5538C164.472 36.2133 165.192 35.0877 166.122 34.158C167.047 33.2331 168.185 32.5123 169.559 32.0044L169.566 32.0018L169.573 31.9991C170.97 31.464 172.578 31.1841 174.414 31.1841C175.842 31.1841 177.056 31.3113 178.07 31.5499L178.078 31.5518C179.189 31.8057 180.229 32.1215 181.201 32.4975L182.948 33.174V31.3V25.2V24.2671L182.061 23.9788C180.67 23.5269 179.318 23.2089 178.006 23.0302C176.732 22.8192 175.367 22.7159 173.914 22.7159C171.031 22.7159 168.332 23.1152 165.826 23.9259C163.304 24.7087 161.08 25.9246 159.174 27.579C157.286 29.2131 155.81 31.2555 154.739 33.6817C153.654 36.1423 153.13 38.9584 153.13 42.1C153.13 45.4375 153.686 48.3544 154.855 50.8034L154.859 50.8104L154.862 50.8174C156.034 53.1959 157.558 55.1788 159.446 56.7396L159.451 56.7443L159.457 56.7489C161.32 58.2535 163.416 59.3634 165.736 60.0773ZM89.9312 44.4659L93.2402 34.7028L96.5492 44.4659H89.9312Z" stroke="#82D9FF" stroke-width="2.56812"/>
</g>
<g filter="url(#filter4_f_599_4879)">
<path d="M32.078 24.4V23.758H31.4359H24.3359H23.6939V24.4V59.4V60.042H24.3359H69.2359H69.878V59.4V24.4V23.758H69.2359H62.1359H61.4939V24.4V52.558H50.978V24.4V23.758H50.3359H43.2359H42.5939V24.4V52.558H32.078V24.4ZM89.4902 23.758H89.0497L88.8912 24.1689L75.3912 59.169L75.0545 60.042H75.9902H83.4902H83.9493L84.0978 59.6076L86.6493 52.142H99.8312L102.383 59.6076L102.531 60.042H102.99H110.99H111.926L111.589 59.169L98.0892 24.1689L97.9307 23.758H97.4902H89.4902ZM125.506 24.4V23.758H124.864H117.764H117.122V24.4V59.4V60.042H117.764H124.864H125.506V59.4V44.892H138.422V59.4V60.042H139.064H146.164H146.806V59.4V24.4V23.758H146.164H139.064H138.422V24.4V37.858H125.506V24.4ZM165.925 59.4637L165.934 59.4662C168.157 60.116 170.384 60.442 172.614 60.442C174.05 60.442 175.549 60.3224 177.111 60.0847C178.684 59.8453 180.271 59.4525 181.871 58.9078L182.306 58.7596V58.3V52.15V51.1466L181.395 51.5671C180.562 51.9518 179.524 52.3419 178.276 52.7361C177.121 53.0787 175.672 53.258 173.914 53.258C172.41 53.258 170.958 53.0506 169.554 52.6368C168.202 52.1954 167.014 51.5374 165.984 50.6642C164.964 49.7667 164.134 48.6141 163.502 47.1915C162.879 45.7573 162.556 44.0325 162.556 42C162.556 40.2678 162.829 38.7144 163.363 37.3314L163.365 37.3269C163.901 35.9067 164.67 34.7022 165.668 33.704C166.664 32.7082 167.883 31.9395 169.337 31.4023L169.344 31.3996C170.826 30.832 172.513 30.542 174.414 30.542C175.878 30.542 177.143 30.6723 178.217 30.925L178.221 30.9259C179.36 31.1862 180.43 31.5108 181.432 31.8987L182.306 32.237V31.3V25.2V24.7336L181.863 24.5894C180.501 24.1468 179.183 23.8378 177.91 23.6651C176.673 23.4596 175.34 23.358 173.914 23.358C171.089 23.358 168.456 23.7493 166.02 24.538C163.575 25.2961 161.431 26.4707 159.594 28.0645C157.783 29.6316 156.362 31.5944 155.327 33.9409C154.284 36.3045 153.772 39.0292 153.772 42.1C153.772 45.3687 154.317 48.1855 155.435 50.5267L155.438 50.5337C156.574 52.8396 158.045 54.7477 159.855 56.2448L159.861 56.2495C161.659 57.7017 163.682 58.7733 165.925 59.4637ZM89.0357 45.108L93.2402 32.7026L97.4447 45.108H89.0357Z" stroke="white" stroke-width="1.28406"/>
</g>
<defs>
<filter id="filter0_f_599_4879" x="0.901724" y="0.565786" width="204.197" height="82.6682" filterUnits="userSpaceOnUse" color-interpolation-filters="sRGB">
<feFlood flood-opacity="0" result="BackgroundImageFix"/>
<feBlend mode="normal" in="SourceGraphic" in2="BackgroundImageFix" result="shape"/>
<feGaussianBlur stdDeviation="9.63044" result="effect1_foregroundBlur_599_4879"/>
</filter>
<filter id="filter1_f_599_4879" x="12.4586" y="12.1227" width="181.083" height="59.5549" filterUnits="userSpaceOnUse" color-interpolation-filters="sRGB">
<feFlood flood-opacity="0" result="BackgroundImageFix"/>
<feBlend mode="normal" in="SourceGraphic" in2="BackgroundImageFix" result="shape"/>
<feGaussianBlur stdDeviation="3.21015" result="effect1_foregroundBlur_599_4879"/>
</filter>
<filter id="filter2_ddi_599_4879" x="11.8162" y="17.9006" width="182.368" height="60.8392" filterUnits="userSpaceOnUse" color-interpolation-filters="sRGB">
<feFlood flood-opacity="0" result="BackgroundImageFix"/>
<feColorMatrix in="SourceAlpha" type="matrix" values="0 0 0 0 0 0 0 0 0 0 0 0 0 0 0 0 0 0 127 0" result="hardAlpha"/>
<feOffset dy="4.17319"/>
<feGaussianBlur stdDeviation="1.60507"/>
<feColorMatrix type="matrix" values="0 0 0 0 0 0 0 0 0 0.051 0 0 0 0 0.082 0 0 0 0.7 0"/>
<feBlend mode="multiply" in2="BackgroundImageFix" result="effect1_dropShadow_599_4879"/>
<feColorMatrix in="SourceAlpha" type="matrix" values="0 0 0 0 0 0 0 0 0 0 0 0 0 0 0 0 0 0 127 0" result="hardAlpha"/>
<feOffset dy="6.42029"/>
<feGaussianBlur stdDeviation="4.17319"/>
<feColorMatrix type="matrix" values="0 0 0 0 0 0 0 0 0 0.4 0 0 0 0 1 0 0 0 1 0"/>
<feBlend mode="color-dodge" in2="effect1_dropShadow_599_4879" result="effect2_dropShadow_599_4879"/>
<feBlend mode="normal" in="SourceGraphic" in2="effect2_dropShadow_599_4879" result="shape"/>
<feColorMatrix in="SourceAlpha" type="matrix" values="0 0 0 0 0 0 0 0 0 0 0 0 0 0 0 0 0 0 127 0" result="hardAlpha"/>
<feOffset dx="-0.417319" dy="0.834638"/>
<feGaussianBlur stdDeviation="0.208659"/>
<feComposite in2="hardAlpha" operator="arithmetic" k2="-1" k3="1"/>
<feColorMatrix type="matrix" values="0 0 0 0 1 0 0 0 0 1 0 0 0 0 1 0 0 0 0.5 0"/>
<feBlend mode="normal" in2="shape" result="effect3_innerShadow_599_4879"/>
</filter>
<filter id="filter3_f_599_4879" x="21.1255" y="20.7896" width="163.749" height="42.2206" filterUnits="userSpaceOnUse" color-interpolation-filters="sRGB">
<feFlood flood-opacity="0" result="BackgroundImageFix"/>
<feBlend mode="normal" in="SourceGraphic" in2="BackgroundImageFix" result="shape"/>
<feGaussianBlur stdDeviation="0.321015" result="effect1_foregroundBlur_599_4879"/>
</filter>
<filter id="filter4_f_599_4879" x="22.6237" y="22.2878" width="160.753" height="39.2242" filterUnits="userSpaceOnUse" color-interpolation-filters="sRGB">
<feFlood flood-opacity="0" result="BackgroundImageFix"/>
<feBlend mode="normal" in="SourceGraphic" in2="BackgroundImageFix" result="shape"/>
<feGaussianBlur stdDeviation="0.21401" result="effect1_foregroundBlur_599_4879"/>
</filter>
</defs>
</svg>
