<svg viewBox="0 0 87 63" fill="none" xmlns="http://www.w3.org/2000/svg">
    <g style="mix-blend-mode:hard-light" filter="url(#filter0_f_472_9710)">
        <path d="M16.9628 6.73264C16.9811 6.68703 17.0019 6.66952 17.0169 6.65993C17.0368 6.64723 17.0672 6.63663 17.1048 6.63663C17.1424 6.63663 17.1729 6.64723 17.1927 6.65993C17.2077 6.66952 17.2285 6.68703 17.2468 6.73264L19.4318 12.1736C19.7382 12.9367 20.4545 13.4571 21.275 13.5128L27.1248 13.9094C27.1739 13.9128 27.1969 13.9271 27.2107 13.9384C27.2289 13.9534 27.2484 13.9791 27.26 14.0148C27.2716 14.0506 27.271 14.0828 27.265 14.1056C27.2605 14.1228 27.2503 14.148 27.2126 14.1796L22.7131 17.9389C22.082 18.4662 21.8084 19.3082 22.0091 20.1058L23.4395 25.7918C23.4515 25.8395 23.445 25.8659 23.4385 25.8825C23.4299 25.9044 23.4115 25.9309 23.3811 25.953C23.3507 25.9751 23.3198 25.9844 23.2963 25.9858C23.2785 25.9869 23.2514 25.9849 23.2098 25.9588L18.244 22.8412C17.5475 22.404 16.6621 22.404 15.9656 22.8412L10.9999 25.9588C10.9583 25.9849 10.9311 25.9869 10.9134 25.9858C10.8898 25.9844 10.859 25.9751 10.8286 25.953C10.7981 25.9309 10.7797 25.9044 10.7711 25.8825C10.7646 25.8659 10.7581 25.8395 10.7701 25.7918L12.2006 20.1058C12.4012 19.3082 12.1276 18.4662 11.4965 17.9389L6.99704 14.1796C6.95932 14.148 6.9491 14.1228 6.94461 14.1056C6.93867 14.0828 6.93799 14.0506 6.94961 14.0148C6.96123 13.9791 6.98072 13.9534 6.99894 13.9384C7.01269 13.9271 7.03577 13.9128 7.0848 13.9094L12.9346 13.5128C13.7551 13.4571 14.4714 12.9367 14.7779 12.1736L16.9628 6.73264Z" stroke="#6A11D5" stroke-width="1.98947"/>
    </g>
    <g style="mix-blend-mode:hard-light" filter="url(#filter1_f_472_9710)">
        <path d="M15.0619 12.2876L17.1048 7.20034L19.1477 12.2876C19.498 13.1598 20.3166 13.7546 21.2543 13.8181L26.7239 14.189L22.5169 17.704C21.7956 18.3066 21.483 19.2689 21.7123 20.1804L23.0497 25.4969L18.4067 22.582C17.6107 22.0823 16.5989 22.0823 15.8029 22.582L11.1599 25.4969L12.4974 20.1804C12.7267 19.2689 12.414 18.3066 11.6927 17.704L7.48573 14.189L12.9553 13.8181C13.8931 13.7546 14.7117 13.1598 15.0619 12.2876Z" stroke="#7936C9" stroke-width="2.60161"/>
    </g>
    <g style="mix-blend-mode:hard-light" filter="url(#filter2_ddi_472_9710)">
        <path d="M16.9628 6.73264C16.9811 6.68703 17.0019 6.66952 17.0169 6.65993C17.0368 6.64723 17.0672 6.63663 17.1048 6.63663C17.1424 6.63663 17.1729 6.64723 17.1927 6.65993C17.2077 6.66952 17.2285 6.68703 17.2468 6.73264L19.4318 12.1736C19.7382 12.9367 20.4545 13.4571 21.275 13.5128L27.1248 13.9094C27.1739 13.9128 27.1969 13.9271 27.2107 13.9384C27.2289 13.9534 27.2484 13.9791 27.26 14.0148C27.2716 14.0506 27.271 14.0828 27.265 14.1056C27.2605 14.1228 27.2503 14.148 27.2126 14.1796L22.7131 17.9389C22.082 18.4662 21.8084 19.3082 22.0091 20.1058L23.4395 25.7918C23.4515 25.8395 23.445 25.8659 23.4385 25.8825C23.4299 25.9044 23.4115 25.9309 23.3811 25.953C23.3507 25.9751 23.3198 25.9844 23.2963 25.9858C23.2785 25.9869 23.2514 25.9849 23.2098 25.9588L18.244 22.8412C17.5475 22.404 16.6621 22.404 15.9656 22.8412L10.9999 25.9588C10.9583 25.9849 10.9311 25.9869 10.9134 25.9858C10.8898 25.9844 10.859 25.9751 10.8286 25.953C10.7981 25.9309 10.7797 25.9044 10.7711 25.8825C10.7646 25.8659 10.7581 25.8395 10.7701 25.7918L12.2006 20.1058C12.4012 19.3082 12.1276 18.4662 11.4965 17.9389L6.99704 14.1796C6.95932 14.148 6.9491 14.1228 6.94461 14.1056C6.93867 14.0828 6.93799 14.0506 6.94961 14.0148C6.96123 13.9791 6.98072 13.9534 6.99894 13.9384C7.01269 13.9271 7.03577 13.9128 7.0848 13.9094L12.9346 13.5128C13.7551 13.4571 14.4714 12.9367 14.7779 12.1736L16.9628 6.73264Z" stroke="#8620FF" stroke-opacity="0.2" stroke-width="1.98947"/>
    </g>
    <g filter="url(#filter3_f_472_9710)">
        <path d="M16.6078 6.59007C16.7877 6.14203 17.4219 6.14203 17.6019 6.59007L19.7868 12.031C20.0385 12.6579 20.6269 13.0854 21.3009 13.1311L27.1507 13.5277C27.6324 13.5604 27.8284 14.1636 27.4579 14.4732L22.9584 18.2325C22.44 18.6656 22.2153 19.3573 22.3801 20.0124L23.8106 25.6985C23.9284 26.1667 23.4152 26.5395 23.0063 26.2828L18.0406 23.1653C17.4684 22.8061 16.7412 22.8061 16.1691 23.1653L11.2033 26.2828C10.7944 26.5395 10.2813 26.1667 10.3991 25.6985L11.8295 20.0124C11.9943 19.3573 11.7696 18.6656 11.2512 18.2325L6.75173 14.4732C6.38122 14.1636 6.57722 13.5604 7.05892 13.5277L12.9087 13.1311C13.5827 13.0854 14.1711 12.6579 14.4228 12.031L16.6078 6.59007Z" stroke="#8620FF" stroke-opacity="0.2" stroke-width="1.22429"/>
    </g>
    <g filter="url(#filter4_f_472_9710)">
        <path d="M16.3237 6.47601C16.6065 5.77196 17.6032 5.77196 17.8859 6.47601L20.0708 11.917C20.2788 12.4348 20.7648 12.7879 21.3216 12.8257L27.1714 13.2223C27.9284 13.2737 28.2364 14.2216 27.6541 14.708L23.1547 18.4674C22.7264 18.8252 22.5408 19.3965 22.6769 19.9377L24.1074 25.6238C24.2925 26.3596 23.4862 26.9454 22.8436 26.542L17.8778 23.4245C17.4052 23.1278 16.8044 23.1278 16.3318 23.4245L11.366 26.542C10.7235 26.9454 9.91714 26.3596 10.1022 25.6238L11.5327 19.9377C11.6689 19.3965 11.4832 18.8252 11.0549 18.4674L6.55549 14.708C5.97326 14.2216 6.28125 13.2737 7.03822 13.2223L12.888 12.8257C13.4448 12.7879 13.9309 12.4348 14.1388 11.917L16.3237 6.47601Z" stroke="white" stroke-width="0.612144"/>
    </g>
    <g style="mix-blend-mode:hard-light" filter="url(#filter5_f_472_9710)">
        <path d="M43.9508 6.73264C43.9692 6.68703 43.99 6.66952 44.005 6.65993C44.0248 6.64723 44.0553 6.63663 44.0929 6.63663C44.1304 6.63663 44.1609 6.64723 44.1808 6.65993C44.1957 6.66952 44.2166 6.68703 44.2349 6.73264L46.4198 12.1736C46.7263 12.9367 47.4425 13.4571 48.263 13.5128L54.1129 13.9094C54.1619 13.9128 54.185 13.9271 54.1987 13.9384C54.217 13.9534 54.2364 13.9791 54.2481 14.0148C54.2597 14.0506 54.259 14.0828 54.2531 14.1056C54.2486 14.1228 54.2384 14.148 54.2006 14.1796L49.7012 17.9389C49.0701 18.4662 48.7965 19.3082 48.9971 20.1058L50.4276 25.7918C50.4396 25.8395 50.433 25.8659 50.4265 25.8825C50.4179 25.9044 50.3995 25.9309 50.3691 25.953C50.3387 25.9751 50.3078 25.9844 50.2843 25.9858C50.2665 25.9869 50.2394 25.9849 50.1978 25.9588L45.232 22.8412C44.5355 22.404 43.6502 22.404 42.9537 22.8412L37.9879 25.9588C37.9463 25.9849 37.9192 25.9869 37.9014 25.9858C37.8779 25.9844 37.847 25.9751 37.8166 25.953C37.7862 25.9309 37.7678 25.9044 37.7592 25.8825C37.7527 25.8659 37.7461 25.8395 37.7581 25.7918L39.1886 20.1058C39.3892 19.3082 39.1156 18.4662 38.4845 17.9389L33.9851 14.1796C33.9474 14.148 33.9371 14.1228 33.9326 14.1056C33.9267 14.0828 33.926 14.0506 33.9376 14.0148C33.9493 13.9791 33.9688 13.9534 33.987 13.9384C34.0007 13.9271 34.0238 13.9128 34.0728 13.9094L39.9227 13.5128C40.7432 13.4571 41.4594 12.9367 41.7659 12.1736L43.9508 6.73264Z" stroke="#6A11D5" stroke-width="1.98947"/>
    </g>
    <g style="mix-blend-mode:hard-light" filter="url(#filter6_f_472_9710)">
        <path d="M42.0499 12.2876L44.0929 7.20034L46.1358 12.2876C46.486 13.1598 47.3046 13.7546 48.2423 13.8181L53.7119 14.189L49.5049 17.704C48.7837 18.3066 48.471 19.2689 48.7003 20.1804L50.0378 25.4969L45.3948 22.582C44.5988 22.0823 43.5869 22.0823 42.7909 22.582L38.1479 25.4969L39.4854 20.1804C39.7147 19.2689 39.402 18.3066 38.6808 17.704L34.4738 14.189L39.9434 13.8181C40.8811 13.7546 41.6997 13.1598 42.0499 12.2876Z" stroke="#7936C9" stroke-width="2.60161"/>
    </g>
    <g style="mix-blend-mode:hard-light" filter="url(#filter7_ddi_472_9710)">
        <path d="M43.9508 6.73264C43.9692 6.68703 43.99 6.66952 44.005 6.65993C44.0248 6.64723 44.0553 6.63663 44.0929 6.63663C44.1304 6.63663 44.1609 6.64723 44.1808 6.65993C44.1957 6.66952 44.2166 6.68703 44.2349 6.73264L46.4198 12.1736C46.7263 12.9367 47.4425 13.4571 48.263 13.5128L54.1129 13.9094C54.1619 13.9128 54.185 13.9271 54.1987 13.9384C54.217 13.9534 54.2364 13.9791 54.2481 14.0148C54.2597 14.0506 54.259 14.0828 54.2531 14.1056C54.2486 14.1228 54.2384 14.148 54.2006 14.1796L49.7012 17.9389C49.0701 18.4662 48.7965 19.3082 48.9971 20.1058L50.4276 25.7918C50.4396 25.8395 50.433 25.8659 50.4265 25.8825C50.4179 25.9044 50.3995 25.9309 50.3691 25.953C50.3387 25.9751 50.3078 25.9844 50.2843 25.9858C50.2665 25.9869 50.2394 25.9849 50.1978 25.9588L45.232 22.8412C44.5355 22.404 43.6502 22.404 42.9537 22.8412L37.9879 25.9588C37.9463 25.9849 37.9192 25.9869 37.9014 25.9858C37.8779 25.9844 37.847 25.9751 37.8166 25.953C37.7862 25.9309 37.7678 25.9044 37.7592 25.8825C37.7527 25.8659 37.7461 25.8395 37.7581 25.7918L39.1886 20.1058C39.3892 19.3082 39.1156 18.4662 38.4845 17.9389L33.9851 14.1796C33.9474 14.148 33.9371 14.1228 33.9326 14.1056C33.9267 14.0828 33.926 14.0506 33.9376 14.0148C33.9493 13.9791 33.9688 13.9534 33.987 13.9384C34.0007 13.9271 34.0238 13.9128 34.0728 13.9094L39.9227 13.5128C40.7432 13.4571 41.4594 12.9367 41.7659 12.1736L43.9508 6.73264Z" stroke="#8620FF" stroke-opacity="0.2" stroke-width="1.98947"/>
    </g>
    <g filter="url(#filter8_f_472_9710)">
        <path d="M43.5958 6.59007C43.7757 6.14203 44.41 6.14203 44.5899 6.59007L46.7748 12.031C47.0266 12.6579 47.6149 13.0854 48.2889 13.1311L54.1387 13.5277C54.6205 13.5604 54.8164 14.1636 54.4459 14.4732L49.9465 18.2325C49.4281 18.6656 49.2033 19.3573 49.3681 20.0124L50.7986 25.6985C50.9164 26.1667 50.4033 26.5395 49.9944 26.2828L45.0286 23.1653C44.4565 22.8061 43.7292 22.8061 43.1571 23.1653L38.1913 26.2828C37.7824 26.5395 37.2693 26.1667 37.3871 25.6985L38.8176 20.0124C38.9824 19.3573 38.7576 18.6656 38.2392 18.2325L33.7398 14.4732C33.3693 14.1636 33.5653 13.5604 34.047 13.5277L39.8968 13.1311C40.5708 13.0854 41.1591 12.6579 41.4109 12.031L43.5958 6.59007Z" stroke="#8620FF" stroke-opacity="0.2" stroke-width="1.22429"/>
    </g>
    <g filter="url(#filter9_f_472_9710)">
        <path d="M43.3118 6.47601C43.5945 5.77196 44.5912 5.77196 44.8739 6.47601L47.0589 11.917C47.2668 12.4348 47.7529 12.7879 48.3096 12.8257L54.1595 13.2223C54.9164 13.2737 55.2244 14.2216 54.6422 14.708L50.1427 18.4674C49.7145 18.8252 49.5288 19.3965 49.665 19.9377L51.0954 25.6238C51.2805 26.3596 50.4742 26.9454 49.8316 26.542L44.8659 23.4245C44.3932 23.1278 43.7925 23.1278 43.3198 23.4245L38.3541 26.542C37.7115 26.9454 36.9052 26.3596 37.0903 25.6238L38.5207 19.9377C38.6569 19.3965 38.4712 18.8252 38.043 18.4674L33.5435 14.708C32.9613 14.2216 33.2693 13.2737 34.0263 13.2223L39.8761 12.8257C40.4329 12.7879 40.9189 12.4348 41.1269 11.917L43.3118 6.47601Z" stroke="white" stroke-width="0.612144"/>
    </g>
    <g style="mix-blend-mode:hard-light" filter="url(#filter10_f_472_9710)">
        <path d="M69.9748 6.73264C69.9931 6.68703 70.0139 6.66952 70.0289 6.65993C70.0487 6.64723 70.0792 6.63663 70.1168 6.63663C70.1544 6.63663 70.1848 6.64723 70.2047 6.65993C70.2197 6.66952 70.2405 6.68703 70.2588 6.73264L72.4437 12.1736C72.7502 12.9367 73.4665 13.4571 74.287 13.5128L80.1368 13.9094C80.1858 13.9128 80.2089 13.9271 80.2227 13.9384C80.2409 13.9534 80.2604 13.9791 80.272 14.0148C80.2836 14.0506 80.2829 14.0828 80.277 14.1056C80.2725 14.1228 80.2623 14.148 80.2246 14.1796L75.7251 17.9389C75.094 18.4662 74.8204 19.3082 75.021 20.1058L76.4515 25.7918C76.4635 25.8395 76.457 25.8659 76.4505 25.8825C76.4419 25.9044 76.4235 25.9309 76.393 25.953C76.3626 25.9751 76.3318 25.9844 76.3082 25.9858C76.2905 25.9869 76.2633 25.9849 76.2217 25.9588L71.256 22.8412C70.5595 22.404 69.6741 22.404 68.9776 22.8412L64.0118 25.9588C63.9702 25.9849 63.9431 25.9869 63.9253 25.9858C63.9018 25.9844 63.8709 25.9751 63.8405 25.953C63.8101 25.9309 63.7917 25.9044 63.7831 25.8825C63.7766 25.8659 63.7701 25.8395 63.7821 25.7918L65.2125 20.1058C65.4132 19.3082 65.1396 18.4662 64.5085 17.9389L60.009 14.1796C59.9713 14.148 59.9611 14.1228 59.9566 14.1056C59.9506 14.0828 59.95 14.0506 59.9616 14.0148C59.9732 13.9791 59.9927 13.9534 60.0109 13.9384C60.0247 13.9271 60.0477 13.9128 60.0968 13.9094L65.9466 13.5128C66.7671 13.4571 67.4834 12.9367 67.7898 12.1736L69.9748 6.73264Z" stroke="#6A11D5" stroke-width="1.98947"/>
    </g>
    <g style="mix-blend-mode:hard-light" filter="url(#filter11_f_472_9710)">
        <path d="M68.0739 12.2876L70.1168 7.20034L72.1597 12.2876C72.5099 13.1598 73.3285 13.7546 74.2663 13.8181L79.7359 14.189L75.5289 17.704C74.8076 18.3066 74.4949 19.2689 74.7242 20.1804L76.0617 25.4969L71.4187 22.582C70.6227 22.0823 69.6109 22.0823 68.8148 22.582L64.1719 25.4969L65.5093 20.1804C65.7386 19.2689 65.426 18.3066 64.7047 17.704L60.4977 14.189L65.9673 13.8181C66.905 13.7546 67.7236 13.1598 68.0739 12.2876Z" stroke="#7936C9" stroke-width="2.60161"/>
    </g>
    <g style="mix-blend-mode:hard-light" filter="url(#filter12_ddi_472_9710)">
        <path d="M69.9748 6.73264C69.9931 6.68703 70.0139 6.66952 70.0289 6.65993C70.0487 6.64723 70.0792 6.63663 70.1168 6.63663C70.1544 6.63663 70.1848 6.64723 70.2047 6.65993C70.2197 6.66952 70.2405 6.68703 70.2588 6.73264L72.4437 12.1736C72.7502 12.9367 73.4665 13.4571 74.287 13.5128L80.1368 13.9094C80.1858 13.9128 80.2089 13.9271 80.2227 13.9384C80.2409 13.9534 80.2604 13.9791 80.272 14.0148C80.2836 14.0506 80.2829 14.0828 80.277 14.1056C80.2725 14.1228 80.2623 14.148 80.2246 14.1796L75.7251 17.9389C75.094 18.4662 74.8204 19.3082 75.021 20.1058L76.4515 25.7918C76.4635 25.8395 76.457 25.8659 76.4505 25.8825C76.4419 25.9044 76.4235 25.9309 76.393 25.953C76.3626 25.9751 76.3318 25.9844 76.3082 25.9858C76.2905 25.9869 76.2633 25.9849 76.2217 25.9588L71.256 22.8412C70.5595 22.404 69.6741 22.404 68.9776 22.8412L64.0118 25.9588C63.9702 25.9849 63.9431 25.9869 63.9253 25.9858C63.9018 25.9844 63.8709 25.9751 63.8405 25.953C63.8101 25.9309 63.7917 25.9044 63.7831 25.8825C63.7766 25.8659 63.7701 25.8395 63.7821 25.7918L65.2125 20.1058C65.4132 19.3082 65.1396 18.4662 64.5085 17.9389L60.009 14.1796C59.9713 14.148 59.9611 14.1228 59.9566 14.1056C59.9506 14.0828 59.95 14.0506 59.9616 14.0148C59.9732 13.9791 59.9927 13.9534 60.0109 13.9384C60.0247 13.9271 60.0477 13.9128 60.0968 13.9094L65.9466 13.5128C66.7671 13.4571 67.4834 12.9367 67.7898 12.1736L69.9748 6.73264Z" stroke="#8620FF" stroke-opacity="0.2" stroke-width="1.98947"/>
    </g>
    <g filter="url(#filter13_f_472_9710)">
        <path d="M69.6197 6.59007C69.7997 6.14203 70.4339 6.14203 70.6138 6.59007L72.7988 12.031C73.0505 12.6579 73.6389 13.0854 74.3129 13.1311L80.1627 13.5277C80.6444 13.5604 80.8404 14.1636 80.4699 14.4732L75.9704 18.2325C75.452 18.6656 75.2273 19.3573 75.3921 20.0124L76.8225 25.6985C76.9403 26.1667 76.4272 26.5395 76.0183 26.2828L71.0525 23.1653C70.4804 22.8061 69.7532 22.8061 69.181 23.1653L64.2153 26.2828C63.8064 26.5395 63.2932 26.1667 63.411 25.6985L64.8415 20.0124C65.0063 19.3573 64.7816 18.6656 64.2632 18.2325L59.7637 14.4732C59.3932 14.1636 59.5892 13.5604 60.0709 13.5277L65.9207 13.1311C66.5947 13.0854 67.1831 12.6579 67.4348 12.031L69.6197 6.59007Z" stroke="#8620FF" stroke-opacity="0.2" stroke-width="1.22429"/>
    </g>
    <g filter="url(#filter14_f_472_9710)">
        <path d="M69.3357 6.47601C69.6184 5.77196 70.6151 5.77196 70.8979 6.47601L73.0828 11.917C73.2907 12.4348 73.7768 12.7879 74.3336 12.8257L80.1834 13.2223C80.9403 13.2737 81.2483 14.2216 80.6661 14.708L76.1666 18.4674C75.7384 18.8252 75.5527 19.3965 75.6889 19.9377L77.1194 25.6238C77.3045 26.3596 76.4981 26.9454 75.8556 26.542L70.8898 23.4245C70.4172 23.1278 69.8164 23.1278 69.3438 23.4245L64.378 26.542C63.7354 26.9454 62.9291 26.3596 63.1142 25.6238L64.5447 19.9377C64.6808 19.3965 64.4952 18.8252 64.0669 18.4674L59.5675 14.708C58.9852 14.2216 59.2932 13.2737 60.0502 13.2223L65.9 12.8257C66.4568 12.7879 66.9428 12.4348 67.1508 11.917L69.3357 6.47601Z" stroke="white" stroke-width="0.612144"/>
    </g>
    <path d="M21.7438 41.2193C22.1178 41.2193 22.4625 41.2596 22.7778 41.3403C23.0932 41.4136 23.3608 41.5309 23.5808 41.6923C23.8082 41.8463 23.9842 42.0443 24.1088 42.2863C24.2408 42.5209 24.3068 42.7996 24.3068 43.1223C24.3068 43.4083 24.2665 43.6539 24.1858 43.8593C24.1052 44.0646 24.0025 44.2369 23.8778 44.3763C23.7605 44.5156 23.6285 44.6256 23.4818 44.7063C23.3352 44.7869 23.1922 44.8493 23.0528 44.8933V44.9153C23.5515 44.9959 23.9438 45.2013 24.2298 45.5313C24.5232 45.8613 24.6698 46.2683 24.6698 46.7523C24.6698 46.9943 24.6258 47.2436 24.5378 47.5003C24.4572 47.7496 24.3032 47.9806 24.0758 48.1933C23.8558 48.4059 23.5478 48.5819 23.1518 48.7213C22.7632 48.8533 22.2608 48.9193 21.6448 48.9193H19.2138V41.2193H21.7438ZM20.7758 44.3433H21.5348C21.7842 44.3433 21.9858 44.3103 22.1398 44.2443C22.3012 44.1783 22.4258 44.0976 22.5138 44.0023C22.6018 43.8996 22.6605 43.7933 22.6898 43.6833C22.7192 43.5733 22.7338 43.4743 22.7338 43.3863C22.7338 43.3349 22.7228 43.2543 22.7008 43.1443C22.6862 43.0343 22.6348 42.9279 22.5468 42.8253C22.4662 42.7226 22.3415 42.6309 22.1728 42.5503C22.0042 42.4696 21.7695 42.4293 21.4688 42.4293H20.7758V44.3433ZM20.7758 47.7093H21.6448C21.8868 47.7093 22.0958 47.6799 22.2718 47.6213C22.4478 47.5553 22.5908 47.4746 22.7008 47.3793C22.8108 47.2766 22.8915 47.1629 22.9428 47.0383C22.9942 46.9063 23.0198 46.7706 23.0198 46.6313C23.0198 46.4919 22.9978 46.3599 22.9538 46.2353C22.9098 46.1033 22.8365 45.9896 22.7338 45.8943C22.6312 45.7916 22.4918 45.7109 22.3158 45.6523C22.1398 45.5863 21.9162 45.5533 21.6448 45.5533H20.7758V47.7093ZM27.1369 46.5213C27.1443 46.7046 27.1846 46.8806 27.2579 47.0493C27.3313 47.2179 27.4376 47.3683 27.5769 47.5003C27.7163 47.6323 27.8886 47.7386 28.0939 47.8193C28.3066 47.8926 28.5523 47.9293 28.8309 47.9293C29.1609 47.9293 29.4726 47.8963 29.7659 47.8303C30.0593 47.7569 30.3416 47.6579 30.6129 47.5333V48.6553C30.3196 48.7653 30.0043 48.8533 29.6669 48.9193C29.3296 48.9779 28.9886 49.0073 28.6439 49.0073C28.2186 49.0073 27.8189 48.9486 27.4449 48.8313C27.0709 48.7139 26.7446 48.5343 26.4659 48.2923C26.1946 48.0503 25.9783 47.7459 25.8169 47.3793C25.6556 47.0126 25.5749 46.5763 25.5749 46.0703C25.5749 45.6083 25.6483 45.1976 25.7949 44.8383C25.9489 44.4716 26.1543 44.1636 26.4109 43.9143C26.6676 43.6576 26.9646 43.4633 27.3019 43.3313C27.6466 43.1993 28.0096 43.1333 28.3909 43.1333C28.8236 43.1333 29.1866 43.1993 29.4799 43.3313C29.7806 43.4559 30.0263 43.6173 30.2169 43.8153C30.4149 44.0133 30.5653 44.2333 30.6679 44.4753C30.7779 44.7099 30.8586 44.9409 30.9099 45.1683C30.9613 45.3956 30.9906 45.6009 30.9979 45.7843C31.0126 45.9676 31.0199 46.0996 31.0199 46.1803V46.5213H27.1369ZM29.4799 45.4983C29.4873 45.2563 29.4543 45.0509 29.3809 44.8823C29.3149 44.7136 29.2233 44.5779 29.1059 44.4753C28.9886 44.3653 28.8603 44.2883 28.7209 44.2443C28.5816 44.1929 28.4423 44.1673 28.3029 44.1673C28.1343 44.1673 27.9803 44.2039 27.8409 44.2773C27.7016 44.3433 27.5806 44.4349 27.4779 44.5523C27.3753 44.6696 27.2909 44.8126 27.2249 44.9813C27.1663 45.1426 27.1369 45.3149 27.1369 45.4983H29.4799ZM37.3827 43.2213V47.8193H38.3177V50.4043H36.9427V48.9193H32.9167V50.4043H31.5417V47.8193H32.1797C32.3483 47.6213 32.4803 47.4196 32.5757 47.2143C32.6783 47.0089 32.7517 46.7926 32.7957 46.5653C32.847 46.3379 32.88 46.1033 32.8947 45.8613C32.9093 45.6119 32.9167 45.3479 32.9167 45.0693V43.2213H37.3827ZM35.8867 47.8193V44.3213H34.2367V45.1683C34.2367 45.3883 34.233 45.6119 34.2257 45.8393C34.2257 46.0666 34.2037 46.2903 34.1597 46.5103C34.123 46.7303 34.0643 46.9503 33.9837 47.1703C33.903 47.3903 33.7857 47.6066 33.6317 47.8193H35.8867ZM39.7328 51.3613C39.5935 51.3613 39.4468 51.3429 39.2928 51.3063C39.1388 51.2769 38.9958 51.2403 38.8638 51.1963V50.0523C38.9518 50.0889 39.0471 50.1219 39.1498 50.1513C39.2525 50.1879 39.3881 50.2063 39.5568 50.2063C39.8135 50.2063 40.0225 50.1623 40.1838 50.0743C40.3525 49.9863 40.4881 49.8176 40.5908 49.5683L40.7228 49.2383L38.4788 43.2213H40.1288L41.1958 46.3673L41.5148 47.4563H41.5698L41.9218 46.3233L42.9558 43.2213H44.4738L42.0648 49.6123C41.9841 49.8249 41.8888 50.0339 41.7788 50.2393C41.6761 50.4519 41.5405 50.6389 41.3718 50.8003C41.2031 50.9689 40.9868 51.1046 40.7228 51.2073C40.4588 51.3099 40.1288 51.3613 39.7328 51.3613ZM46.7154 43.2213V47.8193H48.5524V43.2213H50.0484V47.8193H51.8854V43.2213H53.3814V47.8193H54.3384V50.4043H52.9634V48.9193H45.2194V43.2213H46.7154ZM56.7164 43.2213V46.2133L56.6724 47.2363H56.6944L59.1474 43.2213H60.8194V48.9193H59.3234V45.9713L59.3674 44.9043H59.3344L56.8154 48.9193H55.2204V43.2213H56.7164ZM63.7418 43.2213V46.2133L63.6978 47.2363H63.7198L66.1728 43.2213H67.8448V48.9193H66.3488V45.9713L66.3928 44.9043H66.3598L63.8408 48.9193H62.2458V43.2213H63.7418ZM65.0398 42.5393C64.8418 42.5393 64.6474 42.5136 64.4568 42.4623C64.2734 42.4109 64.1084 42.3303 63.9618 42.2203C63.8151 42.1029 63.6941 41.9526 63.5988 41.7693C63.5108 41.5786 63.4594 41.3513 63.4448 41.0873L64.3798 40.9993C64.4091 41.2559 64.4714 41.4393 64.5668 41.5493C64.6694 41.6593 64.8271 41.7143 65.0398 41.7143C65.2524 41.7143 65.4064 41.6593 65.5018 41.5493C65.6044 41.4393 65.6704 41.2559 65.6998 40.9993L66.6348 41.0873C66.6201 41.3513 66.5651 41.5786 66.4698 41.7693C66.3818 41.9526 66.2644 42.1029 66.1178 42.2203C65.9711 42.3303 65.8024 42.4109 65.6118 42.4623C65.4284 42.5136 65.2378 42.5393 65.0398 42.5393ZM16.2262 54.2213H18.4042L19.6692 57.3013L20.9342 54.2213H23.0462V59.9193H21.5502V55.7613H21.5282L20.3842 58.5113H18.8882L17.7442 55.7613H17.7222V59.9193H16.2262V54.2213ZM25.7082 57.5213C25.7156 57.7046 25.7559 57.8806 25.8292 58.0493C25.9026 58.2179 26.0089 58.3683 26.1482 58.5003C26.2876 58.6323 26.4599 58.7386 26.6652 58.8193C26.8779 58.8926 27.1236 58.9293 27.4022 58.9293C27.7322 58.9293 28.0439 58.8963 28.3372 58.8303C28.6306 58.7569 28.9129 58.6579 29.1842 58.5333V59.6553C28.8909 59.7653 28.5756 59.8533 28.2382 59.9193C27.9009 59.9779 27.5599 60.0073 27.2152 60.0073C26.7899 60.0073 26.3902 59.9486 26.0162 59.8313C25.6422 59.7139 25.3159 59.5343 25.0372 59.2923C24.7659 59.0503 24.5496 58.7459 24.3882 58.3793C24.2269 58.0126 24.1462 57.5763 24.1462 57.0703C24.1462 56.6083 24.2196 56.1976 24.3662 55.8383C24.5202 55.4716 24.7256 55.1636 24.9822 54.9143C25.2389 54.6576 25.5359 54.4633 25.8732 54.3313C26.2179 54.1993 26.5809 54.1333 26.9622 54.1333C27.3949 54.1333 27.7579 54.1993 28.0512 54.3313C28.3519 54.4559 28.5976 54.6173 28.7882 54.8153C28.9862 55.0133 29.1366 55.2333 29.2392 55.4753C29.3492 55.7099 29.4299 55.9409 29.4812 56.1683C29.5326 56.3956 29.5619 56.6009 29.5692 56.7843C29.5839 56.9676 29.5912 57.0996 29.5912 57.1803V57.5213H25.7082ZM28.0512 56.4983C28.0586 56.2563 28.0256 56.0509 27.9522 55.8823C27.8862 55.7136 27.7946 55.5779 27.6772 55.4753C27.5599 55.3653 27.4316 55.2883 27.2922 55.2443C27.1529 55.1929 27.0136 55.1673 26.8742 55.1673C26.7056 55.1673 26.5516 55.2039 26.4122 55.2773C26.2729 55.3433 26.1519 55.4349 26.0492 55.5523C25.9466 55.6696 25.8622 55.8126 25.7962 55.9813C25.7376 56.1426 25.7082 56.3149 25.7082 56.4983H28.0512ZM32.192 54.2213V56.3773H34.59V54.2213H36.086V59.9193H34.59V57.4773H32.192V59.9193H30.696V54.2213H32.192ZM38.7492 57.5213C38.7566 57.7046 38.7969 57.8806 38.8702 58.0493C38.9436 58.2179 39.0499 58.3683 39.1892 58.5003C39.3286 58.6323 39.5009 58.7386 39.7062 58.8193C39.9189 58.8926 40.1646 58.9293 40.4432 58.9293C40.7732 58.9293 41.0849 58.8963 41.3782 58.8303C41.6716 58.7569 41.9539 58.6579 42.2252 58.5333V59.6553C41.9319 59.7653 41.6166 59.8533 41.2792 59.9193C40.9419 59.9779 40.6009 60.0073 40.2562 60.0073C39.8309 60.0073 39.4312 59.9486 39.0572 59.8313C38.6832 59.7139 38.3569 59.5343 38.0782 59.2923C37.8069 59.0503 37.5906 58.7459 37.4292 58.3793C37.2679 58.0126 37.1872 57.5763 37.1872 57.0703C37.1872 56.6083 37.2606 56.1976 37.4072 55.8383C37.5612 55.4716 37.7666 55.1636 38.0232 54.9143C38.2799 54.6576 38.5769 54.4633 38.9142 54.3313C39.2589 54.1993 39.6219 54.1333 40.0032 54.1333C40.4359 54.1333 40.7989 54.1993 41.0922 54.3313C41.3929 54.4559 41.6386 54.6173 41.8292 54.8153C42.0272 55.0133 42.1776 55.2333 42.2802 55.4753C42.3902 55.7099 42.4709 55.9409 42.5222 56.1683C42.5736 56.3956 42.6029 56.6009 42.6102 56.7843C42.6249 56.9676 42.6322 57.0996 42.6322 57.1803V57.5213H38.7492ZM41.0922 56.4983C41.0996 56.2563 41.0666 56.0509 40.9932 55.8823C40.9272 55.7136 40.8356 55.5779 40.7182 55.4753C40.6009 55.3653 40.4726 55.2883 40.3332 55.2443C40.1939 55.1929 40.0546 55.1673 39.9152 55.1673C39.7466 55.1673 39.5926 55.2039 39.4532 55.2773C39.3139 55.3433 39.1929 55.4349 39.0902 55.5523C38.9876 55.6696 38.9032 55.8126 38.8372 55.9813C38.7786 56.1426 38.7492 56.3149 38.7492 56.4983H41.0922ZM48.995 54.2213V58.8193H49.93V61.4043H48.555V59.9193H44.529V61.4043H43.154V58.8193H43.792C43.9606 58.6213 44.0926 58.4196 44.188 58.2143C44.2906 58.0089 44.364 57.7926 44.408 57.5653C44.4593 57.3379 44.4923 57.1033 44.507 56.8613C44.5216 56.6119 44.529 56.3479 44.529 56.0693V54.2213H48.995ZM47.499 58.8193V55.3213H45.849V56.1683C45.849 56.3883 45.8453 56.6119 45.838 56.8393C45.838 57.0666 45.816 57.2903 45.772 57.5103C45.7353 57.7303 45.6766 57.9503 45.596 58.1703C45.5153 58.3903 45.398 58.6066 45.244 58.8193H47.499ZM55.2611 54.2213V56.7623H55.3161L57.0211 54.2213H58.7261L56.7131 56.8283L58.9131 59.9193H57.0211L55.3161 57.1583H55.2611V59.9193H53.7651V57.1583H53.7101L52.0051 59.9193H50.1131L52.3131 56.8283L50.3001 54.2213H52.0051L53.7101 56.7623H53.7651V54.2213H55.2611ZM60.5237 57.5213C60.531 57.7046 60.5713 57.8806 60.6447 58.0493C60.718 58.2179 60.8243 58.3683 60.9637 58.5003C61.103 58.6323 61.2753 58.7386 61.4807 58.8193C61.6933 58.8926 61.939 58.9293 62.2177 58.9293C62.5477 58.9293 62.8593 58.8963 63.1527 58.8303C63.446 58.7569 63.7283 58.6579 63.9997 58.5333V59.6553C63.7063 59.7653 63.391 59.8533 63.0537 59.9193C62.7163 59.9779 62.3753 60.0073 62.0307 60.0073C61.6053 60.0073 61.2057 59.9486 60.8317 59.8313C60.4577 59.7139 60.1313 59.5343 59.8527 59.2923C59.5813 59.0503 59.365 58.7459 59.2037 58.3793C59.0423 58.0126 58.9617 57.5763 58.9617 57.0703C58.9617 56.6083 59.035 56.1976 59.1817 55.8383C59.3357 55.4716 59.541 55.1636 59.7977 54.9143C60.0543 54.6576 60.3513 54.4633 60.6887 54.3313C61.0333 54.1993 61.3963 54.1333 61.7777 54.1333C62.2103 54.1333 62.5733 54.1993 62.8667 54.3313C63.1673 54.4559 63.413 54.6173 63.6037 54.8153C63.8017 55.0133 63.952 55.2333 64.0547 55.4753C64.1647 55.7099 64.2453 55.9409 64.2967 56.1683C64.348 56.3956 64.3773 56.6009 64.3847 56.7843C64.3993 56.9676 64.4067 57.0996 64.4067 57.1803V57.5213H60.5237ZM62.8667 56.4983C62.874 56.2563 62.841 56.0509 62.7677 55.8823C62.7017 55.7136 62.61 55.5779 62.4927 55.4753C62.3753 55.3653 62.247 55.2883 62.1077 55.2443C61.9683 55.1929 61.829 55.1673 61.6897 55.1673C61.521 55.1673 61.367 55.2039 61.2277 55.2773C61.0883 55.3433 60.9673 55.4349 60.8647 55.5523C60.762 55.6696 60.6777 55.8126 60.6117 55.9813C60.553 56.1426 60.5237 56.3149 60.5237 56.4983H62.8667ZM65.5114 62.2733V54.2213H66.8204V55.2113H66.8424C66.9891 54.9546 67.1541 54.7529 67.3374 54.6063C67.5281 54.4596 67.7151 54.3533 67.8984 54.2873C68.0817 54.2139 68.2467 54.1699 68.3934 54.1553C68.5401 54.1406 68.6427 54.1333 68.7014 54.1333C69.0241 54.1333 69.3284 54.1883 69.6144 54.2983C69.9077 54.4009 70.1644 54.5733 70.3844 54.8153C70.6044 55.0499 70.7767 55.3543 70.9014 55.7283C71.0334 56.0949 71.0994 56.5423 71.0994 57.0703C71.0994 57.5983 71.0297 58.0493 70.8904 58.4233C70.7511 58.7899 70.5641 59.0906 70.3294 59.3253C70.1021 59.5599 69.8381 59.7323 69.5374 59.8423C69.2441 59.9523 68.9434 60.0073 68.6354 60.0073C68.2174 60.0073 67.8764 59.9229 67.6124 59.7543C67.3557 59.5856 67.1504 59.3839 66.9964 59.1493H66.9744L67.0074 60.0843V62.2733H65.5114ZM67.0074 57.0703C67.0074 57.3709 67.0441 57.6313 67.1174 57.8513C67.1907 58.0713 67.2861 58.2546 67.4034 58.4013C67.5281 58.5406 67.6637 58.6469 67.8104 58.7203C67.9644 58.7863 68.1184 58.8193 68.2724 58.8193C68.4264 58.8193 68.5767 58.7863 68.7234 58.7203C68.8774 58.6469 69.0131 58.5406 69.1304 58.4013C69.2551 58.2546 69.3541 58.0713 69.4274 57.8513C69.5007 57.6313 69.5374 57.3709 69.5374 57.0703C69.5374 56.7696 69.5007 56.5093 69.4274 56.2893C69.3541 56.0693 69.2551 55.8896 69.1304 55.7503C69.0131 55.6036 68.8774 55.4973 68.7234 55.4313C68.5767 55.3579 68.4264 55.3213 68.2724 55.3213C68.1184 55.3213 67.9644 55.3579 67.8104 55.4313C67.6637 55.4973 67.5281 55.6036 67.4034 55.7503C67.2861 55.8896 67.1907 56.0693 67.1174 56.2893C67.0441 56.5093 67.0074 56.7696 67.0074 57.0703Z" fill="#8620FF"/>
    <defs>
        <filter id="filter0_f_472_9710" x="0.482416" y="0.178513" width="33.2449" height="32.2656" filterUnits="userSpaceOnUse" color-interpolation-filters="sRGB">
            <feFlood flood-opacity="0" result="BackgroundImageFix"/>
            <feBlend mode="normal" in="SourceGraphic" in2="BackgroundImageFix" result="shape"/>
            <feGaussianBlur stdDeviation="2.73169" result="effect1_foregroundBlur_472_9710"/>
        </filter>
        <filter id="filter1_f_472_9710" x="4.12467" y="3.82077" width="25.9604" height="24.9811" filterUnits="userSpaceOnUse" color-interpolation-filters="sRGB">
            <feFlood flood-opacity="0" result="BackgroundImageFix"/>
            <feBlend mode="normal" in="SourceGraphic" in2="BackgroundImageFix" result="shape"/>
            <feGaussianBlur stdDeviation="0.910564" result="effect1_foregroundBlur_472_9710"/>
        </filter>
        <filter id="filter2_ddi_472_9710" x="3.57833" y="5.09556" width="27.053" height="26.0738" filterUnits="userSpaceOnUse" color-interpolation-filters="sRGB">
            <feFlood flood-opacity="0" result="BackgroundImageFix"/>
            <feColorMatrix in="SourceAlpha" type="matrix" values="0 0 0 0 0 0 0 0 0 0 0 0 0 0 0 0 0 0 127 0" result="hardAlpha"/>
            <feOffset dy="1.98947"/>
            <feGaussianBlur stdDeviation="0.76518"/>
            <feColorMatrix type="matrix" values="0 0 0 0 0 0 0 0 0 0.051 0 0 0 0 0.082 0 0 0 0.5 0"/>
            <feBlend mode="multiply" in2="BackgroundImageFix" result="effect1_dropShadow_472_9710"/>
            <feColorMatrix in="SourceAlpha" type="matrix" values="0 0 0 0 0 0 0 0 0 0 0 0 0 0 0 0 0 0 127 0" result="hardAlpha"/>
            <feOffset dy="1.82113"/>
            <feGaussianBlur stdDeviation="1.18373"/>
            <feColorMatrix type="matrix" values="0 0 0 0 0.702449 0 0 0 0 0.458646 0 0 0 0 0.991667 0 0 0 0.6 0"/>
            <feBlend mode="color-dodge" in2="effect1_dropShadow_472_9710" result="effect2_dropShadow_472_9710"/>
            <feBlend mode="normal" in="SourceGraphic" in2="effect2_dropShadow_472_9710" result="shape"/>
            <feColorMatrix in="SourceAlpha" type="matrix" values="0 0 0 0 0 0 0 0 0 0 0 0 0 0 0 0 0 0 127 0" result="hardAlpha"/>
            <feOffset dx="-0.198947" dy="0.397894"/>
            <feGaussianBlur stdDeviation="0.0994734"/>
            <feComposite in2="hardAlpha" operator="arithmetic" k2="-1" k3="1"/>
            <feColorMatrix type="matrix" values="0 0 0 0 1 0 0 0 0 1 0 0 0 0 1 0 0 0 0.5 0"/>
            <feBlend mode="normal" in2="shape" result="effect3_innerShadow_472_9710"/>
        </filter>
        <filter id="filter3_f_472_9710" x="5.63973" y="5.33583" width="22.9303" height="21.951" filterUnits="userSpaceOnUse" color-interpolation-filters="sRGB">
            <feFlood flood-opacity="0" result="BackgroundImageFix"/>
            <feBlend mode="normal" in="SourceGraphic" in2="BackgroundImageFix" result="shape"/>
            <feGaussianBlur stdDeviation="0.153036" result="effect1_foregroundBlur_472_9710"/>
        </filter>
        <filter id="filter4_f_472_9710" x="5.74175" y="5.43785" width="22.7262" height="21.7469" filterUnits="userSpaceOnUse" color-interpolation-filters="sRGB">
            <feFlood flood-opacity="0" result="BackgroundImageFix"/>
            <feBlend mode="normal" in="SourceGraphic" in2="BackgroundImageFix" result="shape"/>
            <feGaussianBlur stdDeviation="0.102024" result="effect1_foregroundBlur_472_9710"/>
        </filter>
        <filter id="filter5_f_472_9710" x="27.4705" y="0.178513" width="33.2449" height="32.2656" filterUnits="userSpaceOnUse" color-interpolation-filters="sRGB">
            <feFlood flood-opacity="0" result="BackgroundImageFix"/>
            <feBlend mode="normal" in="SourceGraphic" in2="BackgroundImageFix" result="shape"/>
            <feGaussianBlur stdDeviation="2.73169" result="effect1_foregroundBlur_472_9710"/>
        </filter>
        <filter id="filter6_f_472_9710" x="31.1127" y="3.82077" width="25.9604" height="24.9811" filterUnits="userSpaceOnUse" color-interpolation-filters="sRGB">
            <feFlood flood-opacity="0" result="BackgroundImageFix"/>
            <feBlend mode="normal" in="SourceGraphic" in2="BackgroundImageFix" result="shape"/>
            <feGaussianBlur stdDeviation="0.910564" result="effect1_foregroundBlur_472_9710"/>
        </filter>
        <filter id="filter7_ddi_472_9710" x="30.5664" y="5.09556" width="27.053" height="26.0738" filterUnits="userSpaceOnUse" color-interpolation-filters="sRGB">
            <feFlood flood-opacity="0" result="BackgroundImageFix"/>
            <feColorMatrix in="SourceAlpha" type="matrix" values="0 0 0 0 0 0 0 0 0 0 0 0 0 0 0 0 0 0 127 0" result="hardAlpha"/>
            <feOffset dy="1.98947"/>
            <feGaussianBlur stdDeviation="0.76518"/>
            <feColorMatrix type="matrix" values="0 0 0 0 0 0 0 0 0 0.051 0 0 0 0 0.082 0 0 0 0.5 0"/>
            <feBlend mode="multiply" in2="BackgroundImageFix" result="effect1_dropShadow_472_9710"/>
            <feColorMatrix in="SourceAlpha" type="matrix" values="0 0 0 0 0 0 0 0 0 0 0 0 0 0 0 0 0 0 127 0" result="hardAlpha"/>
            <feOffset dy="1.82113"/>
            <feGaussianBlur stdDeviation="1.18373"/>
            <feColorMatrix type="matrix" values="0 0 0 0 0.702449 0 0 0 0 0.458646 0 0 0 0 0.991667 0 0 0 0.6 0"/>
            <feBlend mode="color-dodge" in2="effect1_dropShadow_472_9710" result="effect2_dropShadow_472_9710"/>
            <feBlend mode="normal" in="SourceGraphic" in2="effect2_dropShadow_472_9710" result="shape"/>
            <feColorMatrix in="SourceAlpha" type="matrix" values="0 0 0 0 0 0 0 0 0 0 0 0 0 0 0 0 0 0 127 0" result="hardAlpha"/>
            <feOffset dx="-0.198947" dy="0.397894"/>
            <feGaussianBlur stdDeviation="0.0994734"/>
            <feComposite in2="hardAlpha" operator="arithmetic" k2="-1" k3="1"/>
            <feColorMatrix type="matrix" values="0 0 0 0 1 0 0 0 0 1 0 0 0 0 1 0 0 0 0.5 0"/>
            <feBlend mode="normal" in2="shape" result="effect3_innerShadow_472_9710"/>
        </filter>
        <filter id="filter8_f_472_9710" x="32.6278" y="5.33583" width="22.9303" height="21.951" filterUnits="userSpaceOnUse" color-interpolation-filters="sRGB">
            <feFlood flood-opacity="0" result="BackgroundImageFix"/>
            <feBlend mode="normal" in="SourceGraphic" in2="BackgroundImageFix" result="shape"/>
            <feGaussianBlur stdDeviation="0.153036" result="effect1_foregroundBlur_472_9710"/>
        </filter>
        <filter id="filter9_f_472_9710" x="32.7298" y="5.43785" width="22.7262" height="21.7469" filterUnits="userSpaceOnUse" color-interpolation-filters="sRGB">
            <feFlood flood-opacity="0" result="BackgroundImageFix"/>
            <feBlend mode="normal" in="SourceGraphic" in2="BackgroundImageFix" result="shape"/>
            <feGaussianBlur stdDeviation="0.102024" result="effect1_foregroundBlur_472_9710"/>
        </filter>
        <filter id="filter10_f_472_9710" x="53.4944" y="0.178513" width="33.2449" height="32.2656" filterUnits="userSpaceOnUse" color-interpolation-filters="sRGB">
            <feFlood flood-opacity="0" result="BackgroundImageFix"/>
            <feBlend mode="normal" in="SourceGraphic" in2="BackgroundImageFix" result="shape"/>
            <feGaussianBlur stdDeviation="2.73169" result="effect1_foregroundBlur_472_9710"/>
        </filter>
        <filter id="filter11_f_472_9710" x="57.1366" y="3.82077" width="25.9604" height="24.9811" filterUnits="userSpaceOnUse" color-interpolation-filters="sRGB">
            <feFlood flood-opacity="0" result="BackgroundImageFix"/>
            <feBlend mode="normal" in="SourceGraphic" in2="BackgroundImageFix" result="shape"/>
            <feGaussianBlur stdDeviation="0.910564" result="effect1_foregroundBlur_472_9710"/>
        </filter>
        <filter id="filter12_ddi_472_9710" x="56.5903" y="5.09556" width="27.053" height="26.0738" filterUnits="userSpaceOnUse" color-interpolation-filters="sRGB">
            <feFlood flood-opacity="0" result="BackgroundImageFix"/>
            <feColorMatrix in="SourceAlpha" type="matrix" values="0 0 0 0 0 0 0 0 0 0 0 0 0 0 0 0 0 0 127 0" result="hardAlpha"/>
            <feOffset dy="1.98947"/>
            <feGaussianBlur stdDeviation="0.76518"/>
            <feColorMatrix type="matrix" values="0 0 0 0 0 0 0 0 0 0.051 0 0 0 0 0.082 0 0 0 0.5 0"/>
            <feBlend mode="multiply" in2="BackgroundImageFix" result="effect1_dropShadow_472_9710"/>
            <feColorMatrix in="SourceAlpha" type="matrix" values="0 0 0 0 0 0 0 0 0 0 0 0 0 0 0 0 0 0 127 0" result="hardAlpha"/>
            <feOffset dy="1.82113"/>
            <feGaussianBlur stdDeviation="1.18373"/>
            <feColorMatrix type="matrix" values="0 0 0 0 0.702449 0 0 0 0 0.458646 0 0 0 0 0.991667 0 0 0 0.6 0"/>
            <feBlend mode="color-dodge" in2="effect1_dropShadow_472_9710" result="effect2_dropShadow_472_9710"/>
            <feBlend mode="normal" in="SourceGraphic" in2="effect2_dropShadow_472_9710" result="shape"/>
            <feColorMatrix in="SourceAlpha" type="matrix" values="0 0 0 0 0 0 0 0 0 0 0 0 0 0 0 0 0 0 127 0" result="hardAlpha"/>
            <feOffset dx="-0.198947" dy="0.397894"/>
            <feGaussianBlur stdDeviation="0.0994734"/>
            <feComposite in2="hardAlpha" operator="arithmetic" k2="-1" k3="1"/>
            <feColorMatrix type="matrix" values="0 0 0 0 1 0 0 0 0 1 0 0 0 0 1 0 0 0 0.5 0"/>
            <feBlend mode="normal" in2="shape" result="effect3_innerShadow_472_9710"/>
        </filter>
        <filter id="filter13_f_472_9710" x="58.6517" y="5.33583" width="22.9303" height="21.951" filterUnits="userSpaceOnUse" color-interpolation-filters="sRGB">
            <feFlood flood-opacity="0" result="BackgroundImageFix"/>
            <feBlend mode="normal" in="SourceGraphic" in2="BackgroundImageFix" result="shape"/>
            <feGaussianBlur stdDeviation="0.153036" result="effect1_foregroundBlur_472_9710"/>
        </filter>
        <filter id="filter14_f_472_9710" x="58.7537" y="5.43785" width="22.7262" height="21.7469" filterUnits="userSpaceOnUse" color-interpolation-filters="sRGB">
            <feFlood flood-opacity="0" result="BackgroundImageFix"/>
            <feBlend mode="normal" in="SourceGraphic" in2="BackgroundImageFix" result="shape"/>
            <feGaussianBlur stdDeviation="0.102024" result="effect1_foregroundBlur_472_9710"/>
        </filter>
    </defs>
</svg>
