<svg viewBox="0 0 84 70" fill="none" xmlns="http://www.w3.org/2000/svg">
<g style="mix-blend-mode:hard-light" filter="url(#filter0_f_472_9659)">
<path d="M21.4495 8.47918C21.4705 8.42669 21.4945 8.40654 21.5117 8.3955C21.5346 8.38088 21.5696 8.36869 21.6129 8.36869C21.6562 8.36869 21.6912 8.38088 21.7141 8.3955C21.7313 8.40654 21.7553 8.42669 21.7763 8.47918L24.7966 16.0003C25.1493 16.8786 25.9737 17.4776 26.918 17.5416L35.0044 18.0899C35.0608 18.0937 35.0874 18.1103 35.1032 18.1233C35.1242 18.1405 35.1466 18.17 35.16 18.2112C35.1733 18.2523 35.1726 18.2894 35.1657 18.3157C35.1606 18.3355 35.1488 18.3645 35.1054 18.4008L28.8857 23.5974C28.1593 24.2043 27.8445 25.1733 28.0754 26.0912L30.0527 33.9513C30.0665 34.0061 30.059 34.0365 30.0515 34.0556C30.0416 34.0808 30.0204 34.1113 29.9854 34.1367C29.9504 34.1621 29.9149 34.1729 29.8878 34.1745C29.8674 34.1757 29.8362 34.1735 29.7883 34.1434L22.924 29.8339C22.1224 29.3307 21.1034 29.3307 20.3018 29.8339L13.4375 34.1434C13.3896 34.1735 13.3584 34.1757 13.338 34.1745C13.3109 34.1729 13.2754 34.1621 13.2404 34.1367C13.2054 34.1113 13.1842 34.0808 13.1743 34.0556C13.1668 34.0365 13.1593 34.0061 13.1731 33.9513L15.1504 26.0912C15.3814 25.1733 15.0665 24.2043 14.3401 23.5974L8.12043 18.4008C8.07702 18.3645 8.06526 18.3355 8.06009 18.3157C8.05325 18.2894 8.05248 18.2523 8.06585 18.2112C8.07922 18.17 8.10165 18.1405 8.12261 18.1233C8.13844 18.1103 8.165 18.0937 8.22144 18.0899L16.3078 17.5416C17.2521 17.4776 18.0765 16.8787 18.4292 16.0003L21.4495 8.47918Z" stroke="#0094FF" stroke-width="2.28968"/>
</g>
<g style="mix-blend-mode:hard-light" filter="url(#filter1_f_472_9659)">
<path d="M21.6129 9.01746L24.4697 16.1316C24.8728 17.1354 25.8149 17.8199 26.8942 17.8931L34.5429 18.4117L28.6598 23.3271C27.8297 24.0206 27.4698 25.1282 27.7338 26.1772L29.1856 25.8119L27.7338 26.1772L29.6041 33.6119L23.1113 29.5356C22.1952 28.9604 21.0306 28.9604 20.1145 29.5356L13.6217 33.6119L15.4921 26.1772C15.756 25.1282 15.3961 24.0206 14.566 23.3271L8.68286 18.4117L16.3316 17.8931C17.4109 17.8199 18.353 17.1354 18.7561 16.1316L21.6129 9.01746Z" stroke="#0094FF" stroke-width="2.99419"/>
</g>
<g style="mix-blend-mode:hard-light" filter="url(#filter2_ddi_472_9659)">
<path d="M21.4495 8.47918C21.4705 8.42669 21.4945 8.40654 21.5117 8.3955C21.5346 8.38088 21.5696 8.36869 21.6129 8.36869C21.6562 8.36869 21.6912 8.38088 21.7141 8.3955C21.7313 8.40654 21.7553 8.42669 21.7763 8.47918L24.7966 16.0003C25.1493 16.8786 25.9737 17.4776 26.918 17.5416L35.0044 18.0899C35.0608 18.0937 35.0874 18.1103 35.1032 18.1233C35.1242 18.1405 35.1466 18.17 35.16 18.2112C35.1733 18.2523 35.1726 18.2894 35.1657 18.3157C35.1606 18.3355 35.1488 18.3645 35.1054 18.4008L28.8857 23.5974C28.1593 24.2043 27.8445 25.1733 28.0754 26.0912L30.0527 33.9513C30.0665 34.0061 30.059 34.0365 30.0515 34.0556C30.0416 34.0808 30.0204 34.1113 29.9854 34.1367C29.9504 34.1621 29.9149 34.1729 29.8878 34.1745C29.8674 34.1757 29.8362 34.1735 29.7883 34.1434L22.924 29.8339C22.1224 29.3307 21.1034 29.3307 20.3018 29.8339L13.4375 34.1434C13.3896 34.1735 13.3584 34.1757 13.338 34.1745C13.3109 34.1729 13.2754 34.1621 13.2404 34.1367C13.2054 34.1113 13.1842 34.0808 13.1743 34.0556C13.1668 34.0365 13.1593 34.0061 13.1731 33.9513L15.1504 26.0912C15.3814 25.1733 15.0665 24.2043 14.3401 23.5974L8.12043 18.4008C8.07702 18.3645 8.06526 18.3355 8.06009 18.3157C8.05325 18.2894 8.05248 18.2523 8.06585 18.2112C8.07922 18.17 8.10165 18.1405 8.12261 18.1233C8.13844 18.1103 8.165 18.0937 8.22144 18.0899L16.3078 17.5416C17.2521 17.4776 18.0765 16.8787 18.4292 16.0003L21.4495 8.47918Z" stroke="#00B3FF" stroke-opacity="0.2" stroke-width="2.28968"/>
</g>
<g filter="url(#filter3_f_472_9659)">
<path d="M21.0409 8.3151C21.2479 7.79945 21.9779 7.79945 22.185 8.3151L25.2052 15.8362C25.495 16.5577 26.1721 17.0497 26.9478 17.1023L35.0342 17.6506C35.5885 17.6882 35.8141 18.3824 35.3877 18.7387L29.168 23.9353C28.5713 24.4338 28.3127 25.2298 28.5024 25.9838L30.4797 33.8438C30.6153 34.3827 30.0248 34.8118 29.5541 34.5163L22.6899 30.2069C22.0314 29.7935 21.1944 29.7935 20.5359 30.2069L13.6717 34.5163C13.2011 34.8118 12.6105 34.3827 12.7461 33.8438L14.7234 25.9838C14.9131 25.2298 14.6545 24.4338 14.0578 23.9353L7.83811 18.7387C7.41169 18.3824 7.63726 17.6882 8.19165 17.6506L16.278 17.1023C17.0537 17.0497 17.7308 16.5577 18.0206 15.8362L21.0409 8.3151Z" stroke="#82D9FF" stroke-width="1.40903"/>
</g>
<g filter="url(#filter4_f_472_9659)">
<path d="M20.714 8.18383C21.0394 7.37353 22.1864 7.37353 22.5118 8.18383L25.5321 15.705C25.7715 16.301 26.3308 16.7074 26.9716 16.7508L35.058 17.2991C35.9292 17.3582 36.2836 18.4492 35.6136 19.009L29.3938 24.2056C28.901 24.6174 28.6873 25.275 28.844 25.8979L30.8214 33.7579C31.0344 34.6047 30.1064 35.2789 29.3668 34.8147L22.5026 30.5052C21.9586 30.1637 21.2672 30.1637 20.7232 30.5052L13.859 34.8147C13.1194 35.2789 12.1914 34.6047 12.4045 33.7579L14.3818 25.8979C14.5385 25.275 14.3248 24.6174 13.832 24.2056L7.61225 19.009C6.94216 18.4492 7.29663 17.3582 8.16782 17.2991L16.2542 16.7508C16.895 16.7074 17.4543 16.301 17.6937 15.705L20.714 8.18383Z" stroke="white" stroke-width="0.704516"/>
</g>
<g style="mix-blend-mode:hard-light" filter="url(#filter5_f_472_9659)">
<path d="M62.6753 8.47918C62.6964 8.42669 62.7203 8.40654 62.7376 8.3955C62.7604 8.38088 62.7955 8.36869 62.8387 8.36869C62.882 8.36869 62.917 8.38088 62.9399 8.3955C62.9572 8.40654 62.9811 8.42669 63.0022 8.47918L66.0225 16.0003C66.3752 16.8786 67.1995 17.4776 68.1438 17.5416L76.2302 18.0899C76.2866 18.0937 76.3132 18.1103 76.329 18.1233C76.35 18.1405 76.3724 18.17 76.3858 18.2112C76.3992 18.2523 76.3984 18.2894 76.3915 18.3157C76.3864 18.3355 76.3746 18.3645 76.3312 18.4008L70.1115 23.5974C69.3851 24.2043 69.0703 25.1733 69.3012 26.0912L71.2786 33.9513C71.2924 34.0061 71.2848 34.0365 71.2774 34.0556C71.2675 34.0808 71.2463 34.1113 71.2113 34.1367C71.1763 34.1621 71.1408 34.1729 71.1137 34.1745C71.0932 34.1757 71.062 34.1735 71.0141 34.1434L64.1498 29.8339C63.3482 29.3307 62.3293 29.3307 61.5276 29.8339L54.6634 34.1434C54.6155 34.1735 54.5842 34.1757 54.5638 34.1745C54.5367 34.1729 54.5012 34.1621 54.4662 34.1367C54.4312 34.1113 54.41 34.0808 54.4001 34.0556C54.3926 34.0365 54.3851 34.0061 54.3989 33.9513L56.3763 26.0912C56.6072 25.1733 56.2923 24.2043 55.566 23.5974L49.3463 18.4008C49.3028 18.3645 49.2911 18.3355 49.2859 18.3157C49.2791 18.2894 49.2783 18.2523 49.2917 18.2112C49.305 18.17 49.3275 18.1405 49.3484 18.1233C49.3643 18.1103 49.3908 18.0937 49.4473 18.0899L57.5336 17.5416C58.478 17.4776 59.3023 16.8787 59.655 16.0003L62.6753 8.47918Z" stroke="#0094FF" stroke-width="2.28968"/>
</g>
<g style="mix-blend-mode:hard-light" filter="url(#filter6_f_472_9659)">
<path d="M62.8387 9.01746L65.6956 16.1316C66.0987 17.1354 67.0408 17.8199 68.12 17.8931L75.7688 18.4117L69.8856 23.3271C69.0555 24.0206 68.6957 25.1282 68.9596 26.1772L70.4114 25.8119L68.9596 26.1772L70.8299 33.6119L64.3371 29.5356C63.421 28.9604 62.2565 28.9604 61.3403 29.5356L54.8475 33.6119L56.7179 26.1772C56.9818 25.1282 56.6219 24.0206 55.7918 23.3271L49.9087 18.4117L57.5574 17.8931C58.6367 17.8199 59.5788 17.1354 59.9819 16.1316L62.8387 9.01746Z" stroke="#0094FF" stroke-width="2.99419"/>
</g>
<g style="mix-blend-mode:hard-light" filter="url(#filter7_ddi_472_9659)">
<path d="M62.6753 8.47918C62.6964 8.42669 62.7203 8.40654 62.7376 8.3955C62.7604 8.38088 62.7955 8.36869 62.8387 8.36869C62.882 8.36869 62.917 8.38088 62.9399 8.3955C62.9572 8.40654 62.9811 8.42669 63.0022 8.47918L66.0225 16.0003C66.3752 16.8786 67.1995 17.4776 68.1438 17.5416L76.2302 18.0899C76.2866 18.0937 76.3132 18.1103 76.329 18.1233C76.35 18.1405 76.3724 18.17 76.3858 18.2112C76.3992 18.2523 76.3984 18.2894 76.3915 18.3157C76.3864 18.3355 76.3746 18.3645 76.3312 18.4008L70.1115 23.5974C69.3851 24.2043 69.0703 25.1733 69.3012 26.0912L71.2786 33.9513C71.2924 34.0061 71.2848 34.0365 71.2774 34.0556C71.2675 34.0808 71.2463 34.1113 71.2113 34.1367C71.1763 34.1621 71.1408 34.1729 71.1137 34.1745C71.0932 34.1757 71.062 34.1735 71.0141 34.1434L64.1498 29.8339C63.3482 29.3307 62.3293 29.3307 61.5276 29.8339L54.6634 34.1434C54.6155 34.1735 54.5842 34.1757 54.5638 34.1745C54.5367 34.1729 54.5012 34.1621 54.4662 34.1367C54.4312 34.1113 54.41 34.0808 54.4001 34.0556C54.3926 34.0365 54.3851 34.0061 54.3989 33.9513L56.3763 26.0912C56.6072 25.1733 56.2923 24.2043 55.566 23.5974L49.3463 18.4008C49.3028 18.3645 49.2911 18.3355 49.2859 18.3157C49.2791 18.2894 49.2783 18.2523 49.2917 18.2112C49.305 18.17 49.3275 18.1405 49.3484 18.1233C49.3643 18.1103 49.3908 18.0937 49.4473 18.0899L57.5336 17.5416C58.478 17.4776 59.3023 16.8787 59.655 16.0003L62.6753 8.47918Z" stroke="#00B3FF" stroke-opacity="0.2" stroke-width="2.28968"/>
</g>
<g filter="url(#filter8_f_472_9659)">
<path d="M62.2667 8.3151C62.4738 7.79945 63.2037 7.79945 63.4108 8.3151L66.4311 15.8362C66.7208 16.5577 67.3979 17.0497 68.1736 17.1023L76.26 17.6506C76.8144 17.6882 77.0399 18.3824 76.6135 18.7387L70.3938 23.9353C69.7972 24.4338 69.5385 25.2298 69.7282 25.9838L71.7056 33.8438C71.8411 34.3827 71.2506 34.8118 70.78 34.5163L63.9157 30.2069C63.2572 29.7935 62.4202 29.7935 61.7618 30.2069L54.8975 34.5163C54.4269 34.8118 53.8363 34.3827 53.9719 33.8438L55.9493 25.9838C56.1389 25.2298 55.8803 24.4338 55.2836 23.9353L49.0639 18.7387C48.6375 18.3824 48.8631 17.6882 49.4175 17.6506L57.5038 17.1023C58.2795 17.0497 58.9567 16.5577 59.2464 15.8362L62.2667 8.3151Z" stroke="#82D9FF" stroke-width="1.40903"/>
</g>
<g filter="url(#filter9_f_472_9659)">
<path d="M61.9398 8.18383C62.2652 7.37353 63.4123 7.37353 63.7377 8.18383L66.7579 15.705C66.9973 16.301 67.5567 16.7074 68.1975 16.7508L76.2838 17.2991C77.155 17.3582 77.5095 18.4492 76.8394 19.009L70.6197 24.2056C70.1268 24.6174 69.9131 25.275 70.0698 25.8979L72.0472 33.7579C72.2602 34.6047 71.3322 35.2789 70.5927 34.8147L63.7284 30.5052C63.1844 30.1637 62.493 30.1637 61.9491 30.5052L55.0848 34.8147C54.3453 35.2789 53.4172 34.6047 53.6303 33.7579L55.6076 25.8979C55.7643 25.275 55.5507 24.6174 55.0578 24.2056L48.8381 19.009C48.168 18.4492 48.5225 17.3582 49.3937 17.2991L57.48 16.7508C58.1208 16.7074 58.6802 16.301 58.9195 15.705L61.9398 8.18383Z" stroke="white" stroke-width="0.704516"/>
</g>
<path d="M22.7767 56.3138C22.3001 56.3138 21.8234 56.2441 21.3467 56.1048C20.8701 55.9581 20.4411 55.7308 20.0597 55.4228C19.6784 55.1075 19.3667 54.7041 19.1247 54.2128C18.8901 53.7215 18.7727 53.1238 18.7727 52.4198C18.7727 51.7598 18.8827 51.1805 19.1027 50.6818C19.3227 50.1831 19.6234 49.7688 20.0047 49.4388C20.3934 49.1015 20.8481 48.8521 21.3687 48.6908C21.8894 48.5221 22.4541 48.4378 23.0627 48.4378C23.3707 48.4378 23.6567 48.4598 23.9207 48.5038C24.1921 48.5405 24.4744 48.6065 24.7677 48.7018V50.0438C24.5404 49.9558 24.2984 49.8825 24.0417 49.8238C23.7924 49.7651 23.5027 49.7358 23.1727 49.7358C22.7401 49.7358 22.3514 49.8018 22.0067 49.9338C21.6694 50.0585 21.3834 50.2381 21.1487 50.4728C20.9141 50.7075 20.7344 50.9898 20.6097 51.3198C20.4851 51.6425 20.4227 52.0018 20.4227 52.3978C20.4227 52.8598 20.4961 53.2595 20.6427 53.5968C20.7894 53.9268 20.9837 54.1981 21.2257 54.4108C21.4677 54.6161 21.7464 54.7701 22.0617 54.8728C22.3844 54.9681 22.7181 55.0158 23.0627 55.0158C23.4587 55.0158 23.7924 54.9755 24.0637 54.8948C24.3424 54.8068 24.5771 54.7188 24.7677 54.6308V55.9838C24.4231 56.1011 24.0821 56.1855 23.7447 56.2368C23.4074 56.2881 23.0847 56.3138 22.7767 56.3138ZM30.3764 50.5278V51.6278H28.5944V56.2258H27.0984V51.6278H25.3164V50.5278H30.3764ZM31.1182 50.8138C31.4628 50.6745 31.8002 50.5791 32.1302 50.5278C32.4602 50.4691 32.8195 50.4398 33.2082 50.4398C33.7875 50.4398 34.2422 50.5131 34.5722 50.6598C34.9095 50.8065 35.1625 50.9898 35.3312 51.2098C35.4998 51.4298 35.6062 51.6681 35.6502 51.9248C35.7015 52.1815 35.7272 52.4161 35.7272 52.6288V56.2258H34.2642V55.3898H34.2422C34.2128 55.4485 34.1615 55.5328 34.0882 55.6428C34.0148 55.7455 33.9085 55.8481 33.7692 55.9508C33.6298 56.0461 33.4538 56.1305 33.2412 56.2038C33.0285 56.2771 32.7682 56.3138 32.4602 56.3138C32.1008 56.3138 31.7928 56.2661 31.5362 56.1708C31.2795 56.0681 31.0705 55.9361 30.9092 55.7748C30.7478 55.6135 30.6268 55.4301 30.5462 55.2248C30.4728 55.0121 30.4362 54.7958 30.4362 54.5758C30.4362 54.3778 30.4692 54.1688 30.5352 53.9488C30.6012 53.7288 30.7368 53.5271 30.9422 53.3438C31.1475 53.1531 31.4335 52.9991 31.8002 52.8818C32.1668 52.7571 32.6545 52.6948 33.2632 52.6948C33.4025 52.6948 33.5418 52.6985 33.6812 52.7058C33.8205 52.7058 33.9598 52.7058 34.0992 52.7058H34.2312V52.4638C34.2312 52.3098 34.1945 52.1705 34.1212 52.0458C34.0552 51.9211 33.9635 51.8185 33.8462 51.7378C33.7288 51.6571 33.5895 51.5948 33.4282 51.5508C33.2742 51.5068 33.1128 51.4848 32.9442 51.4848C32.6948 51.4848 32.4235 51.5178 32.1302 51.5838C31.8368 51.6425 31.4995 51.7781 31.1182 51.9908V50.8138ZM33.9782 53.6408C33.7728 53.6408 33.5492 53.6481 33.3072 53.6628C33.0725 53.6701 32.8525 53.7031 32.6472 53.7618C32.4492 53.8205 32.2842 53.9121 32.1522 54.0368C32.0202 54.1615 31.9542 54.3375 31.9542 54.5648C31.9542 54.7701 32.0238 54.9461 32.1632 55.0928C32.3025 55.2321 32.5372 55.3018 32.8672 55.3018C33.0212 55.3018 33.1788 55.2798 33.3402 55.2358C33.5015 55.1918 33.6482 55.1148 33.7802 55.0048C33.9122 54.8948 34.0185 54.7408 34.0992 54.5428C34.1872 54.3448 34.2312 54.0918 34.2312 53.7838V53.6408H33.9782ZM37.1578 58.5798V50.5278H38.4668V51.5178H38.4888C38.6354 51.2611 38.8004 51.0595 38.9838 50.9128C39.1744 50.7661 39.3614 50.6598 39.5448 50.5938C39.7281 50.5205 39.8931 50.4765 40.0398 50.4618C40.1864 50.4471 40.2891 50.4398 40.3478 50.4398C40.6704 50.4398 40.9748 50.4948 41.2608 50.6048C41.5541 50.7075 41.8108 50.8798 42.0308 51.1218C42.2508 51.3565 42.4231 51.6608 42.5478 52.0348C42.6798 52.4015 42.7458 52.8488 42.7458 53.3768C42.7458 53.9048 42.6761 54.3558 42.5368 54.7298C42.3974 55.0965 42.2104 55.3971 41.9758 55.6318C41.7484 55.8665 41.4844 56.0388 41.1838 56.1488C40.8904 56.2588 40.5898 56.3138 40.2818 56.3138C39.8638 56.3138 39.5228 56.2295 39.2588 56.0608C39.0021 55.8921 38.7968 55.6905 38.6428 55.4558H38.6208L38.6538 56.3908V58.5798H37.1578ZM38.6538 53.3768C38.6538 53.6775 38.6904 53.9378 38.7638 54.1578C38.8371 54.3778 38.9324 54.5611 39.0498 54.7078C39.1744 54.8471 39.3101 54.9535 39.4568 55.0268C39.6108 55.0928 39.7648 55.1258 39.9188 55.1258C40.0728 55.1258 40.2231 55.0928 40.3698 55.0268C40.5238 54.9535 40.6594 54.8471 40.7768 54.7078C40.9014 54.5611 41.0004 54.3778 41.0738 54.1578C41.1471 53.9378 41.1838 53.6775 41.1838 53.3768C41.1838 53.0761 41.1471 52.8158 41.0738 52.5958C41.0004 52.3758 40.9014 52.1961 40.7768 52.0568C40.6594 51.9101 40.5238 51.8038 40.3698 51.7378C40.2231 51.6645 40.0728 51.6278 39.9188 51.6278C39.7648 51.6278 39.6108 51.6645 39.4568 51.7378C39.3101 51.8038 39.1744 51.9101 39.0498 52.0568C38.9324 52.1961 38.8371 52.3758 38.7638 52.5958C38.6904 52.8158 38.6538 53.0761 38.6538 53.3768ZM45.3462 50.5278V55.1258H47.1832V50.5278H48.6792V55.1258H50.5162V50.5278H52.0122V56.2258H43.8502V50.5278H45.3462ZM54.9389 50.5278V53.5198L54.8949 54.5428H54.9169L57.3699 50.5278H59.0419V56.2258H57.5459V53.2778L57.5899 52.2108H57.5569L55.0379 56.2258H53.4429V50.5278H54.9389ZM61.9643 50.5278V53.5198L61.9203 54.5428H61.9423L64.3953 50.5278H66.0673V56.2258H64.5713V53.2778L64.6153 52.2108H64.5823L62.0633 56.2258H60.4683V50.5278H61.9643ZM63.2623 49.8458C63.0643 49.8458 62.87 49.8201 62.6793 49.7688C62.496 49.7175 62.331 49.6368 62.1843 49.5268C62.0377 49.4095 61.9167 49.2591 61.8213 49.0758C61.7333 48.8851 61.682 48.6578 61.6673 48.3938L62.6023 48.3058C62.6317 48.5625 62.694 48.7458 62.7893 48.8558C62.892 48.9658 63.0497 49.0208 63.2623 49.0208C63.475 49.0208 63.629 48.9658 63.7243 48.8558C63.827 48.7458 63.893 48.5625 63.9223 48.3058L64.8573 48.3938C64.8427 48.6578 64.7877 48.8851 64.6923 49.0758C64.6043 49.2591 64.487 49.4095 64.3403 49.5268C64.1937 49.6368 64.025 49.7175 63.8343 49.7688C63.651 49.8201 63.4603 49.8458 63.2623 49.8458ZM14.7201 67.3138C14.2141 67.3138 13.7741 67.2295 13.4001 67.0608C13.0261 66.8921 12.7145 66.6685 12.4651 66.3898C12.2231 66.1038 12.0435 65.7811 11.9261 65.4218C11.8088 65.0625 11.7501 64.6958 11.7501 64.3218C11.7501 63.9405 11.8161 63.5775 11.9481 63.2328C12.0801 62.8808 12.2745 62.5728 12.5311 62.3088C12.7878 62.0448 13.1068 61.8358 13.4881 61.6818C13.8768 61.5205 14.3241 61.4398 14.8301 61.4398C15.0208 61.4398 15.2261 61.4508 15.4461 61.4728C15.6661 61.4948 15.8825 61.5351 16.0951 61.5938V62.7048C15.9558 62.6461 15.8055 62.6021 15.6441 62.5728C15.4901 62.5361 15.3031 62.5178 15.0831 62.5178C14.8338 62.5178 14.5991 62.5618 14.3791 62.6498C14.1665 62.7378 13.9795 62.8661 13.8181 63.0348C13.6641 63.1961 13.5395 63.3941 13.4441 63.6288C13.3561 63.8561 13.3121 64.1128 13.3121 64.3988C13.3121 64.6555 13.3488 64.8975 13.4221 65.1248C13.5028 65.3448 13.6128 65.5391 13.7521 65.7078C13.8988 65.8691 14.0748 65.9975 14.2801 66.0928C14.4855 66.1881 14.7201 66.2358 14.9841 66.2358C15.3875 66.2358 15.7871 66.1515 16.1831 65.9828V67.0938C16.0438 67.1378 15.8458 67.1855 15.5891 67.2368C15.3398 67.2881 15.0501 67.3138 14.7201 67.3138ZM22.4739 61.5278V67.2258H20.9779V62.6278H18.6679V67.2258H17.1719V61.5278H22.4739ZM25.1393 64.8278C25.1466 65.0111 25.187 65.1871 25.2603 65.3558C25.3336 65.5245 25.44 65.6748 25.5793 65.8068C25.7186 65.9388 25.891 66.0451 26.0963 66.1258C26.309 66.1991 26.5546 66.2358 26.8333 66.2358C27.1633 66.2358 27.475 66.2028 27.7683 66.1368C28.0616 66.0635 28.344 65.9645 28.6153 65.8398V66.9618C28.322 67.0718 28.0066 67.1598 27.6693 67.2258C27.332 67.2845 26.991 67.3138 26.6463 67.3138C26.221 67.3138 25.8213 67.2551 25.4473 67.1378C25.0733 67.0205 24.747 66.8408 24.4683 66.5988C24.197 66.3568 23.9806 66.0525 23.8193 65.6858C23.658 65.3191 23.5773 64.8828 23.5773 64.3768C23.5773 63.9148 23.6506 63.5041 23.7973 63.1448C23.9513 62.7781 24.1566 62.4701 24.4133 62.2208C24.67 61.9641 24.967 61.7698 25.3043 61.6378C25.649 61.5058 26.012 61.4398 26.3933 61.4398C26.826 61.4398 27.189 61.5058 27.4823 61.6378C27.783 61.7625 28.0286 61.9238 28.2193 62.1218C28.4173 62.3198 28.5676 62.5398 28.6703 62.7818C28.7803 63.0165 28.861 63.2475 28.9123 63.4748C28.9636 63.7021 28.993 63.9075 29.0003 64.0908C29.015 64.2741 29.0223 64.4061 29.0223 64.4868V64.8278H25.1393ZM27.4823 63.8048C27.4896 63.5628 27.4566 63.3575 27.3833 63.1888C27.3173 63.0201 27.2256 62.8845 27.1083 62.7818C26.991 62.6718 26.8626 62.5948 26.7233 62.5508C26.584 62.4995 26.4446 62.4738 26.3053 62.4738C26.1366 62.4738 25.9826 62.5105 25.8433 62.5838C25.704 62.6498 25.583 62.7415 25.4803 62.8588C25.3776 62.9761 25.2933 63.1191 25.2273 63.2878C25.1686 63.4491 25.1393 63.6215 25.1393 63.8048H27.4823ZM31.623 61.5278V66.1258H34.01V61.5278H35.506V66.1258H36.441V68.7108H35.066V67.2258H30.127V61.5278H31.623ZM38.8203 61.5278V64.5198L38.7763 65.5428H38.7983L41.2513 61.5278H42.9233V67.2258H41.4273V64.2778L41.4713 63.2108H41.4383L38.9193 67.2258H37.3243V61.5278H38.8203ZM44.7017 61.8138C45.0463 61.6745 45.3837 61.5791 45.7137 61.5278C46.0437 61.4691 46.403 61.4398 46.7917 61.4398C47.371 61.4398 47.8257 61.5131 48.1557 61.6598C48.493 61.8065 48.746 61.9898 48.9147 62.2098C49.0833 62.4298 49.1897 62.6681 49.2337 62.9248C49.285 63.1815 49.3107 63.4161 49.3107 63.6288V67.2258H47.8477V66.3898H47.8257C47.7963 66.4485 47.745 66.5328 47.6717 66.6428C47.5983 66.7455 47.492 66.8481 47.3527 66.9508C47.2133 67.0461 47.0373 67.1305 46.8247 67.2038C46.612 67.2771 46.3517 67.3138 46.0437 67.3138C45.6843 67.3138 45.3763 67.2661 45.1197 67.1708C44.863 67.0681 44.654 66.9361 44.4927 66.7748C44.3313 66.6135 44.2103 66.4301 44.1297 66.2248C44.0563 66.0121 44.0197 65.7958 44.0197 65.5758C44.0197 65.3778 44.0527 65.1688 44.1187 64.9488C44.1847 64.7288 44.3203 64.5271 44.5257 64.3438C44.731 64.1531 45.017 63.9991 45.3837 63.8818C45.7503 63.7571 46.238 63.6948 46.8467 63.6948C46.986 63.6948 47.1253 63.6985 47.2647 63.7058C47.404 63.7058 47.5433 63.7058 47.6827 63.7058H47.8147V63.4638C47.8147 63.3098 47.778 63.1705 47.7047 63.0458C47.6387 62.9211 47.547 62.8185 47.4297 62.7378C47.3123 62.6571 47.173 62.5948 47.0117 62.5508C46.8577 62.5068 46.6963 62.4848 46.5277 62.4848C46.2783 62.4848 46.007 62.5178 45.7137 62.5838C45.4203 62.6425 45.083 62.7781 44.7017 62.9908V61.8138ZM47.5617 64.6408C47.3563 64.6408 47.1327 64.6481 46.8907 64.6628C46.656 64.6701 46.436 64.7031 46.2307 64.7618C46.0327 64.8205 45.8677 64.9121 45.7357 65.0368C45.6037 65.1615 45.5377 65.3375 45.5377 65.5648C45.5377 65.7701 45.6073 65.9461 45.7467 66.0928C45.886 66.2321 46.1207 66.3018 46.4507 66.3018C46.6047 66.3018 46.7623 66.2798 46.9237 66.2358C47.085 66.1918 47.2317 66.1148 47.3637 66.0048C47.4957 65.8948 47.602 65.7408 47.6827 65.5428C47.7707 65.3448 47.8147 65.0918 47.8147 64.7838V64.6408H47.5617ZM50.6218 67.3138C50.5192 67.3138 50.4128 67.3028 50.3028 67.2808C50.1928 67.2661 50.0975 67.2478 50.0168 67.2258V66.0818C50.0755 66.0965 50.1342 66.1075 50.1928 66.1148C50.2515 66.1221 50.3028 66.1258 50.3468 66.1258C50.4495 66.1258 50.5448 66.0928 50.6328 66.0268C50.7282 65.9608 50.8088 65.8141 50.8748 65.5868C50.9408 65.3595 50.9922 65.0295 51.0288 64.5968C51.0728 64.1568 51.0948 63.5665 51.0948 62.8258V61.5278H55.6818V67.2258H54.1858V62.6278H52.4258V62.8258C52.4258 63.7865 52.3855 64.5601 52.3048 65.1468C52.2242 65.7335 52.1068 66.1881 51.9528 66.5108C51.7988 66.8261 51.6082 67.0388 51.3808 67.1488C51.1608 67.2588 50.9078 67.3138 50.6218 67.3138ZM58.6074 61.5278V64.5198L58.5634 65.5428H58.5854L61.0384 61.5278H62.7104V67.2258H61.2144V64.2778L61.2584 63.2108H61.2254L58.7064 67.2258H57.1114V61.5278H58.6074ZM66.7768 67.3138C66.2708 67.3138 65.8308 67.2295 65.4568 67.0608C65.0828 66.8921 64.7711 66.6685 64.5218 66.3898C64.2798 66.1038 64.1001 65.7811 63.9828 65.4218C63.8654 65.0625 63.8068 64.6958 63.8068 64.3218C63.8068 63.9405 63.8728 63.5775 64.0048 63.2328C64.1368 62.8808 64.3311 62.5728 64.5878 62.3088C64.8444 62.0448 65.1634 61.8358 65.5448 61.6818C65.9334 61.5205 66.3808 61.4398 66.8868 61.4398C67.0774 61.4398 67.2828 61.4508 67.5028 61.4728C67.7228 61.4948 67.9391 61.5351 68.1518 61.5938V62.7048C68.0124 62.6461 67.8621 62.6021 67.7008 62.5728C67.5468 62.5361 67.3598 62.5178 67.1398 62.5178C66.8904 62.5178 66.6558 62.5618 66.4358 62.6498C66.2231 62.7378 66.0361 62.8661 65.8748 63.0348C65.7208 63.1961 65.5961 63.3941 65.5008 63.6288C65.4128 63.8561 65.3688 64.1128 65.3688 64.3988C65.3688 64.6555 65.4054 64.8975 65.4788 65.1248C65.5594 65.3448 65.6694 65.5391 65.8088 65.7078C65.9554 65.8691 66.1314 65.9975 66.3368 66.0928C66.5421 66.1881 66.7768 66.2358 67.0408 66.2358C67.4441 66.2358 67.8438 66.1515 68.2398 65.9828V67.0938C68.1004 67.1378 67.9024 67.1855 67.6458 67.2368C67.3964 67.2881 67.1068 67.3138 66.7768 67.3138ZM73.5762 61.5278V62.6278H71.7942V67.2258H70.2982V62.6278H68.5162V61.5278H73.5762Z" fill="#0094FF"/>
<defs>
<filter id="filter0_f_472_9659" x="0.622594" y="0.93604" width="41.9806" height="40.6713" filterUnits="userSpaceOnUse" color-interpolation-filters="sRGB">
<feFlood flood-opacity="0" result="BackgroundImageFix"/>
<feBlend mode="normal" in="SourceGraphic" in2="BackgroundImageFix" result="shape"/>
<feGaussianBlur stdDeviation="3.1439" result="effect1_foregroundBlur_472_9659"/>
</filter>
<filter id="filter1_f_472_9659" x="4.81446" y="5.12791" width="33.5969" height="32.2876" filterUnits="userSpaceOnUse" color-interpolation-filters="sRGB">
<feFlood flood-opacity="0" result="BackgroundImageFix"/>
<feBlend mode="normal" in="SourceGraphic" in2="BackgroundImageFix" result="shape"/>
<feGaussianBlur stdDeviation="1.04797" result="effect1_foregroundBlur_472_9659"/>
</filter>
<filter id="filter2_ddi_472_9659" x="4.18568" y="6.59507" width="34.8545" height="33.5451" filterUnits="userSpaceOnUse" color-interpolation-filters="sRGB">
<feFlood flood-opacity="0" result="BackgroundImageFix"/>
<feColorMatrix in="SourceAlpha" type="matrix" values="0 0 0 0 0 0 0 0 0 0 0 0 0 0 0 0 0 0 127 0" result="hardAlpha"/>
<feOffset dy="2.28968"/>
<feGaussianBlur stdDeviation="0.880645"/>
<feColorMatrix type="matrix" values="0 0 0 0 0 0 0 0 0 0.051 0 0 0 0 0.082 0 0 0 0.7 0"/>
<feBlend mode="multiply" in2="BackgroundImageFix" result="effect1_dropShadow_472_9659"/>
<feColorMatrix in="SourceAlpha" type="matrix" values="0 0 0 0 0 0 0 0 0 0 0 0 0 0 0 0 0 0 127 0" result="hardAlpha"/>
<feOffset dy="2.09594"/>
<feGaussianBlur stdDeviation="1.36236"/>
<feColorMatrix type="matrix" values="0 0 0 0 0 0 0 0 0 0.4 0 0 0 0 1 0 0 0 1 0"/>
<feBlend mode="color-dodge" in2="effect1_dropShadow_472_9659" result="effect2_dropShadow_472_9659"/>
<feBlend mode="normal" in="SourceGraphic" in2="effect2_dropShadow_472_9659" result="shape"/>
<feColorMatrix in="SourceAlpha" type="matrix" values="0 0 0 0 0 0 0 0 0 0 0 0 0 0 0 0 0 0 127 0" result="hardAlpha"/>
<feOffset dx="-0.228968" dy="0.457936"/>
<feGaussianBlur stdDeviation="0.114484"/>
<feComposite in2="hardAlpha" operator="arithmetic" k2="-1" k3="1"/>
<feColorMatrix type="matrix" values="0 0 0 0 1 0 0 0 0 1 0 0 0 0 1 0 0 0 0.5 0"/>
<feBlend mode="normal" in2="shape" result="effect3_innerShadow_472_9659"/>
</filter>
<filter id="filter3_f_472_9659" x="6.55814" y="6.87159" width="30.1095" height="28.8002" filterUnits="userSpaceOnUse" color-interpolation-filters="sRGB">
<feFlood flood-opacity="0" result="BackgroundImageFix"/>
<feBlend mode="normal" in="SourceGraphic" in2="BackgroundImageFix" result="shape"/>
<feGaussianBlur stdDeviation="0.176129" result="effect1_foregroundBlur_472_9659"/>
</filter>
<filter id="filter4_f_472_9659" x="6.67556" y="6.98901" width="29.8747" height="28.5654" filterUnits="userSpaceOnUse" color-interpolation-filters="sRGB">
<feFlood flood-opacity="0" result="BackgroundImageFix"/>
<feBlend mode="normal" in="SourceGraphic" in2="BackgroundImageFix" result="shape"/>
<feGaussianBlur stdDeviation="0.117419" result="effect1_foregroundBlur_472_9659"/>
</filter>
<filter id="filter5_f_472_9659" x="41.8484" y="0.93604" width="41.9806" height="40.6713" filterUnits="userSpaceOnUse" color-interpolation-filters="sRGB">
<feFlood flood-opacity="0" result="BackgroundImageFix"/>
<feBlend mode="normal" in="SourceGraphic" in2="BackgroundImageFix" result="shape"/>
<feGaussianBlur stdDeviation="3.1439" result="effect1_foregroundBlur_472_9659"/>
</filter>
<filter id="filter6_f_472_9659" x="46.0403" y="5.12791" width="33.5969" height="32.2876" filterUnits="userSpaceOnUse" color-interpolation-filters="sRGB">
<feFlood flood-opacity="0" result="BackgroundImageFix"/>
<feBlend mode="normal" in="SourceGraphic" in2="BackgroundImageFix" result="shape"/>
<feGaussianBlur stdDeviation="1.04797" result="effect1_foregroundBlur_472_9659"/>
</filter>
<filter id="filter7_ddi_472_9659" x="45.4115" y="6.59507" width="34.8545" height="33.5451" filterUnits="userSpaceOnUse" color-interpolation-filters="sRGB">
<feFlood flood-opacity="0" result="BackgroundImageFix"/>
<feColorMatrix in="SourceAlpha" type="matrix" values="0 0 0 0 0 0 0 0 0 0 0 0 0 0 0 0 0 0 127 0" result="hardAlpha"/>
<feOffset dy="2.28968"/>
<feGaussianBlur stdDeviation="0.880645"/>
<feColorMatrix type="matrix" values="0 0 0 0 0 0 0 0 0 0.051 0 0 0 0 0.082 0 0 0 0.7 0"/>
<feBlend mode="multiply" in2="BackgroundImageFix" result="effect1_dropShadow_472_9659"/>
<feColorMatrix in="SourceAlpha" type="matrix" values="0 0 0 0 0 0 0 0 0 0 0 0 0 0 0 0 0 0 127 0" result="hardAlpha"/>
<feOffset dy="2.09594"/>
<feGaussianBlur stdDeviation="1.36236"/>
<feColorMatrix type="matrix" values="0 0 0 0 0 0 0 0 0 0.4 0 0 0 0 1 0 0 0 1 0"/>
<feBlend mode="color-dodge" in2="effect1_dropShadow_472_9659" result="effect2_dropShadow_472_9659"/>
<feBlend mode="normal" in="SourceGraphic" in2="effect2_dropShadow_472_9659" result="shape"/>
<feColorMatrix in="SourceAlpha" type="matrix" values="0 0 0 0 0 0 0 0 0 0 0 0 0 0 0 0 0 0 127 0" result="hardAlpha"/>
<feOffset dx="-0.228968" dy="0.457936"/>
<feGaussianBlur stdDeviation="0.114484"/>
<feComposite in2="hardAlpha" operator="arithmetic" k2="-1" k3="1"/>
<feColorMatrix type="matrix" values="0 0 0 0 1 0 0 0 0 1 0 0 0 0 1 0 0 0 0.5 0"/>
<feBlend mode="normal" in2="shape" result="effect3_innerShadow_472_9659"/>
</filter>
<filter id="filter8_f_472_9659" x="47.784" y="6.87159" width="30.1095" height="28.8002" filterUnits="userSpaceOnUse" color-interpolation-filters="sRGB">
<feFlood flood-opacity="0" result="BackgroundImageFix"/>
<feBlend mode="normal" in="SourceGraphic" in2="BackgroundImageFix" result="shape"/>
<feGaussianBlur stdDeviation="0.176129" result="effect1_foregroundBlur_472_9659"/>
</filter>
<filter id="filter9_f_472_9659" x="47.9014" y="6.98901" width="29.8747" height="28.5654" filterUnits="userSpaceOnUse" color-interpolation-filters="sRGB">
<feFlood flood-opacity="0" result="BackgroundImageFix"/>
<feBlend mode="normal" in="SourceGraphic" in2="BackgroundImageFix" result="shape"/>
<feGaussianBlur stdDeviation="0.117419" result="effect1_foregroundBlur_472_9659"/>
</filter>
</defs>
</svg>
