<svg viewBox="0 0 90 58" fill="none" xmlns="http://www.w3.org/2000/svg">
<g style="mix-blend-mode:hard-light" filter="url(#filter0_f_472_9706)">
<path d="M13.0132 5.50799C13.0263 5.47538 13.0412 5.46287 13.0519 5.45601C13.0661 5.44693 13.0878 5.43935 13.1147 5.43935C13.1416 5.43935 13.1633 5.44693 13.1775 5.45601C13.1883 5.46286 13.2031 5.47538 13.2162 5.50798L15.001 9.95252C15.2201 10.4981 15.7322 10.8701 16.3188 10.9099L21.0973 11.2339C21.1323 11.2363 21.1488 11.2466 21.1587 11.2546C21.1717 11.2653 21.1856 11.2837 21.1939 11.3093C21.2022 11.3348 21.2018 11.3579 21.1975 11.3742C21.1943 11.3865 21.187 11.4045 21.16 11.427L17.4846 14.4979C17.0334 14.8749 16.8378 15.4768 16.9812 16.047L18.1497 20.6917C18.1583 20.7258 18.1536 20.7447 18.149 20.7565C18.1428 20.7722 18.1297 20.7912 18.1079 20.8069C18.0862 20.8227 18.0641 20.8294 18.0473 20.8304C18.0346 20.8312 18.0152 20.8298 17.9855 20.8111L13.9291 18.2645C13.4312 17.9519 12.7982 17.9519 12.3003 18.2645L8.24395 20.8111C8.21419 20.8298 8.19481 20.8312 8.1821 20.8304C8.16528 20.8294 8.14322 20.8227 8.12147 20.8069C8.09973 20.7912 8.08658 20.7722 8.08043 20.7565C8.07578 20.7447 8.07111 20.7258 8.07968 20.6917L9.24818 16.047C9.39161 15.4768 9.19603 14.8749 8.74485 14.4979L5.06939 11.427C5.04242 11.4045 5.03512 11.3865 5.03191 11.3742C5.02766 11.3579 5.02718 11.3348 5.03548 11.3093C5.04379 11.2837 5.05772 11.2653 5.07075 11.2546C5.08058 11.2466 5.09707 11.2363 5.13213 11.2339L9.91067 10.9099C10.4972 10.8701 11.0093 10.4981 11.2284 9.95252L13.0132 5.50799Z" stroke="#0094FF" stroke-width="1.42225"/>
</g>
<g style="mix-blend-mode:hard-light" filter="url(#filter1_f_472_9706)">
<path d="M11.4314 10.0341L13.1147 5.84234L14.798 10.0341C15.0484 10.6576 15.6336 11.0827 16.3039 11.1282L20.8107 11.4338L17.3443 14.33C16.8286 14.7608 16.6051 15.4487 16.769 16.1004L17.8711 20.4809L14.0454 18.0792C13.4764 17.7219 12.753 17.7219 12.184 18.0792L8.35834 20.4809L9.46037 16.1004C9.6243 15.4487 9.40078 14.7608 8.88515 14.33L5.41875 11.4338L9.92547 11.1282C10.5958 11.0827 11.181 10.6576 11.4314 10.0341ZM18.1018 20.6258L18.1016 20.6256L18.1018 20.6258ZM8.29188 20.7451L8.29192 20.745L8.29188 20.7451Z" stroke="#0094FF" stroke-width="1.85987"/>
</g>
<g style="mix-blend-mode:hard-light" filter="url(#filter2_ddi_472_9706)">
<path d="M13.0132 5.50799C13.0263 5.47538 13.0412 5.46287 13.0519 5.45601C13.0661 5.44693 13.0878 5.43935 13.1147 5.43935C13.1416 5.43935 13.1633 5.44693 13.1775 5.45601C13.1883 5.46286 13.2031 5.47538 13.2162 5.50798L15.001 9.95252C15.2201 10.4981 15.7322 10.8701 16.3188 10.9099L21.0973 11.2339C21.1323 11.2363 21.1488 11.2466 21.1587 11.2546C21.1717 11.2653 21.1856 11.2837 21.1939 11.3093C21.2022 11.3348 21.2018 11.3579 21.1975 11.3742C21.1943 11.3865 21.187 11.4045 21.16 11.427L17.4846 14.4979C17.0334 14.8749 16.8378 15.4768 16.9812 16.047L18.1497 20.6917C18.1583 20.7258 18.1536 20.7447 18.149 20.7565C18.1428 20.7722 18.1297 20.7912 18.1079 20.8069C18.0862 20.8227 18.0641 20.8294 18.0473 20.8304C18.0346 20.8312 18.0152 20.8298 17.9855 20.8111L13.9291 18.2645C13.4312 17.9519 12.7982 17.9519 12.3003 18.2645L8.24395 20.8111C8.21419 20.8298 8.19481 20.8312 8.1821 20.8304C8.16528 20.8294 8.14322 20.8227 8.12147 20.8069C8.09973 20.7912 8.08658 20.7722 8.08043 20.7565C8.07578 20.7447 8.07111 20.7258 8.07968 20.6917L9.24818 16.047C9.39161 15.4768 9.19603 14.8749 8.74485 14.4979L5.06939 11.427C5.04242 11.4045 5.03512 11.3865 5.03191 11.3742C5.02766 11.3579 5.02718 11.3348 5.03548 11.3093C5.04379 11.2837 5.05772 11.2653 5.07075 11.2546C5.08058 11.2466 5.09707 11.2363 5.13213 11.2339L9.91067 10.9099C10.4972 10.8701 11.0093 10.4981 11.2284 9.95252L13.0132 5.50799Z" stroke="#00B3FF" stroke-opacity="0.2" stroke-width="1.42225"/>
</g>
<g filter="url(#filter3_f_472_9706)">
<path d="M12.7594 5.40606C12.888 5.08577 13.3414 5.08577 13.47 5.40606L15.2548 9.85059C15.4348 10.2987 15.8554 10.6043 16.3373 10.637L21.1158 10.961C21.4602 10.9844 21.6003 11.4156 21.3354 11.6369L17.6599 14.7078C17.2893 15.0174 17.1287 15.5119 17.2465 15.9802L18.415 20.625C18.4992 20.9597 18.1324 21.2263 17.84 21.0427L13.7837 18.4961C13.3747 18.2393 12.8548 18.2393 12.4457 18.4961L8.38938 21.0427C8.09705 21.2263 7.73023 20.9597 7.81444 20.625L8.98293 15.9802C9.10076 15.5119 8.9401 15.0174 8.56949 14.7078L4.89402 11.6369C4.62915 11.4156 4.76927 10.9844 5.11363 10.961L9.89216 10.637C10.374 10.6043 10.7946 10.2987 10.9746 9.85059L12.7594 5.40606Z" stroke="#82D9FF" stroke-width="0.875232"/>
</g>
<g filter="url(#filter4_f_472_9706)">
<path d="M12.5563 5.32453C12.7584 4.8212 13.471 4.8212 13.6731 5.32452L15.4579 9.76905C15.6066 10.1393 15.954 10.3917 16.3521 10.4187L21.1306 10.7427C21.6717 10.7794 21.8919 11.4571 21.4757 11.8048L17.8002 14.8757C17.4941 15.1315 17.3614 15.54 17.4587 15.9269L18.6272 20.5716C18.7595 21.0976 18.1831 21.5164 17.7237 21.2281L13.6673 18.6814C13.3295 18.4693 12.9 18.4693 12.5621 18.6814L8.50572 21.2281C8.04636 21.5164 7.46991 21.0976 7.60224 20.5716L8.77074 15.9269C8.86807 15.54 8.73535 15.1315 8.42919 14.8757L4.75373 11.8048C4.3375 11.4571 4.55768 10.7794 5.09883 10.7427L9.87736 10.4187C10.2754 10.3917 10.6229 10.1393 10.7715 9.76905L12.5563 5.32453Z" stroke="white" stroke-width="0.437616"/>
</g>
<g style="mix-blend-mode:hard-light" filter="url(#filter5_f_472_9706)">
<path d="M34.1882 5.50799C34.2013 5.47538 34.2162 5.46287 34.2269 5.45601C34.2411 5.44693 34.2629 5.43935 34.2898 5.43935C34.3166 5.43935 34.3384 5.44693 34.3526 5.45601C34.3633 5.46286 34.3782 5.47538 34.3913 5.50798L36.1761 9.95252C36.3952 10.4981 36.9072 10.8701 37.4938 10.9099L42.2723 11.2339C42.3074 11.2363 42.3239 11.2466 42.3337 11.2546C42.3467 11.2653 42.3607 11.2837 42.369 11.3093C42.3773 11.3348 42.3768 11.3579 42.3726 11.3742C42.3694 11.3865 42.362 11.4045 42.3351 11.427L38.6596 14.4979C38.2084 14.8749 38.0129 15.4768 38.1563 16.047L39.3248 20.6917C39.3334 20.7258 39.3287 20.7447 39.324 20.7565C39.3179 20.7722 39.3047 20.7912 39.283 20.8069C39.2612 20.8227 39.2392 20.8294 39.2224 20.8304C39.2097 20.8312 39.1903 20.8298 39.1605 20.8111L35.1042 18.2645C34.6062 17.9519 33.9733 17.9519 33.4754 18.2645L29.419 20.8111C29.3892 20.8298 29.3699 20.8312 29.3572 20.8304C29.3403 20.8294 29.3183 20.8227 29.2965 20.8069C29.2748 20.7912 29.2616 20.7722 29.2555 20.7565C29.2508 20.7447 29.2462 20.7258 29.2547 20.6917L30.4232 16.047C30.5667 15.4768 30.3711 14.8749 29.9199 14.4979L26.2444 11.427C26.2175 11.4045 26.2102 11.3865 26.207 11.3742C26.2027 11.3579 26.2022 11.3348 26.2105 11.3093C26.2188 11.2837 26.2328 11.2653 26.2458 11.2546C26.2556 11.2466 26.2721 11.2363 26.3072 11.2339L31.0857 10.9099C31.6723 10.8701 32.1843 10.4981 32.4034 9.95252L34.1882 5.50799Z" stroke="#0094FF" stroke-width="1.42225"/>
</g>
<g style="mix-blend-mode:hard-light" filter="url(#filter6_f_472_9706)">
<path d="M32.6065 10.0341L34.2898 5.84234L35.973 10.0341C36.2234 10.6576 36.8086 11.0827 37.479 11.1282L41.9857 11.4338L38.5193 14.33C38.0037 14.7608 37.7802 15.4487 37.9441 16.1004L39.0461 20.4809L35.2205 18.0792C34.6514 17.7219 33.9281 17.7219 33.359 18.0792L29.5334 20.4809L30.6354 16.1004C30.7994 15.4487 30.5758 14.7608 30.0602 14.33L26.5938 11.4338L31.1005 11.1282C31.7709 11.0827 32.3561 10.6576 32.6065 10.0341ZM39.2769 20.6258L39.2766 20.6256L39.2769 20.6258ZM29.4669 20.7451L29.467 20.745L29.4669 20.7451Z" stroke="#0094FF" stroke-width="1.85987"/>
</g>
<g style="mix-blend-mode:hard-light" filter="url(#filter7_ddi_472_9706)">
<path d="M34.1882 5.50799C34.2013 5.47538 34.2162 5.46287 34.2269 5.45601C34.2411 5.44693 34.2629 5.43935 34.2898 5.43935C34.3166 5.43935 34.3384 5.44693 34.3526 5.45601C34.3633 5.46286 34.3782 5.47538 34.3913 5.50798L36.1761 9.95252C36.3952 10.4981 36.9072 10.8701 37.4938 10.9099L42.2723 11.2339C42.3074 11.2363 42.3239 11.2466 42.3337 11.2546C42.3467 11.2653 42.3607 11.2837 42.369 11.3093C42.3773 11.3348 42.3768 11.3579 42.3726 11.3742C42.3694 11.3865 42.362 11.4045 42.3351 11.427L38.6596 14.4979C38.2084 14.8749 38.0129 15.4768 38.1563 16.047L39.3248 20.6917C39.3334 20.7258 39.3287 20.7447 39.324 20.7565C39.3179 20.7722 39.3047 20.7912 39.283 20.8069C39.2612 20.8227 39.2392 20.8294 39.2224 20.8304C39.2097 20.8312 39.1903 20.8298 39.1605 20.8111L35.1042 18.2645C34.6062 17.9519 33.9733 17.9519 33.4754 18.2645L29.419 20.8111C29.3892 20.8298 29.3699 20.8312 29.3572 20.8304C29.3403 20.8294 29.3183 20.8227 29.2965 20.8069C29.2748 20.7912 29.2616 20.7722 29.2555 20.7565C29.2508 20.7447 29.2462 20.7258 29.2547 20.6917L30.4232 16.047C30.5667 15.4768 30.3711 14.8749 29.9199 14.4979L26.2444 11.427C26.2175 11.4045 26.2102 11.3865 26.207 11.3742C26.2027 11.3579 26.2022 11.3348 26.2105 11.3093C26.2188 11.2837 26.2328 11.2653 26.2458 11.2546C26.2556 11.2466 26.2721 11.2363 26.3072 11.2339L31.0857 10.9099C31.6723 10.8701 32.1843 10.4981 32.4034 9.95252L34.1882 5.50799Z" stroke="#00B3FF" stroke-opacity="0.2" stroke-width="1.42225"/>
</g>
<g filter="url(#filter8_f_472_9706)">
<path d="M33.9344 5.40606C34.063 5.08577 34.5165 5.08577 34.6451 5.40606L36.4299 9.85059C36.6099 10.2987 37.0305 10.6043 37.5123 10.637L42.2908 10.961C42.6352 10.9844 42.7753 11.4156 42.5104 11.6369L38.835 14.7078C38.4644 15.0174 38.3037 15.5119 38.4215 15.9802L39.59 20.625C39.6742 20.9597 39.3074 21.2263 39.0151 21.0427L34.9587 18.4961C34.5497 18.2393 34.0298 18.2393 33.6208 18.4961L29.5644 21.0427C29.2721 21.2263 28.9053 20.9597 28.9895 20.625L30.158 15.9802C30.2758 15.5119 30.1151 15.0174 29.7445 14.7078L26.0691 11.6369C25.8042 11.4156 25.9443 10.9844 26.2887 10.961L31.0672 10.637C31.549 10.6043 31.9697 10.2987 32.1496 9.85059L33.9344 5.40606Z" stroke="#82D9FF" stroke-width="0.875232"/>
</g>
<g filter="url(#filter9_f_472_9706)">
<path d="M33.7314 5.32453C33.9335 4.8212 34.646 4.8212 34.8481 5.32452L36.6329 9.76905C36.7816 10.1393 37.1291 10.3917 37.5271 10.4187L42.3056 10.7427C42.8468 10.7794 43.067 11.4571 42.6507 11.8048L38.9753 14.8757C38.6691 15.1315 38.5364 15.54 38.6337 15.9269L39.8022 20.5716C39.9346 21.0976 39.3581 21.5164 38.8987 21.2281L34.8424 18.6814C34.5045 18.4693 34.075 18.4693 33.7371 18.6814L29.6808 21.2281C29.2214 21.5164 28.645 21.0976 28.7773 20.5716L29.9458 15.9269C30.0431 15.54 29.9104 15.1315 29.6042 14.8757L25.9288 11.8048C25.5125 11.4571 25.7327 10.7794 26.2739 10.7427L31.0524 10.4187C31.4504 10.3917 31.7979 10.1393 31.9466 9.76905L33.7314 5.32453Z" stroke="white" stroke-width="0.437616"/>
</g>
<g style="mix-blend-mode:hard-light" filter="url(#filter10_f_472_9706)">
<path d="M55.3632 5.50799C55.3763 5.47538 55.3911 5.46287 55.4018 5.45601C55.416 5.44693 55.4378 5.43935 55.4647 5.43935C55.4916 5.43935 55.5133 5.44693 55.5275 5.45601C55.5382 5.46286 55.5531 5.47538 55.5662 5.50798L57.351 9.95252C57.5701 10.4981 58.0821 10.8701 58.6687 10.9099L63.4473 11.2339C63.4823 11.2363 63.4988 11.2466 63.5086 11.2546C63.5217 11.2653 63.5356 11.2837 63.5439 11.3093C63.5522 11.3348 63.5517 11.3579 63.5475 11.3742C63.5443 11.3865 63.537 11.4045 63.51 11.427L59.8345 14.4979C59.3834 14.8749 59.1878 15.4768 59.3312 16.047L60.4997 20.6917C60.5083 20.7258 60.5036 20.7447 60.499 20.7565C60.4928 20.7722 60.4797 20.7912 60.4579 20.8069C60.4362 20.8227 60.4141 20.8294 60.3973 20.8304C60.3846 20.8312 60.3652 20.8298 60.3354 20.8111L56.2791 18.2645C55.7811 17.9519 55.1482 17.9519 54.6503 18.2645L50.5939 20.8111C50.5642 20.8298 50.5448 20.8312 50.5321 20.8304C50.5153 20.8294 50.4932 20.8227 50.4714 20.8069C50.4497 20.7912 50.4366 20.7722 50.4304 20.7565C50.4258 20.7447 50.4211 20.7258 50.4297 20.6917L51.5982 16.047C51.7416 15.4768 51.546 14.8749 51.0948 14.4979L47.4194 11.427C47.3924 11.4045 47.3851 11.3865 47.3819 11.3742C47.3776 11.3579 47.3772 11.3348 47.3855 11.3093C47.3938 11.2837 47.4077 11.2653 47.4207 11.2546C47.4306 11.2466 47.4471 11.2363 47.4821 11.2339L52.2606 10.9099C52.8472 10.8701 53.3593 10.4981 53.5784 9.95252L55.3632 5.50799Z" stroke="#0094FF" stroke-width="1.42225"/>
</g>
<g style="mix-blend-mode:hard-light" filter="url(#filter11_f_472_9706)">
<path d="M53.7814 10.0341L55.4647 5.84234L57.148 10.0341C57.3983 10.6576 57.9835 11.0827 58.6539 11.1282L63.1606 11.4338L59.6942 14.33C59.1786 14.7608 58.9551 15.4487 59.119 16.1004L60.221 20.4809L56.3954 18.0792C55.8264 17.7219 55.103 17.7219 54.5339 18.0792L50.7083 20.4809L51.8103 16.1004C51.9743 15.4487 51.7508 14.7608 51.2351 14.33L47.7687 11.4338L52.2754 11.1282C52.9458 11.0827 53.531 10.6576 53.7814 10.0341ZM60.4518 20.6258L60.4516 20.6256L60.4518 20.6258ZM50.6419 20.7451L50.6419 20.745L50.6419 20.7451Z" stroke="#0094FF" stroke-width="1.85987"/>
</g>
<g style="mix-blend-mode:hard-light" filter="url(#filter12_ddi_472_9706)">
<path d="M55.3632 5.50799C55.3763 5.47538 55.3911 5.46287 55.4018 5.45601C55.416 5.44693 55.4378 5.43935 55.4647 5.43935C55.4916 5.43935 55.5133 5.44693 55.5275 5.45601C55.5382 5.46286 55.5531 5.47538 55.5662 5.50798L57.351 9.95252C57.5701 10.4981 58.0821 10.8701 58.6687 10.9099L63.4473 11.2339C63.4823 11.2363 63.4988 11.2466 63.5086 11.2546C63.5217 11.2653 63.5356 11.2837 63.5439 11.3093C63.5522 11.3348 63.5517 11.3579 63.5475 11.3742C63.5443 11.3865 63.537 11.4045 63.51 11.427L59.8345 14.4979C59.3834 14.8749 59.1878 15.4768 59.3312 16.047L60.4997 20.6917C60.5083 20.7258 60.5036 20.7447 60.499 20.7565C60.4928 20.7722 60.4797 20.7912 60.4579 20.8069C60.4362 20.8227 60.4141 20.8294 60.3973 20.8304C60.3846 20.8312 60.3652 20.8298 60.3354 20.8111L56.2791 18.2645C55.7811 17.9519 55.1482 17.9519 54.6503 18.2645L50.5939 20.8111C50.5642 20.8298 50.5448 20.8312 50.5321 20.8304C50.5153 20.8294 50.4932 20.8227 50.4714 20.8069C50.4497 20.7912 50.4366 20.7722 50.4304 20.7565C50.4258 20.7447 50.4211 20.7258 50.4297 20.6917L51.5982 16.047C51.7416 15.4768 51.546 14.8749 51.0948 14.4979L47.4194 11.427C47.3924 11.4045 47.3851 11.3865 47.3819 11.3742C47.3776 11.3579 47.3772 11.3348 47.3855 11.3093C47.3938 11.2837 47.4077 11.2653 47.4207 11.2546C47.4306 11.2466 47.4471 11.2363 47.4821 11.2339L52.2606 10.9099C52.8472 10.8701 53.3593 10.4981 53.5784 9.95252L55.3632 5.50799Z" stroke="#00B3FF" stroke-opacity="0.2" stroke-width="1.42225"/>
</g>
<g filter="url(#filter13_f_472_9706)">
<path d="M55.1093 5.40606C55.238 5.08577 55.6914 5.08577 55.82 5.40606L57.6048 9.85059C57.7848 10.2987 58.2054 10.6043 58.6872 10.637L63.4658 10.961C63.8101 10.9844 63.9502 11.4156 63.6854 11.6369L60.0099 14.7078C59.6393 15.0174 59.4786 15.5119 59.5965 15.9802L60.765 20.625C60.8492 20.9597 60.4823 21.2263 60.19 21.0427L56.1337 18.4961C55.7246 18.2393 55.2047 18.2393 54.7957 18.4961L50.7394 21.0427C50.447 21.2263 50.0802 20.9597 50.1644 20.625L51.3329 15.9802C51.4507 15.5119 51.2901 15.0174 50.9195 14.7078L47.244 11.6369C46.9791 11.4156 47.1192 10.9844 47.4636 10.961L52.2421 10.637C52.724 10.6043 53.1446 10.2987 53.3246 9.85059L55.1093 5.40606Z" stroke="#82D9FF" stroke-width="0.875232"/>
</g>
<g filter="url(#filter14_f_472_9706)">
<path d="M54.9063 5.32453C55.1084 4.8212 55.8209 4.8212 56.0231 5.32452L57.8079 9.76905C57.9565 10.1393 58.304 10.3917 58.702 10.4187L63.4806 10.7427C64.0217 10.7794 64.2419 11.4571 63.8257 11.8048L60.1502 14.8757C59.844 15.1315 59.7113 15.54 59.8087 15.9269L60.9772 20.5716C61.1095 21.0976 60.533 21.5164 60.0737 21.2281L56.0173 18.6814C55.6794 18.4693 55.2499 18.4693 54.9121 18.6814L50.8557 21.2281C50.3963 21.5164 49.8199 21.0976 49.9522 20.5716L51.1207 15.9269C51.218 15.54 51.0853 15.1315 50.7792 14.8757L47.1037 11.8048C46.6875 11.4571 46.9077 10.7794 47.4488 10.7427L52.2273 10.4187C52.6254 10.3917 52.9728 10.1393 53.1215 9.76905L54.9063 5.32453Z" stroke="white" stroke-width="0.437616"/>
</g>
<g style="mix-blend-mode:hard-light" filter="url(#filter15_f_472_9706)">
<path d="M76.5381 5.50799C76.5512 5.47538 76.5661 5.46287 76.5768 5.45601C76.591 5.44693 76.6127 5.43935 76.6396 5.43935C76.6665 5.43935 76.6883 5.44693 76.7024 5.45601C76.7132 5.46286 76.728 5.47538 76.7411 5.50798L78.5259 9.95252C78.745 10.4981 79.2571 10.8701 79.8437 10.9099L84.6222 11.2339C84.6572 11.2363 84.6737 11.2466 84.6836 11.2546C84.6966 11.2653 84.7105 11.2837 84.7188 11.3093C84.7271 11.3348 84.7267 11.3579 84.7224 11.3742C84.7192 11.3865 84.7119 11.4045 84.6849 11.427L81.0095 14.4979C80.5583 14.8749 80.3627 15.4768 80.5061 16.047L81.6746 20.6917C81.6832 20.7258 81.6785 20.7447 81.6739 20.7565C81.6677 20.7722 81.6546 20.7912 81.6328 20.8069C81.6111 20.8227 81.589 20.8294 81.5722 20.8304C81.5595 20.8312 81.5401 20.8298 81.5104 20.8111L77.454 18.2645C76.9561 17.9519 76.3231 17.9519 75.8252 18.2645L71.7689 20.8111C71.7391 20.8298 71.7197 20.8312 71.707 20.8304C71.6902 20.8294 71.6681 20.8227 71.6464 20.8069C71.6246 20.7912 71.6115 20.7722 71.6053 20.7565C71.6007 20.7447 71.596 20.7258 71.6046 20.6917L72.7731 16.047C72.9165 15.4768 72.7209 14.8749 72.2698 14.4979L68.5943 11.427C68.5673 11.4045 68.56 11.3865 68.5568 11.3742C68.5526 11.3579 68.5521 11.3348 68.5604 11.3093C68.5687 11.2837 68.5826 11.2653 68.5956 11.2546C68.6055 11.2466 68.622 11.2363 68.657 11.2339L73.4356 10.9099C74.0221 10.8701 74.5342 10.4981 74.7533 9.95252L76.5381 5.50799Z" stroke="#0094FF" stroke-width="1.42225"/>
</g>
<g style="mix-blend-mode:hard-light" filter="url(#filter16_f_472_9706)">
<path d="M74.9563 10.0341L76.6396 5.84234L78.3229 10.0341C78.5733 10.6576 79.1585 11.0827 79.8289 11.1282L84.3356 11.4338L80.8692 14.33C80.3535 14.7608 80.13 15.4487 80.2939 16.1004L81.396 20.4809L77.5703 18.0792C77.0013 17.7219 76.2779 17.7219 75.7089 18.0792L71.8832 20.4809L72.9853 16.1004C73.1492 15.4487 72.9257 14.7608 72.41 14.33L68.9437 11.4338L73.4504 11.1282C74.1207 11.0827 74.7059 10.6576 74.9563 10.0341ZM81.6267 20.6258L81.6265 20.6256L81.6267 20.6258ZM71.8168 20.7451L71.8168 20.745L71.8168 20.7451Z" stroke="#0094FF" stroke-width="1.85987"/>
</g>
<g style="mix-blend-mode:hard-light" filter="url(#filter17_ddi_472_9706)">
<path d="M76.5381 5.50799C76.5512 5.47538 76.5661 5.46287 76.5768 5.45601C76.591 5.44693 76.6127 5.43935 76.6396 5.43935C76.6665 5.43935 76.6883 5.44693 76.7024 5.45601C76.7132 5.46286 76.728 5.47538 76.7411 5.50798L78.5259 9.95252C78.745 10.4981 79.2571 10.8701 79.8437 10.9099L84.6222 11.2339C84.6572 11.2363 84.6737 11.2466 84.6836 11.2546C84.6966 11.2653 84.7105 11.2837 84.7188 11.3093C84.7271 11.3348 84.7267 11.3579 84.7224 11.3742C84.7192 11.3865 84.7119 11.4045 84.6849 11.427L81.0095 14.4979C80.5583 14.8749 80.3627 15.4768 80.5061 16.047L81.6746 20.6917C81.6832 20.7258 81.6785 20.7447 81.6739 20.7565C81.6677 20.7722 81.6546 20.7912 81.6328 20.8069C81.6111 20.8227 81.589 20.8294 81.5722 20.8304C81.5595 20.8312 81.5401 20.8298 81.5104 20.8111L77.454 18.2645C76.9561 17.9519 76.3231 17.9519 75.8252 18.2645L71.7689 20.8111C71.7391 20.8298 71.7197 20.8312 71.707 20.8304C71.6902 20.8294 71.6681 20.8227 71.6464 20.8069C71.6246 20.7912 71.6115 20.7722 71.6053 20.7565C71.6007 20.7447 71.596 20.7258 71.6046 20.6917L72.7731 16.047C72.9165 15.4768 72.7209 14.8749 72.2698 14.4979L68.5943 11.427C68.5673 11.4045 68.56 11.3865 68.5568 11.3742C68.5526 11.3579 68.5521 11.3348 68.5604 11.3093C68.5687 11.2837 68.5826 11.2653 68.5956 11.2546C68.6055 11.2466 68.622 11.2363 68.657 11.2339L73.4356 10.9099C74.0221 10.8701 74.5342 10.4981 74.7533 9.95252L76.5381 5.50799Z" stroke="#00B3FF" stroke-opacity="0.2" stroke-width="1.42225"/>
</g>
<g filter="url(#filter18_f_472_9706)">
<path d="M76.2843 5.40606C76.4129 5.08577 76.8663 5.08577 76.9949 5.40606L78.7797 9.85059C78.9597 10.2987 79.3803 10.6043 79.8622 10.637L84.6407 10.961C84.9851 10.9844 85.1252 11.4156 84.8603 11.6369L81.1848 14.7078C80.8142 15.0174 80.6536 15.5119 80.7714 15.9802L81.9399 20.625C82.0241 20.9597 81.6573 21.2263 81.3649 21.0427L77.3086 18.4961C76.8996 18.2393 76.3797 18.2393 75.9706 18.4961L71.9143 21.0427C71.622 21.2263 71.2551 20.9597 71.3393 20.625L72.5078 15.9802C72.6257 15.5119 72.465 15.0174 72.0944 14.7078L68.4189 11.6369C68.154 11.4156 68.2942 10.9844 68.6385 10.961L73.4171 10.637C73.8989 10.6043 74.3195 10.2987 74.4995 9.85059L76.2843 5.40606Z" stroke="#82D9FF" stroke-width="0.875232"/>
</g>
<g filter="url(#filter19_f_472_9706)">
<path d="M76.0812 5.32453C76.2833 4.8212 76.9959 4.8212 77.198 5.32452L78.9828 9.76905C79.1315 10.1393 79.4789 10.3917 79.877 10.4187L84.6555 10.7427C85.1966 10.7794 85.4168 11.4571 85.0006 11.8048L81.3251 14.8757C81.019 15.1315 80.8863 15.54 80.9836 15.9269L82.1521 20.5716C82.2844 21.0976 81.708 21.5164 81.2486 21.2281L77.1922 18.6814C76.8544 18.4693 76.4249 18.4693 76.087 18.6814L72.0306 21.2281C71.5713 21.5164 70.9948 21.0976 71.1271 20.5716L72.2956 15.9269C72.393 15.54 72.2603 15.1315 71.9541 14.8757L68.2786 11.8048C67.8624 11.4571 68.0826 10.7794 68.6237 10.7427L73.4023 10.4187C73.8003 10.3917 74.1478 10.1393 74.2964 9.76905L76.0812 5.32453Z" stroke="white" stroke-width="0.437616"/>
</g>
<path d="M27.6091 37.0571V38.4211H24.4411V44.7571H22.8791V37.0571H27.6091ZM26.5611 44.8451C26.4585 44.8451 26.3521 44.8341 26.2421 44.8121C26.1321 44.7974 26.0368 44.7791 25.9561 44.7571V43.6131C26.0148 43.6278 26.0735 43.6388 26.1321 43.6461C26.1908 43.6534 26.2421 43.6571 26.2861 43.6571C26.3888 43.6571 26.4841 43.6241 26.5721 43.5581C26.6675 43.4921 26.7481 43.3454 26.8141 43.1181C26.8801 42.8908 26.9315 42.5608 26.9681 42.1281C27.0121 41.6881 27.0341 41.0978 27.0341 40.3571V39.0591H31.6211V44.7571H30.1251V40.1591H28.3651V40.3571C28.3651 41.3178 28.3248 42.0914 28.2441 42.6781C28.1635 43.2648 28.0461 43.7194 27.8921 44.0421C27.7381 44.3574 27.5475 44.5701 27.3201 44.6801C27.1001 44.7901 26.8471 44.8451 26.5611 44.8451ZM33.4027 39.3451C33.7474 39.2058 34.0847 39.1104 34.4147 39.0591C34.7447 39.0004 35.104 38.9711 35.4927 38.9711C36.072 38.9711 36.5267 39.0444 36.8567 39.1911C37.194 39.3378 37.447 39.5211 37.6157 39.7411C37.7844 39.9611 37.8907 40.1994 37.9347 40.4561C37.986 40.7128 38.0117 40.9474 38.0117 41.1601V44.7571H36.5487V43.9211H36.5267C36.4974 43.9798 36.446 44.0641 36.3727 44.1741C36.2994 44.2768 36.193 44.3794 36.0537 44.4821C35.9144 44.5774 35.7384 44.6618 35.5257 44.7351C35.313 44.8084 35.0527 44.8451 34.7447 44.8451C34.3854 44.8451 34.0774 44.7974 33.8207 44.7021C33.564 44.5994 33.355 44.4674 33.1937 44.3061C33.0324 44.1448 32.9114 43.9614 32.8307 43.7561C32.7574 43.5434 32.7207 43.3271 32.7207 43.1071C32.7207 42.9091 32.7537 42.7001 32.8197 42.4801C32.8857 42.2601 33.0214 42.0584 33.2267 41.8751C33.432 41.6844 33.718 41.5304 34.0847 41.4131C34.4514 41.2884 34.939 41.2261 35.5477 41.2261C35.687 41.2261 35.8264 41.2298 35.9657 41.2371C36.105 41.2371 36.2444 41.2371 36.3837 41.2371H36.5157V40.9951C36.5157 40.8411 36.479 40.7018 36.4057 40.5771C36.3397 40.4524 36.248 40.3498 36.1307 40.2691C36.0134 40.1884 35.874 40.1261 35.7127 40.0821C35.5587 40.0381 35.3974 40.0161 35.2287 40.0161C34.9794 40.0161 34.708 40.0491 34.4147 40.1151C34.1214 40.1738 33.784 40.3094 33.4027 40.5221V39.3451ZM36.2627 42.1721C36.0574 42.1721 35.8337 42.1794 35.5917 42.1941C35.357 42.2014 35.137 42.2344 34.9317 42.2931C34.7337 42.3518 34.5687 42.4434 34.4367 42.5681C34.3047 42.6928 34.2387 42.8688 34.2387 43.0961C34.2387 43.3014 34.3084 43.4774 34.4477 43.6241C34.587 43.7634 34.8217 43.8331 35.1517 43.8331C35.3057 43.8331 35.4634 43.8111 35.6247 43.7671C35.786 43.7231 35.9327 43.6461 36.0647 43.5361C36.1967 43.4261 36.303 43.2721 36.3837 43.0741C36.4717 42.8761 36.5157 42.6231 36.5157 42.3151V42.1721H36.2627ZM42.2363 39.0591C42.647 39.0591 42.977 39.1031 43.2263 39.1911C43.483 39.2791 43.681 39.3928 43.8203 39.5321C43.967 39.6714 44.066 39.8218 44.1173 39.9831C44.1686 40.1444 44.1943 40.3021 44.1943 40.4561C44.1943 40.8154 44.0916 41.1051 43.8863 41.3251C43.6883 41.5378 43.439 41.6734 43.1383 41.7321V41.7651C43.2996 41.7798 43.4573 41.8164 43.6113 41.8751C43.7726 41.9264 43.912 42.0108 44.0293 42.1281C44.154 42.2381 44.253 42.3811 44.3263 42.5571C44.407 42.7258 44.4473 42.9274 44.4473 43.1621C44.4473 43.6754 44.253 44.0714 43.8643 44.3501C43.483 44.6214 42.9696 44.7571 42.3243 44.7571H39.4423V39.0591H42.2363ZM40.9383 41.2811H41.8623C41.9356 41.2811 42.02 41.2774 42.1153 41.2701C42.218 41.2628 42.3133 41.2408 42.4013 41.2041C42.4893 41.1601 42.5626 41.0978 42.6213 41.0171C42.68 40.9364 42.7093 40.8191 42.7093 40.6651C42.7093 40.5184 42.6763 40.4048 42.6103 40.3241C42.5516 40.2434 42.4783 40.1848 42.3903 40.1481C42.3023 40.1041 42.2106 40.0784 42.1153 40.0711C42.02 40.0564 41.9356 40.0491 41.8623 40.0491H40.9383V41.2811ZM40.9383 43.7671H41.8953C41.9613 43.7671 42.0493 43.7634 42.1593 43.7561C42.2766 43.7488 42.3866 43.7231 42.4893 43.6791C42.5993 43.6351 42.691 43.5618 42.7643 43.4591C42.845 43.3564 42.8853 43.2098 42.8853 43.0191C42.8853 42.8431 42.8486 42.7074 42.7753 42.6121C42.7093 42.5094 42.6213 42.4324 42.5113 42.3811C42.4086 42.3298 42.2986 42.3004 42.1813 42.2931C42.0713 42.2784 41.9723 42.2711 41.8843 42.2711H40.9383V43.7671ZM47.158 39.0591V41.2151H49.556V39.0591H51.052V44.7571H49.556V42.3151H47.158V44.7571H45.662V39.0591H47.158ZM52.4723 39.0591H53.9683V40.9071H55.1123C55.9336 40.9071 56.5386 41.0831 56.9273 41.4351C57.3233 41.7871 57.5213 42.2528 57.5213 42.8321C57.5213 43.4114 57.3233 43.8771 56.9273 44.2291C56.5386 44.5811 55.9336 44.7571 55.1123 44.7571H52.4723V39.0591ZM55.9593 42.8321C55.9593 42.5534 55.875 42.3371 55.7063 42.1831C55.5376 42.0291 55.2663 41.9521 54.8923 41.9521H53.9683V43.7121H54.8923C55.2663 43.7121 55.5376 43.6351 55.7063 43.4811C55.875 43.3271 55.9593 43.1108 55.9593 42.8321ZM58.4123 39.0591H59.9083V44.7571H58.4123V39.0591ZM62.8309 39.0591V42.0511L62.7869 43.0741H62.8089L65.2619 39.0591H66.9339V44.7571H65.4379V41.8091L65.4819 40.7421H65.4489L62.9299 44.7571H61.3349V39.0591H62.8309ZM64.1289 38.3771C63.9309 38.3771 63.7365 38.3514 63.5459 38.3001C63.3625 38.2488 63.1975 38.1681 63.0509 38.0581C62.9042 37.9408 62.7832 37.7904 62.6879 37.6071C62.5999 37.4164 62.5485 37.1891 62.5339 36.9251L63.4689 36.8371C63.4982 37.0938 63.5605 37.2771 63.6559 37.3871C63.7585 37.4971 63.9162 37.5521 64.1289 37.5521C64.3415 37.5521 64.4955 37.4971 64.5909 37.3871C64.6935 37.2771 64.7595 37.0938 64.7889 36.8371L65.7239 36.9251C65.7092 37.1891 65.6542 37.4164 65.5589 37.6071C65.4709 37.7904 65.3535 37.9408 65.2069 38.0581C65.0602 38.1681 64.8915 38.2488 64.7009 38.3001C64.5175 38.3514 64.3269 38.3771 64.1289 38.3771ZM17.0691 55.8451C16.5631 55.8451 16.1231 55.7608 15.7491 55.5921C15.3751 55.4234 15.0634 55.1998 14.8141 54.9211C14.5721 54.6351 14.3924 54.3124 14.2751 53.9531C14.1578 53.5938 14.0991 53.2271 14.0991 52.8531C14.0991 52.4718 14.1651 52.1088 14.2971 51.7641C14.4291 51.4121 14.6234 51.1041 14.8801 50.8401C15.1368 50.5761 15.4558 50.3671 15.8371 50.2131C16.2258 50.0518 16.6731 49.9711 17.1791 49.9711C17.3698 49.9711 17.5751 49.9821 17.7951 50.0041C18.0151 50.0261 18.2314 50.0664 18.4441 50.1251V51.2361C18.3048 51.1774 18.1544 51.1334 17.9931 51.1041C17.8391 51.0674 17.6521 51.0491 17.4321 51.0491C17.1828 51.0491 16.9481 51.0931 16.7281 51.1811C16.5154 51.2691 16.3284 51.3974 16.1671 51.5661C16.0131 51.7274 15.8884 51.9254 15.7931 52.1601C15.7051 52.3874 15.6611 52.6441 15.6611 52.9301C15.6611 53.1868 15.6978 53.4288 15.7711 53.6561C15.8518 53.8761 15.9618 54.0704 16.1011 54.2391C16.2478 54.4004 16.4238 54.5288 16.6291 54.6241C16.8344 54.7194 17.0691 54.7671 17.3331 54.7671C17.7364 54.7671 18.1361 54.6828 18.5321 54.5141V55.6251C18.3928 55.6691 18.1948 55.7168 17.9381 55.7681C17.6888 55.8194 17.3991 55.8451 17.0691 55.8451ZM24.8229 50.0591V55.7571H23.3269V51.1591H21.0169V55.7571H19.5209V50.0591H24.8229ZM27.4883 53.3591C27.4956 53.5424 27.5359 53.7184 27.6093 53.8871C27.6826 54.0558 27.7889 54.2061 27.9283 54.3381C28.0676 54.4701 28.2399 54.5764 28.4453 54.6571C28.6579 54.7304 28.9036 54.7671 29.1823 54.7671C29.5123 54.7671 29.8239 54.7341 30.1173 54.6681C30.4106 54.5948 30.6929 54.4958 30.9643 54.3711V55.4931C30.6709 55.6031 30.3556 55.6911 30.0183 55.7571C29.6809 55.8158 29.3399 55.8451 28.9953 55.8451C28.5699 55.8451 28.1703 55.7864 27.7963 55.6691C27.4223 55.5518 27.0959 55.3721 26.8173 55.1301C26.5459 54.8881 26.3296 54.5838 26.1683 54.2171C26.0069 53.8504 25.9263 53.4141 25.9263 52.9081C25.9263 52.4461 25.9996 52.0354 26.1463 51.6761C26.3003 51.3094 26.5056 51.0014 26.7623 50.7521C27.0189 50.4954 27.3159 50.3011 27.6533 50.1691C27.9979 50.0371 28.3609 49.9711 28.7423 49.9711C29.1749 49.9711 29.5379 50.0371 29.8313 50.1691C30.1319 50.2938 30.3776 50.4551 30.5683 50.6531C30.7663 50.8511 30.9166 51.0711 31.0193 51.3131C31.1293 51.5478 31.2099 51.7788 31.2613 52.0061C31.3126 52.2334 31.3419 52.4388 31.3493 52.6221C31.3639 52.8054 31.3713 52.9374 31.3713 53.0181V53.3591H27.4883ZM29.8313 52.3361C29.8386 52.0941 29.8056 51.8888 29.7323 51.7201C29.6663 51.5514 29.5746 51.4158 29.4573 51.3131C29.3399 51.2031 29.2116 51.1261 29.0723 51.0821C28.9329 51.0308 28.7936 51.0051 28.6543 51.0051C28.4856 51.0051 28.3316 51.0418 28.1923 51.1151C28.0529 51.1811 27.9319 51.2728 27.8293 51.3901C27.7266 51.5074 27.6423 51.6504 27.5763 51.8191C27.5176 51.9804 27.4883 52.1528 27.4883 52.3361H29.8313ZM33.972 50.0591V54.6571H36.359V50.0591H37.855V54.6571H38.79V57.2421H37.415V55.7571H32.476V50.0591H33.972ZM41.1693 50.0591V53.0511L41.1253 54.0741H41.1473L43.6003 50.0591H45.2723V55.7571H43.7763V52.8091L43.8203 51.7421H43.7873L41.2683 55.7571H39.6733V50.0591H41.1693ZM47.0506 50.3451C47.3953 50.2058 47.7326 50.1104 48.0626 50.0591C48.3926 50.0004 48.752 49.9711 49.1406 49.9711C49.72 49.9711 50.1746 50.0444 50.5046 50.1911C50.842 50.3378 51.095 50.5211 51.2636 50.7411C51.4323 50.9611 51.5386 51.1994 51.5826 51.4561C51.634 51.7128 51.6596 51.9474 51.6596 52.1601V55.7571H50.1966V54.9211H50.1746C50.1453 54.9798 50.094 55.0641 50.0206 55.1741C49.9473 55.2768 49.841 55.3794 49.7016 55.4821C49.5623 55.5774 49.3863 55.6618 49.1736 55.7351C48.961 55.8084 48.7006 55.8451 48.3926 55.8451C48.0333 55.8451 47.7253 55.7974 47.4686 55.7021C47.212 55.5994 47.003 55.4674 46.8416 55.3061C46.6803 55.1448 46.5593 54.9614 46.4786 54.7561C46.4053 54.5434 46.3686 54.3271 46.3686 54.1071C46.3686 53.9091 46.4016 53.7001 46.4676 53.4801C46.5336 53.2601 46.6693 53.0584 46.8746 52.8751C47.08 52.6844 47.366 52.5304 47.7326 52.4131C48.0993 52.2884 48.587 52.2261 49.1956 52.2261C49.335 52.2261 49.4743 52.2298 49.6136 52.2371C49.753 52.2371 49.8923 52.2371 50.0316 52.2371H50.1636V51.9951C50.1636 51.8411 50.127 51.7018 50.0536 51.5771C49.9876 51.4524 49.896 51.3498 49.7786 51.2691C49.6613 51.1884 49.522 51.1261 49.3606 51.0821C49.2066 51.0381 49.0453 51.0161 48.8766 51.0161C48.6273 51.0161 48.356 51.0491 48.0626 51.1151C47.7693 51.1738 47.432 51.3094 47.0506 51.5221V50.3451ZM49.9106 53.1721C49.7053 53.1721 49.4816 53.1794 49.2396 53.1941C49.005 53.2014 48.785 53.2344 48.5796 53.2931C48.3816 53.3518 48.2166 53.4434 48.0846 53.5681C47.9526 53.6928 47.8866 53.8688 47.8866 54.0961C47.8866 54.3014 47.9563 54.4774 48.0956 54.6241C48.235 54.7634 48.4696 54.8331 48.7996 54.8331C48.9536 54.8331 49.1113 54.8111 49.2726 54.7671C49.434 54.7231 49.5806 54.6461 49.7126 54.5361C49.8446 54.4261 49.951 54.2721 50.0316 54.0741C50.1196 53.8761 50.1636 53.6231 50.1636 53.3151V53.1721H49.9106ZM52.9708 55.8451C52.8681 55.8451 52.7618 55.8341 52.6518 55.8121C52.5418 55.7974 52.4465 55.7791 52.3658 55.7571V54.6131C52.4245 54.6278 52.4831 54.6388 52.5418 54.6461C52.6005 54.6534 52.6518 54.6571 52.6958 54.6571C52.7985 54.6571 52.8938 54.6241 52.9818 54.5581C53.0771 54.4921 53.1578 54.3454 53.2238 54.1181C53.2898 53.8908 53.3411 53.5608 53.3778 53.1281C53.4218 52.6881 53.4438 52.0978 53.4438 51.3571V50.0591H58.0308V55.7571H56.5348V51.1591H54.7748V51.3571C54.7748 52.3178 54.7345 53.0914 54.6538 53.6781C54.5731 54.2648 54.4558 54.7194 54.3018 55.0421C54.1478 55.3574 53.9571 55.5701 53.7298 55.6801C53.5098 55.7901 53.2568 55.8451 52.9708 55.8451ZM60.9564 50.0591V53.0511L60.9124 54.0741H60.9344L63.3874 50.0591H65.0594V55.7571H63.5634V52.8091L63.6074 51.7421H63.5744L61.0554 55.7571H59.4604V50.0591H60.9564ZM69.1258 55.8451C68.6198 55.8451 68.1798 55.7608 67.8058 55.5921C67.4318 55.4234 67.1201 55.1998 66.8708 54.9211C66.6288 54.6351 66.4491 54.3124 66.3318 53.9531C66.2144 53.5938 66.1558 53.2271 66.1558 52.8531C66.1558 52.4718 66.2218 52.1088 66.3538 51.7641C66.4858 51.4121 66.6801 51.1041 66.9368 50.8401C67.1934 50.5761 67.5124 50.3671 67.8938 50.2131C68.2824 50.0518 68.7298 49.9711 69.2358 49.9711C69.4264 49.9711 69.6318 49.9821 69.8518 50.0041C70.0718 50.0261 70.2881 50.0664 70.5008 50.1251V51.2361C70.3614 51.1774 70.2111 51.1334 70.0498 51.1041C69.8958 51.0674 69.7088 51.0491 69.4888 51.0491C69.2394 51.0491 69.0048 51.0931 68.7848 51.1811C68.5721 51.2691 68.3851 51.3974 68.2238 51.5661C68.0698 51.7274 67.9451 51.9254 67.8498 52.1601C67.7618 52.3874 67.7178 52.6441 67.7178 52.9301C67.7178 53.1868 67.7544 53.4288 67.8278 53.6561C67.9084 53.8761 68.0184 54.0704 68.1578 54.2391C68.3044 54.4004 68.4804 54.5288 68.6858 54.6241C68.8911 54.7194 69.1258 54.7671 69.3898 54.7671C69.7931 54.7671 70.1928 54.6828 70.5888 54.5141V55.6251C70.4494 55.6691 70.2514 55.7168 69.9948 55.7681C69.7454 55.8194 69.4558 55.8451 69.1258 55.8451ZM75.9251 50.0591V51.1591H74.1431V55.7571H72.6471V51.1591H70.8651V50.0591H75.9251Z" fill="#0094FF"/>
<defs>
<filter id="filter0_f_472_9706" x="0.412025" y="0.822486" width="25.4053" height="24.6249" filterUnits="userSpaceOnUse" color-interpolation-filters="sRGB">
<feFlood flood-opacity="0" result="BackgroundImageFix"/>
<feBlend mode="normal" in="SourceGraphic" in2="BackgroundImageFix" result="shape"/>
<feGaussianBlur stdDeviation="1.95286" result="effect1_foregroundBlur_472_9706"/>
</filter>
<filter id="filter1_f_472_9706" x="3.01584" y="3.4263" width="20.1977" height="19.4173" filterUnits="userSpaceOnUse" color-interpolation-filters="sRGB">
<feFlood flood-opacity="0" result="BackgroundImageFix"/>
<feBlend mode="normal" in="SourceGraphic" in2="BackgroundImageFix" result="shape"/>
<feGaussianBlur stdDeviation="0.650954" result="effect1_foregroundBlur_472_9706"/>
</filter>
<filter id="filter2_ddi_472_9706" x="2.62527" y="4.33764" width="20.9788" height="20.1984" filterUnits="userSpaceOnUse" color-interpolation-filters="sRGB">
<feFlood flood-opacity="0" result="BackgroundImageFix"/>
<feColorMatrix in="SourceAlpha" type="matrix" values="0 0 0 0 0 0 0 0 0 0 0 0 0 0 0 0 0 0 127 0" result="hardAlpha"/>
<feOffset dy="1.42225"/>
<feGaussianBlur stdDeviation="0.54702"/>
<feColorMatrix type="matrix" values="0 0 0 0 0 0 0 0 0 0.051 0 0 0 0 0.082 0 0 0 0.7 0"/>
<feBlend mode="multiply" in2="BackgroundImageFix" result="effect1_dropShadow_472_9706"/>
<feColorMatrix in="SourceAlpha" type="matrix" values="0 0 0 0 0 0 0 0 0 0 0 0 0 0 0 0 0 0 127 0" result="hardAlpha"/>
<feOffset dy="1.30191"/>
<feGaussianBlur stdDeviation="0.84624"/>
<feColorMatrix type="matrix" values="0 0 0 0 0 0 0 0 0 0.4 0 0 0 0 1 0 0 0 1 0"/>
<feBlend mode="color-dodge" in2="effect1_dropShadow_472_9706" result="effect2_dropShadow_472_9706"/>
<feBlend mode="normal" in="SourceGraphic" in2="effect2_dropShadow_472_9706" result="shape"/>
<feColorMatrix in="SourceAlpha" type="matrix" values="0 0 0 0 0 0 0 0 0 0 0 0 0 0 0 0 0 0 127 0" result="hardAlpha"/>
<feOffset dx="-0.142225" dy="0.284451"/>
<feGaussianBlur stdDeviation="0.0711126"/>
<feComposite in2="hardAlpha" operator="arithmetic" k2="-1" k3="1"/>
<feColorMatrix type="matrix" values="0 0 0 0 1 0 0 0 0 1 0 0 0 0 1 0 0 0 0.5 0"/>
<feBlend mode="normal" in2="shape" result="effect3_innerShadow_472_9706"/>
</filter>
<filter id="filter3_f_472_9706" x="4.09894" y="4.5094" width="18.0315" height="17.2511" filterUnits="userSpaceOnUse" color-interpolation-filters="sRGB">
<feFlood flood-opacity="0" result="BackgroundImageFix"/>
<feBlend mode="normal" in="SourceGraphic" in2="BackgroundImageFix" result="shape"/>
<feGaussianBlur stdDeviation="0.109404" result="effect1_foregroundBlur_472_9706"/>
</filter>
<filter id="filter4_f_472_9706" x="4.17188" y="4.58234" width="17.8856" height="17.1052" filterUnits="userSpaceOnUse" color-interpolation-filters="sRGB">
<feFlood flood-opacity="0" result="BackgroundImageFix"/>
<feBlend mode="normal" in="SourceGraphic" in2="BackgroundImageFix" result="shape"/>
<feGaussianBlur stdDeviation="0.072936" result="effect1_foregroundBlur_472_9706"/>
</filter>
<filter id="filter5_f_472_9706" x="21.5871" y="0.822486" width="25.4053" height="24.6249" filterUnits="userSpaceOnUse" color-interpolation-filters="sRGB">
<feFlood flood-opacity="0" result="BackgroundImageFix"/>
<feBlend mode="normal" in="SourceGraphic" in2="BackgroundImageFix" result="shape"/>
<feGaussianBlur stdDeviation="1.95286" result="effect1_foregroundBlur_472_9706"/>
</filter>
<filter id="filter6_f_472_9706" x="24.1909" y="3.4263" width="20.1977" height="19.4173" filterUnits="userSpaceOnUse" color-interpolation-filters="sRGB">
<feFlood flood-opacity="0" result="BackgroundImageFix"/>
<feBlend mode="normal" in="SourceGraphic" in2="BackgroundImageFix" result="shape"/>
<feGaussianBlur stdDeviation="0.650954" result="effect1_foregroundBlur_472_9706"/>
</filter>
<filter id="filter7_ddi_472_9706" x="23.8003" y="4.33764" width="20.9788" height="20.1984" filterUnits="userSpaceOnUse" color-interpolation-filters="sRGB">
<feFlood flood-opacity="0" result="BackgroundImageFix"/>
<feColorMatrix in="SourceAlpha" type="matrix" values="0 0 0 0 0 0 0 0 0 0 0 0 0 0 0 0 0 0 127 0" result="hardAlpha"/>
<feOffset dy="1.42225"/>
<feGaussianBlur stdDeviation="0.54702"/>
<feColorMatrix type="matrix" values="0 0 0 0 0 0 0 0 0 0.051 0 0 0 0 0.082 0 0 0 0.7 0"/>
<feBlend mode="multiply" in2="BackgroundImageFix" result="effect1_dropShadow_472_9706"/>
<feColorMatrix in="SourceAlpha" type="matrix" values="0 0 0 0 0 0 0 0 0 0 0 0 0 0 0 0 0 0 127 0" result="hardAlpha"/>
<feOffset dy="1.30191"/>
<feGaussianBlur stdDeviation="0.84624"/>
<feColorMatrix type="matrix" values="0 0 0 0 0 0 0 0 0 0.4 0 0 0 0 1 0 0 0 1 0"/>
<feBlend mode="color-dodge" in2="effect1_dropShadow_472_9706" result="effect2_dropShadow_472_9706"/>
<feBlend mode="normal" in="SourceGraphic" in2="effect2_dropShadow_472_9706" result="shape"/>
<feColorMatrix in="SourceAlpha" type="matrix" values="0 0 0 0 0 0 0 0 0 0 0 0 0 0 0 0 0 0 127 0" result="hardAlpha"/>
<feOffset dx="-0.142225" dy="0.284451"/>
<feGaussianBlur stdDeviation="0.0711126"/>
<feComposite in2="hardAlpha" operator="arithmetic" k2="-1" k3="1"/>
<feColorMatrix type="matrix" values="0 0 0 0 1 0 0 0 0 1 0 0 0 0 1 0 0 0 0.5 0"/>
<feBlend mode="normal" in2="shape" result="effect3_innerShadow_472_9706"/>
</filter>
<filter id="filter8_f_472_9706" x="25.274" y="4.5094" width="18.0315" height="17.2511" filterUnits="userSpaceOnUse" color-interpolation-filters="sRGB">
<feFlood flood-opacity="0" result="BackgroundImageFix"/>
<feBlend mode="normal" in="SourceGraphic" in2="BackgroundImageFix" result="shape"/>
<feGaussianBlur stdDeviation="0.109404" result="effect1_foregroundBlur_472_9706"/>
</filter>
<filter id="filter9_f_472_9706" x="25.3469" y="4.58234" width="17.8856" height="17.1052" filterUnits="userSpaceOnUse" color-interpolation-filters="sRGB">
<feFlood flood-opacity="0" result="BackgroundImageFix"/>
<feBlend mode="normal" in="SourceGraphic" in2="BackgroundImageFix" result="shape"/>
<feGaussianBlur stdDeviation="0.072936" result="effect1_foregroundBlur_472_9706"/>
</filter>
<filter id="filter10_f_472_9706" x="42.762" y="0.822486" width="25.4053" height="24.6249" filterUnits="userSpaceOnUse" color-interpolation-filters="sRGB">
<feFlood flood-opacity="0" result="BackgroundImageFix"/>
<feBlend mode="normal" in="SourceGraphic" in2="BackgroundImageFix" result="shape"/>
<feGaussianBlur stdDeviation="1.95286" result="effect1_foregroundBlur_472_9706"/>
</filter>
<filter id="filter11_f_472_9706" x="45.3658" y="3.4263" width="20.1977" height="19.4173" filterUnits="userSpaceOnUse" color-interpolation-filters="sRGB">
<feFlood flood-opacity="0" result="BackgroundImageFix"/>
<feBlend mode="normal" in="SourceGraphic" in2="BackgroundImageFix" result="shape"/>
<feGaussianBlur stdDeviation="0.650954" result="effect1_foregroundBlur_472_9706"/>
</filter>
<filter id="filter12_ddi_472_9706" x="44.9752" y="4.33764" width="20.9788" height="20.1984" filterUnits="userSpaceOnUse" color-interpolation-filters="sRGB">
<feFlood flood-opacity="0" result="BackgroundImageFix"/>
<feColorMatrix in="SourceAlpha" type="matrix" values="0 0 0 0 0 0 0 0 0 0 0 0 0 0 0 0 0 0 127 0" result="hardAlpha"/>
<feOffset dy="1.42225"/>
<feGaussianBlur stdDeviation="0.54702"/>
<feColorMatrix type="matrix" values="0 0 0 0 0 0 0 0 0 0.051 0 0 0 0 0.082 0 0 0 0.7 0"/>
<feBlend mode="multiply" in2="BackgroundImageFix" result="effect1_dropShadow_472_9706"/>
<feColorMatrix in="SourceAlpha" type="matrix" values="0 0 0 0 0 0 0 0 0 0 0 0 0 0 0 0 0 0 127 0" result="hardAlpha"/>
<feOffset dy="1.30191"/>
<feGaussianBlur stdDeviation="0.84624"/>
<feColorMatrix type="matrix" values="0 0 0 0 0 0 0 0 0 0.4 0 0 0 0 1 0 0 0 1 0"/>
<feBlend mode="color-dodge" in2="effect1_dropShadow_472_9706" result="effect2_dropShadow_472_9706"/>
<feBlend mode="normal" in="SourceGraphic" in2="effect2_dropShadow_472_9706" result="shape"/>
<feColorMatrix in="SourceAlpha" type="matrix" values="0 0 0 0 0 0 0 0 0 0 0 0 0 0 0 0 0 0 127 0" result="hardAlpha"/>
<feOffset dx="-0.142225" dy="0.284451"/>
<feGaussianBlur stdDeviation="0.0711126"/>
<feComposite in2="hardAlpha" operator="arithmetic" k2="-1" k3="1"/>
<feColorMatrix type="matrix" values="0 0 0 0 1 0 0 0 0 1 0 0 0 0 1 0 0 0 0.5 0"/>
<feBlend mode="normal" in2="shape" result="effect3_innerShadow_472_9706"/>
</filter>
<filter id="filter13_f_472_9706" x="46.4489" y="4.5094" width="18.0315" height="17.2511" filterUnits="userSpaceOnUse" color-interpolation-filters="sRGB">
<feFlood flood-opacity="0" result="BackgroundImageFix"/>
<feBlend mode="normal" in="SourceGraphic" in2="BackgroundImageFix" result="shape"/>
<feGaussianBlur stdDeviation="0.109404" result="effect1_foregroundBlur_472_9706"/>
</filter>
<filter id="filter14_f_472_9706" x="46.5219" y="4.58234" width="17.8856" height="17.1052" filterUnits="userSpaceOnUse" color-interpolation-filters="sRGB">
<feFlood flood-opacity="0" result="BackgroundImageFix"/>
<feBlend mode="normal" in="SourceGraphic" in2="BackgroundImageFix" result="shape"/>
<feGaussianBlur stdDeviation="0.072936" result="effect1_foregroundBlur_472_9706"/>
</filter>
<filter id="filter15_f_472_9706" x="63.9369" y="0.822486" width="25.4053" height="24.6249" filterUnits="userSpaceOnUse" color-interpolation-filters="sRGB">
<feFlood flood-opacity="0" result="BackgroundImageFix"/>
<feBlend mode="normal" in="SourceGraphic" in2="BackgroundImageFix" result="shape"/>
<feGaussianBlur stdDeviation="1.95286" result="effect1_foregroundBlur_472_9706"/>
</filter>
<filter id="filter16_f_472_9706" x="66.5407" y="3.4263" width="20.1977" height="19.4173" filterUnits="userSpaceOnUse" color-interpolation-filters="sRGB">
<feFlood flood-opacity="0" result="BackgroundImageFix"/>
<feBlend mode="normal" in="SourceGraphic" in2="BackgroundImageFix" result="shape"/>
<feGaussianBlur stdDeviation="0.650954" result="effect1_foregroundBlur_472_9706"/>
</filter>
<filter id="filter17_ddi_472_9706" x="66.1502" y="4.33764" width="20.9788" height="20.1984" filterUnits="userSpaceOnUse" color-interpolation-filters="sRGB">
<feFlood flood-opacity="0" result="BackgroundImageFix"/>
<feColorMatrix in="SourceAlpha" type="matrix" values="0 0 0 0 0 0 0 0 0 0 0 0 0 0 0 0 0 0 127 0" result="hardAlpha"/>
<feOffset dy="1.42225"/>
<feGaussianBlur stdDeviation="0.54702"/>
<feColorMatrix type="matrix" values="0 0 0 0 0 0 0 0 0 0.051 0 0 0 0 0.082 0 0 0 0.7 0"/>
<feBlend mode="multiply" in2="BackgroundImageFix" result="effect1_dropShadow_472_9706"/>
<feColorMatrix in="SourceAlpha" type="matrix" values="0 0 0 0 0 0 0 0 0 0 0 0 0 0 0 0 0 0 127 0" result="hardAlpha"/>
<feOffset dy="1.30191"/>
<feGaussianBlur stdDeviation="0.84624"/>
<feColorMatrix type="matrix" values="0 0 0 0 0 0 0 0 0 0.4 0 0 0 0 1 0 0 0 1 0"/>
<feBlend mode="color-dodge" in2="effect1_dropShadow_472_9706" result="effect2_dropShadow_472_9706"/>
<feBlend mode="normal" in="SourceGraphic" in2="effect2_dropShadow_472_9706" result="shape"/>
<feColorMatrix in="SourceAlpha" type="matrix" values="0 0 0 0 0 0 0 0 0 0 0 0 0 0 0 0 0 0 127 0" result="hardAlpha"/>
<feOffset dx="-0.142225" dy="0.284451"/>
<feGaussianBlur stdDeviation="0.0711126"/>
<feComposite in2="hardAlpha" operator="arithmetic" k2="-1" k3="1"/>
<feColorMatrix type="matrix" values="0 0 0 0 1 0 0 0 0 1 0 0 0 0 1 0 0 0 0.5 0"/>
<feBlend mode="normal" in2="shape" result="effect3_innerShadow_472_9706"/>
</filter>
<filter id="filter18_f_472_9706" x="67.6238" y="4.5094" width="18.0315" height="17.2511" filterUnits="userSpaceOnUse" color-interpolation-filters="sRGB">
<feFlood flood-opacity="0" result="BackgroundImageFix"/>
<feBlend mode="normal" in="SourceGraphic" in2="BackgroundImageFix" result="shape"/>
<feGaussianBlur stdDeviation="0.109404" result="effect1_foregroundBlur_472_9706"/>
</filter>
<filter id="filter19_f_472_9706" x="67.6968" y="4.58234" width="17.8856" height="17.1052" filterUnits="userSpaceOnUse" color-interpolation-filters="sRGB">
<feFlood flood-opacity="0" result="BackgroundImageFix"/>
<feBlend mode="normal" in="SourceGraphic" in2="BackgroundImageFix" result="shape"/>
<feGaussianBlur stdDeviation="0.072936" result="effect1_foregroundBlur_472_9706"/>
</filter>
</defs>
</svg>
