<svg viewBox="0 0 65 72" fill="none" xmlns="http://www.w3.org/2000/svg">
<g style="mix-blend-mode:hard-light" filter="url(#filter0_f_472_9727)">
<path d="M32.6838 8.91408L36.0816 17.3754C36.4784 18.3635 37.4058 19.0373 38.4682 19.1093L47.5653 19.7261C47.6288 19.7304 47.6587 19.7491 47.6765 19.7637C47.7001 19.7831 47.7253 19.8163 47.7404 19.8626C47.7554 19.9089 47.7545 19.9506 47.7469 19.9802C47.741 20.0025 47.7278 20.0351 47.679 20.0759L40.6818 25.9221C39.8647 26.6048 39.5104 27.695 39.7702 28.7277L41.9947 37.5702C42.0103 37.6319 42.0018 37.666 41.9934 37.6875C41.9822 37.7159 41.9584 37.7502 41.919 37.7788C41.8797 37.8074 41.8397 37.8195 41.8092 37.8213C41.7862 37.8227 41.7511 37.8202 41.6972 37.7863L33.9749 32.9382C33.0731 32.372 31.9268 32.372 31.025 32.9382L23.3027 37.7863C23.2488 37.8202 23.2136 37.8227 23.1906 37.8213C23.1602 37.8195 23.1202 37.8074 23.0808 37.7788C23.0415 37.7502 23.0176 37.7159 23.0065 37.6875C22.9981 37.666 22.9896 37.6319 23.0051 37.5702L25.2297 28.7277C25.4895 27.695 25.1352 26.6048 24.3181 25.9221L17.3209 20.0759C17.2721 20.0351 17.2588 20.0025 17.253 19.9802C17.2453 19.9506 17.2445 19.9089 17.2595 19.8626C17.2745 19.8163 17.2998 19.7831 17.3234 19.7637C17.3412 19.7491 17.3711 19.7304 17.4345 19.7261L26.5317 19.1093C27.5941 19.0373 28.5214 18.3635 28.9183 17.3754L32.3161 8.91408C32.3398 8.85502 32.3667 8.83236 32.3861 8.81994C32.4118 8.8035 32.4513 8.78977 32.4999 8.78977C32.5486 8.78977 32.588 8.8035 32.6138 8.81994C32.6332 8.83236 32.6601 8.85502 32.6838 8.91408Z" stroke="#0094FF" stroke-width="2.57589"/>
</g>
<g style="mix-blend-mode:hard-light" filter="url(#filter1_f_472_9727)">
<path d="M29.286 17.523L32.4999 9.51964L35.7139 17.523C36.1674 18.6523 37.2272 19.4224 38.4414 19.5047L47.0462 20.0881L40.4277 25.618C39.4938 26.3982 39.089 27.6442 39.3859 28.8243L41.49 37.1883L34.1856 32.6026C33.155 31.9555 31.8449 31.9555 30.8143 32.6026L23.5098 37.1883L25.614 28.8243C25.9109 27.6442 25.506 26.3982 24.5722 25.618L17.9536 20.0881L26.5585 19.5047C27.7726 19.4224 28.8325 18.6523 29.286 17.523Z" stroke="#0094FF" stroke-width="3.36847"/>
</g>
<g style="mix-blend-mode:hard-light" filter="url(#filter2_ddi_472_9727)">
<path d="M32.6838 8.91408L36.0816 17.3754C36.4784 18.3635 37.4058 19.0373 38.4682 19.1093L47.5653 19.7261C47.6288 19.7304 47.6587 19.7491 47.6765 19.7637C47.7001 19.7831 47.7253 19.8163 47.7404 19.8626C47.7554 19.9089 47.7545 19.9506 47.7469 19.9802C47.741 20.0025 47.7278 20.0351 47.679 20.0759L40.6818 25.9221C39.8647 26.6048 39.5104 27.695 39.7702 28.7277L41.9947 37.5702C42.0103 37.6319 42.0018 37.666 41.9934 37.6875C41.9822 37.7159 41.9584 37.7502 41.919 37.7788C41.8797 37.8074 41.8397 37.8195 41.8092 37.8213C41.7862 37.8227 41.7511 37.8202 41.6972 37.7863L33.9749 32.9382C33.0731 32.372 31.9268 32.372 31.025 32.9382L23.3027 37.7863C23.2488 37.8202 23.2136 37.8227 23.1906 37.8213C23.1602 37.8195 23.1202 37.8074 23.0808 37.7788C23.0415 37.7502 23.0176 37.7159 23.0065 37.6875C22.9981 37.666 22.9896 37.6319 23.0051 37.5702L25.2297 28.7277C25.4895 27.695 25.1352 26.6048 24.3181 25.9221L17.3209 20.0759C17.2721 20.0351 17.2588 20.0025 17.253 19.9802C17.2453 19.9506 17.2445 19.9089 17.2595 19.8626C17.2745 19.8163 17.2998 19.7831 17.3234 19.7637C17.3412 19.7491 17.3711 19.7304 17.4345 19.7261L26.5317 19.1093C27.5941 19.0373 28.5214 18.3635 28.9183 17.3754L32.3161 8.91408C32.3398 8.85502 32.3667 8.83236 32.3861 8.81994C32.4118 8.8035 32.4513 8.78977 32.4999 8.78977C32.5486 8.78977 32.588 8.8035 32.6138 8.81994C32.6332 8.83236 32.6601 8.85502 32.6838 8.91408Z" stroke="#00B3FF" stroke-opacity="0.2" stroke-width="2.57589"/>
</g>
<g filter="url(#filter3_f_472_9727)">
<path d="M33.1435 8.72948L36.5413 17.1908C36.8673 18.0024 37.629 18.5559 38.5017 18.6151L47.5988 19.2319C48.2225 19.2742 48.4763 20.0552 47.9966 20.456L40.9994 26.3022C40.3282 26.863 40.0372 27.7586 40.2506 28.6068L42.4751 37.4493C42.6276 38.0555 41.9633 38.5382 41.4338 38.2059L33.7115 33.3577C32.9707 32.8926 32.0291 32.8926 31.2884 33.3577L23.566 38.2059C23.0366 38.5382 22.3722 38.0555 22.5247 37.4493L24.7493 28.6068C24.9627 27.7586 24.6717 26.863 24.0005 26.3022L17.0033 20.456C16.5236 20.0552 16.7773 19.2742 17.401 19.2319L26.4982 18.6151C27.3708 18.5559 28.1326 18.0024 28.4586 17.1908L31.8564 8.72948C32.0893 8.14938 32.9105 8.14939 33.1435 8.72948Z" stroke="#82D9FF" stroke-width="1.58516"/>
</g>
<g filter="url(#filter4_f_472_9727)">
<path d="M33.5112 8.5818L36.9091 17.0431C37.1783 17.7136 37.8076 18.1708 38.5285 18.2197L47.6257 18.8365C48.6057 18.903 49.0045 20.1303 48.2507 20.7601L41.2535 26.6063C40.699 27.0696 40.4586 27.8094 40.6349 28.5101L42.8594 37.3526C43.0991 38.3053 42.0551 39.0638 41.2231 38.5415L33.5008 33.6933C32.8889 33.3092 32.111 33.3092 31.4991 33.6933L23.7768 38.5415C22.9448 39.0638 21.9008 38.3053 22.1404 37.3526L24.365 28.5101C24.5412 27.8094 24.3009 27.0696 23.7464 26.6063L16.7492 20.7601C15.9954 20.1303 16.3941 18.903 17.3742 18.8365L26.4714 18.2197C27.1923 18.1708 27.8216 17.7136 28.0908 17.0431L31.4886 8.58181C31.8547 7.67022 33.1452 7.67022 33.5112 8.5818Z" stroke="white" stroke-width="0.792581"/>
</g>
<path d="M4.499 58.717C4.02233 58.717 3.54567 58.6474 3.069 58.508C2.59233 58.3614 2.16333 58.134 1.782 57.826C1.40067 57.5107 1.089 57.1074 0.847 56.616C0.612333 56.1247 0.495 55.527 0.495 54.823C0.495 54.163 0.605 53.5837 0.825 53.085C1.045 52.5864 1.34567 52.172 1.727 51.842C2.11567 51.5047 2.57033 51.2554 3.091 51.094C3.61167 50.9254 4.17633 50.841 4.785 50.841C5.093 50.841 5.379 50.863 5.643 50.907C5.91433 50.9437 6.19667 51.0097 6.49 51.105V52.447C6.26267 52.359 6.02067 52.2857 5.764 52.227C5.51467 52.1684 5.225 52.139 4.895 52.139C4.46233 52.139 4.07367 52.205 3.729 52.337C3.39167 52.4617 3.10567 52.6414 2.871 52.876C2.63633 53.1107 2.45667 53.393 2.332 53.723C2.20733 54.0457 2.145 54.405 2.145 54.801C2.145 55.263 2.21833 55.6627 2.365 56C2.51167 56.33 2.706 56.6014 2.948 56.814C3.19 57.0194 3.46867 57.1734 3.784 57.276C4.10667 57.3714 4.44033 57.419 4.785 57.419C5.181 57.419 5.51467 57.3787 5.786 57.298C6.06467 57.21 6.29933 57.122 6.49 57.034V58.387C6.14533 58.5044 5.80433 58.5887 5.467 58.64C5.12967 58.6914 4.807 58.717 4.499 58.717ZM12.9457 52.931V58.629H11.4497V54.031H9.13971V58.629H7.64371V52.931H12.9457ZM15.6111 56.231C15.6184 56.4144 15.6587 56.5904 15.7321 56.759C15.8054 56.9277 15.9117 57.078 16.0511 57.21C16.1904 57.342 16.3627 57.4484 16.5681 57.529C16.7807 57.6024 17.0264 57.639 17.3051 57.639C17.6351 57.639 17.9467 57.606 18.2401 57.54C18.5334 57.4667 18.8157 57.3677 19.0871 57.243V58.365C18.7937 58.475 18.4784 58.563 18.1411 58.629C17.8037 58.6877 17.4627 58.717 17.1181 58.717C16.6927 58.717 16.2931 58.6584 15.9191 58.541C15.5451 58.4237 15.2187 58.244 14.9401 58.002C14.6687 57.76 14.4524 57.4557 14.2911 57.089C14.1297 56.7224 14.0491 56.286 14.0491 55.78C14.0491 55.318 14.1224 54.9074 14.2691 54.548C14.4231 54.1814 14.6284 53.8734 14.8851 53.624C15.1417 53.3674 15.4387 53.173 15.7761 53.041C16.1207 52.909 16.4837 52.843 16.8651 52.843C17.2977 52.843 17.6607 52.909 17.9541 53.041C18.2547 53.1657 18.5004 53.327 18.6911 53.525C18.8891 53.723 19.0394 53.943 19.1421 54.185C19.2521 54.4197 19.3327 54.6507 19.3841 54.878C19.4354 55.1054 19.4647 55.3107 19.4721 55.494C19.4867 55.6774 19.4941 55.8094 19.4941 55.89V56.231H15.6111ZM17.9541 55.208C17.9614 54.966 17.9284 54.7607 17.8551 54.592C17.7891 54.4234 17.6974 54.2877 17.5801 54.185C17.4627 54.075 17.3344 53.998 17.1951 53.954C17.0557 53.9027 16.9164 53.877 16.7771 53.877C16.6084 53.877 16.4544 53.9137 16.3151 53.987C16.1757 54.053 16.0547 54.1447 15.9521 54.262C15.8494 54.3794 15.7651 54.5224 15.6991 54.691C15.6404 54.8524 15.6111 55.0247 15.6111 55.208H17.9541ZM22.0948 52.931V57.529H24.4818V52.931H25.9778V57.529H26.9128V60.114H25.5378V58.629H20.5988V52.931H22.0948ZM29.2921 52.931V55.923L29.2481 56.946H29.2701L31.7231 52.931H33.3951V58.629H31.8991V55.681L31.9431 54.614H31.9101L29.3911 58.629H27.7961V52.931H29.2921ZM35.1734 53.217C35.5181 53.0777 35.8554 52.9824 36.1854 52.931C36.5154 52.8724 36.8748 52.843 37.2634 52.843C37.8428 52.843 38.2974 52.9164 38.6274 53.063C38.9648 53.2097 39.2178 53.393 39.3864 53.613C39.5551 53.833 39.6614 54.0714 39.7054 54.328C39.7568 54.5847 39.7824 54.8194 39.7824 55.032V58.629H38.3194V57.793H38.2974C38.2681 57.8517 38.2168 57.936 38.1434 58.046C38.0701 58.1487 37.9638 58.2514 37.8244 58.354C37.6851 58.4494 37.5091 58.5337 37.2964 58.607C37.0838 58.6804 36.8234 58.717 36.5154 58.717C36.1561 58.717 35.8481 58.6694 35.5914 58.574C35.3348 58.4714 35.1258 58.3394 34.9644 58.178C34.8031 58.0167 34.6821 57.8334 34.6014 57.628C34.5281 57.4154 34.4914 57.199 34.4914 56.979C34.4914 56.781 34.5244 56.572 34.5904 56.352C34.6564 56.132 34.7921 55.9304 34.9974 55.747C35.2028 55.5564 35.4888 55.4024 35.8554 55.285C36.2221 55.1604 36.7098 55.098 37.3184 55.098C37.4578 55.098 37.5971 55.1017 37.7364 55.109C37.8758 55.109 38.0151 55.109 38.1544 55.109H38.2864V54.867C38.2864 54.713 38.2498 54.5737 38.1764 54.449C38.1104 54.3244 38.0188 54.2217 37.9014 54.141C37.7841 54.0604 37.6448 53.998 37.4834 53.954C37.3294 53.91 37.1681 53.888 36.9994 53.888C36.7501 53.888 36.4788 53.921 36.1854 53.987C35.8921 54.0457 35.5548 54.1814 35.1734 54.394V53.217ZM38.0334 56.044C37.8281 56.044 37.6044 56.0514 37.3624 56.066C37.1278 56.0734 36.9078 56.1064 36.7024 56.165C36.5044 56.2237 36.3394 56.3154 36.2074 56.44C36.0754 56.5647 36.0094 56.7407 36.0094 56.968C36.0094 57.1734 36.0791 57.3494 36.2184 57.496C36.3578 57.6354 36.5924 57.705 36.9224 57.705C37.0764 57.705 37.2341 57.683 37.3954 57.639C37.5568 57.595 37.7034 57.518 37.8354 57.408C37.9674 57.298 38.0738 57.144 38.1544 56.946C38.2424 56.748 38.2864 56.495 38.2864 56.187V56.044H38.0334ZM41.0936 58.717C40.9909 58.717 40.8846 58.706 40.7746 58.684C40.6646 58.6694 40.5693 58.651 40.4886 58.629V57.485C40.5473 57.4997 40.6059 57.5107 40.6646 57.518C40.7233 57.5254 40.7746 57.529 40.8186 57.529C40.9213 57.529 41.0166 57.496 41.1046 57.43C41.1999 57.364 41.2806 57.2174 41.3466 56.99C41.4126 56.7627 41.4639 56.4327 41.5006 56C41.5446 55.56 41.5666 54.9697 41.5666 54.229V52.931H46.1536V58.629H44.6576V54.031H42.8976V54.229C42.8976 55.1897 42.8573 55.9634 42.7766 56.55C42.6959 57.1367 42.5786 57.5914 42.4246 57.914C42.2706 58.2294 42.0799 58.442 41.8526 58.552C41.6326 58.662 41.3796 58.717 41.0936 58.717ZM49.0792 52.931V55.923L49.0352 56.946H49.0572L51.5102 52.931H53.1822V58.629H51.6862V55.681L51.7302 54.614H51.6972L49.1782 58.629H47.5832V52.931H49.0792ZM57.2486 58.717C56.7426 58.717 56.3026 58.6327 55.9286 58.464C55.5546 58.2954 55.2429 58.0717 54.9936 57.793C54.7516 57.507 54.5719 57.1844 54.4546 56.825C54.3372 56.4657 54.2786 56.099 54.2786 55.725C54.2786 55.3437 54.3446 54.9807 54.4766 54.636C54.6086 54.284 54.8029 53.976 55.0596 53.712C55.3162 53.448 55.6352 53.239 56.0166 53.085C56.4052 52.9237 56.8526 52.843 57.3586 52.843C57.5492 52.843 57.7546 52.854 57.9746 52.876C58.1946 52.898 58.4109 52.9384 58.6236 52.997V54.108C58.4842 54.0494 58.3339 54.0054 58.1726 53.976C58.0186 53.9394 57.8316 53.921 57.6116 53.921C57.3622 53.921 57.1276 53.965 56.9076 54.053C56.6949 54.141 56.5079 54.2694 56.3466 54.438C56.1926 54.5994 56.0679 54.7974 55.9726 55.032C55.8846 55.2594 55.8406 55.516 55.8406 55.802C55.8406 56.0587 55.8772 56.3007 55.9506 56.528C56.0312 56.748 56.1412 56.9424 56.2806 57.111C56.4272 57.2724 56.6032 57.4007 56.8086 57.496C57.0139 57.5914 57.2486 57.639 57.5126 57.639C57.9159 57.639 58.3156 57.5547 58.7116 57.386V58.497C58.5722 58.541 58.3742 58.5887 58.1176 58.64C57.8682 58.6914 57.5786 58.717 57.2486 58.717ZM64.0479 52.931V54.031H62.2659V58.629H60.7699V54.031H58.9879V52.931H64.0479Z" fill="#0094FF"/>
<defs>
<filter id="filter0_f_472_9727" x="8.88581" y="0.428046" width="47.2283" height="45.7552" filterUnits="userSpaceOnUse" color-interpolation-filters="sRGB">
<feFlood flood-opacity="0" result="BackgroundImageFix"/>
<feBlend mode="normal" in="SourceGraphic" in2="BackgroundImageFix" result="shape"/>
<feGaussianBlur stdDeviation="3.53689" result="effect1_foregroundBlur_472_9727"/>
</filter>
<filter id="filter1_f_472_9727" x="13.6017" y="5.1439" width="37.7965" height="36.3235" filterUnits="userSpaceOnUse" color-interpolation-filters="sRGB">
<feFlood flood-opacity="0" result="BackgroundImageFix"/>
<feBlend mode="normal" in="SourceGraphic" in2="BackgroundImageFix" result="shape"/>
<feGaussianBlur stdDeviation="1.17896" result="effect1_foregroundBlur_472_9727"/>
</filter>
<filter id="filter2_ddi_472_9727" x="12.8943" y="6.79445" width="39.2113" height="37.7383" filterUnits="userSpaceOnUse" color-interpolation-filters="sRGB">
<feFlood flood-opacity="0" result="BackgroundImageFix"/>
<feColorMatrix in="SourceAlpha" type="matrix" values="0 0 0 0 0 0 0 0 0 0 0 0 0 0 0 0 0 0 127 0" result="hardAlpha"/>
<feOffset dy="2.57589"/>
<feGaussianBlur stdDeviation="0.990726"/>
<feColorMatrix type="matrix" values="0 0 0 0 0 0 0 0 0 0.051 0 0 0 0 0.082 0 0 0 0.7 0"/>
<feBlend mode="multiply" in2="BackgroundImageFix" result="effect1_dropShadow_472_9727"/>
<feColorMatrix in="SourceAlpha" type="matrix" values="0 0 0 0 0 0 0 0 0 0 0 0 0 0 0 0 0 0 127 0" result="hardAlpha"/>
<feOffset dy="2.35793"/>
<feGaussianBlur stdDeviation="1.53265"/>
<feColorMatrix type="matrix" values="0 0 0 0 0 0 0 0 0 0.4 0 0 0 0 1 0 0 0 1 0"/>
<feBlend mode="color-dodge" in2="effect1_dropShadow_472_9727" result="effect2_dropShadow_472_9727"/>
<feBlend mode="normal" in="SourceGraphic" in2="effect2_dropShadow_472_9727" result="shape"/>
<feColorMatrix in="SourceAlpha" type="matrix" values="0 0 0 0 0 0 0 0 0 0 0 0 0 0 0 0 0 0 127 0" result="hardAlpha"/>
<feOffset dx="-0.257589" dy="0.515177"/>
<feGaussianBlur stdDeviation="0.128794"/>
<feComposite in2="hardAlpha" operator="arithmetic" k2="-1" k3="1"/>
<feColorMatrix type="matrix" values="0 0 0 0 1 0 0 0 0 1 0 0 0 0 1 0 0 0 0.5 0"/>
<feBlend mode="normal" in2="shape" result="effect3_innerShadow_472_9727"/>
</filter>
<filter id="filter3_f_472_9727" x="15.5633" y="7.10554" width="33.8733" height="32.4003" filterUnits="userSpaceOnUse" color-interpolation-filters="sRGB">
<feFlood flood-opacity="0" result="BackgroundImageFix"/>
<feBlend mode="normal" in="SourceGraphic" in2="BackgroundImageFix" result="shape"/>
<feGaussianBlur stdDeviation="0.198145" result="effect1_foregroundBlur_472_9727"/>
</filter>
<filter id="filter4_f_472_9727" x="15.6954" y="7.23763" width="33.6091" height="32.1361" filterUnits="userSpaceOnUse" color-interpolation-filters="sRGB">
<feFlood flood-opacity="0" result="BackgroundImageFix"/>
<feBlend mode="normal" in="SourceGraphic" in2="BackgroundImageFix" result="shape"/>
<feGaussianBlur stdDeviation="0.132097" result="effect1_foregroundBlur_472_9727"/>
</filter>
</defs>
</svg>
