<svg viewBox="0 0 394 395" fill="none" xmlns="http://www.w3.org/2000/svg">
<g filter="url(#filter0_f_527_7179)">
<g style="mix-blend-mode:hard-light" filter="url(#filter1_f_527_7179)">
<path d="M161.614 121.997C161.804 115.443 169.887 112.465 174.284 117.33L200.501 146.345C205.567 151.952 213.395 154.164 220.646 152.038L258.171 141.034C264.464 139.189 269.793 145.957 266.525 151.642L247.031 185.542C243.265 192.093 243.58 200.221 247.843 206.46L269.904 238.748C273.603 244.163 268.813 251.323 262.397 249.971L224.132 241.908C216.738 240.35 209.105 243.161 204.489 249.143L180.598 280.102C176.591 285.293 168.301 282.951 167.604 276.431L163.449 237.547C162.646 230.033 157.613 223.643 150.497 221.101L113.671 207.946C107.495 205.74 107.161 197.132 113.147 194.454L148.844 178.486C155.741 175.401 160.264 168.639 160.483 161.086L161.614 121.997Z" stroke="#0094FF" stroke-width="12.4101"/>
</g>
<g style="mix-blend-mode:hard-light" filter="url(#filter2_f_527_7179)">
<path d="M163.522 122.053C163.662 117.218 169.624 115.022 172.867 118.61L199.084 147.625C204.642 153.776 213.229 156.202 221.183 153.87L258.708 142.866C263.349 141.505 267.28 146.497 264.869 150.69L245.376 184.59C241.244 191.776 241.59 200.693 246.266 207.537L268.327 239.825C271.056 243.819 267.523 249.1 262.79 248.103L224.525 240.039C216.415 238.33 208.041 241.415 202.977 247.977L179.086 278.936C176.131 282.765 170.017 281.037 169.503 276.228L165.347 237.344C164.466 229.102 158.945 222.091 151.139 219.303L114.313 206.148C109.758 204.521 109.512 198.172 113.927 196.197L149.624 180.229C157.19 176.844 162.151 169.427 162.391 161.142L163.522 122.053Z" stroke="#0094FF" stroke-width="16.2286"/>
</g>
<g style="mix-blend-mode:hard-light" filter="url(#filter3_ddi_527_7179)">
<path d="M161.614 121.997C161.804 115.443 169.887 112.465 174.284 117.33L200.501 146.345C205.567 151.952 213.395 154.164 220.646 152.038L258.171 141.034C264.464 139.189 269.793 145.957 266.525 151.642L247.031 185.542C243.265 192.093 243.58 200.221 247.843 206.46L269.904 238.748C273.603 244.163 268.813 251.323 262.397 249.971L224.132 241.908C216.738 240.35 209.105 243.161 204.489 249.143L180.598 280.102C176.591 285.293 168.301 282.951 167.604 276.431L163.449 237.547C162.646 230.033 157.613 223.643 150.497 221.101L113.671 207.946C107.495 205.74 107.161 197.132 113.147 194.454L148.844 178.486C155.741 175.401 160.264 168.639 160.483 161.086L161.614 121.997Z" stroke="#00B3FF" stroke-opacity="0.2" stroke-width="12.4101"/>
</g>
<g filter="url(#filter4_f_527_7179)">
<path d="M159.228 121.928C159.48 113.223 170.216 109.269 176.054 115.73L202.272 144.745C206.723 149.672 213.602 151.616 219.974 149.748L257.499 138.744C265.856 136.294 272.935 145.282 268.594 152.831L249.1 186.732C245.79 192.488 246.067 199.631 249.813 205.113L271.874 237.402C276.787 244.593 270.426 254.102 261.905 252.306L223.64 244.243C217.142 242.874 210.435 245.345 206.378 250.601L182.487 281.56C177.166 288.455 166.157 285.344 165.231 276.684L161.076 237.8C160.37 231.198 155.947 225.582 149.694 223.348L112.868 210.193C104.667 207.264 104.223 195.832 112.173 192.276L147.869 176.307C153.931 173.596 157.905 167.655 158.097 161.017L159.228 121.928Z" stroke="#82D9FF" stroke-width="7.63698"/>
</g>
<g filter="url(#filter5_f_527_7179)">
<path d="M157.319 120.873C157.621 110.448 170.478 105.712 177.47 113.45L203.688 142.465C207.648 146.848 213.768 148.578 219.436 146.915L256.962 135.912C266.97 132.977 275.447 143.742 270.248 152.783L250.755 186.684C247.81 191.804 248.057 198.159 251.389 203.036L273.45 235.325C279.334 243.937 271.716 255.325 261.51 253.175L223.245 245.111C217.465 243.893 211.498 246.091 207.889 250.768L183.998 281.726C177.626 289.984 164.441 286.258 163.332 275.887L159.177 237.003C158.549 231.13 154.614 226.133 149.051 224.146L112.225 210.991C102.403 207.483 101.872 193.792 111.393 189.533L147.089 173.565C152.482 171.153 156.017 165.867 156.188 159.962L157.319 120.873Z" stroke="white" stroke-width="3.81849"/>
</g>
</g>
<defs>
<filter id="filter0_f_527_7179" x="0.159668" y="0.334961" width="393.263" height="394.262" filterUnits="userSpaceOnUse" color-interpolation-filters="sRGB">
<feFlood flood-opacity="0" result="BackgroundImageFix"/>
<feBlend mode="normal" in="SourceGraphic" in2="BackgroundImageFix" result="shape"/>
<feGaussianBlur stdDeviation="4" result="effect1_foregroundBlur_527_7179"/>
</filter>
<filter id="filter1_f_527_7179" x="62.5436" y="68.61" width="254.97" height="260.637" filterUnits="userSpaceOnUse" color-interpolation-filters="sRGB">
<feFlood flood-opacity="0" result="BackgroundImageFix"/>
<feBlend mode="normal" in="SourceGraphic" in2="BackgroundImageFix" result="shape"/>
<feGaussianBlur stdDeviation="20.0471" result="effect1_foregroundBlur_527_7179"/>
</filter>
<filter id="filter2_f_527_7179" x="89.273" y="95.3394" width="201.512" height="207.179" filterUnits="userSpaceOnUse" color-interpolation-filters="sRGB">
<feFlood flood-opacity="0" result="BackgroundImageFix"/>
<feBlend mode="normal" in="SourceGraphic" in2="BackgroundImageFix" result="shape"/>
<feGaussianBlur stdDeviation="6.68235" result="effect1_foregroundBlur_527_7179"/>
</filter>
<filter id="filter3_ddi_527_7179" x="85.2636" y="104.695" width="209.53" height="215.197" filterUnits="userSpaceOnUse" color-interpolation-filters="sRGB">
<feFlood flood-opacity="0" result="BackgroundImageFix"/>
<feColorMatrix in="SourceAlpha" type="matrix" values="0 0 0 0 0 0 0 0 0 0 0 0 0 0 0 0 0 0 127 0" result="hardAlpha"/>
<feOffset dy="12.4101"/>
<feGaussianBlur stdDeviation="4.77311"/>
<feColorMatrix type="matrix" values="0 0 0 0 0 0 0 0 0 0.051 0 0 0 0 0.082 0 0 0 0.7 0"/>
<feBlend mode="multiply" in2="BackgroundImageFix" result="effect1_dropShadow_527_7179"/>
<feColorMatrix in="SourceAlpha" type="matrix" values="0 0 0 0 0 0 0 0 0 0 0 0 0 0 0 0 0 0 127 0" result="hardAlpha"/>
<feOffset dy="13.3647"/>
<feGaussianBlur stdDeviation="8.68706"/>
<feColorMatrix type="matrix" values="0 0 0 0 0 0 0 0 0 0.4 0 0 0 0 1 0 0 0 1 0"/>
<feBlend mode="color-dodge" in2="effect1_dropShadow_527_7179" result="effect2_dropShadow_527_7179"/>
<feBlend mode="normal" in="SourceGraphic" in2="effect2_dropShadow_527_7179" result="shape"/>
<feColorMatrix in="SourceAlpha" type="matrix" values="0 0 0 0 0 0 0 0 0 0 0 0 0 0 0 0 0 0 127 0" result="hardAlpha"/>
<feOffset dx="-1.24101" dy="2.48202"/>
<feGaussianBlur stdDeviation="0.620504"/>
<feComposite in2="hardAlpha" operator="arithmetic" k2="-1" k3="1"/>
<feColorMatrix type="matrix" values="0 0 0 0 1 0 0 0 0 1 0 0 0 0 1 0 0 0 0.5 0"/>
<feBlend mode="normal" in2="shape" result="effect3_innerShadow_527_7179"/>
</filter>
<filter id="filter4_f_527_7179" x="100.728" y="106.795" width="178.601" height="184.268" filterUnits="userSpaceOnUse" color-interpolation-filters="sRGB">
<feFlood flood-opacity="0" result="BackgroundImageFix"/>
<feBlend mode="normal" in="SourceGraphic" in2="BackgroundImageFix" result="shape"/>
<feGaussianBlur stdDeviation="0.954622" result="effect1_foregroundBlur_527_7179"/>
</filter>
<filter id="filter5_f_527_7179" x="101.364" y="106.431" width="177.328" height="182.995" filterUnits="userSpaceOnUse" color-interpolation-filters="sRGB">
<feFlood flood-opacity="0" result="BackgroundImageFix"/>
<feBlend mode="normal" in="SourceGraphic" in2="BackgroundImageFix" result="shape"/>
<feGaussianBlur stdDeviation="0.636415" result="effect1_foregroundBlur_527_7179"/>
</filter>
</defs>
</svg>
