<svg viewBox="0 0 486 498" fill="none" xmlns="http://www.w3.org/2000/svg">
<g filter="url(#filter0_f_527_7195)">
<g style="mix-blend-mode:hard-light" filter="url(#filter1_f_527_7195)">
<path d="M210.48 345.505L188.888 273.096C182.657 252.2 161.908 239.942 142.543 245.716C124.862 186.423 157.14 133.748 207.383 118.766C257.625 103.784 311.063 130.9 328.743 190.193L325.116 191.275C305.751 197.05 295.103 218.67 301.334 239.566L322.926 311.975C325.289 319.901 333.16 324.55 340.505 322.36L366.803 314.518C367.972 314.17 369.201 314.835 369.55 316.003L372.226 324.977C373.945 330.741 371.007 336.706 365.665 338.299L327.579 349.656C326.577 349.954 325.512 349.315 325.096 348.267C321.128 338.288 310.733 332.658 300.994 335.562L271.371 344.396C261.021 347.482 255.33 359.038 258.66 370.206L264.885 391.081C268.215 402.249 279.305 408.801 289.656 405.715L319.279 396.882C329.018 393.977 334.632 383.574 332.486 373.051C332.261 371.947 332.802 370.829 333.803 370.53L372.494 358.993C387.853 354.413 396.297 337.266 391.356 320.693L388.127 309.865C387.553 307.94 388.327 305.887 389.913 304.655C404.537 293.289 411.269 272.676 405.286 252.609L395.754 220.645C389.949 201.177 373.848 187.833 356.035 185.685L355.015 185.575C333.161 112.288 264.967 71.0507 199.018 90.7159C133.07 110.381 96.6276 181.147 118.481 254.435L117.102 255.331C100.964 266.278 93.2491 287.928 99.5258 308.977L109.057 340.941C116.685 366.521 142.085 381.527 165.791 374.458L201.459 363.822C208.805 361.632 212.843 353.431 210.48 345.505Z" stroke="#0094FF" stroke-width="14.7664"/>
</g>
<g style="mix-blend-mode:hard-light" filter="url(#filter2_f_527_7195)">
<path d="M210.48 345.505L188.888 273.096C182.657 252.2 161.908 239.942 142.543 245.716C124.862 186.423 157.14 133.748 207.383 118.766C257.625 103.784 311.063 130.9 328.743 190.193L325.116 191.275C305.751 197.05 295.103 218.67 301.334 239.566L322.926 311.975C325.289 319.901 333.16 324.55 340.505 322.36L366.803 314.518C367.972 314.17 369.201 314.835 369.55 316.003L372.226 324.977C373.945 330.741 371.007 336.706 365.665 338.299L327.579 349.656C326.577 349.954 325.512 349.315 325.096 348.267C321.128 338.288 310.733 332.658 300.994 335.562L271.371 344.396C261.021 347.482 255.33 359.038 258.66 370.206L264.885 391.081C268.215 402.249 279.305 408.801 289.656 405.715L319.279 396.882C329.018 393.977 334.632 383.574 332.486 373.051C332.261 371.947 332.802 370.829 333.803 370.53L372.494 358.993C387.853 354.413 396.297 337.266 391.356 320.693L388.127 309.865C387.553 307.94 388.327 305.887 389.913 304.655C404.537 293.289 411.269 272.676 405.286 252.609L395.754 220.645C389.949 201.177 373.848 187.833 356.035 185.685L355.015 185.575C333.161 112.288 264.967 71.0507 199.018 90.7159C133.07 110.381 96.6276 181.147 118.481 254.435L117.102 255.331C100.964 266.278 93.2491 287.928 99.5258 308.977L109.057 340.941C116.685 366.521 142.085 381.527 165.791 374.458L201.459 363.822C208.805 361.632 212.843 353.431 210.48 345.505Z" stroke="#0094FF" stroke-width="19.3099"/>
</g>
<g style="mix-blend-mode:hard-light" filter="url(#filter3_ddi_527_7195)">
<path d="M210.48 345.505L188.888 273.096C182.657 252.2 161.908 239.942 142.543 245.716C124.862 186.423 157.14 133.748 207.383 118.766C257.625 103.784 311.063 130.9 328.743 190.193L325.116 191.275C305.751 197.05 295.103 218.67 301.334 239.566L322.926 311.975C325.289 319.901 333.16 324.55 340.505 322.36L366.803 314.518C367.972 314.17 369.201 314.835 369.55 316.003L372.226 324.977C373.945 330.741 371.007 336.706 365.665 338.299L327.579 349.656C326.577 349.954 325.512 349.315 325.096 348.267C321.128 338.288 310.733 332.658 300.994 335.562L271.371 344.396C261.021 347.482 255.33 359.038 258.66 370.206L264.885 391.081C268.215 402.249 279.305 408.801 289.656 405.715L319.279 396.882C329.018 393.977 334.632 383.574 332.486 373.051C332.261 371.947 332.802 370.829 333.803 370.53L372.494 358.993C387.853 354.413 396.297 337.266 391.356 320.693L388.127 309.865C387.553 307.94 388.327 305.887 389.913 304.655C404.537 293.289 411.269 272.676 405.286 252.609L395.754 220.645C389.949 201.177 373.848 187.833 356.035 185.685L355.015 185.575C333.161 112.288 264.967 71.0507 199.018 90.7159C133.07 110.381 96.6276 181.147 118.481 254.435L117.102 255.331C100.964 266.278 93.2491 287.928 99.5258 308.977L109.057 340.941C116.685 366.521 142.085 381.527 165.791 374.458L201.459 363.822C208.805 361.632 212.843 353.431 210.48 345.505Z" stroke="#00B3FF" stroke-opacity="0.2" stroke-width="14.7664"/>
</g>
<g filter="url(#filter4_f_527_7195)">
<path d="M210.48 345.505L188.888 273.096C182.657 252.2 161.908 239.942 142.543 245.716C124.862 186.423 157.14 133.748 207.383 118.766C257.625 103.784 311.063 130.9 328.743 190.193L325.116 191.275C305.751 197.05 295.103 218.67 301.334 239.566L322.926 311.975C325.289 319.901 333.16 324.55 340.505 322.36L366.803 314.518C367.972 314.17 369.201 314.835 369.55 316.003L372.226 324.977C373.945 330.741 371.007 336.706 365.665 338.299L327.579 349.656C326.577 349.954 325.512 349.315 325.096 348.267C321.128 338.288 310.733 332.658 300.994 335.562L271.371 344.396C261.021 347.482 255.33 359.038 258.66 370.206L264.885 391.081C268.215 402.249 279.305 408.801 289.656 405.715L319.279 396.882C329.018 393.977 334.632 383.574 332.486 373.051C332.261 371.947 332.802 370.829 333.803 370.53L372.494 358.993C387.853 354.413 396.297 337.266 391.356 320.693L388.127 309.865C387.553 307.94 388.327 305.887 389.913 304.655C404.537 293.289 411.269 272.676 405.286 252.609L395.754 220.645C389.949 201.177 373.848 187.833 356.035 185.685L355.015 185.575C333.161 112.288 264.967 71.0507 199.018 90.7159C133.07 110.381 96.6276 181.147 118.481 254.435L117.102 255.331C100.964 266.278 93.2491 287.928 99.5258 308.977L109.057 340.941C116.685 366.521 142.085 381.527 165.791 374.458L201.459 363.822C208.805 361.632 212.843 353.431 210.48 345.505Z" stroke="#82D9FF" stroke-width="9.087"/>
</g>
<g filter="url(#filter5_f_527_7195)">
<path d="M210.48 345.505L188.888 273.096C182.657 252.2 161.908 239.942 142.543 245.716C124.862 186.423 157.14 133.748 207.383 118.766C257.625 103.784 311.063 130.9 328.743 190.193L325.116 191.275C305.751 197.05 295.103 218.67 301.334 239.566L322.926 311.975C325.289 319.901 333.16 324.55 340.505 322.36L366.803 314.518C367.972 314.17 369.201 314.835 369.55 316.003L372.226 324.977C373.945 330.741 371.007 336.706 365.665 338.299L327.579 349.656C326.577 349.954 325.512 349.315 325.096 348.267C321.128 338.288 310.733 332.658 300.994 335.562L271.371 344.396C261.021 347.482 255.33 359.038 258.66 370.206L264.885 391.081C268.215 402.249 279.305 408.801 289.656 405.715L319.279 396.882C329.018 393.977 334.632 383.574 332.486 373.051C332.261 371.947 332.802 370.829 333.803 370.53L372.494 358.993C387.853 354.413 396.297 337.266 391.356 320.693L388.127 309.865C387.553 307.94 388.327 305.887 389.913 304.655C404.537 293.289 411.269 272.676 405.286 252.609L395.754 220.645C389.949 201.177 373.848 187.833 356.035 185.685L355.015 185.575C333.161 112.288 264.967 71.0507 199.018 90.7159C133.07 110.381 96.6276 181.147 118.481 254.435L117.102 255.331C100.964 266.278 93.2491 287.928 99.5258 308.977L109.057 340.941C116.685 366.521 142.085 381.527 165.791 374.458L201.459 363.822C208.805 361.632 212.843 353.431 210.48 345.505Z" stroke="white" stroke-width="4.5435"/>
</g>
</g>
<defs>
<filter id="filter0_f_527_7195" x="0.55957" y="0.128906" width="484.532" height="497.073" filterUnits="userSpaceOnUse" color-interpolation-filters="sRGB">
<feFlood flood-opacity="0" result="BackgroundImageFix"/>
<feBlend mode="normal" in="SourceGraphic" in2="BackgroundImageFix" result="shape"/>
<feGaussianBlur stdDeviation="5" result="effect1_foregroundBlur_527_7195"/>
</filter>
<filter id="filter1_f_527_7195" x="21.8143" y="10.2684" width="461.184" height="471.761" filterUnits="userSpaceOnUse" color-interpolation-filters="sRGB">
<feFlood flood-opacity="0" result="BackgroundImageFix"/>
<feBlend mode="normal" in="SourceGraphic" in2="BackgroundImageFix" result="shape"/>
<feGaussianBlur stdDeviation="34.0763" result="effect1_foregroundBlur_527_7195"/>
</filter>
<filter id="filter2_f_527_7195" x="64.9788" y="53.4261" width="374.855" height="385.445" filterUnits="userSpaceOnUse" color-interpolation-filters="sRGB">
<feFlood flood-opacity="0" result="BackgroundImageFix"/>
<feBlend mode="normal" in="SourceGraphic" in2="BackgroundImageFix" result="shape"/>
<feGaussianBlur stdDeviation="11.3588" result="effect1_foregroundBlur_527_7195"/>
</filter>
<filter id="filter3_ddi_527_7195" x="60.434" y="71.6056" width="383.944" height="394.522" filterUnits="userSpaceOnUse" color-interpolation-filters="sRGB">
<feFlood flood-opacity="0" result="BackgroundImageFix"/>
<feColorMatrix in="SourceAlpha" type="matrix" values="0 0 0 0 0 0 0 0 0 0 0 0 0 0 0 0 0 0 127 0" result="hardAlpha"/>
<feOffset dy="14.7664"/>
<feGaussianBlur stdDeviation="5.67938"/>
<feColorMatrix type="matrix" values="0 0 0 0 0 0 0 0 0 0.051 0 0 0 0 0.082 0 0 0 0.7 0"/>
<feBlend mode="multiply" in2="BackgroundImageFix" result="effect1_dropShadow_527_7195"/>
<feColorMatrix in="SourceAlpha" type="matrix" values="0 0 0 0 0 0 0 0 0 0 0 0 0 0 0 0 0 0 127 0" result="hardAlpha"/>
<feOffset dy="22.7175"/>
<feGaussianBlur stdDeviation="14.7664"/>
<feColorMatrix type="matrix" values="0 0 0 0 0 0 0 0 0 0.4 0 0 0 0 1 0 0 0 1 0"/>
<feBlend mode="color-dodge" in2="effect1_dropShadow_527_7195" result="effect2_dropShadow_527_7195"/>
<feBlend mode="normal" in="SourceGraphic" in2="effect2_dropShadow_527_7195" result="shape"/>
<feColorMatrix in="SourceAlpha" type="matrix" values="0 0 0 0 0 0 0 0 0 0 0 0 0 0 0 0 0 0 127 0" result="hardAlpha"/>
<feOffset dx="-1.47664" dy="2.95328"/>
<feGaussianBlur stdDeviation="0.738319"/>
<feComposite in2="hardAlpha" operator="arithmetic" k2="-1" k3="1"/>
<feColorMatrix type="matrix" values="0 0 0 0 1 0 0 0 0 1 0 0 0 0 1 0 0 0 0.5 0"/>
<feBlend mode="normal" in2="shape" result="effect3_innerShadow_527_7195"/>
</filter>
<filter id="filter4_f_527_7195" x="90.5334" y="78.9968" width="323.745" height="334.306" filterUnits="userSpaceOnUse" color-interpolation-filters="sRGB">
<feFlood flood-opacity="0" result="BackgroundImageFix"/>
<feBlend mode="normal" in="SourceGraphic" in2="BackgroundImageFix" result="shape"/>
<feGaussianBlur stdDeviation="1.13588" result="effect1_foregroundBlur_527_7195"/>
</filter>
<filter id="filter5_f_527_7195" x="93.5612" y="82.0324" width="317.689" height="328.237" filterUnits="userSpaceOnUse" color-interpolation-filters="sRGB">
<feFlood flood-opacity="0" result="BackgroundImageFix"/>
<feBlend mode="normal" in="SourceGraphic" in2="BackgroundImageFix" result="shape"/>
<feGaussianBlur stdDeviation="0.75725" result="effect1_foregroundBlur_527_7195"/>
</filter>
</defs>
</svg>
