<svg viewBox="0 0 344 347" fill="none" xmlns="http://www.w3.org/2000/svg">
<g filter="url(#filter0_f_617_9269)">
<g style="mix-blend-mode:hard-light" filter="url(#filter1_f_617_9269)">
<path d="M169.905 76.906C171.661 72.533 177.851 72.533 179.608 76.906L202.478 133.859C203.226 135.721 204.974 136.991 206.976 137.126L268.208 141.278C272.91 141.597 274.823 147.485 271.207 150.506L224.109 189.857C222.569 191.143 221.901 193.198 222.391 195.144L237.364 254.663C238.514 259.233 233.506 262.871 229.515 260.366L177.536 227.733C175.836 226.666 173.676 226.666 171.977 227.733L119.998 260.366C116.007 262.871 110.999 259.233 112.148 254.663L127.122 195.144C127.611 193.198 126.944 191.143 125.404 189.857L78.3058 150.506C74.6896 147.485 76.6025 141.597 81.3041 141.278L142.537 137.126C144.539 136.991 146.287 135.721 147.034 133.859L169.905 76.906Z" fill="#0094FF" fill-opacity="0.5"/>
<path d="M229.337 106.174L255.249 78.0569M255.249 207.066L289.983 220.849M174.756 259.993V294.175M93.1605 202.656L54.0166 213.682M123.483 106.174L93.1605 78.0569M142.537 137.126L81.3041 141.278C76.6025 141.597 74.6896 147.485 78.3058 150.506L125.404 189.857C126.944 191.143 127.611 193.198 127.122 195.144L112.148 254.663C110.999 259.233 116.007 262.871 119.998 260.366L171.977 227.733C173.676 226.666 175.836 226.666 177.536 227.733L229.515 260.366C233.506 262.871 238.514 259.233 237.364 254.663L222.391 195.144C221.901 193.198 222.569 191.143 224.109 189.857L271.207 150.506C274.823 147.485 272.91 141.597 268.208 141.278L206.976 137.126C204.974 136.991 203.226 135.721 202.478 133.859L179.608 76.906C177.851 72.533 171.661 72.533 169.905 76.906L147.034 133.859C146.287 135.721 144.539 136.991 142.537 137.126Z" stroke="#0094FF" stroke-width="8.67602" stroke-linecap="round" stroke-linejoin="round"/>
</g>
<g style="mix-blend-mode:hard-light" filter="url(#filter2_f_617_9269)">
<path d="M229.338 106.174L255.25 78.0569M255.25 207.066L289.983 220.849M174.757 259.993V294.175M93.161 202.656L54.0171 213.682M123.484 106.174L93.161 78.0569M142.537 137.126L81.3046 141.278C76.603 141.597 74.69 147.485 78.3063 150.506L125.404 189.857C126.944 191.143 127.612 193.198 127.122 195.144L112.149 254.663C110.999 259.233 116.007 262.871 119.998 260.366L171.977 227.733C173.677 226.666 175.837 226.666 177.536 227.733L229.515 260.366C233.506 262.871 238.514 259.233 237.365 254.663L222.391 195.144C221.902 193.198 222.569 191.143 224.109 189.857L271.207 150.506C274.823 147.485 272.91 141.597 268.209 141.278L206.976 137.126C204.974 136.991 203.226 135.721 202.479 133.859L179.608 76.906C177.852 72.533 171.661 72.533 169.905 76.906L147.035 133.859C146.287 135.721 144.539 136.991 142.537 137.126Z" stroke="#0094FF" stroke-width="11.3456" stroke-linecap="round" stroke-linejoin="round"/>
</g>
<g style="mix-blend-mode:hard-light" filter="url(#filter3_ddi_617_9269)">
<path d="M229.338 106.174L255.25 78.0569M255.25 207.066L289.983 220.849M174.757 259.993V294.175M93.161 202.656L54.0171 213.682M123.484 106.174L93.161 78.0569M142.537 137.126L81.3046 141.278C76.603 141.597 74.69 147.485 78.3063 150.506L125.404 189.857C126.944 191.143 127.612 193.198 127.122 195.144L112.149 254.663C110.999 259.233 116.007 262.871 119.998 260.366L171.977 227.733C173.677 226.666 175.837 226.666 177.536 227.733L229.515 260.366C233.506 262.871 238.514 259.233 237.365 254.663L222.391 195.144C221.902 193.198 222.569 191.143 224.109 189.857L271.207 150.506C274.823 147.485 272.91 141.597 268.209 141.278L206.976 137.126C204.974 136.991 203.226 135.721 202.479 133.859L179.608 76.906C177.852 72.533 171.661 72.533 169.905 76.906L147.035 133.859C146.287 135.721 144.539 136.991 142.537 137.126Z" stroke="#00B3FF" stroke-opacity="0.2" stroke-width="8.67602" stroke-linecap="round" stroke-linejoin="round"/>
</g>
<g filter="url(#filter4_f_617_9269)">
<path d="M229.338 106.174L255.25 78.0569M255.25 207.066L289.983 220.849M174.757 259.993V294.175M93.161 202.656L54.0171 213.682M123.484 106.174L93.161 78.0569M142.537 137.126L81.3046 141.278C76.603 141.597 74.69 147.485 78.3063 150.506L125.404 189.857C126.944 191.143 127.612 193.198 127.122 195.144L112.149 254.663C110.999 259.233 116.007 262.871 119.998 260.366L171.977 227.733C173.677 226.666 175.837 226.666 177.536 227.733L229.515 260.366C233.506 262.871 238.514 259.233 237.365 254.663L222.391 195.144C221.902 193.198 222.569 191.143 224.109 189.857L271.207 150.506C274.823 147.485 272.91 141.597 268.209 141.278L206.976 137.126C204.974 136.991 203.226 135.721 202.479 133.859L179.608 76.906C177.852 72.533 171.661 72.533 169.905 76.906L147.035 133.859C146.287 135.721 144.539 136.991 142.537 137.126Z" stroke="#82D9FF" stroke-width="5.33909" stroke-linecap="round" stroke-linejoin="round"/>
</g>
<g filter="url(#filter5_f_617_9269)">
<path d="M229.338 106.174L255.25 78.0569M255.25 207.066L289.983 220.849M174.757 259.993V294.175M93.161 202.656L54.0171 213.682M123.484 106.174L93.161 78.0569M142.537 137.126L81.3046 141.278C76.603 141.597 74.69 147.485 78.3063 150.506L125.404 189.857C126.944 191.143 127.612 193.198 127.122 195.144L112.149 254.663C110.999 259.233 116.007 262.871 119.998 260.366L171.977 227.733C173.677 226.666 175.837 226.666 177.536 227.733L229.515 260.366C233.506 262.871 238.514 259.233 237.365 254.663L222.391 195.144C221.902 193.198 222.569 191.143 224.109 189.857L271.207 150.506C274.823 147.485 272.91 141.597 268.209 141.278L206.976 137.126C204.974 136.991 203.226 135.721 202.479 133.859L179.608 76.906C177.852 72.533 171.661 72.533 169.905 76.906L147.035 133.859C146.287 135.721 144.539 136.991 142.537 137.126Z" stroke="white" stroke-width="2.66954" stroke-linecap="round" stroke-linejoin="round"/>
</g>
</g>
<defs>
<filter id="filter0_f_617_9269" x="0.695585" y="12.0833" width="342.609" height="334.833" filterUnits="userSpaceOnUse" color-interpolation-filters="sRGB">
<feFlood flood-opacity="0" result="BackgroundImageFix"/>
<feBlend mode="normal" in="SourceGraphic" in2="BackgroundImageFix" result="shape"/>
<feGaussianBlur stdDeviation="1.95836" result="effect1_foregroundBlur_617_9269"/>
</filter>
<filter id="filter1_f_617_9269" x="9.63409" y="29.2449" width="324.731" height="309.312" filterUnits="userSpaceOnUse" color-interpolation-filters="sRGB">
<feFlood flood-opacity="0" result="BackgroundImageFix"/>
<feBlend mode="normal" in="SourceGraphic" in2="BackgroundImageFix" result="shape"/>
<feGaussianBlur stdDeviation="20.0216" result="effect1_foregroundBlur_617_9269"/>
</filter>
<filter id="filter2_f_617_9269" x="34.9951" y="54.6054" width="274.01" height="258.591" filterUnits="userSpaceOnUse" color-interpolation-filters="sRGB">
<feFlood flood-opacity="0" result="BackgroundImageFix"/>
<feBlend mode="normal" in="SourceGraphic" in2="BackgroundImageFix" result="shape"/>
<feGaussianBlur stdDeviation="6.67386" result="effect1_foregroundBlur_617_9269"/>
</filter>
<filter id="filter3_ddi_617_9269" x="32.3257" y="65.2838" width="279.349" height="263.93" filterUnits="userSpaceOnUse" color-interpolation-filters="sRGB">
<feFlood flood-opacity="0" result="BackgroundImageFix"/>
<feColorMatrix in="SourceAlpha" type="matrix" values="0 0 0 0 0 0 0 0 0 0 0 0 0 0 0 0 0 0 127 0" result="hardAlpha"/>
<feOffset dy="8.67602"/>
<feGaussianBlur stdDeviation="3.33693"/>
<feColorMatrix type="matrix" values="0 0 0 0 0 0 0 0 0 0.051 0 0 0 0 0.082 0 0 0 0.7 0"/>
<feBlend mode="multiply" in2="BackgroundImageFix" result="effect1_dropShadow_617_9269"/>
<feColorMatrix in="SourceAlpha" type="matrix" values="0 0 0 0 0 0 0 0 0 0 0 0 0 0 0 0 0 0 127 0" result="hardAlpha"/>
<feOffset dy="13.3477"/>
<feGaussianBlur stdDeviation="8.67602"/>
<feColorMatrix type="matrix" values="0 0 0 0 0 0 0 0 0 0.4 0 0 0 0 1 0 0 0 1 0"/>
<feBlend mode="color-dodge" in2="effect1_dropShadow_617_9269" result="effect2_dropShadow_617_9269"/>
<feBlend mode="normal" in="SourceGraphic" in2="effect2_dropShadow_617_9269" result="shape"/>
<feColorMatrix in="SourceAlpha" type="matrix" values="0 0 0 0 0 0 0 0 0 0 0 0 0 0 0 0 0 0 127 0" result="hardAlpha"/>
<feOffset dx="-0.867602" dy="1.7352"/>
<feGaussianBlur stdDeviation="0.433801"/>
<feComposite in2="hardAlpha" operator="arithmetic" k2="-1" k3="1"/>
<feColorMatrix type="matrix" values="0 0 0 0 1 0 0 0 0 1 0 0 0 0 1 0 0 0 0.5 0"/>
<feBlend mode="normal" in2="shape" result="effect3_innerShadow_617_9269"/>
</filter>
<filter id="filter4_f_617_9269" x="50.0119" y="69.6223" width="243.976" height="228.557" filterUnits="userSpaceOnUse" color-interpolation-filters="sRGB">
<feFlood flood-opacity="0" result="BackgroundImageFix"/>
<feBlend mode="normal" in="SourceGraphic" in2="BackgroundImageFix" result="shape"/>
<feGaussianBlur stdDeviation="0.667386" result="effect1_foregroundBlur_617_9269"/>
</filter>
<filter id="filter5_f_617_9269" x="51.7923" y="71.4021" width="240.416" height="224.997" filterUnits="userSpaceOnUse" color-interpolation-filters="sRGB">
<feFlood flood-opacity="0" result="BackgroundImageFix"/>
<feBlend mode="normal" in="SourceGraphic" in2="BackgroundImageFix" result="shape"/>
<feGaussianBlur stdDeviation="0.444924" result="effect1_foregroundBlur_617_9269"/>
</filter>
</defs>
</svg>
