<svg viewBox="0 0 754 186" fill="none" xmlns="http://www.w3.org/2000/svg">
<g filter="url(#filter0_f_617_9141)">
<g style="mix-blend-mode:hard-light" filter="url(#filter1_f_617_9141)">
<path d="M88.3858 33.8137C90.2309 29.2189 96.7354 29.219 98.5806 33.8137L110.789 64.2162C111.575 66.1729 113.411 67.5071 115.515 67.6497L148.202 69.8661C153.142 70.201 155.152 76.3872 151.353 79.5619L126.211 100.568C124.593 101.92 123.891 104.079 124.406 106.124L132.399 137.896C133.607 142.698 128.345 146.521 124.151 143.888L96.4039 126.468C94.6181 125.347 92.3482 125.347 90.5625 126.468L62.8152 143.888C58.6217 146.521 53.3595 142.698 54.5674 137.896L62.5605 106.124C63.0749 104.079 62.3734 101.92 60.7554 100.568L35.6136 79.5619C31.8139 76.3872 33.8239 70.201 38.764 69.8661L71.4512 67.6497C73.5549 67.5071 75.3912 66.1729 76.177 64.2162L88.3858 33.8137Z" fill="#0094FF" fill-opacity="0.5"/>
<path d="M90.7322 34.756C91.728 32.2763 95.2384 32.2762 96.2342 34.756L108.443 65.1585C109.59 68.0158 112.272 69.9641 115.344 70.1724L148.031 72.3888C150.697 72.5696 151.782 75.9082 149.732 77.6215L124.59 98.6276C122.227 100.602 121.203 103.754 121.954 106.74L129.947 138.513C130.599 141.104 127.759 143.168 125.496 141.747L97.7483 124.327C95.1405 122.69 91.8258 122.69 89.218 124.327L61.4708 141.747C59.2076 143.168 56.3676 141.104 57.0196 138.513L65.0126 106.74C65.7638 103.754 64.7395 100.602 62.3766 98.6276L37.2348 77.6215C35.1842 75.9082 36.269 72.5696 38.935 72.3888L71.6222 70.1724C74.6943 69.9641 77.376 68.0158 78.5234 65.1585L90.7322 34.756Z" stroke="#0094FF" stroke-width="5.05706"/>
</g>
<g style="mix-blend-mode:hard-light" filter="url(#filter2_f_617_9141)">
<path d="M91.4542 35.0459C92.1886 33.217 94.7777 33.2169 95.5122 35.0459L107.721 65.4484C108.98 68.5828 111.921 70.7202 115.291 70.9487L147.979 73.165C149.945 73.2984 150.745 75.7608 149.233 77.0245L124.091 98.0306C121.499 100.196 120.375 103.655 121.199 106.93L129.192 138.703C129.673 140.614 127.578 142.136 125.909 141.088L98.162 123.668C95.3013 121.872 91.665 121.872 88.8044 123.668L61.0571 141.088C59.3879 142.136 57.2932 140.614 57.7741 138.703L65.7671 106.93C66.5911 103.655 65.4675 100.196 62.8754 98.0306L37.7337 77.0245C36.2212 75.7608 37.0213 73.2984 38.9877 73.165L71.6749 70.9487C75.0449 70.7202 77.9867 68.5828 79.2454 65.4484L76.177 64.2162L79.2454 65.4484L91.4542 35.0459Z" stroke="#0094FF" stroke-width="6.61308"/>
</g>
<g style="mix-blend-mode:hard-light" filter="url(#filter3_ddi_617_9141)">
<path d="M90.7322 34.756C91.728 32.2763 95.2384 32.2762 96.2342 34.756L108.443 65.1585C109.59 68.0158 112.272 69.9641 115.344 70.1724L148.031 72.3888C150.697 72.5696 151.782 75.9082 149.732 77.6215L124.59 98.6276C122.227 100.602 121.203 103.754 121.954 106.74L129.947 138.513C130.599 141.104 127.759 143.168 125.496 141.747L97.7483 124.327C95.1405 122.69 91.8258 122.69 89.218 124.327L61.4708 141.747C59.2076 143.168 56.3676 141.104 57.0196 138.513L65.0126 106.74C65.7638 103.754 64.7395 100.602 62.3766 98.6276L37.2348 77.6215C35.1842 75.9082 36.269 72.5696 38.935 72.3888L71.6222 70.1724C74.6943 69.9641 77.376 68.0158 78.5234 65.1585L90.7322 34.756Z" stroke="#00B3FF" stroke-opacity="0.2" stroke-width="5.05706"/>
</g>
<g filter="url(#filter4_f_617_9141)">
<path d="M89.8297 34.3936C91.1522 31.1004 95.8142 31.1004 97.1366 34.3936L109.345 64.7961C110.354 67.307 112.71 69.0191 115.41 69.2022L148.097 71.4185C151.638 71.6586 153.078 76.0924 150.355 78.3678L125.213 99.3739C123.137 101.109 122.237 103.879 122.897 106.503L130.89 138.275C131.756 141.717 127.984 144.457 124.978 142.57L97.2312 125.15C94.9396 123.712 92.0267 123.712 89.7351 125.15L61.9879 142.57C58.9823 144.457 55.2106 141.717 56.0765 138.275L64.0695 106.503C64.7296 103.879 63.8295 101.109 61.753 99.3739L36.6113 78.3678C33.8879 76.0924 35.3286 71.6586 38.8692 71.4185L71.5564 69.2022C74.256 69.0191 76.6126 67.307 77.6209 64.7961L89.8297 34.3936Z" stroke="#82D9FF" stroke-width="3.11204"/>
</g>
<g filter="url(#filter5_f_617_9141)">
<path d="M89.1077 34.1036C90.6915 30.1597 96.2748 30.1597 97.8586 34.1037L110.067 64.5061C110.964 66.7399 113.061 68.2631 115.463 68.4259L148.15 70.6423C152.39 70.9298 154.115 76.2398 150.854 78.9649L125.712 99.971C123.865 101.514 123.064 103.979 123.651 106.313L131.644 138.086C132.681 142.207 128.164 145.489 124.565 143.229L96.8175 125.809C94.7789 124.529 92.1875 124.529 90.1488 125.809L62.4015 143.229C58.802 145.489 54.285 142.207 55.3219 138.086L63.315 106.313C63.9022 103.979 63.1014 101.514 61.2542 99.971L36.1125 78.9649C32.8509 76.2398 34.5762 70.9298 38.8166 70.6423L71.5038 68.4259C73.9055 68.2631 76.0019 66.7399 76.8989 64.5061L89.1077 34.1036Z" stroke="white" stroke-width="1.55602"/>
</g>
</g>
<g filter="url(#filter6_f_617_9141)">
<g style="mix-blend-mode:hard-light" filter="url(#filter7_f_617_9141)">
<path d="M277.397 33.8137C279.242 29.2189 285.747 29.219 287.592 33.8137L299.801 64.2162C300.586 66.1729 302.423 67.5071 304.526 67.6497L337.214 69.8661C342.154 70.201 344.164 76.3872 340.364 79.5619L315.222 100.568C313.604 101.92 312.903 104.079 313.417 106.124L321.41 137.896C322.618 142.698 317.356 146.521 313.162 143.888L285.415 126.468C283.629 125.347 281.359 125.347 279.574 126.468L251.826 143.888C247.633 146.521 242.371 142.698 243.579 137.896L251.572 106.124C252.086 104.079 251.385 101.92 249.767 100.568L224.625 79.5619C220.825 76.3872 222.835 70.201 227.775 69.8661L260.462 67.6497C262.566 67.5071 264.402 66.1729 265.188 64.2162L277.397 33.8137Z" fill="#0094FF" fill-opacity="0.5"/>
<path d="M279.743 34.756C280.739 32.2763 284.25 32.2762 285.245 34.756L297.454 65.1585C298.602 68.0158 301.283 69.9641 304.355 70.1724L337.043 72.3888C339.709 72.5696 340.793 75.9082 338.743 77.6215L313.601 98.6276C311.238 100.602 310.214 103.754 310.965 106.74L318.958 138.513C319.61 141.104 316.77 143.168 314.507 141.747L286.76 124.327C284.152 122.69 280.837 122.69 278.229 124.327L250.482 141.747C248.219 143.168 245.379 141.104 246.031 138.513L254.024 106.74C254.775 103.754 253.751 100.602 251.388 98.6276L226.246 77.6215C224.195 75.9082 225.28 72.5696 227.946 72.3888L260.633 70.1724C263.706 69.9641 266.387 68.0158 267.535 65.1585L279.743 34.756Z" stroke="#0094FF" stroke-width="5.05706"/>
</g>
<g style="mix-blend-mode:hard-light" filter="url(#filter8_f_617_9141)">
<path d="M280.465 35.0459C281.2 33.217 283.789 33.2169 284.523 35.0459L296.732 65.4484C297.991 68.5828 300.933 70.7202 304.303 70.9487L336.99 73.165C338.956 73.2984 339.756 75.7608 338.244 77.0245L313.102 98.0306C310.51 100.196 309.386 103.655 310.21 106.93L318.204 138.703C318.684 140.614 316.59 142.136 314.92 141.088L287.173 123.668C284.313 121.872 280.676 121.872 277.816 123.668L250.068 141.088C248.399 142.136 246.304 140.614 246.785 138.703L254.778 106.93C255.602 103.655 254.479 100.196 251.887 98.0306L226.745 77.0245C225.232 75.7608 226.033 73.2984 227.999 73.165L260.686 70.9487C264.056 70.7202 266.998 68.5828 268.257 65.4484L265.188 64.2162L268.257 65.4484L280.465 35.0459Z" stroke="#0094FF" stroke-width="6.61308"/>
</g>
<g style="mix-blend-mode:hard-light" filter="url(#filter9_ddi_617_9141)">
<path d="M279.743 34.756C280.739 32.2763 284.25 32.2762 285.245 34.756L297.454 65.1585C298.602 68.0158 301.283 69.9641 304.355 70.1724L337.043 72.3888C339.709 72.5696 340.793 75.9082 338.743 77.6215L313.601 98.6276C311.238 100.602 310.214 103.754 310.965 106.74L318.958 138.513C319.61 141.104 316.77 143.168 314.507 141.747L286.76 124.327C284.152 122.69 280.837 122.69 278.229 124.327L250.482 141.747C248.219 143.168 245.379 141.104 246.031 138.513L254.024 106.74C254.775 103.754 253.751 100.602 251.388 98.6276L226.246 77.6215C224.195 75.9082 225.28 72.5696 227.946 72.3888L260.633 70.1724C263.706 69.9641 266.387 68.0158 267.535 65.1585L279.743 34.756Z" stroke="#00B3FF" stroke-opacity="0.2" stroke-width="5.05706"/>
</g>
<g filter="url(#filter10_f_617_9141)">
<path d="M278.841 34.3936C280.163 31.1004 284.825 31.1004 286.148 34.3936L298.357 64.7961C299.365 67.307 301.722 69.0191 304.421 69.2022L337.108 71.4185C340.649 71.6586 342.09 76.0924 339.366 78.3678L314.225 99.3739C312.148 101.109 311.248 103.879 311.908 106.503L319.901 138.275C320.767 141.717 316.995 144.457 313.99 142.57L286.242 125.15C283.951 123.712 281.038 123.712 278.746 125.15L250.999 142.57C247.994 144.457 244.222 141.717 245.088 138.275L253.081 106.503C253.741 103.879 252.841 101.109 250.764 99.3739L225.623 78.3678C222.899 76.0924 224.34 71.6586 227.88 71.4185L260.568 69.2022C263.267 69.0191 265.624 67.307 266.632 64.7961L278.841 34.3936Z" stroke="#82D9FF" stroke-width="3.11204"/>
</g>
<g filter="url(#filter11_f_617_9141)">
<path d="M278.119 34.1036C279.703 30.1597 285.286 30.1597 286.87 34.1037L299.079 64.5061C299.976 66.7399 302.072 68.2631 304.474 68.4259L337.161 70.6423C341.401 70.9298 343.127 76.2398 339.865 78.9649L314.723 99.971C312.876 101.514 312.075 103.979 312.663 106.313L320.656 138.086C321.693 142.207 317.176 145.489 313.576 143.229L285.829 125.809C283.79 124.529 281.199 124.529 279.16 125.809L251.413 143.229C247.813 145.489 243.296 142.207 244.333 138.086L252.326 106.313C252.913 103.979 252.113 101.514 250.265 99.971L225.124 78.9649C221.862 76.2398 223.587 70.9298 227.828 70.6423L260.515 68.4259C262.917 68.2631 265.013 66.7399 265.91 64.5061L278.119 34.1036Z" stroke="white" stroke-width="1.55602"/>
</g>
</g>
<g filter="url(#filter12_f_617_9141)">
<g style="mix-blend-mode:hard-light" filter="url(#filter13_f_617_9141)">
<path d="M466.408 33.8137C468.253 29.2189 474.758 29.219 476.603 33.8137L488.812 64.2162C489.598 66.1729 491.434 67.5071 493.538 67.6497L526.225 69.8661C531.165 70.201 533.175 76.3872 529.375 79.5619L504.233 100.568C502.615 101.92 501.914 104.079 502.428 106.124L510.421 137.896C511.629 142.698 506.367 146.521 502.174 143.888L474.426 126.468C472.641 125.347 470.371 125.347 468.585 126.468L440.838 143.888C436.644 146.521 431.382 142.698 432.59 137.896L440.583 106.124C441.097 104.079 440.396 101.92 438.778 100.568L413.636 79.5619C409.836 76.3872 411.846 70.201 416.786 69.8661L449.474 67.6497C451.577 67.5071 453.414 66.1729 454.199 64.2162L466.408 33.8137Z" fill="#0094FF" fill-opacity="0.5"/>
<path d="M468.755 34.756C469.75 32.2763 473.261 32.2762 474.257 34.756L486.465 65.1585C487.613 68.0158 490.295 69.9641 493.367 70.1724L526.054 72.3888C528.72 72.5696 529.805 75.9082 527.754 77.6215L502.612 98.6276C500.249 100.602 499.225 103.754 499.976 106.74L507.969 138.513C508.621 141.104 505.781 143.168 503.518 141.747L475.771 124.327C473.163 122.69 469.848 122.69 467.24 124.327L439.493 141.747C437.23 143.168 434.39 141.104 435.042 138.513L443.035 106.74C443.786 103.754 442.762 100.602 440.399 98.6276L415.257 77.6215C413.207 75.9082 414.291 72.5696 416.957 72.3888L449.645 70.1724C452.717 69.9641 455.398 68.0158 456.546 65.1585L468.755 34.756Z" stroke="#0094FF" stroke-width="5.05706"/>
</g>
<g style="mix-blend-mode:hard-light" filter="url(#filter14_f_617_9141)">
<path d="M469.477 35.0459C470.211 33.217 472.8 33.2169 473.535 35.0459L485.743 65.4484C487.002 68.5828 489.944 70.7202 493.314 70.9487L526.001 73.165C527.968 73.2984 528.768 75.7608 527.255 77.0245L502.113 98.0306C499.521 100.196 498.398 103.655 499.222 106.93L507.215 138.703C507.696 140.614 505.601 142.136 503.932 141.088L476.184 123.668C473.324 121.872 469.688 121.872 466.827 123.668L439.08 141.088C437.41 142.136 435.316 140.614 435.797 138.703L443.79 106.93C444.614 103.655 443.49 100.196 440.898 98.0306L415.756 77.0245C414.244 75.7608 415.044 73.2984 417.01 73.165L449.697 70.9487C453.067 70.7202 456.009 68.5828 457.268 65.4484L454.199 64.2162L457.268 65.4484L469.477 35.0459Z" stroke="#0094FF" stroke-width="6.61308"/>
</g>
<g style="mix-blend-mode:hard-light" filter="url(#filter15_ddi_617_9141)">
<path d="M468.755 34.756C469.75 32.2763 473.261 32.2762 474.257 34.756L486.465 65.1585C487.613 68.0158 490.295 69.9641 493.367 70.1724L526.054 72.3888C528.72 72.5696 529.805 75.9082 527.754 77.6215L502.612 98.6276C500.249 100.602 499.225 103.754 499.976 106.74L507.969 138.513C508.621 141.104 505.781 143.168 503.518 141.747L475.771 124.327C473.163 122.69 469.848 122.69 467.24 124.327L439.493 141.747C437.23 143.168 434.39 141.104 435.042 138.513L443.035 106.74C443.786 103.754 442.762 100.602 440.399 98.6276L415.257 77.6215C413.207 75.9082 414.291 72.5696 416.957 72.3888L449.645 70.1724C452.717 69.9641 455.398 68.0158 456.546 65.1585L468.755 34.756Z" stroke="#00B3FF" stroke-opacity="0.2" stroke-width="5.05706"/>
</g>
<g filter="url(#filter16_f_617_9141)">
<path d="M467.852 34.3936C469.175 31.1004 473.837 31.1004 475.159 34.3936L487.368 64.7961C488.376 67.307 490.733 69.0191 493.432 69.2022L526.12 71.4185C529.66 71.6586 531.101 76.0924 528.378 78.3678L503.236 99.3739C501.159 101.109 500.259 103.879 500.919 106.503L508.912 138.275C509.778 141.717 506.007 144.457 503.001 142.57L475.254 125.15C472.962 123.712 470.049 123.712 467.758 125.15L440.01 142.57C437.005 144.457 433.233 141.717 434.099 138.275L442.092 106.503C442.752 103.879 441.852 101.109 439.775 99.3739L414.634 78.3678C411.91 76.0924 413.351 71.6586 416.892 71.4185L449.579 69.2022C452.279 69.0191 454.635 67.307 455.643 64.7961L467.852 34.3936Z" stroke="#82D9FF" stroke-width="3.11204"/>
</g>
<g filter="url(#filter17_f_617_9141)">
<path d="M467.13 34.1036C468.714 30.1597 474.297 30.1597 475.881 34.1037L488.09 64.5061C488.987 66.7399 491.083 68.2631 493.485 68.4259L526.172 70.6423C530.413 70.9298 532.138 76.2398 528.876 78.9649L503.735 99.971C501.887 101.514 501.087 103.979 501.674 106.313L509.667 138.086C510.704 142.207 506.187 145.489 502.587 143.229L474.84 125.809C472.801 124.529 470.21 124.529 468.171 125.809L440.424 143.229C436.824 145.489 432.308 142.207 433.344 138.086L441.337 106.313C441.925 103.979 441.124 101.514 439.277 99.971L414.135 78.9649C410.873 76.2398 412.599 70.9298 416.839 70.6423L449.526 68.4259C451.928 68.2631 454.024 66.7399 454.921 64.5061L467.13 34.1036Z" stroke="white" stroke-width="1.55602"/>
</g>
</g>
<g filter="url(#filter18_f_617_9141)">
<g style="mix-blend-mode:hard-light" filter="url(#filter19_f_617_9141)">
<path d="M655.419 33.8137C657.265 29.2189 663.769 29.219 665.614 33.8137L677.823 64.2162C678.609 66.1729 680.445 67.5071 682.549 67.6497L715.236 69.8661C720.176 70.201 722.186 76.3872 718.386 79.5619L693.245 100.568C691.627 101.92 690.925 104.079 691.44 106.124L699.433 137.896C700.641 142.698 695.378 146.521 691.185 143.888L663.438 126.468C661.652 125.347 659.382 125.347 657.596 126.468L629.849 143.888C625.655 146.521 620.393 142.698 621.601 137.896L629.594 106.124C630.109 104.079 629.407 101.92 627.789 100.568L602.647 79.5619C598.848 76.3872 600.858 70.201 605.798 69.8661L638.485 67.6497C640.589 67.5071 642.425 66.1729 643.211 64.2162L655.419 33.8137Z" fill="#0094FF" fill-opacity="0.5"/>
<path d="M657.766 34.756C658.762 32.2763 662.272 32.2762 663.268 34.756L675.477 65.1585C676.624 68.0158 679.306 69.9641 682.378 70.1724L715.065 72.3888C717.731 72.5696 718.816 75.9082 716.765 77.6215L691.623 98.6276C689.261 100.602 688.236 103.754 688.987 106.74L696.98 138.513C697.632 141.104 694.792 143.168 692.529 141.747L664.782 124.327C662.174 122.69 658.859 122.69 656.252 124.327L628.504 141.747C626.241 143.168 623.401 141.104 624.053 138.513L632.046 106.74C632.797 103.754 631.773 100.602 629.41 98.6276L604.269 77.6215C602.218 75.9082 603.303 72.5696 605.969 72.3888L638.656 70.1724C641.728 69.9641 644.41 68.0158 645.557 65.1585L657.766 34.756Z" stroke="#0094FF" stroke-width="5.05706"/>
</g>
<g style="mix-blend-mode:hard-light" filter="url(#filter20_f_617_9141)">
<path d="M658.488 35.0459C659.222 33.217 661.811 33.2169 662.546 35.0459L674.755 65.4484C676.013 68.5828 678.955 70.7202 682.325 70.9487L715.012 73.165C716.979 73.2984 717.779 75.7608 716.266 77.0245L691.125 98.0306C688.533 100.196 687.409 103.655 688.233 106.93L696.226 138.703C696.707 140.614 694.612 142.136 692.943 141.088L665.196 123.668C662.335 121.872 658.699 121.872 655.838 123.668L628.091 141.088C626.422 142.136 624.327 140.614 624.808 138.703L632.801 106.93C633.625 103.655 632.501 100.196 629.909 98.0306L604.767 77.0245C603.255 75.7608 604.055 73.2984 606.021 73.165L638.709 70.9487C642.079 70.7202 645.02 68.5828 646.279 65.4484L643.211 64.2162L646.279 65.4484L658.488 35.0459Z" stroke="#0094FF" stroke-width="6.61308"/>
</g>
<g style="mix-blend-mode:hard-light" filter="url(#filter21_ddi_617_9141)">
<path d="M657.766 34.756C658.762 32.2763 662.272 32.2762 663.268 34.756L675.477 65.1585C676.624 68.0158 679.306 69.9641 682.378 70.1724L715.065 72.3888C717.731 72.5696 718.816 75.9082 716.765 77.6215L691.623 98.6276C689.261 100.602 688.236 103.754 688.987 106.74L696.98 138.513C697.632 141.104 694.792 143.168 692.529 141.747L664.782 124.327C662.174 122.69 658.859 122.69 656.252 124.327L628.504 141.747C626.241 143.168 623.401 141.104 624.053 138.513L632.046 106.74C632.797 103.754 631.773 100.602 629.41 98.6276L604.269 77.6215C602.218 75.9082 603.303 72.5696 605.969 72.3888L638.656 70.1724C641.728 69.9641 644.41 68.0158 645.557 65.1585L657.766 34.756Z" stroke="#00B3FF" stroke-opacity="0.2" stroke-width="5.05706"/>
</g>
<g filter="url(#filter22_f_617_9141)">
<path d="M656.863 34.3936C658.186 31.1004 662.848 31.1004 664.17 34.3936L676.379 64.7961C677.387 67.307 679.744 69.0191 682.444 69.2022L715.131 71.4185C718.671 71.6586 720.112 76.0924 717.389 78.3678L692.247 99.3739C690.171 101.109 689.27 103.879 689.931 106.503L697.924 138.275C698.789 141.717 695.018 144.457 692.012 142.57L664.265 125.15C661.973 123.712 659.06 123.712 656.769 125.15L629.022 142.57C626.016 144.457 622.244 141.717 623.11 138.275L631.103 106.503C631.763 103.879 630.863 101.109 628.787 99.3739L603.645 78.3678C600.922 76.0924 602.362 71.6586 605.903 71.4185L638.59 69.2022C641.29 69.0191 643.646 67.307 644.655 64.7961L656.863 34.3936Z" stroke="#82D9FF" stroke-width="3.11204"/>
</g>
<g filter="url(#filter23_f_617_9141)">
<path d="M656.141 34.1036C657.725 30.1597 663.308 30.1597 664.892 34.1037L677.101 64.5061C677.998 66.7399 680.095 68.2631 682.496 68.4259L715.183 70.6423C719.424 70.9298 721.149 76.2398 717.888 78.9649L692.746 99.971C690.899 101.514 690.098 103.979 690.685 106.313L698.678 138.086C699.715 142.207 695.198 145.489 691.598 143.229L663.851 125.809C661.813 124.529 659.221 124.529 657.182 125.809L629.435 143.229C625.836 145.489 621.319 142.207 622.356 138.086L630.349 106.313C630.936 103.979 630.135 101.514 628.288 99.971L603.146 78.9649C599.885 76.2398 601.61 70.9298 605.85 70.6423L638.538 68.4259C640.939 68.2631 643.036 66.7399 643.933 64.5061L656.141 34.1036Z" stroke="white" stroke-width="1.55602"/>
</g>
</g>
<defs>
<filter id="filter0_f_617_9141" x="0.73354" y="0.256001" width="185.499" height="185.499" filterUnits="userSpaceOnUse" color-interpolation-filters="sRGB">
<feFlood flood-opacity="0" result="BackgroundImageFix"/>
<feBlend mode="normal" in="SourceGraphic" in2="BackgroundImageFix" result="shape"/>
<feGaussianBlur stdDeviation="1.372" result="effect1_foregroundBlur_617_9141"/>
</filter>
<filter id="filter1_f_617_9141" x="17.2961" y="14.029" width="152.374" height="147.056" filterUnits="userSpaceOnUse" color-interpolation-filters="sRGB">
<feFlood flood-opacity="0" result="BackgroundImageFix"/>
<feBlend mode="normal" in="SourceGraphic" in2="BackgroundImageFix" result="shape"/>
<feGaussianBlur stdDeviation="8.1691" result="effect1_foregroundBlur_617_9141"/>
</filter>
<filter id="filter2_f_617_9141" x="28.1882" y="24.9211" width="130.59" height="125.272" filterUnits="userSpaceOnUse" color-interpolation-filters="sRGB">
<feFlood flood-opacity="0" result="BackgroundImageFix"/>
<feBlend mode="normal" in="SourceGraphic" in2="BackgroundImageFix" result="shape"/>
<feGaussianBlur stdDeviation="2.72303" result="effect1_foregroundBlur_617_9141"/>
</filter>
<filter id="filter3_ddi_617_9141" x="26.5544" y="28.7334" width="133.858" height="128.54" filterUnits="userSpaceOnUse" color-interpolation-filters="sRGB">
<feFlood flood-opacity="0" result="BackgroundImageFix"/>
<feColorMatrix in="SourceAlpha" type="matrix" values="0 0 0 0 0 0 0 0 0 0 0 0 0 0 0 0 0 0 127 0" result="hardAlpha"/>
<feOffset dy="5.05706"/>
<feGaussianBlur stdDeviation="1.94502"/>
<feColorMatrix type="matrix" values="0 0 0 0 0 0 0 0 0 0.051 0 0 0 0 0.082 0 0 0 0.7 0"/>
<feBlend mode="multiply" in2="BackgroundImageFix" result="effect1_dropShadow_617_9141"/>
<feColorMatrix in="SourceAlpha" type="matrix" values="0 0 0 0 0 0 0 0 0 0 0 0 0 0 0 0 0 0 127 0" result="hardAlpha"/>
<feOffset dy="5.44607"/>
<feGaussianBlur stdDeviation="3.53994"/>
<feColorMatrix type="matrix" values="0 0 0 0 0 0 0 0 0 0.4 0 0 0 0 1 0 0 0 1 0"/>
<feBlend mode="color-dodge" in2="effect1_dropShadow_617_9141" result="effect2_dropShadow_617_9141"/>
<feBlend mode="normal" in="SourceGraphic" in2="effect2_dropShadow_617_9141" result="shape"/>
<feColorMatrix in="SourceAlpha" type="matrix" values="0 0 0 0 0 0 0 0 0 0 0 0 0 0 0 0 0 0 127 0" result="hardAlpha"/>
<feOffset dx="-0.505706" dy="1.01141"/>
<feGaussianBlur stdDeviation="0.252853"/>
<feComposite in2="hardAlpha" operator="arithmetic" k2="-1" k3="1"/>
<feColorMatrix type="matrix" values="0 0 0 0 1 0 0 0 0 1 0 0 0 0 1 0 0 0 0.5 0"/>
<feBlend mode="normal" in2="shape" result="effect3_innerShadow_617_9141"/>
</filter>
<filter id="filter4_f_617_9141" x="32.8563" y="29.5892" width="121.254" height="115.936" filterUnits="userSpaceOnUse" color-interpolation-filters="sRGB">
<feFlood flood-opacity="0" result="BackgroundImageFix"/>
<feBlend mode="normal" in="SourceGraphic" in2="BackgroundImageFix" result="shape"/>
<feGaussianBlur stdDeviation="0.389005" result="effect1_foregroundBlur_617_9141"/>
</filter>
<filter id="filter5_f_617_9141" x="33.1156" y="29.8485" width="120.735" height="115.417" filterUnits="userSpaceOnUse" color-interpolation-filters="sRGB">
<feFlood flood-opacity="0" result="BackgroundImageFix"/>
<feBlend mode="normal" in="SourceGraphic" in2="BackgroundImageFix" result="shape"/>
<feGaussianBlur stdDeviation="0.259337" result="effect1_foregroundBlur_617_9141"/>
</filter>
<filter id="filter6_f_617_9141" x="189.745" y="0.256001" width="185.499" height="185.499" filterUnits="userSpaceOnUse" color-interpolation-filters="sRGB">
<feFlood flood-opacity="0" result="BackgroundImageFix"/>
<feBlend mode="normal" in="SourceGraphic" in2="BackgroundImageFix" result="shape"/>
<feGaussianBlur stdDeviation="1.372" result="effect1_foregroundBlur_617_9141"/>
</filter>
<filter id="filter7_f_617_9141" x="206.307" y="14.029" width="152.374" height="147.056" filterUnits="userSpaceOnUse" color-interpolation-filters="sRGB">
<feFlood flood-opacity="0" result="BackgroundImageFix"/>
<feBlend mode="normal" in="SourceGraphic" in2="BackgroundImageFix" result="shape"/>
<feGaussianBlur stdDeviation="8.1691" result="effect1_foregroundBlur_617_9141"/>
</filter>
<filter id="filter8_f_617_9141" x="217.199" y="24.9211" width="130.59" height="125.272" filterUnits="userSpaceOnUse" color-interpolation-filters="sRGB">
<feFlood flood-opacity="0" result="BackgroundImageFix"/>
<feBlend mode="normal" in="SourceGraphic" in2="BackgroundImageFix" result="shape"/>
<feGaussianBlur stdDeviation="2.72303" result="effect1_foregroundBlur_617_9141"/>
</filter>
<filter id="filter9_ddi_617_9141" x="215.566" y="28.7334" width="133.858" height="128.54" filterUnits="userSpaceOnUse" color-interpolation-filters="sRGB">
<feFlood flood-opacity="0" result="BackgroundImageFix"/>
<feColorMatrix in="SourceAlpha" type="matrix" values="0 0 0 0 0 0 0 0 0 0 0 0 0 0 0 0 0 0 127 0" result="hardAlpha"/>
<feOffset dy="5.05706"/>
<feGaussianBlur stdDeviation="1.94502"/>
<feColorMatrix type="matrix" values="0 0 0 0 0 0 0 0 0 0.051 0 0 0 0 0.082 0 0 0 0.7 0"/>
<feBlend mode="multiply" in2="BackgroundImageFix" result="effect1_dropShadow_617_9141"/>
<feColorMatrix in="SourceAlpha" type="matrix" values="0 0 0 0 0 0 0 0 0 0 0 0 0 0 0 0 0 0 127 0" result="hardAlpha"/>
<feOffset dy="5.44607"/>
<feGaussianBlur stdDeviation="3.53994"/>
<feColorMatrix type="matrix" values="0 0 0 0 0 0 0 0 0 0.4 0 0 0 0 1 0 0 0 1 0"/>
<feBlend mode="color-dodge" in2="effect1_dropShadow_617_9141" result="effect2_dropShadow_617_9141"/>
<feBlend mode="normal" in="SourceGraphic" in2="effect2_dropShadow_617_9141" result="shape"/>
<feColorMatrix in="SourceAlpha" type="matrix" values="0 0 0 0 0 0 0 0 0 0 0 0 0 0 0 0 0 0 127 0" result="hardAlpha"/>
<feOffset dx="-0.505706" dy="1.01141"/>
<feGaussianBlur stdDeviation="0.252853"/>
<feComposite in2="hardAlpha" operator="arithmetic" k2="-1" k3="1"/>
<feColorMatrix type="matrix" values="0 0 0 0 1 0 0 0 0 1 0 0 0 0 1 0 0 0 0.5 0"/>
<feBlend mode="normal" in2="shape" result="effect3_innerShadow_617_9141"/>
</filter>
<filter id="filter10_f_617_9141" x="221.867" y="29.5892" width="121.254" height="115.936" filterUnits="userSpaceOnUse" color-interpolation-filters="sRGB">
<feFlood flood-opacity="0" result="BackgroundImageFix"/>
<feBlend mode="normal" in="SourceGraphic" in2="BackgroundImageFix" result="shape"/>
<feGaussianBlur stdDeviation="0.389005" result="effect1_foregroundBlur_617_9141"/>
</filter>
<filter id="filter11_f_617_9141" x="222.127" y="29.8485" width="120.735" height="115.417" filterUnits="userSpaceOnUse" color-interpolation-filters="sRGB">
<feFlood flood-opacity="0" result="BackgroundImageFix"/>
<feBlend mode="normal" in="SourceGraphic" in2="BackgroundImageFix" result="shape"/>
<feGaussianBlur stdDeviation="0.259337" result="effect1_foregroundBlur_617_9141"/>
</filter>
<filter id="filter12_f_617_9141" x="378.756" y="0.256001" width="185.499" height="185.499" filterUnits="userSpaceOnUse" color-interpolation-filters="sRGB">
<feFlood flood-opacity="0" result="BackgroundImageFix"/>
<feBlend mode="normal" in="SourceGraphic" in2="BackgroundImageFix" result="shape"/>
<feGaussianBlur stdDeviation="1.372" result="effect1_foregroundBlur_617_9141"/>
</filter>
<filter id="filter13_f_617_9141" x="395.319" y="14.029" width="152.374" height="147.056" filterUnits="userSpaceOnUse" color-interpolation-filters="sRGB">
<feFlood flood-opacity="0" result="BackgroundImageFix"/>
<feBlend mode="normal" in="SourceGraphic" in2="BackgroundImageFix" result="shape"/>
<feGaussianBlur stdDeviation="8.1691" result="effect1_foregroundBlur_617_9141"/>
</filter>
<filter id="filter14_f_617_9141" x="406.211" y="24.9211" width="130.59" height="125.272" filterUnits="userSpaceOnUse" color-interpolation-filters="sRGB">
<feFlood flood-opacity="0" result="BackgroundImageFix"/>
<feBlend mode="normal" in="SourceGraphic" in2="BackgroundImageFix" result="shape"/>
<feGaussianBlur stdDeviation="2.72303" result="effect1_foregroundBlur_617_9141"/>
</filter>
<filter id="filter15_ddi_617_9141" x="404.577" y="28.7334" width="133.858" height="128.54" filterUnits="userSpaceOnUse" color-interpolation-filters="sRGB">
<feFlood flood-opacity="0" result="BackgroundImageFix"/>
<feColorMatrix in="SourceAlpha" type="matrix" values="0 0 0 0 0 0 0 0 0 0 0 0 0 0 0 0 0 0 127 0" result="hardAlpha"/>
<feOffset dy="5.05706"/>
<feGaussianBlur stdDeviation="1.94502"/>
<feColorMatrix type="matrix" values="0 0 0 0 0 0 0 0 0 0.051 0 0 0 0 0.082 0 0 0 0.7 0"/>
<feBlend mode="multiply" in2="BackgroundImageFix" result="effect1_dropShadow_617_9141"/>
<feColorMatrix in="SourceAlpha" type="matrix" values="0 0 0 0 0 0 0 0 0 0 0 0 0 0 0 0 0 0 127 0" result="hardAlpha"/>
<feOffset dy="5.44607"/>
<feGaussianBlur stdDeviation="3.53994"/>
<feColorMatrix type="matrix" values="0 0 0 0 0 0 0 0 0 0.4 0 0 0 0 1 0 0 0 1 0"/>
<feBlend mode="color-dodge" in2="effect1_dropShadow_617_9141" result="effect2_dropShadow_617_9141"/>
<feBlend mode="normal" in="SourceGraphic" in2="effect2_dropShadow_617_9141" result="shape"/>
<feColorMatrix in="SourceAlpha" type="matrix" values="0 0 0 0 0 0 0 0 0 0 0 0 0 0 0 0 0 0 127 0" result="hardAlpha"/>
<feOffset dx="-0.505706" dy="1.01141"/>
<feGaussianBlur stdDeviation="0.252853"/>
<feComposite in2="hardAlpha" operator="arithmetic" k2="-1" k3="1"/>
<feColorMatrix type="matrix" values="0 0 0 0 1 0 0 0 0 1 0 0 0 0 1 0 0 0 0.5 0"/>
<feBlend mode="normal" in2="shape" result="effect3_innerShadow_617_9141"/>
</filter>
<filter id="filter16_f_617_9141" x="410.879" y="29.5892" width="121.254" height="115.936" filterUnits="userSpaceOnUse" color-interpolation-filters="sRGB">
<feFlood flood-opacity="0" result="BackgroundImageFix"/>
<feBlend mode="normal" in="SourceGraphic" in2="BackgroundImageFix" result="shape"/>
<feGaussianBlur stdDeviation="0.389005" result="effect1_foregroundBlur_617_9141"/>
</filter>
<filter id="filter17_f_617_9141" x="411.138" y="29.8485" width="120.735" height="115.417" filterUnits="userSpaceOnUse" color-interpolation-filters="sRGB">
<feFlood flood-opacity="0" result="BackgroundImageFix"/>
<feBlend mode="normal" in="SourceGraphic" in2="BackgroundImageFix" result="shape"/>
<feGaussianBlur stdDeviation="0.259337" result="effect1_foregroundBlur_617_9141"/>
</filter>
<filter id="filter18_f_617_9141" x="567.767" y="0.256001" width="185.499" height="185.499" filterUnits="userSpaceOnUse" color-interpolation-filters="sRGB">
<feFlood flood-opacity="0" result="BackgroundImageFix"/>
<feBlend mode="normal" in="SourceGraphic" in2="BackgroundImageFix" result="shape"/>
<feGaussianBlur stdDeviation="1.372" result="effect1_foregroundBlur_617_9141"/>
</filter>
<filter id="filter19_f_617_9141" x="584.33" y="14.029" width="152.374" height="147.056" filterUnits="userSpaceOnUse" color-interpolation-filters="sRGB">
<feFlood flood-opacity="0" result="BackgroundImageFix"/>
<feBlend mode="normal" in="SourceGraphic" in2="BackgroundImageFix" result="shape"/>
<feGaussianBlur stdDeviation="8.1691" result="effect1_foregroundBlur_617_9141"/>
</filter>
<filter id="filter20_f_617_9141" x="595.222" y="24.9211" width="130.59" height="125.272" filterUnits="userSpaceOnUse" color-interpolation-filters="sRGB">
<feFlood flood-opacity="0" result="BackgroundImageFix"/>
<feBlend mode="normal" in="SourceGraphic" in2="BackgroundImageFix" result="shape"/>
<feGaussianBlur stdDeviation="2.72303" result="effect1_foregroundBlur_617_9141"/>
</filter>
<filter id="filter21_ddi_617_9141" x="593.588" y="28.7334" width="133.858" height="128.54" filterUnits="userSpaceOnUse" color-interpolation-filters="sRGB">
<feFlood flood-opacity="0" result="BackgroundImageFix"/>
<feColorMatrix in="SourceAlpha" type="matrix" values="0 0 0 0 0 0 0 0 0 0 0 0 0 0 0 0 0 0 127 0" result="hardAlpha"/>
<feOffset dy="5.05706"/>
<feGaussianBlur stdDeviation="1.94502"/>
<feColorMatrix type="matrix" values="0 0 0 0 0 0 0 0 0 0.051 0 0 0 0 0.082 0 0 0 0.7 0"/>
<feBlend mode="multiply" in2="BackgroundImageFix" result="effect1_dropShadow_617_9141"/>
<feColorMatrix in="SourceAlpha" type="matrix" values="0 0 0 0 0 0 0 0 0 0 0 0 0 0 0 0 0 0 127 0" result="hardAlpha"/>
<feOffset dy="5.44607"/>
<feGaussianBlur stdDeviation="3.53994"/>
<feColorMatrix type="matrix" values="0 0 0 0 0 0 0 0 0 0.4 0 0 0 0 1 0 0 0 1 0"/>
<feBlend mode="color-dodge" in2="effect1_dropShadow_617_9141" result="effect2_dropShadow_617_9141"/>
<feBlend mode="normal" in="SourceGraphic" in2="effect2_dropShadow_617_9141" result="shape"/>
<feColorMatrix in="SourceAlpha" type="matrix" values="0 0 0 0 0 0 0 0 0 0 0 0 0 0 0 0 0 0 127 0" result="hardAlpha"/>
<feOffset dx="-0.505706" dy="1.01141"/>
<feGaussianBlur stdDeviation="0.252853"/>
<feComposite in2="hardAlpha" operator="arithmetic" k2="-1" k3="1"/>
<feColorMatrix type="matrix" values="0 0 0 0 1 0 0 0 0 1 0 0 0 0 1 0 0 0 0.5 0"/>
<feBlend mode="normal" in2="shape" result="effect3_innerShadow_617_9141"/>
</filter>
<filter id="filter22_f_617_9141" x="599.89" y="29.5892" width="121.254" height="115.936" filterUnits="userSpaceOnUse" color-interpolation-filters="sRGB">
<feFlood flood-opacity="0" result="BackgroundImageFix"/>
<feBlend mode="normal" in="SourceGraphic" in2="BackgroundImageFix" result="shape"/>
<feGaussianBlur stdDeviation="0.389005" result="effect1_foregroundBlur_617_9141"/>
</filter>
<filter id="filter23_f_617_9141" x="600.149" y="29.8485" width="120.735" height="115.417" filterUnits="userSpaceOnUse" color-interpolation-filters="sRGB">
<feFlood flood-opacity="0" result="BackgroundImageFix"/>
<feBlend mode="normal" in="SourceGraphic" in2="BackgroundImageFix" result="shape"/>
<feGaussianBlur stdDeviation="0.259337" result="effect1_foregroundBlur_617_9141"/>
</filter>
</defs>
</svg>
