<svg width="286" height="286" viewBox="0 0 286 286" fill="none" xmlns="http://www.w3.org/2000/svg">
<g filter="url(#filter0_f_575_3676)">
<g style="mix-blend-mode:hard-light" filter="url(#filter1_f_575_3676)">
<path d="M114.726 103.571C114.095 99.1918 119.124 96.2785 122.608 99.0045L138.957 111.794C142.972 114.935 148.431 115.501 153.004 113.25L171.628 104.084C175.597 102.13 179.922 106.013 178.406 110.169L171.294 129.67C169.548 134.459 170.697 139.825 174.251 143.48L188.724 158.359C191.808 161.531 189.452 166.843 185.031 166.686L164.287 165.949C159.192 165.767 154.444 168.518 152.067 173.028L142.387 191.39C140.324 195.304 134.544 194.705 133.327 190.451L127.618 170.495C126.216 165.593 122.133 161.927 117.109 161.06L96.6544 157.529C92.2948 156.776 91.0781 151.093 94.7474 148.622L111.963 137.025C116.191 134.178 118.416 129.161 117.689 124.115L114.726 103.571Z" stroke="#0094FF" stroke-width="8.37236"/>
</g>
<g style="mix-blend-mode:hard-light" filter="url(#filter2_f_575_3676)">
<path d="M116.001 103.387C115.535 100.157 119.244 98.0084 121.814 100.019L138.163 112.809C142.568 116.255 148.556 116.875 153.573 114.406L172.197 105.239C175.125 103.799 178.314 106.662 177.196 109.728L170.084 129.229C168.168 134.482 169.429 140.369 173.328 144.378L187.8 159.257C190.075 161.596 188.338 165.515 185.077 165.399L164.332 164.661C158.744 164.463 153.535 167.48 150.927 172.427L141.248 190.79C139.726 193.676 135.463 193.234 134.565 190.097L128.857 170.14C127.319 164.764 122.839 160.742 117.328 159.791L96.8735 156.26C93.6581 155.705 92.7607 151.513 95.467 149.69L112.683 138.094C117.321 134.97 119.762 129.466 118.964 123.932L116.001 103.387Z" stroke="#0094FF" stroke-width="10.9485"/>
</g>
<g style="mix-blend-mode:hard-light" filter="url(#filter3_ddi_575_3676)">
<path d="M114.726 103.571C114.095 99.1918 119.124 96.2785 122.608 99.0045L138.957 111.794C142.972 114.935 148.431 115.501 153.004 113.25L171.628 104.084C175.597 102.13 179.922 106.013 178.406 110.169L171.294 129.67C169.548 134.459 170.697 139.825 174.251 143.48L188.724 158.359C191.808 161.531 189.452 166.843 185.031 166.686L164.287 165.949C159.192 165.767 154.444 168.518 152.067 173.028L142.387 191.39C140.324 195.304 134.544 194.705 133.327 190.451L127.618 170.495C126.216 165.593 122.133 161.927 117.109 161.06L96.6544 157.529C92.2948 156.776 91.0781 151.093 94.7474 148.622L111.963 137.025C116.191 134.178 118.416 129.161 117.689 124.115L114.726 103.571Z" stroke="#00B3FF" stroke-opacity="0.2" stroke-width="8.37236"/>
</g>
<g filter="url(#filter4_f_575_3676)">
<path d="M113.133 103.8C112.294 97.9851 118.973 94.1162 123.6 97.7363L139.949 110.526C143.477 113.287 148.274 113.784 152.293 111.805L170.917 102.639C176.189 100.045 181.932 105.201 179.919 110.721L172.807 130.222C171.272 134.43 172.282 139.146 175.405 142.357L189.878 157.237C193.974 161.448 190.845 168.504 184.974 168.295L164.229 167.558C159.753 167.398 155.58 169.816 153.491 173.779L143.812 192.141C141.072 197.338 133.395 196.543 131.779 190.894L126.07 170.937C124.838 166.63 121.25 163.409 116.835 162.647L96.3805 159.115C90.5908 158.116 88.9749 150.569 93.8479 147.286L111.064 135.69C114.779 133.187 116.734 128.779 116.095 124.345L113.133 103.8Z" stroke="#82D9FF" stroke-width="5.15222"/>
</g>
<g filter="url(#filter5_f_575_3676)">
<path d="M111.858 103.984C110.853 97.0198 118.852 92.3863 124.394 96.7219L140.743 109.512C143.881 111.967 148.149 112.41 151.724 110.65L170.348 101.484C176.661 98.3764 183.54 104.551 181.129 111.162L174.017 130.663C172.652 134.407 173.55 138.602 176.328 141.459L190.801 156.339C195.707 161.383 191.96 169.833 184.928 169.583L164.184 168.845C160.201 168.703 156.489 170.854 154.63 174.379L144.951 192.742C141.67 198.966 132.476 198.014 130.54 191.248L124.832 171.292C123.736 167.46 120.543 164.594 116.616 163.916L96.1613 160.385C89.2275 159.188 87.2924 150.149 93.1283 146.218L110.344 134.622C113.65 132.395 115.389 128.473 114.82 124.529L111.858 103.984Z" stroke="white" stroke-width="2.57611"/>
</g>
</g>
<defs>
<filter id="filter0_f_575_3676" x="0.577827" y="0.740303" width="284.492" height="284.492" filterUnits="userSpaceOnUse" color-interpolation-filters="sRGB">
<feFlood flood-opacity="0" result="BackgroundImageFix"/>
<feBlend mode="normal" in="SourceGraphic" in2="BackgroundImageFix" result="shape"/>
<feGaussianBlur stdDeviation="2.27145" result="effect1_foregroundBlur_575_3676"/>
</filter>
<filter id="filter1_f_575_3676" x="61.3393" y="66.6999" width="160.03" height="158.547" filterUnits="userSpaceOnUse" color-interpolation-filters="sRGB">
<feFlood flood-opacity="0" result="BackgroundImageFix"/>
<feBlend mode="normal" in="SourceGraphic" in2="BackgroundImageFix" result="shape"/>
<feGaussianBlur stdDeviation="13.5246" result="effect1_foregroundBlur_575_3676"/>
</filter>
<filter id="filter2_f_575_3676" x="79.3721" y="84.7326" width="123.965" height="122.481" filterUnits="userSpaceOnUse" color-interpolation-filters="sRGB">
<feFlood flood-opacity="0" result="BackgroundImageFix"/>
<feBlend mode="normal" in="SourceGraphic" in2="BackgroundImageFix" result="shape"/>
<feGaussianBlur stdDeviation="4.50819" result="effect1_foregroundBlur_575_3676"/>
</filter>
<filter id="filter3_ddi_575_3676" x="76.6671" y="91.0441" width="129.374" height="127.891" filterUnits="userSpaceOnUse" color-interpolation-filters="sRGB">
<feFlood flood-opacity="0" result="BackgroundImageFix"/>
<feColorMatrix in="SourceAlpha" type="matrix" values="0 0 0 0 0 0 0 0 0 0 0 0 0 0 0 0 0 0 127 0" result="hardAlpha"/>
<feOffset dy="8.37236"/>
<feGaussianBlur stdDeviation="3.22014"/>
<feColorMatrix type="matrix" values="0 0 0 0 0 0 0 0 0 0.051 0 0 0 0 0.082 0 0 0 0.7 0"/>
<feBlend mode="multiply" in2="BackgroundImageFix" result="effect1_dropShadow_575_3676"/>
<feColorMatrix in="SourceAlpha" type="matrix" values="0 0 0 0 0 0 0 0 0 0 0 0 0 0 0 0 0 0 127 0" result="hardAlpha"/>
<feOffset dy="9.01638"/>
<feGaussianBlur stdDeviation="5.86065"/>
<feColorMatrix type="matrix" values="0 0 0 0 0 0 0 0 0 0.4 0 0 0 0 1 0 0 0 1 0"/>
<feBlend mode="color-dodge" in2="effect1_dropShadow_575_3676" result="effect2_dropShadow_575_3676"/>
<feBlend mode="normal" in="SourceGraphic" in2="effect2_dropShadow_575_3676" result="shape"/>
<feColorMatrix in="SourceAlpha" type="matrix" values="0 0 0 0 0 0 0 0 0 0 0 0 0 0 0 0 0 0 127 0" result="hardAlpha"/>
<feOffset dx="-0.837236" dy="1.67447"/>
<feGaussianBlur stdDeviation="0.418618"/>
<feComposite in2="hardAlpha" operator="arithmetic" k2="-1" k3="1"/>
<feColorMatrix type="matrix" values="0 0 0 0 1 0 0 0 0 1 0 0 0 0 1 0 0 0 0.5 0"/>
<feBlend mode="normal" in2="shape" result="effect3_innerShadow_575_3676"/>
</filter>
<filter id="filter4_f_575_3676" x="87.1004" y="92.461" width="108.508" height="107.024" filterUnits="userSpaceOnUse" color-interpolation-filters="sRGB">
<feFlood flood-opacity="0" result="BackgroundImageFix"/>
<feBlend mode="normal" in="SourceGraphic" in2="BackgroundImageFix" result="shape"/>
<feGaussianBlur stdDeviation="0.644027" result="effect1_foregroundBlur_575_3676"/>
</filter>
<filter id="filter5_f_575_3676" x="87.5297" y="92.8903" width="107.649" height="106.166" filterUnits="userSpaceOnUse" color-interpolation-filters="sRGB">
<feFlood flood-opacity="0" result="BackgroundImageFix"/>
<feBlend mode="normal" in="SourceGraphic" in2="BackgroundImageFix" result="shape"/>
<feGaussianBlur stdDeviation="0.429352" result="effect1_foregroundBlur_575_3676"/>
</filter>
</defs>
</svg>
