<svg viewBox="0 0 417 413" fill="none" xmlns="http://www.w3.org/2000/svg">
    <g filter="url(#filter0_f_558_4290)">
        <g style="mix-blend-mode:hard-light" filter="url(#filter1_f_558_4290)">
            <path d="M315.238 197.18L362.118 195.345M250 307.086L268.106 349.21M134.284 282.975L104.578 312.581M113.441 162.4L69.9539 137.932M223.554 105.186L221.726 54.4793M213.157 148.553L156.513 98.9341C152.164 95.1242 145.39 98.5612 145.896 104.321L152.492 179.335C152.707 181.788 151.5 184.148 149.385 185.408L84.6898 223.947C79.7224 226.906 80.898 234.41 86.5324 235.708L159.913 252.617C162.313 253.17 164.184 255.047 164.729 257.448L181.39 330.886C182.669 336.524 190.169 337.725 193.145 332.768L231.902 268.203C233.169 266.092 235.533 264.893 237.985 265.117L312.976 271.965C318.734 272.49 322.194 265.729 318.399 261.366L268.971 204.555C267.355 202.698 266.945 200.079 267.915 197.816L297.602 128.611C299.881 123.297 294.519 117.917 289.198 120.178L219.893 149.632C217.627 150.595 215.009 150.176 213.157 148.553Z" stroke="#0094FF" stroke-width="10.6453" stroke-linecap="round" stroke-linejoin="round"/>
        </g>
        <g style="mix-blend-mode:hard-light" filter="url(#filter2_f_558_4290)">
            <path d="M315.238 197.18L362.118 195.345M250 307.086L268.106 349.21M134.284 282.975L104.578 312.581M113.441 162.4L69.9539 137.932M223.554 105.186L221.726 54.4793M213.157 148.553L156.513 98.9341C152.164 95.1242 145.39 98.5612 145.896 104.321L152.492 179.335C152.707 181.788 151.5 184.148 149.385 185.408L84.6898 223.947C79.7224 226.906 80.898 234.41 86.5324 235.708L159.913 252.617C162.313 253.17 164.184 255.047 164.729 257.448L181.39 330.886C182.669 336.524 190.169 337.725 193.145 332.768L231.902 268.203C233.169 266.092 235.533 264.893 237.985 265.117L312.976 271.965C318.734 272.49 322.194 265.729 318.399 261.366L268.971 204.555C267.355 202.698 266.945 200.079 267.915 197.816L297.602 128.611C299.881 123.297 294.519 117.917 289.198 120.178L219.893 149.632C217.627 150.595 215.009 150.176 213.157 148.553Z" stroke="#0094FF" stroke-width="13.9208" stroke-linecap="round" stroke-linejoin="round"/>
        </g>
        <g style="mix-blend-mode:hard-light" filter="url(#filter3_ddi_558_4290)">
            <path d="M315.238 197.18L362.118 195.345M250 307.086L268.106 349.21M134.284 282.975L104.578 312.581M113.441 162.4L69.9539 137.932M223.554 105.186L221.726 54.4793M213.157 148.553L156.513 98.9341C152.164 95.1242 145.39 98.5612 145.896 104.321L152.492 179.335C152.707 181.788 151.5 184.148 149.385 185.408L84.6898 223.947C79.7224 226.906 80.898 234.41 86.5324 235.708L159.913 252.617C162.313 253.17 164.184 255.047 164.729 257.448L181.39 330.886C182.669 336.524 190.169 337.725 193.145 332.768L231.902 268.203C233.169 266.092 235.533 264.893 237.985 265.117L312.976 271.965C318.734 272.49 322.194 265.729 318.399 261.366L268.971 204.555C267.355 202.698 266.945 200.079 267.915 197.816L297.602 128.611C299.881 123.297 294.519 117.917 289.198 120.178L219.893 149.632C217.627 150.595 215.009 150.176 213.157 148.553Z" stroke="#00B3FF" stroke-opacity="0.2" stroke-width="10.6453" stroke-linecap="round" stroke-linejoin="round"/>
        </g>
        <g filter="url(#filter4_f_558_4290)">
            <path d="M315.238 197.18L362.118 195.345M250 307.086L268.106 349.21M134.284 282.975L104.578 312.581M113.441 162.4L69.9539 137.932M223.554 105.186L221.726 54.4793M213.157 148.553L156.513 98.9341C152.164 95.1242 145.39 98.5612 145.896 104.321L152.492 179.335C152.707 181.788 151.5 184.148 149.385 185.408L84.6898 223.947C79.7224 226.906 80.898 234.41 86.5324 235.708L159.913 252.617C162.313 253.17 164.184 255.047 164.729 257.448L181.39 330.886C182.669 336.524 190.169 337.725 193.145 332.768L231.902 268.203C233.169 266.092 235.533 264.893 237.985 265.117L312.976 271.965C318.734 272.49 322.194 265.729 318.399 261.366L268.971 204.555C267.355 202.698 266.945 200.079 267.915 197.816L297.602 128.611C299.881 123.297 294.519 117.917 289.198 120.178L219.893 149.632C217.627 150.595 215.009 150.176 213.157 148.553Z" stroke="#82D9FF" stroke-width="6.55096" stroke-linecap="round" stroke-linejoin="round"/>
        </g>
        <g filter="url(#filter5_f_558_4290)">
            <path d="M315.238 197.18L362.118 195.345M250 307.086L268.106 349.21M134.284 282.975L104.578 312.581M113.441 162.4L69.9539 137.932M223.554 105.186L221.726 54.4793M213.157 148.553L156.513 98.9341C152.164 95.1242 145.39 98.5612 145.896 104.321L152.492 179.335C152.707 181.788 151.5 184.148 149.385 185.408L84.6898 223.947C79.7224 226.906 80.898 234.41 86.5324 235.708L159.913 252.617C162.313 253.17 164.184 255.047 164.729 257.448L181.39 330.886C182.669 336.524 190.169 337.725 193.145 332.768L231.902 268.203C233.169 266.092 235.533 264.893 237.985 265.117L312.976 271.965C318.734 272.49 322.194 265.729 318.399 261.366L268.971 204.555C267.355 202.698 266.945 200.079 267.915 197.816L297.602 128.611C299.881 123.297 294.519 117.917 289.198 120.178L219.893 149.632C217.627 150.595 215.009 150.176 213.157 148.553Z" stroke="white" stroke-width="3.27548" stroke-linecap="round" stroke-linejoin="round"/>
        </g>
    </g>
    <defs>
        <filter id="filter0_f_558_4290" x="58.1866" y="42.7128" width="315.698" height="318.265" filterUnits="userSpaceOnUse" color-interpolation-filters="sRGB">
            <feFlood flood-opacity="0" result="BackgroundImageFix"/>
            <feBlend mode="normal" in="SourceGraphic" in2="BackgroundImageFix" result="shape"/>
            <feGaussianBlur stdDeviation="2.40287" result="effect1_foregroundBlur_558_4290"/>
        </filter>
        <filter id="filter1_f_558_4290" x="15.4981" y="0.0240288" width="401.075" height="403.642" filterUnits="userSpaceOnUse" color-interpolation-filters="sRGB">
            <feFlood flood-opacity="0" result="BackgroundImageFix"/>
            <feBlend mode="normal" in="SourceGraphic" in2="BackgroundImageFix" result="shape"/>
            <feGaussianBlur stdDeviation="24.5661" result="effect1_foregroundBlur_558_4290"/>
        </filter>
        <filter id="filter2_f_558_4290" x="46.6149" y="31.1411" width="338.841" height="341.408" filterUnits="userSpaceOnUse" color-interpolation-filters="sRGB">
            <feFlood flood-opacity="0" result="BackgroundImageFix"/>
            <feBlend mode="normal" in="SourceGraphic" in2="BackgroundImageFix" result="shape"/>
            <feGaussianBlur stdDeviation="8.1887" result="effect1_foregroundBlur_558_4290"/>
        </filter>
        <filter id="filter3_ddi_558_4290" x="43.3397" y="44.243" width="345.392" height="347.959" filterUnits="userSpaceOnUse" color-interpolation-filters="sRGB">
            <feFlood flood-opacity="0" result="BackgroundImageFix"/>
            <feColorMatrix in="SourceAlpha" type="matrix" values="0 0 0 0 0 0 0 0 0 0 0 0 0 0 0 0 0 0 127 0" result="hardAlpha"/>
            <feOffset dy="10.6453"/>
            <feGaussianBlur stdDeviation="4.09435"/>
            <feColorMatrix type="matrix" values="0 0 0 0 0 0 0 0 0 0.051 0 0 0 0 0.082 0 0 0 0.7 0"/>
            <feBlend mode="multiply" in2="BackgroundImageFix" result="effect1_dropShadow_558_4290"/>
            <feColorMatrix in="SourceAlpha" type="matrix" values="0 0 0 0 0 0 0 0 0 0 0 0 0 0 0 0 0 0 127 0" result="hardAlpha"/>
            <feOffset dy="16.3774"/>
            <feGaussianBlur stdDeviation="10.6453"/>
            <feColorMatrix type="matrix" values="0 0 0 0 0 0 0 0 0 0.4 0 0 0 0 1 0 0 0 1 0"/>
            <feBlend mode="color-dodge" in2="effect1_dropShadow_558_4290" result="effect2_dropShadow_558_4290"/>
            <feBlend mode="normal" in="SourceGraphic" in2="effect2_dropShadow_558_4290" result="shape"/>
            <feColorMatrix in="SourceAlpha" type="matrix" values="0 0 0 0 0 0 0 0 0 0 0 0 0 0 0 0 0 0 127 0" result="hardAlpha"/>
            <feOffset dx="-1.06453" dy="2.12906"/>
            <feGaussianBlur stdDeviation="0.532266"/>
            <feComposite in2="hardAlpha" operator="arithmetic" k2="-1" k3="1"/>
            <feColorMatrix type="matrix" values="0 0 0 0 1 0 0 0 0 1 0 0 0 0 1 0 0 0 0.5 0"/>
            <feBlend mode="normal" in2="shape" result="effect3_innerShadow_558_4290"/>
        </filter>
        <filter id="filter4_f_558_4290" x="65.0401" y="49.5664" width="301.991" height="304.558" filterUnits="userSpaceOnUse" color-interpolation-filters="sRGB">
            <feFlood flood-opacity="0" result="BackgroundImageFix"/>
            <feBlend mode="normal" in="SourceGraphic" in2="BackgroundImageFix" result="shape"/>
            <feGaussianBlur stdDeviation="0.81887" result="effect1_foregroundBlur_558_4290"/>
        </filter>
        <filter id="filter5_f_558_4290" x="67.2241" y="51.75" width="297.624" height="300.19" filterUnits="userSpaceOnUse" color-interpolation-filters="sRGB">
            <feFlood flood-opacity="0" result="BackgroundImageFix"/>
            <feBlend mode="normal" in="SourceGraphic" in2="BackgroundImageFix" result="shape"/>
            <feGaussianBlur stdDeviation="0.545914" result="effect1_foregroundBlur_558_4290"/>
        </filter>
    </defs>
</svg>
