<svg width="365" height="365" viewBox="0 0 365 365" fill="none" xmlns="http://www.w3.org/2000/svg">
<g filter="url(#filter0_f_575_3665)">
<g style="mix-blend-mode:hard-light" filter="url(#filter1_f_575_3665)">
<path d="M198.252 87.0323C200.735 83.3702 206.414 84.6035 207.154 88.9652L216.225 142.442C217.078 147.468 220.732 151.562 225.629 152.978L277.734 168.048C281.983 169.277 282.566 175.06 278.646 177.111L230.59 202.263C226.073 204.627 223.309 209.368 223.475 214.463L225.244 268.674C225.388 273.096 220.069 275.436 216.906 272.343L178.135 234.411C174.491 230.846 169.128 229.682 164.334 231.414L113.323 249.849C109.162 251.353 105.292 247.017 107.257 243.053L131.351 194.458C133.616 189.891 133.066 184.43 129.937 180.406L96.6409 137.588C93.9251 134.096 96.8531 129.075 101.23 129.72L154.892 137.618C159.936 138.36 164.959 136.15 167.819 131.93L198.252 87.0323Z" stroke="#0094FF" stroke-width="8.37236"/>
</g>
<g style="mix-blend-mode:hard-light" filter="url(#filter2_f_575_3665)">
<path d="M199.319 87.755C201.149 85.054 205.338 85.9636 205.884 89.1806L214.955 142.657C215.89 148.171 219.899 152.662 225.271 154.216L277.376 169.285C280.51 170.192 280.94 174.457 278.049 175.97L229.993 201.122C225.038 203.715 222.005 208.916 222.188 214.505L223.957 268.716C224.063 271.978 220.14 273.704 217.807 271.422L179.036 233.49C175.039 229.58 169.156 228.302 163.896 230.203L112.885 248.638C109.816 249.747 106.962 246.549 108.411 243.625L132.505 195.03C134.989 190.02 134.387 184.03 130.954 179.616L97.6577 136.797C95.6547 134.222 97.8142 130.519 101.042 130.994L154.705 138.892C160.237 139.706 165.748 137.282 168.885 132.653L199.319 87.755Z" stroke="#0094FF" stroke-width="10.9485"/>
</g>
<g style="mix-blend-mode:hard-light" filter="url(#filter3_ddi_575_3665)">
<path d="M198.252 87.0323C200.735 83.3702 206.414 84.6035 207.154 88.9652L216.225 142.442C217.078 147.468 220.732 151.562 225.629 152.978L277.734 168.048C281.983 169.277 282.566 175.06 278.646 177.111L230.59 202.263C226.073 204.627 223.309 209.368 223.475 214.463L225.244 268.674C225.388 273.096 220.069 275.436 216.906 272.343L178.135 234.411C174.491 230.846 169.128 229.682 164.334 231.414L113.323 249.849C109.162 251.353 105.292 247.017 107.257 243.053L131.351 194.458C133.616 189.891 133.066 184.43 129.937 180.406L96.6409 137.588C93.9251 134.096 96.8531 129.075 101.23 129.72L154.892 137.618C159.936 138.36 164.959 136.15 167.819 131.93L198.252 87.0323Z" stroke="#00B3FF" stroke-opacity="0.2" stroke-width="8.37236"/>
</g>
<g filter="url(#filter4_f_575_3665)">
<path d="M196.92 86.1289C200.216 81.2655 207.759 82.9034 208.741 88.696L217.812 142.173C218.562 146.589 221.773 150.187 226.076 151.432L278.181 166.501C283.825 168.134 284.598 175.813 279.393 178.538L231.336 203.69C227.368 205.767 224.938 209.933 225.084 214.41L226.853 268.622C227.045 274.494 219.98 277.602 215.781 273.493L177.009 235.562C173.807 232.429 169.094 231.406 164.881 232.928L113.87 251.363C108.344 253.36 103.205 247.602 105.815 242.338L129.909 193.743C131.899 189.729 131.416 184.931 128.666 181.395L95.3699 138.576C91.7632 133.938 95.6517 127.271 101.464 128.127L155.127 136.025C159.559 136.677 163.973 134.735 166.486 131.027L196.92 86.1289Z" stroke="#82D9FF" stroke-width="5.15222"/>
</g>
<g filter="url(#filter5_f_575_3665)">
<path d="M195.853 85.4062C199.801 79.5817 208.834 81.5433 210.011 88.4806L219.082 141.957C219.749 145.886 222.605 149.087 226.434 150.194L278.539 165.264C285.298 167.219 286.224 176.416 279.99 179.679L231.934 204.831C228.403 206.679 226.241 210.385 226.371 214.368L228.141 268.58C228.37 275.612 219.909 279.335 214.88 274.414L176.108 236.483C173.26 233.696 169.067 232.785 165.319 234.14L114.308 252.575C107.69 254.966 101.535 248.07 104.661 241.766L128.755 193.17C130.525 189.6 130.096 185.331 127.649 182.185L94.3531 139.367C90.0337 133.813 94.6906 125.828 101.652 126.852L155.314 134.75C159.257 135.331 163.184 133.603 165.42 130.304L195.853 85.4062Z" stroke="white" stroke-width="2.57611"/>
</g>
</g>
<defs>
<filter id="filter0_f_575_3665" x="0.45716" y="0.457099" width="363.563" height="363.563" filterUnits="userSpaceOnUse" color-interpolation-filters="sRGB">
<feFlood flood-opacity="0" result="BackgroundImageFix"/>
<feBlend mode="normal" in="SourceGraphic" in2="BackgroundImageFix" result="shape"/>
<feGaussianBlur stdDeviation="2.27145" result="effect1_foregroundBlur_575_3665"/>
</filter>
<filter id="filter1_f_575_3665" x="64.3449" y="53.6354" width="248.17" height="251.363" filterUnits="userSpaceOnUse" color-interpolation-filters="sRGB">
<feFlood flood-opacity="0" result="BackgroundImageFix"/>
<feBlend mode="normal" in="SourceGraphic" in2="BackgroundImageFix" result="shape"/>
<feGaussianBlur stdDeviation="13.5246" result="effect1_foregroundBlur_575_3665"/>
</filter>
<filter id="filter2_f_575_3665" x="82.3777" y="71.6682" width="212.104" height="215.297" filterUnits="userSpaceOnUse" color-interpolation-filters="sRGB">
<feFlood flood-opacity="0" result="BackgroundImageFix"/>
<feBlend mode="normal" in="SourceGraphic" in2="BackgroundImageFix" result="shape"/>
<feGaussianBlur stdDeviation="4.50819" result="effect1_foregroundBlur_575_3665"/>
</filter>
<filter id="filter3_ddi_575_3665" x="79.6728" y="77.9797" width="217.514" height="220.707" filterUnits="userSpaceOnUse" color-interpolation-filters="sRGB">
<feFlood flood-opacity="0" result="BackgroundImageFix"/>
<feColorMatrix in="SourceAlpha" type="matrix" values="0 0 0 0 0 0 0 0 0 0 0 0 0 0 0 0 0 0 127 0" result="hardAlpha"/>
<feOffset dy="8.37236"/>
<feGaussianBlur stdDeviation="3.22014"/>
<feColorMatrix type="matrix" values="0 0 0 0 0 0 0 0 0 0.051 0 0 0 0 0.082 0 0 0 0.7 0"/>
<feBlend mode="multiply" in2="BackgroundImageFix" result="effect1_dropShadow_575_3665"/>
<feColorMatrix in="SourceAlpha" type="matrix" values="0 0 0 0 0 0 0 0 0 0 0 0 0 0 0 0 0 0 127 0" result="hardAlpha"/>
<feOffset dy="9.01638"/>
<feGaussianBlur stdDeviation="5.86065"/>
<feColorMatrix type="matrix" values="0 0 0 0 0 0 0 0 0 0.4 0 0 0 0 1 0 0 0 1 0"/>
<feBlend mode="color-dodge" in2="effect1_dropShadow_575_3665" result="effect2_dropShadow_575_3665"/>
<feBlend mode="normal" in="SourceGraphic" in2="effect2_dropShadow_575_3665" result="shape"/>
<feColorMatrix in="SourceAlpha" type="matrix" values="0 0 0 0 0 0 0 0 0 0 0 0 0 0 0 0 0 0 127 0" result="hardAlpha"/>
<feOffset dx="-0.837236" dy="1.67447"/>
<feGaussianBlur stdDeviation="0.418618"/>
<feComposite in2="hardAlpha" operator="arithmetic" k2="-1" k3="1"/>
<feColorMatrix type="matrix" values="0 0 0 0 1 0 0 0 0 1 0 0 0 0 1 0 0 0 0.5 0"/>
<feBlend mode="normal" in2="shape" result="effect3_innerShadow_575_3665"/>
</filter>
<filter id="filter4_f_575_3665" x="90.106" y="79.3965" width="196.648" height="199.841" filterUnits="userSpaceOnUse" color-interpolation-filters="sRGB">
<feFlood flood-opacity="0" result="BackgroundImageFix"/>
<feBlend mode="normal" in="SourceGraphic" in2="BackgroundImageFix" result="shape"/>
<feGaussianBlur stdDeviation="0.644027" result="effect1_foregroundBlur_575_3665"/>
</filter>
<filter id="filter5_f_575_3665" x="90.5354" y="79.8259" width="195.789" height="198.982" filterUnits="userSpaceOnUse" color-interpolation-filters="sRGB">
<feFlood flood-opacity="0" result="BackgroundImageFix"/>
<feBlend mode="normal" in="SourceGraphic" in2="BackgroundImageFix" result="shape"/>
<feGaussianBlur stdDeviation="0.429352" result="effect1_foregroundBlur_575_3665"/>
</filter>
</defs>
</svg>
