<svg viewBox="0 0 195 194" fill="none" xmlns="http://www.w3.org/2000/svg">
<g filter="url(#filter0_f_558_4306)">
<g style="mix-blend-mode:hard-light" filter="url(#filter1_f_558_4306)">
<path d="M77.2768 52.7242L93.6257 65.5142C97.6407 68.6552 103.099 69.2208 107.673 66.9697L126.297 57.8035C130.266 55.8499 134.591 59.7324 133.075 63.8886L125.963 83.3896C124.217 88.1788 125.365 93.545 128.92 97.1992L143.392 112.079C146.477 115.25 144.121 120.563 139.7 120.406L118.955 119.668C113.861 119.487 109.112 122.238 106.735 126.748L97.0561 145.11C94.9931 149.024 89.2123 148.425 87.9956 144.171L82.2869 124.214C80.885 119.313 76.8013 115.647 71.7779 114.78L51.3232 111.249C46.9636 110.496 45.7469 104.813 49.4162 102.342L66.6322 90.7452C70.8602 87.8973 73.085 82.8806 72.3574 77.8351L69.395 57.2903C68.7636 52.9115 73.7924 49.9983 77.2768 52.7242Z" stroke="#0094FF" stroke-width="8.37236"/>
</g>
<g style="mix-blend-mode:hard-light" filter="url(#filter2_f_558_4306)">
<path d="M76.4832 53.7387L92.832 66.5287C97.2364 69.9743 103.224 70.5948 108.242 68.1254L126.866 58.9592C129.793 57.5183 132.983 60.3819 131.865 63.4473L124.753 82.9483C122.837 88.2019 124.097 94.0886 127.996 98.0973L142.469 112.977C144.744 115.316 143.006 119.235 139.745 119.119L119.001 118.381C113.413 118.182 108.204 121.2 105.596 126.147L95.9166 144.509C94.3951 147.396 90.1314 146.954 89.234 143.817L83.5253 123.86C81.9874 118.484 77.5076 114.462 71.9971 113.511L51.5423 109.979C48.3268 109.424 47.4295 105.233 50.1358 103.41L67.3518 91.8135C71.9899 88.6894 74.4304 83.1862 73.6323 77.6513L70.6698 57.1064C70.2041 53.8769 73.9132 51.7281 76.4832 53.7387Z" stroke="#0094FF" stroke-width="10.9485"/>
</g>
<g style="mix-blend-mode:hard-light" filter="url(#filter3_ddi_558_4306)">
<path d="M77.2768 52.7242L93.6257 65.5142C97.6407 68.6552 103.099 69.2208 107.673 66.9697L126.297 57.8035C130.266 55.8499 134.591 59.7324 133.075 63.8886L125.963 83.3896C124.217 88.1788 125.365 93.545 128.92 97.1992L143.392 112.079C146.477 115.25 144.121 120.563 139.7 120.406L118.955 119.668C113.861 119.487 109.112 122.238 106.735 126.748L97.0561 145.11C94.9931 149.024 89.2123 148.425 87.9956 144.171L82.2869 124.214C80.885 119.313 76.8013 115.647 71.7779 114.78L51.3232 111.249C46.9636 110.496 45.7469 104.813 49.4162 102.342L66.6322 90.7452C70.8602 87.8973 73.085 82.8806 72.3574 77.8351L69.395 57.2903C68.7636 52.9115 73.7924 49.9983 77.2768 52.7242Z" stroke="#00B3FF" stroke-opacity="0.2" stroke-width="8.37236"/>
</g>
<g filter="url(#filter4_f_558_4306)">
<path d="M78.2689 51.4561L94.6177 64.2461C98.146 67.0063 102.943 67.5033 106.962 65.5251L125.586 56.359C130.857 53.7645 136.601 58.9206 134.588 64.4403L127.476 83.9413C125.941 88.1498 126.951 92.8654 130.074 96.0767L144.547 110.956C148.643 115.168 145.514 122.224 139.642 122.015L118.898 121.277C114.421 121.118 110.249 123.536 108.16 127.498L98.4804 145.861C95.7407 151.058 88.0635 150.263 86.4477 144.614L80.7389 124.657C79.5069 120.35 75.9184 117.129 71.504 116.366L51.0492 112.835C45.2595 111.836 43.6437 104.288 48.5167 101.006L65.7328 89.4098C69.4482 86.9072 71.4032 82.4987 70.7638 78.0649L67.8014 57.5201C66.9628 51.7049 73.6414 47.8359 78.2689 51.4561Z" stroke="#82D9FF" stroke-width="5.15222"/>
</g>
<g filter="url(#filter5_f_558_4306)">
<path d="M79.0626 50.4416L95.4114 63.2316C98.5502 65.6871 102.818 66.1293 106.393 64.3695L125.017 55.2033C131.33 52.0961 138.209 58.2711 135.798 64.8816L128.686 84.3826C127.32 88.1266 128.219 92.3218 130.997 95.1786L145.47 110.058C150.376 115.102 146.629 123.552 139.597 123.302L118.852 122.565C114.87 122.423 111.157 124.574 109.299 128.099L99.6198 146.461C96.3387 152.686 87.1444 151.733 85.2093 144.968L79.5006 125.011C78.4045 121.18 75.212 118.314 71.2849 117.636L50.8301 114.104C43.8963 112.907 41.9612 103.869 47.7971 99.9378L65.0132 88.3415C68.3185 86.1151 70.0577 82.1932 69.489 78.2488L66.5265 57.7039C65.5223 50.7395 73.5206 46.106 79.0626 50.4416Z" stroke="white" stroke-width="2.57611"/>
</g>
</g>
<defs>
<filter id="filter0_f_558_4306" x="38.5143" y="42.9258" width="115.018" height="113.534" filterUnits="userSpaceOnUse" color-interpolation-filters="sRGB">
<feFlood flood-opacity="0" result="BackgroundImageFix"/>
<feBlend mode="normal" in="SourceGraphic" in2="BackgroundImageFix" result="shape"/>
<feGaussianBlur stdDeviation="2.27145" result="effect1_foregroundBlur_558_4306"/>
</filter>
<filter id="filter1_f_558_4306" x="16.0081" y="20.4196" width="160.03" height="158.547" filterUnits="userSpaceOnUse" color-interpolation-filters="sRGB">
<feFlood flood-opacity="0" result="BackgroundImageFix"/>
<feBlend mode="normal" in="SourceGraphic" in2="BackgroundImageFix" result="shape"/>
<feGaussianBlur stdDeviation="13.5246" result="effect1_foregroundBlur_558_4306"/>
</filter>
<filter id="filter2_f_558_4306" x="34.0408" y="38.4524" width="123.965" height="122.481" filterUnits="userSpaceOnUse" color-interpolation-filters="sRGB">
<feFlood flood-opacity="0" result="BackgroundImageFix"/>
<feBlend mode="normal" in="SourceGraphic" in2="BackgroundImageFix" result="shape"/>
<feGaussianBlur stdDeviation="4.50819" result="effect1_foregroundBlur_558_4306"/>
</filter>
<filter id="filter3_ddi_558_4306" x="31.3359" y="44.7638" width="129.374" height="127.891" filterUnits="userSpaceOnUse" color-interpolation-filters="sRGB">
<feFlood flood-opacity="0" result="BackgroundImageFix"/>
<feColorMatrix in="SourceAlpha" type="matrix" values="0 0 0 0 0 0 0 0 0 0 0 0 0 0 0 0 0 0 127 0" result="hardAlpha"/>
<feOffset dy="8.37236"/>
<feGaussianBlur stdDeviation="3.22014"/>
<feColorMatrix type="matrix" values="0 0 0 0 0 0 0 0 0 0.051 0 0 0 0 0.082 0 0 0 0.7 0"/>
<feBlend mode="multiply" in2="BackgroundImageFix" result="effect1_dropShadow_558_4306"/>
<feColorMatrix in="SourceAlpha" type="matrix" values="0 0 0 0 0 0 0 0 0 0 0 0 0 0 0 0 0 0 127 0" result="hardAlpha"/>
<feOffset dy="9.01638"/>
<feGaussianBlur stdDeviation="5.86065"/>
<feColorMatrix type="matrix" values="0 0 0 0 0 0 0 0 0 0.4 0 0 0 0 1 0 0 0 1 0"/>
<feBlend mode="color-dodge" in2="effect1_dropShadow_558_4306" result="effect2_dropShadow_558_4306"/>
<feBlend mode="normal" in="SourceGraphic" in2="effect2_dropShadow_558_4306" result="shape"/>
<feColorMatrix in="SourceAlpha" type="matrix" values="0 0 0 0 0 0 0 0 0 0 0 0 0 0 0 0 0 0 127 0" result="hardAlpha"/>
<feOffset dx="-0.837236" dy="1.67447"/>
<feGaussianBlur stdDeviation="0.418618"/>
<feComposite in2="hardAlpha" operator="arithmetic" k2="-1" k3="1"/>
<feColorMatrix type="matrix" values="0 0 0 0 1 0 0 0 0 1 0 0 0 0 1 0 0 0 0.5 0"/>
<feBlend mode="normal" in2="shape" result="effect3_innerShadow_558_4306"/>
</filter>
<filter id="filter4_f_558_4306" x="41.7692" y="46.1807" width="108.508" height="107.024" filterUnits="userSpaceOnUse" color-interpolation-filters="sRGB">
<feFlood flood-opacity="0" result="BackgroundImageFix"/>
<feBlend mode="normal" in="SourceGraphic" in2="BackgroundImageFix" result="shape"/>
<feGaussianBlur stdDeviation="0.644027" result="effect1_foregroundBlur_558_4306"/>
</filter>
<filter id="filter5_f_558_4306" x="42.1985" y="46.61" width="107.649" height="106.166" filterUnits="userSpaceOnUse" color-interpolation-filters="sRGB">
<feFlood flood-opacity="0" result="BackgroundImageFix"/>
<feBlend mode="normal" in="SourceGraphic" in2="BackgroundImageFix" result="shape"/>
<feGaussianBlur stdDeviation="0.429352" result="effect1_foregroundBlur_558_4306"/>
</filter>
</defs>
</svg>
