<svg viewBox="0 0 284 284" fill="none" xmlns="http://www.w3.org/2000/svg">
<g filter="url(#filter0_f_558_4298)">
<g style="mix-blend-mode:hard-light" filter="url(#filter1_f_558_4298)">
<path d="M166.471 48.4975L175.542 101.974C176.395 107 180.049 111.094 184.946 112.511L237.051 127.58C241.301 128.809 241.883 134.592 237.963 136.643L189.907 161.796C185.39 164.159 182.626 168.9 182.792 173.995L184.561 228.206C184.705 232.628 179.386 234.969 176.224 231.875L137.452 193.943C133.808 190.378 128.445 189.214 123.651 190.946L72.6397 209.381C68.4791 210.885 64.6093 206.549 66.5744 202.585L90.6685 153.99C92.9329 149.423 92.3833 143.963 89.254 139.938L55.9579 97.1203C53.2422 93.6279 56.1702 88.6076 60.547 89.2518L114.209 97.1499C119.253 97.8922 124.276 95.6821 127.136 91.4625L157.569 46.5645C160.052 42.9024 165.731 44.1357 166.471 48.4975Z" stroke="#0094FF" stroke-width="8.37236"/>
</g>
<g style="mix-blend-mode:hard-light" filter="url(#filter2_f_558_4298)">
<path d="M165.201 48.7129L174.272 102.189C175.207 107.703 179.216 112.194 184.588 113.748L236.693 128.817C239.827 129.724 240.257 133.989 237.366 135.502L189.31 160.654C184.355 163.248 181.322 168.448 181.505 174.037L183.274 228.248C183.38 231.51 179.457 233.236 177.124 230.954L138.353 193.023C134.356 189.112 128.473 187.834 123.213 189.735L72.202 208.17C69.1332 209.279 66.279 206.081 67.7284 203.157L91.8225 154.562C94.3066 149.552 93.7036 143.562 90.2708 139.148L56.9747 96.3297C54.9717 93.7538 57.1313 90.051 60.3595 90.5262L114.022 98.4242C119.554 99.2385 125.065 96.8141 128.202 92.1852L158.636 47.2872C160.466 44.5862 164.655 45.4959 165.201 48.7129Z" stroke="#0094FF" stroke-width="10.9485"/>
</g>
<g style="mix-blend-mode:hard-light" filter="url(#filter3_ddi_558_4298)">
<path d="M166.471 48.4975L175.542 101.974C176.395 107 180.049 111.094 184.946 112.511L237.051 127.58C241.301 128.809 241.883 134.592 237.963 136.643L189.907 161.796C185.39 164.159 182.626 168.9 182.792 173.995L184.561 228.206C184.705 232.628 179.386 234.969 176.224 231.875L137.452 193.943C133.808 190.378 128.445 189.214 123.651 190.946L72.6397 209.381C68.4791 210.885 64.6093 206.549 66.5744 202.585L90.6685 153.99C92.9329 149.423 92.3833 143.963 89.254 139.938L55.9579 97.1203C53.2422 93.6279 56.1702 88.6076 60.547 89.2518L114.209 97.1499C119.253 97.8922 124.276 95.6821 127.136 91.4625L157.569 46.5645C160.052 42.9024 165.731 44.1357 166.471 48.4975Z" stroke="#00B3FF" stroke-opacity="0.2" stroke-width="8.37236"/>
</g>
<g filter="url(#filter4_f_558_4298)">
<path d="M168.058 48.2282L177.129 101.705C177.879 106.121 181.09 109.719 185.393 110.964L237.498 126.033C243.142 127.666 243.915 135.345 238.71 138.07L190.654 163.222C186.685 165.299 184.255 169.465 184.401 173.942L186.17 228.154C186.362 234.026 179.297 237.134 175.098 233.026L136.326 195.094C133.124 191.961 128.411 190.938 124.198 192.461L73.187 210.895C67.6614 212.892 62.5221 207.134 65.1319 201.87L89.226 153.275C91.2159 149.261 90.7329 144.463 87.983 140.927L54.6869 98.1087C51.0803 93.4706 54.9688 86.8034 60.7815 87.6589L114.444 95.557C118.876 96.2093 123.29 94.2672 125.803 90.5591L156.237 45.6611C159.533 40.7977 167.076 42.4356 168.058 48.2282Z" stroke="#82D9FF" stroke-width="5.15222"/>
</g>
<g filter="url(#filter5_f_558_4298)">
<path d="M169.328 48.0128L178.399 101.489C179.066 105.418 181.923 108.619 185.751 109.726L237.856 124.796C244.615 126.751 245.541 135.948 239.307 139.211L191.251 164.363C187.72 166.211 185.559 169.917 185.689 173.9L187.458 228.112C187.687 235.145 179.226 238.867 174.197 233.946L135.425 196.015C132.577 193.228 128.384 192.317 124.636 193.672L73.6247 212.107C67.0072 214.498 60.8523 207.602 63.9779 201.298L88.072 152.703C89.8423 149.132 89.4126 144.864 86.9662 141.718L53.6701 98.8994C49.3507 93.3448 54.0076 85.36 60.969 86.3846L114.631 94.2827C118.574 94.863 122.501 93.1352 124.737 89.8364L155.171 44.9384C159.119 39.114 168.152 41.0755 169.328 48.0128Z" stroke="white" stroke-width="2.57611"/>
</g>
</g>
<defs>
<filter id="filter0_f_558_4298" x="46.1682" y="35.6739" width="203.157" height="206.35" filterUnits="userSpaceOnUse" color-interpolation-filters="sRGB">
<feFlood flood-opacity="0" result="BackgroundImageFix"/>
<feBlend mode="normal" in="SourceGraphic" in2="BackgroundImageFix" result="shape"/>
<feGaussianBlur stdDeviation="2.27145" result="effect1_foregroundBlur_558_4298"/>
</filter>
<filter id="filter1_f_558_4298" x="23.662" y="13.1676" width="248.17" height="251.363" filterUnits="userSpaceOnUse" color-interpolation-filters="sRGB">
<feFlood flood-opacity="0" result="BackgroundImageFix"/>
<feBlend mode="normal" in="SourceGraphic" in2="BackgroundImageFix" result="shape"/>
<feGaussianBlur stdDeviation="13.5246" result="effect1_foregroundBlur_558_4298"/>
</filter>
<filter id="filter2_f_558_4298" x="41.6948" y="31.2004" width="212.104" height="215.297" filterUnits="userSpaceOnUse" color-interpolation-filters="sRGB">
<feFlood flood-opacity="0" result="BackgroundImageFix"/>
<feBlend mode="normal" in="SourceGraphic" in2="BackgroundImageFix" result="shape"/>
<feGaussianBlur stdDeviation="4.50819" result="effect1_foregroundBlur_558_4298"/>
</filter>
<filter id="filter3_ddi_558_4298" x="38.9898" y="37.5119" width="217.514" height="220.707" filterUnits="userSpaceOnUse" color-interpolation-filters="sRGB">
<feFlood flood-opacity="0" result="BackgroundImageFix"/>
<feColorMatrix in="SourceAlpha" type="matrix" values="0 0 0 0 0 0 0 0 0 0 0 0 0 0 0 0 0 0 127 0" result="hardAlpha"/>
<feOffset dy="8.37236"/>
<feGaussianBlur stdDeviation="3.22014"/>
<feColorMatrix type="matrix" values="0 0 0 0 0 0 0 0 0 0.051 0 0 0 0 0.082 0 0 0 0.7 0"/>
<feBlend mode="multiply" in2="BackgroundImageFix" result="effect1_dropShadow_558_4298"/>
<feColorMatrix in="SourceAlpha" type="matrix" values="0 0 0 0 0 0 0 0 0 0 0 0 0 0 0 0 0 0 127 0" result="hardAlpha"/>
<feOffset dy="9.01638"/>
<feGaussianBlur stdDeviation="5.86065"/>
<feColorMatrix type="matrix" values="0 0 0 0 0 0 0 0 0 0.4 0 0 0 0 1 0 0 0 1 0"/>
<feBlend mode="color-dodge" in2="effect1_dropShadow_558_4298" result="effect2_dropShadow_558_4298"/>
<feBlend mode="normal" in="SourceGraphic" in2="effect2_dropShadow_558_4298" result="shape"/>
<feColorMatrix in="SourceAlpha" type="matrix" values="0 0 0 0 0 0 0 0 0 0 0 0 0 0 0 0 0 0 127 0" result="hardAlpha"/>
<feOffset dx="-0.837236" dy="1.67447"/>
<feGaussianBlur stdDeviation="0.418618"/>
<feComposite in2="hardAlpha" operator="arithmetic" k2="-1" k3="1"/>
<feColorMatrix type="matrix" values="0 0 0 0 1 0 0 0 0 1 0 0 0 0 1 0 0 0 0.5 0"/>
<feBlend mode="normal" in2="shape" result="effect3_innerShadow_558_4298"/>
</filter>
<filter id="filter4_f_558_4298" x="49.4231" y="38.9287" width="196.648" height="199.841" filterUnits="userSpaceOnUse" color-interpolation-filters="sRGB">
<feFlood flood-opacity="0" result="BackgroundImageFix"/>
<feBlend mode="normal" in="SourceGraphic" in2="BackgroundImageFix" result="shape"/>
<feGaussianBlur stdDeviation="0.644027" result="effect1_foregroundBlur_558_4298"/>
</filter>
<filter id="filter5_f_558_4298" x="49.8524" y="39.3581" width="195.789" height="198.982" filterUnits="userSpaceOnUse" color-interpolation-filters="sRGB">
<feFlood flood-opacity="0" result="BackgroundImageFix"/>
<feBlend mode="normal" in="SourceGraphic" in2="BackgroundImageFix" result="shape"/>
<feGaussianBlur stdDeviation="0.429352" result="effect1_foregroundBlur_558_4298"/>
</filter>
</defs>
</svg>
