<svg viewBox="0 0 84 70" fill="none" xmlns="http://www.w3.org/2000/svg">
    <g style="mix-blend-mode:hard-light" filter="url(#filter0_f_474_15127)">
        <path d="M23.2831 23.5505C23.2956 23.5192 23.3098 23.5073 23.3201 23.5007C23.3337 23.492 23.3545 23.4848 23.3802 23.4848C23.406 23.4848 23.4268 23.492 23.4404 23.5007C23.4507 23.5073 23.4649 23.5192 23.4774 23.5505L24.9726 27.2738C25.1823 27.796 25.6725 28.1521 26.234 28.1902L30.2371 28.4616C30.2706 28.4639 30.2864 28.4737 30.2958 28.4815C30.3083 28.4917 30.3216 28.5093 30.3296 28.5337C30.3375 28.5582 30.3371 28.5803 30.333 28.5959C30.3299 28.6077 30.3229 28.6249 30.2971 28.6465L27.2181 31.219C26.7862 31.5799 26.599 32.1561 26.7363 32.7018L27.7152 36.5929C27.7234 36.6255 27.7189 36.6436 27.7145 36.6549C27.7086 36.6699 27.696 36.688 27.6752 36.7032C27.6544 36.7183 27.6332 36.7247 27.6171 36.7256C27.605 36.7263 27.5864 36.725 27.5579 36.7071L24.1598 34.5738C23.6832 34.2745 23.0773 34.2745 22.6007 34.5738L19.2026 36.7071C19.1741 36.725 19.1555 36.7263 19.1434 36.7256C19.1273 36.7247 19.1061 36.7183 19.0853 36.7032C19.0645 36.688 19.0519 36.6699 19.046 36.6549C19.0416 36.6436 19.0371 36.6255 19.0453 36.5929L20.0242 32.7018C20.1615 32.1561 19.9743 31.5799 19.5424 31.219L16.4634 28.6465C16.4376 28.6249 16.4306 28.6077 16.4275 28.5959C16.4234 28.5803 16.423 28.5582 16.4309 28.5337C16.4389 28.5093 16.4522 28.4917 16.4647 28.4815C16.4741 28.4737 16.4899 28.4639 16.5234 28.4616L20.5265 28.1902C21.088 28.1521 21.5782 27.796 21.7879 27.2738L23.2831 23.5505Z" stroke="#6A11D5" stroke-width="1.36142"/>
    </g>
    <g style="mix-blend-mode:hard-light" filter="url(#filter1_f_474_15127)">
        <path d="M21.9823 27.3518L23.3802 23.8705L24.7782 27.3518C25.0179 27.9487 25.5781 28.3556 26.2198 28.3992L29.9627 28.6529L27.0838 31.0583C26.5902 31.4707 26.3763 32.1292 26.5332 32.7529L27.4484 36.3911L24.2712 34.3964C23.7264 34.0544 23.034 34.0544 22.4893 34.3964L19.3121 36.3911L20.2273 32.7529C20.3842 32.1292 20.1703 31.4707 19.6767 31.0583L16.7978 28.6529L20.5407 28.3992C21.1824 28.3556 21.7426 27.9487 21.9823 27.3518Z" stroke="#7936C9" stroke-width="1.78031"/>
    </g>
    <g style="mix-blend-mode:hard-light" filter="url(#filter2_ddi_474_15127)">
        <path d="M23.2831 23.5505C23.2956 23.5192 23.3098 23.5073 23.3201 23.5007C23.3337 23.492 23.3545 23.4848 23.3802 23.4848C23.406 23.4848 23.4268 23.492 23.4404 23.5007C23.4507 23.5073 23.4649 23.5192 23.4774 23.5505L24.9726 27.2738C25.1823 27.796 25.6725 28.1521 26.234 28.1902L30.2371 28.4616C30.2706 28.4639 30.2864 28.4737 30.2958 28.4815C30.3083 28.4917 30.3216 28.5093 30.3296 28.5337C30.3375 28.5582 30.3371 28.5803 30.333 28.5959C30.3299 28.6077 30.3229 28.6249 30.2971 28.6465L27.2181 31.219C26.7862 31.5799 26.599 32.1561 26.7363 32.7018L27.7152 36.5929C27.7234 36.6255 27.7189 36.6436 27.7145 36.6549C27.7086 36.6699 27.696 36.688 27.6752 36.7032C27.6544 36.7183 27.6332 36.7247 27.6171 36.7256C27.605 36.7263 27.5864 36.725 27.5579 36.7071L24.1598 34.5738C23.6832 34.2745 23.0773 34.2745 22.6007 34.5738L19.2026 36.7071C19.1741 36.725 19.1555 36.7263 19.1434 36.7256C19.1273 36.7247 19.1061 36.7183 19.0853 36.7032C19.0645 36.688 19.0519 36.6699 19.046 36.6549C19.0416 36.6436 19.0371 36.6255 19.0453 36.5929L20.0242 32.7018C20.1615 32.1561 19.9743 31.5799 19.5424 31.219L16.4634 28.6465C16.4376 28.6249 16.4306 28.6077 16.4275 28.5959C16.4234 28.5803 16.423 28.5582 16.4309 28.5337C16.4389 28.5093 16.4522 28.4917 16.4647 28.4815C16.4741 28.4737 16.4899 28.4639 16.5234 28.4616L20.5265 28.1902C21.088 28.1521 21.5782 27.796 21.7879 27.2738L23.2831 23.5505Z" stroke="#8620FF" stroke-opacity="0.2" stroke-width="1.36142"/>
    </g>
    <g filter="url(#filter3_f_474_15127)">
        <path d="M23.0401 23.4529C23.1632 23.1463 23.5973 23.1463 23.7204 23.4529L25.2156 27.1762C25.3878 27.6052 25.7904 27.8977 26.2517 27.929L30.2548 28.2004C30.5844 28.2228 30.7185 28.6355 30.465 28.8474L27.386 31.4199C27.0312 31.7163 26.8774 32.1897 26.9902 32.638L27.9691 36.529C28.0497 36.8494 27.6985 37.1045 27.4187 36.9289L24.0206 34.7955C23.6291 34.5497 23.1314 34.5497 22.7399 34.7955L19.3418 36.9289C19.062 37.1045 18.7108 36.8494 18.7914 36.529L19.7703 32.638C19.8831 32.1897 19.7293 31.7163 19.3745 31.4199L16.2955 28.8474C16.042 28.6355 16.1761 28.2228 16.5057 28.2004L20.5088 27.929C20.9701 27.8977 21.3727 27.6052 21.5449 27.1762L23.0401 23.4529Z" stroke="#8620FF" stroke-opacity="0.2" stroke-width="0.837795"/>
    </g>
    <g filter="url(#filter4_f_474_15127)">
        <path d="M22.8458 23.3748C23.0392 22.8931 23.7213 22.8931 23.9147 23.3748L25.4099 27.0981C25.5522 27.4525 25.8848 27.6942 26.2658 27.72L30.2689 27.9914C30.7869 28.0266 30.9977 28.6752 30.5993 29.0081L27.5202 31.5807C27.2272 31.8255 27.1001 32.2165 27.1933 32.5869L28.1722 36.4779C28.2989 36.9814 27.7471 37.3823 27.3074 37.1063L23.9092 34.9729C23.5858 34.7698 23.1747 34.7698 22.8513 34.9729L19.4531 37.1063C19.0134 37.3823 18.4616 36.9814 18.5883 36.4779L19.5672 32.5869C19.6604 32.2165 19.5333 31.8255 19.2403 31.5807L16.1612 29.0081C15.7628 28.6752 15.9736 28.0266 16.4916 27.9914L20.4947 27.72C20.8757 27.6942 21.2083 27.4525 21.3506 27.0981L22.8458 23.3748Z" stroke="white" stroke-width="0.418897"/>
    </g>
    <g style="mix-blend-mode:hard-light" filter="url(#filter5_f_474_15127)">
        <path d="M41.9032 23.5505C41.9157 23.5192 41.93 23.5073 41.9402 23.5007C41.9538 23.492 41.9746 23.4848 42.0004 23.4848C42.0261 23.4848 42.0469 23.492 42.0605 23.5007C42.0708 23.5073 42.085 23.5192 42.0975 23.5505L43.5927 27.2738C43.8024 27.796 44.2926 28.1521 44.8541 28.1902L48.8572 28.4616C48.8907 28.4639 48.9065 28.4737 48.9159 28.4815C48.9284 28.4917 48.9417 28.5093 48.9497 28.5337C48.9576 28.5582 48.9572 28.5803 48.9531 28.5959C48.95 28.6077 48.9431 28.6249 48.9172 28.6465L45.8382 31.219C45.4063 31.5799 45.2191 32.1561 45.3564 32.7018L46.3353 36.5929C46.3435 36.6255 46.339 36.6436 46.3346 36.6549C46.3287 36.6699 46.3161 36.688 46.2953 36.7032C46.2745 36.7183 46.2534 36.7247 46.2373 36.7256C46.2251 36.7263 46.2065 36.725 46.178 36.7071L42.7799 34.5738C42.3033 34.2745 41.6974 34.2745 41.2208 34.5738L37.8227 36.7071C37.7942 36.725 37.7756 36.7263 37.7635 36.7256C37.7474 36.7247 37.7263 36.7183 37.7054 36.7032C37.6846 36.688 37.672 36.6699 37.6662 36.6549C37.6617 36.6436 37.6572 36.6255 37.6654 36.5929L38.6443 32.7018C38.7816 32.1561 38.5944 31.5799 38.1625 31.219L35.0835 28.6465C35.0577 28.6249 35.0507 28.6077 35.0476 28.5959C35.0436 28.5803 35.0431 28.5582 35.051 28.5337C35.059 28.5093 35.0723 28.4917 35.0848 28.4815C35.0942 28.4737 35.11 28.4639 35.1436 28.4616L39.1467 28.1902C39.7081 28.1521 40.1983 27.796 40.408 27.2738L41.9032 23.5505Z" stroke="#6A11D5" stroke-width="1.36142"/>
    </g>
    <g style="mix-blend-mode:hard-light" filter="url(#filter6_f_474_15127)">
        <path d="M40.6024 27.3518L42.0004 23.8705L43.3984 27.3518C43.638 27.9487 44.1982 28.3556 44.8399 28.3992L48.5828 28.6529L45.7039 31.0583C45.2103 31.4707 44.9964 32.1292 45.1533 32.7529L46.0685 36.3911L42.8913 34.3964C42.3466 34.0544 41.6542 34.0544 41.1094 34.3964L37.9322 36.3911L38.8474 32.7529C39.0044 32.1292 38.7904 31.4707 38.2968 31.0583L35.4179 28.6529L39.1608 28.3992C39.8025 28.3556 40.3627 27.9487 40.6024 27.3518Z" stroke="#7936C9" stroke-width="1.78031"/>
    </g>
    <g style="mix-blend-mode:hard-light" filter="url(#filter7_ddi_474_15127)">
        <path d="M41.9032 23.5505C41.9157 23.5192 41.93 23.5073 41.9402 23.5007C41.9538 23.492 41.9746 23.4848 42.0004 23.4848C42.0261 23.4848 42.0469 23.492 42.0605 23.5007C42.0708 23.5073 42.085 23.5192 42.0975 23.5505L43.5927 27.2738C43.8024 27.796 44.2926 28.1521 44.8541 28.1902L48.8572 28.4616C48.8907 28.4639 48.9065 28.4737 48.9159 28.4815C48.9284 28.4917 48.9417 28.5093 48.9497 28.5337C48.9576 28.5582 48.9572 28.5803 48.9531 28.5959C48.95 28.6077 48.9431 28.6249 48.9172 28.6465L45.8382 31.219C45.4063 31.5799 45.2191 32.1561 45.3564 32.7018L46.3353 36.5929C46.3435 36.6255 46.339 36.6436 46.3346 36.6549C46.3287 36.6699 46.3161 36.688 46.2953 36.7032C46.2745 36.7183 46.2534 36.7247 46.2373 36.7256C46.2251 36.7263 46.2065 36.725 46.178 36.7071L42.7799 34.5738C42.3033 34.2745 41.6974 34.2745 41.2208 34.5738L37.8227 36.7071C37.7942 36.725 37.7756 36.7263 37.7635 36.7256C37.7474 36.7247 37.7263 36.7183 37.7054 36.7032C37.6846 36.688 37.672 36.6699 37.6662 36.6549C37.6617 36.6436 37.6572 36.6255 37.6654 36.5929L38.6443 32.7018C38.7816 32.1561 38.5944 31.5799 38.1625 31.219L35.0835 28.6465C35.0577 28.6249 35.0507 28.6077 35.0476 28.5959C35.0436 28.5803 35.0431 28.5582 35.051 28.5337C35.059 28.5093 35.0723 28.4917 35.0848 28.4815C35.0942 28.4737 35.11 28.4639 35.1436 28.4616L39.1467 28.1902C39.7081 28.1521 40.1983 27.796 40.408 27.2738L41.9032 23.5505Z" stroke="#8620FF" stroke-opacity="0.2" stroke-width="1.36142"/>
    </g>
    <g filter="url(#filter8_f_474_15127)">
        <path d="M41.6602 23.4529C41.7834 23.1463 42.2174 23.1463 42.3405 23.4529L43.8357 27.1762C44.0079 27.6052 44.4106 27.8977 44.8718 27.929L48.8749 28.2004C49.2045 28.2228 49.3386 28.6355 49.0851 28.8474L46.0061 31.4199C45.6513 31.7163 45.4975 32.1897 45.6103 32.638L46.5892 36.529C46.6698 36.8494 46.3187 37.1045 46.0388 36.9289L42.6407 34.7955C42.2492 34.5497 41.7515 34.5497 41.36 34.7955L37.9619 36.9289C37.6821 37.1045 37.3309 36.8494 37.4115 36.529L38.3904 32.638C38.5032 32.1897 38.3494 31.7163 37.9947 31.4199L34.9156 28.8474C34.6621 28.6355 34.7962 28.2228 35.1258 28.2004L39.1289 27.929C39.5902 27.8977 39.9928 27.6052 40.1651 27.1762L41.6602 23.4529Z" stroke="#8620FF" stroke-opacity="0.2" stroke-width="0.837795"/>
    </g>
    <g filter="url(#filter9_f_474_15127)">
        <path d="M41.4659 23.3748C41.6593 22.8931 42.3414 22.8931 42.5349 23.3748L44.03 27.0981C44.1723 27.4525 44.5049 27.6942 44.886 27.72L48.8891 27.9914C49.4071 28.0266 49.6178 28.6752 49.2194 29.0081L46.1404 31.5807C45.8473 31.8255 45.7203 32.2165 45.8134 32.5869L46.7923 36.4779C46.919 36.9814 46.3672 37.3823 45.9275 37.1063L42.5294 34.9729C42.2059 34.7698 41.7948 34.7698 41.4714 34.9729L38.0733 37.1063C37.6335 37.3823 37.0818 36.9814 37.2084 36.4779L38.1873 32.5869C38.2805 32.2165 38.1534 31.8255 37.8604 31.5807L34.7813 29.0081C34.3829 28.6752 34.5937 28.0266 35.1117 27.9914L39.1148 27.72C39.4958 27.6942 39.8284 27.4525 39.9707 27.0981L41.4659 23.3748Z" stroke="white" stroke-width="0.418897"/>
    </g>
    <g style="mix-blend-mode:hard-light" filter="url(#filter10_f_474_15127)">
        <path d="M60.5228 23.5505C60.5353 23.5192 60.5496 23.5073 60.5598 23.5007C60.5734 23.492 60.5943 23.4848 60.62 23.4848C60.6457 23.4848 60.6666 23.492 60.6801 23.5007C60.6904 23.5073 60.7046 23.5192 60.7172 23.5505L62.2124 27.2738C62.4221 27.796 62.9122 28.1521 63.4737 28.1902L67.4768 28.4616C67.5104 28.4639 67.5262 28.4737 67.5356 28.4815C67.548 28.4917 67.5614 28.5093 67.5693 28.5337C67.5773 28.5582 67.5768 28.5803 67.5727 28.5959C67.5697 28.6077 67.5627 28.6249 67.5369 28.6465L64.4578 31.219C64.026 31.5799 63.8387 32.1561 63.976 32.7018L64.9549 36.5929C64.9631 36.6255 64.9586 36.6436 64.9542 36.6549C64.9483 36.6699 64.9357 36.688 64.9149 36.7032C64.8941 36.7183 64.873 36.7247 64.8569 36.7256C64.8447 36.7263 64.8262 36.725 64.7977 36.7071L61.3996 34.5738C60.9229 34.2745 60.3171 34.2745 59.8404 34.5738L56.4423 36.7071C56.4138 36.725 56.3953 36.7263 56.3831 36.7256C56.367 36.7247 56.3459 36.7183 56.3251 36.7032C56.3043 36.688 56.2917 36.6699 56.2858 36.6549C56.2813 36.6436 56.2769 36.6255 56.2851 36.5929L57.264 32.7018C57.4013 32.1561 57.214 31.5799 56.7822 31.219L53.7031 28.6465C53.6773 28.6249 53.6703 28.6077 53.6672 28.5959C53.6632 28.5803 53.6627 28.5582 53.6707 28.5337C53.6786 28.5093 53.692 28.4917 53.7044 28.4815C53.7138 28.4737 53.7296 28.4639 53.7632 28.4616L57.7663 28.1902C58.3278 28.1521 58.8179 27.796 59.0276 27.2738L60.5228 23.5505Z" stroke="#6A11D5" stroke-width="1.36142"/>
    </g>
    <g style="mix-blend-mode:hard-light" filter="url(#filter11_f_474_15127)">
        <path d="M59.222 27.3518L60.62 23.8705L62.018 27.3518C62.2577 27.9487 62.8178 28.3556 63.4595 28.3992L67.2024 28.6529L64.3235 31.0583C63.83 31.4707 63.616 32.1292 63.7729 32.7529L64.6882 36.3911L61.5109 34.3964C60.9662 34.0544 60.2738 34.0544 59.7291 34.3964L56.5518 36.3911L57.4671 32.7529C57.624 32.1292 57.41 31.4707 56.9164 31.0583L54.0375 28.6529L57.7805 28.3992C58.4222 28.3556 58.9823 27.9487 59.222 27.3518Z" stroke="#7936C9" stroke-width="1.78031"/>
    </g>
    <g style="mix-blend-mode:hard-light" filter="url(#filter12_ddi_474_15127)">
        <path d="M60.5228 23.5505C60.5353 23.5192 60.5496 23.5073 60.5598 23.5007C60.5734 23.492 60.5943 23.4848 60.62 23.4848C60.6457 23.4848 60.6666 23.492 60.6801 23.5007C60.6904 23.5073 60.7046 23.5192 60.7172 23.5505L62.2124 27.2738C62.4221 27.796 62.9122 28.1521 63.4737 28.1902L67.4768 28.4616C67.5104 28.4639 67.5262 28.4737 67.5356 28.4815C67.548 28.4917 67.5614 28.5093 67.5693 28.5337C67.5773 28.5582 67.5768 28.5803 67.5727 28.5959C67.5697 28.6077 67.5627 28.6249 67.5369 28.6465L64.4578 31.219C64.026 31.5799 63.8387 32.1561 63.976 32.7018L64.9549 36.5929C64.9631 36.6255 64.9586 36.6436 64.9542 36.6549C64.9483 36.6699 64.9357 36.688 64.9149 36.7032C64.8941 36.7183 64.873 36.7247 64.8569 36.7256C64.8447 36.7263 64.8262 36.725 64.7977 36.7071L61.3996 34.5738C60.9229 34.2745 60.3171 34.2745 59.8404 34.5738L56.4423 36.7071C56.4138 36.725 56.3953 36.7263 56.3831 36.7256C56.367 36.7247 56.3459 36.7183 56.3251 36.7032C56.3043 36.688 56.2917 36.6699 56.2858 36.6549C56.2813 36.6436 56.2769 36.6255 56.2851 36.5929L57.264 32.7018C57.4013 32.1561 57.214 31.5799 56.7822 31.219L53.7031 28.6465C53.6773 28.6249 53.6703 28.6077 53.6672 28.5959C53.6632 28.5803 53.6627 28.5582 53.6707 28.5337C53.6786 28.5093 53.692 28.4917 53.7044 28.4815C53.7138 28.4737 53.7296 28.4639 53.7632 28.4616L57.7663 28.1902C58.3278 28.1521 58.8179 27.796 59.0276 27.2738L60.5228 23.5505Z" stroke="#8620FF" stroke-opacity="0.2" stroke-width="1.36142"/>
    </g>
    <g filter="url(#filter13_f_474_15127)">
        <path d="M60.2799 23.4529C60.403 23.1463 60.837 23.1463 60.9601 23.4529L62.4553 27.1762C62.6276 27.6052 63.0302 27.8977 63.4914 27.929L67.4945 28.2004C67.8242 28.2228 67.9583 28.6355 67.7047 28.8474L64.6257 31.4199C64.2709 31.7163 64.1172 32.1897 64.2299 32.638L65.2088 36.529C65.2894 36.8494 64.9383 37.1045 64.6585 36.9289L61.2603 34.7955C60.8688 34.5497 60.3712 34.5497 59.9796 34.7955L56.5815 36.9289C56.3017 37.1045 55.9506 36.8494 56.0312 36.529L57.0101 32.638C57.1228 32.1897 56.969 31.7163 56.6143 31.4199L53.5353 28.8474C53.2817 28.6355 53.4158 28.2228 53.7455 28.2004L57.7486 27.929C58.2098 27.8977 58.6124 27.6052 58.7847 27.1762L60.2799 23.4529Z" stroke="#8620FF" stroke-opacity="0.2" stroke-width="0.837795"/>
    </g>
    <g filter="url(#filter14_f_474_15127)">
        <path d="M60.0855 23.3748C60.279 22.8931 60.961 22.8931 61.1545 23.3748L62.6497 27.0981C62.792 27.4525 63.1246 27.6942 63.5056 27.72L67.5087 27.9914C68.0267 28.0266 68.2375 28.6752 67.839 29.0081L64.76 31.5807C64.4669 31.8255 64.3399 32.2165 64.4331 32.5869L65.4119 36.4779C65.5386 36.9814 64.9868 37.3823 64.5471 37.1063L61.149 34.9729C60.8256 34.7698 60.4144 34.7698 60.091 34.9729L56.6929 37.1063C56.2532 37.3823 55.7014 36.9814 55.8281 36.4779L56.8069 32.5869C56.9001 32.2165 56.7731 31.8255 56.48 31.5807L53.401 29.0081C53.0025 28.6752 53.2133 28.0266 53.7313 27.9914L57.7344 27.72C58.1154 27.6942 58.448 27.4525 58.5903 27.0981L60.0855 23.3748Z" stroke="white" stroke-width="0.418897"/>
    </g>
    <g style="mix-blend-mode:hard-light" filter="url(#filter15_f_474_15127)">
        <path d="M13.973 4.93059C13.9855 4.89938 13.9998 4.8874 14.01 4.88084C14.0236 4.87214 14.0445 4.86489 14.0702 4.86489C14.0959 4.86489 14.1167 4.87214 14.1303 4.88084C14.1406 4.8874 14.1548 4.89938 14.1674 4.93059L15.6625 8.65389C15.8723 9.17613 16.3624 9.53225 16.9239 9.57032L20.927 9.84175C20.9606 9.84402 20.9764 9.85386 20.9858 9.86159C20.9982 9.87183 21.0116 9.8894 21.0195 9.91387C21.0275 9.93834 21.027 9.96039 21.0229 9.976C21.0199 9.98779 21.0129 10.005 20.9871 10.0266L17.908 12.5992C17.4762 12.96 17.2889 13.5362 17.4262 14.082L18.4051 17.973C18.4133 18.0056 18.4088 18.0237 18.4044 18.035C18.3985 18.0501 18.3859 18.0682 18.3651 18.0833C18.3443 18.0984 18.3232 18.1048 18.3071 18.1058C18.2949 18.1065 18.2764 18.1051 18.2479 18.0873L14.8498 15.9539C14.3731 15.6547 13.7673 15.6547 13.2906 15.9539L9.89251 18.0873C9.86402 18.1051 9.84546 18.1065 9.83331 18.1058C9.8172 18.1048 9.79608 18.0984 9.77527 18.0833C9.75446 18.0682 9.74187 18.0501 9.73598 18.035C9.73154 18.0237 9.72706 18.0056 9.73527 17.973L10.7141 14.082C10.8514 13.5362 10.6642 12.96 10.2324 12.5992L7.15332 10.0266C7.12751 10.005 7.12051 9.98779 7.11744 9.97601C7.11337 9.96039 7.11291 9.93834 7.12086 9.91387C7.12881 9.8894 7.14215 9.87183 7.15462 9.86159C7.16403 9.85386 7.17982 9.84402 7.21338 9.84175L11.2165 9.57032C11.778 9.53225 12.2681 9.17613 12.4778 8.65389L13.973 4.93059Z" stroke="#6A11D5" stroke-width="1.36142"/>
    </g>
    <g style="mix-blend-mode:hard-light" filter="url(#filter16_f_474_15127)">
        <path d="M12.6722 8.73194L14.0702 5.25064L15.4682 8.73194C15.7079 9.32879 16.268 9.73578 16.9097 9.77929L20.6526 10.0331L17.7737 12.4384C17.2802 12.8508 17.0662 13.5093 17.2231 14.1331L18.1384 17.7712L14.9611 15.7765C14.4164 15.4345 13.724 15.4345 13.1793 15.7765L10.002 17.7712L10.9173 14.1331C11.0742 13.5093 10.8602 12.8508 10.3666 12.4384L7.48774 10.0331L11.2307 9.77929C11.8724 9.73578 12.4325 9.32879 12.6722 8.73194Z" stroke="#7936C9" stroke-width="1.78031"/>
    </g>
    <g style="mix-blend-mode:hard-light" filter="url(#filter17_ddi_474_15127)">
        <path d="M13.973 4.93059C13.9855 4.89938 13.9998 4.8874 14.01 4.88084C14.0236 4.87214 14.0445 4.86489 14.0702 4.86489C14.0959 4.86489 14.1167 4.87214 14.1303 4.88084C14.1406 4.8874 14.1548 4.89938 14.1674 4.93059L15.6625 8.65389C15.8723 9.17613 16.3624 9.53225 16.9239 9.57032L20.927 9.84175C20.9606 9.84402 20.9764 9.85386 20.9858 9.86159C20.9982 9.87183 21.0116 9.8894 21.0195 9.91387C21.0275 9.93834 21.027 9.96039 21.0229 9.976C21.0199 9.98779 21.0129 10.005 20.9871 10.0266L17.908 12.5992C17.4762 12.96 17.2889 13.5362 17.4262 14.082L18.4051 17.973C18.4133 18.0056 18.4088 18.0237 18.4044 18.035C18.3985 18.0501 18.3859 18.0682 18.3651 18.0833C18.3443 18.0984 18.3232 18.1048 18.3071 18.1058C18.2949 18.1065 18.2764 18.1051 18.2479 18.0873L14.8498 15.9539C14.3731 15.6547 13.7673 15.6547 13.2906 15.9539L9.89251 18.0873C9.86402 18.1051 9.84546 18.1065 9.83331 18.1058C9.8172 18.1048 9.79608 18.0984 9.77527 18.0833C9.75446 18.0682 9.74187 18.0501 9.73598 18.035C9.73154 18.0237 9.72706 18.0056 9.73527 17.973L10.7141 14.082C10.8514 13.5362 10.6642 12.96 10.2324 12.5992L7.15332 10.0266C7.12751 10.005 7.12051 9.98779 7.11744 9.97601C7.11337 9.96039 7.11291 9.93834 7.12086 9.91387C7.12881 9.8894 7.14215 9.87183 7.15462 9.86159C7.16403 9.85386 7.17982 9.84402 7.21338 9.84175L11.2165 9.57032C11.778 9.53225 12.2681 9.17613 12.4778 8.65389L13.973 4.93059Z" stroke="#8620FF" stroke-opacity="0.2" stroke-width="1.36142"/>
    </g>
    <g filter="url(#filter18_f_474_15127)">
        <path d="M13.7301 4.83303C13.8532 4.52643 14.2872 4.52643 14.4103 4.83303L15.9055 8.55633C16.0778 8.98531 16.4804 9.27783 16.9416 9.30911L20.9447 9.58054C21.2743 9.60289 21.4085 10.0157 21.1549 10.2275L18.0759 12.8001C17.7211 13.0965 17.5674 13.5698 17.6801 14.0181L18.659 17.9091C18.7396 18.2296 18.3885 18.4847 18.1087 18.309L14.7105 16.1756C14.319 15.9298 13.8214 15.9298 13.4298 16.1756L10.0317 18.309C9.7519 18.4847 9.40076 18.2296 9.48137 17.9091L10.4602 14.0181C10.573 13.5698 10.4192 13.0965 10.0645 12.8001L6.98545 10.2275C6.73191 10.0157 6.86603 9.60289 7.19567 9.58054L11.1988 9.30911C11.66 9.27783 12.0626 8.98531 12.2349 8.55633L13.7301 4.83303Z" stroke="#8620FF" stroke-opacity="0.2" stroke-width="0.837795"/>
    </g>
    <g filter="url(#filter19_f_474_15127)">
        <path d="M13.5357 4.75498C13.7292 4.27318 14.4112 4.27318 14.6047 4.75497L16.0999 8.47828C16.2422 8.83266 16.5748 9.0743 16.9558 9.10014L20.9589 9.37157C21.4769 9.40669 21.6876 10.0554 21.2892 10.3882L18.2102 12.9608C17.9171 13.2057 17.7901 13.5966 17.8833 13.967L18.8621 17.858C18.9888 18.3615 18.437 18.7624 17.9973 18.4864L14.5992 16.353C14.2757 16.15 13.8646 16.15 13.5412 16.353L10.1431 18.4864C9.70337 18.7624 9.15158 18.3615 9.27825 17.858L10.2571 13.967C10.3503 13.5966 10.2233 13.2057 9.93019 12.9608L6.85116 10.3882C6.45273 10.0554 6.6635 9.40669 7.1815 9.37157L11.1846 9.10014C11.5656 9.0743 11.8982 8.83266 12.0405 8.47828L13.5357 4.75498Z" stroke="white" stroke-width="0.418897"/>
    </g>
    <g style="mix-blend-mode:hard-light" filter="url(#filter20_f_474_15127)">
        <path d="M32.5926 4.93059C32.6052 4.89938 32.6194 4.8874 32.6297 4.88084C32.6433 4.87214 32.6641 4.86489 32.6898 4.86489C32.7155 4.86489 32.7364 4.87214 32.75 4.88084C32.7602 4.8874 32.7745 4.89938 32.787 4.93059L34.2822 8.65389C34.4919 9.17613 34.982 9.53225 35.5435 9.57032L39.5466 9.84175C39.5802 9.84402 39.596 9.85386 39.6054 9.86159C39.6179 9.87183 39.6312 9.8894 39.6391 9.91387C39.6471 9.93834 39.6466 9.96039 39.6426 9.976C39.6395 9.98779 39.6325 10.005 39.6067 10.0266L36.5277 12.5992C36.0958 12.96 35.9086 13.5362 36.0459 14.082L37.0247 17.973C37.033 18.0056 37.0285 18.0237 37.024 18.035C37.0181 18.0501 37.0056 18.0682 36.9847 18.0833C36.9639 18.0984 36.9428 18.1048 36.9267 18.1058C36.9145 18.1065 36.896 18.1051 36.8675 18.0873L33.4694 15.9539C32.9927 15.6547 32.3869 15.6547 31.9103 15.9539L28.5121 18.0873C28.4837 18.1051 28.4651 18.1065 28.4529 18.1058C28.4368 18.1048 28.4157 18.0984 28.3949 18.0833C28.3741 18.0682 28.3615 18.0501 28.3556 18.035C28.3512 18.0237 28.3467 18.0056 28.3549 17.973L29.3338 14.082C29.4711 13.5362 29.2839 12.96 28.852 12.5992L25.7729 10.0266C25.7471 10.005 25.7401 9.98779 25.7371 9.97601C25.733 9.96039 25.7325 9.93834 25.7405 9.91387C25.7484 9.8894 25.7618 9.87183 25.7742 9.86159C25.7837 9.85386 25.7994 9.84402 25.833 9.84175L29.8361 9.57032C30.3976 9.53225 30.8877 9.17613 31.0975 8.65389L32.5926 4.93059Z" stroke="#6A11D5" stroke-width="1.36142"/>
    </g>
    <g style="mix-blend-mode:hard-light" filter="url(#filter21_f_474_15127)">
        <path d="M31.2918 8.73194L32.6898 5.25064L34.0878 8.73194C34.3275 9.32879 34.8877 9.73578 35.5294 9.77929L39.2723 10.0331L36.3934 12.4384C35.8998 12.8508 35.6858 13.5093 35.8427 14.1331L36.758 17.7712L33.5807 15.7765C33.036 15.4345 32.3436 15.4345 31.7989 15.7765L28.6216 17.7712L29.5369 14.1331C29.6938 13.5093 29.4798 12.8508 28.9863 12.4384L26.1074 10.0331L29.8503 9.77929C30.492 9.73578 31.0521 9.32879 31.2918 8.73194Z" stroke="#7936C9" stroke-width="1.78031"/>
    </g>
    <g style="mix-blend-mode:hard-light" filter="url(#filter22_ddi_474_15127)">
        <path d="M32.5926 4.93059C32.6052 4.89938 32.6194 4.8874 32.6297 4.88084C32.6433 4.87214 32.6641 4.86489 32.6898 4.86489C32.7155 4.86489 32.7364 4.87214 32.75 4.88084C32.7602 4.8874 32.7745 4.89938 32.787 4.93059L34.2822 8.65389C34.4919 9.17613 34.982 9.53225 35.5435 9.57032L39.5466 9.84175C39.5802 9.84402 39.596 9.85386 39.6054 9.86159C39.6179 9.87183 39.6312 9.8894 39.6391 9.91387C39.6471 9.93834 39.6466 9.96039 39.6426 9.976C39.6395 9.98779 39.6325 10.005 39.6067 10.0266L36.5277 12.5992C36.0958 12.96 35.9086 13.5362 36.0459 14.082L37.0247 17.973C37.033 18.0056 37.0285 18.0237 37.024 18.035C37.0181 18.0501 37.0056 18.0682 36.9847 18.0833C36.9639 18.0984 36.9428 18.1048 36.9267 18.1058C36.9145 18.1065 36.896 18.1051 36.8675 18.0873L33.4694 15.9539C32.9927 15.6547 32.3869 15.6547 31.9103 15.9539L28.5121 18.0873C28.4837 18.1051 28.4651 18.1065 28.4529 18.1058C28.4368 18.1048 28.4157 18.0984 28.3949 18.0833C28.3741 18.0682 28.3615 18.0501 28.3556 18.035C28.3512 18.0237 28.3467 18.0056 28.3549 17.973L29.3338 14.082C29.4711 13.5362 29.2839 12.96 28.852 12.5992L25.7729 10.0266C25.7471 10.005 25.7401 9.98779 25.7371 9.97601C25.733 9.96039 25.7325 9.93834 25.7405 9.91387C25.7484 9.8894 25.7618 9.87183 25.7742 9.86159C25.7837 9.85386 25.7994 9.84402 25.833 9.84175L29.8361 9.57032C30.3976 9.53225 30.8877 9.17613 31.0975 8.65389L32.5926 4.93059Z" stroke="#8620FF" stroke-opacity="0.2" stroke-width="1.36142"/>
    </g>
    <g filter="url(#filter23_f_474_15127)">
        <path d="M32.3497 4.83303C32.4728 4.52643 32.9068 4.52643 33.03 4.83303L34.5251 8.55633C34.6974 8.98531 35.1 9.27783 35.5612 9.30911L39.5643 9.58054C39.894 9.60289 40.0281 10.0157 39.7746 10.2275L36.6955 12.8001C36.3408 13.0965 36.187 13.5698 36.2998 14.0181L37.2786 17.9091C37.3593 18.2296 37.0081 18.4847 36.7283 18.309L33.3302 16.1756C32.9387 15.9298 32.441 15.9298 32.0495 16.1756L28.6513 18.309C28.3715 18.4847 28.0204 18.2296 28.101 17.9091L29.0799 14.0181C29.1927 13.5698 29.0389 13.0965 28.6841 12.8001L25.6051 10.2275C25.3515 10.0157 25.4857 9.60289 25.8153 9.58054L29.8184 9.30911C30.2796 9.27783 30.6822 8.98531 30.8545 8.55633L32.3497 4.83303Z" stroke="#8620FF" stroke-opacity="0.2" stroke-width="0.837795"/>
    </g>
    <g filter="url(#filter24_f_474_15127)">
        <path d="M32.1553 4.75498C32.3488 4.27318 33.0308 4.27318 33.2243 4.75497L34.7195 8.47828C34.8618 8.83266 35.1944 9.0743 35.5754 9.10014L39.5785 9.37157C40.0965 9.40669 40.3073 10.0554 39.9088 10.3882L36.8298 12.9608C36.5368 13.2057 36.4097 13.5966 36.5029 13.967L37.4818 17.858C37.6084 18.3615 37.0566 18.7624 36.6169 18.4864L33.2188 16.353C32.8954 16.15 32.4843 16.15 32.1608 16.353L28.7627 18.4864C28.323 18.7624 27.7712 18.3615 27.8979 17.858L28.8768 13.967C28.9699 13.5966 28.8429 13.2057 28.5498 12.9608L25.4708 10.3882C25.0724 10.0554 25.2831 9.40669 25.8011 9.37157L29.8042 9.10014C30.1852 9.0743 30.5178 8.83266 30.6601 8.47828L32.1553 4.75498Z" stroke="white" stroke-width="0.418897"/>
    </g>
    <g style="mix-blend-mode:hard-light" filter="url(#filter25_f_474_15127)">
        <path d="M51.2128 4.93059C51.2253 4.89938 51.2395 4.8874 51.2498 4.88084C51.2634 4.87214 51.2842 4.86489 51.3099 4.86489C51.3357 4.86489 51.3565 4.87214 51.3701 4.88084C51.3803 4.8874 51.3946 4.89938 51.4071 4.93059L52.9023 8.65389C53.112 9.17613 53.6022 9.53225 54.1636 9.57032L58.1667 9.84175C58.2003 9.84402 58.2161 9.85386 58.2255 9.86159C58.238 9.87183 58.2513 9.8894 58.2593 9.91387C58.2672 9.93834 58.2668 9.96039 58.2627 9.976C58.2596 9.98779 58.2526 10.005 58.2268 10.0266L55.1478 12.5992C54.7159 12.96 54.5287 13.5362 54.666 14.082L55.6449 17.973C55.6531 18.0056 55.6486 18.0237 55.6441 18.035C55.6383 18.0501 55.6257 18.0682 55.6049 18.0833C55.584 18.0984 55.5629 18.1048 55.5468 18.1058C55.5347 18.1065 55.5161 18.1051 55.4876 18.0873L52.0895 15.9539C51.6129 15.6547 51.007 15.6547 50.5304 15.9539L47.1323 18.0873C47.1038 18.1051 47.0852 18.1065 47.0731 18.1058C47.0569 18.1048 47.0358 18.0984 47.015 18.0833C46.9942 18.0682 46.9816 18.0501 46.9757 18.035C46.9713 18.0237 46.9668 18.0056 46.975 17.973L47.9539 14.082C48.0912 13.5362 47.904 12.96 47.4721 12.5992L44.3931 10.0266C44.3673 10.005 44.3603 9.98779 44.3572 9.97601C44.3531 9.96039 44.3527 9.93834 44.3606 9.91387C44.3686 9.8894 44.3819 9.87183 44.3944 9.86159C44.4038 9.85386 44.4196 9.84402 44.4531 9.84175L48.4562 9.57032C49.0177 9.53225 49.5079 9.17613 49.7176 8.65389L51.2128 4.93059Z" stroke="#6A11D5" stroke-width="1.36142"/>
    </g>
    <g style="mix-blend-mode:hard-light" filter="url(#filter26_f_474_15127)">
        <path d="M49.9119 8.73194L51.3099 5.25064L52.7079 8.73194C52.9476 9.32879 53.5078 9.73578 54.1495 9.77929L57.8924 10.0331L55.0135 12.4384C54.5199 12.8508 54.3059 13.5093 54.4629 14.1331L55.3781 17.7712L52.2009 15.7765C51.6561 15.4345 50.9637 15.4345 50.419 15.7765L47.2418 17.7712L48.157 14.1331C48.3139 13.5093 48.1 12.8508 47.6064 12.4384L44.7275 10.0331L48.4704 9.77929C49.1121 9.73578 49.6723 9.32879 49.9119 8.73194Z" stroke="#7936C9" stroke-width="1.78031"/>
    </g>
    <g style="mix-blend-mode:hard-light" filter="url(#filter27_ddi_474_15127)">
        <path d="M51.2128 4.93059C51.2253 4.89938 51.2395 4.8874 51.2498 4.88084C51.2634 4.87214 51.2842 4.86489 51.3099 4.86489C51.3357 4.86489 51.3565 4.87214 51.3701 4.88084C51.3803 4.8874 51.3946 4.89938 51.4071 4.93059L52.9023 8.65389C53.112 9.17613 53.6022 9.53225 54.1636 9.57032L58.1667 9.84175C58.2003 9.84402 58.2161 9.85386 58.2255 9.86159C58.238 9.87183 58.2513 9.8894 58.2593 9.91387C58.2672 9.93834 58.2668 9.96039 58.2627 9.976C58.2596 9.98779 58.2526 10.005 58.2268 10.0266L55.1478 12.5992C54.7159 12.96 54.5287 13.5362 54.666 14.082L55.6449 17.973C55.6531 18.0056 55.6486 18.0237 55.6441 18.035C55.6383 18.0501 55.6257 18.0682 55.6049 18.0833C55.584 18.0984 55.5629 18.1048 55.5468 18.1058C55.5347 18.1065 55.5161 18.1051 55.4876 18.0873L52.0895 15.9539C51.6129 15.6547 51.007 15.6547 50.5304 15.9539L47.1323 18.0873C47.1038 18.1051 47.0852 18.1065 47.0731 18.1058C47.0569 18.1048 47.0358 18.0984 47.015 18.0833C46.9942 18.0682 46.9816 18.0501 46.9757 18.035C46.9713 18.0237 46.9668 18.0056 46.975 17.973L47.9539 14.082C48.0912 13.5362 47.904 12.96 47.4721 12.5992L44.3931 10.0266C44.3673 10.005 44.3603 9.98779 44.3572 9.97601C44.3531 9.96039 44.3527 9.93834 44.3606 9.91387C44.3686 9.8894 44.3819 9.87183 44.3944 9.86159C44.4038 9.85386 44.4196 9.84402 44.4531 9.84175L48.4562 9.57032C49.0177 9.53225 49.5079 9.17613 49.7176 8.65389L51.2128 4.93059Z" stroke="#8620FF" stroke-opacity="0.2" stroke-width="1.36142"/>
    </g>
    <g filter="url(#filter28_f_474_15127)">
        <path d="M50.9698 4.83303C51.0929 4.52643 51.527 4.52643 51.6501 4.83303L53.1452 8.55633C53.3175 8.98531 53.7201 9.27783 54.1814 9.30911L58.1845 9.58054C58.5141 9.60289 58.6482 10.0157 58.3947 10.2275L55.3156 12.8001C54.9609 13.0965 54.8071 13.5698 54.9199 14.0181L55.8988 17.9091C55.9794 18.2296 55.6282 18.4847 55.3484 18.309L51.9503 16.1756C51.5588 15.9298 51.0611 15.9298 50.6696 16.1756L47.2715 18.309C46.9916 18.4847 46.6405 18.2296 46.7211 17.9091L47.7 14.0181C47.8128 13.5698 47.659 13.0965 47.3042 12.8001L44.2252 10.2275C43.9717 10.0157 44.1058 9.60289 44.4354 9.58054L48.4385 9.30911C48.8997 9.27783 49.3024 8.98531 49.4746 8.55633L50.9698 4.83303Z" stroke="#8620FF" stroke-opacity="0.2" stroke-width="0.837795"/>
    </g>
    <g filter="url(#filter29_f_474_15127)">
        <path d="M50.7754 4.75498C50.9689 4.27318 51.651 4.27318 51.8444 4.75497L53.3396 8.47828C53.4819 8.83266 53.8145 9.0743 54.1955 9.10014L58.1986 9.37157C58.7166 9.40669 58.9274 10.0554 58.529 10.3882L55.4499 12.9608C55.1569 13.2057 55.0298 13.5966 55.123 13.967L56.1019 17.858C56.2285 18.3615 55.6768 18.7624 55.237 18.4864L51.8389 16.353C51.5155 16.15 51.1044 16.15 50.7809 16.353L47.3828 18.4864C46.9431 18.7624 46.3913 18.3615 46.518 17.858L47.4969 13.967C47.59 13.5966 47.463 13.2057 47.1699 12.9608L44.0909 10.3882C43.6925 10.0554 43.9032 9.40669 44.4212 9.37157L48.4243 9.10014C48.8054 9.0743 49.138 8.83266 49.2803 8.47828L50.7754 4.75498Z" stroke="white" stroke-width="0.418897"/>
    </g>
    <g style="mix-blend-mode:hard-light" filter="url(#filter30_f_474_15127)">
        <path d="M69.8329 4.93059C69.8454 4.89938 69.8596 4.8874 69.8699 4.88084C69.8835 4.87214 69.9043 4.86489 69.9301 4.86489C69.9558 4.86489 69.9766 4.87214 69.9902 4.88084C70.0005 4.8874 70.0147 4.89938 70.0272 4.93059L71.5224 8.65389C71.7321 9.17613 72.2223 9.53225 72.7838 9.57032L76.7869 9.84175C76.8204 9.84402 76.8362 9.85386 76.8456 9.86159C76.8581 9.87183 76.8714 9.8894 76.8794 9.91387C76.8873 9.93834 76.8869 9.96039 76.8828 9.976C76.8797 9.98779 76.8727 10.005 76.8469 10.0266L73.7679 12.5992C73.336 12.96 73.1488 13.5362 73.2861 14.082L74.265 17.973C74.2732 18.0056 74.2687 18.0237 74.2643 18.035C74.2584 18.0501 74.2458 18.0682 74.225 18.0833C74.2042 18.0984 74.183 18.1048 74.1669 18.1058C74.1548 18.1065 74.1362 18.1051 74.1077 18.0873L70.7096 15.9539C70.233 15.6547 69.6271 15.6547 69.1505 15.9539L65.7524 18.0873C65.7239 18.1051 65.7053 18.1065 65.6932 18.1058C65.6771 18.1048 65.6559 18.0984 65.6351 18.0833C65.6143 18.0682 65.6017 18.0501 65.5958 18.035C65.5914 18.0237 65.5869 18.0056 65.5951 17.973L66.574 14.082C66.7113 13.5362 66.5241 12.96 66.0922 12.5992L63.0132 10.0266C62.9874 10.005 62.9804 9.98779 62.9773 9.97601C62.9732 9.96039 62.9728 9.93834 62.9807 9.91387C62.9887 9.8894 63.002 9.87183 63.0145 9.86159C63.0239 9.85386 63.0397 9.84402 63.0732 9.84175L67.0763 9.57032C67.6378 9.53225 68.128 9.17613 68.3377 8.65389L69.8329 4.93059Z" stroke="#6A11D5" stroke-width="1.36142"/>
    </g>
    <g style="mix-blend-mode:hard-light" filter="url(#filter31_f_474_15127)">
        <path d="M68.5321 8.73194L69.9301 5.25064L71.328 8.73194C71.5677 9.32879 72.1279 9.73578 72.7696 9.77929L76.5125 10.0331L73.6336 12.4384C73.14 12.8508 72.9261 13.5093 73.083 14.1331L73.9982 17.7712L70.821 15.7765C70.2763 15.4345 69.5839 15.4345 69.0391 15.7765L65.8619 17.7712L66.7771 14.1331C66.934 13.5093 66.7201 12.8508 66.2265 12.4384L63.3476 10.0331L67.0905 9.77929C67.7322 9.73578 68.2924 9.32879 68.5321 8.73194Z" stroke="#7936C9" stroke-width="1.78031"/>
    </g>
    <g style="mix-blend-mode:hard-light" filter="url(#filter32_ddi_474_15127)">
        <path d="M69.8329 4.93059C69.8454 4.89938 69.8596 4.8874 69.8699 4.88084C69.8835 4.87214 69.9043 4.86489 69.9301 4.86489C69.9558 4.86489 69.9766 4.87214 69.9902 4.88084C70.0005 4.8874 70.0147 4.89938 70.0272 4.93059L71.5224 8.65389C71.7321 9.17613 72.2223 9.53225 72.7838 9.57032L76.7869 9.84175C76.8204 9.84402 76.8362 9.85386 76.8456 9.86159C76.8581 9.87183 76.8714 9.8894 76.8794 9.91387C76.8873 9.93834 76.8869 9.96039 76.8828 9.976C76.8797 9.98779 76.8727 10.005 76.8469 10.0266L73.7679 12.5992C73.336 12.96 73.1488 13.5362 73.2861 14.082L74.265 17.973C74.2732 18.0056 74.2687 18.0237 74.2643 18.035C74.2584 18.0501 74.2458 18.0682 74.225 18.0833C74.2042 18.0984 74.183 18.1048 74.1669 18.1058C74.1548 18.1065 74.1362 18.1051 74.1077 18.0873L70.7096 15.9539C70.233 15.6547 69.6271 15.6547 69.1505 15.9539L65.7524 18.0873C65.7239 18.1051 65.7053 18.1065 65.6932 18.1058C65.6771 18.1048 65.6559 18.0984 65.6351 18.0833C65.6143 18.0682 65.6017 18.0501 65.5958 18.035C65.5914 18.0237 65.5869 18.0056 65.5951 17.973L66.574 14.082C66.7113 13.5362 66.5241 12.96 66.0922 12.5992L63.0132 10.0266C62.9874 10.005 62.9804 9.98779 62.9773 9.97601C62.9732 9.96039 62.9728 9.93834 62.9807 9.91387C62.9887 9.8894 63.002 9.87183 63.0145 9.86159C63.0239 9.85386 63.0397 9.84402 63.0732 9.84175L67.0763 9.57032C67.6378 9.53225 68.128 9.17613 68.3377 8.65389L69.8329 4.93059Z" stroke="#8620FF" stroke-opacity="0.2" stroke-width="1.36142"/>
    </g>
    <g filter="url(#filter33_f_474_15127)">
        <path d="M69.5899 4.83303C69.713 4.52643 70.1471 4.52643 70.2702 4.83303L71.7654 8.55633C71.9376 8.98531 72.3403 9.27783 72.8015 9.30911L76.8046 9.58054C77.1342 9.60289 77.2683 10.0157 77.0148 10.2275L73.9358 12.8001C73.581 13.0965 73.4272 13.5698 73.54 14.0181L74.5189 17.9091C74.5995 18.2296 74.2483 18.4847 73.9685 18.309L70.5704 16.1756C70.1789 15.9298 69.6812 15.9298 69.2897 16.1756L65.8916 18.309C65.6118 18.4847 65.2606 18.2296 65.3412 17.9091L66.3201 14.0181C66.4329 13.5698 66.2791 13.0965 65.9243 12.8001L62.8453 10.2275C62.5918 10.0157 62.7259 9.60289 63.0555 9.58054L67.0586 9.30911C67.5199 9.27783 67.9225 8.98531 68.0947 8.55633L69.5899 4.83303Z" stroke="#8620FF" stroke-opacity="0.2" stroke-width="0.837795"/>
    </g>
    <g filter="url(#filter34_f_474_15127)">
        <path d="M69.3956 4.75498C69.589 4.27318 70.2711 4.27318 70.4646 4.75497L71.9597 8.47828C72.102 8.83266 72.4346 9.0743 72.8156 9.10014L76.8187 9.37157C77.3367 9.40669 77.5475 10.0554 77.1491 10.3882L74.0701 12.9608C73.777 13.2057 73.65 13.5966 73.7431 13.967L74.722 17.858C74.8487 18.3615 74.2969 18.7624 73.8572 18.4864L70.459 16.353C70.1356 16.15 69.7245 16.15 69.4011 16.353L66.0029 18.4864C65.5632 18.7624 65.0114 18.3615 65.1381 17.858L66.117 13.967C66.2102 13.5966 66.0831 13.2057 65.7901 12.9608L62.711 10.3882C62.3126 10.0554 62.5234 9.40669 63.0414 9.37157L67.0445 9.10014C67.4255 9.0743 67.7581 8.83266 67.9004 8.47828L69.3956 4.75498Z" stroke="white" stroke-width="0.418897"/>
    </g>
    <path d="M14.7587 48.7818V51.8838H17.8827V48.7818H19.4447V56.4818H17.8827V53.1488H14.7587V56.4818H13.1967V48.7818H14.7587ZM21.2817 51.0698C21.6264 50.9304 21.9637 50.8351 22.2937 50.7838C22.6237 50.7251 22.9831 50.6958 23.3717 50.6958C23.9511 50.6958 24.4057 50.7691 24.7357 50.9158C25.0731 51.0624 25.3261 51.2458 25.4947 51.4658C25.6634 51.6858 25.7697 51.9241 25.8137 52.1808C25.8651 52.4374 25.8907 52.6721 25.8907 52.8848V56.4818H24.4277V55.6458H24.4057C24.3764 55.7044 24.3251 55.7888 24.2517 55.8988C24.1784 56.0014 24.0721 56.1041 23.9327 56.2068C23.7934 56.3021 23.6174 56.3864 23.4047 56.4598C23.1921 56.5331 22.9317 56.5698 22.6237 56.5698C22.2644 56.5698 21.9564 56.5221 21.6997 56.4268C21.4431 56.3241 21.2341 56.1921 21.0727 56.0308C20.9114 55.8694 20.7904 55.6861 20.7097 55.4808C20.6364 55.2681 20.5997 55.0518 20.5997 54.8318C20.5997 54.6338 20.6327 54.4248 20.6987 54.2048C20.7647 53.9848 20.9004 53.7831 21.1057 53.5998C21.3111 53.4091 21.5971 53.2551 21.9637 53.1378C22.3304 53.0131 22.8181 52.9508 23.4267 52.9508C23.5661 52.9508 23.7054 52.9544 23.8447 52.9618C23.9841 52.9618 24.1234 52.9618 24.2627 52.9618H24.3947V52.7198C24.3947 52.5658 24.3581 52.4264 24.2847 52.3018C24.2187 52.1771 24.1271 52.0744 24.0097 51.9938C23.8924 51.9131 23.7531 51.8508 23.5917 51.8068C23.4377 51.7628 23.2764 51.7408 23.1077 51.7408C22.8584 51.7408 22.5871 51.7738 22.2937 51.8398C22.0004 51.8984 21.6631 52.0341 21.2817 52.2468V51.0698ZM24.1417 53.8968C23.9364 53.8968 23.7127 53.9041 23.4707 53.9188C23.2361 53.9261 23.0161 53.9591 22.8107 54.0178C22.6127 54.0764 22.4477 54.1681 22.3157 54.2928C22.1837 54.4174 22.1177 54.5934 22.1177 54.8208C22.1177 55.0261 22.1874 55.2021 22.3267 55.3488C22.4661 55.4881 22.7007 55.5578 23.0307 55.5578C23.1847 55.5578 23.3424 55.5358 23.5037 55.4918C23.6651 55.4478 23.8117 55.3708 23.9437 55.2608C24.0757 55.1508 24.1821 54.9968 24.2627 54.7988C24.3507 54.6008 24.3947 54.3478 24.3947 54.0398V53.8968H24.1417ZM28.5974 50.7838V52.5988C28.5974 52.7014 28.6047 52.8041 28.6194 52.9068C28.6414 53.0021 28.6854 53.0901 28.7514 53.1708C28.8174 53.2441 28.909 53.3064 29.0264 53.3578C29.151 53.4018 29.3124 53.4238 29.5103 53.4238C29.679 53.4238 29.866 53.4128 30.0714 53.3908C30.2767 53.3688 30.4747 53.3321 30.6654 53.2808V50.7838H32.1613V56.4818H30.6654V54.3808C30.3354 54.4394 30.0457 54.4798 29.7964 54.5018C29.5544 54.5164 29.371 54.5238 29.2464 54.5238C28.7697 54.5238 28.3884 54.4724 28.1024 54.3698C27.8237 54.2671 27.6074 54.1351 27.4534 53.9738C27.3067 53.8051 27.2113 53.6181 27.1673 53.4128C27.1233 53.2074 27.1013 52.9984 27.1013 52.7858V50.7838H28.5974ZM33.9468 51.0698C34.2915 50.9304 34.6288 50.8351 34.9588 50.7838C35.2888 50.7251 35.6481 50.6958 36.0368 50.6958C36.6161 50.6958 37.0708 50.7691 37.4008 50.9158C37.7381 51.0624 37.9911 51.2458 38.1598 51.4658C38.3285 51.6858 38.4348 51.9241 38.4788 52.1808C38.5301 52.4374 38.5558 52.6721 38.5558 52.8848V56.4818H37.0928V55.6458H37.0708C37.0415 55.7044 36.9901 55.7888 36.9168 55.8988C36.8435 56.0014 36.7371 56.1041 36.5978 56.2068C36.4585 56.3021 36.2825 56.3864 36.0698 56.4598C35.8571 56.5331 35.5968 56.5698 35.2888 56.5698C34.9295 56.5698 34.6215 56.5221 34.3648 56.4268C34.1081 56.3241 33.8991 56.1921 33.7378 56.0308C33.5765 55.8694 33.4555 55.6861 33.3748 55.4808C33.3015 55.2681 33.2648 55.0518 33.2648 54.8318C33.2648 54.6338 33.2978 54.4248 33.3638 54.2048C33.4298 53.9848 33.5655 53.7831 33.7708 53.5998C33.9761 53.4091 34.2621 53.2551 34.6288 53.1378C34.9955 53.0131 35.4831 52.9508 36.0918 52.9508C36.2311 52.9508 36.3705 52.9544 36.5098 52.9618C36.6491 52.9618 36.7885 52.9618 36.9278 52.9618H37.0598V52.7198C37.0598 52.5658 37.0231 52.4264 36.9498 52.3018C36.8838 52.1771 36.7921 52.0744 36.6748 51.9938C36.5575 51.9131 36.4181 51.8508 36.2568 51.8068C36.1028 51.7628 35.9415 51.7408 35.7728 51.7408C35.5235 51.7408 35.2521 51.7738 34.9588 51.8398C34.6655 51.8984 34.3281 52.0341 33.9468 52.2468V51.0698ZM36.8068 53.8968C36.6015 53.8968 36.3778 53.9041 36.1358 53.9188C35.9011 53.9261 35.6811 53.9591 35.4758 54.0178C35.2778 54.0764 35.1128 54.1681 34.9808 54.2928C34.8488 54.4174 34.7828 54.5934 34.7828 54.8208C34.7828 55.0261 34.8525 55.2021 34.9918 55.3488C35.1311 55.4881 35.3658 55.5578 35.6958 55.5578C35.8498 55.5578 36.0075 55.5358 36.1688 55.4918C36.3301 55.4478 36.4768 55.3708 36.6088 55.2608C36.7408 55.1508 36.8471 54.9968 36.9278 54.7988C37.0158 54.6008 37.0598 54.3478 37.0598 54.0398V53.8968H36.8068ZM39.8669 56.5698C39.7643 56.5698 39.6579 56.5588 39.5479 56.5368C39.4379 56.5221 39.3426 56.5038 39.2619 56.4818V55.3378C39.3206 55.3524 39.3793 55.3634 39.4379 55.3708C39.4966 55.3781 39.5479 55.3818 39.5919 55.3818C39.6946 55.3818 39.7899 55.3488 39.8779 55.2828C39.9733 55.2168 40.0539 55.0701 40.1199 54.8428C40.1859 54.6154 40.2373 54.2854 40.2739 53.8528C40.3179 53.4128 40.3399 52.8224 40.3399 52.0818V50.7838H44.9269V56.4818H43.4309V51.8838H41.6709V52.0818C41.6709 53.0424 41.6306 53.8161 41.5499 54.4028C41.4693 54.9894 41.3519 55.4441 41.1979 55.7668C41.0439 56.0821 40.8533 56.2948 40.6259 56.4048C40.4059 56.5148 40.1529 56.5698 39.8669 56.5698ZM46.3455 50.7838H47.8415V52.6318H48.9855C49.8068 52.6318 50.4118 52.8078 50.8005 53.1598C51.1965 53.5118 51.3945 53.9774 51.3945 54.5568C51.3945 55.1361 51.1965 55.6018 50.8005 55.9538C50.4118 56.3058 49.8068 56.4818 48.9855 56.4818H46.3455V50.7838ZM49.8325 54.5568C49.8325 54.2781 49.7482 54.0618 49.5795 53.9078C49.4108 53.7538 49.1395 53.6768 48.7655 53.6768H47.8415V55.4368H48.7655C49.1395 55.4368 49.4108 55.3598 49.5795 55.2058C49.7482 55.0518 49.8325 54.8354 49.8325 54.5568ZM53.8252 50.7838V52.9398H56.2232V50.7838H57.7192V56.4818H56.2232V54.0398H53.8252V56.4818H52.3292V50.7838H53.8252ZM60.6465 50.7838V53.7758L60.6025 54.7988H60.6245L63.0775 50.7838H64.7495V56.4818H63.2535V53.5338L63.2975 52.4668H63.2645L60.7455 56.4818H59.1505V50.7838H60.6465ZM67.6718 50.7838V53.3688H67.7268L69.5528 50.7838H71.2248L69.1128 53.4788L71.5218 56.4818H69.6408L67.7268 53.7538H67.6718V56.4818H66.1758V50.7838H67.6718ZM23.5753 64.6328C23.5753 64.1561 23.6487 63.7344 23.7953 63.3678C23.942 63.0011 24.1437 62.6968 24.4003 62.4548C24.6643 62.2054 24.976 62.0184 25.3353 61.8938C25.6947 61.7618 26.087 61.6958 26.5123 61.6958C26.9377 61.6958 27.33 61.7618 27.6893 61.8938C28.0487 62.0184 28.3567 62.2054 28.6133 62.4548C28.8773 62.6968 29.0827 63.0011 29.2293 63.3678C29.376 63.7344 29.4493 64.1561 29.4493 64.6328C29.4493 65.1094 29.376 65.5311 29.2293 65.8978C29.0827 66.2644 28.8773 66.5724 28.6133 66.8218C28.3567 67.0638 28.0487 67.2508 27.6893 67.3828C27.33 67.5074 26.9377 67.5698 26.5123 67.5698C26.087 67.5698 25.6947 67.5074 25.3353 67.3828C24.976 67.2508 24.6643 67.0638 24.4003 66.8218C24.1437 66.5724 23.942 66.2644 23.7953 65.8978C23.6487 65.5311 23.5753 65.1094 23.5753 64.6328ZM25.1373 64.6328C25.1373 64.9628 25.1777 65.2451 25.2583 65.4798C25.339 65.7144 25.4453 65.9088 25.5773 66.0628C25.7093 66.2094 25.856 66.3194 26.0173 66.3928C26.1787 66.4588 26.3437 66.4918 26.5123 66.4918C26.6737 66.4918 26.835 66.4588 26.9963 66.3928C27.165 66.3194 27.3153 66.2094 27.4473 66.0628C27.5793 65.9088 27.6857 65.7144 27.7663 65.4798C27.847 65.2451 27.8873 64.9628 27.8873 64.6328C27.8873 64.3028 27.847 64.0204 27.7663 63.7858C27.6857 63.5511 27.5793 63.3604 27.4473 63.2138C27.3153 63.0598 27.165 62.9498 26.9963 62.8838C26.835 62.8104 26.6737 62.7738 26.5123 62.7738C26.3437 62.7738 26.1787 62.8104 26.0173 62.8838C25.856 62.9498 25.7093 63.0598 25.5773 63.2138C25.4453 63.3604 25.339 63.5511 25.2583 63.7858C25.1777 64.0204 25.1373 64.3028 25.1373 64.6328ZM34.999 61.7838V62.8838H33.217V67.4818H31.721V62.8838H29.939V61.7838H34.999ZM40.8079 61.7838V66.3818H41.7429V68.9668H40.3679V67.4818H36.3419V68.9668H34.9669V66.3818H35.6049C35.7735 66.1838 35.9055 65.9821 36.0009 65.7768C36.1035 65.5714 36.1769 65.3551 36.2209 65.1278C36.2722 64.9004 36.3052 64.6658 36.3199 64.4238C36.3345 64.1744 36.3419 63.9104 36.3419 63.6318V61.7838H40.8079ZM39.3119 66.3818V62.8838H37.6619V63.7308C37.6619 63.9508 37.6582 64.1744 37.6509 64.4018C37.6509 64.6291 37.6289 64.8528 37.5849 65.0728C37.5482 65.2928 37.4895 65.5128 37.4089 65.7328C37.3282 65.9528 37.2109 66.1691 37.0569 66.3818H39.3119ZM43.818 65.0838C43.8253 65.2671 43.8657 65.4431 43.939 65.6118C44.0123 65.7804 44.1187 65.9308 44.258 66.0628C44.3973 66.1948 44.5697 66.3011 44.775 66.3818C44.9877 66.4551 45.2333 66.4918 45.512 66.4918C45.842 66.4918 46.1537 66.4588 46.447 66.3928C46.7403 66.3194 47.0227 66.2204 47.294 66.0958V67.2178C47.0007 67.3278 46.6853 67.4158 46.348 67.4818C46.0107 67.5404 45.6697 67.5698 45.325 67.5698C44.8997 67.5698 44.5 67.5111 44.126 67.3938C43.752 67.2764 43.4257 67.0968 43.147 66.8548C42.8757 66.6128 42.6593 66.3084 42.498 65.9418C42.3367 65.5751 42.256 65.1388 42.256 64.6328C42.256 64.1708 42.3293 63.7601 42.476 63.4008C42.63 63.0341 42.8353 62.7261 43.092 62.4768C43.3487 62.2201 43.6457 62.0258 43.983 61.8938C44.3277 61.7618 44.6907 61.6958 45.072 61.6958C45.5047 61.6958 45.8677 61.7618 46.161 61.8938C46.4617 62.0184 46.7073 62.1798 46.898 62.3778C47.096 62.5758 47.2463 62.7958 47.349 63.0378C47.459 63.2724 47.5397 63.5034 47.591 63.7308C47.6423 63.9581 47.6717 64.1634 47.679 64.3468C47.6937 64.5301 47.701 64.6621 47.701 64.7428V65.0838H43.818ZM46.161 64.0608C46.1683 63.8188 46.1353 63.6134 46.062 63.4448C45.996 63.2761 45.9043 63.1404 45.787 63.0378C45.6697 62.9278 45.5413 62.8508 45.402 62.8068C45.2627 62.7554 45.1233 62.7298 44.984 62.7298C44.8153 62.7298 44.6613 62.7664 44.522 62.8398C44.3827 62.9058 44.2617 62.9974 44.159 63.1148C44.0563 63.2321 43.972 63.3751 43.906 63.5438C43.8473 63.7051 43.818 63.8774 43.818 64.0608H46.161ZM48.6433 67.5698C48.5406 67.5698 48.4343 67.5588 48.3243 67.5368C48.2143 67.5221 48.119 67.5038 48.0383 67.4818V66.3378C48.097 66.3524 48.1556 66.3634 48.2143 66.3708C48.273 66.3781 48.3243 66.3818 48.3683 66.3818C48.471 66.3818 48.5663 66.3488 48.6543 66.2828C48.7496 66.2168 48.8303 66.0701 48.8963 65.8428C48.9623 65.6154 49.0136 65.2854 49.0503 64.8528C49.0943 64.4128 49.1163 63.8224 49.1163 63.0818V61.7838H53.7033V67.4818H52.2073V62.8838H50.4473V63.0818C50.4473 64.0424 50.407 64.8161 50.3263 65.4028C50.2456 65.9894 50.1283 66.4441 49.9743 66.7668C49.8203 67.0821 49.6296 67.2948 49.4023 67.4048C49.1823 67.5148 48.9293 67.5698 48.6433 67.5698ZM55.4849 62.0698C55.8295 61.9304 56.1669 61.8351 56.4969 61.7838C56.8269 61.7251 57.1862 61.6958 57.5749 61.6958C58.1542 61.6958 58.6089 61.7691 58.9389 61.9158C59.2762 62.0624 59.5292 62.2458 59.6979 62.4658C59.8665 62.6858 59.9729 62.9241 60.0169 63.1808C60.0682 63.4374 60.0939 63.6721 60.0939 63.8848V67.4818H58.6309V66.6458H58.6089C58.5795 66.7044 58.5282 66.7888 58.4549 66.8988C58.3815 67.0014 58.2752 67.1041 58.1359 67.2068C57.9965 67.3021 57.8205 67.3864 57.6079 67.4598C57.3952 67.5331 57.1349 67.5698 56.8269 67.5698C56.4675 67.5698 56.1595 67.5221 55.9029 67.4268C55.6462 67.3241 55.4372 67.1921 55.2759 67.0308C55.1145 66.8694 54.9935 66.6861 54.9129 66.4808C54.8395 66.2681 54.8029 66.0518 54.8029 65.8318C54.8029 65.6338 54.8359 65.4248 54.9019 65.2048C54.9679 64.9848 55.1035 64.7831 55.3089 64.5998C55.5142 64.4091 55.8002 64.2551 56.1669 64.1378C56.5335 64.0131 57.0212 63.9508 57.6299 63.9508C57.7692 63.9508 57.9085 63.9544 58.0479 63.9618C58.1872 63.9618 58.3265 63.9618 58.4659 63.9618H58.5979V63.7198C58.5979 63.5658 58.5612 63.4264 58.4879 63.3018C58.4219 63.1771 58.3302 63.0744 58.2129 62.9938C58.0955 62.9131 57.9562 62.8508 57.7949 62.8068C57.6409 62.7628 57.4795 62.7408 57.3109 62.7408C57.0615 62.7408 56.7902 62.7738 56.4969 62.8398C56.2035 62.8984 55.8662 63.0341 55.4849 63.2468V62.0698ZM58.3449 64.8968C58.1395 64.8968 57.9159 64.9041 57.6739 64.9188C57.4392 64.9261 57.2192 64.9591 57.0139 65.0178C56.8159 65.0764 56.6509 65.1681 56.5189 65.2928C56.3869 65.4174 56.3209 65.5934 56.3209 65.8208C56.3209 66.0261 56.3905 66.2021 56.5299 66.3488C56.6692 66.4881 56.9039 66.5578 57.2339 66.5578C57.3879 66.5578 57.5455 66.5358 57.7069 66.4918C57.8682 66.4478 58.0149 66.3708 58.1469 66.2608C58.2789 66.1508 58.3852 65.9968 58.4659 65.7988C58.5539 65.6008 58.5979 65.3478 58.5979 65.0398V64.8968H58.3449Z" fill="#8620FF"/>
    <defs>
        <filter id="filter0_f_474_15127" x="12.0055" y="19.0654" width="22.7498" height="22.0797" filterUnits="userSpaceOnUse" color-interpolation-filters="sRGB">
            <feFlood flood-opacity="0" result="BackgroundImageFix"/>
            <feBlend mode="normal" in="SourceGraphic" in2="BackgroundImageFix" result="shape"/>
            <feGaussianBlur stdDeviation="1.86933" result="effect1_foregroundBlur_474_15127"/>
        </filter>
        <filter id="filter1_f_474_15127" x="14.4979" y="21.5578" width="17.7649" height="17.0949" filterUnits="userSpaceOnUse" color-interpolation-filters="sRGB">
            <feFlood flood-opacity="0" result="BackgroundImageFix"/>
            <feBlend mode="normal" in="SourceGraphic" in2="BackgroundImageFix" result="shape"/>
            <feGaussianBlur stdDeviation="0.62311" result="effect1_foregroundBlur_474_15127"/>
        </filter>
        <filter id="filter2_ddi_474_15127" x="14.1241" y="22.4302" width="18.5126" height="17.8426" filterUnits="userSpaceOnUse" color-interpolation-filters="sRGB">
            <feFlood flood-opacity="0" result="BackgroundImageFix"/>
            <feColorMatrix in="SourceAlpha" type="matrix" values="0 0 0 0 0 0 0 0 0 0 0 0 0 0 0 0 0 0 127 0" result="hardAlpha"/>
            <feOffset dy="1.36142"/>
            <feGaussianBlur stdDeviation="0.523622"/>
            <feColorMatrix type="matrix" values="0 0 0 0 0 0 0 0 0 0.051 0 0 0 0 0.082 0 0 0 0.5 0"/>
            <feBlend mode="multiply" in2="BackgroundImageFix" result="effect1_dropShadow_474_15127"/>
            <feColorMatrix in="SourceAlpha" type="matrix" values="0 0 0 0 0 0 0 0 0 0 0 0 0 0 0 0 0 0 127 0" result="hardAlpha"/>
            <feOffset dy="1.24622"/>
            <feGaussianBlur stdDeviation="0.810043"/>
            <feColorMatrix type="matrix" values="0 0 0 0 0.702449 0 0 0 0 0.458646 0 0 0 0 0.991667 0 0 0 0.6 0"/>
            <feBlend mode="color-dodge" in2="effect1_dropShadow_474_15127" result="effect2_dropShadow_474_15127"/>
            <feBlend mode="normal" in="SourceGraphic" in2="effect2_dropShadow_474_15127" result="shape"/>
            <feColorMatrix in="SourceAlpha" type="matrix" values="0 0 0 0 0 0 0 0 0 0 0 0 0 0 0 0 0 0 127 0" result="hardAlpha"/>
            <feOffset dx="-0.136142" dy="0.272283"/>
            <feGaussianBlur stdDeviation="0.0680708"/>
            <feComposite in2="hardAlpha" operator="arithmetic" k2="-1" k3="1"/>
            <feColorMatrix type="matrix" values="0 0 0 0 1 0 0 0 0 1 0 0 0 0 1 0 0 0 0.5 0"/>
            <feBlend mode="normal" in2="shape" result="effect3_innerShadow_474_15127"/>
        </filter>
        <filter id="filter3_f_474_15127" x="15.5347" y="22.5946" width="15.6914" height="15.0213" filterUnits="userSpaceOnUse" color-interpolation-filters="sRGB">
            <feFlood flood-opacity="0" result="BackgroundImageFix"/>
            <feBlend mode="normal" in="SourceGraphic" in2="BackgroundImageFix" result="shape"/>
            <feGaussianBlur stdDeviation="0.104724" result="effect1_foregroundBlur_474_15127"/>
        </filter>
        <filter id="filter4_f_474_15127" x="15.6045" y="22.6644" width="15.5517" height="14.8817" filterUnits="userSpaceOnUse" color-interpolation-filters="sRGB">
            <feFlood flood-opacity="0" result="BackgroundImageFix"/>
            <feBlend mode="normal" in="SourceGraphic" in2="BackgroundImageFix" result="shape"/>
            <feGaussianBlur stdDeviation="0.0698162" result="effect1_foregroundBlur_474_15127"/>
        </filter>
        <filter id="filter5_f_474_15127" x="30.6256" y="19.0654" width="22.7498" height="22.0797" filterUnits="userSpaceOnUse" color-interpolation-filters="sRGB">
            <feFlood flood-opacity="0" result="BackgroundImageFix"/>
            <feBlend mode="normal" in="SourceGraphic" in2="BackgroundImageFix" result="shape"/>
            <feGaussianBlur stdDeviation="1.86933" result="effect1_foregroundBlur_474_15127"/>
        </filter>
        <filter id="filter6_f_474_15127" x="33.118" y="21.5578" width="17.7649" height="17.0949" filterUnits="userSpaceOnUse" color-interpolation-filters="sRGB">
            <feFlood flood-opacity="0" result="BackgroundImageFix"/>
            <feBlend mode="normal" in="SourceGraphic" in2="BackgroundImageFix" result="shape"/>
            <feGaussianBlur stdDeviation="0.62311" result="effect1_foregroundBlur_474_15127"/>
        </filter>
        <filter id="filter7_ddi_474_15127" x="32.7442" y="22.4302" width="18.5126" height="17.8426" filterUnits="userSpaceOnUse" color-interpolation-filters="sRGB">
            <feFlood flood-opacity="0" result="BackgroundImageFix"/>
            <feColorMatrix in="SourceAlpha" type="matrix" values="0 0 0 0 0 0 0 0 0 0 0 0 0 0 0 0 0 0 127 0" result="hardAlpha"/>
            <feOffset dy="1.36142"/>
            <feGaussianBlur stdDeviation="0.523622"/>
            <feColorMatrix type="matrix" values="0 0 0 0 0 0 0 0 0 0.051 0 0 0 0 0.082 0 0 0 0.5 0"/>
            <feBlend mode="multiply" in2="BackgroundImageFix" result="effect1_dropShadow_474_15127"/>
            <feColorMatrix in="SourceAlpha" type="matrix" values="0 0 0 0 0 0 0 0 0 0 0 0 0 0 0 0 0 0 127 0" result="hardAlpha"/>
            <feOffset dy="1.24622"/>
            <feGaussianBlur stdDeviation="0.810043"/>
            <feColorMatrix type="matrix" values="0 0 0 0 0.702449 0 0 0 0 0.458646 0 0 0 0 0.991667 0 0 0 0.6 0"/>
            <feBlend mode="color-dodge" in2="effect1_dropShadow_474_15127" result="effect2_dropShadow_474_15127"/>
            <feBlend mode="normal" in="SourceGraphic" in2="effect2_dropShadow_474_15127" result="shape"/>
            <feColorMatrix in="SourceAlpha" type="matrix" values="0 0 0 0 0 0 0 0 0 0 0 0 0 0 0 0 0 0 127 0" result="hardAlpha"/>
            <feOffset dx="-0.136142" dy="0.272283"/>
            <feGaussianBlur stdDeviation="0.0680708"/>
            <feComposite in2="hardAlpha" operator="arithmetic" k2="-1" k3="1"/>
            <feColorMatrix type="matrix" values="0 0 0 0 1 0 0 0 0 1 0 0 0 0 1 0 0 0 0.5 0"/>
            <feBlend mode="normal" in2="shape" result="effect3_innerShadow_474_15127"/>
        </filter>
        <filter id="filter8_f_474_15127" x="34.1548" y="22.5946" width="15.6914" height="15.0213" filterUnits="userSpaceOnUse" color-interpolation-filters="sRGB">
            <feFlood flood-opacity="0" result="BackgroundImageFix"/>
            <feBlend mode="normal" in="SourceGraphic" in2="BackgroundImageFix" result="shape"/>
            <feGaussianBlur stdDeviation="0.104724" result="effect1_foregroundBlur_474_15127"/>
        </filter>
        <filter id="filter9_f_474_15127" x="34.2246" y="22.6644" width="15.5517" height="14.8817" filterUnits="userSpaceOnUse" color-interpolation-filters="sRGB">
            <feFlood flood-opacity="0" result="BackgroundImageFix"/>
            <feBlend mode="normal" in="SourceGraphic" in2="BackgroundImageFix" result="shape"/>
            <feGaussianBlur stdDeviation="0.0698162" result="effect1_foregroundBlur_474_15127"/>
        </filter>
        <filter id="filter10_f_474_15127" x="49.2452" y="19.0654" width="22.7498" height="22.0797" filterUnits="userSpaceOnUse" color-interpolation-filters="sRGB">
            <feFlood flood-opacity="0" result="BackgroundImageFix"/>
            <feBlend mode="normal" in="SourceGraphic" in2="BackgroundImageFix" result="shape"/>
            <feGaussianBlur stdDeviation="1.86933" result="effect1_foregroundBlur_474_15127"/>
        </filter>
        <filter id="filter11_f_474_15127" x="51.7377" y="21.5578" width="17.7649" height="17.0949" filterUnits="userSpaceOnUse" color-interpolation-filters="sRGB">
            <feFlood flood-opacity="0" result="BackgroundImageFix"/>
            <feBlend mode="normal" in="SourceGraphic" in2="BackgroundImageFix" result="shape"/>
            <feGaussianBlur stdDeviation="0.62311" result="effect1_foregroundBlur_474_15127"/>
        </filter>
        <filter id="filter12_ddi_474_15127" x="51.3638" y="22.4302" width="18.5126" height="17.8426" filterUnits="userSpaceOnUse" color-interpolation-filters="sRGB">
            <feFlood flood-opacity="0" result="BackgroundImageFix"/>
            <feColorMatrix in="SourceAlpha" type="matrix" values="0 0 0 0 0 0 0 0 0 0 0 0 0 0 0 0 0 0 127 0" result="hardAlpha"/>
            <feOffset dy="1.36142"/>
            <feGaussianBlur stdDeviation="0.523622"/>
            <feColorMatrix type="matrix" values="0 0 0 0 0 0 0 0 0 0.051 0 0 0 0 0.082 0 0 0 0.5 0"/>
            <feBlend mode="multiply" in2="BackgroundImageFix" result="effect1_dropShadow_474_15127"/>
            <feColorMatrix in="SourceAlpha" type="matrix" values="0 0 0 0 0 0 0 0 0 0 0 0 0 0 0 0 0 0 127 0" result="hardAlpha"/>
            <feOffset dy="1.24622"/>
            <feGaussianBlur stdDeviation="0.810043"/>
            <feColorMatrix type="matrix" values="0 0 0 0 0.702449 0 0 0 0 0.458646 0 0 0 0 0.991667 0 0 0 0.6 0"/>
            <feBlend mode="color-dodge" in2="effect1_dropShadow_474_15127" result="effect2_dropShadow_474_15127"/>
            <feBlend mode="normal" in="SourceGraphic" in2="effect2_dropShadow_474_15127" result="shape"/>
            <feColorMatrix in="SourceAlpha" type="matrix" values="0 0 0 0 0 0 0 0 0 0 0 0 0 0 0 0 0 0 127 0" result="hardAlpha"/>
            <feOffset dx="-0.136142" dy="0.272283"/>
            <feGaussianBlur stdDeviation="0.0680708"/>
            <feComposite in2="hardAlpha" operator="arithmetic" k2="-1" k3="1"/>
            <feColorMatrix type="matrix" values="0 0 0 0 1 0 0 0 0 1 0 0 0 0 1 0 0 0 0.5 0"/>
            <feBlend mode="normal" in2="shape" result="effect3_innerShadow_474_15127"/>
        </filter>
        <filter id="filter13_f_474_15127" x="52.7744" y="22.5946" width="15.6914" height="15.0213" filterUnits="userSpaceOnUse" color-interpolation-filters="sRGB">
            <feFlood flood-opacity="0" result="BackgroundImageFix"/>
            <feBlend mode="normal" in="SourceGraphic" in2="BackgroundImageFix" result="shape"/>
            <feGaussianBlur stdDeviation="0.104724" result="effect1_foregroundBlur_474_15127"/>
        </filter>
        <filter id="filter14_f_474_15127" x="52.8443" y="22.6644" width="15.5517" height="14.8817" filterUnits="userSpaceOnUse" color-interpolation-filters="sRGB">
            <feFlood flood-opacity="0" result="BackgroundImageFix"/>
            <feBlend mode="normal" in="SourceGraphic" in2="BackgroundImageFix" result="shape"/>
            <feGaussianBlur stdDeviation="0.0698162" result="effect1_foregroundBlur_474_15127"/>
        </filter>
        <filter id="filter15_f_474_15127" x="2.69542" y="0.445515" width="22.7498" height="22.0797" filterUnits="userSpaceOnUse" color-interpolation-filters="sRGB">
            <feFlood flood-opacity="0" result="BackgroundImageFix"/>
            <feBlend mode="normal" in="SourceGraphic" in2="BackgroundImageFix" result="shape"/>
            <feGaussianBlur stdDeviation="1.86933" result="effect1_foregroundBlur_474_15127"/>
        </filter>
        <filter id="filter16_f_474_15127" x="5.18786" y="2.93795" width="17.7649" height="17.0949" filterUnits="userSpaceOnUse" color-interpolation-filters="sRGB">
            <feFlood flood-opacity="0" result="BackgroundImageFix"/>
            <feBlend mode="normal" in="SourceGraphic" in2="BackgroundImageFix" result="shape"/>
            <feGaussianBlur stdDeviation="0.62311" result="effect1_foregroundBlur_474_15127"/>
        </filter>
        <filter id="filter17_ddi_474_15127" x="4.814" y="3.81031" width="18.5126" height="17.8426" filterUnits="userSpaceOnUse" color-interpolation-filters="sRGB">
            <feFlood flood-opacity="0" result="BackgroundImageFix"/>
            <feColorMatrix in="SourceAlpha" type="matrix" values="0 0 0 0 0 0 0 0 0 0 0 0 0 0 0 0 0 0 127 0" result="hardAlpha"/>
            <feOffset dy="1.36142"/>
            <feGaussianBlur stdDeviation="0.523622"/>
            <feColorMatrix type="matrix" values="0 0 0 0 0 0 0 0 0 0.051 0 0 0 0 0.082 0 0 0 0.5 0"/>
            <feBlend mode="multiply" in2="BackgroundImageFix" result="effect1_dropShadow_474_15127"/>
            <feColorMatrix in="SourceAlpha" type="matrix" values="0 0 0 0 0 0 0 0 0 0 0 0 0 0 0 0 0 0 127 0" result="hardAlpha"/>
            <feOffset dy="1.24622"/>
            <feGaussianBlur stdDeviation="0.810043"/>
            <feColorMatrix type="matrix" values="0 0 0 0 0.702449 0 0 0 0 0.458646 0 0 0 0 0.991667 0 0 0 0.6 0"/>
            <feBlend mode="color-dodge" in2="effect1_dropShadow_474_15127" result="effect2_dropShadow_474_15127"/>
            <feBlend mode="normal" in="SourceGraphic" in2="effect2_dropShadow_474_15127" result="shape"/>
            <feColorMatrix in="SourceAlpha" type="matrix" values="0 0 0 0 0 0 0 0 0 0 0 0 0 0 0 0 0 0 127 0" result="hardAlpha"/>
            <feOffset dx="-0.136142" dy="0.272283"/>
            <feGaussianBlur stdDeviation="0.0680708"/>
            <feComposite in2="hardAlpha" operator="arithmetic" k2="-1" k3="1"/>
            <feColorMatrix type="matrix" values="0 0 0 0 1 0 0 0 0 1 0 0 0 0 1 0 0 0 0.5 0"/>
            <feBlend mode="normal" in2="shape" result="effect3_innerShadow_474_15127"/>
        </filter>
        <filter id="filter18_f_474_15127" x="6.22463" y="3.97472" width="15.6914" height="15.0213" filterUnits="userSpaceOnUse" color-interpolation-filters="sRGB">
            <feFlood flood-opacity="0" result="BackgroundImageFix"/>
            <feBlend mode="normal" in="SourceGraphic" in2="BackgroundImageFix" result="shape"/>
            <feGaussianBlur stdDeviation="0.104724" result="effect1_foregroundBlur_474_15127"/>
        </filter>
        <filter id="filter19_f_474_15127" x="6.29445" y="4.04454" width="15.5517" height="14.8817" filterUnits="userSpaceOnUse" color-interpolation-filters="sRGB">
            <feFlood flood-opacity="0" result="BackgroundImageFix"/>
            <feBlend mode="normal" in="SourceGraphic" in2="BackgroundImageFix" result="shape"/>
            <feGaussianBlur stdDeviation="0.0698162" result="effect1_foregroundBlur_474_15127"/>
        </filter>
        <filter id="filter20_f_474_15127" x="21.3151" y="0.445515" width="22.7498" height="22.0797" filterUnits="userSpaceOnUse" color-interpolation-filters="sRGB">
            <feFlood flood-opacity="0" result="BackgroundImageFix"/>
            <feBlend mode="normal" in="SourceGraphic" in2="BackgroundImageFix" result="shape"/>
            <feGaussianBlur stdDeviation="1.86933" result="effect1_foregroundBlur_474_15127"/>
        </filter>
        <filter id="filter21_f_474_15127" x="23.8075" y="2.93795" width="17.7649" height="17.0949" filterUnits="userSpaceOnUse" color-interpolation-filters="sRGB">
            <feFlood flood-opacity="0" result="BackgroundImageFix"/>
            <feBlend mode="normal" in="SourceGraphic" in2="BackgroundImageFix" result="shape"/>
            <feGaussianBlur stdDeviation="0.62311" result="effect1_foregroundBlur_474_15127"/>
        </filter>
        <filter id="filter22_ddi_474_15127" x="23.4336" y="3.81031" width="18.5126" height="17.8426" filterUnits="userSpaceOnUse" color-interpolation-filters="sRGB">
            <feFlood flood-opacity="0" result="BackgroundImageFix"/>
            <feColorMatrix in="SourceAlpha" type="matrix" values="0 0 0 0 0 0 0 0 0 0 0 0 0 0 0 0 0 0 127 0" result="hardAlpha"/>
            <feOffset dy="1.36142"/>
            <feGaussianBlur stdDeviation="0.523622"/>
            <feColorMatrix type="matrix" values="0 0 0 0 0 0 0 0 0 0.051 0 0 0 0 0.082 0 0 0 0.5 0"/>
            <feBlend mode="multiply" in2="BackgroundImageFix" result="effect1_dropShadow_474_15127"/>
            <feColorMatrix in="SourceAlpha" type="matrix" values="0 0 0 0 0 0 0 0 0 0 0 0 0 0 0 0 0 0 127 0" result="hardAlpha"/>
            <feOffset dy="1.24622"/>
            <feGaussianBlur stdDeviation="0.810043"/>
            <feColorMatrix type="matrix" values="0 0 0 0 0.702449 0 0 0 0 0.458646 0 0 0 0 0.991667 0 0 0 0.6 0"/>
            <feBlend mode="color-dodge" in2="effect1_dropShadow_474_15127" result="effect2_dropShadow_474_15127"/>
            <feBlend mode="normal" in="SourceGraphic" in2="effect2_dropShadow_474_15127" result="shape"/>
            <feColorMatrix in="SourceAlpha" type="matrix" values="0 0 0 0 0 0 0 0 0 0 0 0 0 0 0 0 0 0 127 0" result="hardAlpha"/>
            <feOffset dx="-0.136142" dy="0.272283"/>
            <feGaussianBlur stdDeviation="0.0680708"/>
            <feComposite in2="hardAlpha" operator="arithmetic" k2="-1" k3="1"/>
            <feColorMatrix type="matrix" values="0 0 0 0 1 0 0 0 0 1 0 0 0 0 1 0 0 0 0.5 0"/>
            <feBlend mode="normal" in2="shape" result="effect3_innerShadow_474_15127"/>
        </filter>
        <filter id="filter23_f_474_15127" x="24.8443" y="3.97472" width="15.6914" height="15.0213" filterUnits="userSpaceOnUse" color-interpolation-filters="sRGB">
            <feFlood flood-opacity="0" result="BackgroundImageFix"/>
            <feBlend mode="normal" in="SourceGraphic" in2="BackgroundImageFix" result="shape"/>
            <feGaussianBlur stdDeviation="0.104724" result="effect1_foregroundBlur_474_15127"/>
        </filter>
        <filter id="filter24_f_474_15127" x="24.9141" y="4.04454" width="15.5517" height="14.8817" filterUnits="userSpaceOnUse" color-interpolation-filters="sRGB">
            <feFlood flood-opacity="0" result="BackgroundImageFix"/>
            <feBlend mode="normal" in="SourceGraphic" in2="BackgroundImageFix" result="shape"/>
            <feGaussianBlur stdDeviation="0.0698162" result="effect1_foregroundBlur_474_15127"/>
        </filter>
        <filter id="filter25_f_474_15127" x="39.9352" y="0.445515" width="22.7498" height="22.0797" filterUnits="userSpaceOnUse" color-interpolation-filters="sRGB">
            <feFlood flood-opacity="0" result="BackgroundImageFix"/>
            <feBlend mode="normal" in="SourceGraphic" in2="BackgroundImageFix" result="shape"/>
            <feGaussianBlur stdDeviation="1.86933" result="effect1_foregroundBlur_474_15127"/>
        </filter>
        <filter id="filter26_f_474_15127" x="42.4276" y="2.93795" width="17.7649" height="17.0949" filterUnits="userSpaceOnUse" color-interpolation-filters="sRGB">
            <feFlood flood-opacity="0" result="BackgroundImageFix"/>
            <feBlend mode="normal" in="SourceGraphic" in2="BackgroundImageFix" result="shape"/>
            <feGaussianBlur stdDeviation="0.62311" result="effect1_foregroundBlur_474_15127"/>
        </filter>
        <filter id="filter27_ddi_474_15127" x="42.0537" y="3.81031" width="18.5126" height="17.8426" filterUnits="userSpaceOnUse" color-interpolation-filters="sRGB">
            <feFlood flood-opacity="0" result="BackgroundImageFix"/>
            <feColorMatrix in="SourceAlpha" type="matrix" values="0 0 0 0 0 0 0 0 0 0 0 0 0 0 0 0 0 0 127 0" result="hardAlpha"/>
            <feOffset dy="1.36142"/>
            <feGaussianBlur stdDeviation="0.523622"/>
            <feColorMatrix type="matrix" values="0 0 0 0 0 0 0 0 0 0.051 0 0 0 0 0.082 0 0 0 0.5 0"/>
            <feBlend mode="multiply" in2="BackgroundImageFix" result="effect1_dropShadow_474_15127"/>
            <feColorMatrix in="SourceAlpha" type="matrix" values="0 0 0 0 0 0 0 0 0 0 0 0 0 0 0 0 0 0 127 0" result="hardAlpha"/>
            <feOffset dy="1.24622"/>
            <feGaussianBlur stdDeviation="0.810043"/>
            <feColorMatrix type="matrix" values="0 0 0 0 0.702449 0 0 0 0 0.458646 0 0 0 0 0.991667 0 0 0 0.6 0"/>
            <feBlend mode="color-dodge" in2="effect1_dropShadow_474_15127" result="effect2_dropShadow_474_15127"/>
            <feBlend mode="normal" in="SourceGraphic" in2="effect2_dropShadow_474_15127" result="shape"/>
            <feColorMatrix in="SourceAlpha" type="matrix" values="0 0 0 0 0 0 0 0 0 0 0 0 0 0 0 0 0 0 127 0" result="hardAlpha"/>
            <feOffset dx="-0.136142" dy="0.272283"/>
            <feGaussianBlur stdDeviation="0.0680708"/>
            <feComposite in2="hardAlpha" operator="arithmetic" k2="-1" k3="1"/>
            <feColorMatrix type="matrix" values="0 0 0 0 1 0 0 0 0 1 0 0 0 0 1 0 0 0 0.5 0"/>
            <feBlend mode="normal" in2="shape" result="effect3_innerShadow_474_15127"/>
        </filter>
        <filter id="filter28_f_474_15127" x="43.4644" y="3.97472" width="15.6914" height="15.0213" filterUnits="userSpaceOnUse" color-interpolation-filters="sRGB">
            <feFlood flood-opacity="0" result="BackgroundImageFix"/>
            <feBlend mode="normal" in="SourceGraphic" in2="BackgroundImageFix" result="shape"/>
            <feGaussianBlur stdDeviation="0.104724" result="effect1_foregroundBlur_474_15127"/>
        </filter>
        <filter id="filter29_f_474_15127" x="43.5342" y="4.04454" width="15.5517" height="14.8817" filterUnits="userSpaceOnUse" color-interpolation-filters="sRGB">
            <feFlood flood-opacity="0" result="BackgroundImageFix"/>
            <feBlend mode="normal" in="SourceGraphic" in2="BackgroundImageFix" result="shape"/>
            <feGaussianBlur stdDeviation="0.0698162" result="effect1_foregroundBlur_474_15127"/>
        </filter>
        <filter id="filter30_f_474_15127" x="58.5553" y="0.445515" width="22.7498" height="22.0797" filterUnits="userSpaceOnUse" color-interpolation-filters="sRGB">
            <feFlood flood-opacity="0" result="BackgroundImageFix"/>
            <feBlend mode="normal" in="SourceGraphic" in2="BackgroundImageFix" result="shape"/>
            <feGaussianBlur stdDeviation="1.86933" result="effect1_foregroundBlur_474_15127"/>
        </filter>
        <filter id="filter31_f_474_15127" x="61.0477" y="2.93795" width="17.7649" height="17.0949" filterUnits="userSpaceOnUse" color-interpolation-filters="sRGB">
            <feFlood flood-opacity="0" result="BackgroundImageFix"/>
            <feBlend mode="normal" in="SourceGraphic" in2="BackgroundImageFix" result="shape"/>
            <feGaussianBlur stdDeviation="0.62311" result="effect1_foregroundBlur_474_15127"/>
        </filter>
        <filter id="filter32_ddi_474_15127" x="60.6739" y="3.81031" width="18.5126" height="17.8426" filterUnits="userSpaceOnUse" color-interpolation-filters="sRGB">
            <feFlood flood-opacity="0" result="BackgroundImageFix"/>
            <feColorMatrix in="SourceAlpha" type="matrix" values="0 0 0 0 0 0 0 0 0 0 0 0 0 0 0 0 0 0 127 0" result="hardAlpha"/>
            <feOffset dy="1.36142"/>
            <feGaussianBlur stdDeviation="0.523622"/>
            <feColorMatrix type="matrix" values="0 0 0 0 0 0 0 0 0 0.051 0 0 0 0 0.082 0 0 0 0.5 0"/>
            <feBlend mode="multiply" in2="BackgroundImageFix" result="effect1_dropShadow_474_15127"/>
            <feColorMatrix in="SourceAlpha" type="matrix" values="0 0 0 0 0 0 0 0 0 0 0 0 0 0 0 0 0 0 127 0" result="hardAlpha"/>
            <feOffset dy="1.24622"/>
            <feGaussianBlur stdDeviation="0.810043"/>
            <feColorMatrix type="matrix" values="0 0 0 0 0.702449 0 0 0 0 0.458646 0 0 0 0 0.991667 0 0 0 0.6 0"/>
            <feBlend mode="color-dodge" in2="effect1_dropShadow_474_15127" result="effect2_dropShadow_474_15127"/>
            <feBlend mode="normal" in="SourceGraphic" in2="effect2_dropShadow_474_15127" result="shape"/>
            <feColorMatrix in="SourceAlpha" type="matrix" values="0 0 0 0 0 0 0 0 0 0 0 0 0 0 0 0 0 0 127 0" result="hardAlpha"/>
            <feOffset dx="-0.136142" dy="0.272283"/>
            <feGaussianBlur stdDeviation="0.0680708"/>
            <feComposite in2="hardAlpha" operator="arithmetic" k2="-1" k3="1"/>
            <feColorMatrix type="matrix" values="0 0 0 0 1 0 0 0 0 1 0 0 0 0 1 0 0 0 0.5 0"/>
            <feBlend mode="normal" in2="shape" result="effect3_innerShadow_474_15127"/>
        </filter>
        <filter id="filter33_f_474_15127" x="62.0845" y="3.97472" width="15.6914" height="15.0213" filterUnits="userSpaceOnUse" color-interpolation-filters="sRGB">
            <feFlood flood-opacity="0" result="BackgroundImageFix"/>
            <feBlend mode="normal" in="SourceGraphic" in2="BackgroundImageFix" result="shape"/>
            <feGaussianBlur stdDeviation="0.104724" result="effect1_foregroundBlur_474_15127"/>
        </filter>
        <filter id="filter34_f_474_15127" x="62.1543" y="4.04454" width="15.5517" height="14.8817" filterUnits="userSpaceOnUse" color-interpolation-filters="sRGB">
            <feFlood flood-opacity="0" result="BackgroundImageFix"/>
            <feBlend mode="normal" in="SourceGraphic" in2="BackgroundImageFix" result="shape"/>
            <feGaussianBlur stdDeviation="0.0698162" result="effect1_foregroundBlur_474_15127"/>
        </filter>
    </defs>
</svg>
