<svg viewBox="0 0 87 63" fill="none" xmlns="http://www.w3.org/2000/svg">
    <g style="mix-blend-mode:hard-light" filter="url(#filter0_f_474_15137)">
        <path d="M16.9628 7.17731C16.9811 7.1317 17.0019 7.11419 17.0169 7.1046C17.0368 7.0919 17.0672 7.0813 17.1048 7.0813C17.1424 7.0813 17.1729 7.0919 17.1927 7.1046C17.2077 7.11419 17.2285 7.1317 17.2468 7.17731L19.4318 12.6183C19.7382 13.3814 20.4545 13.9018 21.275 13.9574L27.1248 14.3541C27.1739 14.3574 27.1969 14.3718 27.2107 14.3831C27.2289 14.3981 27.2484 14.4237 27.26 14.4595C27.2716 14.4952 27.271 14.5275 27.265 14.5503C27.2605 14.5675 27.2503 14.5927 27.2126 14.6242L22.7131 18.3836C22.082 18.9109 21.8084 19.7529 22.0091 20.5504L23.4395 26.2365C23.4515 26.2842 23.445 26.3106 23.4385 26.3271C23.4299 26.3491 23.4115 26.3756 23.3811 26.3977C23.3507 26.4198 23.3198 26.4291 23.2963 26.4305C23.2785 26.4315 23.2514 26.4296 23.2098 26.4035L18.244 23.2859C17.5475 22.8486 16.6621 22.8486 15.9656 23.2859L10.9999 26.4035C10.9583 26.4296 10.9311 26.4315 10.9134 26.4305C10.8898 26.4291 10.859 26.4198 10.8286 26.3977C10.7981 26.3756 10.7797 26.3491 10.7711 26.3271C10.7646 26.3106 10.7581 26.2842 10.7701 26.2365L12.2006 20.5504C12.4012 19.7529 12.1276 18.9109 11.4965 18.3836L6.99704 14.6242C6.95932 14.5927 6.9491 14.5675 6.94461 14.5503C6.93867 14.5275 6.93799 14.4952 6.94961 14.4595C6.96123 14.4237 6.98072 14.3981 6.99894 14.3831C7.01269 14.3718 7.03577 14.3574 7.0848 14.3541L12.9346 13.9574C13.7551 13.9018 14.4714 13.3814 14.7779 12.6183L16.9628 7.17731Z" stroke="#6A11D5" stroke-width="1.98947"/>
    </g>
    <g style="mix-blend-mode:hard-light" filter="url(#filter1_f_474_15137)">
        <path d="M15.0619 12.7323L17.1048 7.64501L19.1477 12.7323C19.498 13.6045 20.3166 14.1992 21.2543 14.2628L26.7239 14.6337L22.5169 18.1487C21.7956 18.7513 21.483 19.7136 21.7123 20.6251L23.0497 25.9416L18.4067 23.0267C17.6107 22.5269 16.5989 22.5269 15.8029 23.0267L11.1599 25.9416L12.4974 20.6251C12.7267 19.7136 12.414 18.7513 11.6927 18.1487L7.48573 14.6337L12.9553 14.2628C13.8931 14.1992 14.7117 13.6045 15.0619 12.7323Z" stroke="#7936C9" stroke-width="2.60161"/>
    </g>
    <g style="mix-blend-mode:hard-light" filter="url(#filter2_ddi_474_15137)">
        <path d="M16.9628 7.17731C16.9811 7.1317 17.0019 7.11419 17.0169 7.1046C17.0368 7.0919 17.0672 7.0813 17.1048 7.0813C17.1424 7.0813 17.1729 7.0919 17.1927 7.1046C17.2077 7.11419 17.2285 7.1317 17.2468 7.17731L19.4318 12.6183C19.7382 13.3814 20.4545 13.9018 21.275 13.9574L27.1248 14.3541C27.1739 14.3574 27.1969 14.3718 27.2107 14.3831C27.2289 14.3981 27.2484 14.4237 27.26 14.4595C27.2716 14.4952 27.271 14.5275 27.265 14.5503C27.2605 14.5675 27.2503 14.5927 27.2126 14.6242L22.7131 18.3836C22.082 18.9109 21.8084 19.7529 22.0091 20.5504L23.4395 26.2365C23.4515 26.2842 23.445 26.3106 23.4385 26.3271C23.4299 26.3491 23.4115 26.3756 23.3811 26.3977C23.3507 26.4198 23.3198 26.4291 23.2963 26.4305C23.2785 26.4315 23.2514 26.4296 23.2098 26.4035L18.244 23.2859C17.5475 22.8486 16.6621 22.8486 15.9656 23.2859L10.9999 26.4035C10.9583 26.4296 10.9311 26.4315 10.9134 26.4305C10.8898 26.4291 10.859 26.4198 10.8286 26.3977C10.7981 26.3756 10.7797 26.3491 10.7711 26.3271C10.7646 26.3106 10.7581 26.2842 10.7701 26.2365L12.2006 20.5504C12.4012 19.7529 12.1276 18.9109 11.4965 18.3836L6.99704 14.6242C6.95932 14.5927 6.9491 14.5675 6.94461 14.5503C6.93867 14.5275 6.93799 14.4952 6.94961 14.4595C6.96123 14.4237 6.98072 14.3981 6.99894 14.3831C7.01269 14.3718 7.03577 14.3574 7.0848 14.3541L12.9346 13.9574C13.7551 13.9018 14.4714 13.3814 14.7779 12.6183L16.9628 7.17731Z" stroke="#8620FF" stroke-opacity="0.2" stroke-width="1.98947"/>
    </g>
    <g filter="url(#filter3_f_474_15137)">
        <path d="M16.6078 7.03474C16.7877 6.5867 17.4219 6.5867 17.6019 7.03474L19.7868 12.4757C20.0385 13.1026 20.6269 13.53 21.3009 13.5757L27.1507 13.9724C27.6324 14.005 27.8284 14.6083 27.4579 14.9178L22.9584 18.6772C22.44 19.1103 22.2153 19.802 22.3801 20.4571L23.8106 26.1432C23.9284 26.6114 23.4152 26.9842 23.0063 26.7275L18.0406 23.6099C17.4684 23.2507 16.7412 23.2507 16.1691 23.6099L11.2033 26.7275C10.7944 26.9842 10.2813 26.6114 10.3991 26.1432L11.8295 20.4571C11.9943 19.802 11.7696 19.1103 11.2512 18.6772L6.75173 14.9178C6.38122 14.6083 6.57722 14.005 7.05892 13.9724L12.9087 13.5757C13.5827 13.53 14.1711 13.1026 14.4228 12.4757L16.6078 7.03474Z" stroke="#8620FF" stroke-opacity="0.2" stroke-width="1.22429"/>
    </g>
    <g filter="url(#filter4_f_474_15137)">
        <path d="M16.3237 6.92068C16.6065 6.21663 17.6032 6.21663 17.8859 6.92068L20.0708 12.3616C20.2788 12.8795 20.7648 13.2326 21.3216 13.2704L27.1714 13.667C27.9284 13.7183 28.2364 14.6662 27.6541 15.1527L23.1547 18.912C22.7264 19.2698 22.5408 19.8412 22.6769 20.3824L24.1074 26.0685C24.2925 26.8043 23.4862 27.3901 22.8436 26.9867L17.8778 23.8692C17.4052 23.5724 16.8044 23.5724 16.3318 23.8692L11.366 26.9867C10.7235 27.3901 9.91714 26.8043 10.1022 26.0685L11.5327 20.3824C11.6689 19.8412 11.4832 19.2698 11.0549 18.912L6.55549 15.1527C5.97326 14.6662 6.28125 13.7183 7.03822 13.667L12.888 13.2704C13.4448 13.2326 13.9309 12.8795 14.1388 12.3616L16.3237 6.92068Z" stroke="white" stroke-width="0.612144"/>
    </g>
    <g style="mix-blend-mode:hard-light" filter="url(#filter5_f_474_15137)">
        <path d="M43.9506 7.17731C43.9689 7.1317 43.9897 7.11419 44.0047 7.1046C44.0246 7.0919 44.055 7.0813 44.0926 7.0813C44.1302 7.0813 44.1606 7.0919 44.1805 7.1046C44.1955 7.11419 44.2163 7.1317 44.2346 7.17731L46.4196 12.6183C46.726 13.3814 47.4423 13.9018 48.2628 13.9574L54.1126 14.3541C54.1617 14.3574 54.1847 14.3718 54.1985 14.3831C54.2167 14.3981 54.2362 14.4237 54.2478 14.4595C54.2594 14.4952 54.2588 14.5275 54.2528 14.5503C54.2483 14.5675 54.2381 14.5927 54.2004 14.6242L49.7009 18.3836C49.0698 18.9109 48.7962 19.7529 48.9969 20.5504L50.4273 26.2365C50.4393 26.2842 50.4328 26.3106 50.4263 26.3271C50.4177 26.3491 50.3993 26.3756 50.3689 26.3977C50.3385 26.4198 50.3076 26.4291 50.2841 26.4305C50.2663 26.4315 50.2392 26.4296 50.1975 26.4035L45.2318 23.2859C44.5353 22.8486 43.6499 22.8486 42.9534 23.2859L37.9877 26.4035C37.946 26.4296 37.9189 26.4315 37.9012 26.4305C37.8776 26.4291 37.8468 26.4198 37.8163 26.3977C37.7859 26.3756 37.7675 26.3491 37.7589 26.3271C37.7524 26.3106 37.7459 26.2842 37.7579 26.2365L39.1883 20.5504C39.389 19.7529 39.1154 18.9109 38.4843 18.3836L33.9848 14.6242C33.9471 14.5927 33.9369 14.5675 33.9324 14.5503C33.9265 14.5275 33.9258 14.4952 33.9374 14.4595C33.949 14.4237 33.9685 14.3981 33.9867 14.3831C34.0005 14.3718 34.0236 14.3574 34.0726 14.3541L39.9224 13.9574C40.7429 13.9018 41.4592 13.3814 41.7657 12.6183L43.9506 7.17731Z" stroke="#6A11D5" stroke-width="1.98947"/>
    </g>
    <g style="mix-blend-mode:hard-light" filter="url(#filter6_f_474_15137)">
        <path d="M42.0497 12.7323L44.0926 7.64501L46.1355 12.7323C46.4858 13.6045 47.3044 14.1992 48.2421 14.2628L53.7117 14.6337L49.5047 18.1487C48.7834 18.7513 48.4707 19.7136 48.7 20.6251L50.0375 25.9416L45.3945 23.0267C44.5985 22.5269 43.5867 22.5269 42.7907 23.0267L38.1477 25.9416L39.4852 20.6251C39.7145 19.7136 39.4018 18.7513 38.6805 18.1487L34.4735 14.6337L39.9431 14.2628C40.8809 14.1992 41.6994 13.6045 42.0497 12.7323Z" stroke="#7936C9" stroke-width="2.60161"/>
    </g>
    <g style="mix-blend-mode:hard-light" filter="url(#filter7_ddi_474_15137)">
        <path d="M43.9506 7.17731C43.9689 7.1317 43.9897 7.11419 44.0047 7.1046C44.0246 7.0919 44.055 7.0813 44.0926 7.0813C44.1302 7.0813 44.1606 7.0919 44.1805 7.1046C44.1955 7.11419 44.2163 7.1317 44.2346 7.17731L46.4196 12.6183C46.726 13.3814 47.4423 13.9018 48.2628 13.9574L54.1126 14.3541C54.1617 14.3574 54.1847 14.3718 54.1985 14.3831C54.2167 14.3981 54.2362 14.4237 54.2478 14.4595C54.2594 14.4952 54.2588 14.5275 54.2528 14.5503C54.2483 14.5675 54.2381 14.5927 54.2004 14.6242L49.7009 18.3836C49.0698 18.9109 48.7962 19.7529 48.9969 20.5504L50.4273 26.2365C50.4393 26.2842 50.4328 26.3106 50.4263 26.3271C50.4177 26.3491 50.3993 26.3756 50.3689 26.3977C50.3385 26.4198 50.3076 26.4291 50.2841 26.4305C50.2663 26.4315 50.2392 26.4296 50.1975 26.4035L45.2318 23.2859C44.5353 22.8486 43.6499 22.8486 42.9534 23.2859L37.9877 26.4035C37.946 26.4296 37.9189 26.4315 37.9012 26.4305C37.8776 26.4291 37.8468 26.4198 37.8163 26.3977C37.7859 26.3756 37.7675 26.3491 37.7589 26.3271C37.7524 26.3106 37.7459 26.2842 37.7579 26.2365L39.1883 20.5504C39.389 19.7529 39.1154 18.9109 38.4843 18.3836L33.9848 14.6242C33.9471 14.5927 33.9369 14.5675 33.9324 14.5503C33.9265 14.5275 33.9258 14.4952 33.9374 14.4595C33.949 14.4237 33.9685 14.3981 33.9867 14.3831C34.0005 14.3718 34.0236 14.3574 34.0726 14.3541L39.9224 13.9574C40.7429 13.9018 41.4592 13.3814 41.7657 12.6183L43.9506 7.17731Z" stroke="#8620FF" stroke-opacity="0.2" stroke-width="1.98947"/>
    </g>
    <g filter="url(#filter8_f_474_15137)">
        <path d="M43.5956 7.03474C43.7755 6.5867 44.4097 6.5867 44.5897 7.03474L46.7746 12.4757C47.0263 13.1026 47.6147 13.53 48.2887 13.5757L54.1385 13.9724C54.6202 14.005 54.8162 14.6083 54.4457 14.9178L49.9462 18.6772C49.4278 19.1103 49.2031 19.802 49.3679 20.4571L50.7984 26.1432C50.9162 26.6114 50.403 26.9842 49.9941 26.7275L45.0284 23.6099C44.4562 23.2507 43.729 23.2507 43.1568 23.6099L38.1911 26.7275C37.7822 26.9842 37.2691 26.6114 37.3869 26.1432L38.8173 20.4571C38.9821 19.802 38.7574 19.1103 38.239 18.6772L33.7395 14.9178C33.369 14.6083 33.565 14.005 34.0467 13.9724L39.8965 13.5757C40.5705 13.53 41.1589 13.1026 41.4106 12.4757L43.5956 7.03474Z" stroke="#8620FF" stroke-opacity="0.2" stroke-width="1.22429"/>
    </g>
    <g filter="url(#filter9_f_474_15137)">
        <path d="M43.3115 6.92068C43.5943 6.21663 44.591 6.21663 44.8737 6.92068L47.0586 12.3616C47.2666 12.8795 47.7526 13.2326 48.3094 13.2704L54.1592 13.667C54.9162 13.7183 55.2242 14.6662 54.6419 15.1527L50.1425 18.912C49.7142 19.2698 49.5286 19.8412 49.6647 20.3824L51.0952 26.0685C51.2803 26.8043 50.4739 27.3901 49.8314 26.9867L44.8656 23.8692C44.393 23.5724 43.7922 23.5724 43.3196 23.8692L38.3538 26.9867C37.7113 27.3901 36.9049 26.8043 37.09 26.0685L38.5205 20.3824C38.6566 19.8412 38.471 19.2698 38.0427 18.912L33.5433 15.1527C32.9611 14.6662 33.269 13.7183 34.026 13.667L39.8758 13.2704C40.4326 13.2326 40.9186 12.8795 41.1266 12.3616L43.3115 6.92068Z" stroke="white" stroke-width="0.612144"/>
    </g>
    <g style="mix-blend-mode:hard-light" filter="url(#filter10_f_474_15137)">
        <path d="M69.975 7.17731C69.9933 7.1317 70.0141 7.11419 70.0291 7.1046C70.049 7.0919 70.0794 7.0813 70.117 7.0813C70.1546 7.0813 70.1851 7.0919 70.2049 7.1046C70.2199 7.11419 70.2407 7.1317 70.259 7.17731L72.444 12.6183C72.7504 13.3814 73.4667 13.9018 74.2872 13.9574L80.137 14.3541C80.1861 14.3574 80.2092 14.3718 80.2229 14.3831C80.2411 14.3981 80.2606 14.4237 80.2722 14.4595C80.2838 14.4952 80.2832 14.5275 80.2772 14.5503C80.2727 14.5675 80.2625 14.5927 80.2248 14.6242L75.7253 18.3836C75.0942 18.9109 74.8206 19.7529 75.0213 20.5504L76.4517 26.2365C76.4637 26.2842 76.4572 26.3106 76.4507 26.3271C76.4421 26.3491 76.4237 26.3756 76.3933 26.3977C76.3629 26.4198 76.332 26.4291 76.3085 26.4305C76.2907 26.4315 76.2636 26.4296 76.222 26.4035L71.2562 23.2859C70.5597 22.8486 69.6744 22.8486 68.9778 23.2859L64.0121 26.4035C63.9705 26.4296 63.9433 26.4315 63.9256 26.4305C63.902 26.4291 63.8712 26.4198 63.8408 26.3977C63.8103 26.3756 63.7919 26.3491 63.7833 26.3271C63.7769 26.3106 63.7703 26.2842 63.7823 26.2365L65.2128 20.5504C65.4134 19.7529 65.1398 18.9109 64.5087 18.3836L60.0092 14.6242C59.9715 14.5927 59.9613 14.5675 59.9568 14.5503C59.9509 14.5275 59.9502 14.4952 59.9618 14.4595C59.9734 14.4237 59.9929 14.3981 60.0111 14.3831C60.0249 14.3718 60.048 14.3574 60.097 14.3541L65.9468 13.9574C66.7674 13.9018 67.4836 13.3814 67.7901 12.6183L69.975 7.17731Z" stroke="#6A11D5" stroke-width="1.98947"/>
    </g>
    <g style="mix-blend-mode:hard-light" filter="url(#filter11_f_474_15137)">
        <path d="M68.0741 12.7323L70.117 7.64501L72.1599 12.7323C72.5102 13.6045 73.3288 14.1992 74.2665 14.2628L79.7361 14.6337L75.5291 18.1487C74.8078 18.7513 74.4952 19.7136 74.7245 20.6251L76.0619 25.9416L71.419 23.0267C70.6229 22.5269 69.6111 22.5269 68.8151 23.0267L64.1721 25.9416L65.5096 20.6251C65.7389 19.7136 65.4262 18.7513 64.7049 18.1487L60.4979 14.6337L65.9675 14.2628C66.9053 14.1992 67.7239 13.6045 68.0741 12.7323Z" stroke="#7936C9" stroke-width="2.60161"/>
    </g>
    <g style="mix-blend-mode:hard-light" filter="url(#filter12_ddi_474_15137)">
        <path d="M69.975 7.17731C69.9933 7.1317 70.0141 7.11419 70.0291 7.1046C70.049 7.0919 70.0794 7.0813 70.117 7.0813C70.1546 7.0813 70.1851 7.0919 70.2049 7.1046C70.2199 7.11419 70.2407 7.1317 70.259 7.17731L72.444 12.6183C72.7504 13.3814 73.4667 13.9018 74.2872 13.9574L80.137 14.3541C80.1861 14.3574 80.2092 14.3718 80.2229 14.3831C80.2411 14.3981 80.2606 14.4237 80.2722 14.4595C80.2838 14.4952 80.2832 14.5275 80.2772 14.5503C80.2727 14.5675 80.2625 14.5927 80.2248 14.6242L75.7253 18.3836C75.0942 18.9109 74.8206 19.7529 75.0213 20.5504L76.4517 26.2365C76.4637 26.2842 76.4572 26.3106 76.4507 26.3271C76.4421 26.3491 76.4237 26.3756 76.3933 26.3977C76.3629 26.4198 76.332 26.4291 76.3085 26.4305C76.2907 26.4315 76.2636 26.4296 76.222 26.4035L71.2562 23.2859C70.5597 22.8486 69.6744 22.8486 68.9778 23.2859L64.0121 26.4035C63.9705 26.4296 63.9433 26.4315 63.9256 26.4305C63.902 26.4291 63.8712 26.4198 63.8408 26.3977C63.8103 26.3756 63.7919 26.3491 63.7833 26.3271C63.7769 26.3106 63.7703 26.2842 63.7823 26.2365L65.2128 20.5504C65.4134 19.7529 65.1398 18.9109 64.5087 18.3836L60.0092 14.6242C59.9715 14.5927 59.9613 14.5675 59.9568 14.5503C59.9509 14.5275 59.9502 14.4952 59.9618 14.4595C59.9734 14.4237 59.9929 14.3981 60.0111 14.3831C60.0249 14.3718 60.048 14.3574 60.097 14.3541L65.9468 13.9574C66.7674 13.9018 67.4836 13.3814 67.7901 12.6183L69.975 7.17731Z" stroke="#8620FF" stroke-opacity="0.2" stroke-width="1.98947"/>
    </g>
    <g filter="url(#filter13_f_474_15137)">
        <path d="M69.62 7.03474C69.7999 6.5867 70.4342 6.5867 70.6141 7.03474L72.799 12.4757C73.0507 13.1026 73.6391 13.53 74.3131 13.5757L80.1629 13.9724C80.6446 14.005 80.8406 14.6083 80.4701 14.9178L75.9706 18.6772C75.4522 19.1103 75.2275 19.802 75.3923 20.4571L76.8228 26.1432C76.9406 26.6114 76.4274 26.9842 76.0185 26.7275L71.0528 23.6099C70.4807 23.2507 69.7534 23.2507 69.1813 23.6099L64.2155 26.7275C63.8066 26.9842 63.2935 26.6114 63.4113 26.1432L64.8417 20.4571C65.0065 19.802 64.7818 19.1103 64.2634 18.6772L59.7639 14.9178C59.3934 14.6083 59.5894 14.005 60.0711 13.9724L65.921 13.5757C66.5949 13.53 67.1833 13.1026 67.435 12.4757L69.62 7.03474Z" stroke="#8620FF" stroke-opacity="0.2" stroke-width="1.22429"/>
    </g>
    <g filter="url(#filter14_f_474_15137)">
        <path d="M69.336 6.92068C69.6187 6.21663 70.6154 6.21663 70.8981 6.92068L73.083 12.3616C73.291 12.8795 73.777 13.2326 74.3338 13.2704L80.1836 13.667C80.9406 13.7183 81.2486 14.6662 80.6664 15.1527L76.1669 18.912C75.7386 19.2698 75.553 19.8412 75.6891 20.3824L77.1196 26.0685C77.3047 26.8043 76.4984 27.3901 75.8558 26.9867L70.89 23.8692C70.4174 23.5724 69.8166 23.5724 69.344 23.8692L64.3783 26.9867C63.7357 27.3901 62.9293 26.8043 63.1144 26.0685L64.5449 20.3824C64.6811 19.8412 64.4954 19.2698 64.0672 18.912L59.5677 15.1527C58.9855 14.6662 59.2935 13.7183 60.0504 13.667L65.9002 13.2704C66.457 13.2326 66.9431 12.8795 67.151 12.3616L69.336 6.92068Z" stroke="white" stroke-width="0.612144"/>
    </g>
    <path d="M10.1363 41.6639V49.3639H8.57431V42.9289H5.52731V49.3639H3.96531V41.6639H10.1363ZM12.8552 46.9659C12.8625 47.1493 12.9029 47.3253 12.9762 47.4939C13.0495 47.6626 13.1559 47.8129 13.2952 47.9449C13.4345 48.0769 13.6069 48.1833 13.8122 48.2639C14.0249 48.3373 14.2705 48.3739 14.5492 48.3739C14.8792 48.3739 15.1909 48.3409 15.4842 48.2749C15.7775 48.2016 16.0599 48.1026 16.3312 47.9779V49.0999C16.0379 49.2099 15.7225 49.2979 15.3852 49.3639C15.0479 49.4226 14.7069 49.4519 14.3622 49.4519C13.9369 49.4519 13.5372 49.3933 13.1632 49.2759C12.7892 49.1586 12.4629 48.9789 12.1842 48.7369C11.9129 48.4949 11.6965 48.1906 11.5352 47.8239C11.3739 47.4573 11.2932 47.0209 11.2932 46.5149C11.2932 46.0529 11.3665 45.6423 11.5132 45.2829C11.6672 44.9163 11.8725 44.6083 12.1292 44.3589C12.3859 44.1023 12.6829 43.9079 13.0202 43.7759C13.3649 43.6439 13.7279 43.5779 14.1092 43.5779C14.5419 43.5779 14.9049 43.6439 15.1982 43.7759C15.4989 43.9006 15.7445 44.0619 15.9352 44.2599C16.1332 44.4579 16.2835 44.6779 16.3862 44.9199C16.4962 45.1546 16.5769 45.3856 16.6282 45.6129C16.6795 45.8403 16.7089 46.0456 16.7162 46.2289C16.7309 46.4123 16.7382 46.5443 16.7382 46.6249V46.9659H12.8552ZM15.1982 45.9429C15.2055 45.7009 15.1725 45.4956 15.0992 45.3269C15.0332 45.1583 14.9415 45.0226 14.8242 44.9199C14.7069 44.8099 14.5785 44.7329 14.4392 44.6889C14.2999 44.6376 14.1605 44.6119 14.0212 44.6119C13.8525 44.6119 13.6985 44.6486 13.5592 44.7219C13.4199 44.7879 13.2989 44.8796 13.1962 44.9969C13.0935 45.1143 13.0092 45.2573 12.9432 45.4259C12.8845 45.5873 12.8552 45.7596 12.8552 45.9429H15.1982ZM17.8429 51.7179V43.6659H19.1519V44.6559H19.1739C19.3206 44.3993 19.4856 44.1976 19.6689 44.0509C19.8596 43.9043 20.0466 43.7979 20.2299 43.7319C20.4133 43.6586 20.5783 43.6146 20.7249 43.5999C20.8716 43.5853 20.9743 43.5779 21.0329 43.5779C21.3556 43.5779 21.6599 43.6329 21.9459 43.7429C22.2393 43.8456 22.4959 44.0179 22.7159 44.2599C22.9359 44.4946 23.1083 44.7989 23.2329 45.1729C23.3649 45.5396 23.4309 45.9869 23.4309 46.5149C23.4309 47.0429 23.3613 47.4939 23.2219 47.8679C23.0826 48.2346 22.8956 48.5353 22.6609 48.7699C22.4336 49.0046 22.1696 49.1769 21.8689 49.2869C21.5756 49.3969 21.2749 49.4519 20.9669 49.4519C20.5489 49.4519 20.2079 49.3676 19.9439 49.1989C19.6873 49.0303 19.4819 48.8286 19.3279 48.5939H19.3059L19.3389 49.5289V51.7179H17.8429ZM19.3389 46.5149C19.3389 46.8156 19.3756 47.0759 19.4489 47.2959C19.5223 47.5159 19.6176 47.6993 19.7349 47.8459C19.8596 47.9853 19.9953 48.0916 20.1419 48.1649C20.2959 48.2309 20.4499 48.2639 20.6039 48.2639C20.7579 48.2639 20.9083 48.2309 21.0549 48.1649C21.2089 48.0916 21.3446 47.9853 21.4619 47.8459C21.5866 47.6993 21.6856 47.5159 21.7589 47.2959C21.8323 47.0759 21.8689 46.8156 21.8689 46.5149C21.8689 46.2143 21.8323 45.9539 21.7589 45.7339C21.6856 45.5139 21.5866 45.3343 21.4619 45.1949C21.3446 45.0483 21.2089 44.9419 21.0549 44.8759C20.9083 44.8026 20.7579 44.7659 20.6039 44.7659C20.4499 44.7659 20.2959 44.8026 20.1419 44.8759C19.9953 44.9419 19.8596 45.0483 19.7349 45.1949C19.6176 45.3343 19.5223 45.5139 19.4489 45.7339C19.3756 45.9539 19.3389 46.2143 19.3389 46.5149ZM27.1753 49.4519C26.6693 49.4519 26.2293 49.3676 25.8553 49.1989C25.4813 49.0303 25.1696 48.8066 24.9203 48.5279C24.6783 48.2419 24.4986 47.9193 24.3813 47.5599C24.264 47.2006 24.2053 46.8339 24.2053 46.4599C24.2053 46.0786 24.2713 45.7156 24.4033 45.3709C24.5353 45.0189 24.7296 44.7109 24.9863 44.4469C25.243 44.1829 25.562 43.9739 25.9433 43.8199C26.332 43.6586 26.7793 43.5779 27.2853 43.5779C27.476 43.5779 27.6813 43.5889 27.9013 43.6109C28.1213 43.6329 28.3376 43.6733 28.5503 43.7319V44.8429C28.411 44.7843 28.2606 44.7403 28.0993 44.7109C27.9453 44.6743 27.7583 44.6559 27.5383 44.6559C27.289 44.6559 27.0543 44.6999 26.8343 44.7879C26.6216 44.8759 26.4346 45.0043 26.2733 45.1729C26.1193 45.3343 25.9946 45.5323 25.8993 45.7669C25.8113 45.9943 25.7673 46.2509 25.7673 46.5369C25.7673 46.7936 25.804 47.0356 25.8773 47.2629C25.958 47.4829 26.068 47.6773 26.2073 47.8459C26.354 48.0073 26.53 48.1356 26.7353 48.2309C26.9406 48.3263 27.1753 48.3739 27.4393 48.3739C27.8426 48.3739 28.2423 48.2896 28.6383 48.1209V49.2319C28.499 49.2759 28.301 49.3236 28.0443 49.3749C27.795 49.4263 27.5053 49.4519 27.1753 49.4519ZM29.2971 46.5149C29.2971 46.0383 29.3704 45.6166 29.5171 45.2499C29.6638 44.8833 29.8654 44.5789 30.1221 44.3369C30.3861 44.0876 30.6978 43.9006 31.0571 43.7759C31.4164 43.6439 31.8088 43.5779 32.2341 43.5779C32.6594 43.5779 33.0518 43.6439 33.4111 43.7759C33.7704 43.9006 34.0784 44.0876 34.3351 44.3369C34.5991 44.5789 34.8044 44.8833 34.9511 45.2499C35.0978 45.6166 35.1711 46.0383 35.1711 46.5149C35.1711 46.9916 35.0978 47.4133 34.9511 47.7799C34.8044 48.1466 34.5991 48.4546 34.3351 48.7039C34.0784 48.9459 33.7704 49.1329 33.4111 49.2649C33.0518 49.3896 32.6594 49.4519 32.2341 49.4519C31.8088 49.4519 31.4164 49.3896 31.0571 49.2649C30.6978 49.1329 30.3861 48.9459 30.1221 48.7039C29.8654 48.4546 29.6638 48.1466 29.5171 47.7799C29.3704 47.4133 29.2971 46.9916 29.2971 46.5149ZM30.8591 46.5149C30.8591 46.8449 30.8994 47.1273 30.9801 47.3619C31.0608 47.5966 31.1671 47.7909 31.2991 47.9449C31.4311 48.0916 31.5778 48.2016 31.7391 48.2749C31.9004 48.3409 32.0654 48.3739 32.2341 48.3739C32.3954 48.3739 32.5568 48.3409 32.7181 48.2749C32.8868 48.2016 33.0371 48.0916 33.1691 47.9449C33.3011 47.7909 33.4074 47.5966 33.4881 47.3619C33.5688 47.1273 33.6091 46.8449 33.6091 46.5149C33.6091 46.1849 33.5688 45.9026 33.4881 45.6679C33.4074 45.4333 33.3011 45.2426 33.1691 45.0959C33.0371 44.9419 32.8868 44.8319 32.7181 44.7659C32.5568 44.6926 32.3954 44.6559 32.2341 44.6559C32.0654 44.6559 31.9004 44.6926 31.7391 44.7659C31.5778 44.8319 31.4311 44.9419 31.2991 45.0959C31.1671 45.2426 31.0608 45.4333 30.9801 45.6679C30.8994 45.9026 30.8591 46.1849 30.8591 46.5149ZM37.7618 43.6659V45.8219H40.1598V43.6659H41.6558V49.3639H40.1598V46.9219H37.7618V49.3639H36.2658V43.6659H37.7618ZM43.4391 43.9519C43.7837 43.8126 44.1211 43.7173 44.4511 43.6659C44.7811 43.6073 45.1404 43.5779 45.5291 43.5779C46.1084 43.5779 46.5631 43.6513 46.8931 43.7979C47.2304 43.9446 47.4834 44.1279 47.6521 44.3479C47.8207 44.5679 47.9271 44.8063 47.9711 45.0629C48.0224 45.3196 48.0481 45.5543 48.0481 45.7669V49.3639H46.5851V48.5279H46.5631C46.5337 48.5866 46.4824 48.6709 46.4091 48.7809C46.3357 48.8836 46.2294 48.9863 46.0901 49.0889C45.9507 49.1843 45.7747 49.2686 45.5621 49.3419C45.3494 49.4153 45.0891 49.4519 44.7811 49.4519C44.4217 49.4519 44.1137 49.4043 43.8571 49.3089C43.6004 49.2063 43.3914 49.0743 43.2301 48.9129C43.0687 48.7516 42.9477 48.5683 42.8671 48.3629C42.7937 48.1503 42.7571 47.9339 42.7571 47.7139C42.7571 47.5159 42.7901 47.3069 42.8561 47.0869C42.9221 46.8669 43.0577 46.6653 43.2631 46.4819C43.4684 46.2913 43.7544 46.1373 44.1211 46.0199C44.4877 45.8953 44.9754 45.8329 45.5841 45.8329C45.7234 45.8329 45.8627 45.8366 46.0021 45.8439C46.1414 45.8439 46.2807 45.8439 46.4201 45.8439H46.5521V45.6019C46.5521 45.4479 46.5154 45.3086 46.4421 45.1839C46.3761 45.0593 46.2844 44.9566 46.1671 44.8759C46.0497 44.7953 45.9104 44.7329 45.7491 44.6889C45.5951 44.6449 45.4337 44.6229 45.2651 44.6229C45.0157 44.6229 44.7444 44.6559 44.4511 44.7219C44.1577 44.7806 43.8204 44.9163 43.4391 45.1289V43.9519ZM46.2991 46.7789C46.0937 46.7789 45.8701 46.7863 45.6281 46.8009C45.3934 46.8083 45.1734 46.8413 44.9681 46.8999C44.7701 46.9586 44.6051 47.0503 44.4731 47.1749C44.3411 47.2996 44.2751 47.4756 44.2751 47.7029C44.2751 47.9083 44.3447 48.0843 44.4841 48.2309C44.6234 48.3703 44.8581 48.4399 45.1881 48.4399C45.3421 48.4399 45.4997 48.4179 45.6611 48.3739C45.8224 48.3299 45.9691 48.2529 46.1011 48.1429C46.2331 48.0329 46.3394 47.8789 46.4201 47.6809C46.5081 47.4829 46.5521 47.2299 46.5521 46.9219V46.7789H46.2991ZM49.3592 49.4519C49.2566 49.4519 49.1502 49.4409 49.0402 49.4189C48.9302 49.4043 48.8349 49.3859 48.7542 49.3639V48.2199C48.8129 48.2346 48.8716 48.2456 48.9302 48.2529C48.9889 48.2603 49.0402 48.2639 49.0842 48.2639C49.1869 48.2639 49.2822 48.2309 49.3702 48.1649C49.4656 48.0989 49.5462 47.9523 49.6122 47.7249C49.6782 47.4976 49.7296 47.1676 49.7662 46.7349C49.8102 46.2949 49.8322 45.7046 49.8322 44.9639V43.6659H54.4192V49.3639H52.9232V44.7659H51.1632V44.9639C51.1632 45.9246 51.1229 46.6983 51.0422 47.2849C50.9616 47.8716 50.8442 48.3263 50.6902 48.6489C50.5362 48.9643 50.3456 49.1769 50.1182 49.2869C49.8982 49.3969 49.6452 49.4519 49.3592 49.4519ZM55.8378 43.6659H57.3338V45.5139H58.4778C59.2991 45.5139 59.9041 45.6899 60.2928 46.0419C60.6888 46.3939 60.8868 46.8596 60.8868 47.4389C60.8868 48.0183 60.6888 48.4839 60.2928 48.8359C59.9041 49.1879 59.2991 49.3639 58.4778 49.3639H55.8378V43.6659ZM59.3248 47.4389C59.3248 47.1603 59.2405 46.9439 59.0718 46.7899C58.9031 46.6359 58.6318 46.5589 58.2578 46.5589H57.3338V48.3189H58.2578C58.6318 48.3189 58.9031 48.2419 59.0718 48.0879C59.2405 47.9339 59.3248 47.7176 59.3248 47.4389ZM63.3174 43.6659V45.8219H65.7154V43.6659H67.2114V49.3639H65.7154V46.9219H63.3174V49.3639H61.8214V43.6659H63.3174ZM68.6317 43.6659H70.1277V45.5139H71.2717C72.0931 45.5139 72.6981 45.6899 73.0867 46.0419C73.4827 46.3939 73.6807 46.8596 73.6807 47.4389C73.6807 48.0183 73.4827 48.4839 73.0867 48.8359C72.6981 49.1879 72.0931 49.3639 71.2717 49.3639H68.6317V43.6659ZM72.1187 47.4389C72.1187 47.1603 72.0344 46.9439 71.8657 46.7899C71.6971 46.6359 71.4257 46.5589 71.0517 46.5589H70.1277V48.3189H71.0517C71.4257 48.3189 71.6971 48.2419 71.8657 48.0879C72.0344 47.9339 72.1187 47.7176 72.1187 47.4389ZM74.5717 43.6659H76.0677V49.3639H74.5717V43.6659ZM78.9903 43.6659V46.6579L78.9463 47.6809H78.9683L81.4213 43.6659H83.0933V49.3639H81.5973V46.4159L81.6413 45.3489H81.6083L79.0893 49.3639H77.4943V43.6659H78.9903ZM80.2883 42.9839C80.0903 42.9839 79.896 42.9583 79.7053 42.9069C79.522 42.8556 79.357 42.7749 79.2103 42.6649C79.0636 42.5476 78.9426 42.3973 78.8473 42.2139C78.7593 42.0233 78.708 41.7959 78.6933 41.5319L79.6283 41.4439C79.6576 41.7006 79.72 41.8839 79.8153 41.9939C79.918 42.1039 80.0756 42.1589 80.2883 42.1589C80.501 42.1589 80.655 42.1039 80.7503 41.9939C80.853 41.8839 80.919 41.7006 80.9483 41.4439L81.8833 41.5319C81.8686 41.7959 81.8136 42.0233 81.7183 42.2139C81.6303 42.3973 81.513 42.5476 81.3663 42.6649C81.2196 42.7749 81.051 42.8556 80.8603 42.9069C80.677 42.9583 80.4863 42.9839 80.2883 42.9839ZM16.2262 54.6659H18.4042L19.6692 57.7459L20.9342 54.6659H23.0462V60.3639H21.5502V56.2059H21.5282L20.3842 58.9559H18.8882L17.7442 56.2059H17.7222V60.3639H16.2262V54.6659ZM25.7082 57.9659C25.7156 58.1493 25.7559 58.3253 25.8292 58.4939C25.9026 58.6626 26.0089 58.8129 26.1482 58.9449C26.2876 59.0769 26.4599 59.1833 26.6652 59.2639C26.8779 59.3373 27.1236 59.3739 27.4022 59.3739C27.7322 59.3739 28.0439 59.3409 28.3372 59.2749C28.6306 59.2016 28.9129 59.1026 29.1842 58.9779V60.0999C28.8909 60.2099 28.5756 60.2979 28.2382 60.3639C27.9009 60.4226 27.5599 60.4519 27.2152 60.4519C26.7899 60.4519 26.3902 60.3933 26.0162 60.2759C25.6422 60.1586 25.3159 59.9789 25.0372 59.7369C24.7659 59.4949 24.5496 59.1906 24.3882 58.8239C24.2269 58.4573 24.1462 58.0209 24.1462 57.5149C24.1462 57.0529 24.2196 56.6423 24.3662 56.2829C24.5202 55.9163 24.7256 55.6083 24.9822 55.3589C25.2389 55.1023 25.5359 54.9079 25.8732 54.7759C26.2179 54.6439 26.5809 54.5779 26.9622 54.5779C27.3949 54.5779 27.7579 54.6439 28.0512 54.7759C28.3519 54.9006 28.5976 55.0619 28.7882 55.2599C28.9862 55.4579 29.1366 55.6779 29.2392 55.9199C29.3492 56.1546 29.4299 56.3856 29.4812 56.6129C29.5326 56.8403 29.5619 57.0456 29.5692 57.2289C29.5839 57.4123 29.5912 57.5443 29.5912 57.6249V57.9659H25.7082ZM28.0512 56.9429C28.0586 56.7009 28.0256 56.4956 27.9522 56.3269C27.8862 56.1583 27.7946 56.0226 27.6772 55.9199C27.5599 55.8099 27.4316 55.7329 27.2922 55.6889C27.1529 55.6376 27.0136 55.6119 26.8742 55.6119C26.7056 55.6119 26.5516 55.6486 26.4122 55.7219C26.2729 55.7879 26.1519 55.8796 26.0492 55.9969C25.9466 56.1143 25.8622 56.2573 25.7962 56.4259C25.7376 56.5873 25.7082 56.7596 25.7082 56.9429H28.0512ZM32.192 54.6659V56.8219H34.59V54.6659H36.086V60.3639H34.59V57.9219H32.192V60.3639H30.696V54.6659H32.192ZM38.7492 57.9659C38.7566 58.1493 38.7969 58.3253 38.8702 58.4939C38.9436 58.6626 39.0499 58.8129 39.1892 58.9449C39.3286 59.0769 39.5009 59.1833 39.7062 59.2639C39.9189 59.3373 40.1646 59.3739 40.4432 59.3739C40.7732 59.3739 41.0849 59.3409 41.3782 59.2749C41.6716 59.2016 41.9539 59.1026 42.2252 58.9779V60.0999C41.9319 60.2099 41.6166 60.2979 41.2792 60.3639C40.9419 60.4226 40.6009 60.4519 40.2562 60.4519C39.8309 60.4519 39.4312 60.3933 39.0572 60.2759C38.6832 60.1586 38.3569 59.9789 38.0782 59.7369C37.8069 59.4949 37.5906 59.1906 37.4292 58.8239C37.2679 58.4573 37.1872 58.0209 37.1872 57.5149C37.1872 57.0529 37.2606 56.6423 37.4072 56.2829C37.5612 55.9163 37.7666 55.6083 38.0232 55.3589C38.2799 55.1023 38.5769 54.9079 38.9142 54.7759C39.2589 54.6439 39.6219 54.5779 40.0032 54.5779C40.4359 54.5779 40.7989 54.6439 41.0922 54.7759C41.3929 54.9006 41.6386 55.0619 41.8292 55.2599C42.0272 55.4579 42.1776 55.6779 42.2802 55.9199C42.3902 56.1546 42.4709 56.3856 42.5222 56.6129C42.5736 56.8403 42.6029 57.0456 42.6102 57.2289C42.6249 57.4123 42.6322 57.5443 42.6322 57.6249V57.9659H38.7492ZM41.0922 56.9429C41.0996 56.7009 41.0666 56.4956 40.9932 56.3269C40.9272 56.1583 40.8356 56.0226 40.7182 55.9199C40.6009 55.8099 40.4726 55.7329 40.3332 55.6889C40.1939 55.6376 40.0546 55.6119 39.9152 55.6119C39.7466 55.6119 39.5926 55.6486 39.4532 55.7219C39.3139 55.7879 39.1929 55.8796 39.0902 55.9969C38.9876 56.1143 38.9032 56.2573 38.8372 56.4259C38.7786 56.5873 38.7492 56.7596 38.7492 56.9429H41.0922ZM48.995 54.6659V59.2639H49.93V61.8489H48.555V60.3639H44.529V61.8489H43.154V59.2639H43.792C43.9606 59.0659 44.0926 58.8643 44.188 58.6589C44.2906 58.4536 44.364 58.2373 44.408 58.0099C44.4593 57.7826 44.4923 57.5479 44.507 57.3059C44.5216 57.0566 44.529 56.7926 44.529 56.5139V54.6659H48.995ZM47.499 59.2639V55.7659H45.849V56.6129C45.849 56.8329 45.8453 57.0566 45.838 57.2839C45.838 57.5113 45.816 57.7349 45.772 57.9549C45.7353 58.1749 45.6766 58.3949 45.596 58.6149C45.5153 58.8349 45.398 59.0513 45.244 59.2639H47.499ZM55.2611 54.6659V57.2069H55.3161L57.0211 54.6659H58.7261L56.7131 57.2729L58.9131 60.3639H57.0211L55.3161 57.6029H55.2611V60.3639H53.7651V57.6029H53.7101L52.0051 60.3639H50.1131L52.3131 57.2729L50.3001 54.6659H52.0051L53.7101 57.2069H53.7651V54.6659H55.2611ZM60.5237 57.9659C60.531 58.1493 60.5713 58.3253 60.6447 58.4939C60.718 58.6626 60.8243 58.8129 60.9637 58.9449C61.103 59.0769 61.2753 59.1833 61.4807 59.2639C61.6933 59.3373 61.939 59.3739 62.2177 59.3739C62.5477 59.3739 62.8593 59.3409 63.1527 59.2749C63.446 59.2016 63.7283 59.1026 63.9997 58.9779V60.0999C63.7063 60.2099 63.391 60.2979 63.0537 60.3639C62.7163 60.4226 62.3753 60.4519 62.0307 60.4519C61.6053 60.4519 61.2057 60.3933 60.8317 60.2759C60.4577 60.1586 60.1313 59.9789 59.8527 59.7369C59.5813 59.4949 59.365 59.1906 59.2037 58.8239C59.0423 58.4573 58.9617 58.0209 58.9617 57.5149C58.9617 57.0529 59.035 56.6423 59.1817 56.2829C59.3357 55.9163 59.541 55.6083 59.7977 55.3589C60.0543 55.1023 60.3513 54.9079 60.6887 54.7759C61.0333 54.6439 61.3963 54.5779 61.7777 54.5779C62.2103 54.5779 62.5733 54.6439 62.8667 54.7759C63.1673 54.9006 63.413 55.0619 63.6037 55.2599C63.8017 55.4579 63.952 55.6779 64.0547 55.9199C64.1647 56.1546 64.2453 56.3856 64.2967 56.6129C64.348 56.8403 64.3773 57.0456 64.3847 57.2289C64.3993 57.4123 64.4067 57.5443 64.4067 57.6249V57.9659H60.5237ZM62.8667 56.9429C62.874 56.7009 62.841 56.4956 62.7677 56.3269C62.7017 56.1583 62.61 56.0226 62.4927 55.9199C62.3753 55.8099 62.247 55.7329 62.1077 55.6889C61.9683 55.6376 61.829 55.6119 61.6897 55.6119C61.521 55.6119 61.367 55.6486 61.2277 55.7219C61.0883 55.7879 60.9673 55.8796 60.8647 55.9969C60.762 56.1143 60.6777 56.2573 60.6117 56.4259C60.553 56.5873 60.5237 56.7596 60.5237 56.9429H62.8667ZM65.5114 62.7179V54.6659H66.8204V55.6559H66.8424C66.9891 55.3993 67.1541 55.1976 67.3374 55.0509C67.5281 54.9043 67.7151 54.7979 67.8984 54.7319C68.0817 54.6586 68.2467 54.6146 68.3934 54.5999C68.5401 54.5853 68.6427 54.5779 68.7014 54.5779C69.0241 54.5779 69.3284 54.6329 69.6144 54.7429C69.9077 54.8456 70.1644 55.0179 70.3844 55.2599C70.6044 55.4946 70.7767 55.7989 70.9014 56.1729C71.0334 56.5396 71.0994 56.9869 71.0994 57.5149C71.0994 58.0429 71.0297 58.4939 70.8904 58.8679C70.7511 59.2346 70.5641 59.5353 70.3294 59.7699C70.1021 60.0046 69.8381 60.1769 69.5374 60.2869C69.2441 60.3969 68.9434 60.4519 68.6354 60.4519C68.2174 60.4519 67.8764 60.3676 67.6124 60.1989C67.3557 60.0303 67.1504 59.8286 66.9964 59.5939H66.9744L67.0074 60.5289V62.7179H65.5114ZM67.0074 57.5149C67.0074 57.8156 67.0441 58.0759 67.1174 58.2959C67.1907 58.5159 67.2861 58.6993 67.4034 58.8459C67.5281 58.9853 67.6637 59.0916 67.8104 59.1649C67.9644 59.2309 68.1184 59.2639 68.2724 59.2639C68.4264 59.2639 68.5767 59.2309 68.7234 59.1649C68.8774 59.0916 69.0131 58.9853 69.1304 58.8459C69.2551 58.6993 69.3541 58.5159 69.4274 58.2959C69.5007 58.0759 69.5374 57.8156 69.5374 57.5149C69.5374 57.2143 69.5007 56.9539 69.4274 56.7339C69.3541 56.5139 69.2551 56.3343 69.1304 56.1949C69.0131 56.0483 68.8774 55.9419 68.7234 55.8759C68.5767 55.8026 68.4264 55.7659 68.2724 55.7659C68.1184 55.7659 67.9644 55.8026 67.8104 55.8759C67.6637 55.9419 67.5281 56.0483 67.4034 56.1949C67.2861 56.3343 67.1907 56.5139 67.1174 56.7339C67.0441 56.9539 67.0074 57.2143 67.0074 57.5149Z" fill="#8620FF"/>
    <defs>
        <filter id="filter0_f_474_15137" x="0.482416" y="0.623184" width="33.2451" height="32.2656" filterUnits="userSpaceOnUse" color-interpolation-filters="sRGB">
            <feFlood flood-opacity="0" result="BackgroundImageFix"/>
            <feBlend mode="normal" in="SourceGraphic" in2="BackgroundImageFix" result="shape"/>
            <feGaussianBlur stdDeviation="2.73169" result="effect1_foregroundBlur_474_15137"/>
        </filter>
        <filter id="filter1_f_474_15137" x="4.12467" y="4.26544" width="25.9606" height="24.9811" filterUnits="userSpaceOnUse" color-interpolation-filters="sRGB">
            <feFlood flood-opacity="0" result="BackgroundImageFix"/>
            <feBlend mode="normal" in="SourceGraphic" in2="BackgroundImageFix" result="shape"/>
            <feGaussianBlur stdDeviation="0.910564" result="effect1_foregroundBlur_474_15137"/>
        </filter>
        <filter id="filter2_ddi_474_15137" x="3.57833" y="5.54023" width="27.0533" height="26.0738" filterUnits="userSpaceOnUse" color-interpolation-filters="sRGB">
            <feFlood flood-opacity="0" result="BackgroundImageFix"/>
            <feColorMatrix in="SourceAlpha" type="matrix" values="0 0 0 0 0 0 0 0 0 0 0 0 0 0 0 0 0 0 127 0" result="hardAlpha"/>
            <feOffset dy="1.98947"/>
            <feGaussianBlur stdDeviation="0.76518"/>
            <feColorMatrix type="matrix" values="0 0 0 0 0 0 0 0 0 0.051 0 0 0 0 0.082 0 0 0 0.5 0"/>
            <feBlend mode="multiply" in2="BackgroundImageFix" result="effect1_dropShadow_474_15137"/>
            <feColorMatrix in="SourceAlpha" type="matrix" values="0 0 0 0 0 0 0 0 0 0 0 0 0 0 0 0 0 0 127 0" result="hardAlpha"/>
            <feOffset dy="1.82113"/>
            <feGaussianBlur stdDeviation="1.18373"/>
            <feColorMatrix type="matrix" values="0 0 0 0 0.702449 0 0 0 0 0.458646 0 0 0 0 0.991667 0 0 0 0.6 0"/>
            <feBlend mode="color-dodge" in2="effect1_dropShadow_474_15137" result="effect2_dropShadow_474_15137"/>
            <feBlend mode="normal" in="SourceGraphic" in2="effect2_dropShadow_474_15137" result="shape"/>
            <feColorMatrix in="SourceAlpha" type="matrix" values="0 0 0 0 0 0 0 0 0 0 0 0 0 0 0 0 0 0 127 0" result="hardAlpha"/>
            <feOffset dx="-0.198947" dy="0.397894"/>
            <feGaussianBlur stdDeviation="0.0994734"/>
            <feComposite in2="hardAlpha" operator="arithmetic" k2="-1" k3="1"/>
            <feColorMatrix type="matrix" values="0 0 0 0 1 0 0 0 0 1 0 0 0 0 1 0 0 0 0.5 0"/>
            <feBlend mode="normal" in2="shape" result="effect3_innerShadow_474_15137"/>
        </filter>
        <filter id="filter3_f_474_15137" x="5.63973" y="5.7805" width="22.9305" height="21.951" filterUnits="userSpaceOnUse" color-interpolation-filters="sRGB">
            <feFlood flood-opacity="0" result="BackgroundImageFix"/>
            <feBlend mode="normal" in="SourceGraphic" in2="BackgroundImageFix" result="shape"/>
            <feGaussianBlur stdDeviation="0.153036" result="effect1_foregroundBlur_474_15137"/>
        </filter>
        <filter id="filter4_f_474_15137" x="5.74175" y="5.88252" width="22.7265" height="21.7469" filterUnits="userSpaceOnUse" color-interpolation-filters="sRGB">
            <feFlood flood-opacity="0" result="BackgroundImageFix"/>
            <feBlend mode="normal" in="SourceGraphic" in2="BackgroundImageFix" result="shape"/>
            <feGaussianBlur stdDeviation="0.102024" result="effect1_foregroundBlur_474_15137"/>
        </filter>
        <filter id="filter5_f_474_15137" x="27.4702" y="0.623184" width="33.2451" height="32.2656" filterUnits="userSpaceOnUse" color-interpolation-filters="sRGB">
            <feFlood flood-opacity="0" result="BackgroundImageFix"/>
            <feBlend mode="normal" in="SourceGraphic" in2="BackgroundImageFix" result="shape"/>
            <feGaussianBlur stdDeviation="2.73169" result="effect1_foregroundBlur_474_15137"/>
        </filter>
        <filter id="filter6_f_474_15137" x="31.1125" y="4.26544" width="25.9606" height="24.9811" filterUnits="userSpaceOnUse" color-interpolation-filters="sRGB">
            <feFlood flood-opacity="0" result="BackgroundImageFix"/>
            <feBlend mode="normal" in="SourceGraphic" in2="BackgroundImageFix" result="shape"/>
            <feGaussianBlur stdDeviation="0.910564" result="effect1_foregroundBlur_474_15137"/>
        </filter>
        <filter id="filter7_ddi_474_15137" x="30.5661" y="5.54023" width="27.0533" height="26.0738" filterUnits="userSpaceOnUse" color-interpolation-filters="sRGB">
            <feFlood flood-opacity="0" result="BackgroundImageFix"/>
            <feColorMatrix in="SourceAlpha" type="matrix" values="0 0 0 0 0 0 0 0 0 0 0 0 0 0 0 0 0 0 127 0" result="hardAlpha"/>
            <feOffset dy="1.98947"/>
            <feGaussianBlur stdDeviation="0.76518"/>
            <feColorMatrix type="matrix" values="0 0 0 0 0 0 0 0 0 0.051 0 0 0 0 0.082 0 0 0 0.5 0"/>
            <feBlend mode="multiply" in2="BackgroundImageFix" result="effect1_dropShadow_474_15137"/>
            <feColorMatrix in="SourceAlpha" type="matrix" values="0 0 0 0 0 0 0 0 0 0 0 0 0 0 0 0 0 0 127 0" result="hardAlpha"/>
            <feOffset dy="1.82113"/>
            <feGaussianBlur stdDeviation="1.18373"/>
            <feColorMatrix type="matrix" values="0 0 0 0 0.702449 0 0 0 0 0.458646 0 0 0 0 0.991667 0 0 0 0.6 0"/>
            <feBlend mode="color-dodge" in2="effect1_dropShadow_474_15137" result="effect2_dropShadow_474_15137"/>
            <feBlend mode="normal" in="SourceGraphic" in2="effect2_dropShadow_474_15137" result="shape"/>
            <feColorMatrix in="SourceAlpha" type="matrix" values="0 0 0 0 0 0 0 0 0 0 0 0 0 0 0 0 0 0 127 0" result="hardAlpha"/>
            <feOffset dx="-0.198947" dy="0.397894"/>
            <feGaussianBlur stdDeviation="0.0994734"/>
            <feComposite in2="hardAlpha" operator="arithmetic" k2="-1" k3="1"/>
            <feColorMatrix type="matrix" values="0 0 0 0 1 0 0 0 0 1 0 0 0 0 1 0 0 0 0.5 0"/>
            <feBlend mode="normal" in2="shape" result="effect3_innerShadow_474_15137"/>
        </filter>
        <filter id="filter8_f_474_15137" x="32.6275" y="5.7805" width="22.9305" height="21.951" filterUnits="userSpaceOnUse" color-interpolation-filters="sRGB">
            <feFlood flood-opacity="0" result="BackgroundImageFix"/>
            <feBlend mode="normal" in="SourceGraphic" in2="BackgroundImageFix" result="shape"/>
            <feGaussianBlur stdDeviation="0.153036" result="effect1_foregroundBlur_474_15137"/>
        </filter>
        <filter id="filter9_f_474_15137" x="32.7295" y="5.88252" width="22.7265" height="21.7469" filterUnits="userSpaceOnUse" color-interpolation-filters="sRGB">
            <feFlood flood-opacity="0" result="BackgroundImageFix"/>
            <feBlend mode="normal" in="SourceGraphic" in2="BackgroundImageFix" result="shape"/>
            <feGaussianBlur stdDeviation="0.102024" result="effect1_foregroundBlur_474_15137"/>
        </filter>
        <filter id="filter10_f_474_15137" x="53.4946" y="0.623184" width="33.2451" height="32.2656" filterUnits="userSpaceOnUse" color-interpolation-filters="sRGB">
            <feFlood flood-opacity="0" result="BackgroundImageFix"/>
            <feBlend mode="normal" in="SourceGraphic" in2="BackgroundImageFix" result="shape"/>
            <feGaussianBlur stdDeviation="2.73169" result="effect1_foregroundBlur_474_15137"/>
        </filter>
        <filter id="filter11_f_474_15137" x="57.1369" y="4.26544" width="25.9606" height="24.9811" filterUnits="userSpaceOnUse" color-interpolation-filters="sRGB">
            <feFlood flood-opacity="0" result="BackgroundImageFix"/>
            <feBlend mode="normal" in="SourceGraphic" in2="BackgroundImageFix" result="shape"/>
            <feGaussianBlur stdDeviation="0.910564" result="effect1_foregroundBlur_474_15137"/>
        </filter>
        <filter id="filter12_ddi_474_15137" x="56.5905" y="5.54023" width="27.0533" height="26.0738" filterUnits="userSpaceOnUse" color-interpolation-filters="sRGB">
            <feFlood flood-opacity="0" result="BackgroundImageFix"/>
            <feColorMatrix in="SourceAlpha" type="matrix" values="0 0 0 0 0 0 0 0 0 0 0 0 0 0 0 0 0 0 127 0" result="hardAlpha"/>
            <feOffset dy="1.98947"/>
            <feGaussianBlur stdDeviation="0.76518"/>
            <feColorMatrix type="matrix" values="0 0 0 0 0 0 0 0 0 0.051 0 0 0 0 0.082 0 0 0 0.5 0"/>
            <feBlend mode="multiply" in2="BackgroundImageFix" result="effect1_dropShadow_474_15137"/>
            <feColorMatrix in="SourceAlpha" type="matrix" values="0 0 0 0 0 0 0 0 0 0 0 0 0 0 0 0 0 0 127 0" result="hardAlpha"/>
            <feOffset dy="1.82113"/>
            <feGaussianBlur stdDeviation="1.18373"/>
            <feColorMatrix type="matrix" values="0 0 0 0 0.702449 0 0 0 0 0.458646 0 0 0 0 0.991667 0 0 0 0.6 0"/>
            <feBlend mode="color-dodge" in2="effect1_dropShadow_474_15137" result="effect2_dropShadow_474_15137"/>
            <feBlend mode="normal" in="SourceGraphic" in2="effect2_dropShadow_474_15137" result="shape"/>
            <feColorMatrix in="SourceAlpha" type="matrix" values="0 0 0 0 0 0 0 0 0 0 0 0 0 0 0 0 0 0 127 0" result="hardAlpha"/>
            <feOffset dx="-0.198947" dy="0.397894"/>
            <feGaussianBlur stdDeviation="0.0994734"/>
            <feComposite in2="hardAlpha" operator="arithmetic" k2="-1" k3="1"/>
            <feColorMatrix type="matrix" values="0 0 0 0 1 0 0 0 0 1 0 0 0 0 1 0 0 0 0.5 0"/>
            <feBlend mode="normal" in2="shape" result="effect3_innerShadow_474_15137"/>
        </filter>
        <filter id="filter13_f_474_15137" x="58.6519" y="5.7805" width="22.9305" height="21.951" filterUnits="userSpaceOnUse" color-interpolation-filters="sRGB">
            <feFlood flood-opacity="0" result="BackgroundImageFix"/>
            <feBlend mode="normal" in="SourceGraphic" in2="BackgroundImageFix" result="shape"/>
            <feGaussianBlur stdDeviation="0.153036" result="effect1_foregroundBlur_474_15137"/>
        </filter>
        <filter id="filter14_f_474_15137" x="58.754" y="5.88252" width="22.7265" height="21.7469" filterUnits="userSpaceOnUse" color-interpolation-filters="sRGB">
            <feFlood flood-opacity="0" result="BackgroundImageFix"/>
            <feBlend mode="normal" in="SourceGraphic" in2="BackgroundImageFix" result="shape"/>
            <feGaussianBlur stdDeviation="0.102024" result="effect1_foregroundBlur_474_15137"/>
        </filter>
    </defs>
</svg>
