<svg viewBox="0 0 83 77" fill="none" xmlns="http://www.w3.org/2000/svg">
    <g style="mix-blend-mode:hard-light" filter="url(#filter0_f_474_15133)">
        <path d="M19.9128 5.08124C19.9273 5.04524 19.9437 5.03143 19.9555 5.02386C19.9712 5.01383 19.9952 5.00547 20.0249 5.00547C20.0546 5.00547 20.0786 5.01383 20.0943 5.02386C20.1061 5.03143 20.1225 5.04524 20.137 5.08124L21.8614 9.37548C22.1033 9.97781 22.6686 10.3885 23.3162 10.4324L27.9332 10.7455C27.9719 10.7481 27.9901 10.7595 28.0009 10.7684C28.0153 10.7802 28.0307 10.8005 28.0399 10.8287C28.049 10.8569 28.0485 10.8823 28.0438 10.9003C28.0403 10.9139 28.0322 10.9338 28.0024 10.9587L24.4512 13.9257C23.9531 14.3419 23.7372 15.0065 23.8956 15.6359L25.0246 20.1236C25.034 20.1613 25.0289 20.1821 25.0237 20.1952C25.0169 20.2125 25.0024 20.2334 24.9784 20.2508C24.9544 20.2683 24.9301 20.2756 24.9115 20.2767C24.8975 20.2776 24.8761 20.276 24.8432 20.2554L20.924 17.7949C20.3743 17.4498 19.6755 17.4498 19.1258 17.7949L15.2066 20.2554C15.1737 20.276 15.1523 20.2776 15.1383 20.2767C15.1197 20.2756 15.0954 20.2683 15.0714 20.2508C15.0474 20.2334 15.0329 20.2125 15.0261 20.1952C15.0209 20.1821 15.0158 20.1613 15.0252 20.1236L16.1542 15.6359C16.3126 15.0065 16.0967 14.3419 15.5986 13.9257L12.0474 10.9587C12.0176 10.9338 12.0095 10.9139 12.006 10.9003C12.0013 10.8823 12.0008 10.8569 12.0099 10.8287C12.0191 10.8005 12.0345 10.7802 12.0489 10.7684C12.0597 10.7595 12.0779 10.7481 12.1166 10.7455L16.7336 10.4324C17.3812 10.3885 17.9465 9.97781 18.1884 9.37548L19.9128 5.08124Z" stroke="#6A11D5" stroke-width="1.57018"/>
    </g>
    <g style="mix-blend-mode:hard-light" filter="url(#filter1_f_474_15133)">
        <path d="M18.4125 9.4655L20.0249 5.45037L21.6373 9.4655C21.9137 10.1539 22.5598 10.6233 23.2999 10.6735L27.6167 10.9662L24.2964 13.7404C23.7271 14.216 23.4803 14.9755 23.6613 15.6949L24.7169 19.8909L21.0524 17.5903C20.4242 17.1959 19.6256 17.1959 18.9974 17.5903L15.3329 19.8909L16.3885 15.6949C16.5695 14.9755 16.3227 14.216 15.7534 13.7404L12.4331 10.9662L16.7499 10.6735C17.49 10.6233 18.1361 10.1539 18.4125 9.4655ZM24.7903 20.1826C24.7903 20.1825 24.7903 20.1825 24.7902 20.1824L24.7903 20.1826ZM20.1369 5.17148L20.137 5.17126L20.1369 5.17148Z" stroke="#7936C9" stroke-width="2.05331"/>
    </g>
    <g style="mix-blend-mode:hard-light" filter="url(#filter2_ddi_474_15133)">
        <path d="M19.9128 5.08124C19.9273 5.04524 19.9437 5.03143 19.9555 5.02386C19.9712 5.01383 19.9952 5.00547 20.0249 5.00547C20.0546 5.00547 20.0786 5.01383 20.0943 5.02386C20.1061 5.03143 20.1225 5.04524 20.137 5.08124L21.8614 9.37548C22.1033 9.97781 22.6686 10.3885 23.3162 10.4324L27.9332 10.7455C27.9719 10.7481 27.9901 10.7595 28.0009 10.7684C28.0153 10.7802 28.0307 10.8005 28.0399 10.8287C28.049 10.8569 28.0485 10.8823 28.0438 10.9003C28.0403 10.9139 28.0322 10.9338 28.0024 10.9587L24.4512 13.9257C23.9531 14.3419 23.7372 15.0065 23.8956 15.6359L25.0246 20.1236C25.034 20.1613 25.0289 20.1821 25.0237 20.1952C25.0169 20.2125 25.0024 20.2334 24.9784 20.2508C24.9544 20.2683 24.9301 20.2756 24.9115 20.2767C24.8975 20.2776 24.8761 20.276 24.8432 20.2554L20.924 17.7949C20.3743 17.4498 19.6755 17.4498 19.1258 17.7949L15.2066 20.2554C15.1737 20.276 15.1523 20.2776 15.1383 20.2767C15.1197 20.2756 15.0954 20.2683 15.0714 20.2508C15.0474 20.2334 15.0329 20.2125 15.0261 20.1952C15.0209 20.1821 15.0158 20.1613 15.0252 20.1236L16.1542 15.6359C16.3126 15.0065 16.0967 14.3419 15.5986 13.9257L12.0474 10.9587C12.0176 10.9338 12.0095 10.9139 12.006 10.9003C12.0013 10.8823 12.0008 10.8569 12.0099 10.8287C12.0191 10.8005 12.0345 10.7802 12.0489 10.7684C12.0597 10.7595 12.0779 10.7481 12.1166 10.7455L16.7336 10.4324C17.3812 10.3885 17.9465 9.97781 18.1884 9.37548L19.9128 5.08124Z" stroke="#8620FF" stroke-opacity="0.2" stroke-width="1.57018"/>
    </g>
    <g filter="url(#filter3_f_474_15133)">
        <path d="M19.6326 4.96872C19.7746 4.61511 20.2752 4.61511 20.4172 4.96872L22.1416 9.26296C22.3403 9.75773 22.8047 10.0951 23.3366 10.1312L27.9536 10.4442C28.3338 10.47 28.4885 10.9461 28.196 11.1904L24.6449 14.1575C24.2357 14.4993 24.0583 15.0452 24.1884 15.5622L25.3174 20.05C25.4104 20.4195 25.0054 20.7137 24.6826 20.5111L20.7634 18.0506C20.3119 17.7671 19.7379 17.7671 19.2864 18.0506L15.3672 20.5111C15.0444 20.7137 14.6394 20.4195 14.7324 20.05L15.8614 15.5622C15.9915 15.0452 15.8141 14.4993 15.405 14.1575L11.8538 11.1904C11.5613 10.9461 11.716 10.47 12.0962 10.4442L16.7132 10.1312C17.2451 10.0951 17.7095 9.75773 17.9082 9.26296L19.6326 4.96872Z" stroke="#8620FF" stroke-opacity="0.2" stroke-width="0.966264"/>
    </g>
    <g filter="url(#filter4_f_474_15133)">
        <path d="M19.4084 4.8787C19.6316 4.32303 20.4182 4.32302 20.6414 4.8787L22.3658 9.17294C22.5299 9.58166 22.9135 9.86036 23.353 9.89016L27.9699 10.2032C28.5674 10.2437 28.8104 10.9919 28.3509 11.3758L24.7997 14.3428C24.4617 14.6252 24.3152 15.0762 24.4227 15.5033L25.5517 19.991C25.6977 20.5717 25.0613 21.0341 24.5542 20.7157L20.635 18.2552C20.262 18.021 19.7878 18.021 19.4148 18.2552L15.4956 20.7157C14.9885 21.0341 14.3521 20.5717 14.4981 19.991L15.6271 15.5033C15.7346 15.0762 15.5881 14.6252 15.2501 14.3428L11.6989 11.3758C11.2394 10.9919 11.4824 10.2437 12.0799 10.2032L16.6968 9.89016C17.1363 9.86036 17.5199 9.58166 17.684 9.17294L19.4084 4.8787Z" stroke="white" stroke-width="0.483132"/>
    </g>
    <g style="mix-blend-mode:hard-light" filter="url(#filter5_f_474_15133)">
        <path d="M41.3879 5.08124C41.4024 5.04524 41.4188 5.03143 41.4306 5.02386C41.4463 5.01383 41.4703 5.00547 41.5 5.00547C41.5297 5.00547 41.5537 5.01383 41.5694 5.02386C41.5812 5.03143 41.5976 5.04524 41.6121 5.08124L43.3365 9.37548C43.5784 9.97781 44.1437 10.3885 44.7913 10.4324L49.4083 10.7455C49.447 10.7481 49.4652 10.7595 49.476 10.7684C49.4904 10.7802 49.5058 10.8005 49.515 10.8287C49.5241 10.8569 49.5236 10.8823 49.5189 10.9003C49.5154 10.9139 49.5073 10.9338 49.4775 10.9587L45.9263 13.9257C45.4282 14.3419 45.2123 15.0065 45.3707 15.6359L46.4997 20.1236C46.5091 20.1613 46.504 20.1821 46.4988 20.1952C46.492 20.2125 46.4775 20.2334 46.4535 20.2508C46.4295 20.2683 46.4052 20.2756 46.3866 20.2767C46.3726 20.2776 46.3512 20.276 46.3183 20.2554L42.3991 17.7949C41.8494 17.4498 41.1506 17.4498 40.6009 17.7949L36.6817 20.2554C36.6488 20.276 36.6274 20.2776 36.6134 20.2767C36.5948 20.2756 36.5705 20.2683 36.5465 20.2508C36.5225 20.2334 36.508 20.2125 36.5012 20.1952C36.496 20.1821 36.4909 20.1613 36.5003 20.1236L37.6293 15.6359C37.7877 15.0065 37.5718 14.3419 37.0737 13.9257L33.5225 10.9587C33.4927 10.9338 33.4846 10.9139 33.4811 10.9003C33.4764 10.8823 33.4759 10.8569 33.485 10.8287C33.4942 10.8005 33.5096 10.7802 33.524 10.7684C33.5348 10.7595 33.553 10.7481 33.5917 10.7455L38.2087 10.4324C38.8563 10.3885 39.4216 9.97781 39.6635 9.37548L41.3879 5.08124Z" stroke="#6A11D5" stroke-width="1.57018"/>
    </g>
    <g style="mix-blend-mode:hard-light" filter="url(#filter6_f_474_15133)">
        <path d="M39.8876 9.4655L41.5 5.45037L43.1124 9.4655C43.3888 10.1539 44.0349 10.6233 44.775 10.6735L49.0918 10.9662L45.7715 13.7404C45.2022 14.216 44.9554 14.9755 45.1364 15.6949L46.192 19.8909L42.5275 17.5903C41.8993 17.1959 41.1007 17.1959 40.4725 17.5903L36.808 19.8909L37.8636 15.6949C38.0446 14.9755 37.7978 14.216 37.2285 13.7404L33.9082 10.9662L38.225 10.6735C38.9651 10.6233 39.6112 10.1539 39.8876 9.4655ZM46.2654 20.1826C46.2654 20.1825 46.2654 20.1825 46.2653 20.1824L46.2654 20.1826ZM41.612 5.17148L41.6121 5.17126L41.612 5.17148Z" stroke="#7936C9" stroke-width="2.05331"/>
    </g>
    <g style="mix-blend-mode:hard-light" filter="url(#filter7_ddi_474_15133)">
        <path d="M41.3879 5.08124C41.4024 5.04524 41.4188 5.03143 41.4306 5.02386C41.4463 5.01383 41.4703 5.00547 41.5 5.00547C41.5297 5.00547 41.5537 5.01383 41.5694 5.02386C41.5812 5.03143 41.5976 5.04524 41.6121 5.08124L43.3365 9.37548C43.5784 9.97781 44.1437 10.3885 44.7913 10.4324L49.4083 10.7455C49.447 10.7481 49.4652 10.7595 49.476 10.7684C49.4904 10.7802 49.5058 10.8005 49.515 10.8287C49.5241 10.8569 49.5236 10.8823 49.5189 10.9003C49.5154 10.9139 49.5073 10.9338 49.4775 10.9587L45.9263 13.9257C45.4282 14.3419 45.2123 15.0065 45.3707 15.6359L46.4997 20.1236C46.5091 20.1613 46.504 20.1821 46.4988 20.1952C46.492 20.2125 46.4775 20.2334 46.4535 20.2508C46.4295 20.2683 46.4052 20.2756 46.3866 20.2767C46.3726 20.2776 46.3512 20.276 46.3183 20.2554L42.3991 17.7949C41.8494 17.4498 41.1506 17.4498 40.6009 17.7949L36.6817 20.2554C36.6488 20.276 36.6274 20.2776 36.6134 20.2767C36.5948 20.2756 36.5705 20.2683 36.5465 20.2508C36.5225 20.2334 36.508 20.2125 36.5012 20.1952C36.496 20.1821 36.4909 20.1613 36.5003 20.1236L37.6293 15.6359C37.7877 15.0065 37.5718 14.3419 37.0737 13.9257L33.5225 10.9587C33.4927 10.9338 33.4846 10.9139 33.4811 10.9003C33.4764 10.8823 33.4759 10.8569 33.485 10.8287C33.4942 10.8005 33.5096 10.7802 33.524 10.7684C33.5348 10.7595 33.553 10.7481 33.5917 10.7455L38.2087 10.4324C38.8563 10.3885 39.4216 9.97781 39.6635 9.37548L41.3879 5.08124Z" stroke="#8620FF" stroke-opacity="0.2" stroke-width="1.57018"/>
    </g>
    <g filter="url(#filter8_f_474_15133)">
        <path d="M41.1077 4.96872C41.2497 4.61511 41.7503 4.61511 41.8923 4.96872L43.6167 9.26296C43.8154 9.75773 44.2798 10.0951 44.8117 10.1312L49.4287 10.4442C49.8089 10.47 49.9636 10.9461 49.6711 11.1904L46.12 14.1575C45.7108 14.4993 45.5334 15.0452 45.6635 15.5622L46.7925 20.05C46.8855 20.4195 46.4805 20.7137 46.1577 20.5111L42.2385 18.0506C41.787 17.7671 41.213 17.7671 40.7615 18.0506L36.8423 20.5111C36.5195 20.7137 36.1145 20.4195 36.2075 20.05L37.3365 15.5622C37.4666 15.0452 37.2892 14.4993 36.88 14.1575L33.3289 11.1904C33.0364 10.9461 33.1911 10.47 33.5713 10.4442L38.1883 10.1312C38.7202 10.0951 39.1846 9.75773 39.3833 9.26296L41.1077 4.96872Z" stroke="#8620FF" stroke-opacity="0.2" stroke-width="0.966264"/>
    </g>
    <g filter="url(#filter9_f_474_15133)">
        <path d="M40.8835 4.8787C41.1067 4.32303 41.8933 4.32302 42.1165 4.8787L43.8409 9.17294C44.005 9.58166 44.3886 9.86036 44.8281 9.89016L49.445 10.2032C50.0425 10.2437 50.2855 10.9919 49.826 11.3758L46.2748 14.3428C45.9368 14.6252 45.7903 15.0762 45.8978 15.5033L47.0268 19.991C47.1728 20.5717 46.5364 21.0341 46.0293 20.7157L42.1101 18.2552C41.7371 18.021 41.2629 18.021 40.8899 18.2552L36.9707 20.7157C36.4636 21.0341 35.8272 20.5717 35.9732 19.991L37.1022 15.5033C37.2097 15.0762 37.0632 14.6252 36.7252 14.3428L33.174 11.3758C32.7145 10.9919 32.9575 10.2437 33.555 10.2032L38.1719 9.89016C38.6114 9.86036 38.995 9.58166 39.1591 9.17294L40.8835 4.8787Z" stroke="white" stroke-width="0.483132"/>
    </g>
    <g style="mix-blend-mode:hard-light" filter="url(#filter10_f_474_15133)">
        <path d="M62.863 5.08124C62.8775 5.04524 62.8939 5.03143 62.9057 5.02386C62.9214 5.01383 62.9454 5.00547 62.9751 5.00547C63.0048 5.00547 63.0288 5.01383 63.0445 5.02386C63.0563 5.03143 63.0727 5.04524 63.0872 5.08124L64.8116 9.37548C65.0535 9.97781 65.6188 10.3885 66.2664 10.4324L70.8834 10.7455C70.9221 10.7481 70.9403 10.7595 70.9511 10.7684C70.9655 10.7802 70.9809 10.8005 70.9901 10.8287C70.9992 10.8569 70.9987 10.8823 70.994 10.9003C70.9905 10.9139 70.9824 10.9338 70.9526 10.9587L67.4014 13.9257C66.9033 14.3419 66.6874 15.0065 66.8458 15.6359L67.9748 20.1236C67.9842 20.1613 67.9791 20.1821 67.9739 20.1952C67.9671 20.2125 67.9526 20.2334 67.9286 20.2508C67.9046 20.2683 67.8803 20.2756 67.8617 20.2767C67.8477 20.2776 67.8263 20.276 67.7934 20.2554L63.8742 17.7949C63.3245 17.4498 62.6257 17.4498 62.076 17.7949L58.1568 20.2554C58.1239 20.276 58.1025 20.2776 58.0885 20.2767C58.0699 20.2756 58.0456 20.2683 58.0216 20.2508C57.9976 20.2334 57.9831 20.2125 57.9763 20.1952C57.9711 20.1821 57.966 20.1613 57.9754 20.1236L59.1044 15.6359C59.2628 15.0065 59.0469 14.3419 58.5488 13.9257L54.9976 10.9587C54.9678 10.9338 54.9597 10.9139 54.9562 10.9003C54.9515 10.8823 54.951 10.8569 54.9601 10.8287C54.9693 10.8005 54.9847 10.7802 54.9991 10.7684C55.0099 10.7595 55.0281 10.7481 55.0668 10.7455L59.6838 10.4324C60.3314 10.3885 60.8967 9.97781 61.1386 9.37548L62.863 5.08124Z" stroke="#6A11D5" stroke-width="1.57018"/>
    </g>
    <g style="mix-blend-mode:hard-light" filter="url(#filter11_f_474_15133)">
        <path d="M61.3627 9.4655L62.9751 5.45037L64.5875 9.4655C64.8639 10.1539 65.51 10.6233 66.2501 10.6735L70.5669 10.9662L67.2466 13.7404C66.6773 14.216 66.4305 14.9755 66.6115 15.6949L67.6671 19.8909L64.0026 17.5903C63.3744 17.1959 62.5758 17.1959 61.9476 17.5903L58.2831 19.8909L59.3387 15.6949C59.5197 14.9755 59.2729 14.216 58.7036 13.7404L55.3833 10.9662L59.7001 10.6735C60.4402 10.6233 61.0863 10.1539 61.3627 9.4655ZM67.7405 20.1826C67.7405 20.1825 67.7405 20.1825 67.7404 20.1824L67.7405 20.1826ZM63.0871 5.17148L63.0872 5.17126L63.0871 5.17148Z" stroke="#7936C9" stroke-width="2.05331"/>
    </g>
    <g style="mix-blend-mode:hard-light" filter="url(#filter12_ddi_474_15133)">
        <path d="M62.863 5.08124C62.8775 5.04524 62.8939 5.03143 62.9057 5.02386C62.9214 5.01383 62.9454 5.00547 62.9751 5.00547C63.0048 5.00547 63.0288 5.01383 63.0445 5.02386C63.0563 5.03143 63.0727 5.04524 63.0872 5.08124L64.8116 9.37548C65.0535 9.97781 65.6188 10.3885 66.2664 10.4324L70.8834 10.7455C70.9221 10.7481 70.9403 10.7595 70.9511 10.7684C70.9655 10.7802 70.9809 10.8005 70.9901 10.8287C70.9992 10.8569 70.9987 10.8823 70.994 10.9003C70.9905 10.9139 70.9824 10.9338 70.9526 10.9587L67.4014 13.9257C66.9033 14.3419 66.6874 15.0065 66.8458 15.6359L67.9748 20.1236C67.9842 20.1613 67.9791 20.1821 67.9739 20.1952C67.9671 20.2125 67.9526 20.2334 67.9286 20.2508C67.9046 20.2683 67.8803 20.2756 67.8617 20.2767C67.8477 20.2776 67.8263 20.276 67.7934 20.2554L63.8742 17.7949C63.3245 17.4498 62.6257 17.4498 62.076 17.7949L58.1568 20.2554C58.1239 20.276 58.1025 20.2776 58.0885 20.2767C58.0699 20.2756 58.0456 20.2683 58.0216 20.2508C57.9976 20.2334 57.9831 20.2125 57.9763 20.1952C57.9711 20.1821 57.966 20.1613 57.9754 20.1236L59.1044 15.6359C59.2628 15.0065 59.0469 14.3419 58.5488 13.9257L54.9976 10.9587C54.9678 10.9338 54.9597 10.9139 54.9562 10.9003C54.9515 10.8823 54.951 10.8569 54.9601 10.8287C54.9693 10.8005 54.9847 10.7802 54.9991 10.7684C55.0099 10.7595 55.0281 10.7481 55.0668 10.7455L59.6838 10.4324C60.3314 10.3885 60.8967 9.97781 61.1386 9.37548L62.863 5.08124Z" stroke="#8620FF" stroke-opacity="0.2" stroke-width="1.57018"/>
    </g>
    <g filter="url(#filter13_f_474_15133)">
        <path d="M62.5828 4.96872C62.7248 4.61511 63.2254 4.61511 63.3674 4.96872L65.0918 9.26296C65.2905 9.75773 65.7549 10.0951 66.2868 10.1312L70.9038 10.4442C71.284 10.47 71.4387 10.9461 71.1462 11.1904L67.595 14.1575C67.1859 14.4993 67.0085 15.0452 67.1386 15.5622L68.2676 20.05C68.3606 20.4195 67.9556 20.7137 67.6328 20.5111L63.7136 18.0506C63.2621 17.7671 62.6881 17.7671 62.2366 18.0506L58.3174 20.5111C57.9946 20.7137 57.5896 20.4195 57.6826 20.05L58.8116 15.5622C58.9417 15.0452 58.7643 14.4993 58.3551 14.1575L54.804 11.1904C54.5115 10.9461 54.6662 10.47 55.0464 10.4442L59.6634 10.1312C60.1953 10.0951 60.6597 9.75773 60.8584 9.26296L62.5828 4.96872Z" stroke="#8620FF" stroke-opacity="0.2" stroke-width="0.966264"/>
    </g>
    <g filter="url(#filter14_f_474_15133)">
        <path d="M62.3586 4.8787C62.5818 4.32303 63.3684 4.32302 63.5916 4.8787L65.316 9.17294C65.4801 9.58166 65.8637 9.86036 66.3032 9.89016L70.9201 10.2032C71.5176 10.2437 71.7606 10.9919 71.3011 11.3758L67.7499 14.3428C67.4119 14.6252 67.2654 15.0762 67.3729 15.5033L68.5019 19.991C68.6479 20.5717 68.0115 21.0341 67.5044 20.7157L63.5852 18.2552C63.2122 18.021 62.738 18.021 62.365 18.2552L58.4458 20.7157C57.9387 21.0341 57.3023 20.5717 57.4483 19.991L58.5773 15.5033C58.6848 15.0762 58.5383 14.6252 58.2003 14.3428L54.6491 11.3758C54.1896 10.9919 54.4326 10.2437 55.0301 10.2032L59.647 9.89016C60.0865 9.86036 60.4701 9.58166 60.6342 9.17294L62.3586 4.8787Z" stroke="white" stroke-width="0.483132"/>
    </g>
    <g style="mix-blend-mode:hard-light" filter="url(#filter15_f_474_15133)">
        <path d="M30.6504 26.5563C30.6648 26.5203 30.6812 26.5065 30.6931 26.499C30.7088 26.4889 30.7328 26.4806 30.7625 26.4806C30.7921 26.4806 30.8161 26.4889 30.8318 26.499C30.8437 26.5065 30.8601 26.5203 30.8745 26.5563L32.599 30.8506C32.8409 31.4529 33.4062 31.8636 34.0538 31.9075L38.6707 32.2206C38.7094 32.2232 38.7276 32.2346 38.7385 32.2435C38.7529 32.2553 38.7682 32.2756 38.7774 32.3038C38.7866 32.332 38.786 32.3574 38.7814 32.3754C38.7778 32.389 38.7697 32.4089 38.74 32.4338L35.1888 35.4008C34.6907 35.817 34.4748 36.4816 34.6331 37.111L35.7621 41.5987C35.7716 41.6364 35.7664 41.6572 35.7613 41.6703C35.7545 41.6876 35.74 41.7085 35.716 41.7259C35.692 41.7434 35.6676 41.7507 35.649 41.7518C35.635 41.7527 35.6136 41.7511 35.5808 41.7305L31.6616 39.27C31.1118 38.9249 30.4131 38.9249 29.8634 39.27L25.9442 41.7305C25.9113 41.7511 25.8899 41.7527 25.8759 41.7518C25.8573 41.7507 25.8329 41.7434 25.8089 41.7259C25.7849 41.7085 25.7704 41.6876 25.7636 41.6703C25.7585 41.6572 25.7533 41.6364 25.7628 41.5987L26.8918 37.111C27.0501 36.4816 26.8342 35.817 26.3361 35.4008L22.7849 32.4338C22.7552 32.4089 22.7471 32.389 22.7435 32.3754C22.7389 32.3574 22.7383 32.332 22.7475 32.3038C22.7567 32.2756 22.772 32.2553 22.7864 32.2435C22.7973 32.2346 22.8155 32.2232 22.8542 32.2206L27.4711 31.9075C28.1187 31.8636 28.684 31.4529 28.9259 30.8506L30.6504 26.5563Z" stroke="#6A11D5" stroke-width="1.57018"/>
    </g>
    <g style="mix-blend-mode:hard-light" filter="url(#filter16_f_474_15133)">
        <path d="M29.1501 30.9406L30.7625 26.9255L32.3748 30.9406C32.6512 31.629 33.2973 32.0984 34.0374 32.1485L38.3543 32.4413L35.0339 35.2154C34.4647 35.6911 34.2179 36.4506 34.3989 37.1699L35.4545 41.366L31.79 39.0654C31.1617 38.671 30.3632 38.671 29.7349 39.0654L26.0704 41.366L27.126 37.17C27.307 36.4506 27.0603 35.6911 26.491 35.2154L23.1706 32.4413L27.4875 32.1485C28.2276 32.0984 28.8737 31.629 29.1501 30.9406ZM35.5278 41.6577C35.5278 41.6576 35.5278 41.6576 35.5278 41.6575L35.5278 41.6577ZM30.8744 26.6466L30.8745 26.6464L30.8744 26.6466Z" stroke="#7936C9" stroke-width="2.05331"/>
    </g>
    <g style="mix-blend-mode:hard-light" filter="url(#filter17_ddi_474_15133)">
        <path d="M30.6504 26.5563C30.6648 26.5203 30.6812 26.5065 30.6931 26.499C30.7088 26.4889 30.7328 26.4806 30.7625 26.4806C30.7921 26.4806 30.8161 26.4889 30.8318 26.499C30.8437 26.5065 30.8601 26.5203 30.8745 26.5563L32.599 30.8506C32.8409 31.4529 33.4062 31.8636 34.0538 31.9075L38.6707 32.2206C38.7094 32.2232 38.7276 32.2346 38.7385 32.2435C38.7529 32.2553 38.7682 32.2756 38.7774 32.3038C38.7866 32.332 38.786 32.3574 38.7814 32.3754C38.7778 32.389 38.7697 32.4089 38.74 32.4338L35.1888 35.4008C34.6907 35.817 34.4748 36.4816 34.6331 37.111L35.7621 41.5987C35.7716 41.6364 35.7664 41.6572 35.7613 41.6703C35.7545 41.6876 35.74 41.7085 35.716 41.7259C35.692 41.7434 35.6676 41.7507 35.649 41.7518C35.635 41.7527 35.6136 41.7511 35.5808 41.7305L31.6616 39.27C31.1118 38.9249 30.4131 38.9249 29.8634 39.27L25.9442 41.7305C25.9113 41.7511 25.8899 41.7527 25.8759 41.7518C25.8573 41.7507 25.8329 41.7434 25.8089 41.7259C25.7849 41.7085 25.7704 41.6876 25.7636 41.6703C25.7585 41.6572 25.7533 41.6364 25.7628 41.5987L26.8918 37.111C27.0501 36.4816 26.8342 35.817 26.3361 35.4008L22.7849 32.4338C22.7552 32.4089 22.7471 32.389 22.7435 32.3754C22.7389 32.3574 22.7383 32.332 22.7475 32.3038C22.7567 32.2756 22.772 32.2553 22.7864 32.2435C22.7973 32.2346 22.8155 32.2232 22.8542 32.2206L27.4711 31.9075C28.1187 31.8636 28.684 31.4529 28.9259 30.8506L30.6504 26.5563Z" stroke="#8620FF" stroke-opacity="0.2" stroke-width="1.57018"/>
    </g>
    <g filter="url(#filter18_f_474_15133)">
        <path d="M30.3702 26.4438C30.5122 26.0902 31.0127 26.0902 31.1547 26.4438L32.8792 30.7381C33.0779 31.2328 33.5422 31.5702 34.0742 31.6063L38.6911 31.9193C39.0713 31.9451 39.226 32.4212 38.9336 32.6655L35.3824 35.6325C34.9732 35.9744 34.7959 36.5203 34.926 37.0373L36.0549 41.5251C36.1479 41.8946 35.7429 42.1888 35.4202 41.9862L31.501 39.5257C31.0494 39.2422 30.4755 39.2422 30.0239 39.5257L26.1047 41.9862C25.782 42.1888 25.377 41.8946 25.47 41.5251L26.5989 37.0373C26.729 36.5203 26.5517 35.9744 26.1425 35.6325L22.5913 32.6655C22.2989 32.4212 22.4536 31.9451 22.8338 31.9193L27.4507 31.6063C27.9827 31.5702 28.447 31.2328 28.6457 30.7381L30.3702 26.4438Z" stroke="#8620FF" stroke-opacity="0.2" stroke-width="0.966264"/>
    </g>
    <g filter="url(#filter19_f_474_15133)">
        <path d="M30.146 26.3538C30.3691 25.7981 31.1558 25.7981 31.3789 26.3538L33.1034 30.648C33.2675 31.0568 33.6511 31.3355 34.0905 31.3653L38.7075 31.6783C39.3049 31.7188 39.548 32.467 39.0885 32.8509L35.5373 35.8179C35.1993 36.1003 35.0528 36.5513 35.1602 36.9784L36.2892 41.4661C36.4353 42.0468 35.7989 42.5092 35.2918 42.1908L31.3726 39.7303C30.9995 39.4961 30.5254 39.4961 30.1523 39.7303L26.2331 42.1908C25.726 42.5092 25.0896 42.0468 25.2357 41.4661L26.3647 36.9784C26.4721 36.5513 26.3256 36.1003 25.9876 35.8179L22.4364 32.8509C21.9769 32.467 22.22 31.7188 22.8174 31.6783L27.4344 31.3653C27.8738 31.3355 28.2574 31.0568 28.4215 30.648L30.146 26.3538Z" stroke="white" stroke-width="0.483132"/>
    </g>
    <g style="mix-blend-mode:hard-light" filter="url(#filter20_f_474_15133)">
        <path d="M52.1255 26.5563C52.1399 26.5203 52.1563 26.5065 52.1682 26.499C52.1839 26.4889 52.2079 26.4806 52.2375 26.4806C52.2672 26.4806 52.2912 26.4889 52.3069 26.499C52.3188 26.5065 52.3352 26.5203 52.3496 26.5563L54.0741 30.8506C54.316 31.4529 54.8813 31.8636 55.5289 31.9075L60.1458 32.2206C60.1845 32.2232 60.2027 32.2346 60.2136 32.2435C60.228 32.2553 60.2433 32.2756 60.2525 32.3038C60.2617 32.332 60.2611 32.3574 60.2565 32.3754C60.2529 32.389 60.2448 32.4089 60.2151 32.4338L56.6639 35.4008C56.1658 35.817 55.9499 36.4816 56.1082 37.111L57.2372 41.5987C57.2467 41.6364 57.2415 41.6572 57.2364 41.6703C57.2296 41.6876 57.2151 41.7085 57.1911 41.7259C57.1671 41.7434 57.1427 41.7507 57.1241 41.7518C57.1101 41.7527 57.0887 41.7511 57.0558 41.7305L53.1366 39.27C52.5869 38.9249 51.8882 38.9249 51.3384 39.27L47.4192 41.7305C47.3864 41.7511 47.365 41.7527 47.351 41.7518C47.3324 41.7507 47.308 41.7434 47.284 41.7259C47.26 41.7085 47.2455 41.6876 47.2387 41.6703C47.2336 41.6572 47.2284 41.6364 47.2379 41.5987L48.3669 37.111C48.5252 36.4816 48.3093 35.817 47.8112 35.4008L44.26 32.4338C44.2303 32.4089 44.2222 32.389 44.2186 32.3754C44.214 32.3574 44.2134 32.332 44.2226 32.3038C44.2318 32.2756 44.2471 32.2553 44.2615 32.2435C44.2724 32.2346 44.2906 32.2232 44.3293 32.2206L48.9462 31.9075C49.5938 31.8636 50.1591 31.4529 50.401 30.8506L52.1255 26.5563Z" stroke="#6A11D5" stroke-width="1.57018"/>
    </g>
    <g style="mix-blend-mode:hard-light" filter="url(#filter21_f_474_15133)">
        <path d="M50.6252 30.9406L52.2375 26.9255L53.8499 30.9406C54.1263 31.629 54.7724 32.0984 55.5125 32.1485L59.8294 32.4413L56.509 35.2154C55.9397 35.6911 55.693 36.4506 55.874 37.1699L56.9296 41.366L53.2651 39.0654C52.6368 38.671 51.8383 38.671 51.21 39.0654L47.5455 41.366L48.6011 37.17C48.7821 36.4506 48.5353 35.6911 47.9661 35.2154L44.6457 32.4413L48.9626 32.1485C49.7027 32.0984 50.3488 31.629 50.6252 30.9406ZM57.0029 41.6577C57.0029 41.6576 57.0029 41.6576 57.0029 41.6575L57.0029 41.6577ZM52.3495 26.6466L52.3496 26.6464L52.3495 26.6466Z" stroke="#7936C9" stroke-width="2.05331"/>
    </g>
    <g style="mix-blend-mode:hard-light" filter="url(#filter22_ddi_474_15133)">
        <path d="M52.1255 26.5563C52.1399 26.5203 52.1563 26.5065 52.1682 26.499C52.1839 26.4889 52.2079 26.4806 52.2375 26.4806C52.2672 26.4806 52.2912 26.4889 52.3069 26.499C52.3188 26.5065 52.3352 26.5203 52.3496 26.5563L54.0741 30.8506C54.316 31.4529 54.8813 31.8636 55.5289 31.9075L60.1458 32.2206C60.1845 32.2232 60.2027 32.2346 60.2136 32.2435C60.228 32.2553 60.2433 32.2756 60.2525 32.3038C60.2617 32.332 60.2611 32.3574 60.2565 32.3754C60.2529 32.389 60.2448 32.4089 60.2151 32.4338L56.6639 35.4008C56.1658 35.817 55.9499 36.4816 56.1082 37.111L57.2372 41.5987C57.2467 41.6364 57.2415 41.6572 57.2364 41.6703C57.2296 41.6876 57.2151 41.7085 57.1911 41.7259C57.1671 41.7434 57.1427 41.7507 57.1241 41.7518C57.1101 41.7527 57.0887 41.7511 57.0558 41.7305L53.1366 39.27C52.5869 38.9249 51.8882 38.9249 51.3384 39.27L47.4192 41.7305C47.3864 41.7511 47.365 41.7527 47.351 41.7518C47.3324 41.7507 47.308 41.7434 47.284 41.7259C47.26 41.7085 47.2455 41.6876 47.2387 41.6703C47.2336 41.6572 47.2284 41.6364 47.2379 41.5987L48.3669 37.111C48.5252 36.4816 48.3093 35.817 47.8112 35.4008L44.26 32.4338C44.2303 32.4089 44.2222 32.389 44.2186 32.3754C44.214 32.3574 44.2134 32.332 44.2226 32.3038C44.2318 32.2756 44.2471 32.2553 44.2615 32.2435C44.2724 32.2346 44.2906 32.2232 44.3293 32.2206L48.9462 31.9075C49.5938 31.8636 50.1591 31.4529 50.401 30.8506L52.1255 26.5563Z" stroke="#8620FF" stroke-opacity="0.2" stroke-width="1.57018"/>
    </g>
    <g filter="url(#filter23_f_474_15133)">
        <path d="M51.8453 26.4438C51.9873 26.0902 52.4878 26.0902 52.6298 26.4438L54.3543 30.7381C54.553 31.2328 55.0173 31.5702 55.5493 31.6063L60.1662 31.9193C60.5464 31.9451 60.7011 32.4212 60.4087 32.6655L56.8575 35.6325C56.4483 35.9744 56.271 36.5203 56.4011 37.0373L57.53 41.5251C57.623 41.8946 57.218 42.1888 56.8953 41.9862L52.9761 39.5257C52.5245 39.2422 51.9506 39.2422 51.499 39.5257L47.5798 41.9862C47.2571 42.1888 46.8521 41.8946 46.9451 41.5251L48.074 37.0373C48.2041 36.5203 48.0268 35.9744 47.6176 35.6325L44.0664 32.6655C43.774 32.4212 43.9287 31.9451 44.3089 31.9193L48.9258 31.6063C49.4578 31.5702 49.9221 31.2328 50.1208 30.7381L51.8453 26.4438Z" stroke="#8620FF" stroke-opacity="0.2" stroke-width="0.966264"/>
    </g>
    <g filter="url(#filter24_f_474_15133)">
        <path d="M51.6211 26.3538C51.8442 25.7981 52.6309 25.7981 52.854 26.3538L54.5785 30.648C54.7426 31.0568 55.1262 31.3355 55.5656 31.3653L60.1826 31.6783C60.78 31.7188 61.0231 32.467 60.5636 32.8509L57.0124 35.8179C56.6744 36.1003 56.5279 36.5513 56.6353 36.9784L57.7643 41.4661C57.9104 42.0468 57.274 42.5092 56.7669 42.1908L52.8477 39.7303C52.4746 39.4961 52.0005 39.4961 51.6274 39.7303L47.7082 42.1908C47.2011 42.5092 46.5647 42.0468 46.7108 41.4661L47.8398 36.9784C47.9472 36.5513 47.8007 36.1003 47.4627 35.8179L43.9115 32.8509C43.452 32.467 43.6951 31.7188 44.2925 31.6783L48.9095 31.3653C49.3489 31.3355 49.7325 31.0568 49.8966 30.648L51.6211 26.3538Z" stroke="white" stroke-width="0.483132"/>
    </g>
    <path d="M6.86852 54.9455C7.35985 54.9455 7.79252 55.0042 8.16652 55.1215C8.54052 55.2389 8.84852 55.4075 9.09052 55.6275C9.33985 55.8402 9.52685 56.1005 9.65152 56.4085C9.77619 56.7092 9.83852 57.0465 9.83852 57.4205C9.83852 58.2199 9.60385 58.8322 9.13452 59.2575C8.66519 59.6829 7.90985 59.8955 6.86852 59.8955H6.16452V62.6455H4.60252V54.9455H6.86852ZM6.86852 58.6855C7.74852 58.6855 8.18852 58.2639 8.18852 57.4205C8.18852 56.5772 7.74852 56.1555 6.86852 56.1555H6.16452V58.6855H6.86852ZM11.4144 65.0875C11.2751 65.0875 11.1284 65.0692 10.9744 65.0325C10.8204 65.0032 10.6774 64.9665 10.5454 64.9225V63.7785C10.6334 63.8152 10.7288 63.8482 10.8314 63.8775C10.9341 63.9142 11.0698 63.9325 11.2384 63.9325C11.4951 63.9325 11.7041 63.8885 11.8654 63.8005C12.0341 63.7125 12.1698 63.5439 12.2724 63.2945L12.4044 62.9645L10.1604 56.9475H11.8104L12.8774 60.0935L13.1964 61.1825H13.2514L13.6034 60.0495L14.6374 56.9475H16.1554L13.7464 63.3385C13.6658 63.5512 13.5704 63.7602 13.4604 63.9655C13.3578 64.1782 13.2221 64.3652 13.0534 64.5265C12.8848 64.6952 12.6684 64.8309 12.4044 64.9335C12.1404 65.0362 11.8104 65.0875 11.4144 65.0875ZM18.397 56.9475V59.5325H18.452L20.278 56.9475H21.95L19.838 59.6425L22.247 62.6455H20.366L18.452 59.9175H18.397V62.6455H16.901V56.9475H18.397ZM22.4685 59.7965C22.4685 59.3199 22.5418 58.8982 22.6885 58.5315C22.8352 58.1649 23.0368 57.8605 23.2935 57.6185C23.5575 57.3692 23.8692 57.1822 24.2285 57.0575C24.5878 56.9255 24.9802 56.8595 25.4055 56.8595C25.8308 56.8595 26.2232 56.9255 26.5825 57.0575C26.9418 57.1822 27.2498 57.3692 27.5065 57.6185C27.7705 57.8605 27.9758 58.1649 28.1225 58.5315C28.2692 58.8982 28.3425 59.3199 28.3425 59.7965C28.3425 60.2732 28.2692 60.6949 28.1225 61.0615C27.9758 61.4282 27.7705 61.7362 27.5065 61.9855C27.2498 62.2275 26.9418 62.4145 26.5825 62.5465C26.2232 62.6712 25.8308 62.7335 25.4055 62.7335C24.9802 62.7335 24.5878 62.6712 24.2285 62.5465C23.8692 62.4145 23.5575 62.2275 23.2935 61.9855C23.0368 61.7362 22.8352 61.4282 22.6885 61.0615C22.5418 60.6949 22.4685 60.2732 22.4685 59.7965ZM24.0305 59.7965C24.0305 60.1265 24.0708 60.4089 24.1515 60.6435C24.2322 60.8782 24.3385 61.0725 24.4705 61.2265C24.6025 61.3732 24.7492 61.4832 24.9105 61.5565C25.0718 61.6225 25.2368 61.6555 25.4055 61.6555C25.5668 61.6555 25.7282 61.6225 25.8895 61.5565C26.0582 61.4832 26.2085 61.3732 26.3405 61.2265C26.4725 61.0725 26.5788 60.8782 26.6595 60.6435C26.7402 60.4089 26.7805 60.1265 26.7805 59.7965C26.7805 59.4665 26.7402 59.1842 26.6595 58.9495C26.5788 58.7149 26.4725 58.5242 26.3405 58.3775C26.2085 58.2235 26.0582 58.1135 25.8895 58.0475C25.7282 57.9742 25.5668 57.9375 25.4055 57.9375C25.2368 57.9375 25.0718 57.9742 24.9105 58.0475C24.7492 58.1135 24.6025 58.2235 24.4705 58.3775C24.3385 58.5242 24.2322 58.7149 24.1515 58.9495C24.0708 59.1842 24.0305 59.4665 24.0305 59.7965ZM32.2312 56.9475C32.6418 56.9475 32.9718 56.9915 33.2212 57.0795C33.4778 57.1675 33.6758 57.2812 33.8152 57.4205C33.9618 57.5599 34.0608 57.7102 34.1122 57.8715C34.1635 58.0329 34.1892 58.1905 34.1892 58.3445C34.1892 58.7039 34.0865 58.9935 33.8812 59.2135C33.6832 59.4262 33.4338 59.5619 33.1332 59.6205V59.6535C33.2945 59.6682 33.4522 59.7049 33.6062 59.7635C33.7675 59.8149 33.9068 59.8992 34.0242 60.0165C34.1488 60.1265 34.2478 60.2695 34.3212 60.4455C34.4018 60.6142 34.4422 60.8159 34.4422 61.0505C34.4422 61.5639 34.2478 61.9599 33.8592 62.2385C33.4778 62.5099 32.9645 62.6455 32.3192 62.6455H29.4372V56.9475H32.2312ZM30.9332 59.1695H31.8572C31.9305 59.1695 32.0148 59.1659 32.1102 59.1585C32.2128 59.1512 32.3082 59.1292 32.3962 59.0925C32.4842 59.0485 32.5575 58.9862 32.6162 58.9055C32.6748 58.8249 32.7042 58.7075 32.7042 58.5535C32.7042 58.4069 32.6712 58.2932 32.6052 58.2125C32.5465 58.1319 32.4732 58.0732 32.3852 58.0365C32.2972 57.9925 32.2055 57.9669 32.1102 57.9595C32.0148 57.9449 31.9305 57.9375 31.8572 57.9375H30.9332V59.1695ZM30.9332 61.6555H31.8902C31.9562 61.6555 32.0442 61.6519 32.1542 61.6445C32.2715 61.6372 32.3815 61.6115 32.4842 61.5675C32.5942 61.5235 32.6858 61.4502 32.7592 61.3475C32.8398 61.2449 32.8802 61.0982 32.8802 60.9075C32.8802 60.7315 32.8435 60.5959 32.7702 60.5005C32.7042 60.3979 32.6162 60.3209 32.5062 60.2695C32.4035 60.2182 32.2935 60.1889 32.1762 60.1815C32.0662 60.1669 31.9672 60.1595 31.8792 60.1595H30.9332V61.6555ZM35.3269 59.7965C35.3269 59.3199 35.4002 58.8982 35.5469 58.5315C35.6936 58.1649 35.8952 57.8605 36.1519 57.6185C36.4159 57.3692 36.7276 57.1822 37.0869 57.0575C37.4462 56.9255 37.8386 56.8595 38.2639 56.8595C38.6892 56.8595 39.0816 56.9255 39.4409 57.0575C39.8002 57.1822 40.1082 57.3692 40.3649 57.6185C40.6289 57.8605 40.8342 58.1649 40.9809 58.5315C41.1276 58.8982 41.2009 59.3199 41.2009 59.7965C41.2009 60.2732 41.1276 60.6949 40.9809 61.0615C40.8342 61.4282 40.6289 61.7362 40.3649 61.9855C40.1082 62.2275 39.8002 62.4145 39.4409 62.5465C39.0816 62.6712 38.6892 62.7335 38.2639 62.7335C37.8386 62.7335 37.4462 62.6712 37.0869 62.5465C36.7276 62.4145 36.4159 62.2275 36.1519 61.9855C35.8952 61.7362 35.6936 61.4282 35.5469 61.0615C35.4002 60.6949 35.3269 60.2732 35.3269 59.7965ZM36.8889 59.7965C36.8889 60.1265 36.9292 60.4089 37.0099 60.6435C37.0906 60.8782 37.1969 61.0725 37.3289 61.2265C37.4609 61.3732 37.6076 61.4832 37.7689 61.5565C37.9302 61.6225 38.0952 61.6555 38.2639 61.6555C38.4252 61.6555 38.5866 61.6225 38.7479 61.5565C38.9166 61.4832 39.0669 61.3732 39.1989 61.2265C39.3309 61.0725 39.4372 60.8782 39.5179 60.6435C39.5986 60.4089 39.6389 60.1265 39.6389 59.7965C39.6389 59.4665 39.5986 59.1842 39.5179 58.9495C39.4372 58.7149 39.3309 58.5242 39.1989 58.3775C39.0669 58.2235 38.9166 58.1135 38.7479 58.0475C38.5866 57.9742 38.4252 57.9375 38.2639 57.9375C38.0952 57.9375 37.9302 57.9742 37.7689 58.0475C37.6076 58.1135 37.4609 58.2235 37.3289 58.3775C37.1969 58.5242 37.0906 58.7149 37.0099 58.9495C36.9292 59.1842 36.8889 59.4665 36.8889 59.7965ZM47.5536 56.9475V61.5455H48.4886V64.1305H47.1136V62.6455H43.0876V64.1305H41.7126V61.5455H42.3506C42.5192 61.3475 42.6512 61.1459 42.7466 60.9405C42.8492 60.7352 42.9226 60.5189 42.9666 60.2915C43.0179 60.0642 43.0509 59.8295 43.0656 59.5875C43.0802 59.3382 43.0876 59.0742 43.0876 58.7955V56.9475H47.5536ZM46.0576 61.5455V58.0475H44.4076V58.8945C44.4076 59.1145 44.4039 59.3382 44.3966 59.5655C44.3966 59.7929 44.3746 60.0165 44.3306 60.2365C44.2939 60.4565 44.2352 60.6765 44.1546 60.8965C44.0739 61.1165 43.9566 61.3329 43.8026 61.5455H46.0576ZM50.8277 56.9475V59.9395L50.7837 60.9625H50.8057L53.2587 56.9475H54.9307V62.6455H53.4347V59.6975L53.4787 58.6305H53.4457L50.9267 62.6455H49.3317V56.9475H50.8277ZM60.8121 56.9475V58.0475H59.0301V62.6455H57.5341V58.0475H55.7521V56.9475H60.8121ZM62.5949 60.2475C62.6023 60.4309 62.6426 60.6069 62.7159 60.7755C62.7893 60.9442 62.8956 61.0945 63.0349 61.2265C63.1743 61.3585 63.3466 61.4649 63.5519 61.5455C63.7646 61.6189 64.0103 61.6555 64.2889 61.6555C64.6189 61.6555 64.9306 61.6225 65.2239 61.5565C65.5173 61.4832 65.7996 61.3842 66.0709 61.2595V62.3815C65.7776 62.4915 65.4623 62.5795 65.1249 62.6455C64.7876 62.7042 64.4466 62.7335 64.1019 62.7335C63.6766 62.7335 63.2769 62.6749 62.9029 62.5575C62.5289 62.4402 62.2026 62.2605 61.9239 62.0185C61.6526 61.7765 61.4363 61.4722 61.2749 61.1055C61.1136 60.7389 61.0329 60.3025 61.0329 59.7965C61.0329 59.3345 61.1063 58.9239 61.2529 58.5645C61.4069 58.1979 61.6123 57.8899 61.8689 57.6405C62.1256 57.3839 62.4226 57.1895 62.7599 57.0575C63.1046 56.9255 63.4676 56.8595 63.8489 56.8595C64.2816 56.8595 64.6446 56.9255 64.9379 57.0575C65.2386 57.1822 65.4843 57.3435 65.6749 57.5415C65.8729 57.7395 66.0233 57.9595 66.1259 58.2015C66.2359 58.4362 66.3166 58.6672 66.3679 58.8945C66.4193 59.1219 66.4486 59.3272 66.4559 59.5105C66.4706 59.6939 66.4779 59.8259 66.4779 59.9065V60.2475H62.5949ZM64.9379 59.2245C64.9453 58.9825 64.9123 58.7772 64.8389 58.6085C64.7729 58.4399 64.6813 58.3042 64.5639 58.2015C64.4466 58.0915 64.3183 58.0145 64.1789 57.9705C64.0396 57.9192 63.9003 57.8935 63.7609 57.8935C63.5923 57.8935 63.4383 57.9302 63.2989 58.0035C63.1596 58.0695 63.0386 58.1612 62.9359 58.2785C62.8333 58.3959 62.7489 58.5389 62.6829 58.7075C62.6243 58.8689 62.5949 59.0412 62.5949 59.2245H64.9379ZM67.4203 62.7335C67.3176 62.7335 67.2113 62.7225 67.1013 62.7005C66.9913 62.6859 66.8959 62.6675 66.8153 62.6455V61.5015C66.8739 61.5162 66.9326 61.5272 66.9913 61.5345C67.0499 61.5419 67.1013 61.5455 67.1453 61.5455C67.2479 61.5455 67.3433 61.5125 67.4313 61.4465C67.5266 61.3805 67.6073 61.2339 67.6733 61.0065C67.7393 60.7792 67.7906 60.4492 67.8273 60.0165C67.8713 59.5765 67.8933 58.9862 67.8933 58.2455V56.9475H72.4803V62.6455H70.9843V58.0475H69.2243V58.2455C69.2243 59.2062 69.1839 59.9799 69.1033 60.5665C69.0226 61.1532 68.9053 61.6079 68.7513 61.9305C68.5973 62.2459 68.4066 62.4585 68.1793 62.5685C67.9593 62.6785 67.7063 62.7335 67.4203 62.7335ZM73.8988 56.9475H75.3948V58.7955H76.5388C77.3602 58.7955 77.9652 58.9715 78.3538 59.3235C78.7498 59.6755 78.9478 60.1412 78.9478 60.7205C78.9478 61.2999 78.7498 61.7655 78.3538 62.1175C77.9652 62.4695 77.3602 62.6455 76.5388 62.6455H73.8988V56.9475ZM77.3858 60.7205C77.3858 60.4419 77.3015 60.2255 77.1328 60.0715C76.9642 59.9175 76.6928 59.8405 76.3188 59.8405H75.3948V61.6005H76.3188C76.6928 61.6005 76.9642 61.5235 77.1328 61.3695C77.3015 61.2155 77.3858 60.9992 77.3858 60.7205ZM26.3559 67.9475V69.0475H23.8809V73.6455H22.3849V67.9475H26.3559ZM27.1759 75.9995V67.9475H28.4849V68.9375H28.5069C28.6536 68.6809 28.8186 68.4792 29.0019 68.3325C29.1926 68.1859 29.3796 68.0795 29.5629 68.0135C29.7463 67.9402 29.9113 67.8962 30.0579 67.8815C30.2046 67.8669 30.3073 67.8595 30.3659 67.8595C30.6886 67.8595 30.9929 67.9145 31.2789 68.0245C31.5723 68.1272 31.8289 68.2995 32.0489 68.5415C32.2689 68.7762 32.4413 69.0805 32.5659 69.4545C32.6979 69.8212 32.7639 70.2685 32.7639 70.7965C32.7639 71.3245 32.6943 71.7755 32.5549 72.1495C32.4156 72.5162 32.2286 72.8169 31.9939 73.0515C31.7666 73.2862 31.5026 73.4585 31.2019 73.5685C30.9086 73.6785 30.6079 73.7335 30.2999 73.7335C29.8819 73.7335 29.5409 73.6492 29.2769 73.4805C29.0203 73.3119 28.8149 73.1102 28.6609 72.8755H28.6389L28.6719 73.8105V75.9995H27.1759ZM28.6719 70.7965C28.6719 71.0972 28.7086 71.3575 28.7819 71.5775C28.8553 71.7975 28.9506 71.9809 29.0679 72.1275C29.1926 72.2669 29.3283 72.3732 29.4749 72.4465C29.6289 72.5125 29.7829 72.5455 29.9369 72.5455C30.0909 72.5455 30.2413 72.5125 30.3879 72.4465C30.5419 72.3732 30.6776 72.2669 30.7949 72.1275C30.9196 71.9809 31.0186 71.7975 31.0919 71.5775C31.1653 71.3575 31.2019 71.0972 31.2019 70.7965C31.2019 70.4959 31.1653 70.2355 31.0919 70.0155C31.0186 69.7955 30.9196 69.6159 30.7949 69.4765C30.6776 69.3299 30.5419 69.2235 30.3879 69.1575C30.2413 69.0842 30.0909 69.0475 29.9369 69.0475C29.7829 69.0475 29.6289 69.0842 29.4749 69.1575C29.3283 69.2235 29.1926 69.3299 29.0679 69.4765C28.9506 69.6159 28.8553 69.7955 28.7819 70.0155C28.7086 70.2355 28.6719 70.4959 28.6719 70.7965ZM34.2362 76.0875C34.0969 76.0875 33.9502 76.0692 33.7962 76.0325C33.6422 76.0032 33.4992 75.9665 33.3672 75.9225V74.7785C33.4552 74.8152 33.5506 74.8482 33.6532 74.8775C33.7559 74.9142 33.8916 74.9325 34.0602 74.9325C34.3169 74.9325 34.5259 74.8885 34.6872 74.8005C34.8559 74.7125 34.9916 74.5439 35.0942 74.2945L35.2262 73.9645L32.9822 67.9475H34.6322L35.6992 71.0935L36.0182 72.1825H36.0732L36.4252 71.0495L37.4592 67.9475H38.9772L36.5682 74.3385C36.4876 74.5512 36.3922 74.7602 36.2822 74.9655C36.1796 75.1782 36.0439 75.3652 35.8752 75.5265C35.7066 75.6952 35.4902 75.8309 35.2262 75.9335C34.9622 76.0362 34.6322 76.0875 34.2362 76.0875ZM45.0248 67.9475V73.6455H43.5288V69.0475H41.2188V73.6455H39.7228V67.9475H45.0248ZM51.7602 67.9475V73.6455H50.2642V69.0475H47.9542V73.6455H46.4582V67.9475H51.7602ZM53.1825 67.9475H54.6785V69.7955H55.8225C56.6438 69.7955 57.2488 69.9715 57.6375 70.3235C58.0335 70.6755 58.2315 71.1412 58.2315 71.7205C58.2315 72.2999 58.0335 72.7655 57.6375 73.1175C57.2488 73.4695 56.6438 73.6455 55.8225 73.6455H53.1825V67.9475ZM56.6695 71.7205C56.6695 71.4419 56.5852 71.2255 56.4165 71.0715C56.2478 70.9175 55.9765 70.8405 55.6025 70.8405H54.6785V72.6005H55.6025C55.9765 72.6005 56.2478 72.5235 56.4165 72.3695C56.5852 72.2155 56.6695 71.9992 56.6695 71.7205ZM59.1225 67.9475H60.6185V73.6455H59.1225V67.9475Z" fill="#8620FF"/>
    <defs>
        <filter id="filter0_f_474_15133" x="6.90557" y="-0.0915875" width="26.2387" height="25.4655" filterUnits="userSpaceOnUse" color-interpolation-filters="sRGB">
            <feFlood flood-opacity="0" result="BackgroundImageFix"/>
            <feBlend mode="normal" in="SourceGraphic" in2="BackgroundImageFix" result="shape"/>
            <feGaussianBlur stdDeviation="2.15598" result="effect1_foregroundBlur_474_15133"/>
        </filter>
        <filter id="filter1_f_474_15133" x="9.78021" y="2.78305" width="20.4894" height="19.7163" filterUnits="userSpaceOnUse" color-interpolation-filters="sRGB">
            <feFlood flood-opacity="0" result="BackgroundImageFix"/>
            <feBlend mode="normal" in="SourceGraphic" in2="BackgroundImageFix" result="shape"/>
            <feGaussianBlur stdDeviation="0.718659" result="effect1_foregroundBlur_474_15133"/>
        </filter>
        <filter id="filter2_ddi_474_15133" x="9.34902" y="3.78917" width="21.3518" height="20.5786" filterUnits="userSpaceOnUse" color-interpolation-filters="sRGB">
            <feFlood flood-opacity="0" result="BackgroundImageFix"/>
            <feColorMatrix in="SourceAlpha" type="matrix" values="0 0 0 0 0 0 0 0 0 0 0 0 0 0 0 0 0 0 127 0" result="hardAlpha"/>
            <feOffset dy="1.57018"/>
            <feGaussianBlur stdDeviation="0.603915"/>
            <feColorMatrix type="matrix" values="0 0 0 0 0 0 0 0 0 0.051 0 0 0 0 0.082 0 0 0 0.5 0"/>
            <feBlend mode="multiply" in2="BackgroundImageFix" result="effect1_dropShadow_474_15133"/>
            <feColorMatrix in="SourceAlpha" type="matrix" values="0 0 0 0 0 0 0 0 0 0 0 0 0 0 0 0 0 0 127 0" result="hardAlpha"/>
            <feOffset dy="1.43732"/>
            <feGaussianBlur stdDeviation="0.934257"/>
            <feColorMatrix type="matrix" values="0 0 0 0 0.702449 0 0 0 0 0.458646 0 0 0 0 0.991667 0 0 0 0.6 0"/>
            <feBlend mode="color-dodge" in2="effect1_dropShadow_474_15133" result="effect2_dropShadow_474_15133"/>
            <feBlend mode="normal" in="SourceGraphic" in2="effect2_dropShadow_474_15133" result="shape"/>
            <feColorMatrix in="SourceAlpha" type="matrix" values="0 0 0 0 0 0 0 0 0 0 0 0 0 0 0 0 0 0 127 0" result="hardAlpha"/>
            <feOffset dx="-0.157018" dy="0.314036"/>
            <feGaussianBlur stdDeviation="0.078509"/>
            <feComposite in2="hardAlpha" operator="arithmetic" k2="-1" k3="1"/>
            <feColorMatrix type="matrix" values="0 0 0 0 1 0 0 0 0 1 0 0 0 0 1 0 0 0 0.5 0"/>
            <feBlend mode="normal" in2="shape" result="effect3_innerShadow_474_15133"/>
        </filter>
        <filter id="filter3_f_474_15133" x="10.976" y="3.9788" width="18.0979" height="17.3247" filterUnits="userSpaceOnUse" color-interpolation-filters="sRGB">
            <feFlood flood-opacity="0" result="BackgroundImageFix"/>
            <feBlend mode="normal" in="SourceGraphic" in2="BackgroundImageFix" result="shape"/>
            <feGaussianBlur stdDeviation="0.120783" result="effect1_foregroundBlur_474_15133"/>
        </filter>
        <filter id="filter4_f_474_15133" x="11.0565" y="4.05932" width="17.9368" height="17.1637" filterUnits="userSpaceOnUse" color-interpolation-filters="sRGB">
            <feFlood flood-opacity="0" result="BackgroundImageFix"/>
            <feBlend mode="normal" in="SourceGraphic" in2="BackgroundImageFix" result="shape"/>
            <feGaussianBlur stdDeviation="0.080522" result="effect1_foregroundBlur_474_15133"/>
        </filter>
        <filter id="filter5_f_474_15133" x="28.3807" y="-0.0915875" width="26.2387" height="25.4655" filterUnits="userSpaceOnUse" color-interpolation-filters="sRGB">
            <feFlood flood-opacity="0" result="BackgroundImageFix"/>
            <feBlend mode="normal" in="SourceGraphic" in2="BackgroundImageFix" result="shape"/>
            <feGaussianBlur stdDeviation="2.15598" result="effect1_foregroundBlur_474_15133"/>
        </filter>
        <filter id="filter6_f_474_15133" x="31.2553" y="2.78305" width="20.4894" height="19.7163" filterUnits="userSpaceOnUse" color-interpolation-filters="sRGB">
            <feFlood flood-opacity="0" result="BackgroundImageFix"/>
            <feBlend mode="normal" in="SourceGraphic" in2="BackgroundImageFix" result="shape"/>
            <feGaussianBlur stdDeviation="0.718659" result="effect1_foregroundBlur_474_15133"/>
        </filter>
        <filter id="filter7_ddi_474_15133" x="30.8241" y="3.78917" width="21.3518" height="20.5786" filterUnits="userSpaceOnUse" color-interpolation-filters="sRGB">
            <feFlood flood-opacity="0" result="BackgroundImageFix"/>
            <feColorMatrix in="SourceAlpha" type="matrix" values="0 0 0 0 0 0 0 0 0 0 0 0 0 0 0 0 0 0 127 0" result="hardAlpha"/>
            <feOffset dy="1.57018"/>
            <feGaussianBlur stdDeviation="0.603915"/>
            <feColorMatrix type="matrix" values="0 0 0 0 0 0 0 0 0 0.051 0 0 0 0 0.082 0 0 0 0.5 0"/>
            <feBlend mode="multiply" in2="BackgroundImageFix" result="effect1_dropShadow_474_15133"/>
            <feColorMatrix in="SourceAlpha" type="matrix" values="0 0 0 0 0 0 0 0 0 0 0 0 0 0 0 0 0 0 127 0" result="hardAlpha"/>
            <feOffset dy="1.43732"/>
            <feGaussianBlur stdDeviation="0.934257"/>
            <feColorMatrix type="matrix" values="0 0 0 0 0.702449 0 0 0 0 0.458646 0 0 0 0 0.991667 0 0 0 0.6 0"/>
            <feBlend mode="color-dodge" in2="effect1_dropShadow_474_15133" result="effect2_dropShadow_474_15133"/>
            <feBlend mode="normal" in="SourceGraphic" in2="effect2_dropShadow_474_15133" result="shape"/>
            <feColorMatrix in="SourceAlpha" type="matrix" values="0 0 0 0 0 0 0 0 0 0 0 0 0 0 0 0 0 0 127 0" result="hardAlpha"/>
            <feOffset dx="-0.157018" dy="0.314036"/>
            <feGaussianBlur stdDeviation="0.078509"/>
            <feComposite in2="hardAlpha" operator="arithmetic" k2="-1" k3="1"/>
            <feColorMatrix type="matrix" values="0 0 0 0 1 0 0 0 0 1 0 0 0 0 1 0 0 0 0.5 0"/>
            <feBlend mode="normal" in2="shape" result="effect3_innerShadow_474_15133"/>
        </filter>
        <filter id="filter8_f_474_15133" x="32.4511" y="3.9788" width="18.0979" height="17.3247" filterUnits="userSpaceOnUse" color-interpolation-filters="sRGB">
            <feFlood flood-opacity="0" result="BackgroundImageFix"/>
            <feBlend mode="normal" in="SourceGraphic" in2="BackgroundImageFix" result="shape"/>
            <feGaussianBlur stdDeviation="0.120783" result="effect1_foregroundBlur_474_15133"/>
        </filter>
        <filter id="filter9_f_474_15133" x="32.5316" y="4.05932" width="17.9368" height="17.1637" filterUnits="userSpaceOnUse" color-interpolation-filters="sRGB">
            <feFlood flood-opacity="0" result="BackgroundImageFix"/>
            <feBlend mode="normal" in="SourceGraphic" in2="BackgroundImageFix" result="shape"/>
            <feGaussianBlur stdDeviation="0.080522" result="effect1_foregroundBlur_474_15133"/>
        </filter>
        <filter id="filter10_f_474_15133" x="49.8558" y="-0.0915875" width="26.2387" height="25.4655" filterUnits="userSpaceOnUse" color-interpolation-filters="sRGB">
            <feFlood flood-opacity="0" result="BackgroundImageFix"/>
            <feBlend mode="normal" in="SourceGraphic" in2="BackgroundImageFix" result="shape"/>
            <feGaussianBlur stdDeviation="2.15598" result="effect1_foregroundBlur_474_15133"/>
        </filter>
        <filter id="filter11_f_474_15133" x="52.7304" y="2.78305" width="20.4894" height="19.7163" filterUnits="userSpaceOnUse" color-interpolation-filters="sRGB">
            <feFlood flood-opacity="0" result="BackgroundImageFix"/>
            <feBlend mode="normal" in="SourceGraphic" in2="BackgroundImageFix" result="shape"/>
            <feGaussianBlur stdDeviation="0.718659" result="effect1_foregroundBlur_474_15133"/>
        </filter>
        <filter id="filter12_ddi_474_15133" x="52.2992" y="3.78917" width="21.3518" height="20.5786" filterUnits="userSpaceOnUse" color-interpolation-filters="sRGB">
            <feFlood flood-opacity="0" result="BackgroundImageFix"/>
            <feColorMatrix in="SourceAlpha" type="matrix" values="0 0 0 0 0 0 0 0 0 0 0 0 0 0 0 0 0 0 127 0" result="hardAlpha"/>
            <feOffset dy="1.57018"/>
            <feGaussianBlur stdDeviation="0.603915"/>
            <feColorMatrix type="matrix" values="0 0 0 0 0 0 0 0 0 0.051 0 0 0 0 0.082 0 0 0 0.5 0"/>
            <feBlend mode="multiply" in2="BackgroundImageFix" result="effect1_dropShadow_474_15133"/>
            <feColorMatrix in="SourceAlpha" type="matrix" values="0 0 0 0 0 0 0 0 0 0 0 0 0 0 0 0 0 0 127 0" result="hardAlpha"/>
            <feOffset dy="1.43732"/>
            <feGaussianBlur stdDeviation="0.934257"/>
            <feColorMatrix type="matrix" values="0 0 0 0 0.702449 0 0 0 0 0.458646 0 0 0 0 0.991667 0 0 0 0.6 0"/>
            <feBlend mode="color-dodge" in2="effect1_dropShadow_474_15133" result="effect2_dropShadow_474_15133"/>
            <feBlend mode="normal" in="SourceGraphic" in2="effect2_dropShadow_474_15133" result="shape"/>
            <feColorMatrix in="SourceAlpha" type="matrix" values="0 0 0 0 0 0 0 0 0 0 0 0 0 0 0 0 0 0 127 0" result="hardAlpha"/>
            <feOffset dx="-0.157018" dy="0.314036"/>
            <feGaussianBlur stdDeviation="0.078509"/>
            <feComposite in2="hardAlpha" operator="arithmetic" k2="-1" k3="1"/>
            <feColorMatrix type="matrix" values="0 0 0 0 1 0 0 0 0 1 0 0 0 0 1 0 0 0 0.5 0"/>
            <feBlend mode="normal" in2="shape" result="effect3_innerShadow_474_15133"/>
        </filter>
        <filter id="filter13_f_474_15133" x="53.9262" y="3.9788" width="18.0979" height="17.3247" filterUnits="userSpaceOnUse" color-interpolation-filters="sRGB">
            <feFlood flood-opacity="0" result="BackgroundImageFix"/>
            <feBlend mode="normal" in="SourceGraphic" in2="BackgroundImageFix" result="shape"/>
            <feGaussianBlur stdDeviation="0.120783" result="effect1_foregroundBlur_474_15133"/>
        </filter>
        <filter id="filter14_f_474_15133" x="54.0067" y="4.05932" width="17.9368" height="17.1637" filterUnits="userSpaceOnUse" color-interpolation-filters="sRGB">
            <feFlood flood-opacity="0" result="BackgroundImageFix"/>
            <feBlend mode="normal" in="SourceGraphic" in2="BackgroundImageFix" result="shape"/>
            <feGaussianBlur stdDeviation="0.080522" result="effect1_foregroundBlur_474_15133"/>
        </filter>
        <filter id="filter15_f_474_15133" x="17.6431" y="21.3835" width="26.2387" height="25.4655" filterUnits="userSpaceOnUse" color-interpolation-filters="sRGB">
            <feFlood flood-opacity="0" result="BackgroundImageFix"/>
            <feBlend mode="normal" in="SourceGraphic" in2="BackgroundImageFix" result="shape"/>
            <feGaussianBlur stdDeviation="2.15598" result="effect1_foregroundBlur_474_15133"/>
        </filter>
        <filter id="filter16_f_474_15133" x="20.5178" y="24.2581" width="20.4894" height="19.7163" filterUnits="userSpaceOnUse" color-interpolation-filters="sRGB">
            <feFlood flood-opacity="0" result="BackgroundImageFix"/>
            <feBlend mode="normal" in="SourceGraphic" in2="BackgroundImageFix" result="shape"/>
            <feGaussianBlur stdDeviation="0.718659" result="effect1_foregroundBlur_474_15133"/>
        </filter>
        <filter id="filter17_ddi_474_15133" x="20.0866" y="25.2643" width="21.3518" height="20.5786" filterUnits="userSpaceOnUse" color-interpolation-filters="sRGB">
            <feFlood flood-opacity="0" result="BackgroundImageFix"/>
            <feColorMatrix in="SourceAlpha" type="matrix" values="0 0 0 0 0 0 0 0 0 0 0 0 0 0 0 0 0 0 127 0" result="hardAlpha"/>
            <feOffset dy="1.57018"/>
            <feGaussianBlur stdDeviation="0.603915"/>
            <feColorMatrix type="matrix" values="0 0 0 0 0 0 0 0 0 0.051 0 0 0 0 0.082 0 0 0 0.5 0"/>
            <feBlend mode="multiply" in2="BackgroundImageFix" result="effect1_dropShadow_474_15133"/>
            <feColorMatrix in="SourceAlpha" type="matrix" values="0 0 0 0 0 0 0 0 0 0 0 0 0 0 0 0 0 0 127 0" result="hardAlpha"/>
            <feOffset dy="1.43732"/>
            <feGaussianBlur stdDeviation="0.934257"/>
            <feColorMatrix type="matrix" values="0 0 0 0 0.702449 0 0 0 0 0.458646 0 0 0 0 0.991667 0 0 0 0.6 0"/>
            <feBlend mode="color-dodge" in2="effect1_dropShadow_474_15133" result="effect2_dropShadow_474_15133"/>
            <feBlend mode="normal" in="SourceGraphic" in2="effect2_dropShadow_474_15133" result="shape"/>
            <feColorMatrix in="SourceAlpha" type="matrix" values="0 0 0 0 0 0 0 0 0 0 0 0 0 0 0 0 0 0 127 0" result="hardAlpha"/>
            <feOffset dx="-0.157018" dy="0.314036"/>
            <feGaussianBlur stdDeviation="0.078509"/>
            <feComposite in2="hardAlpha" operator="arithmetic" k2="-1" k3="1"/>
            <feColorMatrix type="matrix" values="0 0 0 0 1 0 0 0 0 1 0 0 0 0 1 0 0 0 0.5 0"/>
            <feBlend mode="normal" in2="shape" result="effect3_innerShadow_474_15133"/>
        </filter>
        <filter id="filter18_f_474_15133" x="21.7135" y="25.4539" width="18.0979" height="17.3247" filterUnits="userSpaceOnUse" color-interpolation-filters="sRGB">
            <feFlood flood-opacity="0" result="BackgroundImageFix"/>
            <feBlend mode="normal" in="SourceGraphic" in2="BackgroundImageFix" result="shape"/>
            <feGaussianBlur stdDeviation="0.120783" result="effect1_foregroundBlur_474_15133"/>
        </filter>
        <filter id="filter19_f_474_15133" x="21.794" y="25.5344" width="17.9368" height="17.1637" filterUnits="userSpaceOnUse" color-interpolation-filters="sRGB">
            <feFlood flood-opacity="0" result="BackgroundImageFix"/>
            <feBlend mode="normal" in="SourceGraphic" in2="BackgroundImageFix" result="shape"/>
            <feGaussianBlur stdDeviation="0.080522" result="effect1_foregroundBlur_474_15133"/>
        </filter>
        <filter id="filter20_f_474_15133" x="39.1182" y="21.3835" width="26.2387" height="25.4655" filterUnits="userSpaceOnUse" color-interpolation-filters="sRGB">
            <feFlood flood-opacity="0" result="BackgroundImageFix"/>
            <feBlend mode="normal" in="SourceGraphic" in2="BackgroundImageFix" result="shape"/>
            <feGaussianBlur stdDeviation="2.15598" result="effect1_foregroundBlur_474_15133"/>
        </filter>
        <filter id="filter21_f_474_15133" x="41.9929" y="24.2581" width="20.4894" height="19.7163" filterUnits="userSpaceOnUse" color-interpolation-filters="sRGB">
            <feFlood flood-opacity="0" result="BackgroundImageFix"/>
            <feBlend mode="normal" in="SourceGraphic" in2="BackgroundImageFix" result="shape"/>
            <feGaussianBlur stdDeviation="0.718659" result="effect1_foregroundBlur_474_15133"/>
        </filter>
        <filter id="filter22_ddi_474_15133" x="41.5617" y="25.2643" width="21.3518" height="20.5786" filterUnits="userSpaceOnUse" color-interpolation-filters="sRGB">
            <feFlood flood-opacity="0" result="BackgroundImageFix"/>
            <feColorMatrix in="SourceAlpha" type="matrix" values="0 0 0 0 0 0 0 0 0 0 0 0 0 0 0 0 0 0 127 0" result="hardAlpha"/>
            <feOffset dy="1.57018"/>
            <feGaussianBlur stdDeviation="0.603915"/>
            <feColorMatrix type="matrix" values="0 0 0 0 0 0 0 0 0 0.051 0 0 0 0 0.082 0 0 0 0.5 0"/>
            <feBlend mode="multiply" in2="BackgroundImageFix" result="effect1_dropShadow_474_15133"/>
            <feColorMatrix in="SourceAlpha" type="matrix" values="0 0 0 0 0 0 0 0 0 0 0 0 0 0 0 0 0 0 127 0" result="hardAlpha"/>
            <feOffset dy="1.43732"/>
            <feGaussianBlur stdDeviation="0.934257"/>
            <feColorMatrix type="matrix" values="0 0 0 0 0.702449 0 0 0 0 0.458646 0 0 0 0 0.991667 0 0 0 0.6 0"/>
            <feBlend mode="color-dodge" in2="effect1_dropShadow_474_15133" result="effect2_dropShadow_474_15133"/>
            <feBlend mode="normal" in="SourceGraphic" in2="effect2_dropShadow_474_15133" result="shape"/>
            <feColorMatrix in="SourceAlpha" type="matrix" values="0 0 0 0 0 0 0 0 0 0 0 0 0 0 0 0 0 0 127 0" result="hardAlpha"/>
            <feOffset dx="-0.157018" dy="0.314036"/>
            <feGaussianBlur stdDeviation="0.078509"/>
            <feComposite in2="hardAlpha" operator="arithmetic" k2="-1" k3="1"/>
            <feColorMatrix type="matrix" values="0 0 0 0 1 0 0 0 0 1 0 0 0 0 1 0 0 0 0.5 0"/>
            <feBlend mode="normal" in2="shape" result="effect3_innerShadow_474_15133"/>
        </filter>
        <filter id="filter23_f_474_15133" x="43.1886" y="25.4539" width="18.0979" height="17.3247" filterUnits="userSpaceOnUse" color-interpolation-filters="sRGB">
            <feFlood flood-opacity="0" result="BackgroundImageFix"/>
            <feBlend mode="normal" in="SourceGraphic" in2="BackgroundImageFix" result="shape"/>
            <feGaussianBlur stdDeviation="0.120783" result="effect1_foregroundBlur_474_15133"/>
        </filter>
        <filter id="filter24_f_474_15133" x="43.2691" y="25.5344" width="17.9368" height="17.1637" filterUnits="userSpaceOnUse" color-interpolation-filters="sRGB">
            <feFlood flood-opacity="0" result="BackgroundImageFix"/>
            <feBlend mode="normal" in="SourceGraphic" in2="BackgroundImageFix" result="shape"/>
            <feGaussianBlur stdDeviation="0.080522" result="effect1_foregroundBlur_474_15133"/>
        </filter>
    </defs>
</svg>
