<svg viewBox="0 0 90 59" fill="none" xmlns="http://www.w3.org/2000/svg">
<g style="mix-blend-mode:hard-light" filter="url(#filter0_f_474_15133)">
<path d="M13.0155 5.39641C13.0286 5.36381 13.0435 5.35129 13.0542 5.34444C13.0684 5.33536 13.0902 5.32778 13.117 5.32778C13.1439 5.32778 13.1657 5.33536 13.1799 5.34444C13.1906 5.35129 13.2055 5.36381 13.2186 5.39641L15.0034 9.84094C15.2224 10.3865 15.7345 10.7585 16.3211 10.7983L21.0996 11.1223C21.1347 11.1247 21.1512 11.135 21.161 11.1431C21.174 11.1538 21.1879 11.1721 21.1963 11.1977C21.2046 11.2232 21.2041 11.2463 21.1998 11.2626C21.1966 11.2749 21.1893 11.2929 21.1624 11.3154L17.4869 14.3863C17.0357 14.7633 16.8401 15.3652 16.9836 15.9354L18.1521 20.5802C18.1606 20.6143 18.156 20.6331 18.1513 20.645C18.1452 20.6607 18.132 20.6796 18.1103 20.6954C18.0885 20.7112 18.0665 20.7178 18.0496 20.7188C18.0369 20.7196 18.0175 20.7182 17.9878 20.6995L13.9314 18.1529C13.4335 17.8403 12.8006 17.8403 12.3026 18.1529L8.24627 20.6995C8.21651 20.7182 8.19712 20.7196 8.18442 20.7188C8.1676 20.7178 8.14553 20.7112 8.12379 20.6954C8.10205 20.6796 8.0889 20.6607 8.08275 20.645C8.0781 20.6331 8.07343 20.6143 8.082 20.5802L9.2505 15.9354C9.39393 15.3652 9.19835 14.7633 8.74717 14.3863L5.07171 11.3154C5.04474 11.2929 5.03744 11.2749 5.03423 11.2626C5.02998 11.2463 5.0295 11.2232 5.0378 11.1977C5.04611 11.1721 5.06004 11.1538 5.07306 11.1431C5.0829 11.135 5.09939 11.1247 5.13445 11.1223L9.91298 10.7983C10.4996 10.7585 11.0116 10.3865 11.2307 9.84094L13.0155 5.39641Z" stroke="#0094FF" stroke-width="1.42225"/>
</g>
<g style="mix-blend-mode:hard-light" filter="url(#filter1_f_474_15133)">
<path d="M11.4338 9.92248L13.117 5.73077L14.8003 9.92248C15.0507 10.546 15.6359 10.9712 16.3063 11.0166L20.813 11.3222L17.3466 14.2184C16.831 14.6492 16.6074 15.3372 16.7714 15.9888L17.8734 20.3694L14.0478 17.9676C13.4787 17.6103 12.7554 17.6103 12.1863 17.9676L8.36066 20.3694L9.46269 15.9888C9.62662 15.3372 9.4031 14.6492 8.88747 14.2184L5.42107 11.3222L9.92779 11.0166C10.5982 10.9712 11.1834 10.546 11.4338 9.92248ZM18.1041 20.5142L18.1039 20.5141L18.1041 20.5142ZM8.2942 20.6336L8.29424 20.6334L8.2942 20.6336Z" stroke="#0094FF" stroke-width="1.85987"/>
</g>
<g style="mix-blend-mode:hard-light" filter="url(#filter2_ddi_474_15133)">
<path d="M13.0155 5.39641C13.0286 5.36381 13.0435 5.35129 13.0542 5.34444C13.0684 5.33536 13.0902 5.32778 13.117 5.32778C13.1439 5.32778 13.1657 5.33536 13.1799 5.34444C13.1906 5.35129 13.2055 5.36381 13.2186 5.39641L15.0034 9.84094C15.2224 10.3865 15.7345 10.7585 16.3211 10.7983L21.0996 11.1223C21.1347 11.1247 21.1512 11.135 21.161 11.1431C21.174 11.1538 21.1879 11.1721 21.1963 11.1977C21.2046 11.2232 21.2041 11.2463 21.1998 11.2626C21.1966 11.2749 21.1893 11.2929 21.1624 11.3154L17.4869 14.3863C17.0357 14.7633 16.8401 15.3652 16.9836 15.9354L18.1521 20.5802C18.1606 20.6143 18.156 20.6331 18.1513 20.645C18.1452 20.6607 18.132 20.6796 18.1103 20.6954C18.0885 20.7112 18.0665 20.7178 18.0496 20.7188C18.0369 20.7196 18.0175 20.7182 17.9878 20.6995L13.9314 18.1529C13.4335 17.8403 12.8006 17.8403 12.3026 18.1529L8.24627 20.6995C8.21651 20.7182 8.19712 20.7196 8.18442 20.7188C8.1676 20.7178 8.14553 20.7112 8.12379 20.6954C8.10205 20.6796 8.0889 20.6607 8.08275 20.645C8.0781 20.6331 8.07343 20.6143 8.082 20.5802L9.2505 15.9354C9.39393 15.3652 9.19835 14.7633 8.74717 14.3863L5.07171 11.3154C5.04474 11.2929 5.03744 11.2749 5.03423 11.2626C5.02998 11.2463 5.0295 11.2232 5.0378 11.1977C5.04611 11.1721 5.06004 11.1538 5.07306 11.1431C5.0829 11.135 5.09939 11.1247 5.13445 11.1223L9.91298 10.7983C10.4996 10.7585 11.0116 10.3865 11.2307 9.84094L13.0155 5.39641Z" stroke="#00B3FF" stroke-opacity="0.2" stroke-width="1.42225"/>
</g>
<g filter="url(#filter3_f_474_15133)">
<path d="M12.7617 5.29449C12.8903 4.97419 13.3437 4.9742 13.4724 5.29449L15.2572 9.73902C15.4371 10.1872 15.8577 10.4928 16.3396 10.5254L21.1181 10.8494C21.4625 10.8728 21.6026 11.304 21.3377 11.5253L17.6623 14.5962C17.2916 14.9059 17.131 15.4003 17.2488 15.8687L18.4173 20.5134C18.5015 20.8482 18.1347 21.1147 17.8424 20.9312L13.786 18.3845C13.377 18.1278 12.8571 18.1278 12.4481 18.3845L8.3917 20.9312C8.09937 21.1147 7.73255 20.8482 7.81676 20.5134L8.98525 15.8687C9.10307 15.4003 8.94242 14.9059 8.57181 14.5962L4.89634 11.5253C4.63147 11.304 4.77158 10.8728 5.11595 10.8494L9.89448 10.5254C10.3763 10.4928 10.7969 10.1872 10.9769 9.73902L12.7617 5.29449Z" stroke="#82D9FF" stroke-width="0.875232"/>
</g>
<g filter="url(#filter4_f_474_15133)">
<path d="M12.5586 5.21295C12.7608 4.70963 13.4733 4.70963 13.6754 5.21295L15.4602 9.65748C15.6089 10.0277 15.9563 10.2801 16.3544 10.3071L21.1329 10.6311C21.6741 10.6678 21.8942 11.3455 21.478 11.6932L17.8025 14.7641C17.4964 15.0199 17.3637 15.4284 17.461 15.8153L18.6295 20.4601C18.7618 20.9861 18.1854 21.4049 17.726 21.1165L13.6697 18.5699C13.3318 18.3577 12.9023 18.3577 12.5644 18.5699L8.50804 21.1165C8.04868 21.4049 7.47223 20.9861 7.60456 20.4601L8.77306 15.8153C8.87039 15.4284 8.73767 15.0199 8.43151 14.7641L4.75605 11.6932C4.33982 11.3455 4.56 10.6678 5.10115 10.6311L9.87968 10.3071C10.2777 10.2801 10.6252 10.0277 10.7738 9.65748L12.5586 5.21295Z" stroke="white" stroke-width="0.437616"/>
</g>
<g style="mix-blend-mode:hard-light" filter="url(#filter5_f_474_15133)">
<path d="M34.1903 5.39641C34.2034 5.36381 34.2183 5.35129 34.229 5.34444C34.2432 5.33536 34.265 5.32778 34.2918 5.32778C34.3187 5.32778 34.3405 5.33536 34.3547 5.34444C34.3654 5.35129 34.3803 5.36381 34.3934 5.39641L36.1782 9.84094C36.3972 10.3865 36.9093 10.7585 37.4959 10.7983L42.2744 11.1223C42.3095 11.1247 42.326 11.135 42.3358 11.1431C42.3488 11.1538 42.3628 11.1721 42.3711 11.1977C42.3794 11.2232 42.3789 11.2463 42.3746 11.2626C42.3714 11.2749 42.3641 11.2929 42.3372 11.3154L38.6617 14.3863C38.2105 14.7633 38.0149 15.3652 38.1584 15.9354L39.3269 20.5802C39.3354 20.6143 39.3308 20.6331 39.3261 20.645C39.32 20.6607 39.3068 20.6796 39.2851 20.6954C39.2633 20.7112 39.2413 20.7178 39.2244 20.7188C39.2117 20.7196 39.1924 20.7182 39.1626 20.6995L35.1062 18.1529C34.6083 17.8403 33.9754 17.8403 33.4774 18.1529L29.4211 20.6995C29.3913 20.7182 29.3719 20.7196 29.3592 20.7188C29.3424 20.7178 29.3203 20.7112 29.2986 20.6954C29.2769 20.6796 29.2637 20.6607 29.2576 20.645C29.2529 20.6331 29.2482 20.6143 29.2568 20.5802L30.4253 15.9354C30.5687 15.3652 30.3732 14.7633 29.922 14.3863L26.2465 11.3154C26.2195 11.2929 26.2122 11.2749 26.209 11.2626C26.2048 11.2463 26.2043 11.2232 26.2126 11.1977C26.2209 11.1721 26.2348 11.1538 26.2479 11.1431C26.2577 11.135 26.2742 11.1247 26.3093 11.1223L31.0878 10.7983C31.6744 10.7585 32.1864 10.3865 32.4055 9.84094L34.1903 5.39641Z" stroke="#0094FF" stroke-width="1.42225"/>
</g>
<g style="mix-blend-mode:hard-light" filter="url(#filter6_f_474_15133)">
<path d="M32.6086 9.92248L34.2918 5.73077L35.9751 9.92248C36.2255 10.546 36.8107 10.9712 37.4811 11.0166L41.9878 11.3222L38.5214 14.2184C38.0058 14.6492 37.7822 15.3372 37.9462 15.9888L39.0482 20.3694L35.2226 17.9676C34.6535 17.6103 33.9302 17.6103 33.3611 17.9676L29.5355 20.3694L30.6375 15.9888C30.8014 15.3372 30.5779 14.6492 30.0623 14.2184L26.5959 11.3222L31.1026 11.0166C31.773 10.9712 32.3582 10.546 32.6086 9.92248ZM39.2789 20.5142L39.2787 20.5141L39.2789 20.5142ZM29.469 20.6336L29.469 20.6334L29.469 20.6336Z" stroke="#0094FF" stroke-width="1.85987"/>
</g>
<g style="mix-blend-mode:hard-light" filter="url(#filter7_ddi_474_15133)">
<path d="M34.1903 5.39641C34.2034 5.36381 34.2183 5.35129 34.229 5.34444C34.2432 5.33536 34.265 5.32778 34.2918 5.32778C34.3187 5.32778 34.3405 5.33536 34.3547 5.34444C34.3654 5.35129 34.3803 5.36381 34.3934 5.39641L36.1782 9.84094C36.3972 10.3865 36.9093 10.7585 37.4959 10.7983L42.2744 11.1223C42.3095 11.1247 42.326 11.135 42.3358 11.1431C42.3488 11.1538 42.3628 11.1721 42.3711 11.1977C42.3794 11.2232 42.3789 11.2463 42.3746 11.2626C42.3714 11.2749 42.3641 11.2929 42.3372 11.3154L38.6617 14.3863C38.2105 14.7633 38.0149 15.3652 38.1584 15.9354L39.3269 20.5802C39.3354 20.6143 39.3308 20.6331 39.3261 20.645C39.32 20.6607 39.3068 20.6796 39.2851 20.6954C39.2633 20.7112 39.2413 20.7178 39.2244 20.7188C39.2117 20.7196 39.1924 20.7182 39.1626 20.6995L35.1062 18.1529C34.6083 17.8403 33.9754 17.8403 33.4774 18.1529L29.4211 20.6995C29.3913 20.7182 29.3719 20.7196 29.3592 20.7188C29.3424 20.7178 29.3203 20.7112 29.2986 20.6954C29.2769 20.6796 29.2637 20.6607 29.2576 20.645C29.2529 20.6331 29.2482 20.6143 29.2568 20.5802L30.4253 15.9354C30.5687 15.3652 30.3732 14.7633 29.922 14.3863L26.2465 11.3154C26.2195 11.2929 26.2122 11.2749 26.209 11.2626C26.2048 11.2463 26.2043 11.2232 26.2126 11.1977C26.2209 11.1721 26.2348 11.1538 26.2479 11.1431C26.2577 11.135 26.2742 11.1247 26.3093 11.1223L31.0878 10.7983C31.6744 10.7585 32.1864 10.3865 32.4055 9.84094L34.1903 5.39641Z" stroke="#00B3FF" stroke-opacity="0.2" stroke-width="1.42225"/>
</g>
<g filter="url(#filter8_f_474_15133)">
<path d="M33.9365 5.29449C34.0651 4.97419 34.5185 4.9742 34.6472 5.29449L36.432 9.73902C36.6119 10.1872 37.0325 10.4928 37.5144 10.5254L42.2929 10.8494C42.6373 10.8728 42.7774 11.304 42.5125 11.5253L38.8371 14.5962C38.4664 14.9059 38.3058 15.4003 38.4236 15.8687L39.5921 20.5134C39.6763 20.8482 39.3095 21.1147 39.0172 20.9312L34.9608 18.3845C34.5518 18.1278 34.0319 18.1278 33.6229 18.3845L29.5665 20.9312C29.2742 21.1147 28.9074 20.8482 28.9916 20.5134L30.1601 15.8687C30.2779 15.4003 30.1172 14.9059 29.7466 14.5962L26.0711 11.5253C25.8063 11.304 25.9464 10.8728 26.2908 10.8494L31.0693 10.5254C31.5511 10.4928 31.9717 10.1872 32.1517 9.73902L33.9365 5.29449Z" stroke="#82D9FF" stroke-width="0.875232"/>
</g>
<g filter="url(#filter9_f_474_15133)">
<path d="M33.7334 5.21295C33.9356 4.70963 34.6481 4.70963 34.8502 5.21295L36.635 9.65748C36.7837 10.0277 37.1311 10.2801 37.5292 10.3071L42.3077 10.6311C42.8489 10.6678 43.069 11.3455 42.6528 11.6932L38.9773 14.7641C38.6712 15.0199 38.5385 15.4284 38.6358 15.8153L39.8043 20.4601C39.9366 20.9861 39.3602 21.4049 38.9008 21.1165L34.8445 18.5699C34.5066 18.3577 34.0771 18.3577 33.7392 18.5699L29.6828 21.1165C29.2235 21.4049 28.647 20.9861 28.7794 20.4601L29.9479 15.8153C30.0452 15.4284 29.9125 15.0199 29.6063 14.7641L25.9309 11.6932C25.5146 11.3455 25.7348 10.6678 26.276 10.6311L31.0545 10.3071C31.4525 10.2801 31.8 10.0277 31.9487 9.65748L33.7334 5.21295Z" stroke="white" stroke-width="0.437616"/>
</g>
<g style="mix-blend-mode:hard-light" filter="url(#filter10_f_474_15133)">
<path d="M55.3654 5.39641C55.3785 5.36381 55.3933 5.35129 55.404 5.34444C55.4182 5.33536 55.44 5.32778 55.4669 5.32778C55.4938 5.32778 55.5155 5.33536 55.5297 5.34444C55.5404 5.35129 55.5553 5.36381 55.5684 5.39641L57.3532 9.84094C57.5723 10.3865 58.0843 10.7585 58.6709 10.7983L63.4495 11.1223C63.4845 11.1247 63.501 11.135 63.5108 11.1431C63.5239 11.1538 63.5378 11.1721 63.5461 11.1977C63.5544 11.2232 63.5539 11.2463 63.5497 11.2626C63.5465 11.2749 63.5392 11.2929 63.5122 11.3154L59.8367 14.3863C59.3856 14.7633 59.19 15.3652 59.3334 15.9354L60.5019 20.5802C60.5105 20.6143 60.5058 20.6331 60.5012 20.645C60.495 20.6607 60.4819 20.6796 60.4601 20.6954C60.4384 20.7112 60.4163 20.7178 60.3995 20.7188C60.3868 20.7196 60.3674 20.7182 60.3376 20.6995L56.2813 18.1529C55.7833 17.8403 55.1504 17.8403 54.6525 18.1529L50.5961 20.6995C50.5664 20.7182 50.547 20.7196 50.5343 20.7188C50.5174 20.7178 50.4954 20.7112 50.4736 20.6954C50.4519 20.6796 50.4388 20.6607 50.4326 20.645C50.428 20.6331 50.4233 20.6143 50.4319 20.5802L51.6004 15.9354C51.7438 15.3652 51.5482 14.7633 51.097 14.3863L47.4216 11.3154C47.3946 11.2929 47.3873 11.2749 47.3841 11.2626C47.3798 11.2463 47.3794 11.2232 47.3877 11.1977C47.396 11.1721 47.4099 11.1538 47.4229 11.1431C47.4328 11.135 47.4492 11.1247 47.4843 11.1223L52.2628 10.7983C52.8494 10.7585 53.3615 10.3865 53.5806 9.84094L55.3654 5.39641Z" stroke="#0094FF" stroke-width="1.42225"/>
</g>
<g style="mix-blend-mode:hard-light" filter="url(#filter11_f_474_15133)">
<path d="M53.7836 9.92248L55.4669 5.73077L57.1502 9.92248C57.4005 10.546 57.9857 10.9712 58.6561 11.0166L63.1628 11.3222L59.6964 14.2184C59.1808 14.6492 58.9573 15.3372 59.1212 15.9888L60.2232 20.3694L56.3976 17.9676C55.8286 17.6103 55.1052 17.6103 54.5361 17.9676L50.7105 20.3694L51.8125 15.9888C51.9765 15.3372 51.7529 14.6492 51.2373 14.2184L47.7709 11.3222L52.2776 11.0166C52.948 10.9712 53.5332 10.546 53.7836 9.92248ZM60.454 20.5142L60.4538 20.5141L60.454 20.5142ZM50.6441 20.6336L50.6441 20.6334L50.6441 20.6336Z" stroke="#0094FF" stroke-width="1.85987"/>
</g>
<g style="mix-blend-mode:hard-light" filter="url(#filter12_ddi_474_15133)">
<path d="M55.3654 5.39641C55.3785 5.36381 55.3933 5.35129 55.404 5.34444C55.4182 5.33536 55.44 5.32778 55.4669 5.32778C55.4938 5.32778 55.5155 5.33536 55.5297 5.34444C55.5404 5.35129 55.5553 5.36381 55.5684 5.39641L57.3532 9.84094C57.5723 10.3865 58.0843 10.7585 58.6709 10.7983L63.4495 11.1223C63.4845 11.1247 63.501 11.135 63.5108 11.1431C63.5239 11.1538 63.5378 11.1721 63.5461 11.1977C63.5544 11.2232 63.5539 11.2463 63.5497 11.2626C63.5465 11.2749 63.5392 11.2929 63.5122 11.3154L59.8367 14.3863C59.3856 14.7633 59.19 15.3652 59.3334 15.9354L60.5019 20.5802C60.5105 20.6143 60.5058 20.6331 60.5012 20.645C60.495 20.6607 60.4819 20.6796 60.4601 20.6954C60.4384 20.7112 60.4163 20.7178 60.3995 20.7188C60.3868 20.7196 60.3674 20.7182 60.3376 20.6995L56.2813 18.1529C55.7833 17.8403 55.1504 17.8403 54.6525 18.1529L50.5961 20.6995C50.5664 20.7182 50.547 20.7196 50.5343 20.7188C50.5174 20.7178 50.4954 20.7112 50.4736 20.6954C50.4519 20.6796 50.4388 20.6607 50.4326 20.645C50.428 20.6331 50.4233 20.6143 50.4319 20.5802L51.6004 15.9354C51.7438 15.3652 51.5482 14.7633 51.097 14.3863L47.4216 11.3154C47.3946 11.2929 47.3873 11.2749 47.3841 11.2626C47.3798 11.2463 47.3794 11.2232 47.3877 11.1977C47.396 11.1721 47.4099 11.1538 47.4229 11.1431C47.4328 11.135 47.4492 11.1247 47.4843 11.1223L52.2628 10.7983C52.8494 10.7585 53.3615 10.3865 53.5806 9.84094L55.3654 5.39641Z" stroke="#00B3FF" stroke-opacity="0.2" stroke-width="1.42225"/>
</g>
<g filter="url(#filter13_f_474_15133)">
<path d="M55.1115 5.29449C55.2402 4.97419 55.6936 4.9742 55.8222 5.29449L57.607 9.73902C57.787 10.1872 58.2076 10.4928 58.6894 10.5254L63.468 10.8494C63.8123 10.8728 63.9524 11.304 63.6876 11.5253L60.0121 14.5962C59.6415 14.9059 59.4808 15.4003 59.5987 15.8687L60.7672 20.5134C60.8514 20.8482 60.4845 21.1147 60.1922 20.9312L56.1358 18.3845C55.7268 18.1278 55.2069 18.1278 54.7979 18.3845L50.7416 20.9312C50.4492 21.1147 50.0824 20.8482 50.1666 20.5134L51.3351 15.8687C51.4529 15.4003 51.2923 14.9059 50.9217 14.5962L47.2462 11.5253C46.9813 11.304 47.1214 10.8728 47.4658 10.8494L52.2443 10.5254C52.7262 10.4928 53.1468 10.1872 53.3267 9.73902L55.1115 5.29449Z" stroke="#82D9FF" stroke-width="0.875232"/>
</g>
<g filter="url(#filter14_f_474_15133)">
<path d="M54.9085 5.21295C55.1106 4.70963 55.8231 4.70963 56.0253 5.21295L57.8101 9.65748C57.9587 10.0277 58.3062 10.2801 58.7042 10.3071L63.4828 10.6311C64.0239 10.6678 64.2441 11.3455 63.8279 11.6932L60.1524 14.7641C59.8462 15.0199 59.7135 15.4284 59.8109 15.8153L60.9794 20.4601C61.1117 20.9861 60.5352 21.4049 60.0759 21.1165L56.0195 18.5699C55.6816 18.3577 55.2521 18.3577 54.9143 18.5699L50.8579 21.1165C50.3985 21.4049 49.8221 20.9861 49.9544 20.4601L51.1229 15.8153C51.2202 15.4284 51.0875 15.0199 50.7814 14.7641L47.1059 11.6932C46.6897 11.3455 46.9099 10.6678 47.451 10.6311L52.2295 10.3071C52.6276 10.2801 52.975 10.0277 53.1237 9.65748L54.9085 5.21295Z" stroke="white" stroke-width="0.437616"/>
</g>
<g style="mix-blend-mode:hard-light" filter="url(#filter15_f_474_15133)">
<path d="M76.5404 5.39641C76.5535 5.36381 76.5684 5.35129 76.5791 5.34444C76.5933 5.33536 76.6151 5.32778 76.6419 5.32778C76.6688 5.32778 76.6906 5.33536 76.7048 5.34444C76.7155 5.35129 76.7304 5.36381 76.7435 5.39641L78.5283 9.84094C78.7473 10.3865 79.2594 10.7585 79.846 10.7983L84.6245 11.1223C84.6596 11.1247 84.6761 11.135 84.6859 11.1431C84.6989 11.1538 84.7129 11.1721 84.7212 11.1977C84.7295 11.2232 84.729 11.2463 84.7247 11.2626C84.7215 11.2749 84.7142 11.2929 84.6873 11.3154L81.0118 14.3863C80.5606 14.7633 80.365 15.3652 80.5085 15.9354L81.677 20.5802C81.6855 20.6143 81.6809 20.6331 81.6762 20.645C81.6701 20.6607 81.6569 20.6796 81.6352 20.6954C81.6134 20.7112 81.5914 20.7178 81.5745 20.7188C81.5618 20.7196 81.5424 20.7182 81.5127 20.6995L77.4563 18.1529C76.9584 17.8403 76.3255 17.8403 75.8275 18.1529L71.7712 20.6995C71.7414 20.7182 71.722 20.7196 71.7093 20.7188C71.6925 20.7178 71.6704 20.7112 71.6487 20.6954C71.627 20.6796 71.6138 20.6607 71.6076 20.645C71.603 20.6331 71.5983 20.6143 71.6069 20.5802L72.7754 15.9354C72.9188 15.3652 72.7233 14.7633 72.2721 14.3863L68.5966 11.3154C68.5696 11.2929 68.5623 11.2749 68.5591 11.2626C68.5549 11.2463 68.5544 11.2232 68.5627 11.1977C68.571 11.1721 68.5849 11.1538 68.598 11.1431C68.6078 11.135 68.6243 11.1247 68.6594 11.1223L73.4379 10.7983C74.0245 10.7585 74.5365 10.3865 74.7556 9.84094L76.5404 5.39641Z" stroke="#0094FF" stroke-width="1.42225"/>
</g>
<g style="mix-blend-mode:hard-light" filter="url(#filter16_f_474_15133)">
<path d="M74.9587 9.92248L76.6419 5.73077L78.3252 9.92248C78.5756 10.546 79.1608 10.9712 79.8312 11.0166L84.3379 11.3222L80.8715 14.2184C80.3559 14.6492 80.1323 15.3372 80.2963 15.9888L81.3983 20.3694L77.5727 17.9676C77.0036 17.6103 76.2803 17.6103 75.7112 17.9676L71.8856 20.3694L72.9876 15.9888C73.1515 15.3372 72.928 14.6492 72.4124 14.2184L68.946 11.3222L73.4527 11.0166C74.1231 10.9712 74.7083 10.546 74.9587 9.92248ZM81.629 20.5142L81.6288 20.5141L81.629 20.5142ZM71.8191 20.6336L71.8191 20.6334L71.8191 20.6336Z" stroke="#0094FF" stroke-width="1.85987"/>
</g>
<g style="mix-blend-mode:hard-light" filter="url(#filter17_ddi_474_15133)">
<path d="M76.5404 5.39641C76.5535 5.36381 76.5684 5.35129 76.5791 5.34444C76.5933 5.33536 76.6151 5.32778 76.6419 5.32778C76.6688 5.32778 76.6906 5.33536 76.7048 5.34444C76.7155 5.35129 76.7304 5.36381 76.7435 5.39641L78.5283 9.84094C78.7473 10.3865 79.2594 10.7585 79.846 10.7983L84.6245 11.1223C84.6596 11.1247 84.6761 11.135 84.6859 11.1431C84.6989 11.1538 84.7129 11.1721 84.7212 11.1977C84.7295 11.2232 84.729 11.2463 84.7247 11.2626C84.7215 11.2749 84.7142 11.2929 84.6873 11.3154L81.0118 14.3863C80.5606 14.7633 80.365 15.3652 80.5085 15.9354L81.677 20.5802C81.6855 20.6143 81.6809 20.6331 81.6762 20.645C81.6701 20.6607 81.6569 20.6796 81.6352 20.6954C81.6134 20.7112 81.5914 20.7178 81.5745 20.7188C81.5618 20.7196 81.5424 20.7182 81.5127 20.6995L77.4563 18.1529C76.9584 17.8403 76.3255 17.8403 75.8275 18.1529L71.7712 20.6995C71.7414 20.7182 71.722 20.7196 71.7093 20.7188C71.6925 20.7178 71.6704 20.7112 71.6487 20.6954C71.627 20.6796 71.6138 20.6607 71.6076 20.645C71.603 20.6331 71.5983 20.6143 71.6069 20.5802L72.7754 15.9354C72.9188 15.3652 72.7233 14.7633 72.2721 14.3863L68.5966 11.3154C68.5696 11.2929 68.5623 11.2749 68.5591 11.2626C68.5549 11.2463 68.5544 11.2232 68.5627 11.1977C68.571 11.1721 68.5849 11.1538 68.598 11.1431C68.6078 11.135 68.6243 11.1247 68.6594 11.1223L73.4379 10.7983C74.0245 10.7585 74.5365 10.3865 74.7556 9.84094L76.5404 5.39641Z" stroke="#00B3FF" stroke-opacity="0.2" stroke-width="1.42225"/>
</g>
<g filter="url(#filter18_f_474_15133)">
<path d="M76.2866 5.29449C76.4152 4.97419 76.8686 4.9742 76.9973 5.29449L78.7821 9.73902C78.962 10.1872 79.3826 10.4928 79.8645 10.5254L84.643 10.8494C84.9874 10.8728 85.1275 11.304 84.8626 11.5253L81.1872 14.5962C80.8165 14.9059 80.6559 15.4003 80.7737 15.8687L81.9422 20.5134C82.0264 20.8482 81.6596 21.1147 81.3673 20.9312L77.3109 18.3845C76.9019 18.1278 76.382 18.1278 75.973 18.3845L71.9166 20.9312C71.6243 21.1147 71.2575 20.8482 71.3417 20.5134L72.5102 15.8687C72.628 15.4003 72.4673 14.9059 72.0967 14.5962L68.4212 11.5253C68.1564 11.304 68.2965 10.8728 68.6409 10.8494L73.4194 10.5254C73.9012 10.4928 74.3218 10.1872 74.5018 9.73902L76.2866 5.29449Z" stroke="#82D9FF" stroke-width="0.875232"/>
</g>
<g filter="url(#filter19_f_474_15133)">
<path d="M76.0835 5.21295C76.2857 4.70963 76.9982 4.70963 77.2003 5.21295L78.9851 9.65748C79.1338 10.0277 79.4812 10.2801 79.8793 10.3071L84.6578 10.6311C85.199 10.6678 85.4191 11.3455 85.0029 11.6932L81.3274 14.7641C81.0213 15.0199 80.8886 15.4284 80.9859 15.8153L82.1544 20.4601C82.2867 20.9861 81.7103 21.4049 81.2509 21.1165L77.1946 18.5699C76.8567 18.3577 76.4272 18.3577 76.0893 18.5699L72.0329 21.1165C71.5736 21.4049 70.9971 20.9861 71.1295 20.4601L72.298 15.8153C72.3953 15.4284 72.2626 15.0199 71.9564 14.7641L68.281 11.6932C67.8647 11.3455 68.0849 10.6678 68.626 10.6311L73.4046 10.3071C73.8026 10.2801 74.1501 10.0277 74.2987 9.65748L76.0835 5.21295Z" stroke="white" stroke-width="0.437616"/>
</g>
<path d="M10.2479 36.9455C10.7392 36.9455 11.1719 37.0042 11.5459 37.1215C11.9199 37.2389 12.2279 37.4075 12.4699 37.6275C12.7192 37.8402 12.9062 38.1005 13.0309 38.4085C13.1556 38.7092 13.2179 39.0465 13.2179 39.4205C13.2179 40.2199 12.9832 40.8322 12.5139 41.2575C12.0446 41.6829 11.2892 41.8955 10.2479 41.8955H9.54391V44.6455H7.98191V36.9455H10.2479ZM10.2479 40.6855C11.1279 40.6855 11.5679 40.2639 11.5679 39.4205C11.5679 38.5772 11.1279 38.1555 10.2479 38.1555H9.54391V40.6855H10.2479ZM14.7938 47.0875C14.6545 47.0875 14.5078 47.0692 14.3538 47.0325C14.1998 47.0032 14.0568 46.9665 13.9248 46.9225V45.7785C14.0128 45.8152 14.1082 45.8482 14.2108 45.8775C14.3135 45.9142 14.4492 45.9325 14.6178 45.9325C14.8745 45.9325 15.0835 45.8885 15.2448 45.8005C15.4135 45.7125 15.5492 45.5439 15.6518 45.2945L15.7838 44.9645L13.5398 38.9475H15.1898L16.2568 42.0935L16.5758 43.1825H16.6308L16.9828 42.0495L18.0168 38.9475H19.5348L17.1258 45.3385C17.0452 45.5512 16.9498 45.7602 16.8398 45.9655C16.7372 46.1782 16.6015 46.3652 16.4328 46.5265C16.2642 46.6952 16.0478 46.8309 15.7838 46.9335C15.5198 47.0362 15.1898 47.0875 14.7938 47.0875ZM21.7764 38.9475V41.5325H21.8314L23.6574 38.9475H25.3294L23.2174 41.6425L25.6264 44.6455H23.7454L21.8314 41.9175H21.7764V44.6455H20.2804V38.9475H21.7764ZM25.8479 41.7965C25.8479 41.3199 25.9212 40.8982 26.0679 40.5315C26.2146 40.1649 26.4162 39.8605 26.6729 39.6185C26.9369 39.3692 27.2486 39.1822 27.6079 39.0575C27.9672 38.9255 28.3596 38.8595 28.7849 38.8595C29.2102 38.8595 29.6026 38.9255 29.9619 39.0575C30.3212 39.1822 30.6292 39.3692 30.8859 39.6185C31.1499 39.8605 31.3552 40.1649 31.5019 40.5315C31.6486 40.8982 31.7219 41.3199 31.7219 41.7965C31.7219 42.2732 31.6486 42.6949 31.5019 43.0615C31.3552 43.4282 31.1499 43.7362 30.8859 43.9855C30.6292 44.2275 30.3212 44.4145 29.9619 44.5465C29.6026 44.6712 29.2102 44.7335 28.7849 44.7335C28.3596 44.7335 27.9672 44.6712 27.6079 44.5465C27.2486 44.4145 26.9369 44.2275 26.6729 43.9855C26.4162 43.7362 26.2146 43.4282 26.0679 43.0615C25.9212 42.6949 25.8479 42.2732 25.8479 41.7965ZM27.4099 41.7965C27.4099 42.1265 27.4502 42.4089 27.5309 42.6435C27.6116 42.8782 27.7179 43.0725 27.8499 43.2265C27.9819 43.3732 28.1286 43.4832 28.2899 43.5565C28.4512 43.6225 28.6162 43.6555 28.7849 43.6555C28.9462 43.6555 29.1076 43.6225 29.2689 43.5565C29.4376 43.4832 29.5879 43.3732 29.7199 43.2265C29.8519 43.0725 29.9582 42.8782 30.0389 42.6435C30.1196 42.4089 30.1599 42.1265 30.1599 41.7965C30.1599 41.4665 30.1196 41.1842 30.0389 40.9495C29.9582 40.7149 29.8519 40.5242 29.7199 40.3775C29.5879 40.2235 29.4376 40.1135 29.2689 40.0475C29.1076 39.9742 28.9462 39.9375 28.7849 39.9375C28.6162 39.9375 28.4512 39.9742 28.2899 40.0475C28.1286 40.1135 27.9819 40.2235 27.8499 40.3775C27.7179 40.5242 27.6116 40.7149 27.5309 40.9495C27.4502 41.1842 27.4099 41.4665 27.4099 41.7965ZM35.6106 38.9475C36.0212 38.9475 36.3512 38.9915 36.6006 39.0795C36.8572 39.1675 37.0552 39.2812 37.1946 39.4205C37.3412 39.5599 37.4402 39.7102 37.4916 39.8715C37.5429 40.0329 37.5686 40.1905 37.5686 40.3445C37.5686 40.7039 37.4659 40.9935 37.2606 41.2135C37.0626 41.4262 36.8132 41.5619 36.5126 41.6205V41.6535C36.6739 41.6682 36.8316 41.7049 36.9856 41.7635C37.1469 41.8149 37.2862 41.8992 37.4036 42.0165C37.5282 42.1265 37.6272 42.2695 37.7006 42.4455C37.7812 42.6142 37.8216 42.8159 37.8216 43.0505C37.8216 43.5639 37.6272 43.9599 37.2386 44.2385C36.8572 44.5099 36.3439 44.6455 35.6986 44.6455H32.8166V38.9475H35.6106ZM34.3126 41.1695H35.2366C35.3099 41.1695 35.3942 41.1659 35.4896 41.1585C35.5922 41.1512 35.6876 41.1292 35.7756 41.0925C35.8636 41.0485 35.9369 40.9862 35.9956 40.9055C36.0542 40.8249 36.0836 40.7075 36.0836 40.5535C36.0836 40.4069 36.0506 40.2932 35.9846 40.2125C35.9259 40.1319 35.8526 40.0732 35.7646 40.0365C35.6766 39.9925 35.5849 39.9669 35.4896 39.9595C35.3942 39.9449 35.3099 39.9375 35.2366 39.9375H34.3126V41.1695ZM34.3126 43.6555H35.2696C35.3356 43.6555 35.4236 43.6519 35.5336 43.6445C35.6509 43.6372 35.7609 43.6115 35.8636 43.5675C35.9736 43.5235 36.0652 43.4502 36.1386 43.3475C36.2192 43.2449 36.2596 43.0982 36.2596 42.9075C36.2596 42.7315 36.2229 42.5959 36.1496 42.5005C36.0836 42.3979 35.9956 42.3209 35.8856 42.2695C35.7829 42.2182 35.6729 42.1889 35.5556 42.1815C35.4456 42.1669 35.3466 42.1595 35.2586 42.1595H34.3126V43.6555ZM38.7063 41.7965C38.7063 41.3199 38.7796 40.8982 38.9263 40.5315C39.073 40.1649 39.2746 39.8605 39.5313 39.6185C39.7953 39.3692 40.107 39.1822 40.4663 39.0575C40.8256 38.9255 41.218 38.8595 41.6433 38.8595C42.0686 38.8595 42.461 38.9255 42.8203 39.0575C43.1796 39.1822 43.4876 39.3692 43.7443 39.6185C44.0083 39.8605 44.2136 40.1649 44.3603 40.5315C44.507 40.8982 44.5803 41.3199 44.5803 41.7965C44.5803 42.2732 44.507 42.6949 44.3603 43.0615C44.2136 43.4282 44.0083 43.7362 43.7443 43.9855C43.4876 44.2275 43.1796 44.4145 42.8203 44.5465C42.461 44.6712 42.0686 44.7335 41.6433 44.7335C41.218 44.7335 40.8256 44.6712 40.4663 44.5465C40.107 44.4145 39.7953 44.2275 39.5313 43.9855C39.2746 43.7362 39.073 43.4282 38.9263 43.0615C38.7796 42.6949 38.7063 42.2732 38.7063 41.7965ZM40.2683 41.7965C40.2683 42.1265 40.3086 42.4089 40.3893 42.6435C40.47 42.8782 40.5763 43.0725 40.7083 43.2265C40.8403 43.3732 40.987 43.4832 41.1483 43.5565C41.3096 43.6225 41.4746 43.6555 41.6433 43.6555C41.8046 43.6555 41.966 43.6225 42.1273 43.5565C42.296 43.4832 42.4463 43.3732 42.5783 43.2265C42.7103 43.0725 42.8166 42.8782 42.8973 42.6435C42.978 42.4089 43.0183 42.1265 43.0183 41.7965C43.0183 41.4665 42.978 41.1842 42.8973 40.9495C42.8166 40.7149 42.7103 40.5242 42.5783 40.3775C42.4463 40.2235 42.296 40.1135 42.1273 40.0475C41.966 39.9742 41.8046 39.9375 41.6433 39.9375C41.4746 39.9375 41.3096 39.9742 41.1483 40.0475C40.987 40.1135 40.8403 40.2235 40.7083 40.3775C40.5763 40.5242 40.47 40.7149 40.3893 40.9495C40.3086 41.1842 40.2683 41.4665 40.2683 41.7965ZM50.933 38.9475V43.5455H51.868V46.1305H50.493V44.6455H46.467V46.1305H45.092V43.5455H45.73C45.8986 43.3475 46.0306 43.1459 46.126 42.9405C46.2286 42.7352 46.302 42.5189 46.346 42.2915C46.3973 42.0642 46.4303 41.8295 46.445 41.5875C46.4596 41.3382 46.467 41.0742 46.467 40.7955V38.9475H50.933ZM49.437 43.5455V40.0475H47.787V40.8945C47.787 41.1145 47.7833 41.3382 47.776 41.5655C47.776 41.7929 47.754 42.0165 47.71 42.2365C47.6733 42.4565 47.6146 42.6765 47.534 42.8965C47.4533 43.1165 47.336 43.3329 47.182 43.5455H49.437ZM54.2071 38.9475V41.9395L54.1631 42.9625H54.1851L56.6381 38.9475H58.3101V44.6455H56.8141V41.6975L56.8581 40.6305H56.8251L54.3061 44.6455H52.7111V38.9475H54.2071ZM64.1915 38.9475V40.0475H62.4095V44.6455H60.9135V40.0475H59.1315V38.9475H64.1915ZM65.9743 42.2475C65.9817 42.4309 66.022 42.6069 66.0953 42.7755C66.1687 42.9442 66.275 43.0945 66.4143 43.2265C66.5537 43.3585 66.726 43.4649 66.9313 43.5455C67.144 43.6189 67.3897 43.6555 67.6683 43.6555C67.9983 43.6555 68.31 43.6225 68.6033 43.5565C68.8967 43.4832 69.179 43.3842 69.4503 43.2595V44.3815C69.157 44.4915 68.8417 44.5795 68.5043 44.6455C68.167 44.7042 67.826 44.7335 67.4813 44.7335C67.056 44.7335 66.6563 44.6749 66.2823 44.5575C65.9083 44.4402 65.582 44.2605 65.3033 44.0185C65.032 43.7765 64.8157 43.4722 64.6543 43.1055C64.493 42.7389 64.4123 42.3025 64.4123 41.7965C64.4123 41.3345 64.4857 40.9239 64.6323 40.5645C64.7863 40.1979 64.9917 39.8899 65.2483 39.6405C65.505 39.3839 65.802 39.1895 66.1393 39.0575C66.484 38.9255 66.847 38.8595 67.2283 38.8595C67.661 38.8595 68.024 38.9255 68.3173 39.0575C68.618 39.1822 68.8637 39.3435 69.0543 39.5415C69.2523 39.7395 69.4027 39.9595 69.5053 40.2015C69.6153 40.4362 69.696 40.6672 69.7473 40.8945C69.7987 41.1219 69.828 41.3272 69.8353 41.5105C69.85 41.6939 69.8573 41.8259 69.8573 41.9065V42.2475H65.9743ZM68.3173 41.2245C68.3247 40.9825 68.2917 40.7772 68.2183 40.6085C68.1523 40.4399 68.0607 40.3042 67.9433 40.2015C67.826 40.0915 67.6977 40.0145 67.5583 39.9705C67.419 39.9192 67.2797 39.8935 67.1403 39.8935C66.9717 39.8935 66.8177 39.9302 66.6783 40.0035C66.539 40.0695 66.418 40.1612 66.3153 40.2785C66.2127 40.3959 66.1283 40.5389 66.0623 40.7075C66.0037 40.8689 65.9743 41.0412 65.9743 41.2245H68.3173ZM70.7996 44.7335C70.697 44.7335 70.5906 44.7225 70.4806 44.7005C70.3706 44.6859 70.2753 44.6675 70.1946 44.6455V43.5015C70.2533 43.5162 70.312 43.5272 70.3706 43.5345C70.4293 43.5419 70.4806 43.5455 70.5246 43.5455C70.6273 43.5455 70.7226 43.5125 70.8106 43.4465C70.906 43.3805 70.9866 43.2339 71.0526 43.0065C71.1186 42.7792 71.17 42.4492 71.2066 42.0165C71.2506 41.5765 71.2726 40.9862 71.2726 40.2455V38.9475H75.8596V44.6455H74.3636V40.0475H72.6036V40.2455C72.6036 41.2062 72.5633 41.9799 72.4826 42.5665C72.402 43.1532 72.2846 43.6079 72.1306 43.9305C71.9766 44.2459 71.786 44.4585 71.5586 44.5685C71.3386 44.6785 71.0856 44.7335 70.7996 44.7335ZM77.2782 38.9475H78.7742V40.7955H79.9182C80.7396 40.7955 81.3446 40.9715 81.7332 41.3235C82.1292 41.6755 82.3272 42.1412 82.3272 42.7205C82.3272 43.2999 82.1292 43.7655 81.7332 44.1175C81.3446 44.4695 80.7396 44.6455 79.9182 44.6455H77.2782V38.9475ZM80.7652 42.7205C80.7652 42.4419 80.6809 42.2255 80.5122 42.0715C80.3436 41.9175 80.0722 41.8405 79.6982 41.8405H78.7742V43.6005H79.6982C80.0722 43.6005 80.3436 43.5235 80.5122 43.3695C80.6809 43.2155 80.7652 42.9992 80.7652 42.7205ZM29.7353 49.9475V51.0475H27.2603V55.6455H25.7643V49.9475H29.7353ZM30.5553 57.9995V49.9475H31.8643V50.9375H31.8863C32.033 50.6809 32.198 50.4792 32.3813 50.3325C32.572 50.1859 32.759 50.0795 32.9423 50.0135C33.1257 49.9402 33.2907 49.8962 33.4373 49.8815C33.584 49.8669 33.6867 49.8595 33.7453 49.8595C34.068 49.8595 34.3723 49.9145 34.6583 50.0245C34.9517 50.1272 35.2083 50.2995 35.4283 50.5415C35.6483 50.7762 35.8207 51.0805 35.9453 51.4545C36.0773 51.8212 36.1433 52.2685 36.1433 52.7965C36.1433 53.3245 36.0737 53.7755 35.9343 54.1495C35.795 54.5162 35.608 54.8169 35.3733 55.0515C35.146 55.2862 34.882 55.4585 34.5813 55.5685C34.288 55.6785 33.9873 55.7335 33.6793 55.7335C33.2613 55.7335 32.9203 55.6492 32.6563 55.4805C32.3997 55.3119 32.1943 55.1102 32.0403 54.8755H32.0183L32.0513 55.8105V57.9995H30.5553ZM32.0513 52.7965C32.0513 53.0972 32.088 53.3575 32.1613 53.5775C32.2347 53.7975 32.33 53.9809 32.4473 54.1275C32.572 54.2669 32.7077 54.3732 32.8543 54.4465C33.0083 54.5125 33.1623 54.5455 33.3163 54.5455C33.4703 54.5455 33.6207 54.5125 33.7673 54.4465C33.9213 54.3732 34.057 54.2669 34.1743 54.1275C34.299 53.9809 34.398 53.7975 34.4713 53.5775C34.5447 53.3575 34.5813 53.0972 34.5813 52.7965C34.5813 52.4959 34.5447 52.2355 34.4713 52.0155C34.398 51.7955 34.299 51.6159 34.1743 51.4765C34.057 51.3299 33.9213 51.2235 33.7673 51.1575C33.6207 51.0842 33.4703 51.0475 33.3163 51.0475C33.1623 51.0475 33.0083 51.0842 32.8543 51.1575C32.7077 51.2235 32.572 51.3299 32.4473 51.4765C32.33 51.6159 32.2347 51.7955 32.1613 52.0155C32.088 52.2355 32.0513 52.4959 32.0513 52.7965ZM37.6156 58.0875C37.4763 58.0875 37.3296 58.0692 37.1756 58.0325C37.0216 58.0032 36.8786 57.9665 36.7466 57.9225V56.7785C36.8346 56.8152 36.9299 56.8482 37.0326 56.8775C37.1353 56.9142 37.2709 56.9325 37.4396 56.9325C37.6963 56.9325 37.9053 56.8885 38.0666 56.8005C38.2353 56.7125 38.3709 56.5439 38.4736 56.2945L38.6056 55.9645L36.3616 49.9475H38.0116L39.0786 53.0935L39.3976 54.1825H39.4526L39.8046 53.0495L40.8386 49.9475H42.3566L39.9476 56.3385C39.8669 56.5512 39.7716 56.7602 39.6616 56.9655C39.5589 57.1782 39.4233 57.3652 39.2546 57.5265C39.0859 57.6952 38.8696 57.8309 38.6056 57.9335C38.3416 58.0362 38.0116 58.0875 37.6156 58.0875ZM48.4042 49.9475V55.6455H46.9082V51.0475H44.5982V55.6455H43.1022V49.9475H48.4042ZM55.1396 49.9475V55.6455H53.6436V51.0475H51.3336V55.6455H49.8376V49.9475H55.1396ZM56.5619 49.9475H58.0579V51.7955H59.2019C60.0232 51.7955 60.6282 51.9715 61.0169 52.3235C61.4129 52.6755 61.6109 53.1412 61.6109 53.7205C61.6109 54.2999 61.4129 54.7655 61.0169 55.1175C60.6282 55.4695 60.0232 55.6455 59.2019 55.6455H56.5619V49.9475ZM60.0489 53.7205C60.0489 53.4419 59.9646 53.2255 59.7959 53.0715C59.6272 52.9175 59.3559 52.8405 58.9819 52.8405H58.0579V54.6005H58.9819C59.3559 54.6005 59.6272 54.5235 59.7959 54.3695C59.9646 54.2155 60.0489 53.9992 60.0489 53.7205ZM62.5019 49.9475H63.9979V55.6455H62.5019V49.9475Z" fill="#0094FF"/>
<defs>
<filter id="filter0_f_474_15133" x="0.414344" y="0.710914" width="25.4054" height="24.6249" filterUnits="userSpaceOnUse" color-interpolation-filters="sRGB">
<feFlood flood-opacity="0" result="BackgroundImageFix"/>
<feBlend mode="normal" in="SourceGraphic" in2="BackgroundImageFix" result="shape"/>
<feGaussianBlur stdDeviation="1.95286" result="effect1_foregroundBlur_474_15133"/>
</filter>
<filter id="filter1_f_474_15133" x="3.01816" y="3.31473" width="20.1978" height="19.4173" filterUnits="userSpaceOnUse" color-interpolation-filters="sRGB">
<feFlood flood-opacity="0" result="BackgroundImageFix"/>
<feBlend mode="normal" in="SourceGraphic" in2="BackgroundImageFix" result="shape"/>
<feGaussianBlur stdDeviation="0.650954" result="effect1_foregroundBlur_474_15133"/>
</filter>
<filter id="filter2_ddi_474_15133" x="2.62759" y="4.22607" width="20.979" height="20.1984" filterUnits="userSpaceOnUse" color-interpolation-filters="sRGB">
<feFlood flood-opacity="0" result="BackgroundImageFix"/>
<feColorMatrix in="SourceAlpha" type="matrix" values="0 0 0 0 0 0 0 0 0 0 0 0 0 0 0 0 0 0 127 0" result="hardAlpha"/>
<feOffset dy="1.42225"/>
<feGaussianBlur stdDeviation="0.54702"/>
<feColorMatrix type="matrix" values="0 0 0 0 0 0 0 0 0 0.051 0 0 0 0 0.082 0 0 0 0.7 0"/>
<feBlend mode="multiply" in2="BackgroundImageFix" result="effect1_dropShadow_474_15133"/>
<feColorMatrix in="SourceAlpha" type="matrix" values="0 0 0 0 0 0 0 0 0 0 0 0 0 0 0 0 0 0 127 0" result="hardAlpha"/>
<feOffset dy="1.30191"/>
<feGaussianBlur stdDeviation="0.84624"/>
<feColorMatrix type="matrix" values="0 0 0 0 0 0 0 0 0 0.4 0 0 0 0 1 0 0 0 1 0"/>
<feBlend mode="color-dodge" in2="effect1_dropShadow_474_15133" result="effect2_dropShadow_474_15133"/>
<feBlend mode="normal" in="SourceGraphic" in2="effect2_dropShadow_474_15133" result="shape"/>
<feColorMatrix in="SourceAlpha" type="matrix" values="0 0 0 0 0 0 0 0 0 0 0 0 0 0 0 0 0 0 127 0" result="hardAlpha"/>
<feOffset dx="-0.142225" dy="0.284451"/>
<feGaussianBlur stdDeviation="0.0711126"/>
<feComposite in2="hardAlpha" operator="arithmetic" k2="-1" k3="1"/>
<feColorMatrix type="matrix" values="0 0 0 0 1 0 0 0 0 1 0 0 0 0 1 0 0 0 0.5 0"/>
<feBlend mode="normal" in2="shape" result="effect3_innerShadow_474_15133"/>
</filter>
<filter id="filter3_f_474_15133" x="4.10126" y="4.39783" width="18.0316" height="17.2511" filterUnits="userSpaceOnUse" color-interpolation-filters="sRGB">
<feFlood flood-opacity="0" result="BackgroundImageFix"/>
<feBlend mode="normal" in="SourceGraphic" in2="BackgroundImageFix" result="shape"/>
<feGaussianBlur stdDeviation="0.109404" result="effect1_foregroundBlur_474_15133"/>
</filter>
<filter id="filter4_f_474_15133" x="4.1742" y="4.47077" width="17.8857" height="17.1052" filterUnits="userSpaceOnUse" color-interpolation-filters="sRGB">
<feFlood flood-opacity="0" result="BackgroundImageFix"/>
<feBlend mode="normal" in="SourceGraphic" in2="BackgroundImageFix" result="shape"/>
<feGaussianBlur stdDeviation="0.072936" result="effect1_foregroundBlur_474_15133"/>
</filter>
<filter id="filter5_f_474_15133" x="21.5891" y="0.710914" width="25.4054" height="24.6249" filterUnits="userSpaceOnUse" color-interpolation-filters="sRGB">
<feFlood flood-opacity="0" result="BackgroundImageFix"/>
<feBlend mode="normal" in="SourceGraphic" in2="BackgroundImageFix" result="shape"/>
<feGaussianBlur stdDeviation="1.95286" result="effect1_foregroundBlur_474_15133"/>
</filter>
<filter id="filter6_f_474_15133" x="24.193" y="3.31473" width="20.1978" height="19.4173" filterUnits="userSpaceOnUse" color-interpolation-filters="sRGB">
<feFlood flood-opacity="0" result="BackgroundImageFix"/>
<feBlend mode="normal" in="SourceGraphic" in2="BackgroundImageFix" result="shape"/>
<feGaussianBlur stdDeviation="0.650954" result="effect1_foregroundBlur_474_15133"/>
</filter>
<filter id="filter7_ddi_474_15133" x="23.8024" y="4.22607" width="20.979" height="20.1984" filterUnits="userSpaceOnUse" color-interpolation-filters="sRGB">
<feFlood flood-opacity="0" result="BackgroundImageFix"/>
<feColorMatrix in="SourceAlpha" type="matrix" values="0 0 0 0 0 0 0 0 0 0 0 0 0 0 0 0 0 0 127 0" result="hardAlpha"/>
<feOffset dy="1.42225"/>
<feGaussianBlur stdDeviation="0.54702"/>
<feColorMatrix type="matrix" values="0 0 0 0 0 0 0 0 0 0.051 0 0 0 0 0.082 0 0 0 0.7 0"/>
<feBlend mode="multiply" in2="BackgroundImageFix" result="effect1_dropShadow_474_15133"/>
<feColorMatrix in="SourceAlpha" type="matrix" values="0 0 0 0 0 0 0 0 0 0 0 0 0 0 0 0 0 0 127 0" result="hardAlpha"/>
<feOffset dy="1.30191"/>
<feGaussianBlur stdDeviation="0.84624"/>
<feColorMatrix type="matrix" values="0 0 0 0 0 0 0 0 0 0.4 0 0 0 0 1 0 0 0 1 0"/>
<feBlend mode="color-dodge" in2="effect1_dropShadow_474_15133" result="effect2_dropShadow_474_15133"/>
<feBlend mode="normal" in="SourceGraphic" in2="effect2_dropShadow_474_15133" result="shape"/>
<feColorMatrix in="SourceAlpha" type="matrix" values="0 0 0 0 0 0 0 0 0 0 0 0 0 0 0 0 0 0 127 0" result="hardAlpha"/>
<feOffset dx="-0.142225" dy="0.284451"/>
<feGaussianBlur stdDeviation="0.0711126"/>
<feComposite in2="hardAlpha" operator="arithmetic" k2="-1" k3="1"/>
<feColorMatrix type="matrix" values="0 0 0 0 1 0 0 0 0 1 0 0 0 0 1 0 0 0 0.5 0"/>
<feBlend mode="normal" in2="shape" result="effect3_innerShadow_474_15133"/>
</filter>
<filter id="filter8_f_474_15133" x="25.2761" y="4.39783" width="18.0316" height="17.2511" filterUnits="userSpaceOnUse" color-interpolation-filters="sRGB">
<feFlood flood-opacity="0" result="BackgroundImageFix"/>
<feBlend mode="normal" in="SourceGraphic" in2="BackgroundImageFix" result="shape"/>
<feGaussianBlur stdDeviation="0.109404" result="effect1_foregroundBlur_474_15133"/>
</filter>
<filter id="filter9_f_474_15133" x="25.349" y="4.47077" width="17.8857" height="17.1052" filterUnits="userSpaceOnUse" color-interpolation-filters="sRGB">
<feFlood flood-opacity="0" result="BackgroundImageFix"/>
<feBlend mode="normal" in="SourceGraphic" in2="BackgroundImageFix" result="shape"/>
<feGaussianBlur stdDeviation="0.072936" result="effect1_foregroundBlur_474_15133"/>
</filter>
<filter id="filter10_f_474_15133" x="42.7642" y="0.710914" width="25.4054" height="24.6249" filterUnits="userSpaceOnUse" color-interpolation-filters="sRGB">
<feFlood flood-opacity="0" result="BackgroundImageFix"/>
<feBlend mode="normal" in="SourceGraphic" in2="BackgroundImageFix" result="shape"/>
<feGaussianBlur stdDeviation="1.95286" result="effect1_foregroundBlur_474_15133"/>
</filter>
<filter id="filter11_f_474_15133" x="45.368" y="3.31473" width="20.1978" height="19.4173" filterUnits="userSpaceOnUse" color-interpolation-filters="sRGB">
<feFlood flood-opacity="0" result="BackgroundImageFix"/>
<feBlend mode="normal" in="SourceGraphic" in2="BackgroundImageFix" result="shape"/>
<feGaussianBlur stdDeviation="0.650954" result="effect1_foregroundBlur_474_15133"/>
</filter>
<filter id="filter12_ddi_474_15133" x="44.9774" y="4.22607" width="20.979" height="20.1984" filterUnits="userSpaceOnUse" color-interpolation-filters="sRGB">
<feFlood flood-opacity="0" result="BackgroundImageFix"/>
<feColorMatrix in="SourceAlpha" type="matrix" values="0 0 0 0 0 0 0 0 0 0 0 0 0 0 0 0 0 0 127 0" result="hardAlpha"/>
<feOffset dy="1.42225"/>
<feGaussianBlur stdDeviation="0.54702"/>
<feColorMatrix type="matrix" values="0 0 0 0 0 0 0 0 0 0.051 0 0 0 0 0.082 0 0 0 0.7 0"/>
<feBlend mode="multiply" in2="BackgroundImageFix" result="effect1_dropShadow_474_15133"/>
<feColorMatrix in="SourceAlpha" type="matrix" values="0 0 0 0 0 0 0 0 0 0 0 0 0 0 0 0 0 0 127 0" result="hardAlpha"/>
<feOffset dy="1.30191"/>
<feGaussianBlur stdDeviation="0.84624"/>
<feColorMatrix type="matrix" values="0 0 0 0 0 0 0 0 0 0.4 0 0 0 0 1 0 0 0 1 0"/>
<feBlend mode="color-dodge" in2="effect1_dropShadow_474_15133" result="effect2_dropShadow_474_15133"/>
<feBlend mode="normal" in="SourceGraphic" in2="effect2_dropShadow_474_15133" result="shape"/>
<feColorMatrix in="SourceAlpha" type="matrix" values="0 0 0 0 0 0 0 0 0 0 0 0 0 0 0 0 0 0 127 0" result="hardAlpha"/>
<feOffset dx="-0.142225" dy="0.284451"/>
<feGaussianBlur stdDeviation="0.0711126"/>
<feComposite in2="hardAlpha" operator="arithmetic" k2="-1" k3="1"/>
<feColorMatrix type="matrix" values="0 0 0 0 1 0 0 0 0 1 0 0 0 0 1 0 0 0 0.5 0"/>
<feBlend mode="normal" in2="shape" result="effect3_innerShadow_474_15133"/>
</filter>
<filter id="filter13_f_474_15133" x="46.4511" y="4.39783" width="18.0316" height="17.2511" filterUnits="userSpaceOnUse" color-interpolation-filters="sRGB">
<feFlood flood-opacity="0" result="BackgroundImageFix"/>
<feBlend mode="normal" in="SourceGraphic" in2="BackgroundImageFix" result="shape"/>
<feGaussianBlur stdDeviation="0.109404" result="effect1_foregroundBlur_474_15133"/>
</filter>
<filter id="filter14_f_474_15133" x="46.524" y="4.47077" width="17.8857" height="17.1052" filterUnits="userSpaceOnUse" color-interpolation-filters="sRGB">
<feFlood flood-opacity="0" result="BackgroundImageFix"/>
<feBlend mode="normal" in="SourceGraphic" in2="BackgroundImageFix" result="shape"/>
<feGaussianBlur stdDeviation="0.072936" result="effect1_foregroundBlur_474_15133"/>
</filter>
<filter id="filter15_f_474_15133" x="63.9392" y="0.710914" width="25.4054" height="24.6249" filterUnits="userSpaceOnUse" color-interpolation-filters="sRGB">
<feFlood flood-opacity="0" result="BackgroundImageFix"/>
<feBlend mode="normal" in="SourceGraphic" in2="BackgroundImageFix" result="shape"/>
<feGaussianBlur stdDeviation="1.95286" result="effect1_foregroundBlur_474_15133"/>
</filter>
<filter id="filter16_f_474_15133" x="66.5431" y="3.31473" width="20.1978" height="19.4173" filterUnits="userSpaceOnUse" color-interpolation-filters="sRGB">
<feFlood flood-opacity="0" result="BackgroundImageFix"/>
<feBlend mode="normal" in="SourceGraphic" in2="BackgroundImageFix" result="shape"/>
<feGaussianBlur stdDeviation="0.650954" result="effect1_foregroundBlur_474_15133"/>
</filter>
<filter id="filter17_ddi_474_15133" x="66.1525" y="4.22607" width="20.979" height="20.1984" filterUnits="userSpaceOnUse" color-interpolation-filters="sRGB">
<feFlood flood-opacity="0" result="BackgroundImageFix"/>
<feColorMatrix in="SourceAlpha" type="matrix" values="0 0 0 0 0 0 0 0 0 0 0 0 0 0 0 0 0 0 127 0" result="hardAlpha"/>
<feOffset dy="1.42225"/>
<feGaussianBlur stdDeviation="0.54702"/>
<feColorMatrix type="matrix" values="0 0 0 0 0 0 0 0 0 0.051 0 0 0 0 0.082 0 0 0 0.7 0"/>
<feBlend mode="multiply" in2="BackgroundImageFix" result="effect1_dropShadow_474_15133"/>
<feColorMatrix in="SourceAlpha" type="matrix" values="0 0 0 0 0 0 0 0 0 0 0 0 0 0 0 0 0 0 127 0" result="hardAlpha"/>
<feOffset dy="1.30191"/>
<feGaussianBlur stdDeviation="0.84624"/>
<feColorMatrix type="matrix" values="0 0 0 0 0 0 0 0 0 0.4 0 0 0 0 1 0 0 0 1 0"/>
<feBlend mode="color-dodge" in2="effect1_dropShadow_474_15133" result="effect2_dropShadow_474_15133"/>
<feBlend mode="normal" in="SourceGraphic" in2="effect2_dropShadow_474_15133" result="shape"/>
<feColorMatrix in="SourceAlpha" type="matrix" values="0 0 0 0 0 0 0 0 0 0 0 0 0 0 0 0 0 0 127 0" result="hardAlpha"/>
<feOffset dx="-0.142225" dy="0.284451"/>
<feGaussianBlur stdDeviation="0.0711126"/>
<feComposite in2="hardAlpha" operator="arithmetic" k2="-1" k3="1"/>
<feColorMatrix type="matrix" values="0 0 0 0 1 0 0 0 0 1 0 0 0 0 1 0 0 0 0.5 0"/>
<feBlend mode="normal" in2="shape" result="effect3_innerShadow_474_15133"/>
</filter>
<filter id="filter18_f_474_15133" x="67.6262" y="4.39783" width="18.0316" height="17.2511" filterUnits="userSpaceOnUse" color-interpolation-filters="sRGB">
<feFlood flood-opacity="0" result="BackgroundImageFix"/>
<feBlend mode="normal" in="SourceGraphic" in2="BackgroundImageFix" result="shape"/>
<feGaussianBlur stdDeviation="0.109404" result="effect1_foregroundBlur_474_15133"/>
</filter>
<filter id="filter19_f_474_15133" x="67.6991" y="4.47077" width="17.8857" height="17.1052" filterUnits="userSpaceOnUse" color-interpolation-filters="sRGB">
<feFlood flood-opacity="0" result="BackgroundImageFix"/>
<feBlend mode="normal" in="SourceGraphic" in2="BackgroundImageFix" result="shape"/>
<feGaussianBlur stdDeviation="0.072936" result="effect1_foregroundBlur_474_15133"/>
</filter>
</defs>
</svg>
