<svg viewBox="0 0 48 72" fill="none" xmlns="http://www.w3.org/2000/svg">
    <g style="mix-blend-mode:hard-light" filter="url(#filter0_f_474_15154)">
        <path d="M23.8162 8.91408C23.8399 8.85502 23.8668 8.83236 23.8863 8.81994C23.912 8.8035 23.9514 8.78977 24.0001 8.78977C24.0487 8.78977 24.0882 8.8035 24.1139 8.81994C24.1333 8.83236 24.1602 8.85502 24.1839 8.91408L27.5818 17.3754C27.9786 18.3635 28.9059 19.0373 29.9683 19.1093L39.0655 19.7261C39.129 19.7304 39.1588 19.7491 39.1766 19.7637C39.2002 19.7831 39.2255 19.8163 39.2405 19.8626C39.2555 19.9089 39.2547 19.9506 39.247 19.9802C39.2412 20.0025 39.2279 20.0351 39.1791 20.0759L32.1819 25.9221C31.3648 26.6048 31.0105 27.695 31.2703 28.7277L33.4949 37.5702C33.5104 37.6319 33.5019 37.666 33.4935 37.6875C33.4824 37.7159 33.4585 37.7502 33.4192 37.7788C33.3798 37.8074 33.3398 37.8195 33.3094 37.8213C33.2864 37.8227 33.2512 37.8202 33.1973 37.7863L25.475 32.9382C24.5732 32.372 23.4269 32.372 22.5251 32.9382L14.8028 37.7863C14.7489 37.8202 14.7138 37.8227 14.6908 37.8213C14.6603 37.8195 14.6203 37.8074 14.581 37.7788C14.5416 37.7502 14.5178 37.7159 14.5066 37.6875C14.4982 37.666 14.4897 37.6319 14.5053 37.5702L16.7298 28.7277C16.9896 27.695 16.6353 26.6048 15.8182 25.9221L8.82103 20.0759C8.77219 20.0351 8.75896 20.0025 8.75315 19.9802C8.74546 19.9506 8.74458 19.9089 8.75963 19.8626C8.77467 19.8163 8.7999 19.7831 8.82349 19.7637C8.8413 19.7491 8.87117 19.7304 8.93467 19.7261L18.0318 19.1093C19.0942 19.0373 20.0216 18.3635 20.4184 17.3754L23.8162 8.91408Z" stroke="#6A11D5" stroke-width="2.57589"/>
    </g>
    <g style="mix-blend-mode:hard-light" filter="url(#filter1_f_474_15154)">
        <path d="M20.7861 17.523L24.0001 9.51964L27.214 17.523C27.6675 18.6523 28.7274 19.4224 29.9415 19.5047L38.5464 20.0881L31.9278 25.618C30.994 26.3982 30.5891 27.6442 30.886 28.8243L32.9902 37.1883L25.6858 32.6026C24.6551 31.9555 23.345 31.9555 22.3144 32.6026L15.01 37.1883L17.1141 28.8243C17.411 27.6442 17.0062 26.3982 16.0723 25.618L9.45377 20.0881L18.0586 19.5047C19.2728 19.4224 20.3326 18.6523 20.7861 17.523ZM14.5921 37.4507C14.5922 37.4506 14.5923 37.4506 14.5924 37.4505L14.5921 37.4507Z" stroke="#7936C9" stroke-width="3.36847"/>
    </g>
    <g style="mix-blend-mode:hard-light" filter="url(#filter2_ddi_474_15154)">
        <path d="M23.8162 8.91408C23.8399 8.85502 23.8668 8.83236 23.8863 8.81994C23.912 8.8035 23.9514 8.78977 24.0001 8.78977C24.0487 8.78977 24.0882 8.8035 24.1139 8.81994C24.1333 8.83236 24.1602 8.85502 24.1839 8.91408L27.5818 17.3754C27.9786 18.3635 28.9059 19.0373 29.9683 19.1093L39.0655 19.7261C39.129 19.7304 39.1588 19.7491 39.1766 19.7637C39.2002 19.7831 39.2255 19.8163 39.2405 19.8626C39.2555 19.9089 39.2547 19.9506 39.247 19.9802C39.2412 20.0025 39.2279 20.0351 39.1791 20.0759L32.1819 25.9221C31.3648 26.6048 31.0105 27.695 31.2703 28.7277L33.4949 37.5702C33.5104 37.6319 33.5019 37.666 33.4935 37.6875C33.4824 37.7159 33.4585 37.7502 33.4192 37.7788C33.3798 37.8074 33.3398 37.8195 33.3094 37.8213C33.2864 37.8227 33.2512 37.8202 33.1973 37.7863L25.475 32.9382C24.5732 32.372 23.4269 32.372 22.5251 32.9382L14.8028 37.7863C14.7489 37.8202 14.7138 37.8227 14.6908 37.8213C14.6603 37.8195 14.6203 37.8074 14.581 37.7788C14.5416 37.7502 14.5178 37.7159 14.5066 37.6875C14.4982 37.666 14.4897 37.6319 14.5053 37.5702L16.7298 28.7277C16.9896 27.695 16.6353 26.6048 15.8182 25.9221L8.82103 20.0759C8.77219 20.0351 8.75896 20.0025 8.75315 19.9802C8.74546 19.9506 8.74458 19.9089 8.75963 19.8626C8.77467 19.8163 8.7999 19.7831 8.82349 19.7637C8.8413 19.7491 8.87117 19.7304 8.93467 19.7261L18.0318 19.1093C19.0942 19.0373 20.0216 18.3635 20.4184 17.3754L23.8162 8.91408Z" stroke="#8620FF" stroke-opacity="0.2" stroke-width="2.57589"/>
    </g>
    <g filter="url(#filter3_f_474_15154)">
        <path d="M23.3565 8.72948C23.5895 8.14938 24.4107 8.14939 24.6436 8.72948L28.0414 17.1908C28.3674 18.0024 29.1292 18.5559 30.0018 18.6151L39.099 19.2319C39.7227 19.2742 39.9764 20.0552 39.4967 20.456L32.4995 26.3022C31.8283 26.863 31.5373 27.7586 31.7507 28.6068L33.9753 37.4493C34.1278 38.0555 33.4634 38.5382 32.934 38.2059L25.2117 33.3577C24.4709 32.8926 23.5293 32.8926 22.7885 33.3577L15.0662 38.2059C14.5367 38.5382 13.8724 38.0555 14.0249 37.4493L16.2494 28.6068C16.4628 27.7586 16.1718 26.863 15.5006 26.3022L8.50342 20.456C8.0237 20.0552 8.27747 19.2742 8.90116 19.2319L17.9983 18.6151C18.871 18.5559 19.6327 18.0024 19.9587 17.1908L23.3565 8.72948Z" stroke="#8620FF" stroke-opacity="0.2" stroke-width="1.58516"/>
    </g>
    <g filter="url(#filter4_f_474_15154)">
        <path d="M22.9888 8.58181C23.3548 7.67022 24.6453 7.67022 25.0114 8.5818L28.4092 17.0431C28.6784 17.7136 29.3077 18.1708 30.0286 18.2197L39.1258 18.8365C40.1059 18.903 40.5046 20.1303 39.7508 20.7601L32.7536 26.6063C32.1991 27.0696 31.9588 27.8094 32.135 28.5101L34.3596 37.3526C34.5992 38.3053 33.5552 39.0638 32.7232 38.5415L25.0009 33.6933C24.389 33.3092 23.6111 33.3092 22.9992 33.6933L15.2769 38.5415C14.4449 39.0638 13.4009 38.3053 13.6406 37.3526L15.8651 28.5101C16.0414 27.8094 15.801 27.0696 15.2465 26.6063L8.24933 20.7601C7.49548 20.1303 7.89426 18.903 8.87435 18.8365L17.9715 18.2197C18.6924 18.1708 19.3217 17.7136 19.5909 17.0431L22.9888 8.58181Z" stroke="white" stroke-width="0.792581"/>
    </g>
    <path d="M6.61716 58.717C6.1405 58.717 5.66383 58.6474 5.18716 58.508C4.7105 58.3614 4.2815 58.134 3.90016 57.826C3.51883 57.5107 3.20716 57.1074 2.96516 56.616C2.7305 56.1247 2.61316 55.527 2.61316 54.823C2.61316 54.163 2.72316 53.5837 2.94316 53.085C3.16316 52.5864 3.46383 52.172 3.84516 51.842C4.23383 51.5047 4.6885 51.2554 5.20916 51.094C5.72983 50.9254 6.2945 50.841 6.90316 50.841C7.21116 50.841 7.49716 50.863 7.76116 50.907C8.0325 50.9437 8.31483 51.0097 8.60816 51.105V52.447C8.38083 52.359 8.13883 52.2857 7.88216 52.227C7.63283 52.1684 7.34316 52.139 7.01316 52.139C6.5805 52.139 6.19183 52.205 5.84716 52.337C5.50983 52.4617 5.22383 52.6414 4.98916 52.876C4.7545 53.1107 4.57483 53.393 4.45016 53.723C4.3255 54.0457 4.26316 54.405 4.26316 54.801C4.26316 55.263 4.3365 55.6627 4.48316 56C4.62983 56.33 4.82416 56.6014 5.06616 56.814C5.30816 57.0194 5.58683 57.1734 5.90216 57.276C6.22483 57.3714 6.5585 57.419 6.90316 57.419C7.29916 57.419 7.63283 57.3787 7.90416 57.298C8.18283 57.21 8.4175 57.122 8.60816 57.034V58.387C8.2635 58.5044 7.9225 58.5887 7.58516 58.64C7.24783 58.6914 6.92516 58.717 6.61716 58.717ZM14.2169 52.931V54.031H12.4349V58.629H10.9389V54.031H9.15688V52.931H14.2169ZM14.9586 53.217C15.3033 53.0777 15.6406 52.9824 15.9706 52.931C16.3006 52.8724 16.6599 52.843 17.0486 52.843C17.6279 52.843 18.0826 52.9164 18.4126 53.063C18.7499 53.2097 19.0029 53.393 19.1716 53.613C19.3403 53.833 19.4466 54.0714 19.4906 54.328C19.5419 54.5847 19.5676 54.8194 19.5676 55.032V58.629H18.1046V57.793H18.0826C18.0533 57.8517 18.0019 57.936 17.9286 58.046C17.8553 58.1487 17.7489 58.2514 17.6096 58.354C17.4703 58.4494 17.2943 58.5337 17.0816 58.607C16.8689 58.6804 16.6086 58.717 16.3006 58.717C15.9413 58.717 15.6333 58.6694 15.3766 58.574C15.1199 58.4714 14.9109 58.3394 14.7496 58.178C14.5883 58.0167 14.4673 57.8334 14.3866 57.628C14.3133 57.4154 14.2766 57.199 14.2766 56.979C14.2766 56.781 14.3096 56.572 14.3756 56.352C14.4416 56.132 14.5773 55.9304 14.7826 55.747C14.9879 55.5564 15.2739 55.4024 15.6406 55.285C16.0073 55.1604 16.4949 55.098 17.1036 55.098C17.2429 55.098 17.3823 55.1017 17.5216 55.109C17.6609 55.109 17.8003 55.109 17.9396 55.109H18.0716V54.867C18.0716 54.713 18.0349 54.5737 17.9616 54.449C17.8956 54.3244 17.8039 54.2217 17.6866 54.141C17.5693 54.0604 17.4299 53.998 17.2686 53.954C17.1146 53.91 16.9533 53.888 16.7846 53.888C16.5353 53.888 16.2639 53.921 15.9706 53.987C15.6773 54.0457 15.3399 54.1814 14.9586 54.394V53.217ZM17.8186 56.044C17.6133 56.044 17.3896 56.0514 17.1476 56.066C16.9129 56.0734 16.6929 56.1064 16.4876 56.165C16.2896 56.2237 16.1246 56.3154 15.9926 56.44C15.8606 56.5647 15.7946 56.7407 15.7946 56.968C15.7946 57.1734 15.8643 57.3494 16.0036 57.496C16.1429 57.6354 16.3776 57.705 16.7076 57.705C16.8616 57.705 17.0193 57.683 17.1806 57.639C17.3419 57.595 17.4886 57.518 17.6206 57.408C17.7526 57.298 17.8589 57.144 17.9396 56.946C18.0276 56.748 18.0716 56.495 18.0716 56.187V56.044H17.8186ZM25.2499 52.931V55.472H25.3049L27.0099 52.931H28.7149L26.7019 55.538L28.9019 58.629H27.0099L25.3049 55.868H25.2499V58.629H23.7539V55.868H23.6989L21.9939 58.629H20.1019L22.3019 55.538L20.2889 52.931H21.9939L23.6989 55.472H23.7539V52.931H25.2499ZM30.5124 56.231C30.5198 56.4144 30.5601 56.5904 30.6334 56.759C30.7068 56.9277 30.8131 57.078 30.9524 57.21C31.0918 57.342 31.2641 57.4484 31.4694 57.529C31.6821 57.6024 31.9278 57.639 32.2064 57.639C32.5364 57.639 32.8481 57.606 33.1414 57.54C33.4348 57.4667 33.7171 57.3677 33.9884 57.243V58.365C33.6951 58.475 33.3798 58.563 33.0424 58.629C32.7051 58.6877 32.3641 58.717 32.0194 58.717C31.5941 58.717 31.1944 58.6584 30.8204 58.541C30.4464 58.4237 30.1201 58.244 29.8414 58.002C29.5701 57.76 29.3538 57.4557 29.1924 57.089C29.0311 56.7224 28.9504 56.286 28.9504 55.78C28.9504 55.318 29.0238 54.9074 29.1704 54.548C29.3244 54.1814 29.5298 53.8734 29.7864 53.624C30.0431 53.3674 30.3401 53.173 30.6774 53.041C31.0221 52.909 31.3851 52.843 31.7664 52.843C32.1991 52.843 32.5621 52.909 32.8554 53.041C33.1561 53.1657 33.4018 53.327 33.5924 53.525C33.7904 53.723 33.9408 53.943 34.0434 54.185C34.1534 54.4197 34.2341 54.6507 34.2854 54.878C34.3368 55.1054 34.3661 55.3107 34.3734 55.494C34.3881 55.6774 34.3954 55.8094 34.3954 55.89V56.231H30.5124ZM32.8554 55.208C32.8628 54.966 32.8298 54.7607 32.7564 54.592C32.6904 54.4234 32.5988 54.2877 32.4814 54.185C32.3641 54.075 32.2358 53.998 32.0964 53.954C31.9571 53.9027 31.8178 53.877 31.6784 53.877C31.5098 53.877 31.3558 53.9137 31.2164 53.987C31.0771 54.053 30.9561 54.1447 30.8534 54.262C30.7508 54.3794 30.6664 54.5224 30.6004 54.691C30.5418 54.8524 30.5124 55.0247 30.5124 55.208H32.8554ZM35.5002 60.983V52.931H36.8092V53.921H36.8312C36.9778 53.6644 37.1428 53.4627 37.3262 53.316C37.5168 53.1694 37.7038 53.063 37.8872 52.997C38.0705 52.9237 38.2355 52.8797 38.3822 52.865C38.5288 52.8504 38.6315 52.843 38.6902 52.843C39.0128 52.843 39.3172 52.898 39.6032 53.008C39.8965 53.1107 40.1532 53.283 40.3732 53.525C40.5932 53.7597 40.7655 54.064 40.8902 54.438C41.0222 54.8047 41.0882 55.252 41.0882 55.78C41.0882 56.308 41.0185 56.759 40.8792 57.133C40.7398 57.4997 40.5528 57.8004 40.3182 58.035C40.0908 58.2697 39.8268 58.442 39.5262 58.552C39.2328 58.662 38.9322 58.717 38.6242 58.717C38.2062 58.717 37.8652 58.6327 37.6012 58.464C37.3445 58.2954 37.1392 58.0937 36.9852 57.859H36.9632L36.9962 58.794V60.983H35.5002ZM36.9962 55.78C36.9962 56.0807 37.0328 56.341 37.1062 56.561C37.1795 56.781 37.2748 56.9644 37.3922 57.111C37.5168 57.2504 37.6525 57.3567 37.7992 57.43C37.9532 57.496 38.1072 57.529 38.2612 57.529C38.4152 57.529 38.5655 57.496 38.7122 57.43C38.8662 57.3567 39.0018 57.2504 39.1192 57.111C39.2438 56.9644 39.3428 56.781 39.4162 56.561C39.4895 56.341 39.5262 56.0807 39.5262 55.78C39.5262 55.4794 39.4895 55.219 39.4162 54.999C39.3428 54.779 39.2438 54.5994 39.1192 54.46C39.0018 54.3134 38.8662 54.207 38.7122 54.141C38.5655 54.0677 38.4152 54.031 38.2612 54.031C38.1072 54.031 37.9532 54.0677 37.7992 54.141C37.6525 54.207 37.5168 54.3134 37.3922 54.46C37.2748 54.5994 37.1795 54.779 37.1062 54.999C37.0328 55.219 36.9962 55.4794 36.9962 55.78ZM42.1375 54.669H45.2175V55.989H42.1375V54.669ZM8.84002 66.219C8.88402 65.8377 8.99036 65.5004 9.15902 65.207C9.32769 64.9064 9.54402 64.657 9.80802 64.459C10.072 64.2537 10.369 64.0997 10.699 63.997C11.0364 63.8944 11.3884 63.843 11.755 63.843C12.1804 63.843 12.5727 63.909 12.932 64.041C13.2914 64.1657 13.5994 64.3527 13.856 64.602C14.12 64.8514 14.3254 65.1594 14.472 65.526C14.6187 65.8927 14.692 66.3107 14.692 66.78C14.692 67.2494 14.6187 67.6674 14.472 68.034C14.3254 68.4007 14.12 68.7087 13.856 68.958C13.5994 69.2074 13.2914 69.398 12.932 69.53C12.5727 69.6547 12.1804 69.717 11.755 69.717C11.3444 69.717 10.9667 69.6584 10.622 69.541C10.2847 69.4164 9.98769 69.2477 9.73102 69.035C9.47436 68.815 9.26902 68.5547 9.11502 68.254C8.96102 67.9534 8.86936 67.6197 8.84002 67.253H7.96002V69.629H6.46402V63.931H7.96002V66.219H8.84002ZM10.369 66.78C10.369 67.11 10.4094 67.3924 10.49 67.627C10.5707 67.8617 10.677 68.056 10.809 68.21C10.941 68.3567 11.0877 68.4667 11.249 68.54C11.4177 68.606 11.5864 68.639 11.755 68.639C12.173 68.639 12.5067 68.4704 12.756 68.133C13.0054 67.7957 13.13 67.3447 13.13 66.78C13.13 66.2154 13.0054 65.7644 12.756 65.427C12.5067 65.0897 12.173 64.921 11.755 64.921C11.5864 64.921 11.4177 64.9577 11.249 65.031C11.0877 65.097 10.941 65.207 10.809 65.361C10.677 65.5077 10.5707 65.6984 10.49 65.933C10.4094 66.1677 10.369 66.45 10.369 66.78ZM17.2842 63.931V66.087H19.6822V63.931H21.1782V69.629H19.6822V67.187H17.2842V69.629H15.7882V63.931H17.2842ZM24.1055 63.931V66.923L24.0615 67.946H24.0835L26.5365 63.931H28.2085V69.629H26.7125V66.681L26.7565 65.614H26.7235L24.2045 69.629H22.6095V63.931H24.1055ZM29.3049 66.78C29.3049 66.3034 29.3783 65.8817 29.5249 65.515C29.6716 65.1484 29.8733 64.844 30.1299 64.602C30.3939 64.3527 30.7056 64.1657 31.0649 64.041C31.4243 63.909 31.8166 63.843 32.2419 63.843C32.6673 63.843 33.0596 63.909 33.4189 64.041C33.7783 64.1657 34.0863 64.3527 34.3429 64.602C34.6069 64.844 34.8123 65.1484 34.9589 65.515C35.1056 65.8817 35.1789 66.3034 35.1789 66.78C35.1789 67.2567 35.1056 67.6784 34.9589 68.045C34.8123 68.4117 34.6069 68.7197 34.3429 68.969C34.0863 69.211 33.7783 69.398 33.4189 69.53C33.0596 69.6547 32.6673 69.717 32.2419 69.717C31.8166 69.717 31.4243 69.6547 31.0649 69.53C30.7056 69.398 30.3939 69.211 30.1299 68.969C29.8733 68.7197 29.6716 68.4117 29.5249 68.045C29.3783 67.6784 29.3049 67.2567 29.3049 66.78ZM30.8669 66.78C30.8669 67.11 30.9073 67.3924 30.9879 67.627C31.0686 67.8617 31.1749 68.056 31.3069 68.21C31.4389 68.3567 31.5856 68.4667 31.7469 68.54C31.9083 68.606 32.0733 68.639 32.2419 68.639C32.4033 68.639 32.5646 68.606 32.7259 68.54C32.8946 68.4667 33.0449 68.3567 33.1769 68.21C33.3089 68.056 33.4153 67.8617 33.4959 67.627C33.5766 67.3924 33.6169 67.11 33.6169 66.78C33.6169 66.45 33.5766 66.1677 33.4959 65.933C33.4153 65.6984 33.3089 65.5077 33.1769 65.361C33.0449 65.207 32.8946 65.097 32.7259 65.031C32.5646 64.9577 32.4033 64.921 32.2419 64.921C32.0733 64.921 31.9083 64.9577 31.7469 65.031C31.5856 65.097 31.4389 65.207 31.3069 65.361C31.1749 65.5077 31.0686 65.6984 30.9879 65.933C30.9073 66.1677 30.8669 66.45 30.8669 66.78ZM36.2736 71.983V63.931H37.5826V64.921H37.6046C37.7513 64.6644 37.9163 64.4627 38.0996 64.316C38.2903 64.1694 38.4773 64.063 38.6606 63.997C38.8439 63.9237 39.0089 63.8797 39.1556 63.865C39.3023 63.8504 39.4049 63.843 39.4636 63.843C39.7863 63.843 40.0906 63.898 40.3766 64.008C40.6699 64.1107 40.9266 64.283 41.1466 64.525C41.3666 64.7597 41.5389 65.064 41.6636 65.438C41.7956 65.8047 41.8616 66.252 41.8616 66.78C41.8616 67.308 41.7919 67.759 41.6526 68.133C41.5133 68.4997 41.3263 68.8004 41.0916 69.035C40.8643 69.2697 40.6003 69.442 40.2996 69.552C40.0063 69.662 39.7056 69.717 39.3976 69.717C38.9796 69.717 38.6386 69.6327 38.3746 69.464C38.1179 69.2954 37.9126 69.0937 37.7586 68.859H37.7366L37.7696 69.794V71.983H36.2736ZM37.7696 66.78C37.7696 67.0807 37.8063 67.341 37.8796 67.561C37.9529 67.781 38.0483 67.9644 38.1656 68.111C38.2903 68.2504 38.4259 68.3567 38.5726 68.43C38.7266 68.496 38.8806 68.529 39.0346 68.529C39.1886 68.529 39.3389 68.496 39.4856 68.43C39.6396 68.3567 39.7753 68.2504 39.8926 68.111C40.0173 67.9644 40.1163 67.781 40.1896 67.561C40.2629 67.341 40.2996 67.0807 40.2996 66.78C40.2996 66.4794 40.2629 66.219 40.1896 65.999C40.1163 65.779 40.0173 65.5994 39.8926 65.46C39.7753 65.3134 39.6396 65.207 39.4856 65.141C39.3389 65.0677 39.1886 65.031 39.0346 65.031C38.8806 65.031 38.7266 65.0677 38.5726 65.141C38.4259 65.207 38.2903 65.3134 38.1656 65.46C38.0483 65.5994 37.9529 65.779 37.8796 65.999C37.8063 66.219 37.7696 66.4794 37.7696 66.78Z" fill="#8620FF"/>
    <defs>
        <filter id="filter0_f_474_15154" x="0.386178" y="0.428046" width="47.2281" height="45.7552" filterUnits="userSpaceOnUse" color-interpolation-filters="sRGB">
            <feFlood flood-opacity="0" result="BackgroundImageFix"/>
            <feBlend mode="normal" in="SourceGraphic" in2="BackgroundImageFix" result="shape"/>
            <feGaussianBlur stdDeviation="3.53689" result="effect1_foregroundBlur_474_15154"/>
        </filter>
        <filter id="filter1_f_474_15154" x="5.10203" y="5.1439" width="37.7964" height="36.3235" filterUnits="userSpaceOnUse" color-interpolation-filters="sRGB">
            <feFlood flood-opacity="0" result="BackgroundImageFix"/>
            <feBlend mode="normal" in="SourceGraphic" in2="BackgroundImageFix" result="shape"/>
            <feGaussianBlur stdDeviation="1.17896" result="effect1_foregroundBlur_474_15154"/>
        </filter>
        <filter id="filter2_ddi_474_15154" x="4.39465" y="6.79445" width="39.2112" height="37.7383" filterUnits="userSpaceOnUse" color-interpolation-filters="sRGB">
            <feFlood flood-opacity="0" result="BackgroundImageFix"/>
            <feColorMatrix in="SourceAlpha" type="matrix" values="0 0 0 0 0 0 0 0 0 0 0 0 0 0 0 0 0 0 127 0" result="hardAlpha"/>
            <feOffset dy="2.57589"/>
            <feGaussianBlur stdDeviation="0.990726"/>
            <feColorMatrix type="matrix" values="0 0 0 0 0 0 0 0 0 0.051 0 0 0 0 0.082 0 0 0 0.5 0"/>
            <feBlend mode="multiply" in2="BackgroundImageFix" result="effect1_dropShadow_474_15154"/>
            <feColorMatrix in="SourceAlpha" type="matrix" values="0 0 0 0 0 0 0 0 0 0 0 0 0 0 0 0 0 0 127 0" result="hardAlpha"/>
            <feOffset dy="2.35793"/>
            <feGaussianBlur stdDeviation="1.53265"/>
            <feColorMatrix type="matrix" values="0 0 0 0 0.702449 0 0 0 0 0.458646 0 0 0 0 0.991667 0 0 0 0.6 0"/>
            <feBlend mode="color-dodge" in2="effect1_dropShadow_474_15154" result="effect2_dropShadow_474_15154"/>
            <feBlend mode="normal" in="SourceGraphic" in2="effect2_dropShadow_474_15154" result="shape"/>
            <feColorMatrix in="SourceAlpha" type="matrix" values="0 0 0 0 0 0 0 0 0 0 0 0 0 0 0 0 0 0 127 0" result="hardAlpha"/>
            <feOffset dx="-0.257589" dy="0.515177"/>
            <feGaussianBlur stdDeviation="0.128794"/>
            <feComposite in2="hardAlpha" operator="arithmetic" k2="-1" k3="1"/>
            <feColorMatrix type="matrix" values="0 0 0 0 1 0 0 0 0 1 0 0 0 0 1 0 0 0 0.5 0"/>
            <feBlend mode="normal" in2="shape" result="effect3_innerShadow_474_15154"/>
        </filter>
        <filter id="filter3_f_474_15154" x="7.06367" y="7.10554" width="33.8731" height="32.4003" filterUnits="userSpaceOnUse" color-interpolation-filters="sRGB">
            <feFlood flood-opacity="0" result="BackgroundImageFix"/>
            <feBlend mode="normal" in="SourceGraphic" in2="BackgroundImageFix" result="shape"/>
            <feGaussianBlur stdDeviation="0.198145" result="effect1_foregroundBlur_474_15154"/>
        </filter>
        <filter id="filter4_f_474_15154" x="7.19577" y="7.23763" width="33.609" height="32.1361" filterUnits="userSpaceOnUse" color-interpolation-filters="sRGB">
            <feFlood flood-opacity="0" result="BackgroundImageFix"/>
            <feBlend mode="normal" in="SourceGraphic" in2="BackgroundImageFix" result="shape"/>
            <feGaussianBlur stdDeviation="0.132097" result="effect1_foregroundBlur_474_15154"/>
        </filter>
    </defs>
</svg>
