<svg viewBox="0 0 71 70" fill="none" xmlns="http://www.w3.org/2000/svg">
<g style="mix-blend-mode:hard-light" filter="url(#filter0_f_474_15980)">
<path d="M35.0228 13.1077C35.1993 12.6833 35.8005 12.6833 35.977 13.1077L41.3361 25.9924L42.8195 25.3754L41.3361 25.9924C41.8732 27.2839 43.0878 28.1663 44.482 28.2781L58.3921 29.3932C58.8503 29.43 59.0361 30.0017 58.687 30.3008L48.089 39.3791C47.0267 40.2891 46.5628 41.7168 46.8873 43.0774L50.1252 56.6513C50.2319 57.0984 49.7455 57.4517 49.3532 57.2122L37.4442 49.9382C36.2506 49.2091 34.7493 49.2091 33.5556 49.9382L21.6466 57.2122C21.2544 57.4517 20.768 57.0984 20.8747 56.6513L24.1125 43.0774C24.4371 41.7168 23.9732 40.2891 22.9109 39.3791L12.3129 30.3008C11.9638 30.0017 12.1496 29.43 12.6077 29.3932L26.5178 28.2781C27.9121 28.1663 29.1266 27.2839 29.6638 25.9924L35.0228 13.1077Z" stroke="#0094FF" stroke-width="3.21331"/>
</g>
<g style="mix-blend-mode:hard-light" filter="url(#filter1_f_474_15980)">
<path d="M35.4793 13.2976C35.4814 13.2924 35.4834 13.2882 35.485 13.285C35.4891 13.2843 35.4942 13.2838 35.4999 13.2838C35.5057 13.2838 35.5108 13.2843 35.5149 13.285C35.5165 13.2882 35.5184 13.2924 35.5206 13.2976L40.8796 26.1823L42.8195 25.3754L40.8796 26.1823C41.488 27.6449 42.8635 28.6443 44.4425 28.7708L58.3526 29.886C58.3582 29.8865 58.3628 29.887 58.3663 29.8876C58.3683 29.8913 58.3703 29.8959 58.3721 29.9014C58.3739 29.9069 58.375 29.9119 58.3756 29.916C58.373 29.9185 58.3697 29.9217 58.3654 29.9253L47.7674 39.0037C46.5643 40.0342 46.0389 41.6512 46.4065 43.1921L49.6443 56.766C49.6456 56.7715 49.6465 56.7759 49.6471 56.7795C49.6442 56.7825 49.6404 56.7859 49.6357 56.7893C49.6311 56.7927 49.6267 56.7952 49.6229 56.7971C49.6222 56.7967 49.6213 56.7963 49.6205 56.7958C49.6177 56.7943 49.6146 56.7925 49.6109 56.7903L37.7019 49.5163C36.35 48.6906 34.6498 48.6906 33.2979 49.5163L21.389 56.7903C21.3842 56.7932 21.3802 56.7954 21.377 56.7971C21.3732 56.7952 21.3688 56.7927 21.3641 56.7893C21.3604 56.7866 21.3572 56.7838 21.3546 56.7813C21.3539 56.7807 21.3533 56.7801 21.3528 56.7795C21.3533 56.776 21.3542 56.7715 21.3555 56.766L24.5934 43.1921C24.9609 41.6512 24.4356 40.0342 23.2325 39.0037L12.6345 29.9253C12.6302 29.9217 12.6268 29.9185 12.6243 29.916C12.6249 29.9119 12.626 29.9069 12.6277 29.9014C12.6295 29.8959 12.6316 29.8913 12.6335 29.8876C12.6371 29.887 12.6416 29.8865 12.6472 29.886L26.5573 28.7708C28.1364 28.6443 29.5119 27.6449 30.1202 26.1823L35.4793 13.2976Z" stroke="#0094FF" stroke-width="4.20201"/>
</g>
<g style="mix-blend-mode:hard-light" filter="url(#filter2_ddi_474_15980)">
<path d="M35.0228 13.1077C35.1993 12.6833 35.8005 12.6833 35.977 13.1077L41.3361 25.9924L42.8195 25.3754L41.3361 25.9924C41.8732 27.2839 43.0878 28.1663 44.482 28.2781L58.3921 29.3932C58.8503 29.43 59.0361 30.0017 58.687 30.3008L48.089 39.3791C47.0267 40.2891 46.5628 41.7168 46.8873 43.0774L50.1252 56.6513C50.2319 57.0984 49.7455 57.4517 49.3532 57.2122L37.4442 49.9382C36.2506 49.2091 34.7493 49.2091 33.5556 49.9382L21.6466 57.2122C21.2544 57.4517 20.768 57.0984 20.8747 56.6513L24.1125 43.0774C24.4371 41.7168 23.9732 40.2891 22.9109 39.3791L12.3129 30.3008C11.9638 30.0017 12.1496 29.43 12.6077 29.3932L26.5178 28.2781C27.9121 28.1663 29.1266 27.2839 29.6638 25.9924L35.0228 13.1077Z" stroke="#00B3FF" stroke-opacity="0.2" stroke-width="3.21331"/>
</g>
<g filter="url(#filter3_f_474_15980)">
<path d="M34.4523 12.8704C34.8399 11.9385 36.16 11.9385 36.5476 12.8704L41.9066 25.7551C42.3548 26.8326 43.3681 27.5688 44.5314 27.6621L58.4415 28.7773C59.4476 28.8579 59.8555 30.1135 59.089 30.7701L48.491 39.8484C47.6047 40.6076 47.2176 41.7988 47.4884 42.934L50.7263 56.5079C50.9605 57.4897 49.8925 58.2656 49.0311 57.7395L37.1221 50.4655C36.1262 49.8572 34.8737 49.8572 33.8777 50.4655L21.9688 57.7395C21.1074 58.2656 20.0394 57.4897 20.2736 56.5079L23.5115 42.934C23.7822 41.7988 23.3952 40.6076 22.5089 39.8484L11.9109 30.7701C11.1443 30.1135 11.5523 28.8579 12.5583 28.7773L26.4685 27.6621C27.6317 27.5688 28.6451 26.8326 29.0932 25.7551L34.4523 12.8704Z" stroke="#82D9FF" stroke-width="1.97742"/>
</g>
<g filter="url(#filter4_f_474_15980)">
<path d="M33.9958 12.6806C34.5523 11.3427 36.4476 11.3427 37.0041 12.6806L42.3631 25.5653C42.7401 26.4716 43.5924 27.0909 44.5709 27.1693L58.481 28.2845C59.9254 28.4003 60.5111 30.2028 59.4106 31.1455L48.8126 40.2238C48.0671 40.8624 47.7415 41.8645 47.9693 42.8193L51.2072 56.3932C51.5434 57.8027 50.01 58.9167 48.7734 58.1614L36.8644 50.8874C36.0267 50.3758 34.9731 50.3758 34.1354 50.8874L22.2264 58.1614C20.9898 58.9167 19.4565 57.8027 19.7927 56.3932L23.0306 42.8193C23.2584 41.8645 22.9328 40.8624 22.1873 40.2238L11.5892 31.1455C10.4888 30.2028 11.0745 28.4003 12.5188 28.2845L26.4289 27.1693C27.4074 27.0909 28.2598 26.4716 28.6368 25.5653L33.9958 12.6806Z" stroke="white" stroke-width="0.988709"/>
</g>
<defs>
<filter id="filter0_f_474_15980" x="0.14126" y="0.801325" width="70.7175" height="68.4813" filterUnits="userSpaceOnUse" color-interpolation-filters="sRGB">
<feFlood flood-opacity="0" result="BackgroundImageFix"/>
<feBlend mode="normal" in="SourceGraphic" in2="BackgroundImageFix" result="shape"/>
<feGaussianBlur stdDeviation="5.19072" result="effect1_foregroundBlur_474_15980"/>
</filter>
<filter id="filter1_f_474_15980" x="7.06222" y="7.72229" width="56.8756" height="54.6393" filterUnits="userSpaceOnUse" color-interpolation-filters="sRGB">
<feFlood flood-opacity="0" result="BackgroundImageFix"/>
<feBlend mode="normal" in="SourceGraphic" in2="BackgroundImageFix" result="shape"/>
<feGaussianBlur stdDeviation="1.73024" result="effect1_foregroundBlur_474_15980"/>
</filter>
<filter id="filter2_ddi_474_15980" x="6.02408" y="10.1446" width="58.9518" height="56.7156" filterUnits="userSpaceOnUse" color-interpolation-filters="sRGB">
<feFlood flood-opacity="0" result="BackgroundImageFix"/>
<feColorMatrix in="SourceAlpha" type="matrix" values="0 0 0 0 0 0 0 0 0 0 0 0 0 0 0 0 0 0 127 0" result="hardAlpha"/>
<feOffset dy="3.21331"/>
<feGaussianBlur stdDeviation="1.23589"/>
<feColorMatrix type="matrix" values="0 0 0 0 0 0 0 0 0 0.051 0 0 0 0 0.082 0 0 0 0.7 0"/>
<feBlend mode="multiply" in2="BackgroundImageFix" result="effect1_dropShadow_474_15980"/>
<feColorMatrix in="SourceAlpha" type="matrix" values="0 0 0 0 0 0 0 0 0 0 0 0 0 0 0 0 0 0 127 0" result="hardAlpha"/>
<feOffset dy="3.46048"/>
<feGaussianBlur stdDeviation="2.24931"/>
<feColorMatrix type="matrix" values="0 0 0 0 0 0 0 0 0 0.4 0 0 0 0 1 0 0 0 1 0"/>
<feBlend mode="color-dodge" in2="effect1_dropShadow_474_15980" result="effect2_dropShadow_474_15980"/>
<feBlend mode="normal" in="SourceGraphic" in2="effect2_dropShadow_474_15980" result="shape"/>
<feColorMatrix in="SourceAlpha" type="matrix" values="0 0 0 0 0 0 0 0 0 0 0 0 0 0 0 0 0 0 127 0" result="hardAlpha"/>
<feOffset dx="-0.321331" dy="0.642661"/>
<feGaussianBlur stdDeviation="0.160665"/>
<feComposite in2="hardAlpha" operator="arithmetic" k2="-1" k3="1"/>
<feColorMatrix type="matrix" values="0 0 0 0 1 0 0 0 0 1 0 0 0 0 1 0 0 0 0.5 0"/>
<feBlend mode="normal" in2="shape" result="effect3_innerShadow_474_15980"/>
</filter>
<filter id="filter3_f_474_15980" x="10.0284" y="10.6884" width="50.9433" height="48.7071" filterUnits="userSpaceOnUse" color-interpolation-filters="sRGB">
<feFlood flood-opacity="0" result="BackgroundImageFix"/>
<feBlend mode="normal" in="SourceGraphic" in2="BackgroundImageFix" result="shape"/>
<feGaussianBlur stdDeviation="0.247177" result="effect1_foregroundBlur_474_15980"/>
</filter>
<filter id="filter4_f_474_15980" x="10.1931" y="10.8532" width="50.6137" height="48.3775" filterUnits="userSpaceOnUse" color-interpolation-filters="sRGB">
<feFlood flood-opacity="0" result="BackgroundImageFix"/>
<feBlend mode="normal" in="SourceGraphic" in2="BackgroundImageFix" result="shape"/>
<feGaussianBlur stdDeviation="0.164785" result="effect1_foregroundBlur_474_15980"/>
</filter>
</defs>
</svg>
