<svg viewBox="0 0 180 52" fill="none" xmlns="http://www.w3.org/2000/svg">
<g style="mix-blend-mode:hard-light" filter="url(#filter0_f_474_15991)">
<path d="M19.2207 14.1398H22.1238V11.2367H19.2207V14.1398ZM19.2207 23.7446H16.3176V26.6477H19.2207V23.7446ZM28.8937 23.7446V26.6477H31.7968V23.7446H28.8937ZM28.8937 14.1398V11.2367H25.9906V14.1398H28.8937ZM33.7302 14.1398H36.6333V11.2367H33.7302V14.1398ZM33.7302 37.9817V40.8847H36.6333V37.9817H33.7302ZM28.8937 37.9817H25.9906V40.8847H28.8937V37.9817ZM28.8937 27.6615H31.7968V24.7585H28.8937V27.6615ZM19.2207 27.6615V24.7585H16.3176V27.6615H19.2207ZM19.2207 37.9817V40.8847H22.1238V37.9817H19.2207ZM14.3842 37.9817H11.4811V40.8847H14.3842V37.9817ZM14.3842 14.1398V11.2367H11.4811V14.1398H14.3842ZM16.3176 14.1398V23.7446H22.1238V14.1398H16.3176ZM19.2207 26.6477H28.8937V20.8416H19.2207V26.6477ZM31.7968 23.7446V14.1398H25.9906V23.7446H31.7968ZM28.8937 17.0428H33.7302V11.2367H28.8937V17.0428ZM30.8271 14.1398V37.9817H36.6333V14.1398H30.8271ZM33.7302 35.0786H28.8937V40.8847H33.7302V35.0786ZM31.7968 37.9817V27.6615H25.9906V37.9817H31.7968ZM28.8937 24.7585H19.2207V30.5646H28.8937V24.7585ZM16.3176 27.6615V37.9817H22.1238V27.6615H16.3176ZM19.2207 35.0786H14.3842V40.8847H19.2207V35.0786ZM17.2873 37.9817V14.1398H11.4811V37.9817H17.2873ZM14.3842 17.0428H19.2207V11.2367H14.3842V17.0428ZM47.5247 14.1398V11.2367H45.5329L44.8161 13.095L47.5247 14.1398ZM52.9743 14.1398L55.6828 13.095L54.9661 11.2367H52.9743V14.1398ZM62.1704 37.9817V40.8847H66.4017L64.879 36.9369L62.1704 37.9817ZM56.7209 37.9817L53.9738 38.9205L54.6451 40.8847H56.7209V37.9817ZM54.8816 32.6002L57.6287 31.6613L56.9574 29.6971H54.8816V32.6002ZM45.2768 32.6002V29.6971H43.201L42.5297 31.6613L45.2768 32.6002ZM43.4375 37.9817V40.8847H45.5133L46.1846 38.9205L43.4375 37.9817ZM38.3285 37.9817L35.62 36.9369L34.0973 40.8847H38.3285V37.9817ZM53.5533 28.6833V31.5864H57.6025L56.3027 27.7515L53.5533 28.6833ZM50.1133 18.5335L52.8627 17.6016L52.1946 15.6304H50.1133V18.5335ZM50.0451 18.5335V15.6304H47.9638L47.2957 17.6016L50.0451 18.5335ZM46.6051 28.6833L43.8556 27.7515L42.5559 31.5864H46.6051V28.6833ZM47.5247 17.0428H52.9743V11.2367H47.5247V17.0428ZM50.2657 15.1845L59.4619 39.0264L64.879 36.9369L55.6828 13.095L50.2657 15.1845ZM62.1704 35.0786H56.7209V40.8847H62.1704V35.0786ZM59.4679 37.0428L57.6287 31.6613L52.1346 33.5391L53.9738 38.9205L59.4679 37.0428ZM54.8816 29.6971H45.2768V35.5033H54.8816V29.6971ZM42.5297 31.6613L40.6905 37.0428L46.1846 38.9205L48.0238 33.5391L42.5297 31.6613ZM43.4375 35.0786H38.3285V40.8847H43.4375V35.0786ZM41.0371 39.0264L50.2333 15.1845L44.8161 13.095L35.62 36.9369L41.0371 39.0264ZM56.3027 27.7515L52.8627 17.6016L47.3638 19.4653L50.8039 29.6152L56.3027 27.7515ZM50.1133 15.6304H50.0451V21.4365H50.1133V15.6304ZM47.2957 17.6016L43.8556 27.7515L49.3545 29.6152L52.7946 19.4653L47.2957 17.6016ZM46.6051 31.5864H53.5533V25.7803H46.6051V31.5864ZM77.8199 14.5144L77.1004 17.3269L77.1313 17.3348L77.1623 17.342L77.8199 14.5144ZM80.3063 15.6043L78.5895 17.9454L78.6332 17.9774L78.6781 18.0078L80.3063 15.6043ZM81.9411 17.4436L79.3604 18.773L79.3848 18.8204L79.4109 18.8668L81.9411 17.4436ZM82.1796 22.3141L79.4775 21.2526L79.4775 21.2526L82.1796 22.3141ZM81.2259 23.9149L79.0624 21.9792L79.0333 22.0116L79.0053 22.045L81.2259 23.9149ZM79.9997 24.9367L81.3988 27.4804L81.3988 27.4804L79.9997 24.9367ZM78.6714 25.5157L77.7972 22.7474L75.7683 23.3881V25.5157H78.6714ZM78.6714 25.5839H75.7683V28.0551L78.2078 28.4497L78.6714 25.5839ZM82.3158 27.4912L80.122 29.3925L80.1339 29.4063L80.146 29.4199L82.3158 27.4912ZM83.2695 33.5879L80.5233 32.6464L80.5151 32.6703L80.5074 32.6943L83.2695 33.5879ZM81.839 35.7337L79.8557 33.6137L79.8383 33.6299L79.8213 33.6464L81.839 35.7337ZM78.9779 37.3686L79.9115 40.1174L79.9265 40.1123L79.9415 40.1071L78.9779 37.3686ZM66.7845 37.9817H63.8814V40.8847H66.7845V37.9817ZM66.7845 14.1398V11.2367H63.8814V14.1398H66.7845ZM71.621 23.8128H68.7179V26.7158H71.621V23.8128ZM75.8444 23.5062L74.7452 20.8193L74.723 20.8284L74.7008 20.8379L75.8444 23.5062ZM77.0025 22.7569L79.1356 24.726L79.1719 24.6867L79.2066 24.6462L77.0025 22.7569ZM77.5474 21.7692L74.7424 21.0212L74.7424 21.0212L77.5474 21.7692ZM77.5815 20.1002L74.7039 20.4839L74.7163 20.5772L74.7348 20.6696L77.5815 20.1002ZM77.1046 19.1125L74.8219 20.9061L74.8602 20.9548L74.9005 21.0018L77.1046 19.1125ZM75.9466 18.261L77.1991 15.642L77.1991 15.642L75.9466 18.261ZM71.621 17.8863V14.9833H68.7179V17.8863H71.621ZM71.621 34.2351H68.7179V37.1381H71.621V34.2351ZM76.2531 33.9626L77.1712 36.7167L77.2221 36.6997L77.2725 36.6808L76.2531 33.9626ZM77.5815 33.2133L79.4828 35.4071L79.5232 35.3721L79.5623 35.3356L77.5815 33.2133ZM78.3308 32.1574L81.0152 33.2628L81.0261 33.2363L81.0365 33.2096L78.3308 32.1574ZM78.3648 29.6711L75.6108 30.5891L75.6188 30.6132L75.6273 30.6372L78.3648 29.6711ZM77.6837 28.6152L75.6309 30.668L75.6689 30.706L75.7083 30.7425L77.6837 28.6152ZM76.3894 27.8659L75.37 30.5841L75.4204 30.603L75.4713 30.62L76.3894 27.8659ZM71.621 27.5593V24.6563H68.7179V27.5593H71.621ZM74.6183 17.0428C75.5689 17.0428 76.391 17.1454 77.1004 17.3269L78.5394 11.7019C77.296 11.3839 75.9837 11.2367 74.6183 11.2367V17.0428ZM77.1623 17.342C77.8266 17.4965 78.2782 17.7171 78.5895 17.9454L82.023 13.2633C80.9719 12.4925 79.766 11.9865 78.4775 11.6868L77.1623 17.342ZM78.6781 18.0078C78.9832 18.2145 79.199 18.4597 79.3604 18.773L84.5219 16.1141C83.9113 14.9288 83.0371 13.9478 81.9344 13.2008L78.6781 18.0078ZM79.4109 18.8668C79.5309 19.0802 79.6511 19.4327 79.6511 20.0321H85.4573C85.4573 18.6333 85.1688 17.2602 84.4714 16.0203L79.4109 18.8668ZM79.6511 20.0321C79.6511 20.6568 79.5615 21.0388 79.4775 21.2526L84.8816 23.3756C85.2971 22.3179 85.4573 21.1785 85.4573 20.0321H79.6511ZM79.4775 21.2526C79.3317 21.6238 79.1811 21.8465 79.0624 21.9792L83.3894 25.8507C84.0427 25.1205 84.5279 24.276 84.8816 23.3756L79.4775 21.2526ZM79.0053 22.045C78.8517 22.2274 78.7153 22.33 78.6007 22.393L81.3988 27.4804C82.1924 27.0439 82.8735 26.4653 83.4465 25.7849L79.0053 22.045ZM78.6007 22.393C78.2901 22.5639 78.0227 22.6762 77.7972 22.7474L79.5456 28.2841C80.1829 28.0828 80.8011 27.8092 81.3988 27.4804L78.6007 22.393ZM75.7683 25.5157V25.5839H81.5745V25.5157H75.7683ZM78.2078 28.4497C79.191 28.6087 79.7508 28.9642 80.122 29.3925L84.5096 25.5899C83.1097 23.9746 81.2399 23.0586 79.135 22.7181L78.2078 28.4497ZM80.146 29.4199C80.535 29.8575 80.7751 30.4103 80.7751 31.2719H86.5813C86.5813 29.1361 85.9131 27.1685 84.4856 25.5625L80.146 29.4199ZM80.7751 31.2719C80.7751 31.6645 80.7044 32.1183 80.5233 32.6464L86.0156 34.5295C86.3795 33.4681 86.5813 32.3778 86.5813 31.2719H80.7751ZM80.5074 32.6943C80.4352 32.9173 80.2678 33.2282 79.8557 33.6137L83.8222 37.8537C84.8179 36.9223 85.6042 35.8026 86.0316 34.4816L80.5074 32.6943ZM79.8213 33.6464C79.5304 33.9276 78.9844 34.2888 78.0144 34.6301L79.9415 40.1071C81.4238 39.5855 82.7852 38.8568 83.8566 37.821L79.8213 33.6464ZM78.0444 34.6197C77.2521 34.8888 76.0442 35.0786 74.3117 35.0786V40.8847C76.3939 40.8847 78.2969 40.6658 79.9115 40.1174L78.0444 34.6197ZM74.3117 35.0786H66.7845V40.8847H74.3117V35.0786ZM69.6876 37.9817V14.1398H63.8814V37.9817H69.6876ZM66.7845 17.0428H74.6183V11.2367H66.7845V17.0428ZM71.621 26.7158H73.9711V20.9097H71.621V26.7158ZM73.9711 26.7158C74.9617 26.7158 76.018 26.5903 76.988 26.1746L74.7008 20.8379C74.7197 20.8298 74.6785 20.8501 74.5497 20.8712C74.4218 20.8921 74.2329 20.9097 73.9711 20.9097V26.7158ZM76.9436 26.1931C77.708 25.8804 78.494 25.421 79.1356 24.726L74.8693 20.7878C74.9198 20.7331 74.949 20.7169 74.9315 20.7283C74.9131 20.7402 74.8562 20.7739 74.7452 20.8193L76.9436 26.1931ZM79.2066 24.6462C79.7098 24.0592 80.1303 23.3502 80.3525 22.5172L74.7424 21.0212C74.7617 20.9488 74.7856 20.8974 74.8012 20.8691C74.8161 20.8421 74.82 20.8423 74.7983 20.8676L79.2066 24.6462ZM80.3525 22.5172C80.4904 21.9999 80.5867 21.4359 80.5867 20.8495H74.7806C74.7806 20.8256 74.7825 20.8272 74.7779 20.8584C74.7733 20.8894 74.7632 20.9429 74.7424 21.0212L80.3525 22.5172ZM80.5867 20.8495C80.5867 20.3828 80.5005 19.8924 80.4282 19.5309L74.7348 20.6696C74.7611 20.8013 74.7751 20.8871 74.7817 20.9352C74.7848 20.9583 74.785 20.9637 74.7842 20.9544C74.7836 20.9469 74.7806 20.9094 74.7806 20.8495H80.5867ZM80.4591 19.7165C80.3247 18.7086 79.8662 17.8735 79.3088 17.2232L74.9005 21.0018C74.888 20.9873 74.7474 20.8107 74.7039 20.4839L80.4591 19.7165ZM79.3874 17.3189C78.7694 16.5324 77.9619 16.0068 77.1991 15.642L74.6941 20.8799C74.8236 20.9419 74.8882 20.9854 74.908 21.0001C74.9275 21.0143 74.8858 20.9875 74.8219 20.9061L79.3874 17.3189ZM77.1991 15.642C76.1187 15.1253 74.8972 14.9833 73.7668 14.9833V20.7894C74.1082 20.7894 74.353 20.8127 74.5182 20.8411C74.6862 20.87 74.7295 20.8969 74.6941 20.88L77.1991 15.642ZM73.7668 14.9833H71.621V20.7894H73.7668V14.9833ZM68.7179 17.8863V23.8128H74.5241V17.8863H68.7179ZM71.621 37.1381H74.3117V31.332H71.621V37.1381ZM74.3117 37.1381C75.2835 37.1381 76.2557 37.0218 77.1712 36.7167L75.3351 31.2085C75.1606 31.2667 74.8386 31.332 74.3117 31.332V37.1381ZM77.2725 36.6808C78.0508 36.3889 78.8181 35.9831 79.4828 35.4071L75.6802 31.0195C75.6636 31.0338 75.5453 31.1275 75.2338 31.2444L77.2725 36.6808ZM79.5623 35.3356C80.1722 34.7664 80.6799 34.0769 81.0152 33.2628L75.6464 31.0521C75.6533 31.0354 75.6589 31.0277 75.6568 31.0308C75.6541 31.0345 75.6387 31.0554 75.6007 31.091L79.5623 35.3356ZM81.0365 33.2096C81.3237 32.4711 81.4723 31.6946 81.4723 30.8972H75.6661C75.6661 30.9627 75.6558 31.0263 75.6251 31.1052L81.0365 33.2096ZM81.4723 30.8972C81.4723 30.1546 81.354 29.4177 81.1024 28.7049L75.6273 30.6372C75.6482 30.6965 75.6661 30.777 75.6661 30.8972H81.4723ZM81.1189 28.753C80.8276 27.8789 80.3312 27.112 79.659 26.4878L75.7083 30.7425C75.6964 30.7316 75.675 30.7087 75.6529 30.6744C75.6308 30.64 75.6174 30.609 75.6108 30.5891L81.1189 28.753ZM79.7364 26.5624C79.0239 25.8499 78.1647 25.3976 77.3074 25.1118L75.4713 30.62C75.7039 30.6975 75.7077 30.7448 75.6309 30.668L79.7364 26.5624ZM77.4087 25.1477C76.4276 24.7798 75.3588 24.6563 74.3117 24.6563V30.4624C74.9449 30.4624 75.2612 30.5433 75.37 30.5841L77.4087 25.1477ZM74.3117 24.6563H71.621V30.4624H74.3117V24.6563ZM68.7179 27.5593V34.2351H74.5241V27.5593H68.7179ZM89.3758 14.1398V11.2367H86.4727V14.1398H89.3758ZM94.2123 14.1398H97.1153V11.2367H94.2123V14.1398ZM94.2123 22.6547H91.3092V25.5578H94.2123V22.6547ZM104.158 24.6302L102.208 26.7813L102.208 26.7813L104.158 24.6302ZM105.759 33.4858L108.44 34.5977L108.445 34.5863L108.45 34.575L105.759 33.4858ZM104.022 35.904L105.938 38.0847L105.942 38.0808L104.022 35.904ZM89.3758 37.9817H86.4727V40.8847H89.3758V37.9817ZM94.2123 26.4013V23.4982H91.3092V26.4013H94.2123ZM94.2123 34.2351H91.3092V37.1381H94.2123V34.2351ZM109.744 14.1398V11.2367H106.84V14.1398H109.744ZM114.58 14.1398H117.483V11.2367H114.58V14.1398ZM114.58 37.9817V40.8847H117.483V37.9817H114.58ZM109.744 37.9817H106.84V40.8847H109.744V37.9817ZM89.3758 17.0428H94.2123V11.2367H89.3758V17.0428ZM91.3092 14.1398V22.6547H97.1153V14.1398H91.3092ZM94.2123 25.5578H97.1414V19.7517H94.2123V25.5578ZM97.1414 25.5578C100.08 25.5578 101.542 26.1772 102.208 26.7813L106.107 22.4791C103.867 20.4492 100.651 19.7517 97.1414 19.7517V25.5578ZM102.208 26.7813C102.903 27.4106 103.435 28.433 103.435 30.3182H109.241C109.241 27.2533 108.319 24.4837 106.107 22.4791L102.208 26.7813ZM103.435 30.3182C103.435 31.1496 103.297 31.8297 103.068 32.3965L108.45 34.575C108.992 33.2344 109.241 31.8029 109.241 30.3182H103.435ZM103.077 32.3738C102.864 32.8875 102.549 33.3319 102.101 33.7272L105.942 38.0808C107.038 37.1138 107.881 35.9459 108.44 34.5977L103.077 32.3738ZM102.105 33.7233C101.718 34.0631 101.145 34.399 100.291 34.6668L102.029 40.2066C103.492 39.7478 104.826 39.0619 105.938 38.0847L102.105 33.7233ZM100.291 34.6668C99.4754 34.9228 98.4393 35.0786 97.1414 35.0786V40.8847C98.8862 40.8847 100.529 40.6772 102.029 40.2066L100.291 34.6668ZM97.1414 35.0786H89.3758V40.8847H97.1414V35.0786ZM92.2788 37.9817V14.1398H86.4727V37.9817H92.2788ZM104.132 30.3182C104.132 28.5329 103.66 26.6685 102.215 25.2845C100.794 23.9227 98.9211 23.4982 97.1414 23.4982V29.3044C98.0865 29.3044 98.2568 29.5327 98.1982 29.4765C98.1165 29.3982 98.3255 29.4923 98.3255 30.3182H104.132ZM97.1414 23.4982H94.2123V29.3044H97.1414V23.4982ZM91.3092 26.4013V34.2351H97.1153V26.4013H91.3092ZM94.2123 37.1381H97.1414V31.332H94.2123V37.1381ZM97.1414 37.1381C98.9211 37.1381 100.794 36.7136 102.215 35.3518C103.66 33.9679 104.132 32.1035 104.132 30.3182H98.3255C98.3255 31.1441 98.1165 31.2382 98.1982 31.1599C98.2568 31.1037 98.0865 31.332 97.1414 31.332V37.1381ZM109.744 17.0428H114.58V11.2367H109.744V17.0428ZM111.677 14.1398V37.9817H117.483V14.1398H111.677ZM114.58 35.0786H109.744V40.8847H114.58V35.0786ZM112.647 37.9817V14.1398H106.84V37.9817H112.647ZM125.884 14.1398H128.787V11.2367H125.884V14.1398ZM125.884 24.3237H122.981V27.2267H125.884V24.3237ZM125.986 24.3237V27.2267H127.333L128.202 26.1989L125.986 24.3237ZM134.603 14.1398V11.2367H133.257L132.387 12.2645L134.603 14.1398ZM140.359 14.1398L142.495 16.1066L146.98 11.2367H140.359V14.1398ZM130.414 24.9367L128.279 22.9699L126.58 24.8141L128.157 26.7632L130.414 24.9367ZM140.972 37.9817V40.8847H147.057L143.229 36.1552L140.972 37.9817ZM134.842 37.9817L132.516 39.7192L133.387 40.8847H134.842V37.9817ZM125.986 26.1288L128.312 24.3913L127.441 23.2258H125.986V26.1288ZM125.884 26.1288V23.2258H122.981V26.1288H125.884ZM125.884 37.9817V40.8847H128.787V37.9817H125.884ZM121.047 37.9817H118.144V40.8847H121.047V37.9817ZM121.047 14.1398V11.2367H118.144V14.1398H121.047ZM122.981 14.1398V24.3237H128.787V14.1398H122.981ZM125.884 27.2267H125.986V21.4206H125.884V27.2267ZM128.202 26.1989L136.819 16.015L132.387 12.2645L123.77 22.4484L128.202 26.1989ZM134.603 17.0428H140.359V11.2367H134.603V17.0428ZM138.224 12.1729L128.279 22.9699L132.549 26.9036L142.495 16.1066L138.224 12.1729ZM128.157 26.7632L138.716 39.8081L143.229 36.1552L132.67 23.1103L128.157 26.7632ZM140.972 35.0786H134.842V40.8847H140.972V35.0786ZM137.167 36.2441L128.312 24.3913L123.66 27.8664L132.516 39.7192L137.167 36.2441ZM125.986 23.2258H125.884V29.0319H125.986V23.2258ZM122.981 26.1288V37.9817H128.787V26.1288H122.981ZM125.884 35.0786H121.047V40.8847H125.884V35.0786ZM123.951 37.9817V14.1398H118.144V37.9817H123.951ZM121.047 17.0428H125.884V11.2367H121.047V17.0428ZM150.138 14.1398H153.041V11.2367H150.138V14.1398ZM150.138 26.4013L153.041 26.4525L153.041 26.4269V26.4013H150.138ZM150.036 32.1915L147.134 32.1403L147.081 35.0945H150.036V32.1915ZM150.138 32.1915V35.0945H151.948L152.745 33.4693L150.138 32.1915ZM151.841 28.7174L149.322 27.2752L149.276 27.356L149.235 27.4396L151.841 28.7174ZM160.186 14.1398V11.2367H158.503L157.666 12.6975L160.186 14.1398ZM165.976 14.1398H168.879V11.2367H165.976V14.1398ZM165.976 37.9817V40.8847H168.879V37.9817H165.976ZM161.14 37.9817H158.237V40.8847H161.14V37.9817ZM161.14 25.686L158.237 25.6345L158.237 25.6603V25.686H161.14ZM161.242 19.9299L164.144 19.9815L164.197 17.0269H161.242V19.9299ZM161.14 19.9299V17.0269H159.267L158.495 18.7324L161.14 19.9299ZM159.505 23.5403L162.013 25.0016L162.088 24.8732L162.149 24.7378L159.505 23.5403ZM151.092 37.9817V40.8847H152.761L153.6 39.443L151.092 37.9817ZM145.302 37.9817H142.399V40.8847H145.302V37.9817ZM145.302 14.1398V11.2367H142.399V14.1398H145.302ZM147.235 14.1398V26.4013H153.041V14.1398H147.235ZM147.236 26.3501L147.134 32.1403L152.939 32.2427L153.041 26.4525L147.236 26.3501ZM150.036 35.0945H150.138V29.2884H150.036V35.0945ZM152.745 33.4693L154.448 29.9952L149.235 27.4396L147.532 30.9137L152.745 33.4693ZM154.361 30.1596L162.705 15.582L157.666 12.6975L149.322 27.2752L154.361 30.1596ZM160.186 17.0428H165.976V11.2367H160.186V17.0428ZM163.073 14.1398V37.9817H168.879V14.1398H163.073ZM165.976 35.0786H161.14V40.8847H165.976V35.0786ZM164.043 37.9817V25.686H158.237V37.9817H164.043ZM164.042 25.7376L164.144 19.9815L158.339 19.8784L158.237 25.6345L164.042 25.7376ZM161.242 17.0269H161.14V22.833H161.242V17.0269ZM158.495 18.7324L156.86 22.3427L162.149 24.7378L163.784 21.1275L158.495 18.7324ZM156.996 22.079L148.584 36.5204L153.6 39.443L162.013 25.0016L156.996 22.079ZM151.092 35.0786H145.302V40.8847H151.092V35.0786ZM148.205 37.9817V14.1398H142.399V37.9817H148.205ZM145.302 17.0428H150.138V11.2367H145.302V17.0428Z" fill="#0094FF"/>
</g>
<defs>
<filter id="filter0_f_474_15991" x="0.98552" y="0.740998" width="178.389" height="50.6394" filterUnits="userSpaceOnUse" color-interpolation-filters="sRGB">
<feFlood flood-opacity="0" result="BackgroundImageFix"/>
<feBlend mode="normal" in="SourceGraphic" in2="BackgroundImageFix" result="shape"/>
<feGaussianBlur stdDeviation="6.69938" result="effect1_foregroundBlur_474_15991"/>
</filter>
</defs>
</svg>
