<svg viewBox="0 0 180 124" fill="none" xmlns="http://www.w3.org/2000/svg">
<g style="mix-blend-mode:hard-light" filter="url(#filter0_f_474_15979)">
<path d="M90.977 13.1077L96.3361 25.9924C96.8732 27.2839 98.0878 28.1663 99.482 28.2781L113.392 29.3932C113.85 29.43 114.036 30.0017 113.687 30.3008L103.089 39.3791C102.027 40.2891 101.563 41.7168 101.887 43.0774L105.125 56.6513C105.232 57.0984 104.745 57.4517 104.353 57.2122L92.4442 49.9382C91.2506 49.2091 89.7493 49.2091 88.5556 49.9382L76.6466 57.2122C76.2544 57.4517 75.768 57.0984 75.8747 56.6513L79.1125 43.0774C79.4371 41.7168 78.9732 40.2891 77.9109 39.3791L67.3129 30.3008C66.9638 30.0017 67.1496 29.43 67.6077 29.3932L81.5178 28.2781C82.9121 28.1663 84.1266 27.2839 84.6638 25.9924L90.0228 13.1077C90.1993 12.6833 90.8005 12.6833 90.977 13.1077Z" stroke="#0094FF" stroke-width="3.21331"/>
</g>
<g style="mix-blend-mode:hard-light" filter="url(#filter1_f_474_15979)">
<path d="M90.5206 13.2976L95.8796 26.1823C96.488 27.6449 97.8635 28.6443 99.4425 28.7708L113.353 29.886C113.358 29.8865 113.363 29.887 113.366 29.8876C113.368 29.8912 113.37 29.8959 113.372 29.9014C113.374 29.9069 113.375 29.9119 113.376 29.916C113.373 29.9185 113.37 29.9217 113.365 29.9253L102.767 39.0037C101.564 40.0342 101.039 41.6512 101.406 43.1921L104.644 56.766C104.646 56.7715 104.647 56.7759 104.647 56.7795C104.644 56.7825 104.64 56.7859 104.636 56.7893C104.631 56.7927 104.627 56.7952 104.623 56.7971C104.62 56.7954 104.616 56.7932 104.611 56.7903L92.7019 49.5163C91.35 48.6906 89.6498 48.6906 88.2979 49.5163L76.389 56.7903C76.3842 56.7932 76.3802 56.7954 76.377 56.7971C76.3732 56.7952 76.3688 56.7927 76.3641 56.7893C76.3595 56.7859 76.3557 56.7825 76.3528 56.7795C76.3534 56.776 76.3542 56.7715 76.3555 56.766L79.5934 43.1921C79.961 41.6512 79.4356 40.0342 78.2325 39.0037L67.6345 29.9253C67.6302 29.9217 67.6268 29.9185 67.6243 29.916C67.6249 29.9119 67.626 29.9069 67.6277 29.9014C67.6295 29.8959 67.6316 29.8913 67.6335 29.8876C67.6371 29.887 67.6416 29.8865 67.6472 29.886L81.5573 28.7708C83.1364 28.6443 84.5119 27.6449 85.1202 26.1823L90.4793 13.2976C90.4814 13.2924 90.4834 13.2882 90.485 13.285C90.4891 13.2843 90.4942 13.2838 90.4999 13.2838C90.5057 13.2838 90.5108 13.2843 90.5149 13.285C90.5165 13.2882 90.5184 13.2924 90.5206 13.2976Z" stroke="#0094FF" stroke-width="4.20201"/>
</g>
<g style="mix-blend-mode:hard-light" filter="url(#filter2_ddi_474_15979)">
<path d="M90.977 13.1077L96.3361 25.9924C96.8732 27.2839 98.0878 28.1663 99.482 28.2781L113.392 29.3932C113.85 29.43 114.036 30.0017 113.687 30.3008L103.089 39.3791C102.027 40.2891 101.563 41.7168 101.887 43.0774L105.125 56.6513C105.232 57.0984 104.745 57.4517 104.353 57.2122L92.4442 49.9382C91.2506 49.2091 89.7493 49.2091 88.5556 49.9382L76.6466 57.2122C76.2544 57.4517 75.768 57.0984 75.8747 56.6513L79.1125 43.0774C79.4371 41.7168 78.9732 40.2891 77.9109 39.3791L67.3129 30.3008C66.9638 30.0017 67.1496 29.43 67.6077 29.3932L81.5178 28.2781C82.9121 28.1663 84.1266 27.2839 84.6638 25.9924L90.0228 13.1077C90.1993 12.6833 90.8005 12.6833 90.977 13.1077Z" stroke="#00B3FF" stroke-opacity="0.2" stroke-width="3.21331"/>
</g>
<g filter="url(#filter3_f_474_15979)">
<path d="M91.5476 12.8704L96.9066 25.7551C97.3548 26.8326 98.3681 27.5688 99.5314 27.6621L113.442 28.7773C114.448 28.8579 114.856 30.1135 114.089 30.7701L103.491 39.8484C102.605 40.6076 102.218 41.7988 102.488 42.934L105.726 56.5079C105.96 57.4897 104.892 58.2656 104.031 57.7395L92.1221 50.4655C91.1262 49.8572 89.8737 49.8572 88.8777 50.4655L76.9688 57.7395C76.1074 58.2656 75.0394 57.4897 75.2736 56.5079L78.5115 42.934C78.7822 41.7988 78.3952 40.6076 77.5089 39.8484L66.9109 30.7701C66.1443 30.1135 66.5523 28.8579 67.5583 28.7773L81.4685 27.6621C82.6317 27.5688 83.6451 26.8326 84.0932 25.7551L89.4523 12.8704C89.8399 11.9385 91.16 11.9385 91.5476 12.8704Z" stroke="#82D9FF" stroke-width="1.97742"/>
</g>
<g filter="url(#filter4_f_474_15979)">
<path d="M92.0041 12.6806L97.3631 25.5653C97.7401 26.4716 98.5924 27.0909 99.5709 27.1693L113.481 28.2845C114.925 28.4003 115.511 30.2028 114.411 31.1455L103.813 40.2238C103.067 40.8624 102.742 41.8645 102.969 42.8193L106.207 56.3932C106.543 57.8027 105.01 58.9167 103.773 58.1614L91.8644 50.8874C91.0267 50.3758 89.9731 50.3758 89.1354 50.8874L77.2264 58.1614C75.9898 58.9167 74.4565 57.8027 74.7927 56.3932L78.0306 42.8193C78.2584 41.8645 77.9328 40.8624 77.1873 40.2238L66.5892 31.1455C65.4888 30.2028 66.0745 28.4003 67.5188 28.2845L81.4289 27.1693C82.4074 27.0909 83.2598 26.4716 83.6368 25.5653L88.9958 12.6806C89.5523 11.3427 91.4476 11.3427 92.0041 12.6806Z" stroke="white" stroke-width="0.988709"/>
</g>
<g style="mix-blend-mode:hard-light" filter="url(#filter5_f_474_15979)">
<path d="M19.2207 86.1398H22.1238V83.2367H19.2207V86.1398ZM19.2207 95.7446H16.3176V98.6477H19.2207V95.7446ZM28.8937 95.7446V98.6477H31.7968V95.7446H28.8937ZM28.8937 86.1398V83.2367H25.9906V86.1398H28.8937ZM33.7302 86.1398H36.6333V83.2367H33.7302V86.1398ZM33.7302 109.982V112.885H36.6333V109.982H33.7302ZM28.8937 109.982H25.9906V112.885H28.8937V109.982ZM28.8937 99.6615H31.7968V96.7585H28.8937V99.6615ZM19.2207 99.6615V96.7585H16.3176V99.6615H19.2207ZM19.2207 109.982V112.885H22.1238V109.982H19.2207ZM14.3842 109.982H11.4811V112.885H14.3842V109.982ZM14.3842 86.1398V83.2367H11.4811V86.1398H14.3842ZM16.3176 86.1398V95.7446H22.1238V86.1398H16.3176ZM19.2207 98.6477H28.8937V92.8416H19.2207V98.6477ZM31.7968 95.7446V86.1398H25.9906V95.7446H31.7968ZM28.8937 89.0428H33.7302V83.2367H28.8937V89.0428ZM30.8271 86.1398V109.982H36.6333V86.1398H30.8271ZM33.7302 107.079H28.8937V112.885H33.7302V107.079ZM31.7968 109.982V99.6615H25.9906V109.982H31.7968ZM28.8937 96.7585H19.2207V102.565H28.8937V96.7585ZM16.3176 99.6615V109.982H22.1238V99.6615H16.3176ZM19.2207 107.079H14.3842V112.885H19.2207V107.079ZM17.2873 109.982V86.1398H11.4811V109.982H17.2873ZM14.3842 89.0428H19.2207V83.2367H14.3842V89.0428ZM47.5247 86.1398V83.2367H45.5329L44.8161 85.095L47.5247 86.1398ZM52.9743 86.1398L55.6828 85.095L54.9661 83.2367H52.9743V86.1398ZM62.1704 109.982V112.885H66.4017L64.879 108.937L62.1704 109.982ZM56.7209 109.982L53.9738 110.921L54.6451 112.885H56.7209V109.982ZM54.8816 104.6L57.6287 103.661L56.9574 101.697H54.8816V104.6ZM45.2768 104.6V101.697H43.201L42.5297 103.661L45.2768 104.6ZM43.4375 109.982V112.885H45.5133L46.1846 110.921L43.4375 109.982ZM38.3285 109.982L35.62 108.937L34.0973 112.885H38.3285V109.982ZM53.5533 100.683V103.586H57.6025L56.3027 99.7515L53.5533 100.683ZM50.1133 90.5335L52.8627 89.6016L52.1946 87.6304H50.1133V90.5335ZM50.0451 90.5335V87.6304H47.9638L47.2957 89.6016L50.0451 90.5335ZM46.6051 100.683L43.8556 99.7515L42.5559 103.586H46.6051V100.683ZM47.5247 89.0428H52.9743V83.2367H47.5247V89.0428ZM50.2657 87.1845L59.4619 111.026L64.879 108.937L55.6828 85.095L50.2657 87.1845ZM62.1704 107.079H56.7209V112.885H62.1704V107.079ZM59.4679 109.043L57.6287 103.661L52.1346 105.539L53.9738 110.921L59.4679 109.043ZM54.8816 101.697H45.2768V107.503H54.8816V101.697ZM42.5297 103.661L40.6905 109.043L46.1846 110.921L48.0238 105.539L42.5297 103.661ZM43.4375 107.079H38.3285V112.885H43.4375V107.079ZM41.0371 111.026L50.2333 87.1845L44.8161 85.095L35.62 108.937L41.0371 111.026ZM56.3027 99.7515L52.8627 89.6016L47.3638 91.4653L50.8039 101.615L56.3027 99.7515ZM50.1133 87.6304H50.0451V93.4365H50.1133V87.6304ZM47.2957 89.6016L43.8556 99.7515L49.3545 101.615L52.7946 91.4653L47.2957 89.6016ZM46.6051 103.586H53.5533V97.7803H46.6051V103.586ZM77.8199 86.5144L77.1004 89.3269L77.1313 89.3348L77.1623 89.342L77.8199 86.5144ZM80.3063 87.6043L78.5895 89.9454L78.6332 89.9774L78.6781 90.0078L80.3063 87.6043ZM81.9411 89.4436L79.3604 90.773L79.3848 90.8204L79.4109 90.8668L81.9411 89.4436ZM82.1796 94.3141L79.4775 93.2526L79.4775 93.2526L82.1796 94.3141ZM81.2259 95.9149L79.0624 93.9792L79.0333 94.0116L79.0053 94.045L81.2259 95.9149ZM79.9997 96.9367L81.3988 99.4804L81.3988 99.4804L79.9997 96.9367ZM78.6714 97.5157L77.7972 94.7474L75.7683 95.3881V97.5157H78.6714ZM78.6714 97.5839H75.7683V100.055L78.2078 100.45L78.6714 97.5839ZM82.3158 99.4912L80.122 101.393L80.1339 101.406L80.146 101.42L82.3158 99.4912ZM83.2695 105.588L80.5233 104.646L80.5151 104.67L80.5074 104.694L83.2695 105.588ZM81.839 107.734L79.8557 105.614L79.8383 105.63L79.8213 105.646L81.839 107.734ZM78.9779 109.369L79.9115 112.117L79.9265 112.112L79.9415 112.107L78.9779 109.369ZM66.7845 109.982H63.8814V112.885H66.7845V109.982ZM66.7845 86.1398V83.2367H63.8814V86.1398H66.7845ZM71.621 95.8128H68.7179V98.7158H71.621V95.8128ZM75.8444 95.5062L74.7452 92.8193L74.723 92.8284L74.7008 92.8379L75.8444 95.5062ZM77.0025 94.7569L79.1356 96.726L79.1719 96.6867L79.2066 96.6462L77.0025 94.7569ZM77.5474 93.7692L74.7424 93.0212L74.7424 93.0212L77.5474 93.7692ZM77.5815 92.1002L74.7039 92.4839L74.7163 92.5772L74.7348 92.6696L77.5815 92.1002ZM77.1046 91.1125L74.8219 92.9061L74.8602 92.9548L74.9005 93.0018L77.1046 91.1125ZM75.9466 90.261L77.1991 87.642L77.1991 87.642L75.9466 90.261ZM71.621 89.8863V86.9833H68.7179V89.8863H71.621ZM71.621 106.235H68.7179V109.138H71.621V106.235ZM76.2531 105.963L77.1712 108.717L77.2221 108.7L77.2725 108.681L76.2531 105.963ZM77.5815 105.213L79.4828 107.407L79.5232 107.372L79.5623 107.336L77.5815 105.213ZM78.3308 104.157L81.0152 105.263L81.0261 105.236L81.0365 105.21L78.3308 104.157ZM78.3648 101.671L75.6108 102.589L75.6188 102.613L75.6273 102.637L78.3648 101.671ZM77.6837 100.615L75.6309 102.668L75.6689 102.706L75.7083 102.743L77.6837 100.615ZM76.3894 99.8659L75.37 102.584L75.4204 102.603L75.4713 102.62L76.3894 99.8659ZM71.621 99.5593V96.6563H68.7179V99.5593H71.621ZM74.6183 89.0428C75.5689 89.0428 76.391 89.1454 77.1004 89.3269L78.5394 83.7019C77.296 83.3839 75.9837 83.2367 74.6183 83.2367V89.0428ZM77.1623 89.342C77.8266 89.4965 78.2782 89.7171 78.5895 89.9454L82.023 85.2633C80.9719 84.4925 79.766 83.9865 78.4775 83.6868L77.1623 89.342ZM78.6781 90.0078C78.9832 90.2145 79.199 90.4597 79.3604 90.773L84.5219 88.1141C83.9113 86.9288 83.0371 85.9478 81.9344 85.2008L78.6781 90.0078ZM79.4109 90.8668C79.5309 91.0802 79.6511 91.4327 79.6511 92.0321H85.4573C85.4573 90.6333 85.1688 89.2602 84.4714 88.0203L79.4109 90.8668ZM79.6511 92.0321C79.6511 92.6568 79.5615 93.0388 79.4775 93.2526L84.8816 95.3756C85.2971 94.3179 85.4573 93.1785 85.4573 92.0321H79.6511ZM79.4775 93.2526C79.3317 93.6238 79.1811 93.8465 79.0624 93.9792L83.3894 97.8507C84.0427 97.1205 84.5279 96.276 84.8816 95.3756L79.4775 93.2526ZM79.0053 94.045C78.8517 94.2274 78.7153 94.33 78.6007 94.393L81.3988 99.4804C82.1924 99.0439 82.8735 98.4653 83.4465 97.7849L79.0053 94.045ZM78.6007 94.393C78.2901 94.5639 78.0227 94.6762 77.7972 94.7474L79.5456 100.284C80.1829 100.083 80.8011 99.8092 81.3988 99.4804L78.6007 94.393ZM75.7683 97.5157V97.5839H81.5745V97.5157H75.7683ZM78.2078 100.45C79.191 100.609 79.7508 100.964 80.122 101.393L84.5096 97.5899C83.1097 95.9746 81.2399 95.0586 79.135 94.7181L78.2078 100.45ZM80.146 101.42C80.535 101.858 80.7751 102.41 80.7751 103.272H86.5813C86.5813 101.136 85.9131 99.1685 84.4856 97.5625L80.146 101.42ZM80.7751 103.272C80.7751 103.665 80.7044 104.118 80.5233 104.646L86.0156 106.529C86.3795 105.468 86.5813 104.378 86.5813 103.272H80.7751ZM80.5074 104.694C80.4352 104.917 80.2678 105.228 79.8557 105.614L83.8222 109.854C84.8179 108.922 85.6042 107.803 86.0316 106.482L80.5074 104.694ZM79.8213 105.646C79.5304 105.928 78.9844 106.289 78.0144 106.63L79.9415 112.107C81.4238 111.586 82.7852 110.857 83.8566 109.821L79.8213 105.646ZM78.0444 106.62C77.2521 106.889 76.0442 107.079 74.3117 107.079V112.885C76.3939 112.885 78.2969 112.666 79.9115 112.117L78.0444 106.62ZM74.3117 107.079H66.7845V112.885H74.3117V107.079ZM69.6876 109.982V86.1398H63.8814V109.982H69.6876ZM66.7845 89.0428H74.6183V83.2367H66.7845V89.0428ZM71.621 98.7158H73.9711V92.9097H71.621V98.7158ZM73.9711 98.7158C74.9617 98.7158 76.018 98.5903 76.988 98.1746L74.7008 92.8379C74.7197 92.8298 74.6785 92.8501 74.5497 92.8712C74.4218 92.8921 74.2329 92.9097 73.9711 92.9097V98.7158ZM76.9436 98.1931C77.708 97.8804 78.494 97.421 79.1356 96.726L74.8693 92.7878C74.9198 92.7331 74.949 92.7169 74.9315 92.7283C74.9131 92.7402 74.8562 92.7739 74.7452 92.8193L76.9436 98.1931ZM79.2066 96.6462C79.7098 96.0592 80.1303 95.3502 80.3525 94.5172L74.7424 93.0212C74.7617 92.9488 74.7856 92.8974 74.8012 92.8691C74.8161 92.8421 74.82 92.8423 74.7983 92.8676L79.2066 96.6462ZM80.3525 94.5172C80.4904 93.9999 80.5867 93.4359 80.5867 92.8495H74.7806C74.7806 92.8256 74.7825 92.8272 74.7779 92.8584C74.7733 92.8894 74.7632 92.9429 74.7424 93.0212L80.3525 94.5172ZM80.5867 92.8495C80.5867 92.3828 80.5005 91.8924 80.4282 91.5309L74.7348 92.6696C74.7611 92.8013 74.7751 92.8871 74.7817 92.9352C74.7848 92.9583 74.785 92.9637 74.7842 92.9544C74.7836 92.9469 74.7806 92.9094 74.7806 92.8495H80.5867ZM80.4591 91.7165C80.3247 90.7086 79.8662 89.8735 79.3088 89.2232L74.9005 93.0018C74.888 92.9873 74.7474 92.8107 74.7039 92.4839L80.4591 91.7165ZM79.3874 89.3189C78.7694 88.5324 77.9619 88.0068 77.1991 87.642L74.6941 92.8799C74.8236 92.9419 74.8882 92.9854 74.908 93.0001C74.9275 93.0143 74.8858 92.9875 74.8219 92.9061L79.3874 89.3189ZM77.1991 87.642C76.1187 87.1253 74.8972 86.9833 73.7668 86.9833V92.7894C74.1082 92.7894 74.353 92.8127 74.5182 92.8411C74.6862 92.87 74.7295 92.8969 74.6941 92.88L77.1991 87.642ZM73.7668 86.9833H71.621V92.7894H73.7668V86.9833ZM68.7179 89.8863V95.8128H74.5241V89.8863H68.7179ZM71.621 109.138H74.3117V103.332H71.621V109.138ZM74.3117 109.138C75.2835 109.138 76.2557 109.022 77.1712 108.717L75.3351 103.209C75.1606 103.267 74.8386 103.332 74.3117 103.332V109.138ZM77.2725 108.681C78.0508 108.389 78.8181 107.983 79.4828 107.407L75.6802 103.019C75.6636 103.034 75.5453 103.128 75.2338 103.244L77.2725 108.681ZM79.5623 107.336C80.1722 106.766 80.6799 106.077 81.0152 105.263L75.6464 103.052C75.6533 103.035 75.6589 103.028 75.6568 103.031C75.6541 103.035 75.6387 103.055 75.6007 103.091L79.5623 107.336ZM81.0365 105.21C81.3237 104.471 81.4723 103.695 81.4723 102.897H75.6661C75.6661 102.963 75.6558 103.026 75.6251 103.105L81.0365 105.21ZM81.4723 102.897C81.4723 102.155 81.354 101.418 81.1024 100.705L75.6273 102.637C75.6482 102.696 75.6661 102.777 75.6661 102.897H81.4723ZM81.1189 100.753C80.8276 99.8789 80.3312 99.112 79.659 98.4878L75.7083 102.743C75.6964 102.732 75.675 102.709 75.6529 102.674C75.6308 102.64 75.6174 102.609 75.6108 102.589L81.1189 100.753ZM79.7364 98.5624C79.0239 97.8499 78.1647 97.3976 77.3074 97.1118L75.4713 102.62C75.7039 102.697 75.7077 102.745 75.6309 102.668L79.7364 98.5624ZM77.4087 97.1477C76.4276 96.7798 75.3588 96.6563 74.3117 96.6563V102.462C74.9449 102.462 75.2612 102.543 75.37 102.584L77.4087 97.1477ZM74.3117 96.6563H71.621V102.462H74.3117V96.6563ZM68.7179 99.5593V106.235H74.5241V99.5593H68.7179ZM89.3758 86.1398V83.2367H86.4727V86.1398H89.3758ZM94.2123 86.1398H97.1153V83.2367H94.2123V86.1398ZM94.2123 94.6547H91.3092V97.5578H94.2123V94.6547ZM104.158 96.6302L102.208 98.7813L102.208 98.7813L104.158 96.6302ZM105.759 105.486L108.44 106.598L108.445 106.586L108.45 106.575L105.759 105.486ZM104.022 107.904L105.938 110.085L105.942 110.081L104.022 107.904ZM89.3758 109.982H86.4727V112.885H89.3758V109.982ZM94.2123 98.4013V95.4982H91.3092V98.4013H94.2123ZM94.2123 106.235H91.3092V109.138H94.2123V106.235ZM109.744 86.1398V83.2367H106.84V86.1398H109.744ZM114.58 86.1398H117.483V83.2367H114.58V86.1398ZM114.58 109.982V112.885H117.483V109.982H114.58ZM109.744 109.982H106.84V112.885H109.744V109.982ZM89.3758 89.0428H94.2123V83.2367H89.3758V89.0428ZM91.3092 86.1398V94.6547H97.1153V86.1398H91.3092ZM94.2123 97.5578H97.1414V91.7517H94.2123V97.5578ZM97.1414 97.5578C100.08 97.5578 101.542 98.1772 102.208 98.7813L106.107 94.4791C103.867 92.4492 100.651 91.7517 97.1414 91.7517V97.5578ZM102.208 98.7813C102.903 99.4106 103.435 100.433 103.435 102.318H109.241C109.241 99.2533 108.319 96.4837 106.107 94.4791L102.208 98.7813ZM103.435 102.318C103.435 103.15 103.297 103.83 103.068 104.397L108.45 106.575C108.992 105.234 109.241 103.803 109.241 102.318H103.435ZM103.077 104.374C102.864 104.888 102.549 105.332 102.101 105.727L105.942 110.081C107.038 109.114 107.881 107.946 108.44 106.598L103.077 104.374ZM102.105 105.723C101.718 106.063 101.145 106.399 100.291 106.667L102.029 112.207C103.492 111.748 104.826 111.062 105.938 110.085L102.105 105.723ZM100.291 106.667C99.4754 106.923 98.4393 107.079 97.1414 107.079V112.885C98.8862 112.885 100.529 112.677 102.029 112.207L100.291 106.667ZM97.1414 107.079H89.3758V112.885H97.1414V107.079ZM92.2788 109.982V86.1398H86.4727V109.982H92.2788ZM104.132 102.318C104.132 100.533 103.66 98.6685 102.215 97.2845C100.794 95.9227 98.9211 95.4982 97.1414 95.4982V101.304C98.0865 101.304 98.2568 101.533 98.1982 101.477C98.1165 101.398 98.3255 101.492 98.3255 102.318H104.132ZM97.1414 95.4982H94.2123V101.304H97.1414V95.4982ZM91.3092 98.4013V106.235H97.1153V98.4013H91.3092ZM94.2123 109.138H97.1414V103.332H94.2123V109.138ZM97.1414 109.138C98.9211 109.138 100.794 108.714 102.215 107.352C103.66 105.968 104.132 104.104 104.132 102.318H98.3255C98.3255 103.144 98.1165 103.238 98.1982 103.16C98.2568 103.104 98.0865 103.332 97.1414 103.332V109.138ZM109.744 89.0428H114.58V83.2367H109.744V89.0428ZM111.677 86.1398V109.982H117.483V86.1398H111.677ZM114.58 107.079H109.744V112.885H114.58V107.079ZM112.647 109.982V86.1398H106.84V109.982H112.647ZM125.884 86.1398H128.787V83.2367H125.884V86.1398ZM125.884 96.3237H122.981V99.2267H125.884V96.3237ZM125.986 96.3237V99.2267H127.333L128.202 98.1989L125.986 96.3237ZM134.603 86.1398V83.2367H133.257L132.387 84.2645L134.603 86.1398ZM140.359 86.1398L142.495 88.1066L146.98 83.2367H140.359V86.1398ZM130.414 96.9367L128.279 94.9699L126.58 96.8141L128.157 98.7632L130.414 96.9367ZM140.972 109.982V112.885H147.057L143.229 108.155L140.972 109.982ZM134.842 109.982L132.516 111.719L133.387 112.885H134.842V109.982ZM125.986 98.1288L128.312 96.3913L127.441 95.2258H125.986V98.1288ZM125.884 98.1288V95.2258H122.981V98.1288H125.884ZM125.884 109.982V112.885H128.787V109.982H125.884ZM121.047 109.982H118.144V112.885H121.047V109.982ZM121.047 86.1398V83.2367H118.144V86.1398H121.047ZM122.981 86.1398V96.3237H128.787V86.1398H122.981ZM125.884 99.2267H125.986V93.4206H125.884V99.2267ZM128.202 98.1989L136.819 88.015L132.387 84.2645L123.77 94.4484L128.202 98.1989ZM134.603 89.0428H140.359V83.2367H134.603V89.0428ZM138.224 84.1729L128.279 94.9699L132.549 98.9036L142.495 88.1066L138.224 84.1729ZM128.157 98.7632L138.716 111.808L143.229 108.155L132.67 95.1103L128.157 98.7632ZM140.972 107.079H134.842V112.885H140.972V107.079ZM137.167 108.244L128.312 96.3913L123.66 99.8664L132.516 111.719L137.167 108.244ZM125.986 95.2258H125.884V101.032H125.986V95.2258ZM122.981 98.1288V109.982H128.787V98.1288H122.981ZM125.884 107.079H121.047V112.885H125.884V107.079ZM123.951 109.982V86.1398H118.144V109.982H123.951ZM121.047 89.0428H125.884V83.2367H121.047V89.0428ZM150.138 86.1398H153.041V83.2367H150.138V86.1398ZM150.138 98.4013L153.041 98.4525L153.041 98.4269V98.4013H150.138ZM150.036 104.191L147.134 104.14L147.081 107.095H150.036V104.191ZM150.138 104.191V107.095H151.948L152.745 105.469L150.138 104.191ZM151.841 100.717L149.322 99.2752L149.276 99.356L149.235 99.4396L151.841 100.717ZM160.186 86.1398V83.2367H158.503L157.666 84.6975L160.186 86.1398ZM165.976 86.1398H168.879V83.2367H165.976V86.1398ZM165.976 109.982V112.885H168.879V109.982H165.976ZM161.14 109.982H158.237V112.885H161.14V109.982ZM161.14 97.686L158.237 97.6345L158.237 97.6603V97.686H161.14ZM161.242 91.9299L164.144 91.9815L164.197 89.0269H161.242V91.9299ZM161.14 91.9299V89.0269H159.267L158.495 90.7324L161.14 91.9299ZM159.505 95.5403L162.013 97.0016L162.088 96.8732L162.149 96.7378L159.505 95.5403ZM151.092 109.982V112.885H152.761L153.6 111.443L151.092 109.982ZM145.302 109.982H142.399V112.885H145.302V109.982ZM145.302 86.1398V83.2367H142.399V86.1398H145.302ZM147.235 86.1398V98.4013H153.041V86.1398H147.235ZM147.236 98.3501L147.134 104.14L152.939 104.243L153.041 98.4525L147.236 98.3501ZM150.036 107.095H150.138V101.288H150.036V107.095ZM152.745 105.469L154.448 101.995L149.235 99.4396L147.532 102.914L152.745 105.469ZM154.361 102.16L162.705 87.582L157.666 84.6975L149.322 99.2752L154.361 102.16ZM160.186 89.0428H165.976V83.2367H160.186V89.0428ZM163.073 86.1398V109.982H168.879V86.1398H163.073ZM165.976 107.079H161.14V112.885H165.976V107.079ZM164.043 109.982V97.686H158.237V109.982H164.043ZM164.042 97.7376L164.144 91.9815L158.339 91.8784L158.237 97.6345L164.042 97.7376ZM161.242 89.0269H161.14V94.833H161.242V89.0269ZM158.495 90.7324L156.86 94.3427L162.149 96.7378L163.784 93.1275L158.495 90.7324ZM156.996 94.079L148.584 108.52L153.6 111.443L162.013 97.0016L156.996 94.079ZM151.092 107.079H145.302V112.885H151.092V107.079ZM148.205 109.982V86.1398H142.399V109.982H148.205ZM145.302 89.0428H150.138V83.2367H145.302V89.0428Z" fill="#0094FF"/>
</g>
<g filter="url(#filter6_f_474_15979)">
<path d="M19.2207 85.717V95.3219H28.8937V85.717H33.7302V109.559H28.8937V99.2388H19.2207V109.559H14.3842V85.717H19.2207ZM47.5247 85.717H52.9743L62.1704 109.559H56.7209L54.8816 104.177H45.2768L43.4375 109.559H38.3285L47.5247 85.717ZM53.5533 100.261L50.1133 90.1107H50.0451L46.6051 100.261H53.5533ZM74.6183 85.717C75.7763 85.717 76.8435 85.8419 77.8199 86.0917C78.7963 86.3187 79.6251 86.682 80.3063 87.1816C81.0102 87.6584 81.5551 88.2715 81.9411 89.0208C82.3499 89.7474 82.5542 90.6103 82.5542 91.6094C82.5542 92.4949 82.4293 93.2556 82.1796 93.8914C81.9298 94.5271 81.6119 95.0607 81.2259 95.4922C80.8626 95.9236 80.4539 96.2642 79.9997 96.514C79.5456 96.7637 79.1028 96.9567 78.6714 97.093V97.1611C80.2154 97.4109 81.4302 98.0467 82.3158 99.0685C83.2241 100.09 83.6782 101.35 83.6782 102.849C83.6782 103.598 83.5419 104.37 83.2695 105.165C83.0197 105.937 82.5429 106.652 81.839 107.311C81.1578 107.969 80.2041 108.514 78.9779 108.946C77.7745 109.355 76.2191 109.559 74.3117 109.559H66.7845V85.717H74.6183ZM71.621 95.39H73.9711C74.7431 95.39 75.3676 95.2878 75.8444 95.0835C76.344 94.8791 76.73 94.6293 77.0025 94.3341C77.2749 94.0162 77.4566 93.687 77.5474 93.3464C77.6382 93.0058 77.6837 92.6993 77.6837 92.4268C77.6837 92.2678 77.6496 92.0181 77.5815 91.6775C77.5361 91.3369 77.3771 91.0076 77.1046 90.6897C76.8549 90.3718 76.4688 90.088 75.9466 89.8382C75.4243 89.5885 74.6977 89.4636 73.7668 89.4636H71.621V95.39ZM71.621 105.812H74.3117C75.061 105.812 75.7082 105.721 76.2531 105.54C76.7981 105.335 77.2409 105.086 77.5815 104.791C77.9221 104.473 78.1718 104.121 78.3308 103.735C78.4897 103.326 78.5692 102.906 78.5692 102.474C78.5692 102.043 78.5011 101.634 78.3648 101.248C78.2286 100.84 78.0015 100.488 77.6837 100.192C77.3658 99.8745 76.9343 99.6248 76.3894 99.4431C75.8444 99.2388 75.1519 99.1366 74.3117 99.1366H71.621V105.812ZM89.3758 85.717H94.2123V94.232H97.1414C100.366 94.232 102.705 94.8905 104.158 96.2074C105.611 97.5244 106.338 99.4204 106.338 101.895C106.338 103.053 106.145 104.109 105.759 105.063C105.373 105.994 104.794 106.8 104.022 107.481C103.272 108.14 102.319 108.651 101.16 109.014C100.002 109.377 98.6627 109.559 97.1414 109.559H89.3758V85.717ZM101.229 101.895C101.229 99.2842 99.8662 97.9785 97.1414 97.9785H94.2123V105.812H97.1414C99.8662 105.812 101.229 104.507 101.229 101.895ZM109.744 85.717H114.58V109.559H109.744V85.717ZM125.884 85.717V95.9009H125.986L134.603 85.717H140.359L130.414 96.514L140.972 109.559H134.842L125.986 97.7061H125.884V109.559H121.047V85.717H125.884ZM150.138 85.717V97.9785L150.036 103.769H150.138L151.841 100.295L160.186 85.717H165.976V109.559H161.14V97.2633L161.242 91.5072H161.14L159.505 95.1175L151.092 109.559H145.302V85.717H150.138Z" fill="white"/>
</g>
<defs>
<filter id="filter0_f_474_15979" x="55.1413" y="0.801325" width="70.7175" height="68.4813" filterUnits="userSpaceOnUse" color-interpolation-filters="sRGB">
<feFlood flood-opacity="0" result="BackgroundImageFix"/>
<feBlend mode="normal" in="SourceGraphic" in2="BackgroundImageFix" result="shape"/>
<feGaussianBlur stdDeviation="5.19072" result="effect1_foregroundBlur_474_15979"/>
</filter>
<filter id="filter1_f_474_15979" x="62.0622" y="7.72229" width="56.8756" height="54.6394" filterUnits="userSpaceOnUse" color-interpolation-filters="sRGB">
<feFlood flood-opacity="0" result="BackgroundImageFix"/>
<feBlend mode="normal" in="SourceGraphic" in2="BackgroundImageFix" result="shape"/>
<feGaussianBlur stdDeviation="1.73024" result="effect1_foregroundBlur_474_15979"/>
</filter>
<filter id="filter2_ddi_474_15979" x="61.0241" y="10.1446" width="58.9518" height="56.7157" filterUnits="userSpaceOnUse" color-interpolation-filters="sRGB">
<feFlood flood-opacity="0" result="BackgroundImageFix"/>
<feColorMatrix in="SourceAlpha" type="matrix" values="0 0 0 0 0 0 0 0 0 0 0 0 0 0 0 0 0 0 127 0" result="hardAlpha"/>
<feOffset dy="3.21331"/>
<feGaussianBlur stdDeviation="1.23589"/>
<feColorMatrix type="matrix" values="0 0 0 0 0 0 0 0 0 0.051 0 0 0 0 0.082 0 0 0 0.7 0"/>
<feBlend mode="multiply" in2="BackgroundImageFix" result="effect1_dropShadow_474_15979"/>
<feColorMatrix in="SourceAlpha" type="matrix" values="0 0 0 0 0 0 0 0 0 0 0 0 0 0 0 0 0 0 127 0" result="hardAlpha"/>
<feOffset dy="3.46048"/>
<feGaussianBlur stdDeviation="2.24931"/>
<feColorMatrix type="matrix" values="0 0 0 0 0 0 0 0 0 0.4 0 0 0 0 1 0 0 0 1 0"/>
<feBlend mode="color-dodge" in2="effect1_dropShadow_474_15979" result="effect2_dropShadow_474_15979"/>
<feBlend mode="normal" in="SourceGraphic" in2="effect2_dropShadow_474_15979" result="shape"/>
<feColorMatrix in="SourceAlpha" type="matrix" values="0 0 0 0 0 0 0 0 0 0 0 0 0 0 0 0 0 0 127 0" result="hardAlpha"/>
<feOffset dx="-0.321331" dy="0.642661"/>
<feGaussianBlur stdDeviation="0.160665"/>
<feComposite in2="hardAlpha" operator="arithmetic" k2="-1" k3="1"/>
<feColorMatrix type="matrix" values="0 0 0 0 1 0 0 0 0 1 0 0 0 0 1 0 0 0 0.5 0"/>
<feBlend mode="normal" in2="shape" result="effect3_innerShadow_474_15979"/>
</filter>
<filter id="filter3_f_474_15979" x="65.0284" y="10.6884" width="50.9433" height="48.7071" filterUnits="userSpaceOnUse" color-interpolation-filters="sRGB">
<feFlood flood-opacity="0" result="BackgroundImageFix"/>
<feBlend mode="normal" in="SourceGraphic" in2="BackgroundImageFix" result="shape"/>
<feGaussianBlur stdDeviation="0.247177" result="effect1_foregroundBlur_474_15979"/>
</filter>
<filter id="filter4_f_474_15979" x="65.1931" y="10.8532" width="50.6137" height="48.3775" filterUnits="userSpaceOnUse" color-interpolation-filters="sRGB">
<feFlood flood-opacity="0" result="BackgroundImageFix"/>
<feBlend mode="normal" in="SourceGraphic" in2="BackgroundImageFix" result="shape"/>
<feGaussianBlur stdDeviation="0.164785" result="effect1_foregroundBlur_474_15979"/>
</filter>
<filter id="filter5_f_474_15979" x="0.98552" y="72.741" width="178.389" height="50.6394" filterUnits="userSpaceOnUse" color-interpolation-filters="sRGB">
<feFlood flood-opacity="0" result="BackgroundImageFix"/>
<feBlend mode="normal" in="SourceGraphic" in2="BackgroundImageFix" result="shape"/>
<feGaussianBlur stdDeviation="6.69938" result="effect1_foregroundBlur_474_15979"/>
</filter>
<filter id="filter6_f_474_15979" x="14.0865" y="85.4192" width="152.187" height="24.4374" filterUnits="userSpaceOnUse" color-interpolation-filters="sRGB">
<feFlood flood-opacity="0" result="BackgroundImageFix"/>
<feBlend mode="normal" in="SourceGraphic" in2="BackgroundImageFix" result="shape"/>
<feGaussianBlur stdDeviation="0.148875" result="effect1_foregroundBlur_474_15979"/>
</filter>
</defs>
</svg>
