<svg viewBox="0 0 196 57" fill="none" xmlns="http://www.w3.org/2000/svg">
<g style="mix-blend-mode:hard-light" filter="url(#filter0_f_474_15907)">
<path d="M19.3351 38.46L19.0024 41.3439L19.3351 38.46ZM17.5981 38.1875L16.894 41.0039L16.961 41.0207L17.0287 41.0342L17.5981 38.1875ZM15.9632 37.7107L15.0095 40.4526L15.0273 40.4588L15.0452 40.4648L15.9632 37.7107ZM14.2943 37.0976H11.3912V39.0914L13.2521 39.8072L14.2943 37.0976ZM14.2943 32.9082L15.4733 30.2554L11.3912 28.4411V32.9082H14.2943ZM18.3815 34.3388L17.7894 37.1808L17.8179 37.1867L17.8465 37.1921L18.3815 34.3388ZM23.3201 34.3388L24.2382 37.0928L24.2836 37.0777L24.3284 37.0611L23.3201 34.3388ZM24.7507 33.5213L22.839 31.3365L22.8039 31.3672L22.7698 31.399L24.7507 33.5213ZM25.5 32.4995L22.8403 31.3359L22.8091 31.4073L22.7817 31.4802L25.5 32.4995ZM25.1253 29.4001L22.8282 31.1751L22.8732 31.2334L22.9211 31.2894L25.1253 29.4001ZM22.1962 27.9014L21.9333 30.7926L21.9447 30.7936L22.1962 27.9014ZM18.2112 27.8333H15.3081V30.7364H18.2112V27.8333ZM18.2112 23.9164V21.0134H15.3081V23.9164H18.2112ZM23.9332 23.099L25.7841 25.3355L23.9332 23.099ZM24.7166 19.8974L21.9625 20.8154L22.0007 20.93L22.0483 21.0409L24.7166 19.8974ZM24.1035 19.0118L22.1344 21.145L22.1805 21.1875L22.2283 21.228L24.1035 19.0118ZM22.9114 18.3647L21.8779 21.0776L21.9538 21.1065L22.0312 21.1311L22.9114 18.3647ZM17.9046 18.5009L17.0704 15.7203L17.0606 15.7232L17.0509 15.7262L17.9046 18.5009ZM15.1117 19.5908H12.2086V24.1428L16.336 22.2231L15.1117 19.5908ZM15.1117 15.3674L14.1621 12.6241L12.2086 13.3002V15.3674H15.1117ZM16.8147 14.8565L17.5188 17.6729L17.5735 17.6592L17.6276 17.6434L16.8147 14.8565ZM18.4496 14.4818L18.9268 17.3454L18.973 17.3377L19.0189 17.3285L18.4496 14.4818ZM25.6703 14.6181L26.476 11.8291L26.476 11.8291L25.6703 14.6181ZM28.1907 15.8783L26.3398 18.1148L26.3815 18.1493L26.4244 18.1822L28.1907 15.8783ZM29.6893 17.7857L27.0168 18.9194L27.0379 18.969L27.0607 19.0178L29.6893 17.7857ZM29.2125 23.5077L26.7886 21.9101L26.7758 21.9295L26.7633 21.9491L29.2125 23.5077ZM26.2493 25.5513L25.4895 22.7494L23.3462 23.3307V25.5513H26.2493ZM26.2493 25.6535H23.3462V28.0841L25.739 28.5113L26.2493 25.6535ZM28.0545 26.2666L26.7151 28.8422L26.7563 28.8636L26.7982 28.8837L28.0545 26.2666ZM29.5531 27.3905L27.4004 29.3382L27.449 29.392L27.5003 29.4433L29.5531 27.3905ZM30.6089 29.0595L27.8946 30.0891L27.9099 30.1295L27.9265 30.1695L30.6089 29.0595ZM30.4387 34.2706L27.8273 33.0023L27.8125 33.0328L27.7984 33.0637L30.4387 34.2706ZM29.0081 36.2802L30.9737 38.4166L30.9772 38.4133L29.0081 36.2802ZM27.0327 37.5404L28.1253 40.23L28.1459 40.2216L28.1665 40.2129L27.0327 37.5404ZM24.8528 38.2216L25.4045 41.0717L25.4389 41.0651L25.4732 41.0576L24.8528 38.2216ZM22.8433 38.4941L22.6365 35.5984L22.8433 38.4941ZM21.2765 35.6591C20.6642 35.6591 20.1299 35.6294 19.6679 35.5761L19.0024 41.3439C19.7211 41.4269 20.4811 41.4652 21.2765 41.4652V35.6591ZM19.6679 35.5761C19.1548 35.5169 18.6547 35.4383 18.1674 35.3408L17.0287 41.0342C17.6768 41.1638 18.3348 41.2669 19.0024 41.3439L19.6679 35.5761ZM18.3022 35.3711C17.8309 35.2533 17.3573 35.1153 16.8812 34.9566L15.0452 40.4648C15.659 40.6694 16.2753 40.8492 16.894 41.0039L18.3022 35.3711ZM16.9169 34.9687C16.4282 34.7987 15.9016 34.6054 15.3364 34.388L13.2521 39.8072C13.8677 40.0439 14.4537 40.2593 15.0095 40.4526L16.9169 34.9687ZM17.1973 37.0976V32.9082H11.3912V37.0976H17.1973ZM13.1152 35.5611C14.8397 36.3275 16.4139 36.8942 17.7894 37.1808L18.9736 31.4967C18.1692 31.3291 17.0186 30.9422 15.4733 30.2554L13.1152 35.5611ZM17.8465 37.1921C19.0178 37.4117 20.1014 37.5484 21.0381 37.5484V31.7422C20.6124 31.7422 19.9249 31.6745 18.9165 31.4854L17.8465 37.1921ZM21.0381 37.5484C22.1422 37.5484 23.2359 37.4269 24.2382 37.0928L22.4021 31.5847C22.1782 31.6593 21.7506 31.7422 21.0381 31.7422V37.5484ZM24.3284 37.0611C25.1671 36.7505 26.0206 36.3071 26.7315 35.6436L22.7698 31.399C22.7898 31.3804 22.7744 31.3995 22.6973 31.4435C22.6202 31.4876 22.4963 31.5481 22.3119 31.6164L24.3284 37.0611ZM26.6623 35.7061C27.2999 35.1482 27.8772 34.4281 28.2182 33.5189L22.7817 31.4802C22.8502 31.2976 22.928 31.2587 22.839 31.3365L26.6623 35.7061ZM28.1596 33.6631C28.4406 33.0209 28.6415 32.2822 28.6415 31.4777H22.8353C22.8353 31.3091 22.8772 31.2515 22.8403 31.3359L28.1596 33.6631ZM28.6415 31.4777C28.6415 30.1796 28.3535 28.7055 27.3295 27.5108L22.9211 31.2894C22.8219 31.1736 22.7972 31.0867 22.8007 31.0987C22.807 31.1199 22.8353 31.2335 22.8353 31.4777H28.6415ZM27.4225 27.625C26.7705 26.7813 25.9385 26.0905 24.9204 25.6478L22.6054 30.9725C22.6319 30.984 22.7081 31.0197 22.8282 31.1751L27.4225 27.625ZM24.9204 25.6478C24.1354 25.3065 23.3082 25.0841 22.4477 25.0093L21.9447 30.7936C22.1287 30.8096 22.346 30.8597 22.6054 30.9725L24.9204 25.6478ZM22.459 25.0103C21.9504 24.9641 21.4748 24.9303 21.1062 24.9303V30.7364C21.1918 30.7364 21.4428 30.748 21.9333 30.7926L22.459 25.0103ZM21.1062 24.9303H18.2112V30.7364H21.1062V24.9303ZM21.1142 27.8333V23.9164H15.3081V27.8333H21.1142ZM18.2112 26.8195H21.1062V21.0134H18.2112V26.8195ZM21.1062 26.8195C22.7207 26.8195 24.4199 26.4645 25.7841 25.3355L22.0823 20.8625C22.1296 20.8234 21.9441 21.0134 21.1062 21.0134V26.8195ZM25.7841 25.3355C27.1915 24.1708 27.824 22.5567 27.824 20.851H22.0179C22.0179 20.9226 22.0117 20.9626 22.0089 20.9769C22.0064 20.9903 22.0066 20.9823 22.0162 20.9605C22.0261 20.938 22.0405 20.9132 22.0576 20.8907C22.0744 20.8687 22.0856 20.8598 22.0823 20.8625L25.7841 25.3355ZM27.824 20.851C27.824 20.1065 27.6623 19.401 27.3849 18.7538L22.0483 21.0409C22.0471 21.0383 22.0389 21.0183 22.0312 20.9825C22.0234 20.9461 22.0179 20.9012 22.0179 20.851H27.824ZM27.4707 18.9793C27.1758 18.0947 26.6479 17.3618 25.9787 16.7957L22.2283 21.228C22.1962 21.2008 22.1449 21.1504 22.0913 21.073C22.0369 20.9944 21.9927 20.9061 21.9625 20.8154L27.4707 18.9793ZM26.0726 16.8786C25.3852 16.2441 24.5777 15.8484 23.7916 15.5983L22.0312 21.1311C22.1332 21.1635 22.1846 21.1892 22.1991 21.197C22.2125 21.2043 22.1839 21.1907 22.1344 21.145L26.0726 16.8786ZM23.9449 15.6518C23.0218 15.3001 22.0243 15.1891 21.0722 15.1891V20.9953C21.6187 20.9953 21.8474 21.0659 21.8779 21.0776L23.9449 15.6518ZM21.0722 15.1891C19.6583 15.1891 18.3107 15.3482 17.0704 15.7203L18.7388 21.2815C19.3151 21.1087 20.0792 20.9953 21.0722 20.9953V15.1891ZM17.0509 15.7262C16.0203 16.0433 14.9651 16.4573 13.8874 16.9586L16.336 22.2231C17.211 21.8161 18.0178 21.5035 18.7584 21.2756L17.0509 15.7262ZM18.0148 19.5908V15.3674H12.2086V19.5908H18.0148ZM16.0613 18.1108C16.5798 17.9313 17.0653 17.7863 17.5188 17.6729L16.1106 12.0401C15.4742 12.1992 14.8244 12.3948 14.1621 12.6241L16.0613 18.1108ZM17.6276 17.6434C18.0653 17.5158 18.4982 17.4168 18.9268 17.3454L17.9723 11.6183C17.311 11.7285 16.654 11.8793 16.0018 12.0696L17.6276 17.6434ZM19.0189 17.3285C19.4695 17.2384 19.9327 17.1746 20.4093 17.1379L19.964 11.3489C19.2598 11.4031 18.565 11.4982 17.8802 11.6352L19.0189 17.3285ZM20.4093 17.1379C20.9156 17.099 21.4763 17.0784 22.094 17.0784V11.2722C21.3493 11.2722 20.6384 11.297 19.964 11.3489L20.4093 17.1379ZM22.094 17.0784C23.2561 17.0784 24.1661 17.2053 24.8646 17.4071L26.476 11.8291C25.1309 11.4405 23.6566 11.2722 22.094 11.2722V17.0784ZM24.8646 17.4071C25.5944 17.6179 26.0533 17.8777 26.3398 18.1148L30.0416 13.6418C29.0111 12.789 27.7897 12.2086 26.476 11.8291L24.8646 17.4071ZM26.4244 18.1822C26.73 18.4165 26.9056 18.6573 27.0168 18.9194L32.3618 16.6519C31.8373 15.4153 31.0138 14.3846 29.957 13.5744L26.4244 18.1822ZM27.0607 19.0178C27.2072 19.3303 27.2972 19.7003 27.2972 20.1698H33.1033C33.1033 18.9137 32.8526 17.6942 32.3179 16.5535L27.0607 19.0178ZM27.2972 20.1698C27.2972 20.843 27.1264 21.3975 26.7886 21.9101L31.6364 25.1053C32.6156 23.6197 33.1033 21.949 33.1033 20.1698H27.2972ZM26.7633 21.9491C26.5817 22.2345 26.2586 22.5409 25.4895 22.7494L27.0091 28.3532C28.9194 27.8351 30.5717 26.7791 31.6617 25.0663L26.7633 21.9491ZM23.3462 25.5513V25.6535H29.1524V25.5513H23.3462ZM25.739 28.5113C26.0885 28.5738 26.4104 28.6838 26.7151 28.8422L29.3938 23.6909C28.5632 23.259 27.6817 22.9603 26.7596 22.7956L25.739 28.5113ZM26.7982 28.8837C27.0192 28.9898 27.216 29.1345 27.4004 29.3382L31.7058 25.4428C31.0273 24.6929 30.2251 24.0883 29.3107 23.6494L26.7982 28.8837ZM27.5003 29.4433C27.637 29.58 27.7763 29.7771 27.8946 30.0891L33.3233 28.0299C32.9421 27.0248 32.3775 26.1094 31.6059 25.3378L27.5003 29.4433ZM27.9265 30.1695C28.0226 30.4019 28.1146 30.7815 28.1146 31.3755H33.9207C33.9207 30.1985 33.7402 29.0341 33.2914 27.9495L27.9265 30.1695ZM28.1146 31.3755C28.1146 32.1925 27.9747 32.6989 27.8273 33.0023L33.05 35.539C33.6746 34.2529 33.9207 32.8293 33.9207 31.3755H28.1146ZM27.7984 33.0637C27.581 33.5391 27.3225 33.8853 27.039 34.147L30.9772 38.4133C31.8745 37.5851 32.5697 36.5916 33.0789 35.4776L27.7984 33.0637ZM27.0426 34.1437C26.7327 34.4288 26.3593 34.6725 25.8989 34.8679L28.1665 40.2129C29.2046 39.7725 30.1482 39.176 30.9737 38.4166L27.0426 34.1437ZM25.94 34.8508C25.3581 35.0872 24.7893 35.2638 24.2325 35.3856L25.4732 41.0576C26.3696 40.8615 27.254 40.5839 28.1253 40.23L25.94 34.8508ZM24.3012 35.3714C23.6974 35.4883 23.1433 35.5622 22.6365 35.5984L23.0501 41.3897C23.8149 41.3351 24.6005 41.2274 25.4045 41.0717L24.3012 35.3714ZM22.6365 35.5984C22.0361 35.6413 21.5894 35.6591 21.2765 35.6591V41.4652C21.7812 41.4652 22.3789 41.4377 23.0501 41.3897L22.6365 35.5984ZM43.0033 14.4478V11.5447H41.0115L40.2947 13.4031L43.0033 14.4478ZM48.4529 14.4478L51.1614 13.4031L50.4446 11.5447H48.4529V14.4478ZM57.649 38.2897V41.1928H61.8803L60.3576 37.245L57.649 38.2897ZM52.1994 38.2897L49.4524 39.2286L50.1237 41.1928H52.1994V38.2897ZM50.3602 32.9082L53.1073 31.9694L52.436 30.0052H50.3602V32.9082ZM40.7553 32.9082V30.0052H38.6796L38.0083 31.9694L40.7553 32.9082ZM38.9161 38.2897V41.1928H40.9918L41.6632 39.2286L38.9161 38.2897ZM33.8071 38.2897L31.0986 37.245L29.5758 41.1928H33.8071V38.2897ZM49.0319 28.9914V31.8944H53.0811L51.7813 28.0595L49.0319 28.9914ZM45.5918 18.8415L48.3413 17.9097L47.6732 15.9384H45.5918V18.8415ZM45.5237 18.8415V15.9384H43.4424L42.7743 17.9097L45.5237 18.8415ZM42.0837 28.9914L39.3342 28.0595L38.0345 31.8944H42.0837V28.9914ZM43.0033 17.3509H48.4529V11.5447H43.0033V17.3509ZM45.7443 15.4925L54.9405 39.3344L60.3576 37.245L51.1614 13.4031L45.7443 15.4925ZM57.649 35.3866H52.1994V41.1928H57.649V35.3866ZM54.9465 37.3508L53.1073 31.9694L47.6132 33.8471L49.4524 39.2286L54.9465 37.3508ZM50.3602 30.0052H40.7553V35.8113H50.3602V30.0052ZM38.0083 31.9694L36.169 37.3508L41.6632 39.2286L43.5024 33.8471L38.0083 31.9694ZM38.9161 35.3866H33.8071V41.1928H38.9161V35.3866ZM36.5157 39.3344L45.7118 15.4925L40.2947 13.4031L31.0986 37.245L36.5157 39.3344ZM51.7813 28.0595L48.3413 17.9097L42.8424 19.7734L46.2824 29.9232L51.7813 28.0595ZM45.5918 15.9384H45.5237V21.7446H45.5918V15.9384ZM42.7743 17.9097L39.3342 28.0595L44.8331 29.9232L48.2732 19.7734L42.7743 17.9097ZM42.0837 31.8944H49.0319V26.0883H42.0837V31.8944ZM62.8192 34.0663V36.9693H64.4629L65.3086 35.5599L62.8192 34.0663ZM64.2838 31.1031L61.584 30.0357L61.5774 30.0526L61.5709 30.0696L64.2838 31.1031ZM65.1693 28.1739L68.0108 28.7686L65.1693 28.1739ZM65.5781 25.2107L62.6869 24.9479L62.6839 24.9805L62.6817 25.0132L65.5781 25.2107ZM65.7143 14.4478V11.5447H62.8112V14.4478H65.7143ZM81.2456 14.4478H84.1487V11.5447H81.2456V14.4478ZM81.2456 34.0663H78.3425V36.9693H81.2456V34.0663ZM83.9704 34.0663H86.8734V31.1632H83.9704V34.0663ZM83.9704 43.2965V46.1996H86.8734V43.2965H83.9704ZM79.202 43.2965H76.2989V46.1996H79.202V43.2965ZM79.202 38.2897H82.1051V35.3866H79.202V38.2897ZM64.8628 38.2897V35.3866H61.9597V38.2897H64.8628ZM64.8628 43.2965V46.1996H67.7659V43.2965H64.8628ZM60.0944 43.2965H57.1913V46.1996H60.0944V43.2965ZM60.0944 34.0663V31.1632H57.1913V34.0663H60.0944ZM70.3124 18.6712V15.7681H67.4093V18.6712H70.3124ZM70.2102 25.4151L67.3133 25.2261L67.3113 25.2561L67.31 25.2862L70.2102 25.4151ZM69.8696 28.4123L67.0155 27.8813L67.0105 27.9082L67.006 27.9351L69.8696 28.4123ZM69.1543 31.2393L66.407 30.3012V30.3012L69.1543 31.2393ZM67.8601 34.0663L65.3395 32.6259L62.8576 36.9693H67.8601V34.0663ZM76.4091 34.0663V36.9693H79.3121V34.0663H76.4091ZM76.4091 18.6712H79.3121V15.7681H76.4091V18.6712ZM65.3086 35.5599C65.9953 34.4153 66.5634 33.2738 66.9967 32.1365L61.5709 30.0696C61.2775 30.8397 60.8692 31.6737 60.3298 32.5727L65.3086 35.5599ZM66.9835 32.1704C67.4269 31.0488 67.771 29.9145 68.0108 28.7686L62.3278 27.5792C62.159 28.3861 61.9126 29.2046 61.584 30.0357L66.9835 32.1704ZM68.0108 28.7686C68.2427 27.6608 68.3972 26.5403 68.4744 25.4082L62.6817 25.0132C62.6227 25.8793 62.5047 26.7343 62.3278 27.5792L68.0108 28.7686ZM68.4692 25.4735C68.5686 24.38 68.6174 23.2474 68.6174 22.0772H62.8112C62.8112 23.0868 62.7691 24.0433 62.6869 24.9479L68.4692 25.4735ZM68.6174 22.0772V14.4478H62.8112V22.0772H68.6174ZM65.7143 17.3509H81.2456V11.5447H65.7143V17.3509ZM78.3425 14.4478V34.0663H84.1487V14.4478H78.3425ZM81.2456 36.9693H83.9704V31.1632H81.2456V36.9693ZM81.0673 34.0663V43.2965H86.8734V34.0663H81.0673ZM83.9704 40.3934H79.202V46.1996H83.9704V40.3934ZM82.1051 43.2965V38.2897H76.2989V43.2965H82.1051ZM79.202 35.3866H64.8628V41.1928H79.202V35.3866ZM61.9597 38.2897V43.2965H67.7659V38.2897H61.9597ZM64.8628 40.3934H60.0944V46.1996H64.8628V40.3934ZM62.9975 43.2965V34.0663H57.1913V43.2965H62.9975ZM60.0944 36.9693H62.8192V31.1632H60.0944V36.9693ZM67.4093 18.6712V22.0772H73.2154V18.6712H67.4093ZM67.4093 22.0772C67.4093 23.2027 67.3768 24.2519 67.3133 25.2261L73.1071 25.604C73.1798 24.4893 73.2154 23.3132 73.2154 22.0772H67.4093ZM67.31 25.2862C67.2704 26.177 67.1717 27.0416 67.0155 27.8813L72.7237 28.9433C72.9308 27.8303 73.0592 26.6967 73.1104 25.544L67.31 25.2862ZM67.006 27.9351C66.8736 28.7295 66.6745 29.5178 66.407 30.3012L71.9017 32.1774C72.2699 31.0989 72.5477 30.0025 72.7332 28.8896L67.006 27.9351ZM66.407 30.3012C66.155 31.0392 65.8035 31.8139 65.3395 32.6259L70.3806 35.5066C71.0065 34.4113 71.5179 33.3014 71.9017 32.1774L66.407 30.3012ZM67.8601 36.9693H76.4091V31.1632H67.8601V36.9693ZM79.3121 34.0663V18.6712H73.506V34.0663H79.3121ZM76.4091 15.7681H70.3124V21.5743H76.4091V15.7681ZM95.7362 14.4478V11.5447H93.7444L93.0276 13.4031L95.7362 14.4478ZM101.186 14.4478L103.894 13.4031L103.178 11.5447H101.186V14.4478ZM110.382 38.2897V41.1928H114.613L113.091 37.245L110.382 38.2897ZM104.932 38.2897L102.185 39.2286L102.857 41.1928H104.932V38.2897ZM103.093 32.9082L105.84 31.9694L105.169 30.0052H103.093V32.9082ZM93.4883 32.9082V30.0052H91.4125L90.7412 31.9694L93.4883 32.9082ZM91.649 38.2897V41.1928H93.7248L94.3961 39.2286L91.649 38.2897ZM86.54 38.2897L83.8315 37.245L82.3087 41.1928H86.54V38.2897ZM101.765 28.9914V31.8944H105.814L104.514 28.0595L101.765 28.9914ZM98.3247 18.8415L101.074 17.9097L100.406 15.9384H98.3247V18.8415ZM98.2566 18.8415V15.9384H96.1753L95.5072 17.9097L98.2566 18.8415ZM94.8166 28.9914L92.0671 28.0595L90.7674 31.8944H94.8166V28.9914ZM95.7362 17.3509H101.186V11.5447H95.7362V17.3509ZM98.4772 15.4925L107.673 39.3344L113.091 37.245L103.894 13.4031L98.4772 15.4925ZM110.382 35.3866H104.932V41.1928H110.382V35.3866ZM107.679 37.3508L105.84 31.9694L100.346 33.8471L102.185 39.2286L107.679 37.3508ZM103.093 30.0052H93.4883V35.8113H103.093V30.0052ZM90.7412 31.9694L88.902 37.3508L94.3961 39.2286L96.2353 33.8471L90.7412 31.9694ZM91.649 35.3866H86.54V41.1928H91.649V35.3866ZM89.2486 39.3344L98.4448 15.4925L93.0276 13.4031L83.8315 37.245L89.2486 39.3344ZM104.514 28.0595L101.074 17.9097L95.5753 19.7734L99.0154 29.9232L104.514 28.0595ZM98.3247 15.9384H98.2566V21.7446H98.3247V15.9384ZM95.5072 17.9097L92.0671 28.0595L97.566 29.9232L101.006 19.7734L95.5072 17.9097ZM94.8166 31.8944H101.765V26.0883H94.8166V31.8944ZM119.832 14.4478H122.736V11.5447H119.832V14.4478ZM119.832 24.0527H116.929V26.9557H119.832V24.0527ZM129.505 24.0527V26.9557H132.409V24.0527H129.505ZM129.505 14.4478V11.5447H126.602V14.4478H129.505ZM134.342 14.4478H137.245V11.5447H134.342V14.4478ZM134.342 38.2897V41.1928H137.245V38.2897H134.342ZM129.505 38.2897H126.602V41.1928H129.505V38.2897ZM129.505 27.9696H132.409V25.0665H129.505V27.9696ZM119.832 27.9696V25.0665H116.929V27.9696H119.832ZM119.832 38.2897V41.1928H122.736V38.2897H119.832ZM114.996 38.2897H112.093V41.1928H114.996V38.2897ZM114.996 14.4478V11.5447H112.093V14.4478H114.996ZM116.929 14.4478V24.0527H122.736V14.4478H116.929ZM119.832 26.9557H129.505V21.1496H119.832V26.9557ZM132.409 24.0527V14.4478H126.602V24.0527H132.409ZM129.505 17.3509H134.342V11.5447H129.505V17.3509ZM131.439 14.4478V38.2897H137.245V14.4478H131.439ZM134.342 35.3866H129.505V41.1928H134.342V35.3866ZM132.409 38.2897V27.9696H126.602V38.2897H132.409ZM129.505 25.0665H119.832V30.8726H129.505V25.0665ZM116.929 27.9696V38.2897H122.736V27.9696H116.929ZM119.832 35.3866H114.996V41.1928H119.832V35.3866ZM117.899 38.2897V14.4478H112.093V38.2897H117.899ZM114.996 17.3509H119.832V11.5447H114.996V17.3509ZM145.65 14.4478H148.553V11.5447H145.65V14.4478ZM145.65 26.7093L148.553 26.7606L148.553 26.735V26.7093H145.65ZM145.548 32.4995L142.645 32.4483L142.593 35.4026H145.548V32.4995ZM145.65 32.4995V35.4026H147.46L148.257 33.7773L145.65 32.4995ZM147.353 29.0254L144.834 27.5832L144.787 27.664L144.746 27.7476L147.353 29.0254ZM155.698 14.4478V11.5447H154.015L153.178 13.0056L155.698 14.4478ZM161.488 14.4478H164.391V11.5447H161.488V14.4478ZM161.488 38.2897V41.1928H164.391V38.2897H161.488ZM156.651 38.2897H153.748V41.1928H156.651V38.2897ZM156.651 25.9941L153.749 25.9426L153.748 25.9683V25.9941H156.651ZM156.754 20.238L159.656 20.2895L159.709 17.3349H156.754V20.238ZM156.651 20.238V17.3349H154.779L154.007 19.0404L156.651 20.238ZM155.017 23.8483L157.525 25.3096L157.6 25.1812L157.661 25.0458L155.017 23.8483ZM146.604 38.2897V41.1928H148.272L149.112 39.751L146.604 38.2897ZM140.814 38.2897H137.911V41.1928H140.814V38.2897ZM140.814 14.4478V11.5447H137.911V14.4478H140.814ZM142.747 14.4478V26.7093H148.553V14.4478H142.747ZM142.748 26.6581L142.645 32.4483L148.451 32.5507L148.553 26.7606L142.748 26.6581ZM145.548 35.4026H145.65V29.5965H145.548V35.4026ZM148.257 33.7773L149.96 30.3032L144.746 27.7476L143.043 31.2217L148.257 33.7773ZM149.873 30.4676L158.217 15.89L153.178 13.0056L144.834 27.5832L149.873 30.4676ZM155.698 17.3509H161.488V11.5447H155.698V17.3509ZM158.585 14.4478V38.2897H164.391V14.4478H158.585ZM161.488 35.3866H156.651V41.1928H161.488V35.3866ZM159.555 38.2897V25.9941H153.748V38.2897H159.555ZM159.554 26.0456L159.656 20.2895L153.851 20.1864L153.749 25.9426L159.554 26.0456ZM156.754 17.3349H156.651V23.141H156.754V17.3349ZM154.007 19.0404L152.372 22.6508L157.661 25.0458L159.296 21.4355L154.007 19.0404ZM152.508 22.387L144.095 36.8284L149.112 39.751L157.525 25.3096L152.508 22.387ZM146.604 35.3866H140.814V41.1928H146.604V35.3866ZM143.717 38.2897V14.4478H137.911V38.2897H143.717ZM140.814 17.3509H145.65V11.5447H140.814V17.3509ZM182.199 14.4478H185.102V11.5447H182.199V14.4478ZM182.199 18.6712V21.5743H185.102V18.6712H182.199ZM172.798 18.6712V15.7681H169.895V18.6712H172.798ZM172.798 24.0527H169.895V26.9557H172.798V24.0527ZM181.347 24.0527H184.25V21.1496H181.347V24.0527ZM181.347 27.9696V30.8726H184.25V27.9696H181.347ZM172.798 27.9696V25.0665H169.895V27.9696H172.798ZM172.798 34.0663H169.895V36.9693H172.798V34.0663ZM182.199 34.0663H185.102V31.1632H182.199V34.0663ZM182.199 38.2897V41.1928H185.102V38.2897H182.199ZM167.962 38.2897H165.059V41.1928H167.962V38.2897ZM167.962 14.4478V11.5447H165.059V14.4478H167.962ZM179.296 14.4478V18.6712H185.102V14.4478H179.296ZM182.199 15.7681H172.798V21.5743H182.199V15.7681ZM169.895 18.6712V24.0527H175.701V18.6712H169.895ZM172.798 26.9557H181.347V21.1496H172.798V26.9557ZM178.444 24.0527V27.9696H184.25V24.0527H178.444ZM181.347 25.0665H172.798V30.8726H181.347V25.0665ZM169.895 27.9696V34.0663H175.701V27.9696H169.895ZM172.798 36.9693H182.199V31.1632H172.798V36.9693ZM179.296 34.0663V38.2897H185.102V34.0663H179.296ZM182.199 35.3866H167.962V41.1928H182.199V35.3866ZM170.865 38.2897V14.4478H165.059V38.2897H170.865ZM167.962 17.3509H182.199V11.5447H167.962V17.3509Z" fill="#0094FF"/>
</g>
<defs>
<filter id="filter0_f_474_15907" x="0.895432" y="0.776555" width="194.702" height="55.9187" filterUnits="userSpaceOnUse" color-interpolation-filters="sRGB">
<feFlood flood-opacity="0" result="BackgroundImageFix"/>
<feBlend mode="normal" in="SourceGraphic" in2="BackgroundImageFix" result="shape"/>
<feGaussianBlur stdDeviation="6.69938" result="effect1_foregroundBlur_474_15907"/>
</filter>
</defs>
</svg>
