<svg viewBox="0 0 193 48" fill="none" xmlns="http://www.w3.org/2000/svg">
<g filter="url(#filter0_f_605_6584)">
<path d="M15.575 35.42C14.245 35.42 12.9383 35.28 11.655 35C10.3717 34.7433 9.11167 34.3817 7.875 33.915V29.05C8.855 29.47 9.94 29.8783 11.13 30.275C12.3433 30.6717 13.65 30.87 15.05 30.87C16.73 30.87 17.92 30.5667 18.62 29.96C19.3433 29.3533 19.705 28.5483 19.705 27.545C19.705 27.1017 19.6233 26.6933 19.46 26.32C19.32 25.9467 19.0633 25.6433 18.69 25.41C18.3167 25.1533 17.815 24.955 17.185 24.815C16.5783 24.675 15.8083 24.605 14.875 24.605H12.215V20.09H14.875C16.4617 20.09 17.57 19.8333 18.2 19.32C18.8533 18.7833 19.18 18.0833 19.18 17.22C19.18 16.45 18.8883 15.8317 18.305 15.365C17.745 14.875 16.7767 14.63 15.4 14.63C14.1633 14.63 12.985 14.77 11.865 15.05C10.7683 15.3067 9.75333 15.68 8.82 16.17V11.305C11.2233 10.4883 13.7433 10.08 16.38 10.08C18.0133 10.08 19.4133 10.2433 20.58 10.57C21.77 10.8967 22.7383 11.3633 23.485 11.97C24.255 12.5533 24.815 13.2533 25.165 14.07C25.5383 14.8867 25.725 15.785 25.725 16.765C25.725 18.1417 25.3283 19.32 24.535 20.3C23.7417 21.2567 22.6567 21.91 21.28 22.26V22.33C22.0033 22.4467 22.6683 22.6683 23.275 22.995C23.905 23.2983 24.4417 23.695 24.885 24.185C25.3517 24.6517 25.7133 25.2117 25.97 25.865C26.2267 26.5183 26.355 27.23 26.355 28C26.355 29.0267 26.145 29.995 25.725 30.905C25.305 31.7917 24.6517 32.5733 23.765 33.25C22.8783 33.9267 21.7583 34.4633 20.405 34.86C19.0517 35.2333 17.4417 35.42 15.575 35.42ZM37.0768 10.5H45.1268L53.8768 35H46.8768L45.2318 29.82H36.5868L34.9768 35H28.3268L37.0768 10.5ZM43.7618 25.095L40.9618 15.75H40.8918L38.0568 25.095H43.7618ZM66.3704 15.12V16.905C66.3704 18.095 66.3237 19.4367 66.2304 20.93C66.1604 22.4233 65.8921 24.0567 65.4254 25.83C65.1687 26.7633 64.9004 27.5917 64.6204 28.315C64.3404 29.015 64.0137 29.7033 63.6404 30.38H72.2504V15.12H66.3704ZM57.4104 30.38C57.7604 29.7033 58.1221 28.9217 58.4954 28.035C58.8921 27.1483 59.2187 26.3083 59.4754 25.515C59.8021 24.395 60.0587 23.065 60.2454 21.525C60.4554 19.9617 60.5604 18.025 60.5604 15.715V10.5H78.7604V30.38H81.7004V40.705H75.4004V35H61.5754V40.705H55.2754V30.38H57.4104ZM92.0172 10.5H100.067L108.817 35H101.817L100.172 29.82H91.5272L89.9172 35H83.2672L92.0172 10.5ZM98.7022 25.095L95.9022 15.75H95.8322L92.9972 25.095H98.7022ZM112.491 10.5H119.001V19.88H126.701V10.5H133.211V35H126.701V24.5H119.001V35H112.491V10.5ZM139.5 10.5H146.01V21L145.8 27.02H146.01L153.57 10.5H161.375V35H154.865V24.5L155.075 18.48H154.865L147.305 35H139.5V10.5ZM167.671 10.5H184.891V15.12H174.181V20.195H184.296V24.815H174.181V30.38H185.276V35H167.671V10.5Z" fill="#0094FF"/>
</g>
<g filter="url(#filter1_f_605_6584)">
<path d="M15.575 35.42C14.245 35.42 12.9383 35.28 11.655 35C10.3717 34.7433 9.11167 34.3817 7.875 33.915V29.05C8.855 29.47 9.94 29.8783 11.13 30.275C12.3433 30.6717 13.65 30.87 15.05 30.87C16.73 30.87 17.92 30.5667 18.62 29.96C19.3433 29.3533 19.705 28.5483 19.705 27.545C19.705 27.1017 19.6233 26.6933 19.46 26.32C19.32 25.9467 19.0633 25.6433 18.69 25.41C18.3167 25.1533 17.815 24.955 17.185 24.815C16.5783 24.675 15.8083 24.605 14.875 24.605H12.215V20.09H14.875C16.4617 20.09 17.57 19.8333 18.2 19.32C18.8533 18.7833 19.18 18.0833 19.18 17.22C19.18 16.45 18.8883 15.8317 18.305 15.365C17.745 14.875 16.7767 14.63 15.4 14.63C14.1633 14.63 12.985 14.77 11.865 15.05C10.7683 15.3067 9.75333 15.68 8.82 16.17V11.305C11.2233 10.4883 13.7433 10.08 16.38 10.08C18.0133 10.08 19.4133 10.2433 20.58 10.57C21.77 10.8967 22.7383 11.3633 23.485 11.97C24.255 12.5533 24.815 13.2533 25.165 14.07C25.5383 14.8867 25.725 15.785 25.725 16.765C25.725 18.1417 25.3283 19.32 24.535 20.3C23.7417 21.2567 22.6567 21.91 21.28 22.26V22.33C22.0033 22.4467 22.6683 22.6683 23.275 22.995C23.905 23.2983 24.4417 23.695 24.885 24.185C25.3517 24.6517 25.7133 25.2117 25.97 25.865C26.2267 26.5183 26.355 27.23 26.355 28C26.355 29.0267 26.145 29.995 25.725 30.905C25.305 31.7917 24.6517 32.5733 23.765 33.25C22.8783 33.9267 21.7583 34.4633 20.405 34.86C19.0517 35.2333 17.4417 35.42 15.575 35.42ZM37.0768 10.5H45.1268L53.8768 35H46.8768L45.2318 29.82H36.5868L34.9768 35H28.3268L37.0768 10.5ZM43.7618 25.095L40.9618 15.75H40.8918L38.0568 25.095H43.7618ZM66.3704 15.12V16.905C66.3704 18.095 66.3237 19.4367 66.2304 20.93C66.1604 22.4233 65.8921 24.0567 65.4254 25.83C65.1687 26.7633 64.9004 27.5917 64.6204 28.315C64.3404 29.015 64.0137 29.7033 63.6404 30.38H72.2504V15.12H66.3704ZM57.4104 30.38C57.7604 29.7033 58.1221 28.9217 58.4954 28.035C58.8921 27.1483 59.2187 26.3083 59.4754 25.515C59.8021 24.395 60.0587 23.065 60.2454 21.525C60.4554 19.9617 60.5604 18.025 60.5604 15.715V10.5H78.7604V30.38H81.7004V40.705H75.4004V35H61.5754V40.705H55.2754V30.38H57.4104ZM92.0172 10.5H100.067L108.817 35H101.817L100.172 29.82H91.5272L89.9172 35H83.2672L92.0172 10.5ZM98.7022 25.095L95.9022 15.75H95.8322L92.9972 25.095H98.7022ZM112.491 10.5H119.001V19.88H126.701V10.5H133.211V35H126.701V24.5H119.001V35H112.491V10.5ZM139.5 10.5H146.01V21L145.8 27.02H146.01L153.57 10.5H161.375V35H154.865V24.5L155.075 18.48H154.865L147.305 35H139.5V10.5ZM167.671 10.5H184.891V15.12H174.181V20.195H184.296V24.815H174.181V30.38H185.276V35H167.671V10.5Z" fill="white"/>
</g>
<defs>
<filter id="filter0_f_605_6584" x="0.875" y="3.08008" width="191.401" height="44.625" filterUnits="userSpaceOnUse" color-interpolation-filters="sRGB">
<feFlood flood-opacity="0" result="BackgroundImageFix"/>
<feBlend mode="normal" in="SourceGraphic" in2="BackgroundImageFix" result="shape"/>
<feGaussianBlur stdDeviation="3.5" result="effect1_foregroundBlur_605_6584"/>
</filter>
<filter id="filter1_f_605_6584" x="7.59843" y="9.80351" width="177.954" height="31.1781" filterUnits="userSpaceOnUse" color-interpolation-filters="sRGB">
<feFlood flood-opacity="0" result="BackgroundImageFix"/>
<feBlend mode="normal" in="SourceGraphic" in2="BackgroundImageFix" result="shape"/>
<feGaussianBlur stdDeviation="0.138283" result="effect1_foregroundBlur_605_6584"/>
</filter>
</defs>
</svg>
