<svg viewBox="0 0 145 51" fill="none" xmlns="http://www.w3.org/2000/svg">
<g clip-path="url(#clip0_474_16505)">
<path d="M9.86108 -0.00305176L7.39164 6.66921H41.6102L44.0796 -0.00305176H9.86108ZM6.15766 10.0031L3.68822 16.674H37.9067L40.3762 10.0031H6.15766ZM2.46016 20.0094L-0.00927734 26.6802H34.2092L36.6772 20.0094H2.46016Z" fill="white"/>
<path d="M72.7368 29.223V29.3644C74.3007 29.9297 75.7951 30.9206 76.5778 31.5559C78.9955 33.5362 80.0637 36.1517 80.0637 39.5454C80.0637 45.1336 77.0764 49.1625 72.1686 50.4361C70.6742 50.8601 69.1103 51.0015 66.194 51.0015H51.3315V10.1315H64.4895C67.1928 10.1315 69.0408 10.2729 70.6757 10.6954C75.4415 11.969 78.5708 15.2213 78.5708 20.3825C78.5708 23.1409 77.5751 25.4752 75.9401 27.03C75.2284 27.7367 74.2327 28.5862 72.7397 29.2216L72.7368 29.223ZM59.5803 33.5362V44.284H65.2708C66.9767 44.284 68.5422 44.1427 69.68 43.0819C70.8178 42.0211 71.3149 40.6776 71.3149 38.9101C71.3149 37.5681 70.9583 36.2945 70.2481 35.3751C69.0393 33.8902 67.5449 33.5362 64.9852 33.5362H59.5803ZM59.5078 26.4646H64.1315C65.5534 26.4646 66.2651 26.4646 66.9753 26.2534C68.8972 25.6865 70.1061 23.9919 70.1061 21.6575C70.1061 18.9006 68.8262 17.697 66.9753 17.1331C66.1926 16.9204 65.4113 16.8504 63.8459 16.8504H59.5078V26.4646ZM92.4375 51.0029V16.9903H80.5609V10.133H113.563L111.217 16.9903H100.689V51.0029H92.4375ZM116.123 51.0029V10.133H142.866L140.52 16.9903H124.304V26.0421H130.919C136.253 26.0421 139.027 27.3156 140.947 28.9403C142.442 30.2139 145.002 33.0407 145.002 38.6289C145.002 44.1441 142.371 47.1838 140.165 48.74C137.605 50.506 134.902 51.0029 129.424 51.0029H116.123ZM124.302 44.1427H130.49C132.836 44.1427 134.258 43.5773 135.254 42.3038C135.751 41.6685 136.463 40.5348 136.463 38.4147C136.463 36.2945 135.751 34.8082 134.329 33.7474C133.477 33.1121 132.338 32.7595 130.417 32.7595H124.301L124.302 44.1427Z" fill="white"/>
</g>
<defs>
<clipPath id="clip0_474_16505">
<rect width="145" height="51" fill="white"/>
</clipPath>
</defs>
</svg>
