<svg viewBox="0 0 285 322" fill="none" xmlns="http://www.w3.org/2000/svg">
<g filter="url(#filter0_f_576_3724)">
<g style="mix-blend-mode:hard-light" filter="url(#filter1_f_576_3724)">
<path d="M209.605 79.2379C173.821 48.0941 115.273 86.7377 126.298 138.741C143.753 221.079 215.846 176.431 184.486 145.036C153.127 113.642 105.719 133.692 83.4396 168.952C68.301 192.912 64.3737 236.747 100.963 259.865" stroke="#0094FF" stroke-width="11.0165" stroke-linecap="round"/>
</g>
<g style="mix-blend-mode:hard-light" filter="url(#filter2_f_576_3724)">
<path d="M209.605 79.2379C173.821 48.0941 115.273 86.7377 126.298 138.741C143.753 221.079 215.846 176.431 184.486 145.036C153.127 113.642 105.719 133.692 83.4396 168.952C68.301 192.912 64.3737 236.747 100.963 259.865" stroke="#0094FF" stroke-width="14.4062" stroke-linecap="round"/>
</g>
<g style="mix-blend-mode:hard-light" filter="url(#filter3_ddi_576_3724)">
<path d="M209.605 79.2379C173.821 48.0941 115.273 86.7377 126.298 138.741C143.753 221.079 215.846 176.431 184.486 145.036C153.127 113.642 105.719 133.692 83.4396 168.952C68.301 192.912 64.3737 236.747 100.963 259.865" stroke="#00B3FF" stroke-opacity="0.2" stroke-width="11.0165" stroke-linecap="round"/>
</g>
<g filter="url(#filter4_f_576_3724)">
<path d="M209.605 79.2379C173.821 48.0941 115.273 86.7377 126.298 138.741C143.753 221.079 215.846 176.431 184.486 145.036C153.127 113.642 105.719 133.692 83.4396 168.952C68.301 192.912 64.3737 236.747 100.963 259.865" stroke="#82D9FF" stroke-width="6.77938" stroke-linecap="round"/>
</g>
<g filter="url(#filter5_f_576_3724)">
<path d="M209.605 79.2379C173.821 48.0941 115.273 86.7377 126.298 138.741C143.753 221.079 215.846 176.431 184.486 145.036C153.127 113.642 105.719 133.692 83.4396 168.952C68.301 192.912 64.3737 236.747 100.963 259.865" stroke="white" stroke-width="3.38969" stroke-linecap="round"/>
</g>
</g>
<defs>
<filter id="filter0_f_576_3724" x="0.779151" y="0.781227" width="283.419" height="320.707" filterUnits="userSpaceOnUse" color-interpolation-filters="sRGB">
<feFlood flood-opacity="0" result="BackgroundImageFix"/>
<feBlend mode="normal" in="SourceGraphic" in2="BackgroundImageFix" result="shape"/>
<feGaussianBlur stdDeviation="2.61036" result="effect1_foregroundBlur_576_3724"/>
</filter>
<filter id="filter1_f_576_3724" x="16.1058" y="11.7289" width="249.853" height="304.49" filterUnits="userSpaceOnUse" color-interpolation-filters="sRGB">
<feFlood flood-opacity="0" result="BackgroundImageFix"/>
<feBlend mode="normal" in="SourceGraphic" in2="BackgroundImageFix" result="shape"/>
<feGaussianBlur stdDeviation="25.4227" result="effect1_foregroundBlur_576_3724"/>
</filter>
<filter id="filter2_f_576_3724" x="48.3079" y="43.9305" width="185.449" height="240.087" filterUnits="userSpaceOnUse" color-interpolation-filters="sRGB">
<feFlood flood-opacity="0" result="BackgroundImageFix"/>
<feBlend mode="normal" in="SourceGraphic" in2="BackgroundImageFix" result="shape"/>
<feGaussianBlur stdDeviation="8.47422" result="effect1_foregroundBlur_576_3724"/>
</filter>
<filter id="filter3_ddi_576_3724" x="44.9182" y="57.4897" width="192.228" height="246.866" filterUnits="userSpaceOnUse" color-interpolation-filters="sRGB">
<feFlood flood-opacity="0" result="BackgroundImageFix"/>
<feColorMatrix in="SourceAlpha" type="matrix" values="0 0 0 0 0 0 0 0 0 0 0 0 0 0 0 0 0 0 127 0" result="hardAlpha"/>
<feOffset dy="11.0165"/>
<feGaussianBlur stdDeviation="4.23711"/>
<feColorMatrix type="matrix" values="0 0 0 0 0 0 0 0 0 0.051 0 0 0 0 0.082 0 0 0 0.7 0"/>
<feBlend mode="multiply" in2="BackgroundImageFix" result="effect1_dropShadow_576_3724"/>
<feColorMatrix in="SourceAlpha" type="matrix" values="0 0 0 0 0 0 0 0 0 0 0 0 0 0 0 0 0 0 127 0" result="hardAlpha"/>
<feOffset dy="16.9484"/>
<feGaussianBlur stdDeviation="11.0165"/>
<feColorMatrix type="matrix" values="0 0 0 0 0 0 0 0 0 0.4 0 0 0 0 1 0 0 0 1 0"/>
<feBlend mode="color-dodge" in2="effect1_dropShadow_576_3724" result="effect2_dropShadow_576_3724"/>
<feBlend mode="normal" in="SourceGraphic" in2="effect2_dropShadow_576_3724" result="shape"/>
<feColorMatrix in="SourceAlpha" type="matrix" values="0 0 0 0 0 0 0 0 0 0 0 0 0 0 0 0 0 0 127 0" result="hardAlpha"/>
<feOffset dx="-1.10165" dy="2.2033"/>
<feGaussianBlur stdDeviation="0.550824"/>
<feComposite in2="hardAlpha" operator="arithmetic" k2="-1" k3="1"/>
<feColorMatrix type="matrix" values="0 0 0 0 1 0 0 0 0 1 0 0 0 0 1 0 0 0 0.5 0"/>
<feBlend mode="normal" in2="shape" result="effect3_innerShadow_576_3724"/>
</filter>
<filter id="filter4_f_576_3724" x="67.375" y="62.9985" width="147.315" height="201.951" filterUnits="userSpaceOnUse" color-interpolation-filters="sRGB">
<feFlood flood-opacity="0" result="BackgroundImageFix"/>
<feBlend mode="normal" in="SourceGraphic" in2="BackgroundImageFix" result="shape"/>
<feGaussianBlur stdDeviation="0.847422" result="effect1_foregroundBlur_576_3724"/>
</filter>
<filter id="filter5_f_576_3724" x="69.6348" y="65.2578" width="142.795" height="197.433" filterUnits="userSpaceOnUse" color-interpolation-filters="sRGB">
<feFlood flood-opacity="0" result="BackgroundImageFix"/>
<feBlend mode="normal" in="SourceGraphic" in2="BackgroundImageFix" result="shape"/>
<feGaussianBlur stdDeviation="0.564948" result="effect1_foregroundBlur_576_3724"/>
</filter>
</defs>
</svg>
