<svg viewBox="0 0 67 76" fill="none" xmlns="http://www.w3.org/2000/svg">
<g style="mix-blend-mode:hard-light" filter="url(#filter0_f_611_3688)">
<path d="M45.3509 20V18.268H43.6189H20H18.268V20V56V57.732H20H33.4965C36.2721 57.732 38.6867 57.3556 40.661 56.513L40.6685 56.5098L40.676 56.5065C42.556 55.6831 44.1202 54.6462 45.2787 53.3492C46.3972 52.1018 47.2201 50.7462 47.6926 49.2797C48.1182 47.9586 48.356 46.6952 48.356 45.5086C48.356 44.1713 48.1548 42.7722 47.7732 41.3189C47.3528 39.6822 46.5594 38.188 45.4267 36.8431C44.2705 35.4274 42.6991 34.3247 40.8005 33.4904C38.8075 32.5637 36.341 32.1537 33.4965 32.1537H29.2183V28.1091H43.6189H45.3509V26.3771V20ZM35.9003 42.2374L35.9232 42.2555L35.9467 42.2729C36.5426 42.7133 36.9839 43.4691 36.9839 44.9429C36.9839 46.4112 36.5444 47.2031 35.9234 47.6817C35.2162 48.2194 34.0306 48.6109 32.1258 48.6109H29.2183V41.2749H32.1258C34.0209 41.2749 35.1962 41.6793 35.9003 42.2374Z" stroke="#0094FF" stroke-width="3.464"/>
</g>
<g style="mix-blend-mode:hard-light" filter="url(#filter1_f_611_3688)">
<path d="M45.8838 20V17.7351H43.6189H20H17.7351V20V56V58.2649H20H33.4965C36.315 58.2649 38.8075 57.8835 40.8702 57.0031L40.88 56.999L40.8898 56.9947C42.8179 56.1502 44.4522 55.0741 45.675 53.7055C46.8353 52.4116 47.7008 50.992 48.1998 49.4431C48.6375 48.0848 48.8889 46.765 48.8889 45.5086C48.8889 44.1185 48.6799 42.674 48.289 41.1849C47.8474 39.4666 47.0154 37.9029 45.8369 36.5028C44.6171 35.0106 42.9733 33.8639 41.0201 33.0048C38.9332 32.0357 36.3839 31.6208 33.4965 31.6208H29.7513V28.6421H43.6189H45.8838V26.3771V20ZM35.5692 42.655L35.5992 42.6788L35.63 42.7015C36.0524 43.0137 36.4509 43.5853 36.4509 44.9429C36.4509 46.2927 36.0551 46.9068 35.5995 47.2586C35.0203 47.6981 33.9672 48.0779 32.1258 48.0779H29.7513V41.8078H32.1258C33.9551 41.8078 34.9946 42.1996 35.5692 42.655Z" stroke="#0094FF" stroke-width="4.52984"/>
</g>
<g style="mix-blend-mode:hard-light" filter="url(#filter2_ddi_611_3688)">
<path d="M45.3509 20V18.268H43.6189H20H18.268V20V56V57.732H20H33.4965C36.2721 57.732 38.6867 57.3556 40.661 56.513L40.6685 56.5098L40.676 56.5065C42.556 55.6831 44.1202 54.6462 45.2787 53.3492C46.3972 52.1018 47.2201 50.7462 47.6926 49.2797C48.1182 47.9586 48.356 46.6952 48.356 45.5086C48.356 44.1713 48.1548 42.7722 47.7732 41.3189C47.3528 39.6822 46.5594 38.188 45.4267 36.8431C44.2705 35.4274 42.6991 34.3247 40.8005 33.4904C38.8075 32.5637 36.341 32.1537 33.4965 32.1537H29.2183V28.1091H43.6189H45.3509V26.3771V20ZM35.9003 42.2374L35.9232 42.2555L35.9467 42.2729C36.5426 42.7133 36.9839 43.4691 36.9839 44.9429C36.9839 46.4112 36.5444 47.2031 35.9234 47.6817C35.2162 48.2194 34.0306 48.6109 32.1258 48.6109H29.2183V41.2749H32.1258C34.0209 41.2749 35.1962 41.6793 35.9003 42.2374Z" stroke="#00B3FF" stroke-opacity="0.2" stroke-width="3.464"/>
</g>
<g filter="url(#filter3_f_611_3688)">
<path d="M44.6847 20V18.9342H43.6189H20H18.9342V20V56V57.0658H20H33.4965C36.2184 57.0658 38.5357 56.6957 40.3995 55.9003L40.3996 55.9003L40.4088 55.8963C42.2281 55.0995 43.7045 54.1119 44.7824 52.9048C45.8491 51.7153 46.6191 50.4394 47.0585 49.0754C47.4692 47.8009 47.6898 46.6081 47.6898 45.5086C47.6898 44.2372 47.4984 42.8949 47.1284 41.4863C46.7345 39.9516 45.9894 38.5441 44.9138 37.2682C43.8372 35.9486 42.3564 34.9008 40.526 34.0974C38.6505 33.2237 36.2877 32.8199 33.4965 32.8199H28.5522V27.443H43.6189H44.6847V26.3771V20ZM36.314 41.7153L36.3281 41.7265L36.3426 41.7372C37.1554 42.3379 37.65 43.3238 37.65 44.9429C37.65 46.5588 37.1564 47.5734 36.3282 48.2108C35.4606 48.8712 34.1093 49.277 32.1258 49.277H28.5522V40.6087H32.1258C34.1031 40.6087 35.4482 41.029 36.314 41.7153Z" stroke="#82D9FF" stroke-width="2.13169"/>
</g>
<g filter="url(#filter4_f_611_3688)">
<path d="M44.1518 20V19.4671H43.6189H20H19.4671V20V56V56.5329H20H33.4965C36.1755 56.5329 38.4149 56.1679 40.1904 55.4102L40.195 55.4082C41.9657 54.6326 43.3717 53.6845 44.3852 52.5496C45.4106 51.4062 46.1383 50.194 46.5513 48.912C46.9499 47.6747 47.1569 46.5383 47.1569 45.5086C47.1569 44.2901 46.9734 42.9933 46.6126 41.6206C46.24 40.1674 45.5335 38.8293 44.5037 37.6084C43.4908 36.3657 42.0825 35.3618 40.3063 34.583C38.5249 33.7518 36.2452 33.3528 33.4965 33.3528H28.0193V26.9101H43.6189H44.1518V26.3771V20ZM36.6451 41.2976L36.6521 41.3032L36.6594 41.3086C37.6457 42.0375 38.1829 43.2076 38.1829 44.9429C38.1829 46.6767 37.6461 47.8697 36.652 48.6341C35.6559 49.3927 34.1719 49.8099 32.1258 49.8099H28.0193V40.0758H32.1258C34.1688 40.0758 35.6498 40.5088 36.6451 41.2976Z" stroke="white" stroke-width="1.06584"/>
</g>
<defs>
<filter id="filter0_f_611_3688" x="0.548462" y="0.548462" width="65.5271" height="74.9031" filterUnits="userSpaceOnUse" color-interpolation-filters="sRGB">
<feFlood flood-opacity="0" result="BackgroundImageFix"/>
<feBlend mode="normal" in="SourceGraphic" in2="BackgroundImageFix" result="shape"/>
<feGaussianBlur stdDeviation="7.99384" result="effect1_foregroundBlur_611_3688"/>
</filter>
<filter id="filter1_f_611_3688" x="10.141" y="10.141" width="46.342" height="55.718" filterUnits="userSpaceOnUse" color-interpolation-filters="sRGB">
<feFlood flood-opacity="0" result="BackgroundImageFix"/>
<feBlend mode="normal" in="SourceGraphic" in2="BackgroundImageFix" result="shape"/>
<feGaussianBlur stdDeviation="2.66461" result="effect1_foregroundBlur_611_3688"/>
</filter>
<filter id="filter2_ddi_611_3688" x="9.60814" y="14.9374" width="47.4077" height="56.7837" filterUnits="userSpaceOnUse" color-interpolation-filters="sRGB">
<feFlood flood-opacity="0" result="BackgroundImageFix"/>
<feColorMatrix in="SourceAlpha" type="matrix" values="0 0 0 0 0 0 0 0 0 0 0 0 0 0 0 0 0 0 127 0" result="hardAlpha"/>
<feOffset dy="3.464"/>
<feGaussianBlur stdDeviation="1.33231"/>
<feColorMatrix type="matrix" values="0 0 0 0 0 0 0 0 0 0.051 0 0 0 0 0.082 0 0 0 0.7 0"/>
<feBlend mode="multiply" in2="BackgroundImageFix" result="effect1_dropShadow_611_3688"/>
<feColorMatrix in="SourceAlpha" type="matrix" values="0 0 0 0 0 0 0 0 0 0 0 0 0 0 0 0 0 0 127 0" result="hardAlpha"/>
<feOffset dy="5.32922"/>
<feGaussianBlur stdDeviation="3.464"/>
<feColorMatrix type="matrix" values="0 0 0 0 0 0 0 0 0 0.4 0 0 0 0 1 0 0 0 1 0"/>
<feBlend mode="color-dodge" in2="effect1_dropShadow_611_3688" result="effect2_dropShadow_611_3688"/>
<feBlend mode="normal" in="SourceGraphic" in2="effect2_dropShadow_611_3688" result="shape"/>
<feColorMatrix in="SourceAlpha" type="matrix" values="0 0 0 0 0 0 0 0 0 0 0 0 0 0 0 0 0 0 127 0" result="hardAlpha"/>
<feOffset dx="-0.3464" dy="0.692799"/>
<feGaussianBlur stdDeviation="0.1732"/>
<feComposite in2="hardAlpha" operator="arithmetic" k2="-1" k3="1"/>
<feColorMatrix type="matrix" values="0 0 0 0 1 0 0 0 0 1 0 0 0 0 1 0 0 0 0.5 0"/>
<feBlend mode="normal" in2="shape" result="effect3_innerShadow_611_3688"/>
</filter>
<filter id="filter3_f_611_3688" x="17.3352" y="17.3352" width="31.9535" height="41.3295" filterUnits="userSpaceOnUse" color-interpolation-filters="sRGB">
<feFlood flood-opacity="0" result="BackgroundImageFix"/>
<feBlend mode="normal" in="SourceGraphic" in2="BackgroundImageFix" result="shape"/>
<feGaussianBlur stdDeviation="0.266461" result="effect1_foregroundBlur_611_3688"/>
</filter>
<filter id="filter4_f_611_3688" x="18.5788" y="18.5788" width="29.4664" height="38.8424" filterUnits="userSpaceOnUse" color-interpolation-filters="sRGB">
<feFlood flood-opacity="0" result="BackgroundImageFix"/>
<feBlend mode="normal" in="SourceGraphic" in2="BackgroundImageFix" result="shape"/>
<feGaussianBlur stdDeviation="0.177641" result="effect1_foregroundBlur_611_3688"/>
</filter>
</defs>
</svg>
