<svg viewBox="0 0 481 49" fill="none" xmlns="http://www.w3.org/2000/svg">
<path d="M2 40L2 9" stroke="white" stroke-width="4" stroke-linecap="round"/>
<path d="M11 47V2" stroke="white" stroke-width="4" stroke-linecap="round"/>
<path d="M20 42V7" stroke="white" stroke-width="4" stroke-linecap="round"/>
<path d="M29 35V14" stroke="white" stroke-width="4" stroke-linecap="round"/>
<path d="M38 47V2" stroke="white" stroke-width="4" stroke-linecap="round"/>
<path d="M47 42V7" stroke="white" stroke-width="4" stroke-linecap="round"/>
<path d="M56 40L56 9" stroke="white" stroke-width="4" stroke-linecap="round"/>
<path d="M65 35V14" stroke="white" stroke-width="4" stroke-linecap="round"/>
<path d="M74 42V7" stroke="white" stroke-width="4" stroke-linecap="round"/>
<path d="M83 47V2" stroke="white" stroke-width="4" stroke-linecap="round"/>
<path d="M92 40L92 9" stroke="white" stroke-width="4" stroke-linecap="round"/>
<path d="M101 35V14" stroke="white" stroke-width="4" stroke-linecap="round"/>
<path d="M110 42V7" stroke="white" stroke-width="4" stroke-linecap="round"/>
<path d="M119 47V2" stroke="white" stroke-width="4" stroke-linecap="round"/>
<path d="M128 40L128 9" stroke="white" stroke-width="4" stroke-linecap="round"/>
<path d="M137 42V7" stroke="white" stroke-width="4" stroke-linecap="round"/>
<path d="M146 35V14" stroke="white" stroke-width="4" stroke-linecap="round"/>
<path d="M155 47V2" stroke="white" stroke-width="4" stroke-linecap="round"/>
<path d="M164 42V7" stroke="white" stroke-width="4" stroke-linecap="round"/>
<path d="M173 40L173 9" stroke="white" stroke-width="4" stroke-linecap="round"/>
<path d="M182 35V14" stroke="white" stroke-width="4" stroke-linecap="round"/>
<path d="M191 47V2" stroke="white" stroke-width="4" stroke-linecap="round"/>
<path d="M200 42V7" stroke="white" stroke-width="4" stroke-linecap="round"/>
<path d="M209 40L209 9" stroke="white" stroke-width="4" stroke-linecap="round"/>
<path d="M218 35V14" stroke="white" stroke-width="4" stroke-linecap="round"/>
<path d="M227 42V7" stroke="white" stroke-width="4" stroke-linecap="round"/>
<path d="M236 40L236 9" stroke="white" stroke-width="4" stroke-linecap="round"/>
<path d="M245 47V2" stroke="white" stroke-width="4" stroke-linecap="round"/>
<path d="M254 35V14" stroke="white" stroke-width="4" stroke-linecap="round"/>
<path d="M263 40L263 9" stroke="white" stroke-width="4" stroke-linecap="round"/>
<path d="M272 47V2" stroke="white" stroke-width="4" stroke-linecap="round"/>
<path d="M281 42V7" stroke="white" stroke-width="4" stroke-linecap="round"/>
<path d="M290 40L290 9" stroke="white" stroke-width="4" stroke-linecap="round"/>
<path d="M299 35V14" stroke="white" stroke-width="4" stroke-linecap="round"/>
<path d="M308 47V2" stroke="white" stroke-width="4" stroke-linecap="round"/>
<path d="M317 40L317 9" stroke="white" stroke-width="4" stroke-linecap="round"/>
<path d="M326 42V7" stroke="white" stroke-width="4" stroke-linecap="round"/>
<path d="M335 35V14" stroke="white" stroke-width="4" stroke-linecap="round"/>
<path d="M344 42V7" stroke="white" stroke-width="4" stroke-linecap="round"/>
<path d="M353 35V14" stroke="white" stroke-width="4" stroke-linecap="round"/>
<path d="M362 42V7" stroke="white" stroke-width="4" stroke-linecap="round"/>
<path d="M371 40L371 9" stroke="white" stroke-width="4" stroke-linecap="round"/>
<path d="M380 35V14" stroke="white" stroke-width="4" stroke-linecap="round"/>
<path d="M389 47V2" stroke="white" stroke-width="4" stroke-linecap="round"/>
<path d="M398 42V7" stroke="white" stroke-width="4" stroke-linecap="round"/>
<path d="M407 40L407 9" stroke="white" stroke-width="4" stroke-linecap="round"/>
<path d="M416 35V14" stroke="white" stroke-width="4" stroke-linecap="round"/>
<path d="M425 42V7" stroke="white" stroke-width="4" stroke-linecap="round"/>
<path d="M434 40L434 9" stroke="white" stroke-width="4" stroke-linecap="round"/>
<path d="M443 47V2" stroke="white" stroke-width="4" stroke-linecap="round"/>
<path d="M452 35V14" stroke="white" stroke-width="4" stroke-linecap="round"/>
<path d="M461 40L461 9" stroke="white" stroke-width="4" stroke-linecap="round"/>
<path d="M470 47V2" stroke="white" stroke-width="4" stroke-linecap="round"/>
<path d="M479 42V7" stroke="white" stroke-width="4" stroke-linecap="round"/>
</svg>
