<svg viewBox="0 0 197 75" fill="none" xmlns="http://www.w3.org/2000/svg">
<g style="mix-blend-mode:hard-light" filter="url(#filter0_f_506_5077)">
<path d="M27.1 20H31.2732V15.8268H27.1V20ZM27.1 48.8H22.9268V52.9732H27.1V48.8ZM38.9 48.8V52.9732H43.0732V48.8H38.9ZM38.9 20V15.8268H34.7268V20H38.9ZM46 20H50.1732V15.8268H46V20ZM46 48.8H41.8268V52.9732H46V48.8ZM57.8 48.8V52.9732H61.9732V48.8H57.8ZM57.8 20V15.8268H53.6268V20H57.8ZM64.9 20H69.0732V15.8268H64.9V20ZM64.9 55V59.1732H69.0732V55H64.9ZM20 55H15.8268V59.1732H20V55ZM20 20V15.8268H15.8268V20H20ZM22.9268 20V48.8H31.2732V20H22.9268ZM27.1 52.9732H38.9V44.6268H27.1V52.9732ZM43.0732 48.8V20H34.7268V48.8H43.0732ZM38.9 24.1732H46V15.8268H38.9V24.1732ZM41.8268 20V48.8H50.1732V20H41.8268ZM46 52.9732H57.8V44.6268H46V52.9732ZM61.9732 48.8V20H53.6268V48.8H61.9732ZM57.8 24.1732H64.9V15.8268H57.8V24.1732ZM60.7268 20V55H69.0732V20H60.7268ZM64.9 50.8268H20V59.1732H64.9V50.8268ZM24.1732 55V20H15.8268V55H24.1732ZM20 24.1732H27.1V15.8268H20V24.1732ZM85.1543 20V15.8268H82.2911L81.2607 18.4982L85.1543 20ZM93.1543 20L97.0479 18.4982L96.0175 15.8268H93.1543V20ZM106.654 55V59.1732H112.737L110.548 53.4982L106.654 55ZM98.6543 55L94.7054 56.3496L95.6704 59.1732H98.6543V55ZM95.9543 47.1L99.9032 45.7504L98.9382 42.9268H95.9543V47.1ZM81.8543 47.1V42.9268H78.8704L77.9054 45.7504L81.8543 47.1ZM79.1543 55V59.1732H82.1382L83.1032 56.3496L79.1543 55ZM71.6543 55L67.7607 53.4982L65.5718 59.1732H71.6543V55ZM94.0043 41.35V45.5232H99.8251L97.9566 40.0104L94.0043 41.35ZM88.9543 26.45L92.9067 25.1104L91.9463 22.2768H88.9543V26.45ZM88.8543 26.45V22.2768H85.8623L84.9019 25.1104L88.8543 26.45ZM83.8043 41.35L79.8519 40.0104L77.9835 45.5232H83.8043V41.35ZM85.1543 24.1732H93.1543V15.8268H85.1543V24.1732ZM89.2607 21.5018L102.761 56.5018L110.548 53.4982L97.0479 18.4982L89.2607 21.5018ZM106.654 50.8268H98.6543V59.1732H106.654V50.8268ZM102.603 53.6504L99.9032 45.7504L92.0054 48.4496L94.7054 56.3496L102.603 53.6504ZM95.9543 42.9268H81.8543V51.2732H95.9543V42.9268ZM77.9054 45.7504L75.2054 53.6504L83.1032 56.3496L85.8032 48.4496L77.9054 45.7504ZM79.1543 50.8268H71.6543V59.1732H79.1543V50.8268ZM75.5479 56.5018L89.0479 21.5018L81.2607 18.4982L67.7607 53.4982L75.5479 56.5018ZM97.9566 40.0104L92.9067 25.1104L85.0019 27.7896L90.0519 42.6896L97.9566 40.0104ZM88.9543 22.2768H88.8543V30.6232H88.9543V22.2768ZM84.9019 25.1104L79.8519 40.0104L87.7567 42.6896L92.8066 27.7896L84.9019 25.1104ZM83.8043 45.5232H94.0043V37.1768H83.8043V45.5232ZM120.528 20H124.701V15.8268H120.528V20ZM120.528 34.1H116.355V38.2732H120.528V34.1ZM134.728 34.1V38.2732H138.901V34.1H134.728ZM134.728 20V15.8268H130.555V20H134.728ZM141.828 20H146.001V15.8268H141.828V20ZM141.828 55V59.1732H146.001V55H141.828ZM134.728 55H130.555V59.1732H134.728V55ZM134.728 39.85H138.901V35.6768H134.728V39.85ZM120.528 39.85V35.6768H116.355V39.85H120.528ZM120.528 55V59.1732H124.701V55H120.528ZM113.428 55H109.255V59.1732H113.428V55ZM113.428 20V15.8268H109.255V20H113.428ZM116.355 20V34.1H124.701V20H116.355ZM120.528 38.2732H134.728V29.9268H120.528V38.2732ZM138.901 34.1V20H130.555V34.1H138.901ZM134.728 24.1732H141.828V15.8268H134.728V24.1732ZM137.655 20V55H146.001V20H137.655ZM141.828 50.8268H134.728V59.1732H141.828V50.8268ZM138.901 55V39.85H130.555V55H138.901ZM134.728 35.6768H120.528V44.0232H134.728V35.6768ZM116.355 39.85V55H124.701V39.85H116.355ZM120.528 50.8268H113.428V59.1732H120.528V50.8268ZM117.601 55V20H109.255V55H117.601ZM113.428 24.1732H120.528V15.8268H113.428V24.1732ZM161.778 54.45L160.551 58.4386L160.579 58.4473L160.607 58.4556L161.778 54.45ZM155.928 51.35L153.269 54.566L153.287 54.5814L153.306 54.5965L155.928 51.35ZM151.678 45.85L147.912 47.6486L147.923 47.6713L147.934 47.6939L151.678 45.85ZM151.578 29.8L155.396 31.4845L151.578 29.8ZM155.678 24.15L158.409 27.3056L158.414 27.3017L155.678 24.15ZM161.878 20.75L163.113 24.7362L163.139 24.7283L163.164 24.7201L161.878 20.75ZM173.478 19.9L172.792 24.0164L172.856 24.027L172.919 24.0356L173.478 19.9ZM177.328 20.8H181.501V17.7682L178.618 16.8312L177.328 20.8ZM177.328 26.9L175.822 30.7918L181.501 32.9904V26.9H177.328ZM174.028 25.9L173.072 29.9623L173.085 29.9653L173.098 29.9683L174.028 25.9ZM164.778 26.4L166.225 30.3144L166.248 30.3059L166.271 30.2972L164.778 26.4ZM160.878 28.85L163.829 31.8009V31.8009L160.878 28.85ZM158.428 32.7L162.321 34.204L162.327 34.1894L162.332 34.1748L158.428 32.7ZM158.578 43.05L154.751 44.714L154.758 44.7295L154.765 44.7449L158.578 43.05ZM161.228 46.75L158.473 49.8848L158.501 49.9087L158.528 49.9321L161.228 46.75ZM165.028 48.85L163.736 52.8182L163.791 52.8359L163.846 52.8522L165.028 48.85ZM174.128 48.95L175.317 52.9502L175.351 52.9401L175.385 52.9295L174.128 48.95ZM177.328 47.75H181.501V41.2277L175.579 43.9609L177.328 47.75ZM177.328 53.9L178.673 57.8505L181.501 56.8877V53.9H177.328ZM172.678 55.05L172.05 50.9243L172.678 55.05ZM168.278 51.2268C166.524 51.2268 164.751 50.9713 162.949 50.4444L160.607 58.4556C163.138 59.1954 165.699 59.5732 168.278 59.5732V51.2268ZM163.005 50.4614C161.338 49.9482 159.863 49.1637 158.55 48.1035L153.306 54.5965C155.46 56.3363 157.885 57.6185 160.551 58.4386L163.005 50.4614ZM158.588 48.134C157.355 47.1147 156.289 45.7675 155.422 44.0061L147.934 47.6939C149.267 50.3992 151.035 52.7186 153.269 54.566L158.588 48.134ZM155.444 44.0514C154.712 42.5192 154.251 40.4532 154.251 37.7H145.905C145.905 41.3468 146.511 44.7142 147.912 47.6486L155.444 44.0514ZM154.251 37.7C154.251 35.1603 154.674 33.1208 155.396 31.4845L147.76 28.1155C146.482 31.0125 145.905 34.2397 145.905 37.7H154.251ZM155.396 31.4845C156.168 29.7362 157.179 28.3698 158.409 27.3056L152.947 20.9944C150.71 22.9302 148.989 25.3305 147.76 28.1155L155.396 31.4845ZM158.414 27.3017C159.718 26.1697 161.266 25.3086 163.113 24.7362L160.643 16.7638C157.757 17.658 155.172 19.0637 152.943 20.9983L158.414 27.3017ZM163.164 24.7201C165.072 24.1021 167.2 23.7732 169.578 23.7732V15.4268C166.423 15.4268 163.418 15.8645 160.592 16.7799L163.164 24.7201ZM169.578 23.7732C170.782 23.7732 171.85 23.8593 172.792 24.0164L174.164 15.7836C172.707 15.5407 171.174 15.4268 169.578 15.4268V23.7732ZM172.919 24.0356C173.876 24.1648 174.914 24.4034 176.038 24.7688L178.618 16.8312C177.076 16.33 175.547 15.9685 174.037 15.7644L172.919 24.0356ZM173.155 20.8V26.9H181.501V20.8H173.155ZM178.835 23.0082C177.599 22.5301 176.305 22.1397 174.958 21.8317L173.098 29.9683C174.084 30.1936 174.99 30.4699 175.822 30.7918L178.835 23.0082ZM174.984 21.8377C173.463 21.4798 171.813 21.3268 170.078 21.3268V29.6732C171.343 29.6732 172.327 29.7869 173.072 29.9623L174.984 21.8377ZM170.078 21.3268C167.688 21.3268 165.403 21.6919 163.286 22.5028L166.271 30.2972C167.286 29.9081 168.535 29.6732 170.078 29.6732V21.3268ZM163.331 22.4856C161.281 23.2434 159.455 24.3717 157.927 25.8991L163.829 31.8009C164.435 31.1949 165.209 30.69 166.225 30.3144L163.331 22.4856ZM157.927 25.8991C156.416 27.4106 155.287 29.2066 154.524 31.2252L162.332 34.1748C162.703 33.1934 163.207 32.4227 163.829 31.8009L157.927 25.8991ZM154.535 31.196C153.759 33.2066 153.405 35.3593 153.405 37.6H161.751C161.751 36.2407 161.964 35.1267 162.321 34.204L154.535 31.196ZM153.405 37.6C153.405 40.1308 153.806 42.5396 154.751 44.714L162.405 41.386C162.017 40.4937 161.751 39.2692 161.751 37.6H153.405ZM154.765 44.7449C155.646 46.7288 156.869 48.4746 158.473 49.8848L163.983 43.6152C163.388 43.0921 162.843 42.3712 162.392 41.3551L154.765 44.7449ZM158.528 49.9321C160.06 51.2322 161.81 52.1912 163.736 52.8182L166.32 44.8818C165.379 44.5755 164.596 44.1345 163.928 43.5679L158.528 49.9321ZM163.846 52.8522C165.706 53.4017 167.621 53.6732 169.578 53.6732V45.3268C168.402 45.3268 167.284 45.165 166.211 44.8478L163.846 52.8522ZM169.578 53.6732C171.633 53.6732 173.579 53.4671 175.317 52.9502L172.939 44.9498C172.211 45.1662 171.123 45.3268 169.578 45.3268V53.6732ZM175.385 52.9295C176.76 52.4953 178.002 52.0351 179.077 51.5391L175.579 43.9609C174.921 44.2649 174.03 44.6047 172.871 44.9705L175.385 52.9295ZM173.155 47.75V53.9H181.501V47.75H173.155ZM175.983 49.9495C174.634 50.4086 173.324 50.7304 172.05 50.9243L173.306 59.1757C175.099 58.9029 176.888 58.4581 178.673 57.8505L175.983 49.9495ZM172.05 50.9243C170.703 51.1294 169.447 51.2268 168.278 51.2268V59.5732C169.909 59.5732 171.587 59.4373 173.306 59.1757L172.05 50.9243Z" fill="#0094FF"/>
</g>
<g style="mix-blend-mode:hard-light" filter="url(#filter1_f_506_5077)">
<path d="M27.1 20H32.5572V14.5428H27.1V20ZM27.1 48.8H21.6428V54.2572H27.1V48.8ZM38.9 48.8V54.2572H44.3572V48.8H38.9ZM38.9 20V14.5428H33.4428V20H38.9ZM46 20H51.4572V14.5428H46V20ZM46 48.8H40.5428V54.2572H46V48.8ZM57.8 48.8V54.2572H63.2572V48.8H57.8ZM57.8 20V14.5428H52.3428V20H57.8ZM64.9 20H70.3573V14.5428H64.9V20ZM64.9 55V60.4572H70.3573V55H64.9ZM20 55H14.5428V60.4572H20V55ZM20 20V14.5428H14.5428V20H20ZM21.6428 20V48.8H32.5572V20H21.6428ZM27.1 54.2572H38.9V43.3428H27.1V54.2572ZM44.3572 48.8V20H33.4428V48.8H44.3572ZM38.9 25.4572H46V14.5428H38.9V25.4572ZM40.5428 20V48.8H51.4572V20H40.5428ZM46 54.2572H57.8V43.3428H46V54.2572ZM63.2572 48.8V20H52.3428V48.8H63.2572ZM57.8 25.4572H64.9V14.5428H57.8V25.4572ZM59.4428 20V55H70.3573V20H59.4428ZM64.9 49.5428H20V60.4572H64.9V49.5428ZM25.4572 55V20H14.5428V55H25.4572ZM20 25.4572H27.1V14.5428H20V25.4572ZM85.1543 20V14.5428H81.4101L80.0627 18.0361L85.1543 20ZM93.1543 20L98.2459 18.0361L96.8985 14.5428H93.1543V20ZM106.654 55V60.4572H114.608L111.746 53.0361L106.654 55ZM98.6543 55L93.4903 56.7649L94.7523 60.4572H98.6543V55ZM95.9543 47.1L101.118 45.3351L99.8563 41.6428H95.9543V47.1ZM81.8543 47.1V41.6428H77.9523L76.6903 45.3351L81.8543 47.1ZM79.1543 55V60.4572H83.0563L84.3183 56.7649L79.1543 55ZM71.6543 55L66.5627 53.0361L63.7002 60.4572H71.6543V55ZM94.0043 41.35V46.8072H101.616L99.1728 39.5983L94.0043 41.35ZM88.9543 26.45L94.1228 24.6983L92.8669 20.9928H88.9543V26.45ZM88.8543 26.45V20.9928H84.9417L83.6858 24.6983L88.8543 26.45ZM83.8043 41.35L78.6358 39.5983L76.1925 46.8072H83.8043V41.35ZM85.1543 25.4572H93.1543V14.5428H85.1543V25.4572ZM88.0627 21.9639L101.563 56.9639L111.746 53.0361L98.2459 18.0361L88.0627 21.9639ZM106.654 49.5428H98.6543V60.4572H106.654V49.5428ZM103.818 53.2351L101.118 45.3351L90.7903 48.8649L93.4903 56.7649L103.818 53.2351ZM95.9543 41.6428H81.8543V52.5572H95.9543V41.6428ZM76.6903 45.3351L73.9903 53.2351L84.3183 56.7649L87.0183 48.8649L76.6903 45.3351ZM79.1543 49.5428H71.6543V60.4572H79.1543V49.5428ZM76.7459 56.9639L90.2459 21.9639L80.0627 18.0361L66.5627 53.0361L76.7459 56.9639ZM99.1728 39.5983L94.1228 24.6983L83.7858 28.2017L88.8358 43.1017L99.1728 39.5983ZM88.9543 20.9928H88.8543V31.9072H88.9543V20.9928ZM83.6858 24.6983L78.6358 39.5983L88.9728 43.1017L94.0228 28.2017L83.6858 24.6983ZM83.8043 46.8072H94.0043V35.8928H83.8043V46.8072ZM120.528 20H125.985V14.5428H120.528V20ZM120.528 34.1H115.07V39.5572H120.528V34.1ZM134.728 34.1V39.5572H140.185V34.1H134.728ZM134.728 20V14.5428H129.27V20H134.728ZM141.828 20H147.285V14.5428H141.828V20ZM141.828 55V60.4572H147.285V55H141.828ZM134.728 55H129.27V60.4572H134.728V55ZM134.728 39.85H140.185V34.3928H134.728V39.85ZM120.528 39.85V34.3928H115.07V39.85H120.528ZM120.528 55V60.4572H125.985V55H120.528ZM113.428 55H107.97V60.4572H113.428V55ZM113.428 20V14.5428H107.97V20H113.428ZM115.07 20V34.1H125.985V20H115.07ZM120.528 39.5572H134.728V28.6428H120.528V39.5572ZM140.185 34.1V20H129.27V34.1H140.185ZM134.728 25.4572H141.828V14.5428H134.728V25.4572ZM136.37 20V55H147.285V20H136.37ZM141.828 49.5428H134.728V60.4572H141.828V49.5428ZM140.185 55V39.85H129.27V55H140.185ZM134.728 34.3928H120.528V45.3072H134.728V34.3928ZM115.07 39.85V55H125.985V39.85H115.07ZM120.528 49.5428H113.428V60.4572H120.528V49.5428ZM118.885 55V20H107.97V55H118.885ZM113.428 25.4572H120.528V14.5428H113.428V25.4572ZM161.778 54.45L160.173 59.6659L160.21 59.6772L160.247 59.6881L161.778 54.45ZM155.928 51.35L152.45 55.5556L152.475 55.5756L152.499 55.5954L155.928 51.35ZM151.678 45.85L146.754 48.202L146.768 48.2317L146.782 48.2613L151.678 45.85ZM151.578 29.8L156.571 32.0028L151.578 29.8ZM155.678 24.15L159.249 28.2766L159.255 28.2714L155.678 24.15ZM161.878 20.75L163.493 25.9627L163.527 25.9524L163.56 25.9416L161.878 20.75ZM173.478 19.9L172.581 25.283L172.664 25.2968L172.747 25.3081L173.478 19.9ZM177.328 20.8H182.785V16.8354L179.015 15.61L177.328 20.8ZM177.328 26.9L175.358 31.9893L182.785 34.8643V26.9H177.328ZM174.028 25.9L172.778 31.2122L172.795 31.2162L172.812 31.22L174.028 25.9ZM164.778 26.4L166.67 31.5189L166.7 31.5078L166.73 31.4963L164.778 26.4ZM160.878 28.85L164.737 32.7089L160.878 28.85ZM158.428 32.7L163.519 34.6668L163.526 34.6477L163.533 34.6286L158.428 32.7ZM158.578 43.05L153.573 45.2259L153.582 45.2462L153.591 45.2664L158.578 43.05ZM161.228 46.75L157.626 50.8493L157.661 50.8806L157.697 50.9112L161.228 46.75ZM165.028 48.85L163.339 54.0391L163.41 54.0624L163.482 54.0836L165.028 48.85ZM174.128 48.95L175.683 54.181L175.727 54.1678L175.771 54.1539L174.128 48.95ZM177.328 47.75H182.785V39.2208L175.041 42.795L177.328 47.75ZM177.328 53.9L179.087 59.0661L182.785 57.807V53.9H177.328ZM172.678 55.05L171.857 49.6549L172.678 55.05ZM168.278 49.9428C166.651 49.9428 164.999 49.706 163.309 49.2119L160.247 59.6881C162.89 60.4607 165.572 60.8572 168.278 60.8572V49.9428ZM163.383 49.2341C161.869 48.7682 160.54 48.0602 159.357 47.1046L152.499 55.5954C154.783 57.4398 157.354 58.7985 160.173 59.6659L163.383 49.2341ZM159.406 47.1444C158.327 46.2525 157.37 45.0549 156.574 43.4387L146.782 48.2613C148.186 51.1118 150.062 53.5808 152.45 55.5556L159.406 47.1444ZM156.603 43.498C155.974 42.1815 155.535 40.3157 155.535 37.7H144.621C144.621 41.4843 145.249 45.0518 146.754 48.202L156.603 43.498ZM155.535 37.7C155.535 35.3019 155.935 33.4452 156.571 32.0028L146.585 27.5972C145.222 30.6882 144.621 34.0981 144.621 37.7H155.535ZM156.571 32.0028C157.272 30.414 158.175 29.2066 159.249 28.2766L152.107 20.0234C149.715 22.0934 147.884 24.6527 146.585 27.5972L156.571 32.0028ZM159.255 28.2714C160.417 27.2629 161.806 26.4857 163.493 25.9627L160.263 15.5373C157.217 16.481 154.472 17.9704 152.101 20.0286L159.255 28.2714ZM163.56 25.9416C165.326 25.3695 167.319 25.0572 169.578 25.0572V14.1428C166.304 14.1428 163.163 14.5972 160.196 15.5584L163.56 25.9416ZM169.578 25.0572C170.721 25.0572 171.718 25.1391 172.581 25.283L174.375 14.517C172.838 14.2609 171.235 14.1428 169.578 14.1428V25.0572ZM172.747 25.3081C173.618 25.4258 174.581 25.6454 175.641 25.99L179.015 15.61C177.408 15.0879 175.805 14.7075 174.209 14.4919L172.747 25.3081ZM171.871 20.8V26.9H182.785V20.8H171.871ZM179.298 21.8107C178.001 21.3085 176.647 20.9007 175.244 20.58L172.812 31.22C173.742 31.4327 174.589 31.6915 175.358 31.9893L179.298 21.8107ZM175.278 20.5878C173.637 20.2018 171.885 20.0428 170.078 20.0428V30.9572C171.271 30.9572 172.152 31.0649 172.778 31.2122L175.278 20.5878ZM170.078 20.0428C167.557 20.0428 165.113 20.4278 162.826 21.3037L166.73 31.4963C167.576 31.1722 168.666 30.9572 170.078 30.9572V20.0428ZM162.886 21.2811C160.677 22.0977 158.688 23.322 157.019 24.9911L164.737 32.7089C165.201 32.2447 165.813 31.8356 166.67 31.5189L162.886 21.2811ZM157.019 24.9911C155.371 26.6396 154.146 28.5933 153.323 30.7714L163.533 34.6286C163.844 33.8067 164.252 33.1938 164.737 32.7089L157.019 24.9911ZM153.338 30.7332C152.496 32.9112 152.121 35.2237 152.121 37.6H163.035C163.035 36.3763 163.227 35.4221 163.519 34.6668L153.338 30.7332ZM152.121 37.6C152.121 40.2634 152.542 42.8543 153.573 45.2259L163.583 40.8741C163.281 40.179 163.035 39.1366 163.035 37.6H152.121ZM153.591 45.2664C154.539 47.3991 155.866 49.3026 157.626 50.8493L164.831 42.6507C164.391 42.264 163.95 41.7009 163.565 40.8336L153.591 45.2664ZM157.697 50.9112C159.363 52.3242 161.261 53.3628 163.339 54.0391L166.718 43.6609C165.928 43.4038 165.294 43.0425 164.759 42.5888L157.697 50.9112ZM163.482 54.0836C165.463 54.6689 167.501 54.9572 169.578 54.9572V44.0428C168.522 44.0428 167.527 43.8978 166.574 43.6164L163.482 54.0836ZM169.578 54.9572C171.712 54.9572 173.789 54.7442 175.683 54.181L172.573 43.719C172.001 43.8892 171.044 44.0428 169.578 44.0428V54.9572ZM175.771 54.1539C177.18 53.7092 178.476 53.2305 179.615 52.705L175.041 42.795C174.447 43.0695 173.61 43.3908 172.485 43.7461L175.771 54.1539ZM171.871 47.75V53.9H182.785V47.75H171.871ZM175.569 48.7339C174.288 49.1702 173.051 49.4731 171.857 49.6549L173.499 60.4451C175.372 60.1602 177.235 59.6964 179.087 59.0661L175.569 48.7339ZM171.857 49.6549C170.567 49.8512 169.376 49.9428 168.278 49.9428V60.8572C169.98 60.8572 171.723 60.7155 173.499 60.4451L171.857 49.6549Z" fill="#0094FF"/>
</g>
<path d="M27.1 20V48.8H38.9V20H46V48.8H57.8V20H64.9V55H20V20H27.1ZM85.1543 20H93.1543L106.654 55H98.6543L95.9543 47.1H81.8543L79.1543 55H71.6543L85.1543 20ZM94.0043 41.35L88.9543 26.45H88.8543L83.8043 41.35H94.0043ZM120.528 20V34.1H134.728V20H141.828V55H134.728V39.85H120.528V55H113.428V20H120.528ZM168.278 55.4C166.111 55.4 163.945 55.0833 161.778 54.45C159.611 53.7833 157.661 52.75 155.928 51.35C154.195 49.9167 152.778 48.0833 151.678 45.85C150.611 43.6167 150.078 40.9 150.078 37.7C150.078 34.7 150.578 32.0667 151.578 29.8C152.578 27.5333 153.945 25.65 155.678 24.15C157.445 22.6167 159.511 21.4833 161.878 20.75C164.245 19.9833 166.811 19.6 169.578 19.6C170.978 19.6 172.278 19.7 173.478 19.9C174.711 20.0667 175.995 20.3667 177.328 20.8V26.9C176.295 26.5 175.195 26.1667 174.028 25.9C172.895 25.6333 171.578 25.5 170.078 25.5C168.111 25.5 166.345 25.8 164.778 26.4C163.245 26.9667 161.945 27.7833 160.878 28.85C159.811 29.9167 158.995 31.2 158.428 32.7C157.861 34.1667 157.578 35.8 157.578 37.6C157.578 39.7 157.911 41.5167 158.578 43.05C159.245 44.55 160.128 45.7833 161.228 46.75C162.328 47.6833 163.595 48.3833 165.028 48.85C166.495 49.2833 168.011 49.5 169.578 49.5C171.378 49.5 172.895 49.3167 174.128 48.95C175.395 48.55 176.461 48.15 177.328 47.75V53.9C175.761 54.4333 174.211 54.8167 172.678 55.05C171.145 55.2833 169.678 55.4 168.278 55.4Z" fill="#0094FF"/>
<path d="M27.1 20H28.3841V18.7159H27.1V20ZM27.1 48.8H25.8159V50.0841H27.1V48.8ZM38.9 48.8V50.0841H40.1841V48.8H38.9ZM38.9 20V18.7159H37.6159V20H38.9ZM46 20H47.2841V18.7159H46V20ZM46 48.8H44.7159V50.0841H46V48.8ZM57.8 48.8V50.0841H59.0841V48.8H57.8ZM57.8 20V18.7159H56.5159V20H57.8ZM64.9 20H66.1841V18.7159H64.9V20ZM64.9 55V56.2841H66.1841V55H64.9ZM20 55H18.7159V56.2841H20V55ZM20 20V18.7159H18.7159V20H20ZM25.8159 20V48.8H28.3841V20H25.8159ZM27.1 50.0841H38.9V47.5159H27.1V50.0841ZM40.1841 48.8V20H37.6159V48.8H40.1841ZM38.9 21.2841H46V18.7159H38.9V21.2841ZM44.7159 20V48.8H47.2841V20H44.7159ZM46 50.0841H57.8V47.5159H46V50.0841ZM59.0841 48.8V20H56.5159V48.8H59.0841ZM57.8 21.2841H64.9V18.7159H57.8V21.2841ZM63.6159 20V55H66.1841V20H63.6159ZM64.9 53.7159H20V56.2841H64.9V53.7159ZM21.2841 55V20H18.7159V55H21.2841ZM20 21.2841H27.1V18.7159H20V21.2841ZM85.1543 20V18.7159H84.2733L83.9563 19.5379L85.1543 20ZM93.1543 20L94.3523 19.5379L94.0353 18.7159H93.1543V20ZM106.654 55V56.2841H108.526L107.852 54.5379L106.654 55ZM98.6543 55L97.4392 55.4153L97.7362 56.2841H98.6543V55ZM95.9543 47.1L97.1693 46.6847L96.8724 45.8159H95.9543V47.1ZM81.8543 47.1V45.8159H80.9362L80.6392 46.6847L81.8543 47.1ZM79.1543 55V56.2841H80.0724L80.3694 55.4153L79.1543 55ZM71.6543 55L70.4563 54.5379L69.7828 56.2841H71.6543V55ZM94.0043 41.35V42.6341H95.7953L95.2204 40.9378L94.0043 41.35ZM88.9543 26.45L90.1704 26.0378L89.8749 25.1659H88.9543V26.45ZM88.8543 26.45V25.1659H87.9337L87.6382 26.0378L88.8543 26.45ZM83.8043 41.35L82.5882 40.9378L82.0133 42.6341H83.8043V41.35ZM85.1543 21.2841H93.1543V18.7159H85.1543V21.2841ZM91.9563 20.4621L105.456 55.4621L107.852 54.5379L94.3523 19.5379L91.9563 20.4621ZM106.654 53.7159H98.6543V56.2841H106.654V53.7159ZM99.8694 54.5847L97.1693 46.6847L94.7392 47.5153L97.4392 55.4153L99.8694 54.5847ZM95.9543 45.8159H81.8543V48.3841H95.9543V45.8159ZM80.6392 46.6847L77.9392 54.5847L80.3694 55.4153L83.0694 47.5153L80.6392 46.6847ZM79.1543 53.7159H71.6543V56.2841H79.1543V53.7159ZM72.8523 55.4621L86.3523 20.4621L83.9563 19.5379L70.4563 54.5379L72.8523 55.4621ZM95.2204 40.9378L90.1704 26.0378L87.7382 26.8622L92.7882 41.7622L95.2204 40.9378ZM88.9543 25.1659H88.8543V27.7341H88.9543V25.1659ZM87.6382 26.0378L82.5882 40.9378L85.0204 41.7622L90.0704 26.8622L87.6382 26.0378ZM83.8043 42.6341H94.0043V40.0659H83.8043V42.6341ZM120.528 20H121.812V18.7159H120.528V20ZM120.528 34.1H119.244V35.3841H120.528V34.1ZM134.728 34.1V35.3841H136.012V34.1H134.728ZM134.728 20V18.7159H133.444V20H134.728ZM141.828 20H143.112V18.7159H141.828V20ZM141.828 55V56.2841H143.112V55H141.828ZM134.728 55H133.444V56.2841H134.728V55ZM134.728 39.85H136.012V38.5659H134.728V39.85ZM120.528 39.85V38.5659H119.244V39.85H120.528ZM120.528 55V56.2841H121.812V55H120.528ZM113.428 55H112.144V56.2841H113.428V55ZM113.428 20V18.7159H112.144V20H113.428ZM119.244 20V34.1H121.812V20H119.244ZM120.528 35.3841H134.728V32.8159H120.528V35.3841ZM136.012 34.1V20H133.444V34.1H136.012ZM134.728 21.2841H141.828V18.7159H134.728V21.2841ZM140.544 20V55H143.112V20H140.544ZM141.828 53.7159H134.728V56.2841H141.828V53.7159ZM136.012 55V39.85H133.444V55H136.012ZM134.728 38.5659H120.528V41.1341H134.728V38.5659ZM119.244 39.85V55H121.812V39.85H119.244ZM120.528 53.7159H113.428V56.2841H120.528V53.7159ZM114.712 55V20H112.144V55H114.712ZM113.428 21.2841H120.528V18.7159H113.428V21.2841ZM161.778 54.45L161.4 55.6773L161.409 55.6799L161.418 55.6825L161.778 54.45ZM155.928 51.35L155.11 52.3396L155.116 52.3443L155.121 52.3489L155.928 51.35ZM151.678 45.85L150.519 46.4034L150.523 46.4104L150.526 46.4174L151.678 45.85ZM151.578 29.8L152.753 30.3183L151.578 29.8ZM155.678 24.15L156.518 25.121L156.52 25.1197L155.678 24.15ZM161.878 20.75L162.258 21.9765L162.266 21.9741L162.274 21.9716L161.878 20.75ZM173.478 19.9L173.267 21.1666L173.287 21.1698L173.306 21.1725L173.478 19.9ZM177.328 20.8H178.612V19.8671L177.725 19.5788L177.328 20.8ZM177.328 26.9L176.865 28.0975L178.612 28.774V26.9H177.328ZM174.028 25.9L173.734 27.1499L173.742 27.1518L174.028 25.9ZM164.778 26.4L165.223 27.6044L165.23 27.6018L165.237 27.5991L164.778 26.4ZM160.878 28.85L161.786 29.758L160.878 28.85ZM158.428 32.7L159.626 33.1628L159.629 33.1538L158.428 32.7ZM158.578 43.05L157.401 43.562L157.405 43.5715L158.578 43.05ZM161.228 46.75L160.38 47.7145L160.389 47.7219L160.397 47.7291L161.228 46.75ZM165.028 48.85L164.631 50.071L164.647 50.0764L164.664 50.0814L165.028 48.85ZM174.128 48.95L174.494 50.1808L174.504 50.1777L174.515 50.1745L174.128 48.95ZM177.328 47.75H178.612V45.7431L176.79 46.5841L177.328 47.75ZM177.328 53.9L177.742 55.1156L178.612 54.8193V53.9H177.328ZM172.678 55.05L172.485 53.7806L172.678 55.05ZM168.278 54.1159C166.238 54.1159 164.193 53.8181 162.138 53.2175L161.418 55.6825C163.697 56.3486 165.985 56.6841 168.278 56.6841V54.1159ZM162.156 53.2227C160.143 52.6033 158.339 51.6465 156.735 50.3511L155.121 52.3489C156.984 53.8535 159.08 54.9634 161.4 55.6773L162.156 53.2227ZM156.746 50.3604C155.167 49.0545 153.859 47.3708 152.83 45.2826L150.526 46.4174C151.698 48.7959 153.222 50.7788 155.11 52.3396L156.746 50.3604ZM152.837 45.2966C151.873 43.279 151.362 40.7625 151.362 37.7H148.794C148.794 41.0375 149.35 43.9544 150.519 46.4034L152.837 45.2966ZM151.362 37.7C151.362 34.8416 151.839 32.391 152.753 30.3183L150.403 29.2817C149.318 31.7423 148.794 34.5584 148.794 37.7H151.362ZM152.753 30.3183C153.683 28.2111 154.94 26.4869 156.518 25.121L154.838 23.179C152.95 24.8131 151.474 26.8555 150.403 29.2817L152.753 30.3183ZM156.52 25.1197C158.144 23.7099 160.051 22.6604 162.258 21.9765L161.498 19.5235C158.972 20.3063 156.745 21.5234 154.836 23.1803L156.52 25.1197ZM162.274 21.9716C164.499 21.2507 166.931 20.8841 169.578 20.8841V18.3159C166.692 18.3159 163.99 18.716 161.482 19.5284L162.274 21.9716ZM169.578 20.8841C170.918 20.8841 172.146 20.9798 173.267 21.1666L173.689 18.6334C172.41 18.4202 171.039 18.3159 169.578 18.3159V20.8841ZM173.306 21.1725C174.454 21.3276 175.662 21.6087 176.931 22.0212L177.725 19.5788C176.327 19.1246 174.969 18.8057 173.65 18.6275L173.306 21.1725ZM176.044 20.8V26.9H178.612V20.8H176.044ZM177.792 25.7025C176.696 25.2785 175.537 24.9276 174.314 24.6482L173.742 27.1518C174.853 27.4057 175.893 27.7215 176.865 28.0975L177.792 25.7025ZM174.322 24.6501C173.07 24.3553 171.65 24.2159 170.078 24.2159V26.7841C171.506 26.7841 172.72 26.9113 173.734 27.1499L174.322 24.6501ZM170.078 24.2159C167.981 24.2159 166.055 24.536 164.319 25.2009L165.237 27.5991C166.635 27.064 168.242 26.7841 170.078 26.7841V24.2159ZM164.333 25.1956C162.641 25.821 161.179 26.7336 159.97 27.942L161.786 29.758C162.711 28.8331 163.849 28.1123 165.223 27.6044L164.333 25.1956ZM159.97 27.942C158.767 29.1456 157.854 30.5867 157.227 32.2462L159.629 33.1538C160.136 31.8133 160.856 30.6877 161.786 29.758L159.97 27.942ZM157.23 32.2372C156.599 33.8713 156.294 35.6644 156.294 37.6H158.862C158.862 35.9356 159.124 34.4621 159.626 33.1628L157.23 32.2372ZM156.294 37.6C156.294 39.8326 156.648 41.8314 157.401 43.562L159.756 42.538C159.175 41.2019 158.862 39.5674 158.862 37.6H156.294ZM157.405 43.5715C158.138 45.2204 159.125 46.6114 160.38 47.7145L162.076 45.7855C161.131 44.9553 160.352 43.8796 159.752 42.5285L157.405 43.5715ZM160.397 47.7291C161.63 48.7753 163.046 49.555 164.631 50.071L165.426 47.629C164.144 47.2117 163.026 46.5914 162.059 45.7709L160.397 47.7291ZM164.664 50.0814C166.252 50.5505 167.891 50.7841 169.578 50.7841V48.2159C168.132 48.2159 166.738 48.0161 165.392 47.6186L164.664 50.0814ZM169.578 50.7841C171.457 50.7841 173.105 50.5937 174.494 50.1808L173.762 47.7192C172.684 48.0396 171.3 48.2159 169.578 48.2159V50.7841ZM174.515 50.1745C175.815 49.7639 176.936 49.3454 177.866 48.9159L176.79 46.5841C175.987 46.9546 174.975 47.3361 173.741 47.7255L174.515 50.1745ZM176.044 47.75V53.9H178.612V47.75H176.044ZM176.914 52.6844C175.415 53.195 173.938 53.5594 172.485 53.7806L172.871 56.3194C174.484 56.074 176.108 55.6717 177.742 55.1156L176.914 52.6844ZM172.485 53.7806C171.009 54.0052 169.607 54.1159 168.278 54.1159V56.6841C169.749 56.6841 171.281 56.5615 172.871 56.3194L172.485 53.7806Z" fill="white"/>
<g style="mix-blend-mode:hard-light" filter="url(#filter2_ddi_506_5077)">
<path d="M27.1 20H31.2732V15.8268H27.1V20ZM27.1 48.8H22.9268V52.9732H27.1V48.8ZM38.9 48.8V52.9732H43.0732V48.8H38.9ZM38.9 20V15.8268H34.7268V20H38.9ZM46 20H50.1732V15.8268H46V20ZM46 48.8H41.8268V52.9732H46V48.8ZM57.8 48.8V52.9732H61.9732V48.8H57.8ZM57.8 20V15.8268H53.6268V20H57.8ZM64.9 20H69.0732V15.8268H64.9V20ZM64.9 55V59.1732H69.0732V55H64.9ZM20 55H15.8268V59.1732H20V55ZM20 20V15.8268H15.8268V20H20ZM22.9268 20V48.8H31.2732V20H22.9268ZM27.1 52.9732H38.9V44.6268H27.1V52.9732ZM43.0732 48.8V20H34.7268V48.8H43.0732ZM38.9 24.1732H46V15.8268H38.9V24.1732ZM41.8268 20V48.8H50.1732V20H41.8268ZM46 52.9732H57.8V44.6268H46V52.9732ZM61.9732 48.8V20H53.6268V48.8H61.9732ZM57.8 24.1732H64.9V15.8268H57.8V24.1732ZM60.7268 20V55H69.0732V20H60.7268ZM64.9 50.8268H20V59.1732H64.9V50.8268ZM24.1732 55V20H15.8268V55H24.1732ZM20 24.1732H27.1V15.8268H20V24.1732ZM85.1543 20V15.8268H82.2911L81.2607 18.4982L85.1543 20ZM93.1543 20L97.0479 18.4982L96.0175 15.8268H93.1543V20ZM106.654 55V59.1732H112.737L110.548 53.4982L106.654 55ZM98.6543 55L94.7054 56.3496L95.6704 59.1732H98.6543V55ZM95.9543 47.1L99.9032 45.7504L98.9382 42.9268H95.9543V47.1ZM81.8543 47.1V42.9268H78.8704L77.9054 45.7504L81.8543 47.1ZM79.1543 55V59.1732H82.1382L83.1032 56.3496L79.1543 55ZM71.6543 55L67.7607 53.4982L65.5718 59.1732H71.6543V55ZM94.0043 41.35V45.5232H99.8251L97.9566 40.0104L94.0043 41.35ZM88.9543 26.45L92.9067 25.1104L91.9463 22.2768H88.9543V26.45ZM88.8543 26.45V22.2768H85.8623L84.9019 25.1104L88.8543 26.45ZM83.8043 41.35L79.8519 40.0104L77.9835 45.5232H83.8043V41.35ZM85.1543 24.1732H93.1543V15.8268H85.1543V24.1732ZM89.2607 21.5018L102.761 56.5018L110.548 53.4982L97.0479 18.4982L89.2607 21.5018ZM106.654 50.8268H98.6543V59.1732H106.654V50.8268ZM102.603 53.6504L99.9032 45.7504L92.0054 48.4496L94.7054 56.3496L102.603 53.6504ZM95.9543 42.9268H81.8543V51.2732H95.9543V42.9268ZM77.9054 45.7504L75.2054 53.6504L83.1032 56.3496L85.8032 48.4496L77.9054 45.7504ZM79.1543 50.8268H71.6543V59.1732H79.1543V50.8268ZM75.5479 56.5018L89.0479 21.5018L81.2607 18.4982L67.7607 53.4982L75.5479 56.5018ZM97.9566 40.0104L92.9067 25.1104L85.0019 27.7896L90.0519 42.6896L97.9566 40.0104ZM88.9543 22.2768H88.8543V30.6232H88.9543V22.2768ZM84.9019 25.1104L79.8519 40.0104L87.7567 42.6896L92.8066 27.7896L84.9019 25.1104ZM83.8043 45.5232H94.0043V37.1768H83.8043V45.5232ZM120.528 20H124.701V15.8268H120.528V20ZM120.528 34.1H116.355V38.2732H120.528V34.1ZM134.728 34.1V38.2732H138.901V34.1H134.728ZM134.728 20V15.8268H130.555V20H134.728ZM141.828 20H146.001V15.8268H141.828V20ZM141.828 55V59.1732H146.001V55H141.828ZM134.728 55H130.555V59.1732H134.728V55ZM134.728 39.85H138.901V35.6768H134.728V39.85ZM120.528 39.85V35.6768H116.355V39.85H120.528ZM120.528 55V59.1732H124.701V55H120.528ZM113.428 55H109.255V59.1732H113.428V55ZM113.428 20V15.8268H109.255V20H113.428ZM116.355 20V34.1H124.701V20H116.355ZM120.528 38.2732H134.728V29.9268H120.528V38.2732ZM138.901 34.1V20H130.555V34.1H138.901ZM134.728 24.1732H141.828V15.8268H134.728V24.1732ZM137.655 20V55H146.001V20H137.655ZM141.828 50.8268H134.728V59.1732H141.828V50.8268ZM138.901 55V39.85H130.555V55H138.901ZM134.728 35.6768H120.528V44.0232H134.728V35.6768ZM116.355 39.85V55H124.701V39.85H116.355ZM120.528 50.8268H113.428V59.1732H120.528V50.8268ZM117.601 55V20H109.255V55H117.601ZM113.428 24.1732H120.528V15.8268H113.428V24.1732ZM161.778 54.45L160.551 58.4386L160.579 58.4473L160.607 58.4556L161.778 54.45ZM155.928 51.35L153.269 54.566L153.287 54.5814L153.306 54.5965L155.928 51.35ZM151.678 45.85L147.912 47.6486L147.923 47.6713L147.934 47.6939L151.678 45.85ZM151.578 29.8L155.396 31.4845L151.578 29.8ZM155.678 24.15L158.409 27.3056L158.414 27.3017L155.678 24.15ZM161.878 20.75L163.113 24.7362L163.139 24.7283L163.164 24.7201L161.878 20.75ZM173.478 19.9L172.792 24.0164L172.856 24.027L172.919 24.0356L173.478 19.9ZM177.328 20.8H181.501V17.7682L178.618 16.8312L177.328 20.8ZM177.328 26.9L175.822 30.7918L181.501 32.9904V26.9H177.328ZM174.028 25.9L173.072 29.9623L173.085 29.9653L173.098 29.9683L174.028 25.9ZM164.778 26.4L166.225 30.3144L166.248 30.3059L166.271 30.2972L164.778 26.4ZM160.878 28.85L163.829 31.8009V31.8009L160.878 28.85ZM158.428 32.7L162.321 34.204L162.327 34.1894L162.332 34.1748L158.428 32.7ZM158.578 43.05L154.751 44.714L154.758 44.7295L154.765 44.7449L158.578 43.05ZM161.228 46.75L158.473 49.8848L158.501 49.9087L158.528 49.9321L161.228 46.75ZM165.028 48.85L163.736 52.8182L163.791 52.8359L163.846 52.8522L165.028 48.85ZM174.128 48.95L175.317 52.9502L175.351 52.9401L175.385 52.9295L174.128 48.95ZM177.328 47.75H181.501V41.2277L175.579 43.9609L177.328 47.75ZM177.328 53.9L178.673 57.8505L181.501 56.8877V53.9H177.328ZM172.678 55.05L172.05 50.9243L172.678 55.05ZM168.278 51.2268C166.524 51.2268 164.751 50.9713 162.949 50.4444L160.607 58.4556C163.138 59.1954 165.699 59.5732 168.278 59.5732V51.2268ZM163.005 50.4614C161.338 49.9482 159.863 49.1637 158.55 48.1035L153.306 54.5965C155.46 56.3363 157.885 57.6185 160.551 58.4386L163.005 50.4614ZM158.588 48.134C157.355 47.1147 156.289 45.7675 155.422 44.0061L147.934 47.6939C149.267 50.3992 151.035 52.7186 153.269 54.566L158.588 48.134ZM155.444 44.0514C154.712 42.5192 154.251 40.4532 154.251 37.7H145.905C145.905 41.3468 146.511 44.7142 147.912 47.6486L155.444 44.0514ZM154.251 37.7C154.251 35.1603 154.674 33.1208 155.396 31.4845L147.76 28.1155C146.482 31.0125 145.905 34.2397 145.905 37.7H154.251ZM155.396 31.4845C156.168 29.7362 157.179 28.3698 158.409 27.3056L152.947 20.9944C150.71 22.9302 148.989 25.3305 147.76 28.1155L155.396 31.4845ZM158.414 27.3017C159.718 26.1697 161.266 25.3086 163.113 24.7362L160.643 16.7638C157.757 17.658 155.172 19.0637 152.943 20.9983L158.414 27.3017ZM163.164 24.7201C165.072 24.1021 167.2 23.7732 169.578 23.7732V15.4268C166.423 15.4268 163.418 15.8645 160.592 16.7799L163.164 24.7201ZM169.578 23.7732C170.782 23.7732 171.85 23.8593 172.792 24.0164L174.164 15.7836C172.707 15.5407 171.174 15.4268 169.578 15.4268V23.7732ZM172.919 24.0356C173.876 24.1648 174.914 24.4034 176.038 24.7688L178.618 16.8312C177.076 16.33 175.547 15.9685 174.037 15.7644L172.919 24.0356ZM173.155 20.8V26.9H181.501V20.8H173.155ZM178.835 23.0082C177.599 22.5301 176.305 22.1397 174.958 21.8317L173.098 29.9683C174.084 30.1936 174.99 30.4699 175.822 30.7918L178.835 23.0082ZM174.984 21.8377C173.463 21.4798 171.813 21.3268 170.078 21.3268V29.6732C171.343 29.6732 172.327 29.7869 173.072 29.9623L174.984 21.8377ZM170.078 21.3268C167.688 21.3268 165.403 21.6919 163.286 22.5028L166.271 30.2972C167.286 29.9081 168.535 29.6732 170.078 29.6732V21.3268ZM163.331 22.4856C161.281 23.2434 159.455 24.3717 157.927 25.8991L163.829 31.8009C164.435 31.1949 165.209 30.69 166.225 30.3144L163.331 22.4856ZM157.927 25.8991C156.416 27.4106 155.287 29.2066 154.524 31.2252L162.332 34.1748C162.703 33.1934 163.207 32.4227 163.829 31.8009L157.927 25.8991ZM154.535 31.196C153.759 33.2066 153.405 35.3593 153.405 37.6H161.751C161.751 36.2407 161.964 35.1267 162.321 34.204L154.535 31.196ZM153.405 37.6C153.405 40.1308 153.806 42.5396 154.751 44.714L162.405 41.386C162.017 40.4937 161.751 39.2692 161.751 37.6H153.405ZM154.765 44.7449C155.646 46.7288 156.869 48.4746 158.473 49.8848L163.983 43.6152C163.388 43.0921 162.843 42.3712 162.392 41.3551L154.765 44.7449ZM158.528 49.9321C160.06 51.2322 161.81 52.1912 163.736 52.8182L166.32 44.8818C165.379 44.5755 164.596 44.1345 163.928 43.5679L158.528 49.9321ZM163.846 52.8522C165.706 53.4017 167.621 53.6732 169.578 53.6732V45.3268C168.402 45.3268 167.284 45.165 166.211 44.8478L163.846 52.8522ZM169.578 53.6732C171.633 53.6732 173.579 53.4671 175.317 52.9502L172.939 44.9498C172.211 45.1662 171.123 45.3268 169.578 45.3268V53.6732ZM175.385 52.9295C176.76 52.4953 178.002 52.0351 179.077 51.5391L175.579 43.9609C174.921 44.2649 174.03 44.6047 172.871 44.9705L175.385 52.9295ZM173.155 47.75V53.9H181.501V47.75H173.155ZM175.983 49.9495C174.634 50.4086 173.324 50.7304 172.05 50.9243L173.306 59.1757C175.099 58.9029 176.888 58.4581 178.673 57.8505L175.983 49.9495ZM172.05 50.9243C170.703 51.1294 169.447 51.2268 168.278 51.2268V59.5732C169.909 59.5732 171.587 59.4373 173.306 59.1757L172.05 50.9243Z" fill="#00B3FF" fill-opacity="0.2"/>
</g>
<g filter="url(#filter3_f_506_5077)">
<path d="M27.1 20H29.6681V17.4319H27.1V20ZM27.1 48.8H24.5319V51.3681H27.1V48.8ZM38.9 48.8V51.3681H41.4681V48.8H38.9ZM38.9 20V17.4319H36.3319V20H38.9ZM46 20H48.5681V17.4319H46V20ZM46 48.8H43.4319V51.3681H46V48.8ZM57.8 48.8V51.3681H60.3681V48.8H57.8ZM57.8 20V17.4319H55.2319V20H57.8ZM64.9 20H67.4681V17.4319H64.9V20ZM64.9 55V57.5681H67.4681V55H64.9ZM20 55H17.4319V57.5681H20V55ZM20 20V17.4319H17.4319V20H20ZM24.5319 20V48.8H29.6681V20H24.5319ZM27.1 51.3681H38.9V46.2319H27.1V51.3681ZM41.4681 48.8V20H36.3319V48.8H41.4681ZM38.9 22.5681H46V17.4319H38.9V22.5681ZM43.4319 20V48.8H48.5681V20H43.4319ZM46 51.3681H57.8V46.2319H46V51.3681ZM60.3681 48.8V20H55.2319V48.8H60.3681ZM57.8 22.5681H64.9V17.4319H57.8V22.5681ZM62.3319 20V55H67.4681V20H62.3319ZM64.9 52.4319H20V57.5681H64.9V52.4319ZM22.5681 55V20H17.4319V55H22.5681ZM20 22.5681H27.1V17.4319H20V22.5681ZM85.1543 20V17.4319H83.3923L82.7582 19.0758L85.1543 20ZM93.1543 20L95.5504 19.0758L94.9163 17.4319H93.1543V20ZM106.654 55V57.5681H110.397L109.05 54.0758L106.654 55ZM98.6543 55L96.2242 55.8305L96.818 57.5681H98.6543V55ZM95.9543 47.1L98.3844 46.2695L97.7906 44.5319H95.9543V47.1ZM81.8543 47.1V44.5319H80.018L79.4242 46.2695L81.8543 47.1ZM79.1543 55V57.5681H80.9905L81.5844 55.8305L79.1543 55ZM71.6543 55L69.2582 54.0758L67.9112 57.5681H71.6543V55ZM94.0043 41.35V43.9181H97.5863L96.4365 40.5257L94.0043 41.35ZM88.9543 26.45L91.3865 25.6257L90.7955 23.8819H88.9543V26.45ZM88.8543 26.45V23.8819H87.0131L86.4221 25.6257L88.8543 26.45ZM83.8043 41.35L81.3721 40.5257L80.2223 43.9181H83.8043V41.35ZM85.1543 22.5681H93.1543V17.4319H85.1543V22.5681ZM90.7582 20.9242L104.258 55.9242L109.05 54.0758L95.5504 19.0758L90.7582 20.9242ZM106.654 52.4319H98.6543V57.5681H106.654V52.4319ZM101.084 54.1695L98.3844 46.2695L93.5242 47.9305L96.2242 55.8305L101.084 54.1695ZM95.9543 44.5319H81.8543V49.6681H95.9543V44.5319ZM79.4242 46.2695L76.7242 54.1695L81.5844 55.8305L84.2844 47.9305L79.4242 46.2695ZM79.1543 52.4319H71.6543V57.5681H79.1543V52.4319ZM74.0504 55.9242L87.5504 20.9242L82.7582 19.0758L69.2582 54.0758L74.0504 55.9242ZM96.4365 40.5257L91.3865 25.6257L86.5221 27.2743L91.5721 42.1743L96.4365 40.5257ZM88.9543 23.8819H88.8543V29.0181H88.9543V23.8819ZM86.4221 25.6257L81.3721 40.5257L86.2365 42.1743L91.2865 27.2743L86.4221 25.6257ZM83.8043 43.9181H94.0043V38.7819H83.8043V43.9181ZM120.528 20H123.096V17.4319H120.528V20ZM120.528 34.1H117.96V36.6681H120.528V34.1ZM134.728 34.1V36.6681H137.296V34.1H134.728ZM134.728 20V17.4319H132.16V20H134.728ZM141.828 20H144.396V17.4319H141.828V20ZM141.828 55V57.5681H144.396V55H141.828ZM134.728 55H132.16V57.5681H134.728V55ZM134.728 39.85H137.296V37.2819H134.728V39.85ZM120.528 39.85V37.2819H117.96V39.85H120.528ZM120.528 55V57.5681H123.096V55H120.528ZM113.428 55H110.86V57.5681H113.428V55ZM113.428 20V17.4319H110.86V20H113.428ZM117.96 20V34.1H123.096V20H117.96ZM120.528 36.6681H134.728V31.5319H120.528V36.6681ZM137.296 34.1V20H132.16V34.1H137.296ZM134.728 22.5681H141.828V17.4319H134.728V22.5681ZM139.26 20V55H144.396V20H139.26ZM141.828 52.4319H134.728V57.5681H141.828V52.4319ZM137.296 55V39.85H132.16V55H137.296ZM134.728 37.2819H120.528V42.4181H134.728V37.2819ZM117.96 39.85V55H123.096V39.85H117.96ZM120.528 52.4319H113.428V57.5681H120.528V52.4319ZM115.996 55V20H110.86V55H115.996ZM113.428 22.5681H120.528V17.4319H113.428V22.5681ZM161.778 54.45L161.023 56.9046L161.04 56.9099L161.058 56.915L161.778 54.45ZM155.928 51.35L154.292 53.3291L154.303 53.3385L154.314 53.3478L155.928 51.35ZM151.678 45.85L149.361 46.9568L149.367 46.9708L149.374 46.9847L151.678 45.85ZM151.578 29.8L153.928 30.8366V30.8366L151.578 29.8ZM155.678 24.15L157.359 26.0919L157.361 26.0895L155.678 24.15ZM161.878 20.75L162.638 23.2031L162.654 23.1982L162.67 23.1931L161.878 20.75ZM173.478 19.9L173.056 22.4332L173.095 22.4397L173.134 22.445L173.478 19.9ZM177.328 20.8H179.896V18.9343L178.122 18.3576L177.328 20.8ZM177.328 26.9L176.401 29.2949L179.896 30.6479V26.9H177.328ZM174.028 25.9L173.44 28.3998L173.448 28.4017L173.456 28.4035L174.028 25.9ZM164.778 26.4L165.668 28.8089L165.683 28.8036L165.697 28.7983L164.778 26.4ZM160.878 28.85L162.694 30.6659V30.6659L160.878 28.85ZM158.428 32.7L160.824 33.6255L160.827 33.6166L160.831 33.6076L158.428 32.7ZM158.578 43.05L156.223 44.074L156.227 44.0835L156.231 44.093L158.578 43.05ZM161.228 46.75L159.533 48.6791L159.55 48.6938L159.567 48.7082L161.228 46.75ZM165.028 48.85L164.233 51.2919L164.267 51.3029L164.3 51.3129L165.028 48.85ZM174.128 48.95L174.86 51.4116L174.881 51.4054L174.901 51.3989L174.128 48.95ZM177.328 47.75H179.896V43.7363L176.252 45.4183L177.328 47.75ZM177.328 53.9L178.156 56.3311L179.896 55.7386V53.9H177.328ZM172.678 55.05L172.292 52.5111L172.678 55.05ZM168.278 52.8319C166.365 52.8319 164.441 52.5528 162.499 51.985L161.058 56.915C163.448 57.6138 165.858 57.9681 168.278 57.9681V52.8319ZM162.533 51.9954C160.674 51.4233 159.016 50.543 157.542 49.3522L154.314 53.3478C156.307 54.957 158.549 56.1434 161.023 56.9046L162.533 51.9954ZM157.565 49.3709C156.14 48.1924 154.939 46.6582 153.982 44.7153L149.374 46.9847C150.617 49.5085 152.25 51.641 154.292 53.3291L157.565 49.3709ZM153.995 44.7432C153.135 42.9413 152.646 40.625 152.646 37.7H147.51C147.51 41.175 148.088 44.292 149.361 46.9568L153.995 44.7432ZM152.646 37.7C152.646 34.9832 153.099 32.7154 153.928 30.8366L149.229 28.7634C148.057 31.418 147.51 34.4167 147.51 37.7H152.646ZM153.928 30.8366C154.787 28.8889 155.935 27.3237 157.359 26.0919L153.998 22.2081C151.954 23.9763 150.369 26.1777 149.229 28.7634L153.928 30.8366ZM157.361 26.0895C158.844 24.8031 160.591 23.8374 162.638 23.2031L161.118 18.2969C158.432 19.1293 156.046 20.4302 153.995 22.2105L157.361 26.0895ZM162.67 23.1931C164.754 22.518 167.05 22.1681 169.578 22.1681V17.0319C166.573 17.0319 163.736 17.4487 161.087 18.3069L162.67 23.1931ZM169.578 22.1681C170.857 22.1681 172.014 22.2596 173.056 22.4332L173.9 17.3668C172.542 17.1404 171.099 17.0319 169.578 17.0319V22.1681ZM173.134 22.445C174.197 22.5886 175.33 22.8508 176.534 23.2424L178.122 18.3576C176.66 17.8825 175.226 17.5447 173.822 17.355L173.134 22.445ZM174.76 20.8V26.9H179.896V20.8H174.76ZM178.255 24.5051C177.098 24.057 175.878 23.6885 174.6 23.3965L173.456 28.4035C174.511 28.6448 175.492 28.943 176.401 29.2949L178.255 24.5051ZM174.616 23.4002C173.244 23.0773 171.723 22.9319 170.078 22.9319V28.0681C171.434 28.0681 172.545 28.1894 173.44 28.3998L174.616 23.4002ZM170.078 22.9319C167.851 22.9319 165.765 23.2719 163.86 24.0017L165.697 28.7983C166.924 28.3281 168.372 28.0681 170.078 28.0681V22.9319ZM163.888 23.9911C162.036 24.6754 160.412 25.6839 159.062 27.0341L162.694 30.6659C163.477 29.8828 164.453 29.2579 165.668 28.8089L163.888 23.9911ZM159.062 27.0341C157.722 28.3745 156.713 29.9733 156.026 31.7924L160.831 33.6076C161.277 32.4267 161.901 31.4588 162.694 30.6659L159.062 27.0341ZM156.033 31.7745C155.337 33.5759 155.01 35.5288 155.01 37.6H160.146C160.146 36.0712 160.386 34.7575 160.824 33.6255L156.033 31.7745ZM155.01 37.6C155.01 39.9651 155.385 42.1462 156.223 44.074L160.933 42.026C160.438 40.8872 160.146 39.4349 160.146 37.6H155.01ZM156.231 44.093C157.03 45.8908 158.122 47.4395 159.533 48.6791L162.923 44.8209C162.134 44.1272 161.459 43.2092 160.925 42.007L156.231 44.093ZM159.567 48.7082C160.933 49.8672 162.497 50.7266 164.233 51.2919L165.823 46.4081C164.693 46.04 163.724 45.4994 162.89 44.7918L159.567 48.7082ZM164.3 51.3129C166.009 51.8177 167.771 52.0681 169.578 52.0681V46.9319C168.252 46.9319 166.98 46.749 165.756 46.3871L164.3 51.3129ZM169.578 52.0681C171.535 52.0681 173.316 51.8708 174.86 51.4116L173.396 46.4884C172.474 46.7625 171.221 46.9319 169.578 46.9319V52.0681ZM174.901 51.3989C176.235 50.9779 177.41 50.5408 178.404 50.0817L176.252 45.4183C175.513 45.7592 174.555 46.1221 173.355 46.5011L174.901 51.3989ZM174.76 47.75V53.9H179.896V47.75H174.76ZM176.501 51.4689C175.068 51.9566 173.665 52.3021 172.292 52.5111L173.064 57.5889C174.757 57.3313 176.455 56.9101 178.156 56.3311L176.501 51.4689ZM172.292 52.5111C170.873 52.727 169.536 52.8319 168.278 52.8319V57.9681C169.82 57.9681 171.417 57.8396 173.064 57.5889L172.292 52.5111Z" fill="#82D9FF"/>
</g>
<g filter="url(#filter4_f_506_5077)">
<path d="M27.1 20H28.3841V18.7159H27.1V20ZM27.1 48.8H25.8159V50.0841H27.1V48.8ZM38.9 48.8V50.0841H40.1841V48.8H38.9ZM38.9 20V18.7159H37.6159V20H38.9ZM46 20H47.2841V18.7159H46V20ZM46 48.8H44.7159V50.0841H46V48.8ZM57.8 48.8V50.0841H59.0841V48.8H57.8ZM57.8 20V18.7159H56.5159V20H57.8ZM64.9 20H66.1841V18.7159H64.9V20ZM64.9 55V56.2841H66.1841V55H64.9ZM20 55H18.7159V56.2841H20V55ZM20 20V18.7159H18.7159V20H20ZM25.8159 20V48.8H28.3841V20H25.8159ZM27.1 50.0841H38.9V47.5159H27.1V50.0841ZM40.1841 48.8V20H37.6159V48.8H40.1841ZM38.9 21.2841H46V18.7159H38.9V21.2841ZM44.7159 20V48.8H47.2841V20H44.7159ZM46 50.0841H57.8V47.5159H46V50.0841ZM59.0841 48.8V20H56.5159V48.8H59.0841ZM57.8 21.2841H64.9V18.7159H57.8V21.2841ZM63.6159 20V55H66.1841V20H63.6159ZM64.9 53.7159H20V56.2841H64.9V53.7159ZM21.2841 55V20H18.7159V55H21.2841ZM20 21.2841H27.1V18.7159H20V21.2841ZM85.1543 20V18.7159H84.2733L83.9563 19.5379L85.1543 20ZM93.1543 20L94.3523 19.5379L94.0353 18.7159H93.1543V20ZM106.654 55V56.2841H108.526L107.852 54.5379L106.654 55ZM98.6543 55L97.4392 55.4153L97.7362 56.2841H98.6543V55ZM95.9543 47.1L97.1693 46.6847L96.8724 45.8159H95.9543V47.1ZM81.8543 47.1V45.8159H80.9362L80.6392 46.6847L81.8543 47.1ZM79.1543 55V56.2841H80.0724L80.3694 55.4153L79.1543 55ZM71.6543 55L70.4563 54.5379L69.7828 56.2841H71.6543V55ZM94.0043 41.35V42.6341H95.7953L95.2204 40.9378L94.0043 41.35ZM88.9543 26.45L90.1704 26.0378L89.8749 25.1659H88.9543V26.45ZM88.8543 26.45V25.1659H87.9337L87.6382 26.0378L88.8543 26.45ZM83.8043 41.35L82.5882 40.9378L82.0133 42.6341H83.8043V41.35ZM85.1543 21.2841H93.1543V18.7159H85.1543V21.2841ZM91.9563 20.4621L105.456 55.4621L107.852 54.5379L94.3523 19.5379L91.9563 20.4621ZM106.654 53.7159H98.6543V56.2841H106.654V53.7159ZM99.8694 54.5847L97.1693 46.6847L94.7392 47.5153L97.4392 55.4153L99.8694 54.5847ZM95.9543 45.8159H81.8543V48.3841H95.9543V45.8159ZM80.6392 46.6847L77.9392 54.5847L80.3694 55.4153L83.0694 47.5153L80.6392 46.6847ZM79.1543 53.7159H71.6543V56.2841H79.1543V53.7159ZM72.8523 55.4621L86.3523 20.4621L83.9563 19.5379L70.4563 54.5379L72.8523 55.4621ZM95.2204 40.9378L90.1704 26.0378L87.7382 26.8622L92.7882 41.7622L95.2204 40.9378ZM88.9543 25.1659H88.8543V27.7341H88.9543V25.1659ZM87.6382 26.0378L82.5882 40.9378L85.0204 41.7622L90.0704 26.8622L87.6382 26.0378ZM83.8043 42.6341H94.0043V40.0659H83.8043V42.6341ZM120.528 20H121.812V18.7159H120.528V20ZM120.528 34.1H119.244V35.3841H120.528V34.1ZM134.728 34.1V35.3841H136.012V34.1H134.728ZM134.728 20V18.7159H133.444V20H134.728ZM141.828 20H143.112V18.7159H141.828V20ZM141.828 55V56.2841H143.112V55H141.828ZM134.728 55H133.444V56.2841H134.728V55ZM134.728 39.85H136.012V38.5659H134.728V39.85ZM120.528 39.85V38.5659H119.244V39.85H120.528ZM120.528 55V56.2841H121.812V55H120.528ZM113.428 55H112.144V56.2841H113.428V55ZM113.428 20V18.7159H112.144V20H113.428ZM119.244 20V34.1H121.812V20H119.244ZM120.528 35.3841H134.728V32.8159H120.528V35.3841ZM136.012 34.1V20H133.444V34.1H136.012ZM134.728 21.2841H141.828V18.7159H134.728V21.2841ZM140.544 20V55H143.112V20H140.544ZM141.828 53.7159H134.728V56.2841H141.828V53.7159ZM136.012 55V39.85H133.444V55H136.012ZM134.728 38.5659H120.528V41.1341H134.728V38.5659ZM119.244 39.85V55H121.812V39.85H119.244ZM120.528 53.7159H113.428V56.2841H120.528V53.7159ZM114.712 55V20H112.144V55H114.712ZM113.428 21.2841H120.528V18.7159H113.428V21.2841ZM161.778 54.45L161.4 55.6773L161.409 55.6799L161.418 55.6825L161.778 54.45ZM155.928 51.35L155.11 52.3396L155.116 52.3443L155.121 52.3489L155.928 51.35ZM151.678 45.85L150.519 46.4034L150.523 46.4104L150.526 46.4174L151.678 45.85ZM151.578 29.8L152.753 30.3183L151.578 29.8ZM155.678 24.15L156.518 25.121L156.52 25.1197L155.678 24.15ZM161.878 20.75L162.258 21.9765L162.266 21.9741L162.274 21.9716L161.878 20.75ZM173.478 19.9L173.267 21.1666L173.287 21.1698L173.306 21.1725L173.478 19.9ZM177.328 20.8H178.612V19.8671L177.725 19.5788L177.328 20.8ZM177.328 26.9L176.865 28.0975L178.612 28.774V26.9H177.328ZM174.028 25.9L173.734 27.1499L173.742 27.1518L174.028 25.9ZM164.778 26.4L165.223 27.6044L165.23 27.6018L165.237 27.5991L164.778 26.4ZM160.878 28.85L161.786 29.758L160.878 28.85ZM158.428 32.7L159.626 33.1628L159.629 33.1538L158.428 32.7ZM158.578 43.05L157.401 43.562L157.405 43.5715L158.578 43.05ZM161.228 46.75L160.38 47.7145L160.389 47.7219L160.397 47.7291L161.228 46.75ZM165.028 48.85L164.631 50.071L164.647 50.0764L164.664 50.0814L165.028 48.85ZM174.128 48.95L174.494 50.1808L174.504 50.1777L174.515 50.1745L174.128 48.95ZM177.328 47.75H178.612V45.7431L176.79 46.5841L177.328 47.75ZM177.328 53.9L177.742 55.1156L178.612 54.8193V53.9H177.328ZM172.678 55.05L172.485 53.7806L172.678 55.05ZM168.278 54.1159C166.238 54.1159 164.193 53.8181 162.138 53.2175L161.418 55.6825C163.697 56.3486 165.985 56.6841 168.278 56.6841V54.1159ZM162.156 53.2227C160.143 52.6033 158.339 51.6465 156.735 50.3511L155.121 52.3489C156.984 53.8535 159.08 54.9634 161.4 55.6773L162.156 53.2227ZM156.746 50.3604C155.167 49.0545 153.859 47.3708 152.83 45.2826L150.526 46.4174C151.698 48.7959 153.222 50.7788 155.11 52.3396L156.746 50.3604ZM152.837 45.2966C151.873 43.279 151.362 40.7625 151.362 37.7H148.794C148.794 41.0375 149.35 43.9544 150.519 46.4034L152.837 45.2966ZM151.362 37.7C151.362 34.8416 151.839 32.391 152.753 30.3183L150.403 29.2817C149.318 31.7423 148.794 34.5584 148.794 37.7H151.362ZM152.753 30.3183C153.683 28.2111 154.94 26.4869 156.518 25.121L154.838 23.179C152.95 24.8131 151.474 26.8555 150.403 29.2817L152.753 30.3183ZM156.52 25.1197C158.144 23.7099 160.051 22.6604 162.258 21.9765L161.498 19.5235C158.972 20.3063 156.745 21.5234 154.836 23.1803L156.52 25.1197ZM162.274 21.9716C164.499 21.2507 166.931 20.8841 169.578 20.8841V18.3159C166.692 18.3159 163.99 18.716 161.482 19.5284L162.274 21.9716ZM169.578 20.8841C170.918 20.8841 172.146 20.9798 173.267 21.1666L173.689 18.6334C172.41 18.4202 171.039 18.3159 169.578 18.3159V20.8841ZM173.306 21.1725C174.454 21.3276 175.662 21.6087 176.931 22.0212L177.725 19.5788C176.327 19.1246 174.969 18.8057 173.65 18.6275L173.306 21.1725ZM176.044 20.8V26.9H178.612V20.8H176.044ZM177.792 25.7025C176.696 25.2785 175.537 24.9276 174.314 24.6482L173.742 27.1518C174.853 27.4057 175.893 27.7215 176.865 28.0975L177.792 25.7025ZM174.322 24.6501C173.07 24.3553 171.65 24.2159 170.078 24.2159V26.7841C171.506 26.7841 172.72 26.9113 173.734 27.1499L174.322 24.6501ZM170.078 24.2159C167.981 24.2159 166.055 24.536 164.319 25.2009L165.237 27.5991C166.635 27.064 168.242 26.7841 170.078 26.7841V24.2159ZM164.333 25.1956C162.641 25.821 161.179 26.7336 159.97 27.942L161.786 29.758C162.711 28.8331 163.849 28.1123 165.223 27.6044L164.333 25.1956ZM159.97 27.942C158.767 29.1456 157.854 30.5867 157.227 32.2462L159.629 33.1538C160.136 31.8133 160.856 30.6877 161.786 29.758L159.97 27.942ZM157.23 32.2372C156.599 33.8713 156.294 35.6644 156.294 37.6H158.862C158.862 35.9356 159.124 34.4621 159.626 33.1628L157.23 32.2372ZM156.294 37.6C156.294 39.8326 156.648 41.8314 157.401 43.562L159.756 42.538C159.175 41.2019 158.862 39.5674 158.862 37.6H156.294ZM157.405 43.5715C158.138 45.2204 159.125 46.6114 160.38 47.7145L162.076 45.7855C161.131 44.9553 160.352 43.8796 159.752 42.5285L157.405 43.5715ZM160.397 47.7291C161.63 48.7753 163.046 49.555 164.631 50.071L165.426 47.629C164.144 47.2117 163.026 46.5914 162.059 45.7709L160.397 47.7291ZM164.664 50.0814C166.252 50.5505 167.891 50.7841 169.578 50.7841V48.2159C168.132 48.2159 166.738 48.0161 165.392 47.6186L164.664 50.0814ZM169.578 50.7841C171.457 50.7841 173.105 50.5937 174.494 50.1808L173.762 47.7192C172.684 48.0396 171.3 48.2159 169.578 48.2159V50.7841ZM174.515 50.1745C175.815 49.7639 176.936 49.3454 177.866 48.9159L176.79 46.5841C175.987 46.9546 174.975 47.3361 173.741 47.7255L174.515 50.1745ZM176.044 47.75V53.9H178.612V47.75H176.044ZM176.914 52.6844C175.415 53.195 173.938 53.5594 172.485 53.7806L172.871 56.3194C174.484 56.074 176.108 55.6717 177.742 55.1156L176.914 52.6844ZM172.485 53.7806C171.009 54.0052 169.607 54.1159 168.278 54.1159V56.6841C169.749 56.6841 171.281 56.5615 172.871 56.3194L172.485 53.7806Z" fill="white"/>
</g>
<defs>
<filter id="filter0_f_506_5077" x="0.739126" y="0.339224" width="195.85" height="74.3216" filterUnits="userSpaceOnUse" color-interpolation-filters="sRGB">
<feFlood flood-opacity="0" result="BackgroundImageFix"/>
<feBlend mode="normal" in="SourceGraphic" in2="BackgroundImageFix" result="shape"/>
<feGaussianBlur stdDeviation="9.63044" result="effect1_foregroundBlur_506_5077"/>
</filter>
<filter id="filter1_f_506_5077" x="13.5797" y="13.1798" width="170.169" height="48.6404" filterUnits="userSpaceOnUse" color-interpolation-filters="sRGB">
<feFlood flood-opacity="0" result="BackgroundImageFix"/>
<feBlend mode="normal" in="SourceGraphic" in2="BackgroundImageFix" result="shape"/>
<feGaussianBlur stdDeviation="3.21015" result="effect1_foregroundBlur_506_5077"/>
</filter>
<filter id="filter2_ddi_506_5077" x="11.6536" y="17.674" width="174.021" height="52.4926" filterUnits="userSpaceOnUse" color-interpolation-filters="sRGB">
<feFlood flood-opacity="0" result="BackgroundImageFix"/>
<feColorMatrix in="SourceAlpha" type="matrix" values="0 0 0 0 0 0 0 0 0 0 0 0 0 0 0 0 0 0 127 0" result="hardAlpha"/>
<feOffset dy="4.17319"/>
<feGaussianBlur stdDeviation="1.60507"/>
<feColorMatrix type="matrix" values="0 0 0 0 0 0 0 0 0 0.051 0 0 0 0 0.082 0 0 0 0.7 0"/>
<feBlend mode="multiply" in2="BackgroundImageFix" result="effect1_dropShadow_506_5077"/>
<feColorMatrix in="SourceAlpha" type="matrix" values="0 0 0 0 0 0 0 0 0 0 0 0 0 0 0 0 0 0 127 0" result="hardAlpha"/>
<feOffset dy="6.42029"/>
<feGaussianBlur stdDeviation="4.17319"/>
<feColorMatrix type="matrix" values="0 0 0 0 0 0 0 0 0 0.4 0 0 0 0 1 0 0 0 1 0"/>
<feBlend mode="color-dodge" in2="effect1_dropShadow_506_5077" result="effect2_dropShadow_506_5077"/>
<feBlend mode="normal" in="SourceGraphic" in2="effect2_dropShadow_506_5077" result="shape"/>
<feColorMatrix in="SourceAlpha" type="matrix" values="0 0 0 0 0 0 0 0 0 0 0 0 0 0 0 0 0 0 127 0" result="hardAlpha"/>
<feOffset dx="-0.417319" dy="0.834638"/>
<feGaussianBlur stdDeviation="0.208659"/>
<feComposite in2="hardAlpha" operator="arithmetic" k2="-1" k3="1"/>
<feColorMatrix type="matrix" values="0 0 0 0 1 0 0 0 0 1 0 0 0 0 1 0 0 0 0.5 0"/>
<feBlend mode="normal" in2="shape" result="effect3_innerShadow_506_5077"/>
</filter>
<filter id="filter3_f_506_5077" x="19.358" y="18.9581" width="158.612" height="37.0839" filterUnits="userSpaceOnUse" color-interpolation-filters="sRGB">
<feFlood flood-opacity="0" result="BackgroundImageFix"/>
<feBlend mode="normal" in="SourceGraphic" in2="BackgroundImageFix" result="shape"/>
<feGaussianBlur stdDeviation="0.321015" result="effect1_foregroundBlur_506_5077"/>
</filter>
<filter id="filter4_f_506_5077" x="19.572" y="19.1721" width="158.184" height="36.6558" filterUnits="userSpaceOnUse" color-interpolation-filters="sRGB">
<feFlood flood-opacity="0" result="BackgroundImageFix"/>
<feBlend mode="normal" in="SourceGraphic" in2="BackgroundImageFix" result="shape"/>
<feGaussianBlur stdDeviation="0.21401" result="effect1_foregroundBlur_506_5077"/>
</filter>
</defs>
</svg>
