<svg viewBox="0 0 63 85" fill="none" xmlns="http://www.w3.org/2000/svg">
    <g style="mix-blend-mode:hard-light" filter="url(#filter0_f_472_9703)">
        <path d="M27.615 53.3058C27.4629 53.3058 27.3397 53.1825 27.3397 53.0304V53.0304C27.3702 50.1088 27.6761 47.7838 28.2572 46.0553C28.8383 44.3268 29.6641 42.9272 30.7345 41.8564C31.8049 40.7857 33.0895 39.7991 34.5881 38.8966C35.4903 38.3459 36.3008 37.6958 37.0195 36.9463C37.7383 36.1815 38.3041 35.3019 38.717 34.3077C39.1451 33.3134 39.3592 32.2121 39.3592 31.0037C39.3592 29.5046 39.0075 28.2044 38.3041 27.1031C37.6006 26.0018 36.6602 25.1528 35.4827 24.5562C34.3052 23.9597 32.9977 23.6614 31.5603 23.6614C30.3063 23.6614 29.0982 23.9215 27.936 24.4415C26.7739 24.9616 25.8028 25.78 25.0229 26.8966C24.6728 27.3979 24.3889 27.9686 24.1713 28.6086C23.6777 30.0607 22.4787 31.279 20.945 31.279V31.279C19.2811 31.279 17.9147 29.8725 18.32 28.2586C18.6586 26.9101 19.1879 25.6912 19.9077 24.6021C21.1464 22.7513 22.775 21.3364 24.7935 20.3574C26.8274 19.3784 29.083 18.8889 31.5603 18.8889C34.2517 18.8889 36.5914 19.4243 38.5793 20.4951C40.5826 21.5658 42.1271 23.0343 43.2128 24.9004C44.3139 26.7666 44.8644 28.8928 44.8644 31.279C44.8644 32.9616 44.6044 34.4836 44.0845 35.845C43.5798 37.2063 42.8458 38.4224 41.8824 39.4932C40.9343 40.5639 39.7874 41.5123 38.4417 42.3383C37.096 43.1796 36.0179 44.0668 35.2074 44.9998C34.3969 45.9176 33.8082 47.0113 33.4412 48.2809C33.0742 49.5505 32.8754 51.1337 32.8448 53.0304V53.0304C32.8448 53.1825 32.7215 53.3058 32.5695 53.3058H27.615ZM30.2757 66.8889C29.1441 66.8889 28.1731 66.4836 27.3626 65.6729C26.5521 64.8622 26.1469 63.8909 26.1469 62.7589C26.1469 61.627 26.5521 60.6557 27.3626 59.845C28.1731 59.0343 29.1441 58.6289 30.2757 58.6289C31.4073 58.6289 32.3784 59.0343 33.1889 59.845C33.9994 60.6557 34.4046 61.627 34.4046 62.7589C34.4046 63.5085 34.2134 64.1968 33.8311 64.8239C33.4641 65.4511 32.9671 65.9559 32.3402 66.3383C31.7285 66.7054 31.0403 66.8889 30.2757 66.8889Z" stroke="#8620FF" stroke-width="3.50678"/>
    </g>
    <g style="mix-blend-mode:hard-light" filter="url(#filter1_f_472_9703)">
        <path d="M27.615 53.3058C27.4629 53.3058 27.3397 53.1825 27.3397 53.0304V53.0304C27.3702 50.1088 27.6761 47.7838 28.2572 46.0553C28.8383 44.3268 29.6641 42.9272 30.7345 41.8564C31.8049 40.7857 33.0895 39.7991 34.5881 38.8966C35.4903 38.3459 36.3008 37.6958 37.0195 36.9463C37.7383 36.1815 38.3041 35.3019 38.717 34.3077C39.1451 33.3134 39.3592 32.2121 39.3592 31.0037C39.3592 29.5046 39.0075 28.2044 38.3041 27.1031C37.6006 26.0018 36.6602 25.1528 35.4827 24.5562C34.3052 23.9597 32.9977 23.6614 31.5603 23.6614C30.3063 23.6614 29.0982 23.9215 27.936 24.4415C26.7739 24.9616 25.8028 25.78 25.0229 26.8966C24.6728 27.3979 24.3889 27.9686 24.1713 28.6086C23.6777 30.0607 22.4787 31.279 20.945 31.279V31.279C19.2811 31.279 17.9147 29.8725 18.32 28.2586C18.6586 26.9101 19.1879 25.6912 19.9077 24.6021C21.1464 22.7513 22.775 21.3364 24.7935 20.3574C26.8274 19.3784 29.083 18.8889 31.5603 18.8889C34.2517 18.8889 36.5914 19.4243 38.5793 20.4951C40.5826 21.5658 42.1271 23.0343 43.2128 24.9004C44.3139 26.7666 44.8644 28.8928 44.8644 31.279C44.8644 32.9616 44.6044 34.4836 44.0845 35.845C43.5798 37.2063 42.8458 38.4224 41.8824 39.4932C40.9343 40.5639 39.7874 41.5123 38.4417 42.3383C37.096 43.1796 36.0179 44.0668 35.2074 44.9998C34.3969 45.9176 33.8082 47.0113 33.4412 48.2809C33.0742 49.5505 32.8754 51.1337 32.8448 53.0304V53.0304C32.8448 53.1825 32.7215 53.3058 32.5695 53.3058H27.615ZM30.2757 66.8889C29.1441 66.8889 28.1731 66.4836 27.3626 65.6729C26.5521 64.8622 26.1469 63.8909 26.1469 62.7589C26.1469 61.627 26.5521 60.6557 27.3626 59.845C28.1731 59.0343 29.1441 58.6289 30.2757 58.6289C31.4073 58.6289 32.3784 59.0343 33.1889 59.845C33.9994 60.6557 34.4046 61.627 34.4046 62.7589C34.4046 63.5085 34.2134 64.1968 33.8311 64.8239C33.4641 65.4511 32.9671 65.9559 32.3402 66.3383C31.7285 66.7054 31.0403 66.8889 30.2757 66.8889Z" stroke="#8620FF" stroke-width="4.58579"/>
    </g>
    <g style="mix-blend-mode:hard-light" filter="url(#filter2_ddi_472_9703)">
        <path d="M27.615 53.3058C27.4629 53.3058 27.3397 53.1825 27.3397 53.0304V53.0304C27.3702 50.1088 27.6761 47.7838 28.2572 46.0553C28.8383 44.3268 29.6641 42.9272 30.7345 41.8564C31.8049 40.7857 33.0895 39.7991 34.5881 38.8966C35.4903 38.3459 36.3008 37.6958 37.0195 36.9463C37.7383 36.1815 38.3041 35.3019 38.717 34.3077C39.1451 33.3134 39.3592 32.2121 39.3592 31.0037C39.3592 29.5046 39.0075 28.2044 38.3041 27.1031C37.6006 26.0018 36.6602 25.1528 35.4827 24.5562C34.3052 23.9597 32.9977 23.6614 31.5603 23.6614C30.3063 23.6614 29.0982 23.9215 27.936 24.4415C26.7739 24.9616 25.8028 25.78 25.0229 26.8966C24.6728 27.3979 24.3889 27.9686 24.1713 28.6086C23.6777 30.0607 22.4787 31.279 20.945 31.279V31.279C19.2811 31.279 17.9147 29.8725 18.32 28.2586C18.6586 26.9101 19.1879 25.6912 19.9077 24.6021C21.1464 22.7513 22.775 21.3364 24.7935 20.3574C26.8274 19.3784 29.083 18.8889 31.5603 18.8889C34.2517 18.8889 36.5914 19.4243 38.5793 20.4951C40.5826 21.5658 42.1271 23.0343 43.2128 24.9004C44.3139 26.7666 44.8644 28.8928 44.8644 31.279C44.8644 32.9616 44.6044 34.4836 44.0845 35.845C43.5798 37.2063 42.8458 38.4224 41.8824 39.4932C40.9343 40.5639 39.7874 41.5123 38.4417 42.3383C37.096 43.1796 36.0179 44.0668 35.2074 44.9998C34.3969 45.9176 33.8082 47.0113 33.4412 48.2809C33.0742 49.5505 32.8754 51.1337 32.8448 53.0304V53.0304C32.8448 53.1825 32.7215 53.3058 32.5695 53.3058H27.615ZM30.2757 66.8889C29.1441 66.8889 28.1731 66.4836 27.3626 65.6729C26.5521 64.8622 26.1469 63.8909 26.1469 62.7589C26.1469 61.627 26.5521 60.6557 27.3626 59.845C28.1731 59.0343 29.1441 58.6289 30.2757 58.6289C31.4073 58.6289 32.3784 59.0343 33.1889 59.845C33.9994 60.6557 34.4046 61.627 34.4046 62.7589C34.4046 63.5085 34.2134 64.1968 33.8311 64.8239C33.4641 65.4511 32.9671 65.9559 32.3402 66.3383C31.7285 66.7054 31.0403 66.8889 30.2757 66.8889Z" stroke="#AE69FF" stroke-opacity="0.2" stroke-width="3.50678"/>
    </g>
    <g filter="url(#filter3_f_472_9703)">
        <path d="M27.615 53.3058C27.4629 53.3058 27.3397 53.1825 27.3397 53.0304C27.3702 50.1088 27.6761 47.7838 28.2572 46.0553C28.8383 44.3268 29.6641 42.9272 30.7345 41.8564C31.8049 40.7857 33.0895 39.7991 34.5881 38.8966C35.4903 38.3459 36.3008 37.6958 37.0195 36.9463C37.7383 36.1815 38.3041 35.3019 38.717 34.3077C39.1451 33.3134 39.3592 32.2121 39.3592 31.0037C39.3592 29.5046 39.0075 28.2044 38.3041 27.1031C37.6006 26.0018 36.6602 25.1528 35.4827 24.5563C34.3052 23.9597 32.9977 23.6614 31.5603 23.6614C30.3063 23.6614 29.0982 23.9215 27.936 24.4415C26.7739 24.9616 25.8028 25.78 25.0229 26.8966C24.6728 27.3979 24.3889 27.9686 24.1713 28.6086C23.6777 30.0607 22.4787 31.279 20.945 31.279C19.2811 31.279 17.9147 29.8725 18.32 28.2586C18.6586 26.9101 19.1879 25.6912 19.9077 24.6021C21.1464 22.7513 22.775 21.3364 24.7935 20.3574C26.8274 19.3784 29.083 18.8889 31.5603 18.8889C34.2517 18.8889 36.5914 19.4243 38.5793 20.4951C40.5826 21.5658 42.1271 23.0343 43.2128 24.9004C44.3139 26.7666 44.8644 28.8928 44.8644 31.279C44.8644 32.9616 44.6044 34.4836 44.0845 35.845C43.5798 37.2063 42.8458 38.4224 41.8824 39.4932C40.9343 40.5639 39.7874 41.5123 38.4417 42.3383C37.096 43.1796 36.0179 44.0668 35.2074 44.9998C34.3969 45.9176 33.8082 47.0113 33.4412 48.2809C33.0742 49.5505 32.8754 51.1337 32.8448 53.0304C32.8448 53.1825 32.7215 53.3058 32.5695 53.3058H27.615ZM30.2757 66.8889C29.1441 66.8889 28.1731 66.4836 27.3626 65.6729C26.5521 64.8622 26.1469 63.8909 26.1469 62.7589C26.1469 61.627 26.5521 60.6557 27.3626 59.845C28.1731 59.0343 29.1441 58.6289 30.2757 58.6289C31.4073 58.6289 32.3784 59.0343 33.1889 59.845C33.9994 60.6557 34.4046 61.627 34.4046 62.7589C34.4046 63.5084 34.2134 64.1968 33.8311 64.8239C33.4641 65.4511 32.9671 65.9559 32.3402 66.3383C31.7285 66.7054 31.0403 66.8889 30.2757 66.8889Z" fill="#8620FF" fill-opacity="0.1"/>
    </g>
    <g filter="url(#filter4_f_472_9703)">
        <path d="M27.615 53.3058C27.4629 53.3058 27.3397 53.1825 27.3397 53.0304V53.0304C27.3702 50.1088 27.6761 47.7838 28.2572 46.0553C28.8383 44.3268 29.6641 42.9272 30.7345 41.8564C31.8049 40.7857 33.0895 39.7991 34.5881 38.8966C35.4903 38.3459 36.3008 37.6958 37.0195 36.9463C37.7383 36.1815 38.3041 35.3019 38.717 34.3077C39.1451 33.3134 39.3592 32.2121 39.3592 31.0037C39.3592 29.5046 39.0075 28.2044 38.3041 27.1031C37.6006 26.0018 36.6602 25.1528 35.4827 24.5562C34.3052 23.9597 32.9977 23.6614 31.5603 23.6614C30.3063 23.6614 29.0982 23.9215 27.936 24.4415C26.7739 24.9616 25.8028 25.78 25.0229 26.8966C24.6728 27.3979 24.3889 27.9686 24.1713 28.6086C23.6777 30.0607 22.4787 31.279 20.945 31.279V31.279C19.2811 31.279 17.9147 29.8725 18.32 28.2586C18.6586 26.9101 19.1879 25.6912 19.9077 24.6021C21.1464 22.7513 22.775 21.3364 24.7935 20.3574C26.8274 19.3784 29.083 18.8889 31.5603 18.8889C34.2517 18.8889 36.5914 19.4243 38.5793 20.4951C40.5826 21.5658 42.1271 23.0343 43.2128 24.9004C44.3139 26.7666 44.8644 28.8928 44.8644 31.279C44.8644 32.9616 44.6044 34.4836 44.0845 35.845C43.5798 37.2063 42.8458 38.4224 41.8824 39.4932C40.9343 40.5639 39.7874 41.5123 38.4417 42.3383C37.096 43.1796 36.0179 44.0668 35.2074 44.9998C34.3969 45.9176 33.8082 47.0113 33.4412 48.2809C33.0742 49.5505 32.8754 51.1337 32.8448 53.0304V53.0304C32.8448 53.1825 32.7215 53.3058 32.5695 53.3058H27.615ZM30.2757 66.8889C29.1441 66.8889 28.1731 66.4836 27.3626 65.6729C26.5521 64.8622 26.1469 63.8909 26.1469 62.7589C26.1469 61.627 26.5521 60.6557 27.3626 59.845C28.1731 59.0343 29.1441 58.6289 30.2757 58.6289C31.4073 58.6289 32.3784 59.0343 33.1889 59.845C33.9994 60.6557 34.4046 61.627 34.4046 62.7589C34.4046 63.5085 34.2134 64.1968 33.8311 64.8239C33.4641 65.4511 32.9671 65.9559 32.3402 66.3383C31.7285 66.7054 31.0403 66.8889 30.2757 66.8889Z" stroke="white" stroke-width="0.8"/>
    </g>
    <defs>
        <filter id="filter0_f_472_9703" x="0.301815" y="0.950436" width="62.5011" height="83.877" filterUnits="userSpaceOnUse" color-interpolation-filters="sRGB">
            <feFlood flood-opacity="0" result="BackgroundImageFix"/>
            <feBlend mode="normal" in="SourceGraphic" in2="BackgroundImageFix" result="shape"/>
            <feGaussianBlur stdDeviation="8.09256" result="effect1_foregroundBlur_472_9703"/>
        </filter>
        <filter id="filter1_f_472_9703" x="10.5499" y="11.201" width="42.0024" height="63.3759" filterUnits="userSpaceOnUse" color-interpolation-filters="sRGB">
            <feFlood flood-opacity="0" result="BackgroundImageFix"/>
            <feBlend mode="normal" in="SourceGraphic" in2="BackgroundImageFix" result="shape"/>
            <feGaussianBlur stdDeviation="2.69752" result="effect1_foregroundBlur_472_9703"/>
        </filter>
        <filter id="filter2_ddi_472_9703" x="9.47338" y="15.517" width="44.158" height="65.5339" filterUnits="userSpaceOnUse" color-interpolation-filters="sRGB">
            <feFlood flood-opacity="0" result="BackgroundImageFix"/>
            <feColorMatrix in="SourceAlpha" type="matrix" values="0 0 0 0 0 0 0 0 0 0 0 0 0 0 0 0 0 0 127 0" result="hardAlpha"/>
            <feOffset dy="3.50678"/>
            <feGaussianBlur stdDeviation="1.34876"/>
            <feColorMatrix type="matrix" values="0 0 0 0 0 0 0 0 0 0.051 0 0 0 0 0.082 0 0 0 0.51 0"/>
            <feBlend mode="multiply" in2="BackgroundImageFix" result="effect1_dropShadow_472_9703"/>
            <feColorMatrix in="SourceAlpha" type="matrix" values="0 0 0 0 0 0 0 0 0 0 0 0 0 0 0 0 0 0 127 0" result="hardAlpha"/>
            <feOffset dy="5.39504"/>
            <feGaussianBlur stdDeviation="3.50678"/>
            <feColorMatrix type="matrix" values="0 0 0 0 0.52549 0 0 0 0 0.12549 0 0 0 0 1 0 0 0 0.26 0"/>
            <feBlend mode="color-dodge" in2="effect1_dropShadow_472_9703" result="effect2_dropShadow_472_9703"/>
            <feBlend mode="normal" in="SourceGraphic" in2="effect2_dropShadow_472_9703" result="shape"/>
            <feColorMatrix in="SourceAlpha" type="matrix" values="0 0 0 0 0 0 0 0 0 0 0 0 0 0 0 0 0 0 127 0" result="hardAlpha"/>
            <feOffset dx="-0.350678" dy="0.701355"/>
            <feGaussianBlur stdDeviation="0.175339"/>
            <feComposite in2="hardAlpha" operator="arithmetic" k2="-1" k3="1"/>
            <feColorMatrix type="matrix" values="0 0 0 0 1 0 0 0 0 1 0 0 0 0 1 0 0 0 0.5 0"/>
            <feBlend mode="normal" in2="shape" result="effect3_innerShadow_472_9703"/>
        </filter>
        <filter id="filter3_f_472_9703" x="17.7085" y="18.3494" width="27.6953" height="49.079" filterUnits="userSpaceOnUse" color-interpolation-filters="sRGB">
            <feFlood flood-opacity="0" result="BackgroundImageFix"/>
            <feBlend mode="normal" in="SourceGraphic" in2="BackgroundImageFix" result="shape"/>
            <feGaussianBlur stdDeviation="0.269752" result="effect1_foregroundBlur_472_9703"/>
        </filter>
        <filter id="filter4_f_472_9703" x="17.4866" y="18.1293" width="28.1374" height="49.5193" filterUnits="userSpaceOnUse" color-interpolation-filters="sRGB">
            <feFlood flood-opacity="0" result="BackgroundImageFix"/>
            <feBlend mode="normal" in="SourceGraphic" in2="BackgroundImageFix" result="shape"/>
            <feGaussianBlur stdDeviation="0.179835" result="effect1_foregroundBlur_472_9703"/>
        </filter>
    </defs>
</svg>
