<svg viewBox="0 0 83 77" fill="none" xmlns="http://www.w3.org/2000/svg">
    <g style="mix-blend-mode:hard-light" filter="url(#filter0_f_472_9706)">
        <path d="M19.9128 5.78565C19.9273 5.74965 19.9437 5.73583 19.9555 5.72826C19.9712 5.71824 19.9952 5.70987 20.0249 5.70987C20.0546 5.70987 20.0786 5.71824 20.0943 5.72827C20.1061 5.73583 20.1225 5.74965 20.137 5.78565L21.8614 10.0799C22.1033 10.6822 22.6686 11.0929 23.3162 11.1368L27.9332 11.4499C27.9719 11.4525 27.9901 11.4639 28.0009 11.4728C28.0153 11.4846 28.0307 11.5049 28.0399 11.5331C28.049 11.5613 28.0485 11.5867 28.0438 11.6047C28.0403 11.6183 28.0322 11.6382 28.0024 11.6631L24.4512 14.6301C23.9531 15.0463 23.7372 15.7109 23.8956 16.3403L25.0246 20.828C25.034 20.8657 25.0289 20.8865 25.0237 20.8996C25.0169 20.9169 25.0024 20.9378 24.9784 20.9552C24.9544 20.9727 24.9301 20.98 24.9115 20.9811C24.8975 20.982 24.8761 20.9804 24.8432 20.9598L20.924 18.4993C20.3743 18.1542 19.6755 18.1542 19.1258 18.4993L15.2066 20.9598C15.1737 20.9804 15.1523 20.982 15.1383 20.9811C15.1197 20.98 15.0954 20.9727 15.0714 20.9552C15.0474 20.9378 15.0329 20.9169 15.0261 20.8996C15.0209 20.8865 15.0158 20.8657 15.0252 20.828L16.1542 16.3403C16.3126 15.7109 16.0967 15.0463 15.5986 14.6301L12.0474 11.6631C12.0176 11.6382 12.0095 11.6183 12.006 11.6047C12.0013 11.5867 12.0008 11.5613 12.0099 11.5331C12.0191 11.5049 12.0345 11.4846 12.0489 11.4728C12.0597 11.4639 12.0779 11.4525 12.1166 11.4499L16.7336 11.1368C17.3812 11.0929 17.9465 10.6822 18.1884 10.0799L19.9128 5.78565Z" stroke="#6A11D5" stroke-width="1.57018"/>
    </g>
    <g style="mix-blend-mode:hard-light" filter="url(#filter1_f_472_9706)">
        <path d="M18.4125 10.1699L20.0249 6.15478L21.6373 10.1699C21.9137 10.8583 22.5598 11.3277 23.2999 11.3779L27.6167 11.6706L24.2964 14.4448C23.7271 14.9204 23.4803 15.6799 23.6613 16.3993L24.7169 20.5953L21.0524 18.2947C20.4242 17.9003 19.6256 17.9003 18.9974 18.2947L15.3329 20.5953L16.3885 16.3993C16.5695 15.6799 16.3227 14.9204 15.7534 14.4448L12.4331 11.6706L16.7499 11.3779C17.49 11.3277 18.1361 10.8583 18.4125 10.1699ZM24.7903 20.887C24.7903 20.8869 24.7903 20.8869 24.7902 20.8868L24.7903 20.887ZM20.1369 5.87589L20.137 5.87567L20.1369 5.87589Z" stroke="#7936C9" stroke-width="2.05331"/>
    </g>
    <g style="mix-blend-mode:hard-light" filter="url(#filter2_ddi_472_9706)">
        <path d="M19.9128 5.78565C19.9273 5.74965 19.9437 5.73583 19.9555 5.72826C19.9712 5.71824 19.9952 5.70987 20.0249 5.70987C20.0546 5.70987 20.0786 5.71824 20.0943 5.72827C20.1061 5.73583 20.1225 5.74965 20.137 5.78565L21.8614 10.0799C22.1033 10.6822 22.6686 11.0929 23.3162 11.1368L27.9332 11.4499C27.9719 11.4525 27.9901 11.4639 28.0009 11.4728C28.0153 11.4846 28.0307 11.5049 28.0399 11.5331C28.049 11.5613 28.0485 11.5867 28.0438 11.6047C28.0403 11.6183 28.0322 11.6382 28.0024 11.6631L24.4512 14.6301C23.9531 15.0463 23.7372 15.7109 23.8956 16.3403L25.0246 20.828C25.034 20.8657 25.0289 20.8865 25.0237 20.8996C25.0169 20.9169 25.0024 20.9378 24.9784 20.9552C24.9544 20.9727 24.9301 20.98 24.9115 20.9811C24.8975 20.982 24.8761 20.9804 24.8432 20.9598L20.924 18.4993C20.3743 18.1542 19.6755 18.1542 19.1258 18.4993L15.2066 20.9598C15.1737 20.9804 15.1523 20.982 15.1383 20.9811C15.1197 20.98 15.0954 20.9727 15.0714 20.9552C15.0474 20.9378 15.0329 20.9169 15.0261 20.8996C15.0209 20.8865 15.0158 20.8657 15.0252 20.828L16.1542 16.3403C16.3126 15.7109 16.0967 15.0463 15.5986 14.6301L12.0474 11.6631C12.0176 11.6382 12.0095 11.6183 12.006 11.6047C12.0013 11.5867 12.0008 11.5613 12.0099 11.5331C12.0191 11.5049 12.0345 11.4846 12.0489 11.4728C12.0597 11.4639 12.0779 11.4525 12.1166 11.4499L16.7336 11.1368C17.3812 11.0929 17.9465 10.6822 18.1884 10.0799L19.9128 5.78565Z" stroke="#8620FF" stroke-opacity="0.2" stroke-width="1.57018"/>
    </g>
    <g filter="url(#filter3_f_472_9706)">
        <path d="M19.6326 5.67312C19.7746 5.31951 20.2752 5.31951 20.4172 5.67312L22.1416 9.96737C22.3403 10.4621 22.8047 10.7995 23.3366 10.8356L27.9536 11.1486C28.3338 11.1744 28.4885 11.6505 28.196 11.8948L24.6449 14.8619C24.2357 15.2037 24.0583 15.7496 24.1884 16.2667L25.3174 20.7544C25.4104 21.1239 25.0054 21.4182 24.6826 21.2155L20.7634 18.755C20.3119 18.4715 19.7379 18.4715 19.2864 18.755L15.3672 21.2155C15.0444 21.4182 14.6394 21.1239 14.7324 20.7544L15.8614 16.2667C15.9915 15.7496 15.8141 15.2037 15.405 14.8619L11.8538 11.8948C11.5613 11.6505 11.716 11.1744 12.0962 11.1486L16.7132 10.8356C17.2451 10.7995 17.7095 10.4621 17.9082 9.96737L19.6326 5.67312Z" stroke="#8620FF" stroke-opacity="0.2" stroke-width="0.966264"/>
    </g>
    <g filter="url(#filter4_f_472_9706)">
        <path d="M19.4084 5.5831C19.6316 5.02743 20.4182 5.02743 20.6414 5.5831L22.3658 9.87735C22.5299 10.2861 22.9135 10.5648 23.353 10.5946L27.9699 10.9076C28.5674 10.9481 28.8104 11.6963 28.3509 12.0802L24.7997 15.0472C24.4617 15.3296 24.3152 15.7806 24.4227 16.2077L25.5517 20.6954C25.6977 21.2761 25.0613 21.7385 24.5542 21.4201L20.635 18.9596C20.262 18.7254 19.7878 18.7254 19.4148 18.9596L15.4956 21.4201C14.9885 21.7385 14.3521 21.2761 14.4981 20.6954L15.6271 16.2077C15.7346 15.7806 15.5881 15.3296 15.2501 15.0472L11.6989 12.0802C11.2394 11.6963 11.4824 10.9481 12.0799 10.9076L16.6968 10.5946C17.1363 10.5648 17.5199 10.2861 17.684 9.87735L19.4084 5.5831Z" stroke="white" stroke-width="0.483132"/>
    </g>
    <g style="mix-blend-mode:hard-light" filter="url(#filter5_f_472_9706)">
        <path d="M41.3879 5.78565C41.4024 5.74965 41.4188 5.73583 41.4306 5.72826C41.4463 5.71824 41.4703 5.70987 41.5 5.70987C41.5297 5.70987 41.5537 5.71824 41.5694 5.72827C41.5812 5.73583 41.5976 5.74965 41.6121 5.78565L43.3365 10.0799C43.5784 10.6822 44.1437 11.0929 44.7913 11.1368L49.4083 11.4499C49.447 11.4525 49.4652 11.4639 49.476 11.4728C49.4904 11.4846 49.5058 11.5049 49.515 11.5331C49.5241 11.5613 49.5236 11.5867 49.5189 11.6047C49.5154 11.6183 49.5073 11.6382 49.4775 11.6631L45.9263 14.6301C45.4282 15.0463 45.2123 15.7109 45.3707 16.3403L46.4997 20.828C46.5091 20.8657 46.504 20.8865 46.4988 20.8996C46.492 20.9169 46.4775 20.9378 46.4535 20.9552C46.4295 20.9727 46.4052 20.98 46.3866 20.9811C46.3726 20.982 46.3512 20.9804 46.3183 20.9598L42.3991 18.4993C41.8494 18.1542 41.1506 18.1542 40.6009 18.4993L36.6817 20.9598C36.6488 20.9804 36.6274 20.982 36.6134 20.9811C36.5948 20.98 36.5705 20.9727 36.5465 20.9552C36.5225 20.9378 36.508 20.9169 36.5012 20.8996C36.496 20.8865 36.4909 20.8657 36.5003 20.828L37.6293 16.3403C37.7877 15.7109 37.5718 15.0463 37.0737 14.6301L33.5225 11.6631C33.4927 11.6382 33.4846 11.6183 33.4811 11.6047C33.4764 11.5867 33.4759 11.5613 33.485 11.5331C33.4942 11.5049 33.5096 11.4846 33.524 11.4728C33.5348 11.4639 33.553 11.4525 33.5917 11.4499L38.2087 11.1368C38.8563 11.0929 39.4216 10.6822 39.6635 10.0799L41.3879 5.78565Z" stroke="#6A11D5" stroke-width="1.57018"/>
    </g>
    <g style="mix-blend-mode:hard-light" filter="url(#filter6_f_472_9706)">
        <path d="M39.8876 10.1699L41.5 6.15478L43.1124 10.1699C43.3888 10.8583 44.0349 11.3277 44.775 11.3779L49.0918 11.6706L45.7715 14.4448C45.2022 14.9204 44.9554 15.6799 45.1364 16.3993L46.192 20.5953L42.5275 18.2947C41.8993 17.9003 41.1007 17.9003 40.4725 18.2947L36.808 20.5953L37.8636 16.3993C38.0446 15.6799 37.7978 14.9204 37.2285 14.4448L33.9082 11.6706L38.225 11.3779C38.9651 11.3277 39.6112 10.8583 39.8876 10.1699ZM46.2654 20.887C46.2654 20.8869 46.2654 20.8869 46.2653 20.8868L46.2654 20.887ZM41.612 5.87589L41.6121 5.87567L41.612 5.87589Z" stroke="#7936C9" stroke-width="2.05331"/>
    </g>
    <g style="mix-blend-mode:hard-light" filter="url(#filter7_ddi_472_9706)">
        <path d="M41.3879 5.78565C41.4024 5.74965 41.4188 5.73583 41.4306 5.72826C41.4463 5.71824 41.4703 5.70987 41.5 5.70987C41.5297 5.70987 41.5537 5.71824 41.5694 5.72827C41.5812 5.73583 41.5976 5.74965 41.6121 5.78565L43.3365 10.0799C43.5784 10.6822 44.1437 11.0929 44.7913 11.1368L49.4083 11.4499C49.447 11.4525 49.4652 11.4639 49.476 11.4728C49.4904 11.4846 49.5058 11.5049 49.515 11.5331C49.5241 11.5613 49.5236 11.5867 49.5189 11.6047C49.5154 11.6183 49.5073 11.6382 49.4775 11.6631L45.9263 14.6301C45.4282 15.0463 45.2123 15.7109 45.3707 16.3403L46.4997 20.828C46.5091 20.8657 46.504 20.8865 46.4988 20.8996C46.492 20.9169 46.4775 20.9378 46.4535 20.9552C46.4295 20.9727 46.4052 20.98 46.3866 20.9811C46.3726 20.982 46.3512 20.9804 46.3183 20.9598L42.3991 18.4993C41.8494 18.1542 41.1506 18.1542 40.6009 18.4993L36.6817 20.9598C36.6488 20.9804 36.6274 20.982 36.6134 20.9811C36.5948 20.98 36.5705 20.9727 36.5465 20.9552C36.5225 20.9378 36.508 20.9169 36.5012 20.8996C36.496 20.8865 36.4909 20.8657 36.5003 20.828L37.6293 16.3403C37.7877 15.7109 37.5718 15.0463 37.0737 14.6301L33.5225 11.6631C33.4927 11.6382 33.4846 11.6183 33.4811 11.6047C33.4764 11.5867 33.4759 11.5613 33.485 11.5331C33.4942 11.5049 33.5096 11.4846 33.524 11.4728C33.5348 11.4639 33.553 11.4525 33.5917 11.4499L38.2087 11.1368C38.8563 11.0929 39.4216 10.6822 39.6635 10.0799L41.3879 5.78565Z" stroke="#8620FF" stroke-opacity="0.2" stroke-width="1.57018"/>
    </g>
    <g filter="url(#filter8_f_472_9706)">
        <path d="M41.1077 5.67312C41.2497 5.31951 41.7503 5.31951 41.8923 5.67312L43.6167 9.96737C43.8154 10.4621 44.2798 10.7995 44.8117 10.8356L49.4287 11.1486C49.8089 11.1744 49.9636 11.6505 49.6711 11.8948L46.12 14.8619C45.7108 15.2037 45.5334 15.7496 45.6635 16.2667L46.7925 20.7544C46.8855 21.1239 46.4805 21.4182 46.1577 21.2155L42.2385 18.755C41.787 18.4715 41.213 18.4715 40.7615 18.755L36.8423 21.2155C36.5195 21.4182 36.1145 21.1239 36.2075 20.7544L37.3365 16.2667C37.4666 15.7496 37.2892 15.2037 36.88 14.8619L33.3289 11.8948C33.0364 11.6505 33.1911 11.1744 33.5713 11.1486L38.1883 10.8356C38.7202 10.7995 39.1846 10.4621 39.3833 9.96737L41.1077 5.67312Z" stroke="#8620FF" stroke-opacity="0.2" stroke-width="0.966264"/>
    </g>
    <g filter="url(#filter9_f_472_9706)">
        <path d="M40.8835 5.5831C41.1067 5.02743 41.8933 5.02743 42.1165 5.5831L43.8409 9.87735C44.005 10.2861 44.3886 10.5648 44.8281 10.5946L49.445 10.9076C50.0425 10.9481 50.2855 11.6963 49.826 12.0802L46.2748 15.0472C45.9368 15.3296 45.7903 15.7806 45.8978 16.2077L47.0268 20.6954C47.1728 21.2761 46.5364 21.7385 46.0293 21.4201L42.1101 18.9596C41.7371 18.7254 41.2629 18.7254 40.8899 18.9596L36.9707 21.4201C36.4636 21.7385 35.8272 21.2761 35.9732 20.6954L37.1022 16.2077C37.2097 15.7806 37.0632 15.3296 36.7252 15.0472L33.174 12.0802C32.7145 11.6963 32.9575 10.9481 33.555 10.9076L38.1719 10.5946C38.6114 10.5648 38.995 10.2861 39.1591 9.87735L40.8835 5.5831Z" stroke="white" stroke-width="0.483132"/>
    </g>
    <g style="mix-blend-mode:hard-light" filter="url(#filter10_f_472_9706)">
        <path d="M62.863 5.78565C62.8775 5.74965 62.8939 5.73583 62.9057 5.72826C62.9214 5.71824 62.9454 5.70987 62.9751 5.70987C63.0048 5.70987 63.0288 5.71824 63.0445 5.72827C63.0563 5.73583 63.0727 5.74965 63.0872 5.78565L64.8116 10.0799C65.0535 10.6822 65.6188 11.0929 66.2664 11.1368L70.8834 11.4499C70.9221 11.4525 70.9403 11.4639 70.9511 11.4728C70.9655 11.4846 70.9809 11.5049 70.9901 11.5331C70.9992 11.5613 70.9987 11.5867 70.994 11.6047C70.9905 11.6183 70.9824 11.6382 70.9526 11.6631L67.4014 14.6301C66.9033 15.0463 66.6874 15.7109 66.8458 16.3403L67.9748 20.828C67.9842 20.8657 67.9791 20.8865 67.9739 20.8996C67.9671 20.9169 67.9526 20.9378 67.9286 20.9552C67.9046 20.9727 67.8803 20.98 67.8617 20.9811C67.8477 20.982 67.8263 20.9804 67.7934 20.9598L63.8742 18.4993C63.3245 18.1542 62.6257 18.1542 62.076 18.4993L58.1568 20.9598C58.1239 20.9804 58.1025 20.982 58.0885 20.9811C58.0699 20.98 58.0456 20.9727 58.0216 20.9552C57.9976 20.9378 57.9831 20.9169 57.9763 20.8996C57.9711 20.8865 57.966 20.8657 57.9754 20.828L59.1044 16.3403C59.2628 15.7109 59.0469 15.0463 58.5488 14.6301L54.9976 11.6631C54.9678 11.6382 54.9597 11.6183 54.9562 11.6047C54.9515 11.5867 54.951 11.5613 54.9601 11.5331C54.9693 11.5049 54.9847 11.4846 54.9991 11.4728C55.0099 11.4639 55.0281 11.4525 55.0668 11.4499L59.6838 11.1368C60.3314 11.0929 60.8967 10.6822 61.1386 10.0799L62.863 5.78565Z" stroke="#6A11D5" stroke-width="1.57018"/>
    </g>
    <g style="mix-blend-mode:hard-light" filter="url(#filter11_f_472_9706)">
        <path d="M61.3627 10.1699L62.9751 6.15478L64.5875 10.1699C64.8639 10.8583 65.51 11.3277 66.2501 11.3779L70.5669 11.6706L67.2466 14.4448C66.6773 14.9204 66.4305 15.6799 66.6115 16.3993L67.6671 20.5953L64.0026 18.2947C63.3744 17.9003 62.5758 17.9003 61.9476 18.2947L58.2831 20.5953L59.3387 16.3993C59.5197 15.6799 59.2729 14.9204 58.7036 14.4448L55.3833 11.6706L59.7001 11.3779C60.4402 11.3277 61.0863 10.8583 61.3627 10.1699ZM67.7405 20.887C67.7405 20.8869 67.7405 20.8869 67.7404 20.8868L67.7405 20.887ZM63.0871 5.87589L63.0872 5.87567L63.0871 5.87589Z" stroke="#7936C9" stroke-width="2.05331"/>
    </g>
    <g style="mix-blend-mode:hard-light" filter="url(#filter12_ddi_472_9706)">
        <path d="M62.863 5.78565C62.8775 5.74965 62.8939 5.73583 62.9057 5.72826C62.9214 5.71824 62.9454 5.70987 62.9751 5.70987C63.0048 5.70987 63.0288 5.71824 63.0445 5.72827C63.0563 5.73583 63.0727 5.74965 63.0872 5.78565L64.8116 10.0799C65.0535 10.6822 65.6188 11.0929 66.2664 11.1368L70.8834 11.4499C70.9221 11.4525 70.9403 11.4639 70.9511 11.4728C70.9655 11.4846 70.9809 11.5049 70.9901 11.5331C70.9992 11.5613 70.9987 11.5867 70.994 11.6047C70.9905 11.6183 70.9824 11.6382 70.9526 11.6631L67.4014 14.6301C66.9033 15.0463 66.6874 15.7109 66.8458 16.3403L67.9748 20.828C67.9842 20.8657 67.9791 20.8865 67.9739 20.8996C67.9671 20.9169 67.9526 20.9378 67.9286 20.9552C67.9046 20.9727 67.8803 20.98 67.8617 20.9811C67.8477 20.982 67.8263 20.9804 67.7934 20.9598L63.8742 18.4993C63.3245 18.1542 62.6257 18.1542 62.076 18.4993L58.1568 20.9598C58.1239 20.9804 58.1025 20.982 58.0885 20.9811C58.0699 20.98 58.0456 20.9727 58.0216 20.9552C57.9976 20.9378 57.9831 20.9169 57.9763 20.8996C57.9711 20.8865 57.966 20.8657 57.9754 20.828L59.1044 16.3403C59.2628 15.7109 59.0469 15.0463 58.5488 14.6301L54.9976 11.6631C54.9678 11.6382 54.9597 11.6183 54.9562 11.6047C54.9515 11.5867 54.951 11.5613 54.9601 11.5331C54.9693 11.5049 54.9847 11.4846 54.9991 11.4728C55.0099 11.4639 55.0281 11.4525 55.0668 11.4499L59.6838 11.1368C60.3314 11.0929 60.8967 10.6822 61.1386 10.0799L62.863 5.78565Z" stroke="#8620FF" stroke-opacity="0.2" stroke-width="1.57018"/>
    </g>
    <g filter="url(#filter13_f_472_9706)">
        <path d="M62.5828 5.67312C62.7248 5.31951 63.2254 5.31951 63.3674 5.67312L65.0918 9.96737C65.2905 10.4621 65.7549 10.7995 66.2868 10.8356L70.9038 11.1486C71.284 11.1744 71.4387 11.6505 71.1462 11.8948L67.595 14.8619C67.1859 15.2037 67.0085 15.7496 67.1386 16.2667L68.2676 20.7544C68.3606 21.1239 67.9556 21.4182 67.6328 21.2155L63.7136 18.755C63.2621 18.4715 62.6881 18.4715 62.2366 18.755L58.3174 21.2155C57.9946 21.4182 57.5896 21.1239 57.6826 20.7544L58.8116 16.2667C58.9417 15.7496 58.7643 15.2037 58.3551 14.8619L54.804 11.8948C54.5115 11.6505 54.6662 11.1744 55.0464 11.1486L59.6634 10.8356C60.1953 10.7995 60.6597 10.4621 60.8584 9.96737L62.5828 5.67312Z" stroke="#8620FF" stroke-opacity="0.2" stroke-width="0.966264"/>
    </g>
    <g filter="url(#filter14_f_472_9706)">
        <path d="M62.3586 5.5831C62.5818 5.02743 63.3684 5.02743 63.5916 5.5831L65.316 9.87735C65.4801 10.2861 65.8637 10.5648 66.3032 10.5946L70.9201 10.9076C71.5176 10.9481 71.7606 11.6963 71.3011 12.0802L67.7499 15.0472C67.4119 15.3296 67.2654 15.7806 67.3729 16.2077L68.5019 20.6954C68.6479 21.2761 68.0115 21.7385 67.5044 21.4201L63.5852 18.9596C63.2122 18.7254 62.738 18.7254 62.365 18.9596L58.4458 21.4201C57.9387 21.7385 57.3023 21.2761 57.4483 20.6954L58.5773 16.2077C58.6848 15.7806 58.5383 15.3296 58.2003 15.0472L54.6491 12.0802C54.1896 11.6963 54.4326 10.9481 55.0301 10.9076L59.647 10.5946C60.0865 10.5648 60.4701 10.2861 60.6342 9.87735L62.3586 5.5831Z" stroke="white" stroke-width="0.483132"/>
    </g>
    <g style="mix-blend-mode:hard-light" filter="url(#filter15_f_472_9706)">
        <path d="M30.6504 27.2607C30.6648 27.2247 30.6812 27.2109 30.6931 27.2034C30.7088 27.1933 30.7328 27.185 30.7625 27.185C30.7921 27.185 30.8161 27.1933 30.8318 27.2034C30.8437 27.2109 30.8601 27.2247 30.8745 27.2607L32.599 31.555C32.8409 32.1573 33.4062 32.568 34.0538 32.6119L38.6707 32.925C38.7094 32.9276 38.7276 32.939 38.7385 32.9479C38.7529 32.9597 38.7682 32.98 38.7774 33.0082C38.7866 33.0364 38.786 33.0618 38.7814 33.0798C38.7778 33.0934 38.7697 33.1133 38.74 33.1382L35.1888 36.1052C34.6907 36.5214 34.4748 37.186 34.6331 37.8154L35.7621 42.3031C35.7716 42.3408 35.7664 42.3616 35.7613 42.3747C35.7545 42.392 35.74 42.4129 35.716 42.4303C35.692 42.4478 35.6676 42.4551 35.649 42.4562C35.635 42.4571 35.6136 42.4555 35.5808 42.4349L31.6616 39.9744C31.1118 39.6293 30.4131 39.6293 29.8634 39.9744L25.9442 42.4349C25.9113 42.4555 25.8899 42.4571 25.8759 42.4562C25.8573 42.4551 25.8329 42.4478 25.8089 42.4303C25.7849 42.4129 25.7704 42.392 25.7636 42.3747C25.7585 42.3616 25.7533 42.3408 25.7628 42.3031L26.8918 37.8154C27.0501 37.186 26.8342 36.5214 26.3361 36.1052L22.7849 33.1382C22.7552 33.1133 22.7471 33.0934 22.7435 33.0798C22.7389 33.0618 22.7383 33.0364 22.7475 33.0082C22.7567 32.98 22.772 32.9597 22.7864 32.9479C22.7973 32.939 22.8155 32.9276 22.8542 32.925L27.4711 32.6119C28.1187 32.568 28.684 32.1573 28.9259 31.555L30.6504 27.2607Z" stroke="#6A11D5" stroke-width="1.57018"/>
    </g>
    <g style="mix-blend-mode:hard-light" filter="url(#filter16_f_472_9706)">
        <path d="M29.1501 31.645L30.7625 27.6299L32.3748 31.645C32.6512 32.3334 33.2973 32.8028 34.0374 32.853L38.3543 33.1457L35.0339 35.9199C34.4647 36.3955 34.2179 37.155 34.3989 37.8744L35.4545 42.0704L31.79 39.7698C31.1617 39.3754 30.3632 39.3754 29.7349 39.7698L26.0704 42.0704L27.126 37.8744C27.307 37.155 27.0603 36.3955 26.491 35.9199L23.1706 33.1457L27.4875 32.853C28.2276 32.8028 28.8737 32.3334 29.1501 31.645ZM35.5278 42.3621C35.5278 42.362 35.5278 42.362 35.5278 42.3619L35.5278 42.3621ZM30.8744 27.351L30.8745 27.3508L30.8744 27.351Z" stroke="#7936C9" stroke-width="2.05331"/>
    </g>
    <g style="mix-blend-mode:hard-light" filter="url(#filter17_ddi_472_9706)">
        <path d="M30.6504 27.2607C30.6648 27.2247 30.6812 27.2109 30.6931 27.2034C30.7088 27.1933 30.7328 27.185 30.7625 27.185C30.7921 27.185 30.8161 27.1933 30.8318 27.2034C30.8437 27.2109 30.8601 27.2247 30.8745 27.2607L32.599 31.555C32.8409 32.1573 33.4062 32.568 34.0538 32.6119L38.6707 32.925C38.7094 32.9276 38.7276 32.939 38.7385 32.9479C38.7529 32.9597 38.7682 32.98 38.7774 33.0082C38.7866 33.0364 38.786 33.0618 38.7814 33.0798C38.7778 33.0934 38.7697 33.1133 38.74 33.1382L35.1888 36.1052C34.6907 36.5214 34.4748 37.186 34.6331 37.8154L35.7621 42.3031C35.7716 42.3408 35.7664 42.3616 35.7613 42.3747C35.7545 42.392 35.74 42.4129 35.716 42.4303C35.692 42.4478 35.6676 42.4551 35.649 42.4562C35.635 42.4571 35.6136 42.4555 35.5808 42.4349L31.6616 39.9744C31.1118 39.6293 30.4131 39.6293 29.8634 39.9744L25.9442 42.4349C25.9113 42.4555 25.8899 42.4571 25.8759 42.4562C25.8573 42.4551 25.8329 42.4478 25.8089 42.4303C25.7849 42.4129 25.7704 42.392 25.7636 42.3747C25.7585 42.3616 25.7533 42.3408 25.7628 42.3031L26.8918 37.8154C27.0501 37.186 26.8342 36.5214 26.3361 36.1052L22.7849 33.1382C22.7552 33.1133 22.7471 33.0934 22.7435 33.0798C22.7389 33.0618 22.7383 33.0364 22.7475 33.0082C22.7567 32.98 22.772 32.9597 22.7864 32.9479C22.7973 32.939 22.8155 32.9276 22.8542 32.925L27.4711 32.6119C28.1187 32.568 28.684 32.1573 28.9259 31.555L30.6504 27.2607Z" stroke="#8620FF" stroke-opacity="0.2" stroke-width="1.57018"/>
    </g>
    <g filter="url(#filter18_f_472_9706)">
        <path d="M30.3702 27.1482C30.5122 26.7946 31.0127 26.7946 31.1547 27.1482L32.8792 31.4425C33.0779 31.9372 33.5422 32.2746 34.0742 32.3107L38.6911 32.6237C39.0713 32.6495 39.226 33.1256 38.9336 33.3699L35.3824 36.337C34.9732 36.6788 34.7959 37.2247 34.926 37.7418L36.0549 42.2295C36.1479 42.599 35.7429 42.8933 35.4202 42.6906L31.501 40.2301C31.0494 39.9466 30.4755 39.9466 30.0239 40.2301L26.1047 42.6906C25.782 42.8933 25.377 42.599 25.47 42.2295L26.5989 37.7418C26.729 37.2247 26.5517 36.6788 26.1425 36.337L22.5913 33.3699C22.2989 33.1256 22.4536 32.6495 22.8338 32.6237L27.4507 32.3107C27.9827 32.2746 28.447 31.9372 28.6457 31.4425L30.3702 27.1482Z" stroke="#8620FF" stroke-opacity="0.2" stroke-width="0.966264"/>
    </g>
    <g filter="url(#filter19_f_472_9706)">
        <path d="M30.146 27.0582C30.3691 26.5025 31.1558 26.5025 31.3789 27.0582L33.1034 31.3524C33.2675 31.7612 33.6511 32.0399 34.0905 32.0697L38.7075 32.3827C39.3049 32.4232 39.548 33.1714 39.0885 33.5553L35.5373 36.5223C35.1993 36.8047 35.0528 37.2557 35.1602 37.6828L36.2892 42.1705C36.4353 42.7512 35.7989 43.2136 35.2918 42.8952L31.3726 40.4347C30.9995 40.2005 30.5254 40.2005 30.1523 40.4347L26.2331 42.8952C25.726 43.2136 25.0896 42.7512 25.2357 42.1705L26.3647 37.6828C26.4721 37.2557 26.3256 36.8047 25.9876 36.5223L22.4364 33.5553C21.9769 33.1714 22.22 32.4232 22.8174 32.3827L27.4344 32.0697C27.8738 32.0399 28.2574 31.7612 28.4215 31.3524L30.146 27.0582Z" stroke="white" stroke-width="0.483132"/>
    </g>
    <g style="mix-blend-mode:hard-light" filter="url(#filter20_f_472_9706)">
        <path d="M52.1255 27.2607C52.1399 27.2247 52.1563 27.2109 52.1682 27.2034C52.1839 27.1933 52.2079 27.185 52.2375 27.185C52.2672 27.185 52.2912 27.1933 52.3069 27.2034C52.3188 27.2109 52.3352 27.2247 52.3496 27.2607L54.0741 31.555C54.316 32.1573 54.8813 32.568 55.5289 32.6119L60.1458 32.925C60.1845 32.9276 60.2027 32.939 60.2136 32.9479C60.228 32.9597 60.2433 32.98 60.2525 33.0082C60.2617 33.0364 60.2611 33.0618 60.2565 33.0798C60.2529 33.0934 60.2448 33.1133 60.2151 33.1382L56.6639 36.1052C56.1658 36.5214 55.9499 37.186 56.1082 37.8154L57.2372 42.3031C57.2467 42.3408 57.2415 42.3616 57.2364 42.3747C57.2296 42.392 57.2151 42.4129 57.1911 42.4303C57.1671 42.4478 57.1427 42.4551 57.1241 42.4562C57.1101 42.4571 57.0887 42.4555 57.0558 42.4349L53.1366 39.9744C52.5869 39.6293 51.8882 39.6293 51.3384 39.9744L47.4192 42.4349C47.3864 42.4555 47.365 42.4571 47.351 42.4562C47.3324 42.4551 47.308 42.4478 47.284 42.4303C47.26 42.4129 47.2455 42.392 47.2387 42.3747C47.2336 42.3616 47.2284 42.3408 47.2379 42.3031L48.3669 37.8154C48.5252 37.186 48.3093 36.5214 47.8112 36.1052L44.26 33.1382C44.2303 33.1133 44.2222 33.0934 44.2186 33.0798C44.214 33.0618 44.2134 33.0364 44.2226 33.0082C44.2318 32.98 44.2471 32.9597 44.2615 32.9479C44.2724 32.939 44.2906 32.9276 44.3293 32.925L48.9462 32.6119C49.5938 32.568 50.1591 32.1573 50.401 31.555L52.1255 27.2607Z" stroke="#6A11D5" stroke-width="1.57018"/>
    </g>
    <g style="mix-blend-mode:hard-light" filter="url(#filter21_f_472_9706)">
        <path d="M50.6252 31.645L52.2375 27.6299L53.8499 31.645C54.1263 32.3334 54.7724 32.8028 55.5125 32.853L59.8294 33.1457L56.509 35.9199C55.9397 36.3955 55.693 37.155 55.874 37.8744L56.9296 42.0704L53.2651 39.7698C52.6368 39.3754 51.8383 39.3754 51.21 39.7698L47.5455 42.0704L48.6011 37.8744C48.7821 37.155 48.5353 36.3955 47.9661 35.9199L44.6457 33.1457L48.9626 32.853C49.7027 32.8028 50.3488 32.3334 50.6252 31.645ZM57.0029 42.3621C57.0029 42.362 57.0029 42.362 57.0029 42.3619L57.0029 42.3621ZM52.3495 27.351L52.3496 27.3508L52.3495 27.351Z" stroke="#7936C9" stroke-width="2.05331"/>
    </g>
    <g style="mix-blend-mode:hard-light" filter="url(#filter22_ddi_472_9706)">
        <path d="M52.1255 27.2607C52.1399 27.2247 52.1563 27.2109 52.1682 27.2034C52.1839 27.1933 52.2079 27.185 52.2375 27.185C52.2672 27.185 52.2912 27.1933 52.3069 27.2034C52.3188 27.2109 52.3352 27.2247 52.3496 27.2607L54.0741 31.555C54.316 32.1573 54.8813 32.568 55.5289 32.6119L60.1458 32.925C60.1845 32.9276 60.2027 32.939 60.2136 32.9479C60.228 32.9597 60.2433 32.98 60.2525 33.0082C60.2617 33.0364 60.2611 33.0618 60.2565 33.0798C60.2529 33.0934 60.2448 33.1133 60.2151 33.1382L56.6639 36.1052C56.1658 36.5214 55.9499 37.186 56.1082 37.8154L57.2372 42.3031C57.2467 42.3408 57.2415 42.3616 57.2364 42.3747C57.2296 42.392 57.2151 42.4129 57.1911 42.4303C57.1671 42.4478 57.1427 42.4551 57.1241 42.4562C57.1101 42.4571 57.0887 42.4555 57.0558 42.4349L53.1366 39.9744C52.5869 39.6293 51.8882 39.6293 51.3384 39.9744L47.4192 42.4349C47.3864 42.4555 47.365 42.4571 47.351 42.4562C47.3324 42.4551 47.308 42.4478 47.284 42.4303C47.26 42.4129 47.2455 42.392 47.2387 42.3747C47.2336 42.3616 47.2284 42.3408 47.2379 42.3031L48.3669 37.8154C48.5252 37.186 48.3093 36.5214 47.8112 36.1052L44.26 33.1382C44.2303 33.1133 44.2222 33.0934 44.2186 33.0798C44.214 33.0618 44.2134 33.0364 44.2226 33.0082C44.2318 32.98 44.2471 32.9597 44.2615 32.9479C44.2724 32.939 44.2906 32.9276 44.3293 32.925L48.9462 32.6119C49.5938 32.568 50.1591 32.1573 50.401 31.555L52.1255 27.2607Z" stroke="#8620FF" stroke-opacity="0.2" stroke-width="1.57018"/>
    </g>
    <g filter="url(#filter23_f_472_9706)">
        <path d="M51.8453 27.1482C51.9873 26.7946 52.4878 26.7946 52.6298 27.1482L54.3543 31.4425C54.553 31.9372 55.0173 32.2746 55.5493 32.3107L60.1662 32.6237C60.5464 32.6495 60.7011 33.1256 60.4087 33.3699L56.8575 36.337C56.4483 36.6788 56.271 37.2247 56.4011 37.7418L57.53 42.2295C57.623 42.599 57.218 42.8933 56.8953 42.6906L52.9761 40.2301C52.5245 39.9466 51.9506 39.9466 51.499 40.2301L47.5798 42.6906C47.2571 42.8933 46.8521 42.599 46.9451 42.2295L48.074 37.7418C48.2041 37.2247 48.0268 36.6788 47.6176 36.337L44.0664 33.3699C43.774 33.1256 43.9287 32.6495 44.3089 32.6237L48.9258 32.3107C49.4578 32.2746 49.9221 31.9372 50.1208 31.4425L51.8453 27.1482Z" stroke="#8620FF" stroke-opacity="0.2" stroke-width="0.966264"/>
    </g>
    <g filter="url(#filter24_f_472_9706)">
        <path d="M51.6211 27.0582C51.8442 26.5025 52.6309 26.5025 52.854 27.0582L54.5785 31.3524C54.7426 31.7612 55.1262 32.0399 55.5656 32.0697L60.1826 32.3827C60.78 32.4232 61.0231 33.1714 60.5636 33.5553L57.0124 36.5223C56.6744 36.8047 56.5279 37.2557 56.6353 37.6828L57.7643 42.1705C57.9104 42.7512 57.274 43.2136 56.7669 42.8952L52.8477 40.4347C52.4746 40.2005 52.0005 40.2005 51.6274 40.4347L47.7082 42.8952C47.2011 43.2136 46.5647 42.7512 46.7108 42.1705L47.8398 37.6828C47.9472 37.2557 47.8007 36.8047 47.4627 36.5223L43.9115 33.5553C43.452 33.1714 43.6951 32.4232 44.2925 32.3827L48.9095 32.0697C49.3489 32.0399 49.7325 31.7612 49.8966 31.3524L51.6211 27.0582Z" stroke="white" stroke-width="0.483132"/>
    </g>
    <path d="M24.2319 55.6499V57.0139H21.0639V63.3499H19.5019V55.6499H24.2319ZM23.1839 63.4379C23.0813 63.4379 22.9749 63.4269 22.8649 63.4049C22.7549 63.3903 22.6596 63.3719 22.5789 63.3499V62.2059C22.6376 62.2206 22.6963 62.2316 22.7549 62.2389C22.8136 62.2463 22.8649 62.2499 22.9089 62.2499C23.0116 62.2499 23.1069 62.2169 23.1949 62.1509C23.2903 62.0849 23.3709 61.9383 23.4369 61.7109C23.5029 61.4836 23.5543 61.1536 23.5909 60.7209C23.6349 60.2809 23.6569 59.6906 23.6569 58.9499V57.6519H28.2439V63.3499H26.7479V58.7519H24.9879V58.9499C24.9879 59.9106 24.9476 60.6843 24.8669 61.2709C24.7863 61.8576 24.6689 62.3123 24.5149 62.6349C24.3609 62.9503 24.1703 63.1629 23.9429 63.2729C23.7229 63.3829 23.4699 63.4379 23.1839 63.4379ZM30.0255 57.9379C30.3702 57.7986 30.7075 57.7033 31.0375 57.6519C31.3675 57.5933 31.7268 57.5639 32.1155 57.5639C32.6948 57.5639 33.1495 57.6373 33.4795 57.7839C33.8168 57.9306 34.0698 58.1139 34.2385 58.3339C34.4072 58.5539 34.5135 58.7923 34.5575 59.0489C34.6088 59.3056 34.6345 59.5403 34.6345 59.7529V63.3499H33.1715V62.5139H33.1495C33.1202 62.5726 33.0688 62.6569 32.9955 62.7669C32.9222 62.8696 32.8158 62.9723 32.6765 63.0749C32.5372 63.1703 32.3612 63.2546 32.1485 63.3279C31.9358 63.4013 31.6755 63.4379 31.3675 63.4379C31.0082 63.4379 30.7002 63.3903 30.4435 63.2949C30.1868 63.1923 29.9778 63.0603 29.8165 62.8989C29.6552 62.7376 29.5342 62.5543 29.4535 62.3489C29.3802 62.1363 29.3435 61.9199 29.3435 61.6999C29.3435 61.5019 29.3765 61.2929 29.4425 61.0729C29.5085 60.8529 29.6442 60.6513 29.8495 60.4679C30.0548 60.2773 30.3408 60.1233 30.7075 60.0059C31.0742 59.8813 31.5618 59.8189 32.1705 59.8189C32.3098 59.8189 32.4492 59.8226 32.5885 59.8299C32.7278 59.8299 32.8672 59.8299 33.0065 59.8299H33.1385V59.5879C33.1385 59.4339 33.1018 59.2946 33.0285 59.1699C32.9625 59.0453 32.8708 58.9426 32.7535 58.8619C32.6362 58.7813 32.4968 58.7189 32.3355 58.6749C32.1815 58.6309 32.0202 58.6089 31.8515 58.6089C31.6022 58.6089 31.3308 58.6419 31.0375 58.7079C30.7442 58.7666 30.4068 58.9023 30.0255 59.1149V57.9379ZM32.8855 60.7649C32.6802 60.7649 32.4565 60.7723 32.2145 60.7869C31.9798 60.7943 31.7598 60.8273 31.5545 60.8859C31.3565 60.9446 31.1915 61.0363 31.0595 61.1609C30.9275 61.2856 30.8615 61.4616 30.8615 61.6889C30.8615 61.8943 30.9312 62.0703 31.0705 62.2169C31.2098 62.3563 31.4445 62.4259 31.7745 62.4259C31.9285 62.4259 32.0862 62.4039 32.2475 62.3599C32.4088 62.3159 32.5555 62.2389 32.6875 62.1289C32.8195 62.0189 32.9258 61.8649 33.0065 61.6669C33.0945 61.4689 33.1385 61.2159 33.1385 60.9079V60.7649H32.8855ZM38.8591 57.6519C39.2698 57.6519 39.5998 57.6959 39.8491 57.7839C40.1058 57.8719 40.3038 57.9856 40.4431 58.1249C40.5898 58.2643 40.6888 58.4146 40.7401 58.5759C40.7914 58.7373 40.8171 58.8949 40.8171 59.0489C40.8171 59.4083 40.7144 59.6979 40.5091 59.9179C40.3111 60.1306 40.0618 60.2663 39.7611 60.3249V60.3579C39.9224 60.3726 40.0801 60.4093 40.2341 60.4679C40.3954 60.5193 40.5348 60.6036 40.6521 60.7209C40.7768 60.8309 40.8758 60.9739 40.9491 61.1499C41.0298 61.3186 41.0701 61.5203 41.0701 61.7549C41.0701 62.2683 40.8758 62.6643 40.4871 62.9429C40.1058 63.2143 39.5924 63.3499 38.9471 63.3499H36.0651V57.6519H38.8591ZM37.5611 59.8739H38.4851C38.5584 59.8739 38.6428 59.8703 38.7381 59.8629C38.8408 59.8556 38.9361 59.8336 39.0241 59.7969C39.1121 59.7529 39.1854 59.6906 39.2441 59.6099C39.3028 59.5293 39.3321 59.4119 39.3321 59.2579C39.3321 59.1113 39.2991 58.9976 39.2331 58.9169C39.1744 58.8363 39.1011 58.7776 39.0131 58.7409C38.9251 58.6969 38.8334 58.6713 38.7381 58.6639C38.6428 58.6493 38.5584 58.6419 38.4851 58.6419H37.5611V59.8739ZM37.5611 62.3599H38.5181C38.5841 62.3599 38.6721 62.3563 38.7821 62.3489C38.8994 62.3416 39.0094 62.3159 39.1121 62.2719C39.2221 62.2279 39.3138 62.1546 39.3871 62.0519C39.4678 61.9493 39.5081 61.8026 39.5081 61.6119C39.5081 61.4359 39.4714 61.3003 39.3981 61.2049C39.3321 61.1023 39.2441 61.0253 39.1341 60.9739C39.0314 60.9226 38.9214 60.8933 38.8041 60.8859C38.6941 60.8713 38.5951 60.8639 38.5071 60.8639H37.5611V62.3599ZM43.7808 57.6519V59.8079H46.1788V57.6519H47.6748V63.3499H46.1788V60.9079H43.7808V63.3499H42.2848V57.6519H43.7808ZM49.0951 57.6519H50.5911V59.4999H51.7351C52.5564 59.4999 53.1614 59.6759 53.5501 60.0279C53.9461 60.3799 54.1441 60.8456 54.1441 61.4249C54.1441 62.0043 53.9461 62.4699 53.5501 62.8219C53.1614 63.1739 52.5564 63.3499 51.7351 63.3499H49.0951V57.6519ZM52.5821 61.4249C52.5821 61.1463 52.4978 60.9299 52.3291 60.7759C52.1604 60.6219 51.8891 60.5449 51.5151 60.5449H50.5911V62.3049H51.5151C51.8891 62.3049 52.1604 62.2279 52.3291 62.0739C52.4978 61.9199 52.5821 61.7036 52.5821 61.4249ZM55.0351 57.6519H56.5311V63.3499H55.0351V57.6519ZM59.4537 57.6519V60.6439L59.4097 61.6669H59.4317L61.8847 57.6519H63.5567V63.3499H62.0607V60.4019L62.1047 59.3349H62.0717L59.5527 63.3499H57.9577V57.6519H59.4537ZM60.7517 56.9699C60.5537 56.9699 60.3593 56.9443 60.1687 56.8929C59.9853 56.8416 59.8203 56.7609 59.6737 56.6509C59.527 56.5336 59.406 56.3833 59.3107 56.1999C59.2227 56.0093 59.1713 55.7819 59.1567 55.5179L60.0917 55.4299C60.121 55.6866 60.1833 55.8699 60.2787 55.9799C60.3813 56.0899 60.539 56.1449 60.7517 56.1449C60.9643 56.1449 61.1183 56.0899 61.2137 55.9799C61.3163 55.8699 61.3823 55.6866 61.4117 55.4299L62.3467 55.5179C62.332 55.7819 62.277 56.0093 62.1817 56.1999C62.0937 56.3833 61.9763 56.5336 61.8297 56.6509C61.683 56.7609 61.5143 56.8416 61.3237 56.8929C61.1403 56.9443 60.9497 56.9699 60.7517 56.9699ZM13.6919 74.4379C13.1859 74.4379 12.7459 74.3536 12.3719 74.1849C11.9979 74.0163 11.6862 73.7926 11.4369 73.5139C11.1949 73.2279 11.0152 72.9053 10.8979 72.5459C10.7806 72.1866 10.7219 71.8199 10.7219 71.4459C10.7219 71.0646 10.7879 70.7016 10.9199 70.3569C11.0519 70.0049 11.2462 69.6969 11.5029 69.4329C11.7596 69.1689 12.0786 68.9599 12.4599 68.8059C12.8486 68.6446 13.2959 68.5639 13.8019 68.5639C13.9926 68.5639 14.1979 68.5749 14.4179 68.5969C14.6379 68.6189 14.8542 68.6593 15.0669 68.7179V69.8289C14.9276 69.7703 14.7772 69.7263 14.6159 69.6969C14.4619 69.6603 14.2749 69.6419 14.0549 69.6419C13.8056 69.6419 13.5709 69.6859 13.3509 69.7739C13.1382 69.8619 12.9512 69.9903 12.7899 70.1589C12.6359 70.3203 12.5112 70.5183 12.4159 70.7529C12.3279 70.9803 12.2839 71.2369 12.2839 71.5229C12.2839 71.7796 12.3206 72.0216 12.3939 72.2489C12.4746 72.4689 12.5846 72.6633 12.7239 72.8319C12.8706 72.9933 13.0466 73.1216 13.2519 73.2169C13.4572 73.3123 13.6919 73.3599 13.9559 73.3599C14.3592 73.3599 14.7589 73.2756 15.1549 73.1069V74.2179C15.0156 74.2619 14.8176 74.3096 14.5609 74.3609C14.3116 74.4123 14.0219 74.4379 13.6919 74.4379ZM21.4457 68.6519V74.3499H19.9497V69.7519H17.6397V74.3499H16.1437V68.6519H21.4457ZM24.1111 71.9519C24.1184 72.1353 24.1587 72.3113 24.2321 72.4799C24.3054 72.6486 24.4117 72.7989 24.5511 72.9309C24.6904 73.0629 24.8627 73.1693 25.0681 73.2499C25.2807 73.3233 25.5264 73.3599 25.8051 73.3599C26.1351 73.3599 26.4467 73.3269 26.7401 73.2609C27.0334 73.1876 27.3157 73.0886 27.5871 72.9639V74.0859C27.2937 74.1959 26.9784 74.2839 26.6411 74.3499C26.3037 74.4086 25.9627 74.4379 25.6181 74.4379C25.1927 74.4379 24.7931 74.3793 24.4191 74.2619C24.0451 74.1446 23.7187 73.9649 23.4401 73.7229C23.1687 73.4809 22.9524 73.1766 22.7911 72.8099C22.6297 72.4433 22.5491 72.0069 22.5491 71.5009C22.5491 71.0389 22.6224 70.6283 22.7691 70.2689C22.9231 69.9023 23.1284 69.5943 23.3851 69.3449C23.6417 69.0883 23.9387 68.8939 24.2761 68.7619C24.6207 68.6299 24.9837 68.5639 25.3651 68.5639C25.7977 68.5639 26.1607 68.6299 26.4541 68.7619C26.7547 68.8866 27.0004 69.0479 27.1911 69.2459C27.3891 69.4439 27.5394 69.6639 27.6421 69.9059C27.7521 70.1406 27.8327 70.3716 27.8841 70.5989C27.9354 70.8263 27.9647 71.0316 27.9721 71.2149C27.9867 71.3983 27.9941 71.5303 27.9941 71.6109V71.9519H24.1111ZM26.4541 70.9289C26.4614 70.6869 26.4284 70.4816 26.3551 70.3129C26.2891 70.1443 26.1974 70.0086 26.0801 69.9059C25.9627 69.7959 25.8344 69.7189 25.6951 69.6749C25.5557 69.6236 25.4164 69.5979 25.2771 69.5979C25.1084 69.5979 24.9544 69.6346 24.8151 69.7079C24.6757 69.7739 24.5547 69.8656 24.4521 69.9829C24.3494 70.1003 24.2651 70.2433 24.1991 70.4119C24.1404 70.5733 24.1111 70.7456 24.1111 70.9289H26.4541ZM30.5948 68.6519V73.2499H32.9818V68.6519H34.4778V73.2499H35.4128V75.8349H34.0378V74.3499H29.0988V68.6519H30.5948ZM37.7921 68.6519V71.6439L37.7481 72.6669H37.7701L40.2231 68.6519H41.8951V74.3499H40.3991V71.4019L40.4431 70.3349H40.4101L37.8911 74.3499H36.2961V68.6519H37.7921ZM43.6734 68.9379C44.0181 68.7986 44.3554 68.7033 44.6854 68.6519C45.0154 68.5933 45.3748 68.5639 45.7634 68.5639C46.3428 68.5639 46.7974 68.6373 47.1274 68.7839C47.4648 68.9306 47.7178 69.1139 47.8864 69.3339C48.0551 69.5539 48.1614 69.7923 48.2054 70.0489C48.2568 70.3056 48.2824 70.5403 48.2824 70.7529V74.3499H46.8194V73.5139H46.7974C46.7681 73.5726 46.7168 73.6569 46.6434 73.7669C46.5701 73.8696 46.4638 73.9723 46.3244 74.0749C46.1851 74.1703 46.0091 74.2546 45.7964 74.3279C45.5838 74.4013 45.3234 74.4379 45.0154 74.4379C44.6561 74.4379 44.3481 74.3903 44.0914 74.2949C43.8348 74.1923 43.6258 74.0603 43.4644 73.8989C43.3031 73.7376 43.1821 73.5543 43.1014 73.3489C43.0281 73.1363 42.9914 72.9199 42.9914 72.6999C42.9914 72.5019 43.0244 72.2929 43.0904 72.0729C43.1564 71.8529 43.2921 71.6513 43.4974 71.4679C43.7028 71.2773 43.9888 71.1233 44.3554 71.0059C44.7221 70.8813 45.2098 70.8189 45.8184 70.8189C45.9578 70.8189 46.0971 70.8226 46.2364 70.8299C46.3758 70.8299 46.5151 70.8299 46.6544 70.8299H46.7864V70.5879C46.7864 70.4339 46.7498 70.2946 46.6764 70.1699C46.6104 70.0453 46.5188 69.9426 46.4014 69.8619C46.2841 69.7813 46.1448 69.7189 45.9834 69.6749C45.8294 69.6309 45.6681 69.6089 45.4994 69.6089C45.2501 69.6089 44.9788 69.6419 44.6854 69.7079C44.3921 69.7666 44.0548 69.9023 43.6734 70.1149V68.9379ZM46.5334 71.7649C46.3281 71.7649 46.1044 71.7723 45.8624 71.7869C45.6278 71.7943 45.4078 71.8273 45.2024 71.8859C45.0044 71.9446 44.8394 72.0363 44.7074 72.1609C44.5754 72.2856 44.5094 72.4616 44.5094 72.6889C44.5094 72.8943 44.5791 73.0703 44.7184 73.2169C44.8578 73.3563 45.0924 73.4259 45.4224 73.4259C45.5764 73.4259 45.7341 73.4039 45.8954 73.3599C46.0568 73.3159 46.2034 73.2389 46.3354 73.1289C46.4674 73.0189 46.5738 72.8649 46.6544 72.6669C46.7424 72.4689 46.7864 72.2159 46.7864 71.9079V71.7649H46.5334ZM49.5936 74.4379C49.4909 74.4379 49.3846 74.4269 49.2746 74.4049C49.1646 74.3903 49.0693 74.3719 48.9886 74.3499V73.2059C49.0473 73.2206 49.1059 73.2316 49.1646 73.2389C49.2233 73.2463 49.2746 73.2499 49.3186 73.2499C49.4213 73.2499 49.5166 73.2169 49.6046 73.1509C49.6999 73.0849 49.7806 72.9383 49.8466 72.7109C49.9126 72.4836 49.9639 72.1536 50.0006 71.7209C50.0446 71.2809 50.0666 70.6906 50.0666 69.9499V68.6519H54.6536V74.3499H53.1576V69.7519H51.3976V69.9499C51.3976 70.9106 51.3573 71.6843 51.2766 72.2709C51.1959 72.8576 51.0786 73.3123 50.9246 73.6349C50.7706 73.9503 50.5799 74.1629 50.3526 74.2729C50.1326 74.3829 49.8796 74.4379 49.5936 74.4379ZM57.5792 68.6519V71.6439L57.5352 72.6669H57.5572L60.0102 68.6519H61.6822V74.3499H60.1862V71.4019L60.2302 70.3349H60.1972L57.6782 74.3499H56.0832V68.6519H57.5792ZM65.7486 74.4379C65.2426 74.4379 64.8026 74.3536 64.4286 74.1849C64.0546 74.0163 63.7429 73.7926 63.4936 73.5139C63.2516 73.2279 63.0719 72.9053 62.9546 72.5459C62.8372 72.1866 62.7786 71.8199 62.7786 71.4459C62.7786 71.0646 62.8446 70.7016 62.9766 70.3569C63.1086 70.0049 63.3029 69.6969 63.5596 69.4329C63.8162 69.1689 64.1352 68.9599 64.5166 68.8059C64.9052 68.6446 65.3526 68.5639 65.8586 68.5639C66.0492 68.5639 66.2546 68.5749 66.4746 68.5969C66.6946 68.6189 66.9109 68.6593 67.1236 68.7179V69.8289C66.9842 69.7703 66.8339 69.7263 66.6726 69.6969C66.5186 69.6603 66.3316 69.6419 66.1116 69.6419C65.8622 69.6419 65.6276 69.6859 65.4076 69.7739C65.1949 69.8619 65.0079 69.9903 64.8466 70.1589C64.6926 70.3203 64.5679 70.5183 64.4726 70.7529C64.3846 70.9803 64.3406 71.2369 64.3406 71.5229C64.3406 71.7796 64.3772 72.0216 64.4506 72.2489C64.5312 72.4689 64.6412 72.6633 64.7806 72.8319C64.9272 72.9933 65.1032 73.1216 65.3086 73.2169C65.5139 73.3123 65.7486 73.3599 66.0126 73.3599C66.4159 73.3599 66.8156 73.2756 67.2116 73.1069V74.2179C67.0722 74.2619 66.8742 74.3096 66.6176 74.3609C66.3682 74.4123 66.0786 74.4379 65.7486 74.4379ZM72.5479 68.6519V69.7519H70.7659V74.3499H69.2699V69.7519H67.4879V68.6519H72.5479Z" fill="#8620FF"/>
    <defs>
        <filter id="filter0_f_472_9706" x="6.9057" y="0.612819" width="26.2384" height="25.4655" filterUnits="userSpaceOnUse" color-interpolation-filters="sRGB">
            <feFlood flood-opacity="0" result="BackgroundImageFix"/>
            <feBlend mode="normal" in="SourceGraphic" in2="BackgroundImageFix" result="shape"/>
            <feGaussianBlur stdDeviation="2.15598" result="effect1_foregroundBlur_472_9706"/>
        </filter>
        <filter id="filter1_f_472_9706" x="9.78033" y="3.48746" width="20.4891" height="19.7163" filterUnits="userSpaceOnUse" color-interpolation-filters="sRGB">
            <feFlood flood-opacity="0" result="BackgroundImageFix"/>
            <feBlend mode="normal" in="SourceGraphic" in2="BackgroundImageFix" result="shape"/>
            <feGaussianBlur stdDeviation="0.718659" result="effect1_foregroundBlur_472_9706"/>
        </filter>
        <filter id="filter2_ddi_472_9706" x="9.34914" y="4.49358" width="21.3515" height="20.5786" filterUnits="userSpaceOnUse" color-interpolation-filters="sRGB">
            <feFlood flood-opacity="0" result="BackgroundImageFix"/>
            <feColorMatrix in="SourceAlpha" type="matrix" values="0 0 0 0 0 0 0 0 0 0 0 0 0 0 0 0 0 0 127 0" result="hardAlpha"/>
            <feOffset dy="1.57018"/>
            <feGaussianBlur stdDeviation="0.603915"/>
            <feColorMatrix type="matrix" values="0 0 0 0 0 0 0 0 0 0.051 0 0 0 0 0.082 0 0 0 0.5 0"/>
            <feBlend mode="multiply" in2="BackgroundImageFix" result="effect1_dropShadow_472_9706"/>
            <feColorMatrix in="SourceAlpha" type="matrix" values="0 0 0 0 0 0 0 0 0 0 0 0 0 0 0 0 0 0 127 0" result="hardAlpha"/>
            <feOffset dy="1.43732"/>
            <feGaussianBlur stdDeviation="0.934257"/>
            <feColorMatrix type="matrix" values="0 0 0 0 0.702449 0 0 0 0 0.458646 0 0 0 0 0.991667 0 0 0 0.6 0"/>
            <feBlend mode="color-dodge" in2="effect1_dropShadow_472_9706" result="effect2_dropShadow_472_9706"/>
            <feBlend mode="normal" in="SourceGraphic" in2="effect2_dropShadow_472_9706" result="shape"/>
            <feColorMatrix in="SourceAlpha" type="matrix" values="0 0 0 0 0 0 0 0 0 0 0 0 0 0 0 0 0 0 127 0" result="hardAlpha"/>
            <feOffset dx="-0.157018" dy="0.314036"/>
            <feGaussianBlur stdDeviation="0.078509"/>
            <feComposite in2="hardAlpha" operator="arithmetic" k2="-1" k3="1"/>
            <feColorMatrix type="matrix" values="0 0 0 0 1 0 0 0 0 1 0 0 0 0 1 0 0 0 0.5 0"/>
            <feBlend mode="normal" in2="shape" result="effect3_innerShadow_472_9706"/>
        </filter>
        <filter id="filter3_f_472_9706" x="10.9761" y="4.68321" width="18.0976" height="17.3247" filterUnits="userSpaceOnUse" color-interpolation-filters="sRGB">
            <feFlood flood-opacity="0" result="BackgroundImageFix"/>
            <feBlend mode="normal" in="SourceGraphic" in2="BackgroundImageFix" result="shape"/>
            <feGaussianBlur stdDeviation="0.120783" result="effect1_foregroundBlur_472_9706"/>
        </filter>
        <filter id="filter4_f_472_9706" x="11.0566" y="4.76373" width="17.9366" height="17.1637" filterUnits="userSpaceOnUse" color-interpolation-filters="sRGB">
            <feFlood flood-opacity="0" result="BackgroundImageFix"/>
            <feBlend mode="normal" in="SourceGraphic" in2="BackgroundImageFix" result="shape"/>
            <feGaussianBlur stdDeviation="0.080522" result="effect1_foregroundBlur_472_9706"/>
        </filter>
        <filter id="filter5_f_472_9706" x="28.3808" y="0.612819" width="26.2384" height="25.4655" filterUnits="userSpaceOnUse" color-interpolation-filters="sRGB">
            <feFlood flood-opacity="0" result="BackgroundImageFix"/>
            <feBlend mode="normal" in="SourceGraphic" in2="BackgroundImageFix" result="shape"/>
            <feGaussianBlur stdDeviation="2.15598" result="effect1_foregroundBlur_472_9706"/>
        </filter>
        <filter id="filter6_f_472_9706" x="31.2554" y="3.48746" width="20.4891" height="19.7163" filterUnits="userSpaceOnUse" color-interpolation-filters="sRGB">
            <feFlood flood-opacity="0" result="BackgroundImageFix"/>
            <feBlend mode="normal" in="SourceGraphic" in2="BackgroundImageFix" result="shape"/>
            <feGaussianBlur stdDeviation="0.718659" result="effect1_foregroundBlur_472_9706"/>
        </filter>
        <filter id="filter7_ddi_472_9706" x="30.8242" y="4.49358" width="21.3515" height="20.5786" filterUnits="userSpaceOnUse" color-interpolation-filters="sRGB">
            <feFlood flood-opacity="0" result="BackgroundImageFix"/>
            <feColorMatrix in="SourceAlpha" type="matrix" values="0 0 0 0 0 0 0 0 0 0 0 0 0 0 0 0 0 0 127 0" result="hardAlpha"/>
            <feOffset dy="1.57018"/>
            <feGaussianBlur stdDeviation="0.603915"/>
            <feColorMatrix type="matrix" values="0 0 0 0 0 0 0 0 0 0.051 0 0 0 0 0.082 0 0 0 0.5 0"/>
            <feBlend mode="multiply" in2="BackgroundImageFix" result="effect1_dropShadow_472_9706"/>
            <feColorMatrix in="SourceAlpha" type="matrix" values="0 0 0 0 0 0 0 0 0 0 0 0 0 0 0 0 0 0 127 0" result="hardAlpha"/>
            <feOffset dy="1.43732"/>
            <feGaussianBlur stdDeviation="0.934257"/>
            <feColorMatrix type="matrix" values="0 0 0 0 0.702449 0 0 0 0 0.458646 0 0 0 0 0.991667 0 0 0 0.6 0"/>
            <feBlend mode="color-dodge" in2="effect1_dropShadow_472_9706" result="effect2_dropShadow_472_9706"/>
            <feBlend mode="normal" in="SourceGraphic" in2="effect2_dropShadow_472_9706" result="shape"/>
            <feColorMatrix in="SourceAlpha" type="matrix" values="0 0 0 0 0 0 0 0 0 0 0 0 0 0 0 0 0 0 127 0" result="hardAlpha"/>
            <feOffset dx="-0.157018" dy="0.314036"/>
            <feGaussianBlur stdDeviation="0.078509"/>
            <feComposite in2="hardAlpha" operator="arithmetic" k2="-1" k3="1"/>
            <feColorMatrix type="matrix" values="0 0 0 0 1 0 0 0 0 1 0 0 0 0 1 0 0 0 0.5 0"/>
            <feBlend mode="normal" in2="shape" result="effect3_innerShadow_472_9706"/>
        </filter>
        <filter id="filter8_f_472_9706" x="32.4512" y="4.68321" width="18.0976" height="17.3247" filterUnits="userSpaceOnUse" color-interpolation-filters="sRGB">
            <feFlood flood-opacity="0" result="BackgroundImageFix"/>
            <feBlend mode="normal" in="SourceGraphic" in2="BackgroundImageFix" result="shape"/>
            <feGaussianBlur stdDeviation="0.120783" result="effect1_foregroundBlur_472_9706"/>
        </filter>
        <filter id="filter9_f_472_9706" x="32.5317" y="4.76373" width="17.9366" height="17.1637" filterUnits="userSpaceOnUse" color-interpolation-filters="sRGB">
            <feFlood flood-opacity="0" result="BackgroundImageFix"/>
            <feBlend mode="normal" in="SourceGraphic" in2="BackgroundImageFix" result="shape"/>
            <feGaussianBlur stdDeviation="0.080522" result="effect1_foregroundBlur_472_9706"/>
        </filter>
        <filter id="filter10_f_472_9706" x="49.8559" y="0.612819" width="26.2384" height="25.4655" filterUnits="userSpaceOnUse" color-interpolation-filters="sRGB">
            <feFlood flood-opacity="0" result="BackgroundImageFix"/>
            <feBlend mode="normal" in="SourceGraphic" in2="BackgroundImageFix" result="shape"/>
            <feGaussianBlur stdDeviation="2.15598" result="effect1_foregroundBlur_472_9706"/>
        </filter>
        <filter id="filter11_f_472_9706" x="52.7305" y="3.48746" width="20.4891" height="19.7163" filterUnits="userSpaceOnUse" color-interpolation-filters="sRGB">
            <feFlood flood-opacity="0" result="BackgroundImageFix"/>
            <feBlend mode="normal" in="SourceGraphic" in2="BackgroundImageFix" result="shape"/>
            <feGaussianBlur stdDeviation="0.718659" result="effect1_foregroundBlur_472_9706"/>
        </filter>
        <filter id="filter12_ddi_472_9706" x="52.2993" y="4.49358" width="21.3515" height="20.5786" filterUnits="userSpaceOnUse" color-interpolation-filters="sRGB">
            <feFlood flood-opacity="0" result="BackgroundImageFix"/>
            <feColorMatrix in="SourceAlpha" type="matrix" values="0 0 0 0 0 0 0 0 0 0 0 0 0 0 0 0 0 0 127 0" result="hardAlpha"/>
            <feOffset dy="1.57018"/>
            <feGaussianBlur stdDeviation="0.603915"/>
            <feColorMatrix type="matrix" values="0 0 0 0 0 0 0 0 0 0.051 0 0 0 0 0.082 0 0 0 0.5 0"/>
            <feBlend mode="multiply" in2="BackgroundImageFix" result="effect1_dropShadow_472_9706"/>
            <feColorMatrix in="SourceAlpha" type="matrix" values="0 0 0 0 0 0 0 0 0 0 0 0 0 0 0 0 0 0 127 0" result="hardAlpha"/>
            <feOffset dy="1.43732"/>
            <feGaussianBlur stdDeviation="0.934257"/>
            <feColorMatrix type="matrix" values="0 0 0 0 0.702449 0 0 0 0 0.458646 0 0 0 0 0.991667 0 0 0 0.6 0"/>
            <feBlend mode="color-dodge" in2="effect1_dropShadow_472_9706" result="effect2_dropShadow_472_9706"/>
            <feBlend mode="normal" in="SourceGraphic" in2="effect2_dropShadow_472_9706" result="shape"/>
            <feColorMatrix in="SourceAlpha" type="matrix" values="0 0 0 0 0 0 0 0 0 0 0 0 0 0 0 0 0 0 127 0" result="hardAlpha"/>
            <feOffset dx="-0.157018" dy="0.314036"/>
            <feGaussianBlur stdDeviation="0.078509"/>
            <feComposite in2="hardAlpha" operator="arithmetic" k2="-1" k3="1"/>
            <feColorMatrix type="matrix" values="0 0 0 0 1 0 0 0 0 1 0 0 0 0 1 0 0 0 0.5 0"/>
            <feBlend mode="normal" in2="shape" result="effect3_innerShadow_472_9706"/>
        </filter>
        <filter id="filter13_f_472_9706" x="53.9263" y="4.68321" width="18.0976" height="17.3247" filterUnits="userSpaceOnUse" color-interpolation-filters="sRGB">
            <feFlood flood-opacity="0" result="BackgroundImageFix"/>
            <feBlend mode="normal" in="SourceGraphic" in2="BackgroundImageFix" result="shape"/>
            <feGaussianBlur stdDeviation="0.120783" result="effect1_foregroundBlur_472_9706"/>
        </filter>
        <filter id="filter14_f_472_9706" x="54.0068" y="4.76373" width="17.9366" height="17.1637" filterUnits="userSpaceOnUse" color-interpolation-filters="sRGB">
            <feFlood flood-opacity="0" result="BackgroundImageFix"/>
            <feBlend mode="normal" in="SourceGraphic" in2="BackgroundImageFix" result="shape"/>
            <feGaussianBlur stdDeviation="0.080522" result="effect1_foregroundBlur_472_9706"/>
        </filter>
        <filter id="filter15_f_472_9706" x="17.6432" y="22.0879" width="26.2384" height="25.4655" filterUnits="userSpaceOnUse" color-interpolation-filters="sRGB">
            <feFlood flood-opacity="0" result="BackgroundImageFix"/>
            <feBlend mode="normal" in="SourceGraphic" in2="BackgroundImageFix" result="shape"/>
            <feGaussianBlur stdDeviation="2.15598" result="effect1_foregroundBlur_472_9706"/>
        </filter>
        <filter id="filter16_f_472_9706" x="20.5179" y="24.9626" width="20.4891" height="19.7163" filterUnits="userSpaceOnUse" color-interpolation-filters="sRGB">
            <feFlood flood-opacity="0" result="BackgroundImageFix"/>
            <feBlend mode="normal" in="SourceGraphic" in2="BackgroundImageFix" result="shape"/>
            <feGaussianBlur stdDeviation="0.718659" result="effect1_foregroundBlur_472_9706"/>
        </filter>
        <filter id="filter17_ddi_472_9706" x="20.0867" y="25.9687" width="21.3515" height="20.5786" filterUnits="userSpaceOnUse" color-interpolation-filters="sRGB">
            <feFlood flood-opacity="0" result="BackgroundImageFix"/>
            <feColorMatrix in="SourceAlpha" type="matrix" values="0 0 0 0 0 0 0 0 0 0 0 0 0 0 0 0 0 0 127 0" result="hardAlpha"/>
            <feOffset dy="1.57018"/>
            <feGaussianBlur stdDeviation="0.603915"/>
            <feColorMatrix type="matrix" values="0 0 0 0 0 0 0 0 0 0.051 0 0 0 0 0.082 0 0 0 0.5 0"/>
            <feBlend mode="multiply" in2="BackgroundImageFix" result="effect1_dropShadow_472_9706"/>
            <feColorMatrix in="SourceAlpha" type="matrix" values="0 0 0 0 0 0 0 0 0 0 0 0 0 0 0 0 0 0 127 0" result="hardAlpha"/>
            <feOffset dy="1.43732"/>
            <feGaussianBlur stdDeviation="0.934257"/>
            <feColorMatrix type="matrix" values="0 0 0 0 0.702449 0 0 0 0 0.458646 0 0 0 0 0.991667 0 0 0 0.6 0"/>
            <feBlend mode="color-dodge" in2="effect1_dropShadow_472_9706" result="effect2_dropShadow_472_9706"/>
            <feBlend mode="normal" in="SourceGraphic" in2="effect2_dropShadow_472_9706" result="shape"/>
            <feColorMatrix in="SourceAlpha" type="matrix" values="0 0 0 0 0 0 0 0 0 0 0 0 0 0 0 0 0 0 127 0" result="hardAlpha"/>
            <feOffset dx="-0.157018" dy="0.314036"/>
            <feGaussianBlur stdDeviation="0.078509"/>
            <feComposite in2="hardAlpha" operator="arithmetic" k2="-1" k3="1"/>
            <feColorMatrix type="matrix" values="0 0 0 0 1 0 0 0 0 1 0 0 0 0 1 0 0 0 0.5 0"/>
            <feBlend mode="normal" in2="shape" result="effect3_innerShadow_472_9706"/>
        </filter>
        <filter id="filter18_f_472_9706" x="21.7136" y="26.1583" width="18.0976" height="17.3247" filterUnits="userSpaceOnUse" color-interpolation-filters="sRGB">
            <feFlood flood-opacity="0" result="BackgroundImageFix"/>
            <feBlend mode="normal" in="SourceGraphic" in2="BackgroundImageFix" result="shape"/>
            <feGaussianBlur stdDeviation="0.120783" result="effect1_foregroundBlur_472_9706"/>
        </filter>
        <filter id="filter19_f_472_9706" x="21.7942" y="26.2388" width="17.9366" height="17.1637" filterUnits="userSpaceOnUse" color-interpolation-filters="sRGB">
            <feFlood flood-opacity="0" result="BackgroundImageFix"/>
            <feBlend mode="normal" in="SourceGraphic" in2="BackgroundImageFix" result="shape"/>
            <feGaussianBlur stdDeviation="0.080522" result="effect1_foregroundBlur_472_9706"/>
        </filter>
        <filter id="filter20_f_472_9706" x="39.1183" y="22.0879" width="26.2384" height="25.4655" filterUnits="userSpaceOnUse" color-interpolation-filters="sRGB">
            <feFlood flood-opacity="0" result="BackgroundImageFix"/>
            <feBlend mode="normal" in="SourceGraphic" in2="BackgroundImageFix" result="shape"/>
            <feGaussianBlur stdDeviation="2.15598" result="effect1_foregroundBlur_472_9706"/>
        </filter>
        <filter id="filter21_f_472_9706" x="41.993" y="24.9626" width="20.4891" height="19.7163" filterUnits="userSpaceOnUse" color-interpolation-filters="sRGB">
            <feFlood flood-opacity="0" result="BackgroundImageFix"/>
            <feBlend mode="normal" in="SourceGraphic" in2="BackgroundImageFix" result="shape"/>
            <feGaussianBlur stdDeviation="0.718659" result="effect1_foregroundBlur_472_9706"/>
        </filter>
        <filter id="filter22_ddi_472_9706" x="41.5618" y="25.9687" width="21.3515" height="20.5786" filterUnits="userSpaceOnUse" color-interpolation-filters="sRGB">
            <feFlood flood-opacity="0" result="BackgroundImageFix"/>
            <feColorMatrix in="SourceAlpha" type="matrix" values="0 0 0 0 0 0 0 0 0 0 0 0 0 0 0 0 0 0 127 0" result="hardAlpha"/>
            <feOffset dy="1.57018"/>
            <feGaussianBlur stdDeviation="0.603915"/>
            <feColorMatrix type="matrix" values="0 0 0 0 0 0 0 0 0 0.051 0 0 0 0 0.082 0 0 0 0.5 0"/>
            <feBlend mode="multiply" in2="BackgroundImageFix" result="effect1_dropShadow_472_9706"/>
            <feColorMatrix in="SourceAlpha" type="matrix" values="0 0 0 0 0 0 0 0 0 0 0 0 0 0 0 0 0 0 127 0" result="hardAlpha"/>
            <feOffset dy="1.43732"/>
            <feGaussianBlur stdDeviation="0.934257"/>
            <feColorMatrix type="matrix" values="0 0 0 0 0.702449 0 0 0 0 0.458646 0 0 0 0 0.991667 0 0 0 0.6 0"/>
            <feBlend mode="color-dodge" in2="effect1_dropShadow_472_9706" result="effect2_dropShadow_472_9706"/>
            <feBlend mode="normal" in="SourceGraphic" in2="effect2_dropShadow_472_9706" result="shape"/>
            <feColorMatrix in="SourceAlpha" type="matrix" values="0 0 0 0 0 0 0 0 0 0 0 0 0 0 0 0 0 0 127 0" result="hardAlpha"/>
            <feOffset dx="-0.157018" dy="0.314036"/>
            <feGaussianBlur stdDeviation="0.078509"/>
            <feComposite in2="hardAlpha" operator="arithmetic" k2="-1" k3="1"/>
            <feColorMatrix type="matrix" values="0 0 0 0 1 0 0 0 0 1 0 0 0 0 1 0 0 0 0.5 0"/>
            <feBlend mode="normal" in2="shape" result="effect3_innerShadow_472_9706"/>
        </filter>
        <filter id="filter23_f_472_9706" x="43.1887" y="26.1583" width="18.0976" height="17.3247" filterUnits="userSpaceOnUse" color-interpolation-filters="sRGB">
            <feFlood flood-opacity="0" result="BackgroundImageFix"/>
            <feBlend mode="normal" in="SourceGraphic" in2="BackgroundImageFix" result="shape"/>
            <feGaussianBlur stdDeviation="0.120783" result="effect1_foregroundBlur_472_9706"/>
        </filter>
        <filter id="filter24_f_472_9706" x="43.2693" y="26.2388" width="17.9366" height="17.1637" filterUnits="userSpaceOnUse" color-interpolation-filters="sRGB">
            <feFlood flood-opacity="0" result="BackgroundImageFix"/>
            <feBlend mode="normal" in="SourceGraphic" in2="BackgroundImageFix" result="shape"/>
            <feGaussianBlur stdDeviation="0.080522" result="effect1_foregroundBlur_472_9706"/>
        </filter>
    </defs>
</svg>
