<svg viewBox="0 0 84 70" fill="none" xmlns="http://www.w3.org/2000/svg">
    <g style="mix-blend-mode:hard-light" filter="url(#filter0_f_472_9700)">
        <path d="M23.2831 24.0687C23.2956 24.0375 23.3098 24.0255 23.3201 24.0189C23.3337 24.0102 23.3545 24.003 23.3802 24.003C23.406 24.003 23.4268 24.0102 23.4404 24.0189C23.4507 24.0255 23.4649 24.0375 23.4774 24.0687L24.9726 27.792C25.1823 28.3142 25.6725 28.6703 26.234 28.7084L30.2371 28.9798C30.2706 28.9821 30.2864 28.992 30.2958 28.9997C30.3083 29.0099 30.3216 29.0275 30.3296 29.052C30.3375 29.0764 30.3371 29.0985 30.333 29.1141C30.3299 29.1259 30.3229 29.1431 30.2971 29.1647L27.2181 31.7372C26.7862 32.0981 26.599 32.6743 26.7363 33.2201L27.7152 37.1111C27.7234 37.1437 27.7189 37.1618 27.7145 37.1731C27.7086 37.1882 27.696 37.2063 27.6752 37.2214C27.6544 37.2365 27.6332 37.2429 27.6171 37.2438C27.605 37.2446 27.5864 37.2432 27.5579 37.2254L24.1598 35.092C23.6832 34.7928 23.0773 34.7928 22.6007 35.092L19.2026 37.2254C19.1741 37.2432 19.1555 37.2446 19.1434 37.2438C19.1273 37.2429 19.1061 37.2365 19.0853 37.2214C19.0645 37.2063 19.0519 37.1882 19.046 37.1731C19.0416 37.1618 19.0371 37.1437 19.0453 37.1111L20.0242 33.2201C20.1615 32.6743 19.9743 32.0981 19.5424 31.7372L16.4634 29.1647C16.4376 29.1431 16.4306 29.1259 16.4275 29.1141C16.4234 29.0985 16.423 29.0764 16.4309 29.052C16.4389 29.0275 16.4522 29.0099 16.4647 28.9997C16.4741 28.992 16.4899 28.9821 16.5234 28.9798L20.5265 28.7084C21.088 28.6703 21.5782 28.3142 21.7879 27.792L23.2831 24.0687Z" stroke="#6A11D5" stroke-width="1.36142"/>
    </g>
    <g style="mix-blend-mode:hard-light" filter="url(#filter1_f_472_9700)">
        <path d="M21.9823 27.87L23.3802 24.3887L24.7782 27.87C25.0179 28.4669 25.5781 28.8739 26.2198 28.9174L29.9627 29.1712L27.0838 31.5765C26.5902 31.9889 26.3763 32.6474 26.5332 33.2712L27.4484 36.9093L24.2712 34.9146C23.7264 34.5726 23.034 34.5726 22.4893 34.9146L19.3121 36.9093L20.2273 33.2712C20.3842 32.6474 20.1703 31.9889 19.6767 31.5765L16.7978 29.1712L20.5407 28.9174C21.1824 28.8739 21.7426 28.4669 21.9823 27.87Z" stroke="#7936C9" stroke-width="1.78031"/>
    </g>
    <g style="mix-blend-mode:hard-light" filter="url(#filter2_ddi_472_9700)">
        <path d="M23.2831 24.0687C23.2956 24.0375 23.3098 24.0255 23.3201 24.0189C23.3337 24.0102 23.3545 24.003 23.3802 24.003C23.406 24.003 23.4268 24.0102 23.4404 24.0189C23.4507 24.0255 23.4649 24.0375 23.4774 24.0687L24.9726 27.792C25.1823 28.3142 25.6725 28.6703 26.234 28.7084L30.2371 28.9798C30.2706 28.9821 30.2864 28.992 30.2958 28.9997C30.3083 29.0099 30.3216 29.0275 30.3296 29.052C30.3375 29.0764 30.3371 29.0985 30.333 29.1141C30.3299 29.1259 30.3229 29.1431 30.2971 29.1647L27.2181 31.7372C26.7862 32.0981 26.599 32.6743 26.7363 33.2201L27.7152 37.1111C27.7234 37.1437 27.7189 37.1618 27.7145 37.1731C27.7086 37.1882 27.696 37.2063 27.6752 37.2214C27.6544 37.2365 27.6332 37.2429 27.6171 37.2438C27.605 37.2446 27.5864 37.2432 27.5579 37.2254L24.1598 35.092C23.6832 34.7928 23.0773 34.7928 22.6007 35.092L19.2026 37.2254C19.1741 37.2432 19.1555 37.2446 19.1434 37.2438C19.1273 37.2429 19.1061 37.2365 19.0853 37.2214C19.0645 37.2063 19.0519 37.1882 19.046 37.1731C19.0416 37.1618 19.0371 37.1437 19.0453 37.1111L20.0242 33.2201C20.1615 32.6743 19.9743 32.0981 19.5424 31.7372L16.4634 29.1647C16.4376 29.1431 16.4306 29.1259 16.4275 29.1141C16.4234 29.0985 16.423 29.0764 16.4309 29.052C16.4389 29.0275 16.4522 29.0099 16.4647 28.9997C16.4741 28.992 16.4899 28.9821 16.5234 28.9798L20.5265 28.7084C21.088 28.6703 21.5782 28.3142 21.7879 27.792L23.2831 24.0687Z" stroke="#8620FF" stroke-opacity="0.2" stroke-width="1.36142"/>
    </g>
    <g filter="url(#filter3_f_472_9700)">
        <path d="M23.0401 23.9711C23.1632 23.6645 23.5973 23.6645 23.7204 23.9711L25.2156 27.6944C25.3878 28.1234 25.7904 28.4159 26.2517 28.4472L30.2548 28.7186C30.5844 28.741 30.7185 29.1538 30.465 29.3656L27.386 31.9382C27.0312 32.2346 26.8774 32.7079 26.9902 33.1562L27.9691 37.0472C28.0497 37.3676 27.6985 37.6228 27.4187 37.4471L24.0206 35.3137C23.6291 35.0679 23.1314 35.0679 22.7399 35.3137L19.3418 37.4471C19.062 37.6228 18.7108 37.3676 18.7914 37.0472L19.7703 33.1562C19.8831 32.7079 19.7293 32.2346 19.3745 31.9382L16.2955 29.3656C16.042 29.1538 16.1761 28.741 16.5057 28.7186L20.5088 28.4472C20.9701 28.4159 21.3727 28.1234 21.5449 27.6944L23.0401 23.9711Z" stroke="#8620FF" stroke-opacity="0.2" stroke-width="0.837795"/>
    </g>
    <g filter="url(#filter4_f_472_9700)">
        <path d="M22.8458 23.8931C23.0392 23.4113 23.7213 23.4113 23.9147 23.8931L25.4099 27.6164C25.5522 27.9707 25.8848 28.2124 26.2658 28.2382L30.2689 28.5097C30.7869 28.5448 30.9977 29.1934 30.5993 29.5263L27.5202 32.0989C27.2272 32.3437 27.1001 32.7347 27.1933 33.1051L28.1722 36.9961C28.2989 37.4996 27.7471 37.9005 27.3074 37.6245L23.9092 35.4911C23.5858 35.2881 23.1747 35.2881 22.8513 35.4911L19.4531 37.6245C19.0134 37.9005 18.4616 37.4996 18.5883 36.9961L19.5672 33.1051C19.6604 32.7347 19.5333 32.3437 19.2403 32.0989L16.1612 29.5263C15.7628 29.1934 15.9736 28.5448 16.4916 28.5097L20.4947 28.2382C20.8757 28.2124 21.2083 27.9707 21.3506 27.6164L22.8458 23.8931Z" stroke="white" stroke-width="0.418897"/>
    </g>
    <g style="mix-blend-mode:hard-light" filter="url(#filter5_f_472_9700)">
        <path d="M41.9029 24.0687C41.9155 24.0375 41.9297 24.0255 41.94 24.0189C41.9536 24.0102 41.9744 24.003 42.0001 24.003C42.0258 24.003 42.0467 24.0102 42.0603 24.0189C42.0705 24.0255 42.0848 24.0375 42.0973 24.0687L43.5925 27.792C43.8022 28.3142 44.2923 28.6703 44.8538 28.7084L48.8569 28.9798C48.8905 28.9821 48.9063 28.992 48.9157 28.9997C48.9282 29.0099 48.9415 29.0275 48.9494 29.052C48.9574 29.0764 48.9569 29.0985 48.9529 29.1141C48.9498 29.1259 48.9428 29.1431 48.917 29.1647L45.838 31.7372C45.4061 32.0981 45.2189 32.6743 45.3562 33.2201L46.335 37.1111C46.3433 37.1437 46.3388 37.1618 46.3343 37.1731C46.3284 37.1882 46.3159 37.2063 46.295 37.2214C46.2742 37.2365 46.2531 37.2429 46.237 37.2438C46.2248 37.2446 46.2063 37.2432 46.1778 37.2254L42.7797 35.092C42.303 34.7928 41.6972 34.7928 41.2206 35.092L37.8224 37.2254C37.794 37.2432 37.7754 37.2446 37.7632 37.2438C37.7471 37.2429 37.726 37.2365 37.7052 37.2214C37.6844 37.2063 37.6718 37.1882 37.6659 37.1731C37.6615 37.1618 37.657 37.1437 37.6652 37.1111L38.6441 33.2201C38.7814 32.6743 38.5942 32.0981 38.1623 31.7372L35.0832 29.1647C35.0574 29.1431 35.0504 29.1259 35.0474 29.1141C35.0433 29.0985 35.0428 29.0764 35.0508 29.052C35.0587 29.0275 35.0721 29.0099 35.0845 28.9997C35.094 28.992 35.1098 28.9821 35.1433 28.9798L39.1464 28.7084C39.7079 28.6703 40.198 28.3142 40.4078 27.792L41.9029 24.0687Z" stroke="#6A11D5" stroke-width="1.36142"/>
    </g>
    <g style="mix-blend-mode:hard-light" filter="url(#filter6_f_472_9700)">
        <path d="M40.6021 27.87L42.0001 24.3887L43.3981 27.87C43.6378 28.4669 44.198 28.8739 44.8397 28.9174L48.5826 29.1712L45.7037 31.5765C45.2101 31.9889 44.9961 32.6474 45.153 33.2712L46.0683 36.9093L42.891 34.9146C42.3463 34.5726 41.6539 34.5726 41.1092 34.9146L37.9319 36.9093L38.8472 33.2712C39.0041 32.6474 38.7901 31.9889 38.2966 31.5765L35.4177 29.1712L39.1606 28.9174C39.8023 28.8739 40.3625 28.4669 40.6021 27.87Z" stroke="#7936C9" stroke-width="1.78031"/>
    </g>
    <g style="mix-blend-mode:hard-light" filter="url(#filter7_ddi_472_9700)">
        <path d="M41.9029 24.0687C41.9155 24.0375 41.9297 24.0255 41.94 24.0189C41.9536 24.0102 41.9744 24.003 42.0001 24.003C42.0258 24.003 42.0467 24.0102 42.0603 24.0189C42.0705 24.0255 42.0848 24.0375 42.0973 24.0687L43.5925 27.792C43.8022 28.3142 44.2923 28.6703 44.8538 28.7084L48.8569 28.9798C48.8905 28.9821 48.9063 28.992 48.9157 28.9997C48.9282 29.0099 48.9415 29.0275 48.9494 29.052C48.9574 29.0764 48.9569 29.0985 48.9529 29.1141C48.9498 29.1259 48.9428 29.1431 48.917 29.1647L45.838 31.7372C45.4061 32.0981 45.2189 32.6743 45.3562 33.2201L46.335 37.1111C46.3433 37.1437 46.3388 37.1618 46.3343 37.1731C46.3284 37.1882 46.3159 37.2063 46.295 37.2214C46.2742 37.2365 46.2531 37.2429 46.237 37.2438C46.2248 37.2446 46.2063 37.2432 46.1778 37.2254L42.7797 35.092C42.303 34.7928 41.6972 34.7928 41.2206 35.092L37.8224 37.2254C37.794 37.2432 37.7754 37.2446 37.7632 37.2438C37.7471 37.2429 37.726 37.2365 37.7052 37.2214C37.6844 37.2063 37.6718 37.1882 37.6659 37.1731C37.6615 37.1618 37.657 37.1437 37.6652 37.1111L38.6441 33.2201C38.7814 32.6743 38.5942 32.0981 38.1623 31.7372L35.0832 29.1647C35.0574 29.1431 35.0504 29.1259 35.0474 29.1141C35.0433 29.0985 35.0428 29.0764 35.0508 29.052C35.0587 29.0275 35.0721 29.0099 35.0845 28.9997C35.094 28.992 35.1098 28.9821 35.1433 28.9798L39.1464 28.7084C39.7079 28.6703 40.198 28.3142 40.4078 27.792L41.9029 24.0687Z" stroke="#8620FF" stroke-opacity="0.2" stroke-width="1.36142"/>
    </g>
    <g filter="url(#filter8_f_472_9700)">
        <path d="M41.66 23.9711C41.7831 23.6645 42.2171 23.6645 42.3403 23.9711L43.8354 27.6944C44.0077 28.1234 44.4103 28.4159 44.8715 28.4472L48.8746 28.7186C49.2043 28.741 49.3384 29.1538 49.0849 29.3656L46.0058 31.9382C45.6511 32.2346 45.4973 32.7079 45.6101 33.1562L46.5889 37.0472C46.6696 37.3676 46.3184 37.6228 46.0386 37.4471L42.6405 35.3137C42.249 35.0679 41.7513 35.0679 41.3598 35.3137L37.9616 37.4471C37.6818 37.6228 37.3307 37.3676 37.4113 37.0472L38.3902 33.1562C38.503 32.7079 38.3492 32.2346 37.9944 31.9382L34.9154 29.3656C34.6618 29.1538 34.796 28.741 35.1256 28.7186L39.1287 28.4472C39.5899 28.4159 39.9925 28.1234 40.1648 27.6944L41.66 23.9711Z" stroke="#8620FF" stroke-opacity="0.2" stroke-width="0.837795"/>
    </g>
    <g filter="url(#filter9_f_472_9700)">
        <path d="M41.4656 23.8931C41.6591 23.4113 42.3411 23.4113 42.5346 23.8931L44.0298 27.6164C44.1721 27.9707 44.5047 28.2124 44.8857 28.2382L48.8888 28.5097C49.4068 28.5448 49.6176 29.1934 49.2192 29.5263L46.1401 32.0989C45.8471 32.3437 45.72 32.7347 45.8132 33.1051L46.7921 36.9961C46.9187 37.4996 46.3669 37.9005 45.9272 37.6245L42.5291 35.4911C42.2057 35.2881 41.7946 35.2881 41.4711 35.4911L38.073 37.6245C37.6333 37.9005 37.0815 37.4996 37.2082 36.9961L38.1871 33.1051C38.2802 32.7347 38.1532 32.3437 37.8601 32.0989L34.7811 29.5263C34.3827 29.1934 34.5934 28.5448 35.1114 28.5097L39.1145 28.2382C39.4955 28.2124 39.8281 27.9707 39.9705 27.6164L41.4656 23.8931Z" stroke="white" stroke-width="0.418897"/>
    </g>
    <g style="mix-blend-mode:hard-light" filter="url(#filter10_f_472_9700)">
        <path d="M60.5228 24.0687C60.5353 24.0375 60.5496 24.0255 60.5598 24.0189C60.5734 24.0102 60.5943 24.003 60.62 24.003C60.6457 24.003 60.6666 24.0102 60.6801 24.0189C60.6904 24.0255 60.7046 24.0375 60.7172 24.0687L62.2124 27.792C62.4221 28.3142 62.9122 28.6703 63.4737 28.7084L67.4768 28.9798C67.5104 28.9821 67.5262 28.992 67.5356 28.9997C67.548 29.0099 67.5614 29.0275 67.5693 29.052C67.5773 29.0764 67.5768 29.0985 67.5727 29.1141C67.5697 29.1259 67.5627 29.1431 67.5369 29.1647L64.4578 31.7372C64.026 32.0981 63.8387 32.6743 63.976 33.2201L64.9549 37.1111C64.9631 37.1437 64.9586 37.1618 64.9542 37.1731C64.9483 37.1882 64.9357 37.2063 64.9149 37.2214C64.8941 37.2365 64.873 37.2429 64.8569 37.2438C64.8447 37.2446 64.8262 37.2432 64.7977 37.2254L61.3996 35.092C60.9229 34.7928 60.3171 34.7928 59.8404 35.092L56.4423 37.2254C56.4138 37.2432 56.3953 37.2446 56.3831 37.2438C56.367 37.2429 56.3459 37.2365 56.3251 37.2214C56.3043 37.2063 56.2917 37.1882 56.2858 37.1731C56.2813 37.1618 56.2769 37.1437 56.2851 37.1111L57.264 33.2201C57.4013 32.6743 57.214 32.0981 56.7822 31.7372L53.7031 29.1647C53.6773 29.1431 53.6703 29.1259 53.6672 29.1141C53.6632 29.0985 53.6627 29.0764 53.6707 29.052C53.6786 29.0275 53.692 29.0099 53.7044 28.9997C53.7138 28.992 53.7296 28.9821 53.7632 28.9798L57.7663 28.7084C58.3278 28.6703 58.8179 28.3142 59.0276 27.792L60.5228 24.0687Z" stroke="#6A11D5" stroke-width="1.36142"/>
    </g>
    <g style="mix-blend-mode:hard-light" filter="url(#filter11_f_472_9700)">
        <path d="M59.222 27.87L60.62 24.3887L62.018 27.87C62.2577 28.4669 62.8178 28.8739 63.4595 28.9174L67.2024 29.1712L64.3235 31.5765C63.83 31.9889 63.616 32.6474 63.7729 33.2712L64.6882 36.9093L61.5109 34.9146C60.9662 34.5726 60.2738 34.5726 59.7291 34.9146L56.5518 36.9093L57.4671 33.2712C57.624 32.6474 57.41 31.9889 56.9164 31.5765L54.0375 29.1712L57.7805 28.9174C58.4222 28.8739 58.9823 28.4669 59.222 27.87Z" stroke="#7936C9" stroke-width="1.78031"/>
    </g>
    <g style="mix-blend-mode:hard-light" filter="url(#filter12_ddi_472_9700)">
        <path d="M60.5228 24.0687C60.5353 24.0375 60.5496 24.0255 60.5598 24.0189C60.5734 24.0102 60.5943 24.003 60.62 24.003C60.6457 24.003 60.6666 24.0102 60.6801 24.0189C60.6904 24.0255 60.7046 24.0375 60.7172 24.0687L62.2124 27.792C62.4221 28.3142 62.9122 28.6703 63.4737 28.7084L67.4768 28.9798C67.5104 28.9821 67.5262 28.992 67.5356 28.9997C67.548 29.0099 67.5614 29.0275 67.5693 29.052C67.5773 29.0764 67.5768 29.0985 67.5727 29.1141C67.5697 29.1259 67.5627 29.1431 67.5369 29.1647L64.4578 31.7372C64.026 32.0981 63.8387 32.6743 63.976 33.2201L64.9549 37.1111C64.9631 37.1437 64.9586 37.1618 64.9542 37.1731C64.9483 37.1882 64.9357 37.2063 64.9149 37.2214C64.8941 37.2365 64.873 37.2429 64.8569 37.2438C64.8447 37.2446 64.8262 37.2432 64.7977 37.2254L61.3996 35.092C60.9229 34.7928 60.3171 34.7928 59.8404 35.092L56.4423 37.2254C56.4138 37.2432 56.3953 37.2446 56.3831 37.2438C56.367 37.2429 56.3459 37.2365 56.3251 37.2214C56.3043 37.2063 56.2917 37.1882 56.2858 37.1731C56.2813 37.1618 56.2769 37.1437 56.2851 37.1111L57.264 33.2201C57.4013 32.6743 57.214 32.0981 56.7822 31.7372L53.7031 29.1647C53.6773 29.1431 53.6703 29.1259 53.6672 29.1141C53.6632 29.0985 53.6627 29.0764 53.6707 29.052C53.6786 29.0275 53.692 29.0099 53.7044 28.9997C53.7138 28.992 53.7296 28.9821 53.7632 28.9798L57.7663 28.7084C58.3278 28.6703 58.8179 28.3142 59.0276 27.792L60.5228 24.0687Z" stroke="#8620FF" stroke-opacity="0.2" stroke-width="1.36142"/>
    </g>
    <g filter="url(#filter13_f_472_9700)">
        <path d="M60.2799 23.9711C60.403 23.6645 60.837 23.6645 60.9601 23.9711L62.4553 27.6944C62.6276 28.1234 63.0302 28.4159 63.4914 28.4472L67.4945 28.7186C67.8242 28.741 67.9583 29.1538 67.7047 29.3656L64.6257 31.9382C64.2709 32.2346 64.1172 32.7079 64.2299 33.1562L65.2088 37.0472C65.2894 37.3676 64.9383 37.6228 64.6585 37.4471L61.2603 35.3137C60.8688 35.0679 60.3712 35.0679 59.9796 35.3137L56.5815 37.4471C56.3017 37.6228 55.9506 37.3676 56.0312 37.0472L57.0101 33.1562C57.1228 32.7079 56.969 32.2346 56.6143 31.9382L53.5353 29.3656C53.2817 29.1538 53.4158 28.741 53.7455 28.7186L57.7486 28.4472C58.2098 28.4159 58.6124 28.1234 58.7847 27.6944L60.2799 23.9711Z" stroke="#8620FF" stroke-opacity="0.2" stroke-width="0.837795"/>
    </g>
    <g filter="url(#filter14_f_472_9700)">
        <path d="M60.0855 23.8931C60.279 23.4113 60.961 23.4113 61.1545 23.8931L62.6497 27.6164C62.792 27.9707 63.1246 28.2124 63.5056 28.2382L67.5087 28.5097C68.0267 28.5448 68.2375 29.1934 67.839 29.5263L64.76 32.0989C64.4669 32.3437 64.3399 32.7347 64.4331 33.1051L65.4119 36.9961C65.5386 37.4996 64.9868 37.9005 64.5471 37.6245L61.149 35.4911C60.8256 35.2881 60.4144 35.2881 60.091 35.4911L56.6929 37.6245C56.2532 37.9005 55.7014 37.4996 55.8281 36.9961L56.8069 33.1051C56.9001 32.7347 56.7731 32.3437 56.48 32.0989L53.401 29.5263C53.0025 29.1934 53.2133 28.5448 53.7313 28.5097L57.7344 28.2382C58.1154 28.2124 58.448 27.9707 58.5903 27.6164L60.0855 23.8931Z" stroke="white" stroke-width="0.418897"/>
    </g>
    <g style="mix-blend-mode:hard-light" filter="url(#filter15_f_472_9700)">
        <path d="M13.973 5.44881C13.9855 5.4176 13.9998 5.40562 14.01 5.39905C14.0236 5.39036 14.0445 5.38311 14.0702 5.38311C14.0959 5.38311 14.1167 5.39036 14.1303 5.39905C14.1406 5.40562 14.1548 5.4176 14.1674 5.44881L15.6625 9.17211C15.8723 9.69435 16.3624 10.0505 16.9239 10.0885L20.927 10.36C20.9606 10.3622 20.9764 10.3721 20.9858 10.3798C20.9982 10.3901 21.0116 10.4076 21.0195 10.4321C21.0275 10.4566 21.027 10.4786 21.0229 10.4942C21.0199 10.506 21.0129 10.5233 20.9871 10.5448L17.908 13.1174C17.4762 13.4782 17.2889 14.0544 17.4262 14.6002L18.4051 18.4912C18.4133 18.5239 18.4088 18.5419 18.4044 18.5533C18.3985 18.5683 18.3859 18.5864 18.3651 18.6015C18.3443 18.6166 18.3232 18.623 18.3071 18.624C18.2949 18.6247 18.2764 18.6234 18.2479 18.6055L14.8498 16.4721C14.3731 16.1729 13.7673 16.1729 13.2906 16.4721L9.89251 18.6055C9.86402 18.6234 9.84546 18.6247 9.83331 18.624C9.8172 18.623 9.79608 18.6166 9.77527 18.6015C9.75446 18.5864 9.74187 18.5683 9.73598 18.5533C9.73154 18.5419 9.72706 18.5239 9.73527 18.4912L10.7141 14.6002C10.8514 14.0544 10.6642 13.4782 10.2324 13.1174L7.15332 10.5448C7.12751 10.5233 7.12051 10.506 7.11744 10.4942C7.11337 10.4786 7.11291 10.4566 7.12086 10.4321C7.12881 10.4076 7.14215 10.3901 7.15462 10.3798C7.16403 10.3721 7.17982 10.3622 7.21338 10.36L11.2165 10.0885C11.778 10.0505 12.2681 9.69435 12.4778 9.17211L13.973 5.44881Z" stroke="#6A11D5" stroke-width="1.36142"/>
    </g>
    <g style="mix-blend-mode:hard-light" filter="url(#filter16_f_472_9700)">
        <path d="M12.6722 9.25016L14.0702 5.76886L15.4682 9.25016C15.7079 9.84701 16.268 10.254 16.9097 10.2975L20.6526 10.5513L17.7737 12.9566C17.2802 13.369 17.0662 14.0275 17.2231 14.6513L18.1384 18.2894L14.9611 16.2947C14.4164 15.9527 13.724 15.9527 13.1793 16.2947L10.002 18.2894L10.9173 14.6513C11.0742 14.0275 10.8602 13.369 10.3666 12.9566L7.48774 10.5513L11.2307 10.2975C11.8724 10.254 12.4325 9.84701 12.6722 9.25016Z" stroke="#7936C9" stroke-width="1.78031"/>
    </g>
    <g style="mix-blend-mode:hard-light" filter="url(#filter17_ddi_472_9700)">
        <path d="M13.973 5.44881C13.9855 5.4176 13.9998 5.40562 14.01 5.39905C14.0236 5.39036 14.0445 5.38311 14.0702 5.38311C14.0959 5.38311 14.1167 5.39036 14.1303 5.39905C14.1406 5.40562 14.1548 5.4176 14.1674 5.44881L15.6625 9.17211C15.8723 9.69435 16.3624 10.0505 16.9239 10.0885L20.927 10.36C20.9606 10.3622 20.9764 10.3721 20.9858 10.3798C20.9982 10.3901 21.0116 10.4076 21.0195 10.4321C21.0275 10.4566 21.027 10.4786 21.0229 10.4942C21.0199 10.506 21.0129 10.5233 20.9871 10.5448L17.908 13.1174C17.4762 13.4782 17.2889 14.0544 17.4262 14.6002L18.4051 18.4912C18.4133 18.5239 18.4088 18.5419 18.4044 18.5533C18.3985 18.5683 18.3859 18.5864 18.3651 18.6015C18.3443 18.6166 18.3232 18.623 18.3071 18.624C18.2949 18.6247 18.2764 18.6234 18.2479 18.6055L14.8498 16.4721C14.3731 16.1729 13.7673 16.1729 13.2906 16.4721L9.89251 18.6055C9.86402 18.6234 9.84546 18.6247 9.83331 18.624C9.8172 18.623 9.79608 18.6166 9.77527 18.6015C9.75446 18.5864 9.74187 18.5683 9.73598 18.5533C9.73154 18.5419 9.72706 18.5239 9.73527 18.4912L10.7141 14.6002C10.8514 14.0544 10.6642 13.4782 10.2324 13.1174L7.15332 10.5448C7.12751 10.5233 7.12051 10.506 7.11744 10.4942C7.11337 10.4786 7.11291 10.4566 7.12086 10.4321C7.12881 10.4076 7.14215 10.3901 7.15462 10.3798C7.16403 10.3721 7.17982 10.3622 7.21338 10.36L11.2165 10.0885C11.778 10.0505 12.2681 9.69435 12.4778 9.17211L13.973 5.44881Z" stroke="#8620FF" stroke-opacity="0.2" stroke-width="1.36142"/>
    </g>
    <g filter="url(#filter18_f_472_9700)">
        <path d="M13.7301 5.35124C13.8532 5.04465 14.2872 5.04465 14.4103 5.35124L15.9055 9.07455C16.0778 9.50353 16.4804 9.79605 16.9416 9.82732L20.9447 10.0988C21.2743 10.1211 21.4085 10.5339 21.1549 10.7457L18.0759 13.3183C17.7211 13.6147 17.5674 14.088 17.6801 14.5363L18.659 18.4274C18.7396 18.7478 18.3885 19.0029 18.1087 18.8272L14.7105 16.6938C14.319 16.448 13.8214 16.448 13.4298 16.6938L10.0317 18.8272C9.7519 19.0029 9.40076 18.7478 9.48137 18.4274L10.4602 14.5363C10.573 14.088 10.4192 13.6147 10.0645 13.3183L6.98545 10.7457C6.73191 10.5339 6.86603 10.1211 7.19567 10.0988L11.1988 9.82732C11.66 9.79605 12.0626 9.50353 12.2349 9.07455L13.7301 5.35124Z" stroke="#8620FF" stroke-opacity="0.2" stroke-width="0.837795"/>
    </g>
    <g filter="url(#filter19_f_472_9700)">
        <path d="M13.5357 5.27319C13.7292 4.7914 14.4112 4.7914 14.6047 5.27319L16.0999 8.99649C16.2422 9.35087 16.5748 9.59252 16.9558 9.61836L20.9589 9.88979C21.4769 9.92491 21.6876 10.5736 21.2892 10.9065L18.2102 13.479C17.9171 13.7239 17.7901 14.1149 17.8833 14.4852L18.8621 18.3763C18.9888 18.8798 18.437 19.2807 17.9973 19.0046L14.5992 16.8712C14.2757 16.6682 13.8646 16.6682 13.5412 16.8712L10.1431 19.0046C9.70337 19.2807 9.15158 18.8798 9.27825 18.3763L10.2571 14.4852C10.3503 14.1149 10.2233 13.7239 9.93019 13.479L6.85116 10.9065C6.45273 10.5736 6.6635 9.92491 7.1815 9.88979L11.1846 9.61836C11.5656 9.59252 11.8982 9.35087 12.0405 8.99649L13.5357 5.27319Z" stroke="white" stroke-width="0.418897"/>
    </g>
    <g style="mix-blend-mode:hard-light" filter="url(#filter20_f_472_9700)">
        <path d="M32.5929 5.44881C32.6054 5.4176 32.6197 5.40562 32.6299 5.39905C32.6435 5.39036 32.6643 5.38311 32.6901 5.38311C32.7158 5.38311 32.7366 5.39036 32.7502 5.39905C32.7605 5.40562 32.7747 5.4176 32.7872 5.44881L34.2824 9.17211C34.4921 9.69435 34.9823 10.0505 35.5438 10.0885L39.5469 10.36C39.5804 10.3622 39.5962 10.3721 39.6056 10.3798C39.6181 10.3901 39.6314 10.4076 39.6394 10.4321C39.6473 10.4566 39.6469 10.4786 39.6428 10.4942C39.6397 10.506 39.6327 10.5233 39.6069 10.5448L36.5279 13.1174C36.096 13.4782 35.9088 14.0544 36.0461 14.6002L37.025 18.4912C37.0332 18.5239 37.0287 18.5419 37.0243 18.5533C37.0184 18.5683 37.0058 18.5864 36.985 18.6015C36.9642 18.6166 36.9431 18.623 36.9269 18.624C36.9148 18.6247 36.8962 18.6234 36.8677 18.6055L33.4696 16.4721C32.993 16.1729 32.3871 16.1729 31.9105 16.4721L28.5124 18.6055C28.4839 18.6234 28.4653 18.6247 28.4532 18.624C28.4371 18.623 28.416 18.6166 28.3951 18.6015C28.3743 18.5864 28.3617 18.5683 28.3559 18.5533C28.3514 18.5419 28.3469 18.5239 28.3551 18.4912L29.334 14.6002C29.4713 14.0544 29.2841 13.4782 28.8522 13.1174L25.7732 10.5448C25.7474 10.5233 25.7404 10.506 25.7373 10.4942C25.7332 10.4786 25.7328 10.4566 25.7407 10.4321C25.7487 10.4076 25.762 10.3901 25.7745 10.3798C25.7839 10.3721 25.7997 10.3622 25.8333 10.36L29.8364 10.0885C30.3978 10.0505 30.888 9.69435 31.0977 9.17211L32.5929 5.44881Z" stroke="#6A11D5" stroke-width="1.36142"/>
    </g>
    <g style="mix-blend-mode:hard-light" filter="url(#filter21_f_472_9700)">
        <path d="M31.2921 9.25016L32.6901 5.76886L34.0881 9.25016C34.3277 9.84701 34.8879 10.254 35.5296 10.2975L39.2725 10.5513L36.3936 12.9566C35.9 13.369 35.6861 14.0275 35.843 14.6513L36.7582 18.2894L33.581 16.2947C33.0363 15.9527 32.3439 15.9527 31.7991 16.2947L28.6219 18.2894L29.5371 14.6513C29.6941 14.0275 29.4801 13.369 28.9865 12.9566L26.1076 10.5513L29.8505 10.2975C30.4922 10.254 31.0524 9.84701 31.2921 9.25016Z" stroke="#7936C9" stroke-width="1.78031"/>
    </g>
    <g style="mix-blend-mode:hard-light" filter="url(#filter22_ddi_472_9700)">
        <path d="M32.5929 5.44881C32.6054 5.4176 32.6197 5.40562 32.6299 5.39905C32.6435 5.39036 32.6643 5.38311 32.6901 5.38311C32.7158 5.38311 32.7366 5.39036 32.7502 5.39905C32.7605 5.40562 32.7747 5.4176 32.7872 5.44881L34.2824 9.17211C34.4921 9.69435 34.9823 10.0505 35.5438 10.0885L39.5469 10.36C39.5804 10.3622 39.5962 10.3721 39.6056 10.3798C39.6181 10.3901 39.6314 10.4076 39.6394 10.4321C39.6473 10.4566 39.6469 10.4786 39.6428 10.4942C39.6397 10.506 39.6327 10.5233 39.6069 10.5448L36.5279 13.1174C36.096 13.4782 35.9088 14.0544 36.0461 14.6002L37.025 18.4912C37.0332 18.5239 37.0287 18.5419 37.0243 18.5533C37.0184 18.5683 37.0058 18.5864 36.985 18.6015C36.9642 18.6166 36.9431 18.623 36.9269 18.624C36.9148 18.6247 36.8962 18.6234 36.8677 18.6055L33.4696 16.4721C32.993 16.1729 32.3871 16.1729 31.9105 16.4721L28.5124 18.6055C28.4839 18.6234 28.4653 18.6247 28.4532 18.624C28.4371 18.623 28.416 18.6166 28.3951 18.6015C28.3743 18.5864 28.3617 18.5683 28.3559 18.5533C28.3514 18.5419 28.3469 18.5239 28.3551 18.4912L29.334 14.6002C29.4713 14.0544 29.2841 13.4782 28.8522 13.1174L25.7732 10.5448C25.7474 10.5233 25.7404 10.506 25.7373 10.4942C25.7332 10.4786 25.7328 10.4566 25.7407 10.4321C25.7487 10.4076 25.762 10.3901 25.7745 10.3798C25.7839 10.3721 25.7997 10.3622 25.8333 10.36L29.8364 10.0885C30.3978 10.0505 30.888 9.69435 31.0977 9.17211L32.5929 5.44881Z" stroke="#8620FF" stroke-opacity="0.2" stroke-width="1.36142"/>
    </g>
    <g filter="url(#filter23_f_472_9700)">
        <path d="M32.3499 5.35124C32.473 5.04465 32.9071 5.04465 33.0302 5.35124L34.5254 9.07455C34.6976 9.50353 35.1003 9.79605 35.5615 9.82732L39.5646 10.0988C39.8942 10.1211 40.0283 10.5339 39.7748 10.7457L36.6958 13.3183C36.341 13.6147 36.1872 14.088 36.3 14.5363L37.2789 18.4274C37.3595 18.7478 37.0084 19.0029 36.7285 18.8272L33.3304 16.6938C32.9389 16.448 32.4412 16.448 32.0497 16.6938L28.6516 18.8272C28.3718 19.0029 28.0206 18.7478 28.1012 18.4274L29.0801 14.5363C29.1929 14.088 29.0391 13.6147 28.6844 13.3183L25.6053 10.7457C25.3518 10.5339 25.4859 10.1211 25.8155 10.0988L29.8186 9.82732C30.2799 9.79605 30.6825 9.50353 30.8548 9.07455L32.3499 5.35124Z" stroke="#8620FF" stroke-opacity="0.2" stroke-width="0.837795"/>
    </g>
    <g filter="url(#filter24_f_472_9700)">
        <path d="M32.1556 5.27319C32.349 4.7914 33.0311 4.7914 33.2246 5.27319L34.7197 8.99649C34.862 9.35087 35.1946 9.59252 35.5757 9.61836L39.5788 9.88979C40.0968 9.92491 40.3075 10.5736 39.9091 10.9065L36.8301 13.479C36.537 13.7239 36.41 14.1149 36.5031 14.4852L37.482 18.3763C37.6087 18.8798 37.0569 19.2807 36.6172 19.0046L33.2191 16.8712C32.8956 16.6682 32.4845 16.6682 32.1611 16.8712L28.763 19.0046C28.3232 19.2807 27.7715 18.8798 27.8981 18.3763L28.877 14.4852C28.9702 14.1149 28.8431 13.7239 28.5501 13.479L25.471 10.9065C25.0726 10.5736 25.2834 9.92491 25.8014 9.88979L29.8045 9.61836C30.1855 9.59252 30.5181 9.35087 30.6604 8.99649L32.1556 5.27319Z" stroke="white" stroke-width="0.418897"/>
    </g>
    <g style="mix-blend-mode:hard-light" filter="url(#filter25_f_472_9700)">
        <path d="M51.2128 5.44881C51.2253 5.4176 51.2395 5.40562 51.2498 5.39905C51.2634 5.39036 51.2842 5.38311 51.3099 5.38311C51.3357 5.38311 51.3565 5.39036 51.3701 5.39905C51.3803 5.40562 51.3946 5.4176 51.4071 5.44881L52.9023 9.17211C53.112 9.69435 53.6022 10.0505 54.1636 10.0885L58.1667 10.36C58.2003 10.3622 58.2161 10.3721 58.2255 10.3798C58.238 10.3901 58.2513 10.4076 58.2593 10.4321C58.2672 10.4566 58.2668 10.4786 58.2627 10.4942C58.2596 10.506 58.2526 10.5233 58.2268 10.5448L55.1478 13.1174C54.7159 13.4782 54.5287 14.0544 54.666 14.6002L55.6449 18.4912C55.6531 18.5239 55.6486 18.5419 55.6441 18.5533C55.6383 18.5683 55.6257 18.5864 55.6049 18.6015C55.584 18.6166 55.5629 18.623 55.5468 18.624C55.5347 18.6247 55.5161 18.6234 55.4876 18.6055L52.0895 16.4721C51.6129 16.1729 51.007 16.1729 50.5304 16.4721L47.1323 18.6055C47.1038 18.6234 47.0852 18.6247 47.0731 18.624C47.0569 18.623 47.0358 18.6166 47.015 18.6015C46.9942 18.5864 46.9816 18.5683 46.9757 18.5533C46.9713 18.5419 46.9668 18.5239 46.975 18.4912L47.9539 14.6002C48.0912 14.0544 47.904 13.4782 47.4721 13.1174L44.3931 10.5448C44.3673 10.5233 44.3603 10.506 44.3572 10.4942C44.3531 10.4786 44.3527 10.4566 44.3606 10.4321C44.3686 10.4076 44.3819 10.3901 44.3944 10.3798C44.4038 10.3721 44.4196 10.3622 44.4531 10.36L48.4562 10.0885C49.0177 10.0505 49.5079 9.69435 49.7176 9.17211L51.2128 5.44881Z" stroke="#6A11D5" stroke-width="1.36142"/>
    </g>
    <g style="mix-blend-mode:hard-light" filter="url(#filter26_f_472_9700)">
        <path d="M49.9119 9.25016L51.3099 5.76886L52.7079 9.25016C52.9476 9.84701 53.5078 10.254 54.1495 10.2975L57.8924 10.5513L55.0135 12.9566C54.5199 13.369 54.3059 14.0275 54.4629 14.6513L55.3781 18.2894L52.2009 16.2947C51.6561 15.9527 50.9637 15.9527 50.419 16.2947L47.2418 18.2894L48.157 14.6513C48.3139 14.0275 48.1 13.369 47.6064 12.9566L44.7275 10.5513L48.4704 10.2975C49.1121 10.254 49.6723 9.84701 49.9119 9.25016Z" stroke="#7936C9" stroke-width="1.78031"/>
    </g>
    <g style="mix-blend-mode:hard-light" filter="url(#filter27_ddi_472_9700)">
        <path d="M51.2128 5.44881C51.2253 5.4176 51.2395 5.40562 51.2498 5.39905C51.2634 5.39036 51.2842 5.38311 51.3099 5.38311C51.3357 5.38311 51.3565 5.39036 51.3701 5.39905C51.3803 5.40562 51.3946 5.4176 51.4071 5.44881L52.9023 9.17211C53.112 9.69435 53.6022 10.0505 54.1636 10.0885L58.1667 10.36C58.2003 10.3622 58.2161 10.3721 58.2255 10.3798C58.238 10.3901 58.2513 10.4076 58.2593 10.4321C58.2672 10.4566 58.2668 10.4786 58.2627 10.4942C58.2596 10.506 58.2526 10.5233 58.2268 10.5448L55.1478 13.1174C54.7159 13.4782 54.5287 14.0544 54.666 14.6002L55.6449 18.4912C55.6531 18.5239 55.6486 18.5419 55.6441 18.5533C55.6383 18.5683 55.6257 18.5864 55.6049 18.6015C55.584 18.6166 55.5629 18.623 55.5468 18.624C55.5347 18.6247 55.5161 18.6234 55.4876 18.6055L52.0895 16.4721C51.6129 16.1729 51.007 16.1729 50.5304 16.4721L47.1323 18.6055C47.1038 18.6234 47.0852 18.6247 47.0731 18.624C47.0569 18.623 47.0358 18.6166 47.015 18.6015C46.9942 18.5864 46.9816 18.5683 46.9757 18.5533C46.9713 18.5419 46.9668 18.5239 46.975 18.4912L47.9539 14.6002C48.0912 14.0544 47.904 13.4782 47.4721 13.1174L44.3931 10.5448C44.3673 10.5233 44.3603 10.506 44.3572 10.4942C44.3531 10.4786 44.3527 10.4566 44.3606 10.4321C44.3686 10.4076 44.3819 10.3901 44.3944 10.3798C44.4038 10.3721 44.4196 10.3622 44.4531 10.36L48.4562 10.0885C49.0177 10.0505 49.5079 9.69435 49.7176 9.17211L51.2128 5.44881Z" stroke="#8620FF" stroke-opacity="0.2" stroke-width="1.36142"/>
    </g>
    <g filter="url(#filter28_f_472_9700)">
        <path d="M50.9698 5.35124C51.0929 5.04465 51.527 5.04465 51.6501 5.35124L53.1452 9.07455C53.3175 9.50353 53.7201 9.79605 54.1814 9.82732L58.1845 10.0988C58.5141 10.1211 58.6482 10.5339 58.3947 10.7457L55.3156 13.3183C54.9609 13.6147 54.8071 14.088 54.9199 14.5363L55.8988 18.4274C55.9794 18.7478 55.6282 19.0029 55.3484 18.8272L51.9503 16.6938C51.5588 16.448 51.0611 16.448 50.6696 16.6938L47.2715 18.8272C46.9916 19.0029 46.6405 18.7478 46.7211 18.4274L47.7 14.5363C47.8128 14.088 47.659 13.6147 47.3042 13.3183L44.2252 10.7457C43.9717 10.5339 44.1058 10.1211 44.4354 10.0988L48.4385 9.82732C48.8997 9.79605 49.3024 9.50353 49.4746 9.07455L50.9698 5.35124Z" stroke="#8620FF" stroke-opacity="0.2" stroke-width="0.837795"/>
    </g>
    <g filter="url(#filter29_f_472_9700)">
        <path d="M50.7754 5.27319C50.9689 4.7914 51.651 4.7914 51.8444 5.27319L53.3396 8.99649C53.4819 9.35087 53.8145 9.59252 54.1955 9.61836L58.1986 9.88979C58.7166 9.92491 58.9274 10.5736 58.529 10.9065L55.4499 13.479C55.1569 13.7239 55.0298 14.1149 55.123 14.4852L56.1019 18.3763C56.2285 18.8798 55.6768 19.2807 55.237 19.0046L51.8389 16.8712C51.5155 16.6682 51.1044 16.6682 50.7809 16.8712L47.3828 19.0046C46.9431 19.2807 46.3913 18.8798 46.518 18.3763L47.4969 14.4852C47.59 14.1149 47.463 13.7239 47.1699 13.479L44.0909 10.9065C43.6925 10.5736 43.9032 9.92491 44.4212 9.88979L48.4243 9.61836C48.8054 9.59252 49.138 9.35087 49.2803 8.99649L50.7754 5.27319Z" stroke="white" stroke-width="0.418897"/>
    </g>
    <g style="mix-blend-mode:hard-light" filter="url(#filter30_f_472_9700)">
        <path d="M69.8326 5.44881C69.8452 5.4176 69.8594 5.40562 69.8697 5.39905C69.8833 5.39036 69.9041 5.38311 69.9298 5.38311C69.9555 5.38311 69.9764 5.39036 69.99 5.39905C70.0002 5.40562 70.0145 5.4176 70.027 5.44881L71.5222 9.17211C71.7319 9.69435 72.222 10.0505 72.7835 10.0885L76.7866 10.36C76.8202 10.3622 76.836 10.3721 76.8454 10.3798C76.8578 10.3901 76.8712 10.4076 76.8791 10.4321C76.8871 10.4566 76.8866 10.4786 76.8826 10.4942C76.8795 10.506 76.8725 10.5233 76.8467 10.5448L73.7676 13.1174C73.3358 13.4782 73.1486 14.0544 73.2859 14.6002L74.2647 18.4912C74.2729 18.5239 74.2685 18.5419 74.264 18.5533C74.2581 18.5683 74.2455 18.5864 74.2247 18.6015C74.2039 18.6166 74.1828 18.623 74.1667 18.624C74.1545 18.6247 74.136 18.6234 74.1075 18.6055L70.7094 16.4721C70.2327 16.1729 69.6269 16.1729 69.1503 16.4721L65.7521 18.6055C65.7236 18.6234 65.7051 18.6247 65.6929 18.624C65.6768 18.623 65.6557 18.6166 65.6349 18.6015C65.6141 18.5864 65.6015 18.5683 65.5956 18.5533C65.5912 18.5419 65.5867 18.5239 65.5949 18.4912L66.5738 14.6002C66.7111 14.0544 66.5238 13.4782 66.092 13.1174L63.0129 10.5448C62.9871 10.5233 62.9801 10.506 62.9771 10.4942C62.973 10.4786 62.9725 10.4566 62.9805 10.4321C62.9884 10.4076 63.0018 10.3901 63.0142 10.3798C63.0236 10.3721 63.0394 10.3622 63.073 10.36L67.0761 10.0885C67.6376 10.0505 68.1277 9.69435 68.3375 9.17211L69.8326 5.44881Z" stroke="#6A11D5" stroke-width="1.36142"/>
    </g>
    <g style="mix-blend-mode:hard-light" filter="url(#filter31_f_472_9700)">
        <path d="M68.5318 9.25016L69.9298 5.76886L71.3278 9.25016C71.5675 9.84701 72.1276 10.254 72.7694 10.2975L76.5123 10.5513L73.6334 12.9566C73.1398 13.369 72.9258 14.0275 73.0827 14.6513L73.998 18.2894L70.8207 16.2947C70.276 15.9527 69.5836 15.9527 69.0389 16.2947L65.8616 18.2894L66.7769 14.6513C66.9338 14.0275 66.7198 13.369 66.2263 12.9566L63.3474 10.5513L67.0903 10.2975C67.732 10.254 68.2921 9.84701 68.5318 9.25016Z" stroke="#7936C9" stroke-width="1.78031"/>
    </g>
    <g style="mix-blend-mode:hard-light" filter="url(#filter32_ddi_472_9700)">
        <path d="M69.8326 5.44881C69.8452 5.4176 69.8594 5.40562 69.8697 5.39905C69.8833 5.39036 69.9041 5.38311 69.9298 5.38311C69.9555 5.38311 69.9764 5.39036 69.99 5.39905C70.0002 5.40562 70.0145 5.4176 70.027 5.44881L71.5222 9.17211C71.7319 9.69435 72.222 10.0505 72.7835 10.0885L76.7866 10.36C76.8202 10.3622 76.836 10.3721 76.8454 10.3798C76.8578 10.3901 76.8712 10.4076 76.8791 10.4321C76.8871 10.4566 76.8866 10.4786 76.8826 10.4942C76.8795 10.506 76.8725 10.5233 76.8467 10.5448L73.7676 13.1174C73.3358 13.4782 73.1486 14.0544 73.2859 14.6002L74.2647 18.4912C74.2729 18.5239 74.2685 18.5419 74.264 18.5533C74.2581 18.5683 74.2455 18.5864 74.2247 18.6015C74.2039 18.6166 74.1828 18.623 74.1667 18.624C74.1545 18.6247 74.136 18.6234 74.1075 18.6055L70.7094 16.4721C70.2327 16.1729 69.6269 16.1729 69.1503 16.4721L65.7521 18.6055C65.7236 18.6234 65.7051 18.6247 65.6929 18.624C65.6768 18.623 65.6557 18.6166 65.6349 18.6015C65.6141 18.5864 65.6015 18.5683 65.5956 18.5533C65.5912 18.5419 65.5867 18.5239 65.5949 18.4912L66.5738 14.6002C66.7111 14.0544 66.5238 13.4782 66.092 13.1174L63.0129 10.5448C62.9871 10.5233 62.9801 10.506 62.9771 10.4942C62.973 10.4786 62.9725 10.4566 62.9805 10.4321C62.9884 10.4076 63.0018 10.3901 63.0142 10.3798C63.0236 10.3721 63.0394 10.3622 63.073 10.36L67.0761 10.0885C67.6376 10.0505 68.1277 9.69435 68.3375 9.17211L69.8326 5.44881Z" stroke="#8620FF" stroke-opacity="0.2" stroke-width="1.36142"/>
    </g>
    <g filter="url(#filter33_f_472_9700)">
        <path d="M69.5897 5.35124C69.7128 5.04465 70.1468 5.04465 70.2699 5.35124L71.7651 9.07455C71.9374 9.50353 72.34 9.79605 72.8012 9.82732L76.8043 10.0988C77.134 10.1211 77.2681 10.5339 77.0145 10.7457L73.9355 13.3183C73.5808 13.6147 73.427 14.088 73.5398 14.5363L74.5186 18.4274C74.5992 18.7478 74.2481 19.0029 73.9683 18.8272L70.5702 16.6938C70.1786 16.448 69.681 16.448 69.2895 16.6938L65.8913 18.8272C65.6115 19.0029 65.2604 18.7478 65.341 18.4274L66.3199 14.5363C66.4326 14.088 66.2789 13.6147 65.9241 13.3183L62.8451 10.7457C62.5915 10.5339 62.7257 10.1211 63.0553 10.0988L67.0584 9.82732C67.5196 9.79605 67.9222 9.50353 68.0945 9.07455L69.5897 5.35124Z" stroke="#8620FF" stroke-opacity="0.2" stroke-width="0.837795"/>
    </g>
    <g filter="url(#filter34_f_472_9700)">
        <path d="M69.3953 5.27319C69.5888 4.7914 70.2708 4.7914 70.4643 5.27319L71.9595 8.99649C72.1018 9.35087 72.4344 9.59252 72.8154 9.61836L76.8185 9.88979C77.3365 9.92491 77.5473 10.5736 77.1488 10.9065L74.0698 13.479C73.7767 13.7239 73.6497 14.1149 73.7429 14.4852L74.7218 18.3763C74.8484 18.8798 74.2966 19.2807 73.8569 19.0046L70.4588 16.8712C70.1354 16.6682 69.7243 16.6682 69.4008 16.8712L66.0027 19.0046C65.563 19.2807 65.0112 18.8798 65.1379 18.3763L66.1167 14.4852C66.2099 14.1149 66.0829 13.7239 65.7898 13.479L62.7108 10.9065C62.3124 10.5736 62.5231 9.92491 63.0411 9.88979L67.0442 9.61836C67.4252 9.59252 67.7578 9.35087 67.9001 8.99649L69.3953 5.27319Z" stroke="white" stroke-width="0.418897"/>
    </g>
    <path d="M14.7587 49.3V52.402H17.8827V49.3H19.4447V57H17.8827V53.667H14.7587V57H13.1967V49.3H14.7587ZM21.2817 51.588C21.6264 51.4487 21.9637 51.3533 22.2937 51.302C22.6237 51.2433 22.9831 51.214 23.3717 51.214C23.9511 51.214 24.4057 51.2873 24.7357 51.434C25.0731 51.5807 25.3261 51.764 25.4947 51.984C25.6634 52.204 25.7697 52.4423 25.8137 52.699C25.8651 52.9557 25.8907 53.1903 25.8907 53.403V57H24.4277V56.164H24.4057C24.3764 56.2227 24.3251 56.307 24.2517 56.417C24.1784 56.5197 24.0721 56.6223 23.9327 56.725C23.7934 56.8203 23.6174 56.9047 23.4047 56.978C23.1921 57.0513 22.9317 57.088 22.6237 57.088C22.2644 57.088 21.9564 57.0403 21.6997 56.945C21.4431 56.8423 21.2341 56.7103 21.0727 56.549C20.9114 56.3877 20.7904 56.2043 20.7097 55.999C20.6364 55.7863 20.5997 55.57 20.5997 55.35C20.5997 55.152 20.6327 54.943 20.6987 54.723C20.7647 54.503 20.9004 54.3013 21.1057 54.118C21.3111 53.9273 21.5971 53.7733 21.9637 53.656C22.3304 53.5313 22.8181 53.469 23.4267 53.469C23.5661 53.469 23.7054 53.4727 23.8447 53.48C23.9841 53.48 24.1234 53.48 24.2627 53.48H24.3947V53.238C24.3947 53.084 24.3581 52.9447 24.2847 52.82C24.2187 52.6953 24.1271 52.5927 24.0097 52.512C23.8924 52.4313 23.7531 52.369 23.5917 52.325C23.4377 52.281 23.2764 52.259 23.1077 52.259C22.8584 52.259 22.5871 52.292 22.2937 52.358C22.0004 52.4167 21.6631 52.5523 21.2817 52.765V51.588ZM24.1417 54.415C23.9364 54.415 23.7127 54.4223 23.4707 54.437C23.2361 54.4443 23.0161 54.4773 22.8107 54.536C22.6127 54.5947 22.4477 54.6863 22.3157 54.811C22.1837 54.9357 22.1177 55.1117 22.1177 55.339C22.1177 55.5443 22.1874 55.7203 22.3267 55.867C22.4661 56.0063 22.7007 56.076 23.0307 56.076C23.1847 56.076 23.3424 56.054 23.5037 56.01C23.6651 55.966 23.8117 55.889 23.9437 55.779C24.0757 55.669 24.1821 55.515 24.2627 55.317C24.3507 55.119 24.3947 54.866 24.3947 54.558V54.415H24.1417ZM28.5974 51.302V53.117C28.5974 53.2197 28.6047 53.3223 28.6194 53.425C28.6414 53.5203 28.6854 53.6083 28.7514 53.689C28.8174 53.7623 28.909 53.8247 29.0264 53.876C29.151 53.92 29.3124 53.942 29.5103 53.942C29.679 53.942 29.866 53.931 30.0714 53.909C30.2767 53.887 30.4747 53.8503 30.6654 53.799V51.302H32.1613V57H30.6654V54.899C30.3354 54.9577 30.0457 54.998 29.7964 55.02C29.5544 55.0347 29.371 55.042 29.2464 55.042C28.7697 55.042 28.3884 54.9907 28.1024 54.888C27.8237 54.7853 27.6074 54.6533 27.4534 54.492C27.3067 54.3233 27.2113 54.1363 27.1673 53.931C27.1233 53.7257 27.1013 53.5167 27.1013 53.304V51.302H28.5974ZM33.9468 51.588C34.2915 51.4487 34.6288 51.3533 34.9588 51.302C35.2888 51.2433 35.6481 51.214 36.0368 51.214C36.6161 51.214 37.0708 51.2873 37.4008 51.434C37.7381 51.5807 37.9911 51.764 38.1598 51.984C38.3285 52.204 38.4348 52.4423 38.4788 52.699C38.5301 52.9557 38.5558 53.1903 38.5558 53.403V57H37.0928V56.164H37.0708C37.0415 56.2227 36.9901 56.307 36.9168 56.417C36.8435 56.5197 36.7371 56.6223 36.5978 56.725C36.4585 56.8203 36.2825 56.9047 36.0698 56.978C35.8571 57.0513 35.5968 57.088 35.2888 57.088C34.9295 57.088 34.6215 57.0403 34.3648 56.945C34.1081 56.8423 33.8991 56.7103 33.7378 56.549C33.5765 56.3877 33.4555 56.2043 33.3748 55.999C33.3015 55.7863 33.2648 55.57 33.2648 55.35C33.2648 55.152 33.2978 54.943 33.3638 54.723C33.4298 54.503 33.5655 54.3013 33.7708 54.118C33.9761 53.9273 34.2621 53.7733 34.6288 53.656C34.9955 53.5313 35.4831 53.469 36.0918 53.469C36.2311 53.469 36.3705 53.4727 36.5098 53.48C36.6491 53.48 36.7885 53.48 36.9278 53.48H37.0598V53.238C37.0598 53.084 37.0231 52.9447 36.9498 52.82C36.8838 52.6953 36.7921 52.5927 36.6748 52.512C36.5575 52.4313 36.4181 52.369 36.2568 52.325C36.1028 52.281 35.9415 52.259 35.7728 52.259C35.5235 52.259 35.2521 52.292 34.9588 52.358C34.6655 52.4167 34.3281 52.5523 33.9468 52.765V51.588ZM36.8068 54.415C36.6015 54.415 36.3778 54.4223 36.1358 54.437C35.9011 54.4443 35.6811 54.4773 35.4758 54.536C35.2778 54.5947 35.1128 54.6863 34.9808 54.811C34.8488 54.9357 34.7828 55.1117 34.7828 55.339C34.7828 55.5443 34.8525 55.7203 34.9918 55.867C35.1311 56.0063 35.3658 56.076 35.6958 56.076C35.8498 56.076 36.0075 56.054 36.1688 56.01C36.3301 55.966 36.4768 55.889 36.6088 55.779C36.7408 55.669 36.8471 55.515 36.9278 55.317C37.0158 55.119 37.0598 54.866 37.0598 54.558V54.415H36.8068ZM39.8669 57.088C39.7643 57.088 39.6579 57.077 39.5479 57.055C39.4379 57.0403 39.3426 57.022 39.2619 57V55.856C39.3206 55.8707 39.3793 55.8817 39.4379 55.889C39.4966 55.8963 39.5479 55.9 39.5919 55.9C39.6946 55.9 39.7899 55.867 39.8779 55.801C39.9733 55.735 40.0539 55.5883 40.1199 55.361C40.1859 55.1337 40.2373 54.8037 40.2739 54.371C40.3179 53.931 40.3399 53.3407 40.3399 52.6V51.302H44.9269V57H43.4309V52.402H41.6709V52.6C41.6709 53.5607 41.6306 54.3343 41.5499 54.921C41.4693 55.5077 41.3519 55.9623 41.1979 56.285C41.0439 56.6003 40.8533 56.813 40.6259 56.923C40.4059 57.033 40.1529 57.088 39.8669 57.088ZM46.3455 51.302H47.8415V53.15H48.9855C49.8068 53.15 50.4118 53.326 50.8005 53.678C51.1965 54.03 51.3945 54.4957 51.3945 55.075C51.3945 55.6543 51.1965 56.12 50.8005 56.472C50.4118 56.824 49.8068 57 48.9855 57H46.3455V51.302ZM49.8325 55.075C49.8325 54.7963 49.7482 54.58 49.5795 54.426C49.4108 54.272 49.1395 54.195 48.7655 54.195H47.8415V55.955H48.7655C49.1395 55.955 49.4108 55.878 49.5795 55.724C49.7482 55.57 49.8325 55.3537 49.8325 55.075ZM53.8252 51.302V53.458H56.2232V51.302H57.7192V57H56.2232V54.558H53.8252V57H52.3292V51.302H53.8252ZM60.6465 51.302V54.294L60.6025 55.317H60.6245L63.0775 51.302H64.7495V57H63.2535V54.052L63.2975 52.985H63.2645L60.7455 57H59.1505V51.302H60.6465ZM67.6718 51.302V53.887H67.7268L69.5528 51.302H71.2248L69.1128 53.997L71.5218 57H69.6408L67.7268 54.272H67.6718V57H66.1758V51.302H67.6718ZM23.5753 65.151C23.5753 64.6743 23.6487 64.2527 23.7953 63.886C23.942 63.5193 24.1437 63.215 24.4003 62.973C24.6643 62.7237 24.976 62.5367 25.3353 62.412C25.6947 62.28 26.087 62.214 26.5123 62.214C26.9377 62.214 27.33 62.28 27.6893 62.412C28.0487 62.5367 28.3567 62.7237 28.6133 62.973C28.8773 63.215 29.0827 63.5193 29.2293 63.886C29.376 64.2527 29.4493 64.6743 29.4493 65.151C29.4493 65.6277 29.376 66.0493 29.2293 66.416C29.0827 66.7827 28.8773 67.0907 28.6133 67.34C28.3567 67.582 28.0487 67.769 27.6893 67.901C27.33 68.0257 26.9377 68.088 26.5123 68.088C26.087 68.088 25.6947 68.0257 25.3353 67.901C24.976 67.769 24.6643 67.582 24.4003 67.34C24.1437 67.0907 23.942 66.7827 23.7953 66.416C23.6487 66.0493 23.5753 65.6277 23.5753 65.151ZM25.1373 65.151C25.1373 65.481 25.1777 65.7633 25.2583 65.998C25.339 66.2327 25.4453 66.427 25.5773 66.581C25.7093 66.7277 25.856 66.8377 26.0173 66.911C26.1787 66.977 26.3437 67.01 26.5123 67.01C26.6737 67.01 26.835 66.977 26.9963 66.911C27.165 66.8377 27.3153 66.7277 27.4473 66.581C27.5793 66.427 27.6857 66.2327 27.7663 65.998C27.847 65.7633 27.8873 65.481 27.8873 65.151C27.8873 64.821 27.847 64.5387 27.7663 64.304C27.6857 64.0693 27.5793 63.8787 27.4473 63.732C27.3153 63.578 27.165 63.468 26.9963 63.402C26.835 63.3287 26.6737 63.292 26.5123 63.292C26.3437 63.292 26.1787 63.3287 26.0173 63.402C25.856 63.468 25.7093 63.578 25.5773 63.732C25.4453 63.8787 25.339 64.0693 25.2583 64.304C25.1777 64.5387 25.1373 64.821 25.1373 65.151ZM34.999 62.302V63.402H33.217V68H31.721V63.402H29.939V62.302H34.999ZM40.8079 62.302V66.9H41.7429V69.485H40.3679V68H36.3419V69.485H34.9669V66.9H35.6049C35.7735 66.702 35.9055 66.5003 36.0009 66.295C36.1035 66.0897 36.1769 65.8733 36.2209 65.646C36.2722 65.4187 36.3052 65.184 36.3199 64.942C36.3345 64.6927 36.3419 64.4287 36.3419 64.15V62.302H40.8079ZM39.3119 66.9V63.402H37.6619V64.249C37.6619 64.469 37.6582 64.6927 37.6509 64.92C37.6509 65.1473 37.6289 65.371 37.5849 65.591C37.5482 65.811 37.4895 66.031 37.4089 66.251C37.3282 66.471 37.2109 66.6873 37.0569 66.9H39.3119ZM43.818 65.602C43.8253 65.7853 43.8657 65.9613 43.939 66.13C44.0123 66.2987 44.1187 66.449 44.258 66.581C44.3973 66.713 44.5697 66.8193 44.775 66.9C44.9877 66.9733 45.2333 67.01 45.512 67.01C45.842 67.01 46.1537 66.977 46.447 66.911C46.7403 66.8377 47.0227 66.7387 47.294 66.614V67.736C47.0007 67.846 46.6853 67.934 46.348 68C46.0107 68.0587 45.6697 68.088 45.325 68.088C44.8997 68.088 44.5 68.0293 44.126 67.912C43.752 67.7947 43.4257 67.615 43.147 67.373C42.8757 67.131 42.6593 66.8267 42.498 66.46C42.3367 66.0933 42.256 65.657 42.256 65.151C42.256 64.689 42.3293 64.2783 42.476 63.919C42.63 63.5523 42.8353 63.2443 43.092 62.995C43.3487 62.7383 43.6457 62.544 43.983 62.412C44.3277 62.28 44.6907 62.214 45.072 62.214C45.5047 62.214 45.8677 62.28 46.161 62.412C46.4617 62.5367 46.7073 62.698 46.898 62.896C47.096 63.094 47.2463 63.314 47.349 63.556C47.459 63.7907 47.5397 64.0217 47.591 64.249C47.6423 64.4763 47.6717 64.6817 47.679 64.865C47.6937 65.0483 47.701 65.1803 47.701 65.261V65.602H43.818ZM46.161 64.579C46.1683 64.337 46.1353 64.1317 46.062 63.963C45.996 63.7943 45.9043 63.6587 45.787 63.556C45.6697 63.446 45.5413 63.369 45.402 63.325C45.2627 63.2737 45.1233 63.248 44.984 63.248C44.8153 63.248 44.6613 63.2847 44.522 63.358C44.3827 63.424 44.2617 63.5157 44.159 63.633C44.0563 63.7503 43.972 63.8933 43.906 64.062C43.8473 64.2233 43.818 64.3957 43.818 64.579H46.161ZM48.6433 68.088C48.5406 68.088 48.4343 68.077 48.3243 68.055C48.2143 68.0403 48.119 68.022 48.0383 68V66.856C48.097 66.8707 48.1556 66.8817 48.2143 66.889C48.273 66.8963 48.3243 66.9 48.3683 66.9C48.471 66.9 48.5663 66.867 48.6543 66.801C48.7496 66.735 48.8303 66.5883 48.8963 66.361C48.9623 66.1337 49.0136 65.8037 49.0503 65.371C49.0943 64.931 49.1163 64.3407 49.1163 63.6V62.302H53.7033V68H52.2073V63.402H50.4473V63.6C50.4473 64.5607 50.407 65.3343 50.3263 65.921C50.2456 66.5077 50.1283 66.9623 49.9743 67.285C49.8203 67.6003 49.6296 67.813 49.4023 67.923C49.1823 68.033 48.9293 68.088 48.6433 68.088ZM55.4849 62.588C55.8295 62.4487 56.1669 62.3533 56.4969 62.302C56.8269 62.2433 57.1862 62.214 57.5749 62.214C58.1542 62.214 58.6089 62.2873 58.9389 62.434C59.2762 62.5807 59.5292 62.764 59.6979 62.984C59.8665 63.204 59.9729 63.4423 60.0169 63.699C60.0682 63.9557 60.0939 64.1903 60.0939 64.403V68H58.6309V67.164H58.6089C58.5795 67.2227 58.5282 67.307 58.4549 67.417C58.3815 67.5197 58.2752 67.6223 58.1359 67.725C57.9965 67.8203 57.8205 67.9047 57.6079 67.978C57.3952 68.0513 57.1349 68.088 56.8269 68.088C56.4675 68.088 56.1595 68.0403 55.9029 67.945C55.6462 67.8423 55.4372 67.7103 55.2759 67.549C55.1145 67.3877 54.9935 67.2043 54.9129 66.999C54.8395 66.7863 54.8029 66.57 54.8029 66.35C54.8029 66.152 54.8359 65.943 54.9019 65.723C54.9679 65.503 55.1035 65.3013 55.3089 65.118C55.5142 64.9273 55.8002 64.7733 56.1669 64.656C56.5335 64.5313 57.0212 64.469 57.6299 64.469C57.7692 64.469 57.9085 64.4727 58.0479 64.48C58.1872 64.48 58.3265 64.48 58.4659 64.48H58.5979V64.238C58.5979 64.084 58.5612 63.9447 58.4879 63.82C58.4219 63.6953 58.3302 63.5927 58.2129 63.512C58.0955 63.4313 57.9562 63.369 57.7949 63.325C57.6409 63.281 57.4795 63.259 57.3109 63.259C57.0615 63.259 56.7902 63.292 56.4969 63.358C56.2035 63.4167 55.8662 63.5523 55.4849 63.765V62.588ZM58.3449 65.415C58.1395 65.415 57.9159 65.4223 57.6739 65.437C57.4392 65.4443 57.2192 65.4773 57.0139 65.536C56.8159 65.5947 56.6509 65.6863 56.5189 65.811C56.3869 65.9357 56.3209 66.1117 56.3209 66.339C56.3209 66.5443 56.3905 66.7203 56.5299 66.867C56.6692 67.0063 56.9039 67.076 57.2339 67.076C57.3879 67.076 57.5455 67.054 57.7069 67.01C57.8682 66.966 58.0149 66.889 58.1469 66.779C58.2789 66.669 58.3852 66.515 58.4659 66.317C58.5539 66.119 58.5979 65.866 58.5979 65.558V65.415H58.3449Z" fill="#8620FF"/>
    <defs>
        <filter id="filter0_f_472_9700" x="12.0052" y="19.5836" width="22.75" height="22.0797" filterUnits="userSpaceOnUse" color-interpolation-filters="sRGB">
            <feFlood flood-opacity="0" result="BackgroundImageFix"/>
            <feBlend mode="normal" in="SourceGraphic" in2="BackgroundImageFix" result="shape"/>
            <feGaussianBlur stdDeviation="1.86933" result="effect1_foregroundBlur_472_9700"/>
        </filter>
        <filter id="filter1_f_472_9700" x="14.4977" y="22.076" width="17.7651" height="17.0949" filterUnits="userSpaceOnUse" color-interpolation-filters="sRGB">
            <feFlood flood-opacity="0" result="BackgroundImageFix"/>
            <feBlend mode="normal" in="SourceGraphic" in2="BackgroundImageFix" result="shape"/>
            <feGaussianBlur stdDeviation="0.62311" result="effect1_foregroundBlur_472_9700"/>
        </filter>
        <filter id="filter2_ddi_472_9700" x="14.1238" y="22.9484" width="18.5129" height="17.8426" filterUnits="userSpaceOnUse" color-interpolation-filters="sRGB">
            <feFlood flood-opacity="0" result="BackgroundImageFix"/>
            <feColorMatrix in="SourceAlpha" type="matrix" values="0 0 0 0 0 0 0 0 0 0 0 0 0 0 0 0 0 0 127 0" result="hardAlpha"/>
            <feOffset dy="1.36142"/>
            <feGaussianBlur stdDeviation="0.523622"/>
            <feColorMatrix type="matrix" values="0 0 0 0 0 0 0 0 0 0.051 0 0 0 0 0.082 0 0 0 0.5 0"/>
            <feBlend mode="multiply" in2="BackgroundImageFix" result="effect1_dropShadow_472_9700"/>
            <feColorMatrix in="SourceAlpha" type="matrix" values="0 0 0 0 0 0 0 0 0 0 0 0 0 0 0 0 0 0 127 0" result="hardAlpha"/>
            <feOffset dy="1.24622"/>
            <feGaussianBlur stdDeviation="0.810043"/>
            <feColorMatrix type="matrix" values="0 0 0 0 0.702449 0 0 0 0 0.458646 0 0 0 0 0.991667 0 0 0 0.6 0"/>
            <feBlend mode="color-dodge" in2="effect1_dropShadow_472_9700" result="effect2_dropShadow_472_9700"/>
            <feBlend mode="normal" in="SourceGraphic" in2="effect2_dropShadow_472_9700" result="shape"/>
            <feColorMatrix in="SourceAlpha" type="matrix" values="0 0 0 0 0 0 0 0 0 0 0 0 0 0 0 0 0 0 127 0" result="hardAlpha"/>
            <feOffset dx="-0.136142" dy="0.272283"/>
            <feGaussianBlur stdDeviation="0.0680708"/>
            <feComposite in2="hardAlpha" operator="arithmetic" k2="-1" k3="1"/>
            <feColorMatrix type="matrix" values="0 0 0 0 1 0 0 0 0 1 0 0 0 0 1 0 0 0 0.5 0"/>
            <feBlend mode="normal" in2="shape" result="effect3_innerShadow_472_9700"/>
        </filter>
        <filter id="filter3_f_472_9700" x="15.5344" y="23.1128" width="15.6916" height="15.0213" filterUnits="userSpaceOnUse" color-interpolation-filters="sRGB">
            <feFlood flood-opacity="0" result="BackgroundImageFix"/>
            <feBlend mode="normal" in="SourceGraphic" in2="BackgroundImageFix" result="shape"/>
            <feGaussianBlur stdDeviation="0.104724" result="effect1_foregroundBlur_472_9700"/>
        </filter>
        <filter id="filter4_f_472_9700" x="15.6043" y="23.1826" width="15.552" height="14.8817" filterUnits="userSpaceOnUse" color-interpolation-filters="sRGB">
            <feFlood flood-opacity="0" result="BackgroundImageFix"/>
            <feBlend mode="normal" in="SourceGraphic" in2="BackgroundImageFix" result="shape"/>
            <feGaussianBlur stdDeviation="0.0698162" result="effect1_foregroundBlur_472_9700"/>
        </filter>
        <filter id="filter5_f_472_9700" x="30.6251" y="19.5836" width="22.75" height="22.0797" filterUnits="userSpaceOnUse" color-interpolation-filters="sRGB">
            <feFlood flood-opacity="0" result="BackgroundImageFix"/>
            <feBlend mode="normal" in="SourceGraphic" in2="BackgroundImageFix" result="shape"/>
            <feGaussianBlur stdDeviation="1.86933" result="effect1_foregroundBlur_472_9700"/>
        </filter>
        <filter id="filter6_f_472_9700" x="33.1176" y="22.076" width="17.7651" height="17.0949" filterUnits="userSpaceOnUse" color-interpolation-filters="sRGB">
            <feFlood flood-opacity="0" result="BackgroundImageFix"/>
            <feBlend mode="normal" in="SourceGraphic" in2="BackgroundImageFix" result="shape"/>
            <feGaussianBlur stdDeviation="0.62311" result="effect1_foregroundBlur_472_9700"/>
        </filter>
        <filter id="filter7_ddi_472_9700" x="32.7437" y="22.9484" width="18.5129" height="17.8426" filterUnits="userSpaceOnUse" color-interpolation-filters="sRGB">
            <feFlood flood-opacity="0" result="BackgroundImageFix"/>
            <feColorMatrix in="SourceAlpha" type="matrix" values="0 0 0 0 0 0 0 0 0 0 0 0 0 0 0 0 0 0 127 0" result="hardAlpha"/>
            <feOffset dy="1.36142"/>
            <feGaussianBlur stdDeviation="0.523622"/>
            <feColorMatrix type="matrix" values="0 0 0 0 0 0 0 0 0 0.051 0 0 0 0 0.082 0 0 0 0.5 0"/>
            <feBlend mode="multiply" in2="BackgroundImageFix" result="effect1_dropShadow_472_9700"/>
            <feColorMatrix in="SourceAlpha" type="matrix" values="0 0 0 0 0 0 0 0 0 0 0 0 0 0 0 0 0 0 127 0" result="hardAlpha"/>
            <feOffset dy="1.24622"/>
            <feGaussianBlur stdDeviation="0.810043"/>
            <feColorMatrix type="matrix" values="0 0 0 0 0.702449 0 0 0 0 0.458646 0 0 0 0 0.991667 0 0 0 0.6 0"/>
            <feBlend mode="color-dodge" in2="effect1_dropShadow_472_9700" result="effect2_dropShadow_472_9700"/>
            <feBlend mode="normal" in="SourceGraphic" in2="effect2_dropShadow_472_9700" result="shape"/>
            <feColorMatrix in="SourceAlpha" type="matrix" values="0 0 0 0 0 0 0 0 0 0 0 0 0 0 0 0 0 0 127 0" result="hardAlpha"/>
            <feOffset dx="-0.136142" dy="0.272283"/>
            <feGaussianBlur stdDeviation="0.0680708"/>
            <feComposite in2="hardAlpha" operator="arithmetic" k2="-1" k3="1"/>
            <feColorMatrix type="matrix" values="0 0 0 0 1 0 0 0 0 1 0 0 0 0 1 0 0 0 0.5 0"/>
            <feBlend mode="normal" in2="shape" result="effect3_innerShadow_472_9700"/>
        </filter>
        <filter id="filter8_f_472_9700" x="34.1543" y="23.1128" width="15.6916" height="15.0213" filterUnits="userSpaceOnUse" color-interpolation-filters="sRGB">
            <feFlood flood-opacity="0" result="BackgroundImageFix"/>
            <feBlend mode="normal" in="SourceGraphic" in2="BackgroundImageFix" result="shape"/>
            <feGaussianBlur stdDeviation="0.104724" result="effect1_foregroundBlur_472_9700"/>
        </filter>
        <filter id="filter9_f_472_9700" x="34.2241" y="23.1826" width="15.552" height="14.8817" filterUnits="userSpaceOnUse" color-interpolation-filters="sRGB">
            <feFlood flood-opacity="0" result="BackgroundImageFix"/>
            <feBlend mode="normal" in="SourceGraphic" in2="BackgroundImageFix" result="shape"/>
            <feGaussianBlur stdDeviation="0.0698162" result="effect1_foregroundBlur_472_9700"/>
        </filter>
        <filter id="filter10_f_472_9700" x="49.245" y="19.5836" width="22.75" height="22.0797" filterUnits="userSpaceOnUse" color-interpolation-filters="sRGB">
            <feFlood flood-opacity="0" result="BackgroundImageFix"/>
            <feBlend mode="normal" in="SourceGraphic" in2="BackgroundImageFix" result="shape"/>
            <feGaussianBlur stdDeviation="1.86933" result="effect1_foregroundBlur_472_9700"/>
        </filter>
        <filter id="filter11_f_472_9700" x="51.7374" y="22.076" width="17.7651" height="17.0949" filterUnits="userSpaceOnUse" color-interpolation-filters="sRGB">
            <feFlood flood-opacity="0" result="BackgroundImageFix"/>
            <feBlend mode="normal" in="SourceGraphic" in2="BackgroundImageFix" result="shape"/>
            <feGaussianBlur stdDeviation="0.62311" result="effect1_foregroundBlur_472_9700"/>
        </filter>
        <filter id="filter12_ddi_472_9700" x="51.3636" y="22.9484" width="18.5129" height="17.8426" filterUnits="userSpaceOnUse" color-interpolation-filters="sRGB">
            <feFlood flood-opacity="0" result="BackgroundImageFix"/>
            <feColorMatrix in="SourceAlpha" type="matrix" values="0 0 0 0 0 0 0 0 0 0 0 0 0 0 0 0 0 0 127 0" result="hardAlpha"/>
            <feOffset dy="1.36142"/>
            <feGaussianBlur stdDeviation="0.523622"/>
            <feColorMatrix type="matrix" values="0 0 0 0 0 0 0 0 0 0.051 0 0 0 0 0.082 0 0 0 0.5 0"/>
            <feBlend mode="multiply" in2="BackgroundImageFix" result="effect1_dropShadow_472_9700"/>
            <feColorMatrix in="SourceAlpha" type="matrix" values="0 0 0 0 0 0 0 0 0 0 0 0 0 0 0 0 0 0 127 0" result="hardAlpha"/>
            <feOffset dy="1.24622"/>
            <feGaussianBlur stdDeviation="0.810043"/>
            <feColorMatrix type="matrix" values="0 0 0 0 0.702449 0 0 0 0 0.458646 0 0 0 0 0.991667 0 0 0 0.6 0"/>
            <feBlend mode="color-dodge" in2="effect1_dropShadow_472_9700" result="effect2_dropShadow_472_9700"/>
            <feBlend mode="normal" in="SourceGraphic" in2="effect2_dropShadow_472_9700" result="shape"/>
            <feColorMatrix in="SourceAlpha" type="matrix" values="0 0 0 0 0 0 0 0 0 0 0 0 0 0 0 0 0 0 127 0" result="hardAlpha"/>
            <feOffset dx="-0.136142" dy="0.272283"/>
            <feGaussianBlur stdDeviation="0.0680708"/>
            <feComposite in2="hardAlpha" operator="arithmetic" k2="-1" k3="1"/>
            <feColorMatrix type="matrix" values="0 0 0 0 1 0 0 0 0 1 0 0 0 0 1 0 0 0 0.5 0"/>
            <feBlend mode="normal" in2="shape" result="effect3_innerShadow_472_9700"/>
        </filter>
        <filter id="filter13_f_472_9700" x="52.7742" y="23.1128" width="15.6916" height="15.0213" filterUnits="userSpaceOnUse" color-interpolation-filters="sRGB">
            <feFlood flood-opacity="0" result="BackgroundImageFix"/>
            <feBlend mode="normal" in="SourceGraphic" in2="BackgroundImageFix" result="shape"/>
            <feGaussianBlur stdDeviation="0.104724" result="effect1_foregroundBlur_472_9700"/>
        </filter>
        <filter id="filter14_f_472_9700" x="52.844" y="23.1826" width="15.552" height="14.8817" filterUnits="userSpaceOnUse" color-interpolation-filters="sRGB">
            <feFlood flood-opacity="0" result="BackgroundImageFix"/>
            <feBlend mode="normal" in="SourceGraphic" in2="BackgroundImageFix" result="shape"/>
            <feGaussianBlur stdDeviation="0.0698162" result="effect1_foregroundBlur_472_9700"/>
        </filter>
        <filter id="filter15_f_472_9700" x="2.69518" y="0.963734" width="22.75" height="22.0797" filterUnits="userSpaceOnUse" color-interpolation-filters="sRGB">
            <feFlood flood-opacity="0" result="BackgroundImageFix"/>
            <feBlend mode="normal" in="SourceGraphic" in2="BackgroundImageFix" result="shape"/>
            <feGaussianBlur stdDeviation="1.86933" result="effect1_foregroundBlur_472_9700"/>
        </filter>
        <filter id="filter16_f_472_9700" x="5.18762" y="3.45617" width="17.7651" height="17.0949" filterUnits="userSpaceOnUse" color-interpolation-filters="sRGB">
            <feFlood flood-opacity="0" result="BackgroundImageFix"/>
            <feBlend mode="normal" in="SourceGraphic" in2="BackgroundImageFix" result="shape"/>
            <feGaussianBlur stdDeviation="0.62311" result="effect1_foregroundBlur_472_9700"/>
        </filter>
        <filter id="filter17_ddi_472_9700" x="4.81375" y="4.32853" width="18.5129" height="17.8426" filterUnits="userSpaceOnUse" color-interpolation-filters="sRGB">
            <feFlood flood-opacity="0" result="BackgroundImageFix"/>
            <feColorMatrix in="SourceAlpha" type="matrix" values="0 0 0 0 0 0 0 0 0 0 0 0 0 0 0 0 0 0 127 0" result="hardAlpha"/>
            <feOffset dy="1.36142"/>
            <feGaussianBlur stdDeviation="0.523622"/>
            <feColorMatrix type="matrix" values="0 0 0 0 0 0 0 0 0 0.051 0 0 0 0 0.082 0 0 0 0.5 0"/>
            <feBlend mode="multiply" in2="BackgroundImageFix" result="effect1_dropShadow_472_9700"/>
            <feColorMatrix in="SourceAlpha" type="matrix" values="0 0 0 0 0 0 0 0 0 0 0 0 0 0 0 0 0 0 127 0" result="hardAlpha"/>
            <feOffset dy="1.24622"/>
            <feGaussianBlur stdDeviation="0.810043"/>
            <feColorMatrix type="matrix" values="0 0 0 0 0.702449 0 0 0 0 0.458646 0 0 0 0 0.991667 0 0 0 0.6 0"/>
            <feBlend mode="color-dodge" in2="effect1_dropShadow_472_9700" result="effect2_dropShadow_472_9700"/>
            <feBlend mode="normal" in="SourceGraphic" in2="effect2_dropShadow_472_9700" result="shape"/>
            <feColorMatrix in="SourceAlpha" type="matrix" values="0 0 0 0 0 0 0 0 0 0 0 0 0 0 0 0 0 0 127 0" result="hardAlpha"/>
            <feOffset dx="-0.136142" dy="0.272283"/>
            <feGaussianBlur stdDeviation="0.0680708"/>
            <feComposite in2="hardAlpha" operator="arithmetic" k2="-1" k3="1"/>
            <feColorMatrix type="matrix" values="0 0 0 0 1 0 0 0 0 1 0 0 0 0 1 0 0 0 0.5 0"/>
            <feBlend mode="normal" in2="shape" result="effect3_innerShadow_472_9700"/>
        </filter>
        <filter id="filter18_f_472_9700" x="6.22439" y="4.49294" width="15.6916" height="15.0213" filterUnits="userSpaceOnUse" color-interpolation-filters="sRGB">
            <feFlood flood-opacity="0" result="BackgroundImageFix"/>
            <feBlend mode="normal" in="SourceGraphic" in2="BackgroundImageFix" result="shape"/>
            <feGaussianBlur stdDeviation="0.104724" result="effect1_foregroundBlur_472_9700"/>
        </filter>
        <filter id="filter19_f_472_9700" x="6.29421" y="4.56276" width="15.552" height="14.8817" filterUnits="userSpaceOnUse" color-interpolation-filters="sRGB">
            <feFlood flood-opacity="0" result="BackgroundImageFix"/>
            <feBlend mode="normal" in="SourceGraphic" in2="BackgroundImageFix" result="shape"/>
            <feGaussianBlur stdDeviation="0.0698162" result="effect1_foregroundBlur_472_9700"/>
        </filter>
        <filter id="filter20_f_472_9700" x="21.3151" y="0.963734" width="22.75" height="22.0797" filterUnits="userSpaceOnUse" color-interpolation-filters="sRGB">
            <feFlood flood-opacity="0" result="BackgroundImageFix"/>
            <feBlend mode="normal" in="SourceGraphic" in2="BackgroundImageFix" result="shape"/>
            <feGaussianBlur stdDeviation="1.86933" result="effect1_foregroundBlur_472_9700"/>
        </filter>
        <filter id="filter21_f_472_9700" x="23.8075" y="3.45617" width="17.7651" height="17.0949" filterUnits="userSpaceOnUse" color-interpolation-filters="sRGB">
            <feFlood flood-opacity="0" result="BackgroundImageFix"/>
            <feBlend mode="normal" in="SourceGraphic" in2="BackgroundImageFix" result="shape"/>
            <feGaussianBlur stdDeviation="0.62311" result="effect1_foregroundBlur_472_9700"/>
        </filter>
        <filter id="filter22_ddi_472_9700" x="23.4336" y="4.32853" width="18.5129" height="17.8426" filterUnits="userSpaceOnUse" color-interpolation-filters="sRGB">
            <feFlood flood-opacity="0" result="BackgroundImageFix"/>
            <feColorMatrix in="SourceAlpha" type="matrix" values="0 0 0 0 0 0 0 0 0 0 0 0 0 0 0 0 0 0 127 0" result="hardAlpha"/>
            <feOffset dy="1.36142"/>
            <feGaussianBlur stdDeviation="0.523622"/>
            <feColorMatrix type="matrix" values="0 0 0 0 0 0 0 0 0 0.051 0 0 0 0 0.082 0 0 0 0.5 0"/>
            <feBlend mode="multiply" in2="BackgroundImageFix" result="effect1_dropShadow_472_9700"/>
            <feColorMatrix in="SourceAlpha" type="matrix" values="0 0 0 0 0 0 0 0 0 0 0 0 0 0 0 0 0 0 127 0" result="hardAlpha"/>
            <feOffset dy="1.24622"/>
            <feGaussianBlur stdDeviation="0.810043"/>
            <feColorMatrix type="matrix" values="0 0 0 0 0.702449 0 0 0 0 0.458646 0 0 0 0 0.991667 0 0 0 0.6 0"/>
            <feBlend mode="color-dodge" in2="effect1_dropShadow_472_9700" result="effect2_dropShadow_472_9700"/>
            <feBlend mode="normal" in="SourceGraphic" in2="effect2_dropShadow_472_9700" result="shape"/>
            <feColorMatrix in="SourceAlpha" type="matrix" values="0 0 0 0 0 0 0 0 0 0 0 0 0 0 0 0 0 0 127 0" result="hardAlpha"/>
            <feOffset dx="-0.136142" dy="0.272283"/>
            <feGaussianBlur stdDeviation="0.0680708"/>
            <feComposite in2="hardAlpha" operator="arithmetic" k2="-1" k3="1"/>
            <feColorMatrix type="matrix" values="0 0 0 0 1 0 0 0 0 1 0 0 0 0 1 0 0 0 0.5 0"/>
            <feBlend mode="normal" in2="shape" result="effect3_innerShadow_472_9700"/>
        </filter>
        <filter id="filter23_f_472_9700" x="24.8443" y="4.49294" width="15.6916" height="15.0213" filterUnits="userSpaceOnUse" color-interpolation-filters="sRGB">
            <feFlood flood-opacity="0" result="BackgroundImageFix"/>
            <feBlend mode="normal" in="SourceGraphic" in2="BackgroundImageFix" result="shape"/>
            <feGaussianBlur stdDeviation="0.104724" result="effect1_foregroundBlur_472_9700"/>
        </filter>
        <filter id="filter24_f_472_9700" x="24.9141" y="4.56276" width="15.552" height="14.8817" filterUnits="userSpaceOnUse" color-interpolation-filters="sRGB">
            <feFlood flood-opacity="0" result="BackgroundImageFix"/>
            <feBlend mode="normal" in="SourceGraphic" in2="BackgroundImageFix" result="shape"/>
            <feGaussianBlur stdDeviation="0.0698162" result="effect1_foregroundBlur_472_9700"/>
        </filter>
        <filter id="filter25_f_472_9700" x="39.9349" y="0.963734" width="22.75" height="22.0797" filterUnits="userSpaceOnUse" color-interpolation-filters="sRGB">
            <feFlood flood-opacity="0" result="BackgroundImageFix"/>
            <feBlend mode="normal" in="SourceGraphic" in2="BackgroundImageFix" result="shape"/>
            <feGaussianBlur stdDeviation="1.86933" result="effect1_foregroundBlur_472_9700"/>
        </filter>
        <filter id="filter26_f_472_9700" x="42.4274" y="3.45617" width="17.7651" height="17.0949" filterUnits="userSpaceOnUse" color-interpolation-filters="sRGB">
            <feFlood flood-opacity="0" result="BackgroundImageFix"/>
            <feBlend mode="normal" in="SourceGraphic" in2="BackgroundImageFix" result="shape"/>
            <feGaussianBlur stdDeviation="0.62311" result="effect1_foregroundBlur_472_9700"/>
        </filter>
        <filter id="filter27_ddi_472_9700" x="42.0535" y="4.32853" width="18.5129" height="17.8426" filterUnits="userSpaceOnUse" color-interpolation-filters="sRGB">
            <feFlood flood-opacity="0" result="BackgroundImageFix"/>
            <feColorMatrix in="SourceAlpha" type="matrix" values="0 0 0 0 0 0 0 0 0 0 0 0 0 0 0 0 0 0 127 0" result="hardAlpha"/>
            <feOffset dy="1.36142"/>
            <feGaussianBlur stdDeviation="0.523622"/>
            <feColorMatrix type="matrix" values="0 0 0 0 0 0 0 0 0 0.051 0 0 0 0 0.082 0 0 0 0.5 0"/>
            <feBlend mode="multiply" in2="BackgroundImageFix" result="effect1_dropShadow_472_9700"/>
            <feColorMatrix in="SourceAlpha" type="matrix" values="0 0 0 0 0 0 0 0 0 0 0 0 0 0 0 0 0 0 127 0" result="hardAlpha"/>
            <feOffset dy="1.24622"/>
            <feGaussianBlur stdDeviation="0.810043"/>
            <feColorMatrix type="matrix" values="0 0 0 0 0.702449 0 0 0 0 0.458646 0 0 0 0 0.991667 0 0 0 0.6 0"/>
            <feBlend mode="color-dodge" in2="effect1_dropShadow_472_9700" result="effect2_dropShadow_472_9700"/>
            <feBlend mode="normal" in="SourceGraphic" in2="effect2_dropShadow_472_9700" result="shape"/>
            <feColorMatrix in="SourceAlpha" type="matrix" values="0 0 0 0 0 0 0 0 0 0 0 0 0 0 0 0 0 0 127 0" result="hardAlpha"/>
            <feOffset dx="-0.136142" dy="0.272283"/>
            <feGaussianBlur stdDeviation="0.0680708"/>
            <feComposite in2="hardAlpha" operator="arithmetic" k2="-1" k3="1"/>
            <feColorMatrix type="matrix" values="0 0 0 0 1 0 0 0 0 1 0 0 0 0 1 0 0 0 0.5 0"/>
            <feBlend mode="normal" in2="shape" result="effect3_innerShadow_472_9700"/>
        </filter>
        <filter id="filter28_f_472_9700" x="43.4641" y="4.49294" width="15.6916" height="15.0213" filterUnits="userSpaceOnUse" color-interpolation-filters="sRGB">
            <feFlood flood-opacity="0" result="BackgroundImageFix"/>
            <feBlend mode="normal" in="SourceGraphic" in2="BackgroundImageFix" result="shape"/>
            <feGaussianBlur stdDeviation="0.104724" result="effect1_foregroundBlur_472_9700"/>
        </filter>
        <filter id="filter29_f_472_9700" x="43.534" y="4.56276" width="15.552" height="14.8817" filterUnits="userSpaceOnUse" color-interpolation-filters="sRGB">
            <feFlood flood-opacity="0" result="BackgroundImageFix"/>
            <feBlend mode="normal" in="SourceGraphic" in2="BackgroundImageFix" result="shape"/>
            <feGaussianBlur stdDeviation="0.0698162" result="effect1_foregroundBlur_472_9700"/>
        </filter>
        <filter id="filter30_f_472_9700" x="58.5548" y="0.963734" width="22.75" height="22.0797" filterUnits="userSpaceOnUse" color-interpolation-filters="sRGB">
            <feFlood flood-opacity="0" result="BackgroundImageFix"/>
            <feBlend mode="normal" in="SourceGraphic" in2="BackgroundImageFix" result="shape"/>
            <feGaussianBlur stdDeviation="1.86933" result="effect1_foregroundBlur_472_9700"/>
        </filter>
        <filter id="filter31_f_472_9700" x="61.0472" y="3.45617" width="17.7651" height="17.0949" filterUnits="userSpaceOnUse" color-interpolation-filters="sRGB">
            <feFlood flood-opacity="0" result="BackgroundImageFix"/>
            <feBlend mode="normal" in="SourceGraphic" in2="BackgroundImageFix" result="shape"/>
            <feGaussianBlur stdDeviation="0.62311" result="effect1_foregroundBlur_472_9700"/>
        </filter>
        <filter id="filter32_ddi_472_9700" x="60.6734" y="4.32853" width="18.5129" height="17.8426" filterUnits="userSpaceOnUse" color-interpolation-filters="sRGB">
            <feFlood flood-opacity="0" result="BackgroundImageFix"/>
            <feColorMatrix in="SourceAlpha" type="matrix" values="0 0 0 0 0 0 0 0 0 0 0 0 0 0 0 0 0 0 127 0" result="hardAlpha"/>
            <feOffset dy="1.36142"/>
            <feGaussianBlur stdDeviation="0.523622"/>
            <feColorMatrix type="matrix" values="0 0 0 0 0 0 0 0 0 0.051 0 0 0 0 0.082 0 0 0 0.5 0"/>
            <feBlend mode="multiply" in2="BackgroundImageFix" result="effect1_dropShadow_472_9700"/>
            <feColorMatrix in="SourceAlpha" type="matrix" values="0 0 0 0 0 0 0 0 0 0 0 0 0 0 0 0 0 0 127 0" result="hardAlpha"/>
            <feOffset dy="1.24622"/>
            <feGaussianBlur stdDeviation="0.810043"/>
            <feColorMatrix type="matrix" values="0 0 0 0 0.702449 0 0 0 0 0.458646 0 0 0 0 0.991667 0 0 0 0.6 0"/>
            <feBlend mode="color-dodge" in2="effect1_dropShadow_472_9700" result="effect2_dropShadow_472_9700"/>
            <feBlend mode="normal" in="SourceGraphic" in2="effect2_dropShadow_472_9700" result="shape"/>
            <feColorMatrix in="SourceAlpha" type="matrix" values="0 0 0 0 0 0 0 0 0 0 0 0 0 0 0 0 0 0 127 0" result="hardAlpha"/>
            <feOffset dx="-0.136142" dy="0.272283"/>
            <feGaussianBlur stdDeviation="0.0680708"/>
            <feComposite in2="hardAlpha" operator="arithmetic" k2="-1" k3="1"/>
            <feColorMatrix type="matrix" values="0 0 0 0 1 0 0 0 0 1 0 0 0 0 1 0 0 0 0.5 0"/>
            <feBlend mode="normal" in2="shape" result="effect3_innerShadow_472_9700"/>
        </filter>
        <filter id="filter33_f_472_9700" x="62.084" y="4.49294" width="15.6916" height="15.0213" filterUnits="userSpaceOnUse" color-interpolation-filters="sRGB">
            <feFlood flood-opacity="0" result="BackgroundImageFix"/>
            <feBlend mode="normal" in="SourceGraphic" in2="BackgroundImageFix" result="shape"/>
            <feGaussianBlur stdDeviation="0.104724" result="effect1_foregroundBlur_472_9700"/>
        </filter>
        <filter id="filter34_f_472_9700" x="62.1538" y="4.56276" width="15.552" height="14.8817" filterUnits="userSpaceOnUse" color-interpolation-filters="sRGB">
            <feFlood flood-opacity="0" result="BackgroundImageFix"/>
            <feBlend mode="normal" in="SourceGraphic" in2="BackgroundImageFix" result="shape"/>
            <feGaussianBlur stdDeviation="0.0698162" result="effect1_foregroundBlur_472_9700"/>
        </filter>
    </defs>
</svg>
