<svg viewBox="0 0 92 64" fill="none" xmlns="http://www.w3.org/2000/svg">
<g style="mix-blend-mode:hard-light" filter="url(#filter0_f_472_9710)">
<path d="M16.8301 6.75754C16.8468 6.71594 16.8658 6.69997 16.8795 6.69122C16.8976 6.67964 16.9253 6.66997 16.9596 6.66997C16.9939 6.66997 17.0217 6.67964 17.0398 6.69122C17.0535 6.69997 17.0725 6.71594 17.0892 6.75754L19.483 12.7187C19.7625 13.4148 20.4159 13.8895 21.1644 13.9402L27.5734 14.3748C27.6182 14.3778 27.6392 14.391 27.6518 14.4013C27.6684 14.4149 27.6862 14.4383 27.6968 14.4709C27.7074 14.5036 27.7067 14.533 27.7013 14.5538C27.6972 14.5695 27.6879 14.5925 27.6535 14.6212L22.7239 18.7399C22.1482 19.2209 21.8986 19.989 22.0817 20.7165L23.6489 26.9462C23.6598 26.9897 23.6538 27.0138 23.6479 27.0289C23.6401 27.0489 23.6233 27.073 23.5955 27.0932C23.5678 27.1134 23.5397 27.1219 23.5182 27.1231C23.502 27.1241 23.4772 27.1223 23.4393 27.0985L17.9988 23.6829C17.3634 23.284 16.5558 23.284 15.9205 23.6829L10.48 27.0985C10.442 27.1223 10.4173 27.1241 10.4011 27.1231C10.3796 27.1219 10.3515 27.1134 10.3237 27.0932C10.296 27.073 10.2792 27.0489 10.2714 27.0289C10.2654 27.0138 10.2595 26.9897 10.2704 26.9462L11.8376 20.7165C12.0206 19.989 11.7711 19.2209 11.1954 18.7399L6.26577 14.6212C6.23136 14.5925 6.22204 14.5695 6.21795 14.5538C6.21253 14.533 6.21191 14.5036 6.22251 14.4709C6.2331 14.4383 6.25088 14.4149 6.2675 14.4013C6.28005 14.391 6.3011 14.3778 6.34583 14.3748L12.7549 13.9402C13.5034 13.8895 14.1567 13.4148 14.4363 12.7187L16.8301 6.75754Z" stroke="#0094FF" stroke-width="1.81475"/>
</g>
<g style="mix-blend-mode:hard-light" filter="url(#filter1_f_472_9710)">
<path d="M14.6954 12.8227L16.9596 7.18417L19.2239 12.8227L20.325 12.3805L19.2239 12.8227C19.5434 13.6183 20.2901 14.1608 21.1455 14.2188L27.2077 14.6298L22.5449 18.5257C21.8869 19.0754 21.6017 19.9532 21.8109 20.7846L23.2933 26.6772L18.1472 23.4464C17.4211 22.9906 16.4982 22.9906 15.772 23.4464L10.626 26.6772L12.1084 20.7846C12.3175 19.9532 12.0323 19.0754 11.3744 18.5257L6.71154 14.6298L12.7738 14.2188C13.6292 14.1608 14.3759 13.6183 14.6954 12.8227Z" stroke="#0094FF" stroke-width="2.37314"/>
</g>
<g style="mix-blend-mode:hard-light" filter="url(#filter2_ddi_472_9710)">
<path d="M16.8301 6.75754C16.8468 6.71594 16.8658 6.69997 16.8795 6.69122C16.8976 6.67964 16.9253 6.66997 16.9596 6.66997C16.9939 6.66997 17.0217 6.67964 17.0398 6.69122C17.0535 6.69997 17.0725 6.71594 17.0892 6.75754L19.483 12.7187C19.7625 13.4148 20.4159 13.8895 21.1644 13.9402L27.5734 14.3748C27.6182 14.3778 27.6392 14.391 27.6518 14.4013C27.6684 14.4149 27.6862 14.4383 27.6968 14.4709C27.7074 14.5036 27.7067 14.533 27.7013 14.5538C27.6972 14.5695 27.6879 14.5925 27.6535 14.6212L22.7239 18.7399C22.1482 19.2209 21.8986 19.989 22.0817 20.7165L23.6489 26.9462C23.6598 26.9897 23.6538 27.0138 23.6479 27.0289C23.6401 27.0489 23.6233 27.073 23.5955 27.0932C23.5678 27.1134 23.5397 27.1219 23.5182 27.1231C23.502 27.1241 23.4772 27.1223 23.4393 27.0985L17.9988 23.6829C17.3634 23.284 16.5558 23.284 15.9205 23.6829L10.48 27.0985C10.442 27.1223 10.4173 27.1241 10.4011 27.1231C10.3796 27.1219 10.3515 27.1134 10.3237 27.0932C10.296 27.073 10.2792 27.0489 10.2714 27.0289C10.2654 27.0138 10.2595 26.9897 10.2704 26.9462L11.8376 20.7165C12.0206 19.989 11.7711 19.2209 11.1954 18.7399L6.26577 14.6212C6.23136 14.5925 6.22204 14.5695 6.21795 14.5538C6.21253 14.533 6.21191 14.5036 6.22251 14.4709C6.2331 14.4383 6.25088 14.4149 6.2675 14.4013C6.28005 14.391 6.3011 14.3778 6.34583 14.3748L12.7549 13.9402C13.5034 13.8895 14.1567 13.4148 14.4363 12.7187L16.8301 6.75754Z" stroke="#00B3FF" stroke-opacity="0.2" stroke-width="1.81475"/>
</g>
<g filter="url(#filter3_f_472_9710)">
<path d="M16.5062 6.62749C16.6704 6.21881 17.2489 6.2188 17.413 6.62749L19.8068 12.5886C20.0365 13.1604 20.5732 13.5504 21.188 13.592L27.5971 14.0266C28.0365 14.0564 28.2152 14.6066 27.8773 14.889L22.9476 19.0078C22.4748 19.4029 22.2698 20.0338 22.4201 20.6314L23.9873 26.8611C24.0948 27.2882 23.6267 27.6282 23.2537 27.3941L17.8132 23.9785C17.2913 23.6508 16.6279 23.6508 16.1061 23.9785L10.6656 27.3941C10.2926 27.6282 9.82451 27.2882 9.93196 26.8611L11.4992 20.6314C11.6495 20.0338 11.4445 19.4029 10.9716 19.0078L6.04201 14.889C5.70404 14.6067 5.88282 14.0564 6.32222 14.0266L12.7313 13.592C13.3461 13.5504 13.8828 13.1604 14.1124 12.5886L16.5062 6.62749Z" stroke="#82D9FF" stroke-width="1.11677"/>
</g>
<g filter="url(#filter4_f_472_9710)">
<path d="M16.2472 6.52345C16.5051 5.88123 17.4142 5.88123 17.6721 6.52345L20.0659 12.4846C20.2556 12.9569 20.699 13.2791 21.2069 13.3135L27.6159 13.7481C28.3064 13.7949 28.5874 14.6595 28.0563 15.1033L23.1267 19.222C22.736 19.5484 22.5667 20.0696 22.6909 20.5633L24.2581 26.7929C24.4269 27.4641 23.6914 27.9985 23.1053 27.6305L17.6648 24.2149C17.2336 23.9443 16.6856 23.9443 16.2545 24.2149L10.814 27.6305C10.2279 27.9985 9.49235 27.4641 9.6612 26.7929L11.2284 20.5633C11.3526 20.0696 11.1833 19.5484 10.7926 19.222L5.863 15.1033C5.3319 14.6595 5.61284 13.7949 6.30333 13.7481L12.7124 13.3135C13.2203 13.2791 13.6636 12.9569 13.8533 12.4846L16.2472 6.52345Z" stroke="white" stroke-width="0.558385"/>
</g>
<g style="mix-blend-mode:hard-light" filter="url(#filter5_f_472_9710)">
<path d="M45.7493 6.75753C45.766 6.71592 45.785 6.69995 45.7986 6.69121C45.8168 6.67962 45.8445 6.66995 45.8788 6.66995C45.9131 6.66995 45.9409 6.67962 45.959 6.69121C45.9727 6.69995 45.9917 6.71592 46.0084 6.75753L48.4022 12.7186C48.6817 13.4148 49.3351 13.8895 50.0836 13.9402L56.4926 14.3748C56.5374 14.3778 56.5584 14.3909 56.571 14.4012C56.5876 14.4149 56.6054 14.4383 56.616 14.4709C56.6265 14.5035 56.6259 14.5329 56.6205 14.5538C56.6164 14.5695 56.6071 14.5924 56.5727 14.6212L51.6431 18.7399C51.0674 19.2209 50.8178 19.989 51.0008 20.7165L52.5681 26.9462C52.579 26.9897 52.573 27.0137 52.5671 27.0289C52.5593 27.0489 52.5425 27.073 52.5147 27.0932C52.487 27.1133 52.4588 27.1218 52.4374 27.1231C52.4212 27.1241 52.3964 27.1223 52.3585 27.0985L46.918 23.6829C46.2826 23.284 45.475 23.284 44.8397 23.6829L39.3992 27.0985C39.3612 27.1223 39.3365 27.1241 39.3203 27.1231C39.2988 27.1218 39.2707 27.1133 39.2429 27.0932C39.2152 27.073 39.1984 27.0489 39.1905 27.0289C39.1846 27.0137 39.1787 26.9897 39.1896 26.9462L40.7568 20.7165C40.9398 19.989 40.6903 19.2209 40.1146 18.7399L35.185 14.6212C35.1506 14.5924 35.1412 14.5695 35.1371 14.5538C35.1317 14.5329 35.1311 14.5035 35.1417 14.4709C35.1523 14.4383 35.1701 14.4149 35.1867 14.4012C35.1992 14.3909 35.2203 14.3778 35.265 14.3748L41.6741 13.9402C42.4226 13.8895 43.0759 13.4148 43.3555 12.7186L45.7493 6.75753Z" stroke="#0094FF" stroke-width="1.81475"/>
</g>
<g style="mix-blend-mode:hard-light" filter="url(#filter6_f_472_9710)">
<path d="M43.6146 12.8227L45.8788 7.18415L48.1431 12.8227L49.2442 12.3805L48.1431 12.8227C48.4626 13.6183 49.2093 14.1608 50.0647 14.2188L56.1269 14.6298L51.4641 18.5257C50.8061 19.0754 50.5209 19.9532 50.7301 20.7846L52.2125 26.6772L47.0664 23.4464C46.3403 22.9906 45.4173 22.9906 44.6912 23.4464L39.5452 26.6772L41.0276 20.7846C41.2367 19.9532 40.9515 19.0754 40.2936 18.5257L35.6307 14.6298L41.693 14.2188C42.5484 14.1608 43.2951 13.6183 43.6146 12.8227Z" stroke="#0094FF" stroke-width="2.37314"/>
</g>
<g style="mix-blend-mode:hard-light" filter="url(#filter7_ddi_472_9710)">
<path d="M45.7493 6.75753C45.766 6.71592 45.785 6.69995 45.7986 6.69121C45.8168 6.67962 45.8445 6.66995 45.8788 6.66995C45.9131 6.66995 45.9409 6.67962 45.959 6.69121C45.9727 6.69995 45.9917 6.71592 46.0084 6.75753L48.4022 12.7186C48.6817 13.4148 49.3351 13.8895 50.0836 13.9402L56.4926 14.3748C56.5374 14.3778 56.5584 14.3909 56.571 14.4012C56.5876 14.4149 56.6054 14.4383 56.616 14.4709C56.6265 14.5035 56.6259 14.5329 56.6205 14.5538C56.6164 14.5695 56.6071 14.5924 56.5727 14.6212L51.6431 18.7399C51.0674 19.2209 50.8178 19.989 51.0008 20.7165L52.5681 26.9462C52.579 26.9897 52.573 27.0137 52.5671 27.0289C52.5593 27.0489 52.5425 27.073 52.5147 27.0932C52.487 27.1133 52.4588 27.1218 52.4374 27.1231C52.4212 27.1241 52.3964 27.1223 52.3585 27.0985L46.918 23.6829C46.2826 23.284 45.475 23.284 44.8397 23.6829L39.3992 27.0985C39.3612 27.1223 39.3365 27.1241 39.3203 27.1231C39.2988 27.1218 39.2707 27.1133 39.2429 27.0932C39.2152 27.073 39.1984 27.0489 39.1905 27.0289C39.1846 27.0137 39.1787 26.9897 39.1896 26.9462L40.7568 20.7165C40.9398 19.989 40.6903 19.2209 40.1146 18.7399L35.185 14.6212C35.1506 14.5924 35.1412 14.5695 35.1371 14.5538C35.1317 14.5329 35.1311 14.5035 35.1417 14.4709C35.1523 14.4383 35.1701 14.4149 35.1867 14.4012C35.1992 14.3909 35.2203 14.3778 35.265 14.3748L41.6741 13.9402C42.4226 13.8895 43.0759 13.4148 43.3555 12.7186L45.7493 6.75753Z" stroke="#00B3FF" stroke-opacity="0.2" stroke-width="1.81475"/>
</g>
<g filter="url(#filter8_f_472_9710)">
<path d="M45.4254 6.62748C45.5895 6.21879 46.1681 6.21879 46.3322 6.62748L48.726 12.5886C48.9557 13.1604 49.4924 13.5503 50.1072 13.592L56.5162 14.0266C56.9556 14.0564 57.1344 14.6066 56.7965 14.889L51.8668 19.0077C51.3939 19.4029 51.189 20.0338 51.3393 20.6314L52.9065 26.861C53.014 27.2881 52.5459 27.6282 52.1729 27.394L46.7324 23.9785C46.2105 23.6508 45.5471 23.6508 45.0252 23.9785L39.5848 27.394C39.2118 27.6282 38.7437 27.2882 38.8511 26.861L40.4184 20.6314C40.5687 20.0338 40.3637 19.4028 39.8908 19.0077L34.9612 14.889C34.6232 14.6066 34.802 14.0564 35.2414 14.0266L41.6505 13.592C42.2653 13.5503 42.802 13.1604 43.0316 12.5886L45.4254 6.62748Z" stroke="#82D9FF" stroke-width="1.11677"/>
</g>
<g filter="url(#filter9_f_472_9710)">
<path d="M45.1663 6.52343C45.4242 5.88121 46.3334 5.88121 46.5913 6.52344L48.9851 12.4845C49.1748 12.9569 49.6182 13.279 50.1261 13.3135L56.5351 13.748C57.2256 13.7949 57.5066 14.6595 56.9755 15.1033L52.0458 19.222C51.6552 19.5484 51.4859 20.0696 51.61 20.5632L53.1773 26.7929C53.3461 27.4641 52.6106 27.9985 52.0244 27.6305L46.584 24.2149C46.1528 23.9442 45.6048 23.9442 45.1737 24.2149L39.7332 27.6305C39.1471 27.9985 38.4115 27.4641 38.5804 26.7929L40.1476 20.5632C40.2718 20.0696 40.1025 19.5484 39.7118 19.222L34.7822 15.1033C34.2511 14.6595 34.532 13.7949 35.2225 13.748L41.6316 13.3135C42.1395 13.279 42.5828 12.9569 42.7725 12.4845L45.1663 6.52343Z" stroke="white" stroke-width="0.558385"/>
</g>
<g style="mix-blend-mode:hard-light" filter="url(#filter10_f_472_9710)">
<path d="M74.6687 6.75753C74.6854 6.71592 74.7044 6.69995 74.7181 6.69121C74.7362 6.67962 74.764 6.66995 74.7983 6.66995C74.8326 6.66995 74.8603 6.67962 74.8784 6.69121C74.8921 6.69995 74.9111 6.71592 74.9278 6.75753L77.3216 12.7186C77.6012 13.4148 78.2545 13.8895 79.003 13.9402L85.4121 14.3748C85.4568 14.3778 85.4778 14.3909 85.4904 14.4012C85.507 14.4149 85.5248 14.4383 85.5354 14.4709C85.546 14.5035 85.5454 14.5329 85.5399 14.5538C85.5359 14.5695 85.5265 14.5924 85.4921 14.6212L80.5625 18.7399C79.9868 19.2209 79.7373 19.989 79.9203 20.7165L81.4875 26.9462C81.4984 26.9897 81.4925 27.0137 81.4865 27.0289C81.4787 27.0489 81.4619 27.073 81.4342 27.0932C81.4064 27.1133 81.3783 27.1218 81.3568 27.1231C81.3406 27.1241 81.3159 27.1223 81.2779 27.0985L75.8374 23.6829C75.2021 23.284 74.3945 23.284 73.7591 23.6829L68.3186 27.0985C68.2807 27.1223 68.2559 27.1241 68.2397 27.1231C68.2182 27.1218 68.1901 27.1133 68.1623 27.0932C68.1346 27.073 68.1178 27.0489 68.11 27.0289C68.1041 27.0137 68.0981 26.9897 68.109 26.9462L69.6762 20.7165C69.8593 19.989 69.6097 19.2209 69.034 18.7399L64.1044 14.6212C64.07 14.5924 64.0607 14.5695 64.0566 14.5538C64.0511 14.5329 64.0505 14.5035 64.0611 14.4709C64.0717 14.4383 64.0895 14.4149 64.1061 14.4012C64.1187 14.3909 64.1397 14.3778 64.1845 14.3748L70.5935 13.9402C71.342 13.8895 71.9953 13.4148 72.2749 12.7186L74.6687 6.75753Z" stroke="#0094FF" stroke-width="1.81475"/>
</g>
<g style="mix-blend-mode:hard-light" filter="url(#filter11_f_472_9710)">
<path d="M72.534 12.8227L74.7983 7.18415L77.0625 12.8227L78.1636 12.3805L77.0625 12.8227C77.382 13.6183 78.1287 14.1608 78.9841 14.2188L85.0463 14.6298L80.3835 18.5257C79.7256 19.0754 79.4404 19.9532 79.6495 20.7846L81.1319 26.6772L75.9859 23.4464C75.2597 22.9906 74.3368 22.9906 73.6107 23.4464L68.4646 26.6772L69.947 20.7846C70.1562 19.9532 69.8709 19.0754 69.213 18.5257L64.5502 14.6298L70.6124 14.2188C71.4678 14.1608 72.2145 13.6183 72.534 12.8227Z" stroke="#0094FF" stroke-width="2.37314"/>
</g>
<g style="mix-blend-mode:hard-light" filter="url(#filter12_ddi_472_9710)">
<path d="M74.6687 6.75753C74.6854 6.71592 74.7044 6.69995 74.7181 6.69121C74.7362 6.67962 74.764 6.66995 74.7983 6.66995C74.8326 6.66995 74.8603 6.67962 74.8784 6.69121C74.8921 6.69995 74.9111 6.71592 74.9278 6.75753L77.3216 12.7186C77.6012 13.4148 78.2545 13.8895 79.003 13.9402L85.4121 14.3748C85.4568 14.3778 85.4778 14.3909 85.4904 14.4012C85.507 14.4149 85.5248 14.4383 85.5354 14.4709C85.546 14.5035 85.5454 14.5329 85.5399 14.5538C85.5359 14.5695 85.5265 14.5924 85.4921 14.6212L80.5625 18.7399C79.9868 19.2209 79.7373 19.989 79.9203 20.7165L81.4875 26.9462C81.4984 26.9897 81.4925 27.0137 81.4865 27.0289C81.4787 27.0489 81.4619 27.073 81.4342 27.0932C81.4064 27.1133 81.3783 27.1218 81.3568 27.1231C81.3406 27.1241 81.3159 27.1223 81.2779 27.0985L75.8374 23.6829C75.2021 23.284 74.3945 23.284 73.7591 23.6829L68.3186 27.0985C68.2807 27.1223 68.2559 27.1241 68.2397 27.1231C68.2182 27.1218 68.1901 27.1133 68.1623 27.0932C68.1346 27.073 68.1178 27.0489 68.11 27.0289C68.1041 27.0137 68.0981 26.9897 68.109 26.9462L69.6762 20.7165C69.8593 19.989 69.6097 19.2209 69.034 18.7399L64.1044 14.6212C64.07 14.5924 64.0607 14.5695 64.0566 14.5538C64.0511 14.5329 64.0505 14.5035 64.0611 14.4709C64.0717 14.4383 64.0895 14.4149 64.1061 14.4012C64.1187 14.3909 64.1397 14.3778 64.1845 14.3748L70.5935 13.9402C71.342 13.8895 71.9953 13.4148 72.2749 12.7186L74.6687 6.75753Z" stroke="#00B3FF" stroke-opacity="0.2" stroke-width="1.81475"/>
</g>
<g filter="url(#filter13_f_472_9710)">
<path d="M74.3449 6.62748C74.509 6.21879 75.0875 6.21879 75.2517 6.62748L77.6455 12.5886C77.8751 13.1604 78.4118 13.5503 79.0266 13.592L85.4357 14.0266C85.8751 14.0564 86.0539 14.6066 85.7159 14.889L80.7863 19.0077C80.3134 19.4029 80.1084 20.0338 80.2587 20.6314L81.8259 26.861C81.9334 27.2881 81.4653 27.6282 81.0923 27.394L75.6518 23.9785C75.1299 23.6508 74.4666 23.6508 73.9447 23.9785L68.5042 27.394C68.1312 27.6282 67.6631 27.2882 67.7706 26.861L69.3378 20.6314C69.4881 20.0338 69.2831 19.4028 68.8102 19.0077L63.8806 14.889C63.5427 14.6066 63.7214 14.0564 64.1608 14.0266L70.5699 13.592C71.1847 13.5503 71.7214 13.1604 71.951 12.5886L74.3449 6.62748Z" stroke="#82D9FF" stroke-width="1.11677"/>
</g>
<g filter="url(#filter14_f_472_9710)">
<path d="M74.0858 6.52343C74.3437 5.88121 75.2528 5.88121 75.5107 6.52344L77.9046 12.4845C78.0942 12.9569 78.5376 13.279 79.0455 13.3135L85.4546 13.748C86.145 13.7949 86.426 14.6595 85.8949 15.1033L80.9653 19.222C80.5746 19.5484 80.4053 20.0696 80.5295 20.5632L82.0967 26.7929C82.2655 27.4641 81.53 27.9985 80.9439 27.6305L75.5034 24.2149C75.0723 23.9442 74.5243 23.9442 74.0931 24.2149L68.6526 27.6305C68.0665 27.9985 67.331 27.4641 67.4998 26.7929L69.067 20.5632C69.1912 20.0696 69.0219 19.5484 68.6312 19.222L63.7016 15.1033C63.1705 14.6595 63.4515 13.7949 64.142 13.748L70.551 13.3135C71.0589 13.279 71.5023 12.9569 71.692 12.4845L74.0858 6.52343Z" stroke="white" stroke-width="0.558385"/>
</g>
<path d="M12.5152 42.2193V49.9193H10.9532V43.4843H7.90622V49.9193H6.34422V42.2193H12.5152ZM15.2341 47.5213C15.2414 47.7046 15.2818 47.8806 15.3551 48.0493C15.4284 48.2179 15.5348 48.3683 15.6741 48.5003C15.8134 48.6323 15.9858 48.7386 16.1911 48.8193C16.4038 48.8926 16.6494 48.9293 16.9281 48.9293C17.2581 48.9293 17.5698 48.8963 17.8631 48.8303C18.1564 48.7569 18.4388 48.6579 18.7101 48.5333V49.6553C18.4168 49.7653 18.1014 49.8533 17.7641 49.9193C17.4268 49.9779 17.0858 50.0073 16.7411 50.0073C16.3158 50.0073 15.9161 49.9486 15.5421 49.8313C15.1681 49.7139 14.8418 49.5343 14.5631 49.2923C14.2918 49.0503 14.0754 48.7459 13.9141 48.3793C13.7528 48.0126 13.6721 47.5763 13.6721 47.0703C13.6721 46.6083 13.7454 46.1976 13.8921 45.8383C14.0461 45.4716 14.2514 45.1636 14.5081 44.9143C14.7648 44.6576 15.0618 44.4633 15.3991 44.3313C15.7438 44.1993 16.1068 44.1333 16.4881 44.1333C16.9208 44.1333 17.2838 44.1993 17.5771 44.3313C17.8778 44.4559 18.1234 44.6173 18.3141 44.8153C18.5121 45.0133 18.6624 45.2333 18.7651 45.4753C18.8751 45.7099 18.9558 45.9409 19.0071 46.1683C19.0584 46.3956 19.0878 46.6009 19.0951 46.7843C19.1098 46.9676 19.1171 47.0996 19.1171 47.1803V47.5213H15.2341ZM17.5771 46.4983C17.5844 46.2563 17.5514 46.0509 17.4781 45.8823C17.4121 45.7136 17.3204 45.5779 17.2031 45.4753C17.0858 45.3653 16.9574 45.2883 16.8181 45.2443C16.6788 45.1929 16.5394 45.1673 16.4001 45.1673C16.2314 45.1673 16.0774 45.2039 15.9381 45.2773C15.7988 45.3433 15.6778 45.4349 15.5751 45.5523C15.4724 45.6696 15.3881 45.8126 15.3221 45.9813C15.2634 46.1426 15.2341 46.3149 15.2341 46.4983H17.5771ZM20.2218 52.2733V44.2213H21.5308V45.2113H21.5528C21.6995 44.9546 21.8645 44.7529 22.0478 44.6063C22.2385 44.4596 22.4255 44.3533 22.6088 44.2873C22.7922 44.2139 22.9572 44.1699 23.1038 44.1553C23.2505 44.1406 23.3532 44.1333 23.4118 44.1333C23.7345 44.1333 24.0388 44.1883 24.3248 44.2983C24.6182 44.4009 24.8748 44.5733 25.0948 44.8153C25.3148 45.0499 25.4872 45.3543 25.6118 45.7283C25.7438 46.0949 25.8098 46.5423 25.8098 47.0703C25.8098 47.5983 25.7402 48.0493 25.6008 48.4233C25.4615 48.7899 25.2745 49.0906 25.0398 49.3253C24.8125 49.5599 24.5485 49.7323 24.2478 49.8423C23.9545 49.9523 23.6538 50.0073 23.3458 50.0073C22.9278 50.0073 22.5868 49.9229 22.3228 49.7543C22.0662 49.5856 21.8608 49.3839 21.7068 49.1493H21.6848L21.7178 50.0843V52.2733H20.2218ZM21.7178 47.0703C21.7178 47.3709 21.7545 47.6313 21.8278 47.8513C21.9012 48.0713 21.9965 48.2546 22.1138 48.4013C22.2385 48.5406 22.3742 48.6469 22.5208 48.7203C22.6748 48.7863 22.8288 48.8193 22.9828 48.8193C23.1368 48.8193 23.2872 48.7863 23.4338 48.7203C23.5878 48.6469 23.7235 48.5406 23.8408 48.4013C23.9655 48.2546 24.0645 48.0713 24.1378 47.8513C24.2112 47.6313 24.2478 47.3709 24.2478 47.0703C24.2478 46.7696 24.2112 46.5093 24.1378 46.2893C24.0645 46.0693 23.9655 45.8896 23.8408 45.7503C23.7235 45.6036 23.5878 45.4973 23.4338 45.4313C23.2872 45.3579 23.1368 45.3213 22.9828 45.3213C22.8288 45.3213 22.6748 45.3579 22.5208 45.4313C22.3742 45.4973 22.2385 45.6036 22.1138 45.7503C21.9965 45.8896 21.9012 46.0693 21.8278 46.2893C21.7545 46.5093 21.7178 46.7696 21.7178 47.0703ZM29.5542 50.0073C29.0482 50.0073 28.6082 49.9229 28.2342 49.7543C27.8602 49.5856 27.5486 49.3619 27.2992 49.0833C27.0572 48.7973 26.8776 48.4746 26.7602 48.1153C26.6429 47.7559 26.5842 47.3893 26.5842 47.0153C26.5842 46.6339 26.6502 46.2709 26.7822 45.9263C26.9142 45.5743 27.1086 45.2663 27.3652 45.0023C27.6219 44.7383 27.9409 44.5293 28.3222 44.3753C28.7109 44.2139 29.1582 44.1333 29.6642 44.1333C29.8549 44.1333 30.0602 44.1443 30.2802 44.1663C30.5002 44.1883 30.7166 44.2286 30.9292 44.2873V45.3983C30.7899 45.3396 30.6396 45.2956 30.4782 45.2663C30.3242 45.2296 30.1372 45.2113 29.9172 45.2113C29.6679 45.2113 29.4332 45.2553 29.2132 45.3433C29.0006 45.4313 28.8136 45.5596 28.6522 45.7283C28.4982 45.8896 28.3736 46.0876 28.2782 46.3223C28.1902 46.5496 28.1462 46.8063 28.1462 47.0923C28.1462 47.3489 28.1829 47.5909 28.2562 47.8183C28.3369 48.0383 28.4469 48.2326 28.5862 48.4013C28.7329 48.5626 28.9089 48.6909 29.1142 48.7863C29.3196 48.8816 29.5542 48.9293 29.8182 48.9293C30.2216 48.9293 30.6212 48.8449 31.0172 48.6763V49.7873C30.8779 49.8313 30.6799 49.8789 30.4232 49.9303C30.1739 49.9816 29.8842 50.0073 29.5542 50.0073ZM31.676 47.0703C31.676 46.5936 31.7493 46.1719 31.896 45.8053C32.0427 45.4386 32.2443 45.1343 32.501 44.8923C32.765 44.6429 33.0767 44.4559 33.436 44.3313C33.7953 44.1993 34.1877 44.1333 34.613 44.1333C35.0383 44.1333 35.4307 44.1993 35.79 44.3313C36.1493 44.4559 36.4573 44.6429 36.714 44.8923C36.978 45.1343 37.1833 45.4386 37.33 45.8053C37.4767 46.1719 37.55 46.5936 37.55 47.0703C37.55 47.5469 37.4767 47.9686 37.33 48.3353C37.1833 48.7019 36.978 49.0099 36.714 49.2593C36.4573 49.5013 36.1493 49.6883 35.79 49.8203C35.4307 49.9449 35.0383 50.0073 34.613 50.0073C34.1877 50.0073 33.7953 49.9449 33.436 49.8203C33.0767 49.6883 32.765 49.5013 32.501 49.2593C32.2443 49.0099 32.0427 48.7019 31.896 48.3353C31.7493 47.9686 31.676 47.5469 31.676 47.0703ZM33.238 47.0703C33.238 47.4003 33.2783 47.6826 33.359 47.9173C33.4397 48.1519 33.546 48.3463 33.678 48.5003C33.81 48.6469 33.9567 48.7569 34.118 48.8303C34.2793 48.8963 34.4443 48.9293 34.613 48.9293C34.7743 48.9293 34.9357 48.8963 35.097 48.8303C35.2657 48.7569 35.416 48.6469 35.548 48.5003C35.68 48.3463 35.7863 48.1519 35.867 47.9173C35.9477 47.6826 35.988 47.4003 35.988 47.0703C35.988 46.7403 35.9477 46.4579 35.867 46.2233C35.7863 45.9886 35.68 45.7979 35.548 45.6513C35.416 45.4973 35.2657 45.3873 35.097 45.3213C34.9357 45.2479 34.7743 45.2113 34.613 45.2113C34.4443 45.2113 34.2793 45.2479 34.118 45.3213C33.9567 45.3873 33.81 45.4973 33.678 45.6513C33.546 45.7979 33.4397 45.9886 33.359 46.2233C33.2783 46.4579 33.238 46.7403 33.238 47.0703ZM40.1407 44.2213V46.3773H42.5387V44.2213H44.0347V49.9193H42.5387V47.4773H40.1407V49.9193H38.6447V44.2213H40.1407ZM45.818 44.5073C46.1626 44.3679 46.5 44.2726 46.83 44.2213C47.16 44.1626 47.5193 44.1333 47.908 44.1333C48.4873 44.1333 48.942 44.2066 49.272 44.3533C49.6093 44.4999 49.8623 44.6833 50.031 44.9033C50.1996 45.1233 50.306 45.3616 50.35 45.6183C50.4013 45.8749 50.427 46.1096 50.427 46.3223V49.9193H48.964V49.0833H48.942C48.9126 49.1419 48.8613 49.2263 48.788 49.3363C48.7146 49.4389 48.6083 49.5416 48.469 49.6443C48.3296 49.7396 48.1536 49.8239 47.941 49.8973C47.7283 49.9706 47.468 50.0073 47.16 50.0073C46.8006 50.0073 46.4926 49.9596 46.236 49.8643C45.9793 49.7616 45.7703 49.6296 45.609 49.4683C45.4476 49.3069 45.3266 49.1236 45.246 48.9183C45.1726 48.7056 45.136 48.4893 45.136 48.2693C45.136 48.0713 45.169 47.8623 45.235 47.6423C45.301 47.4223 45.4366 47.2206 45.642 47.0373C45.8473 46.8466 46.1333 46.6926 46.5 46.5753C46.8666 46.4506 47.3543 46.3883 47.963 46.3883C48.1023 46.3883 48.2416 46.3919 48.381 46.3993C48.5203 46.3993 48.6596 46.3993 48.799 46.3993H48.931V46.1573C48.931 46.0033 48.8943 45.8639 48.821 45.7393C48.755 45.6146 48.6633 45.5119 48.546 45.4313C48.4286 45.3506 48.2893 45.2883 48.128 45.2443C47.974 45.2003 47.8126 45.1783 47.644 45.1783C47.3946 45.1783 47.1233 45.2113 46.83 45.2773C46.5366 45.3359 46.1993 45.4716 45.818 45.6843V44.5073ZM48.678 47.3343C48.4726 47.3343 48.249 47.3416 48.007 47.3563C47.7723 47.3636 47.5523 47.3966 47.347 47.4553C47.149 47.5139 46.984 47.6056 46.852 47.7303C46.72 47.8549 46.654 48.0309 46.654 48.2583C46.654 48.4636 46.7236 48.6396 46.863 48.7863C47.0023 48.9256 47.237 48.9953 47.567 48.9953C47.721 48.9953 47.8786 48.9733 48.04 48.9293C48.2013 48.8853 48.348 48.8083 48.48 48.6983C48.612 48.5883 48.7183 48.4343 48.799 48.2363C48.887 48.0383 48.931 47.7853 48.931 47.4773V47.3343H48.678ZM51.7381 50.0073C51.6355 50.0073 51.5291 49.9963 51.4191 49.9743C51.3091 49.9596 51.2138 49.9413 51.1331 49.9193V48.7753C51.1918 48.7899 51.2505 48.8009 51.3091 48.8083C51.3678 48.8156 51.4191 48.8193 51.4631 48.8193C51.5658 48.8193 51.6611 48.7863 51.7491 48.7203C51.8445 48.6543 51.9251 48.5076 51.9911 48.2803C52.0571 48.0529 52.1085 47.7229 52.1451 47.2903C52.1891 46.8503 52.2111 46.2599 52.2111 45.5193V44.2213H56.7981V49.9193H55.3021V45.3213H53.5421V45.5193C53.5421 46.4799 53.5018 47.2536 53.4211 47.8403C53.3405 48.4269 53.2231 48.8816 53.0691 49.2043C52.9151 49.5196 52.7245 49.7323 52.4971 49.8423C52.2771 49.9523 52.0241 50.0073 51.7381 50.0073ZM58.2167 44.2213H59.7127V46.0693H60.8567C61.678 46.0693 62.283 46.2453 62.6717 46.5973C63.0677 46.9493 63.2657 47.4149 63.2657 47.9943C63.2657 48.5736 63.0677 49.0393 62.6717 49.3913C62.283 49.7433 61.678 49.9193 60.8567 49.9193H58.2167V44.2213ZM61.7037 47.9943C61.7037 47.7156 61.6194 47.4993 61.4507 47.3453C61.282 47.1913 61.0107 47.1143 60.6367 47.1143H59.7127V48.8743H60.6367C61.0107 48.8743 61.282 48.7973 61.4507 48.6433C61.6194 48.4893 61.7037 48.2729 61.7037 47.9943ZM65.6964 44.2213V46.3773H68.0944V44.2213H69.5904V49.9193H68.0944V47.4773H65.6964V49.9193H64.2004V44.2213H65.6964ZM71.0106 44.2213H72.5066V46.0693H73.6506C74.472 46.0693 75.077 46.2453 75.4656 46.5973C75.8616 46.9493 76.0596 47.4149 76.0596 47.9943C76.0596 48.5736 75.8616 49.0393 75.4656 49.3913C75.077 49.7433 74.472 49.9193 73.6506 49.9193H71.0106V44.2213ZM74.4976 47.9943C74.4976 47.7156 74.4133 47.4993 74.2446 47.3453C74.076 47.1913 73.8046 47.1143 73.4306 47.1143H72.5066V48.8743H73.4306C73.8046 48.8743 74.076 48.7973 74.2446 48.6433C74.4133 48.4893 74.4976 48.2729 74.4976 47.9943ZM76.9506 44.2213H78.4466V49.9193H76.9506V44.2213ZM81.3692 44.2213V47.2133L81.3252 48.2363H81.3472L83.8002 44.2213H85.4722V49.9193H83.9762V46.9713L84.0202 45.9043H83.9872L81.4682 49.9193H79.8732V44.2213H81.3692ZM82.6672 43.5393C82.4692 43.5393 82.2749 43.5136 82.0842 43.4623C81.9009 43.4109 81.7359 43.3303 81.5892 43.2203C81.4425 43.1029 81.3215 42.9526 81.2262 42.7693C81.1382 42.5786 81.0869 42.3513 81.0722 42.0873L82.0072 41.9993C82.0365 42.2559 82.0989 42.4393 82.1942 42.5493C82.2969 42.6593 82.4545 42.7143 82.6672 42.7143C82.8799 42.7143 83.0339 42.6593 83.1292 42.5493C83.2319 42.4393 83.2979 42.2559 83.3272 41.9993L84.2622 42.0873C84.2475 42.3513 84.1925 42.5786 84.0972 42.7693C84.0092 42.9526 83.8919 43.1029 83.7452 43.2203C83.5985 43.3303 83.4299 43.4109 83.2392 43.4623C83.0559 43.5136 82.8652 43.5393 82.6672 43.5393ZM18.6051 55.2213H20.7831L22.0481 58.3013L23.3131 55.2213H25.4251V60.9193H23.9291V56.7613H23.9071L22.7631 59.5113H21.2671L20.1231 56.7613H20.1011V60.9193H18.6051V55.2213ZM28.0871 58.5213C28.0945 58.7046 28.1348 58.8806 28.2081 59.0493C28.2815 59.2179 28.3878 59.3683 28.5271 59.5003C28.6665 59.6323 28.8388 59.7386 29.0441 59.8193C29.2568 59.8926 29.5025 59.9293 29.7811 59.9293C30.1111 59.9293 30.4228 59.8963 30.7161 59.8303C31.0095 59.7569 31.2918 59.6579 31.5631 59.5333V60.6553C31.2698 60.7653 30.9545 60.8533 30.6171 60.9193C30.2798 60.9779 29.9388 61.0073 29.5941 61.0073C29.1688 61.0073 28.7691 60.9486 28.3951 60.8313C28.0211 60.7139 27.6948 60.5343 27.4161 60.2923C27.1448 60.0503 26.9285 59.7459 26.7671 59.3793C26.6058 59.0126 26.5251 58.5763 26.5251 58.0703C26.5251 57.6083 26.5985 57.1976 26.7451 56.8383C26.8991 56.4716 27.1045 56.1636 27.3611 55.9143C27.6178 55.6576 27.9148 55.4633 28.2521 55.3313C28.5968 55.1993 28.9598 55.1333 29.3411 55.1333C29.7738 55.1333 30.1368 55.1993 30.4301 55.3313C30.7308 55.4559 30.9765 55.6173 31.1671 55.8153C31.3651 56.0133 31.5155 56.2333 31.6181 56.4753C31.7281 56.7099 31.8088 56.9409 31.8601 57.1683C31.9115 57.3956 31.9408 57.6009 31.9481 57.7843C31.9628 57.9676 31.9701 58.0996 31.9701 58.1803V58.5213H28.0871ZM30.4301 57.4983C30.4375 57.2563 30.4045 57.0509 30.3311 56.8823C30.2651 56.7136 30.1735 56.5779 30.0561 56.4753C29.9388 56.3653 29.8105 56.2883 29.6711 56.2443C29.5318 56.1929 29.3925 56.1673 29.2531 56.1673C29.0845 56.1673 28.9305 56.2039 28.7911 56.2773C28.6518 56.3433 28.5308 56.4349 28.4281 56.5523C28.3255 56.6696 28.2411 56.8126 28.1751 56.9813C28.1165 57.1426 28.0871 57.3149 28.0871 57.4983H30.4301ZM34.5709 55.2213V57.3773H36.9689V55.2213H38.4649V60.9193H36.9689V58.4773H34.5709V60.9193H33.0749V55.2213H34.5709ZM41.1282 58.5213C41.1355 58.7046 41.1758 58.8806 41.2492 59.0493C41.3225 59.2179 41.4288 59.3683 41.5682 59.5003C41.7075 59.6323 41.8798 59.7386 42.0852 59.8193C42.2978 59.8926 42.5435 59.9293 42.8222 59.9293C43.1522 59.9293 43.4638 59.8963 43.7572 59.8303C44.0505 59.7569 44.3328 59.6579 44.6042 59.5333V60.6553C44.3108 60.7653 43.9955 60.8533 43.6582 60.9193C43.3208 60.9779 42.9798 61.0073 42.6352 61.0073C42.2098 61.0073 41.8102 60.9486 41.4362 60.8313C41.0622 60.7139 40.7358 60.5343 40.4572 60.2923C40.1858 60.0503 39.9695 59.7459 39.8082 59.3793C39.6468 59.0126 39.5662 58.5763 39.5662 58.0703C39.5662 57.6083 39.6395 57.1976 39.7862 56.8383C39.9402 56.4716 40.1455 56.1636 40.4022 55.9143C40.6588 55.6576 40.9558 55.4633 41.2932 55.3313C41.6378 55.1993 42.0008 55.1333 42.3822 55.1333C42.8148 55.1333 43.1778 55.1993 43.4712 55.3313C43.7718 55.4559 44.0175 55.6173 44.2082 55.8153C44.4062 56.0133 44.5565 56.2333 44.6592 56.4753C44.7692 56.7099 44.8498 56.9409 44.9012 57.1683C44.9525 57.3956 44.9818 57.6009 44.9892 57.7843C45.0038 57.9676 45.0112 58.0996 45.0112 58.1803V58.5213H41.1282ZM43.4712 57.4983C43.4785 57.2563 43.4455 57.0509 43.3722 56.8823C43.3062 56.7136 43.2145 56.5779 43.0972 56.4753C42.9798 56.3653 42.8515 56.2883 42.7122 56.2443C42.5728 56.1929 42.4335 56.1673 42.2942 56.1673C42.1255 56.1673 41.9715 56.2039 41.8322 56.2773C41.6928 56.3433 41.5718 56.4349 41.4692 56.5523C41.3665 56.6696 41.2822 56.8126 41.2162 56.9813C41.1575 57.1426 41.1282 57.3149 41.1282 57.4983H43.4712ZM51.3739 55.2213V59.8193H52.3089V62.4043H50.9339V60.9193H46.9079V62.4043H45.5329V59.8193H46.1709C46.3395 59.6213 46.4715 59.4196 46.5669 59.2143C46.6695 59.0089 46.7429 58.7926 46.7869 58.5653C46.8382 58.3379 46.8712 58.1033 46.8859 57.8613C46.9005 57.6119 46.9079 57.3479 46.9079 57.0693V55.2213H51.3739ZM49.8779 59.8193V56.3213H48.2279V57.1683C48.2279 57.3883 48.2242 57.6119 48.2169 57.8393C48.2169 58.0666 48.1949 58.2903 48.1509 58.5103C48.1142 58.7303 48.0555 58.9503 47.9749 59.1703C47.8942 59.3903 47.7769 59.6066 47.6229 59.8193H49.8779ZM57.64 55.2213V57.7623H57.695L59.4 55.2213H61.105L59.092 57.8283L61.292 60.9193H59.4L57.695 58.1583H57.64V60.9193H56.144V58.1583H56.089L54.384 60.9193H52.492L54.692 57.8283L52.679 55.2213H54.384L56.089 57.7623H56.144V55.2213H57.64ZM62.9026 58.5213C62.9099 58.7046 62.9502 58.8806 63.0236 59.0493C63.0969 59.2179 63.2032 59.3683 63.3426 59.5003C63.4819 59.6323 63.6542 59.7386 63.8596 59.8193C64.0722 59.8926 64.3179 59.9293 64.5966 59.9293C64.9266 59.9293 65.2382 59.8963 65.5316 59.8303C65.8249 59.7569 66.1072 59.6579 66.3786 59.5333V60.6553C66.0852 60.7653 65.7699 60.8533 65.4326 60.9193C65.0952 60.9779 64.7542 61.0073 64.4096 61.0073C63.9842 61.0073 63.5846 60.9486 63.2106 60.8313C62.8366 60.7139 62.5102 60.5343 62.2316 60.2923C61.9602 60.0503 61.7439 59.7459 61.5826 59.3793C61.4212 59.0126 61.3406 58.5763 61.3406 58.0703C61.3406 57.6083 61.4139 57.1976 61.5606 56.8383C61.7146 56.4716 61.9199 56.1636 62.1766 55.9143C62.4332 55.6576 62.7302 55.4633 63.0676 55.3313C63.4122 55.1993 63.7752 55.1333 64.1566 55.1333C64.5892 55.1333 64.9522 55.1993 65.2456 55.3313C65.5462 55.4559 65.7919 55.6173 65.9826 55.8153C66.1806 56.0133 66.3309 56.2333 66.4336 56.4753C66.5436 56.7099 66.6242 56.9409 66.6756 57.1683C66.7269 57.3956 66.7562 57.6009 66.7636 57.7843C66.7782 57.9676 66.7856 58.0996 66.7856 58.1803V58.5213H62.9026ZM65.2456 57.4983C65.2529 57.2563 65.2199 57.0509 65.1466 56.8823C65.0806 56.7136 64.9889 56.5779 64.8716 56.4753C64.7542 56.3653 64.6259 56.2883 64.4866 56.2443C64.3472 56.1929 64.2079 56.1673 64.0686 56.1673C63.8999 56.1673 63.7459 56.2039 63.6066 56.2773C63.4672 56.3433 63.3462 56.4349 63.2436 56.5523C63.1409 56.6696 63.0566 56.8126 62.9906 56.9813C62.9319 57.1426 62.9026 57.3149 62.9026 57.4983H65.2456ZM67.8903 63.2733V55.2213H69.1993V56.2113H69.2213C69.368 55.9546 69.533 55.7529 69.7163 55.6063C69.907 55.4596 70.094 55.3533 70.2773 55.2873C70.4606 55.2139 70.6256 55.1699 70.7723 55.1553C70.919 55.1406 71.0216 55.1333 71.0803 55.1333C71.403 55.1333 71.7073 55.1883 71.9933 55.2983C72.2866 55.4009 72.5433 55.5733 72.7633 55.8153C72.9833 56.0499 73.1556 56.3543 73.2803 56.7283C73.4123 57.0949 73.4783 57.5423 73.4783 58.0703C73.4783 58.5983 73.4086 59.0493 73.2693 59.4233C73.13 59.7899 72.943 60.0906 72.7083 60.3253C72.481 60.5599 72.217 60.7323 71.9163 60.8423C71.623 60.9523 71.3223 61.0073 71.0143 61.0073C70.5963 61.0073 70.2553 60.9229 69.9913 60.7543C69.7346 60.5856 69.5293 60.3839 69.3753 60.1493H69.3533L69.3863 61.0843V63.2733H67.8903ZM69.3863 58.0703C69.3863 58.3709 69.423 58.6313 69.4963 58.8513C69.5696 59.0713 69.665 59.2546 69.7823 59.4013C69.907 59.5406 70.0426 59.6469 70.1893 59.7203C70.3433 59.7863 70.4973 59.8193 70.6513 59.8193C70.8053 59.8193 70.9556 59.7863 71.1023 59.7203C71.2563 59.6469 71.392 59.5406 71.5093 59.4013C71.634 59.2546 71.733 59.0713 71.8063 58.8513C71.8796 58.6313 71.9163 58.3709 71.9163 58.0703C71.9163 57.7696 71.8796 57.5093 71.8063 57.2893C71.733 57.0693 71.634 56.8896 71.5093 56.7503C71.392 56.6036 71.2563 56.4973 71.1023 56.4313C70.9556 56.3579 70.8053 56.3213 70.6513 56.3213C70.4973 56.3213 70.3433 56.3579 70.1893 56.4313C70.0426 56.4973 69.907 56.6036 69.7823 56.7503C69.665 56.8896 69.5696 57.0693 69.4963 57.2893C69.423 57.5093 69.3863 57.7696 69.3863 58.0703Z" fill="#0094FF"/>
<defs>
<filter id="filter0_f_472_9710" x="0.32305" y="0.779" width="33.2731" height="32.2353" filterUnits="userSpaceOnUse" color-interpolation-filters="sRGB">
<feFlood flood-opacity="0" result="BackgroundImageFix"/>
<feBlend mode="normal" in="SourceGraphic" in2="BackgroundImageFix" result="shape"/>
<feGaussianBlur stdDeviation="2.4918" result="effect1_foregroundBlur_472_9710"/>
</filter>
<filter id="filter1_f_472_9710" x="3.64544" y="4.10139" width="26.6283" height="25.5905" filterUnits="userSpaceOnUse" color-interpolation-filters="sRGB">
<feFlood flood-opacity="0" result="BackgroundImageFix"/>
<feBlend mode="normal" in="SourceGraphic" in2="BackgroundImageFix" result="shape"/>
<feGaussianBlur stdDeviation="0.830598" result="effect1_foregroundBlur_472_9710"/>
</filter>
<filter id="filter2_ddi_472_9710" x="3.14708" y="5.26423" width="27.625" height="26.5872" filterUnits="userSpaceOnUse" color-interpolation-filters="sRGB">
<feFlood flood-opacity="0" result="BackgroundImageFix"/>
<feColorMatrix in="SourceAlpha" type="matrix" values="0 0 0 0 0 0 0 0 0 0 0 0 0 0 0 0 0 0 127 0" result="hardAlpha"/>
<feOffset dy="1.81475"/>
<feGaussianBlur stdDeviation="0.697982"/>
<feColorMatrix type="matrix" values="0 0 0 0 0 0 0 0 0 0.051 0 0 0 0 0.082 0 0 0 0.7 0"/>
<feBlend mode="multiply" in2="BackgroundImageFix" result="effect1_dropShadow_472_9710"/>
<feColorMatrix in="SourceAlpha" type="matrix" values="0 0 0 0 0 0 0 0 0 0 0 0 0 0 0 0 0 0 127 0" result="hardAlpha"/>
<feOffset dy="1.6612"/>
<feGaussianBlur stdDeviation="1.07978"/>
<feColorMatrix type="matrix" values="0 0 0 0 0 0 0 0 0 0.4 0 0 0 0 1 0 0 0 1 0"/>
<feBlend mode="color-dodge" in2="effect1_dropShadow_472_9710" result="effect2_dropShadow_472_9710"/>
<feBlend mode="normal" in="SourceGraphic" in2="effect2_dropShadow_472_9710" result="shape"/>
<feColorMatrix in="SourceAlpha" type="matrix" values="0 0 0 0 0 0 0 0 0 0 0 0 0 0 0 0 0 0 127 0" result="hardAlpha"/>
<feOffset dx="-0.181475" dy="0.362951"/>
<feGaussianBlur stdDeviation="0.0907376"/>
<feComposite in2="hardAlpha" operator="arithmetic" k2="-1" k3="1"/>
<feColorMatrix type="matrix" values="0 0 0 0 1 0 0 0 0 1 0 0 0 0 1 0 0 0 0.5 0"/>
<feBlend mode="normal" in2="shape" result="effect3_innerShadow_472_9710"/>
</filter>
<filter id="filter3_f_472_9710" x="5.02745" y="5.4834" width="23.8643" height="22.8265" filterUnits="userSpaceOnUse" color-interpolation-filters="sRGB">
<feFlood flood-opacity="0" result="BackgroundImageFix"/>
<feBlend mode="normal" in="SourceGraphic" in2="BackgroundImageFix" result="shape"/>
<feGaussianBlur stdDeviation="0.139596" result="effect1_foregroundBlur_472_9710"/>
</filter>
<filter id="filter4_f_472_9710" x="5.12051" y="5.57646" width="23.6782" height="22.6404" filterUnits="userSpaceOnUse" color-interpolation-filters="sRGB">
<feFlood flood-opacity="0" result="BackgroundImageFix"/>
<feBlend mode="normal" in="SourceGraphic" in2="BackgroundImageFix" result="shape"/>
<feGaussianBlur stdDeviation="0.0930643" result="effect1_foregroundBlur_472_9710"/>
</filter>
<filter id="filter5_f_472_9710" x="29.2422" y="0.778985" width="33.2731" height="32.2353" filterUnits="userSpaceOnUse" color-interpolation-filters="sRGB">
<feFlood flood-opacity="0" result="BackgroundImageFix"/>
<feBlend mode="normal" in="SourceGraphic" in2="BackgroundImageFix" result="shape"/>
<feGaussianBlur stdDeviation="2.4918" result="effect1_foregroundBlur_472_9710"/>
</filter>
<filter id="filter6_f_472_9710" x="32.5646" y="4.10138" width="26.6283" height="25.5905" filterUnits="userSpaceOnUse" color-interpolation-filters="sRGB">
<feFlood flood-opacity="0" result="BackgroundImageFix"/>
<feBlend mode="normal" in="SourceGraphic" in2="BackgroundImageFix" result="shape"/>
<feGaussianBlur stdDeviation="0.830598" result="effect1_foregroundBlur_472_9710"/>
</filter>
<filter id="filter7_ddi_472_9710" x="32.0663" y="5.26422" width="27.625" height="26.5872" filterUnits="userSpaceOnUse" color-interpolation-filters="sRGB">
<feFlood flood-opacity="0" result="BackgroundImageFix"/>
<feColorMatrix in="SourceAlpha" type="matrix" values="0 0 0 0 0 0 0 0 0 0 0 0 0 0 0 0 0 0 127 0" result="hardAlpha"/>
<feOffset dy="1.81475"/>
<feGaussianBlur stdDeviation="0.697982"/>
<feColorMatrix type="matrix" values="0 0 0 0 0 0 0 0 0 0.051 0 0 0 0 0.082 0 0 0 0.7 0"/>
<feBlend mode="multiply" in2="BackgroundImageFix" result="effect1_dropShadow_472_9710"/>
<feColorMatrix in="SourceAlpha" type="matrix" values="0 0 0 0 0 0 0 0 0 0 0 0 0 0 0 0 0 0 127 0" result="hardAlpha"/>
<feOffset dy="1.6612"/>
<feGaussianBlur stdDeviation="1.07978"/>
<feColorMatrix type="matrix" values="0 0 0 0 0 0 0 0 0 0.4 0 0 0 0 1 0 0 0 1 0"/>
<feBlend mode="color-dodge" in2="effect1_dropShadow_472_9710" result="effect2_dropShadow_472_9710"/>
<feBlend mode="normal" in="SourceGraphic" in2="effect2_dropShadow_472_9710" result="shape"/>
<feColorMatrix in="SourceAlpha" type="matrix" values="0 0 0 0 0 0 0 0 0 0 0 0 0 0 0 0 0 0 127 0" result="hardAlpha"/>
<feOffset dx="-0.181475" dy="0.362951"/>
<feGaussianBlur stdDeviation="0.0907376"/>
<feComposite in2="hardAlpha" operator="arithmetic" k2="-1" k3="1"/>
<feColorMatrix type="matrix" values="0 0 0 0 1 0 0 0 0 1 0 0 0 0 1 0 0 0 0.5 0"/>
<feBlend mode="normal" in2="shape" result="effect3_innerShadow_472_9710"/>
</filter>
<filter id="filter8_f_472_9710" x="33.9466" y="5.48338" width="23.8643" height="22.8265" filterUnits="userSpaceOnUse" color-interpolation-filters="sRGB">
<feFlood flood-opacity="0" result="BackgroundImageFix"/>
<feBlend mode="normal" in="SourceGraphic" in2="BackgroundImageFix" result="shape"/>
<feGaussianBlur stdDeviation="0.139596" result="effect1_foregroundBlur_472_9710"/>
</filter>
<filter id="filter9_f_472_9710" x="34.0397" y="5.57645" width="23.6782" height="22.6404" filterUnits="userSpaceOnUse" color-interpolation-filters="sRGB">
<feFlood flood-opacity="0" result="BackgroundImageFix"/>
<feBlend mode="normal" in="SourceGraphic" in2="BackgroundImageFix" result="shape"/>
<feGaussianBlur stdDeviation="0.0930643" result="effect1_foregroundBlur_472_9710"/>
</filter>
<filter id="filter10_f_472_9710" x="58.1617" y="0.778985" width="33.2731" height="32.2353" filterUnits="userSpaceOnUse" color-interpolation-filters="sRGB">
<feFlood flood-opacity="0" result="BackgroundImageFix"/>
<feBlend mode="normal" in="SourceGraphic" in2="BackgroundImageFix" result="shape"/>
<feGaussianBlur stdDeviation="2.4918" result="effect1_foregroundBlur_472_9710"/>
</filter>
<filter id="filter11_f_472_9710" x="61.4841" y="4.10138" width="26.6283" height="25.5905" filterUnits="userSpaceOnUse" color-interpolation-filters="sRGB">
<feFlood flood-opacity="0" result="BackgroundImageFix"/>
<feBlend mode="normal" in="SourceGraphic" in2="BackgroundImageFix" result="shape"/>
<feGaussianBlur stdDeviation="0.830598" result="effect1_foregroundBlur_472_9710"/>
</filter>
<filter id="filter12_ddi_472_9710" x="60.9857" y="5.26422" width="27.625" height="26.5872" filterUnits="userSpaceOnUse" color-interpolation-filters="sRGB">
<feFlood flood-opacity="0" result="BackgroundImageFix"/>
<feColorMatrix in="SourceAlpha" type="matrix" values="0 0 0 0 0 0 0 0 0 0 0 0 0 0 0 0 0 0 127 0" result="hardAlpha"/>
<feOffset dy="1.81475"/>
<feGaussianBlur stdDeviation="0.697982"/>
<feColorMatrix type="matrix" values="0 0 0 0 0 0 0 0 0 0.051 0 0 0 0 0.082 0 0 0 0.7 0"/>
<feBlend mode="multiply" in2="BackgroundImageFix" result="effect1_dropShadow_472_9710"/>
<feColorMatrix in="SourceAlpha" type="matrix" values="0 0 0 0 0 0 0 0 0 0 0 0 0 0 0 0 0 0 127 0" result="hardAlpha"/>
<feOffset dy="1.6612"/>
<feGaussianBlur stdDeviation="1.07978"/>
<feColorMatrix type="matrix" values="0 0 0 0 0 0 0 0 0 0.4 0 0 0 0 1 0 0 0 1 0"/>
<feBlend mode="color-dodge" in2="effect1_dropShadow_472_9710" result="effect2_dropShadow_472_9710"/>
<feBlend mode="normal" in="SourceGraphic" in2="effect2_dropShadow_472_9710" result="shape"/>
<feColorMatrix in="SourceAlpha" type="matrix" values="0 0 0 0 0 0 0 0 0 0 0 0 0 0 0 0 0 0 127 0" result="hardAlpha"/>
<feOffset dx="-0.181475" dy="0.362951"/>
<feGaussianBlur stdDeviation="0.0907376"/>
<feComposite in2="hardAlpha" operator="arithmetic" k2="-1" k3="1"/>
<feColorMatrix type="matrix" values="0 0 0 0 1 0 0 0 0 1 0 0 0 0 1 0 0 0 0.5 0"/>
<feBlend mode="normal" in2="shape" result="effect3_innerShadow_472_9710"/>
</filter>
<filter id="filter13_f_472_9710" x="62.8661" y="5.48338" width="23.8643" height="22.8265" filterUnits="userSpaceOnUse" color-interpolation-filters="sRGB">
<feFlood flood-opacity="0" result="BackgroundImageFix"/>
<feBlend mode="normal" in="SourceGraphic" in2="BackgroundImageFix" result="shape"/>
<feGaussianBlur stdDeviation="0.139596" result="effect1_foregroundBlur_472_9710"/>
</filter>
<filter id="filter14_f_472_9710" x="62.9591" y="5.57645" width="23.6782" height="22.6404" filterUnits="userSpaceOnUse" color-interpolation-filters="sRGB">
<feFlood flood-opacity="0" result="BackgroundImageFix"/>
<feBlend mode="normal" in="SourceGraphic" in2="BackgroundImageFix" result="shape"/>
<feGaussianBlur stdDeviation="0.0930643" result="effect1_foregroundBlur_472_9710"/>
</filter>
</defs>
</svg>
