<svg viewBox="0 0 83 70" fill="none" xmlns="http://www.w3.org/2000/svg">
    <g style="mix-blend-mode:hard-light" filter="url(#filter0_f_472_9659)">
        <path d="M22.2011 8.90989C22.2249 8.85083 22.2518 8.82817 22.2712 8.81575C22.2969 8.7993 22.3363 8.78558 22.385 8.78558C22.4337 8.78558 22.4731 8.7993 22.4988 8.81575C22.5182 8.82817 22.5452 8.85083 22.5689 8.90989L25.3979 15.9546C25.7947 16.9427 26.722 17.6165 27.7844 17.6886L35.3586 18.2021C35.422 18.2064 35.4519 18.225 35.4697 18.2397C35.4933 18.259 35.5186 18.2923 35.5336 18.3386C35.5486 18.3849 35.5478 18.4266 35.5401 18.4561C35.5343 18.4784 35.521 18.5111 35.4722 18.5519L29.6465 23.4193C28.8293 24.102 28.4751 25.1922 28.7349 26.2249L30.587 33.587C30.6025 33.6487 30.594 33.6829 30.5856 33.7044C30.5745 33.7328 30.5507 33.767 30.5113 33.7957C30.4719 33.8243 30.432 33.8363 30.4015 33.8381C30.3785 33.8395 30.3434 33.837 30.2895 33.8032L23.86 29.7667C22.9582 29.2005 21.8119 29.2005 20.91 29.7667L14.4806 33.8032C14.4267 33.837 14.3916 33.8395 14.3686 33.8381C14.3381 33.8363 14.2981 33.8243 14.2588 33.7957C14.2194 33.767 14.1956 33.7328 14.1844 33.7044C14.176 33.6829 14.1675 33.6487 14.1831 33.587L16.0352 26.2249C16.295 25.1922 15.9407 24.102 15.1236 23.4193L9.29784 18.5519C9.24901 18.5111 9.23578 18.4784 9.22997 18.4561C9.22227 18.4266 9.2214 18.3849 9.23644 18.3386C9.25148 18.2923 9.27672 18.259 9.30031 18.2397C9.31811 18.225 9.34799 18.2064 9.41149 18.2021L16.9856 17.6886C18.048 17.6165 18.9754 16.9427 19.3722 15.9546L22.2011 8.90989Z" stroke="#6A11D5" stroke-width="2.57589"/>
    </g>
    <g style="mix-blend-mode:hard-light" filter="url(#filter1_f_472_9659)">
        <path d="M19.7399 16.1023L22.385 9.51545L25.0301 16.1023C25.4836 17.2316 26.5435 18.0016 27.7576 18.0839L34.8394 18.5641L29.3924 23.1152C28.4585 23.8955 28.0537 25.1414 28.3506 26.3216L30.0823 33.2052L24.0707 29.4311C23.0401 28.784 21.73 28.784 20.6993 29.4311L21.5949 30.8575L20.6993 29.4311L14.6878 33.2052L16.4195 26.3216C16.7164 25.1414 16.3115 23.8955 15.3777 23.1152L9.93059 18.5641L17.0124 18.0839C18.2266 18.0016 19.2864 17.2316 19.7399 16.1023ZM30.5002 33.4675L30.4999 33.4674L30.5002 33.4675ZM14.5674 33.6837L14.5674 33.6835L14.5674 33.6837Z" stroke="#7936C9" stroke-width="3.36847"/>
    </g>
    <g style="mix-blend-mode:hard-light" filter="url(#filter2_ddi_472_9659)">
        <path d="M22.2011 8.90989C22.2249 8.85083 22.2518 8.82817 22.2712 8.81575C22.2969 8.7993 22.3363 8.78558 22.385 8.78558C22.4337 8.78558 22.4731 8.7993 22.4988 8.81575C22.5182 8.82817 22.5452 8.85083 22.5689 8.90989L25.3979 15.9546C25.7947 16.9427 26.722 17.6165 27.7844 17.6886L35.3586 18.2021C35.422 18.2064 35.4519 18.225 35.4697 18.2397C35.4933 18.259 35.5186 18.2923 35.5336 18.3386C35.5486 18.3849 35.5478 18.4266 35.5401 18.4561C35.5343 18.4784 35.521 18.5111 35.4722 18.5519L29.6465 23.4193C28.8293 24.102 28.4751 25.1922 28.7349 26.2249L30.587 33.587C30.6025 33.6487 30.594 33.6829 30.5856 33.7044C30.5745 33.7328 30.5507 33.767 30.5113 33.7957C30.4719 33.8243 30.432 33.8363 30.4015 33.8381C30.3785 33.8395 30.3434 33.837 30.2895 33.8032L23.86 29.7667C22.9582 29.2005 21.8119 29.2005 20.91 29.7667L14.4806 33.8032C14.4267 33.837 14.3916 33.8395 14.3686 33.8381C14.3381 33.8363 14.2981 33.8243 14.2588 33.7957C14.2194 33.767 14.1956 33.7328 14.1844 33.7044C14.176 33.6829 14.1675 33.6487 14.1831 33.587L16.0352 26.2249C16.295 25.1922 15.9407 24.102 15.1236 23.4193L9.29784 18.5519C9.24901 18.5111 9.23578 18.4784 9.22997 18.4561C9.22227 18.4266 9.2214 18.3849 9.23644 18.3386C9.25148 18.2923 9.27672 18.259 9.30031 18.2397C9.31811 18.225 9.34799 18.2064 9.41149 18.2021L16.9856 17.6886C18.048 17.6165 18.9754 16.9427 19.3722 15.9546L22.2011 8.90989Z" stroke="#8620FF" stroke-opacity="0.2" stroke-width="2.57589"/>
    </g>
    <g filter="url(#filter3_f_472_9659)">
        <path d="M21.7415 8.72529C21.9744 8.14519 22.7956 8.14519 23.0286 8.72529L25.8575 15.77C26.1835 16.5817 26.9453 17.1352 27.8179 17.1943L35.3921 17.7079C36.0158 17.7502 36.2695 18.5312 35.7898 18.932L29.9641 23.7995C29.2928 24.3603 29.0019 25.2558 29.2153 26.104L31.0674 33.4662C31.2199 34.0724 30.5555 34.5551 30.0261 34.2227L23.5966 30.1862C22.8558 29.7212 21.9142 29.7212 21.1734 30.1862L14.744 34.2227C14.2145 34.5551 13.5502 34.0724 13.7027 33.4662L15.5548 26.104C15.7682 25.2558 15.4772 24.3603 14.806 23.7995L8.98023 18.932C8.50052 18.5312 8.75428 17.7502 9.37797 17.7079L16.9521 17.1943C17.8248 17.1352 18.5866 16.5817 18.9125 15.77L21.7415 8.72529Z" stroke="#8620FF" stroke-opacity="0.2" stroke-width="1.58516"/>
    </g>
    <g filter="url(#filter4_f_472_9659)">
        <path d="M21.3737 8.57761C21.7398 7.66603 23.0303 7.66603 23.3963 8.57762L26.2253 15.6223C26.4945 16.2929 27.1238 16.7501 27.8447 16.7989L35.4189 17.3125C36.399 17.379 36.7977 18.6063 36.0439 19.2361L30.2182 24.1036C29.6637 24.5668 29.4233 25.3066 29.5996 26.0073L31.4517 33.3695C31.6913 34.3221 30.6473 35.0807 29.8154 34.5583L23.3859 30.5219C22.7739 30.1377 21.9961 30.1377 21.3841 30.5219L14.9547 34.5583C14.1227 35.0807 13.0787 34.3221 13.3184 33.3695L15.1705 26.0073C15.3467 25.3066 15.1064 24.5668 14.5519 24.1036L8.72614 19.2361C7.9723 18.6063 8.37108 17.379 9.35117 17.3125L16.9253 16.7989C17.6462 16.7501 18.2755 16.2929 18.5448 15.6223L21.3737 8.57761Z" stroke="white" stroke-width="0.792581"/>
    </g>
    <g style="mix-blend-mode:hard-light" filter="url(#filter5_f_472_9659)">
        <path d="M60.4311 8.90989C60.4548 8.85083 60.4818 8.82817 60.5012 8.81575C60.5269 8.7993 60.5663 8.78558 60.615 8.78558C60.6637 8.78558 60.7031 8.7993 60.7288 8.81575C60.7482 8.82817 60.7752 8.85083 60.7989 8.90989L63.6278 15.9546C64.0246 16.9427 64.952 17.6165 66.0144 17.6886L73.5885 18.2021C73.652 18.2064 73.6819 18.225 73.6997 18.2397C73.7233 18.259 73.7485 18.2923 73.7636 18.3386C73.7786 18.3849 73.7777 18.4266 73.77 18.4561C73.7642 18.4784 73.751 18.5111 73.7022 18.5519L67.8764 23.4193C67.0593 24.102 66.7051 25.1922 66.9649 26.2249L68.817 33.587C68.8325 33.6487 68.824 33.6829 68.8156 33.7044C68.8045 33.7328 68.7806 33.767 68.7413 33.7957C68.7019 33.8243 68.6619 33.8363 68.6315 33.8381C68.6085 33.8395 68.5733 33.837 68.5194 33.8032L62.09 29.7667C61.1882 29.2005 60.0418 29.2005 59.14 29.7667L52.7106 33.8032C52.6567 33.837 52.6215 33.8395 52.5985 33.8381C52.5681 33.8363 52.5281 33.8243 52.4887 33.7957C52.4494 33.767 52.4255 33.7328 52.4144 33.7044C52.406 33.6829 52.3975 33.6487 52.413 33.587L54.2651 26.2249C54.5249 25.1922 54.1707 24.102 53.3536 23.4193L47.5278 18.5519C47.479 18.5111 47.4658 18.4784 47.4599 18.4561C47.4523 18.4266 47.4514 18.3849 47.4664 18.3386C47.4815 18.2923 47.5067 18.259 47.5303 18.2397C47.5481 18.225 47.578 18.2064 47.6415 18.2021L55.2156 17.6886C56.278 17.6165 57.2054 16.9427 57.6022 15.9546L60.4311 8.90989Z" stroke="#6A11D5" stroke-width="2.57589"/>
    </g>
    <g style="mix-blend-mode:hard-light" filter="url(#filter6_f_472_9659)">
        <path d="M57.9699 16.1023L60.615 9.51545L63.2601 16.1023C63.7136 17.2316 64.7735 18.0016 65.9876 18.0839L73.0694 18.5641L67.6224 23.1152C66.6885 23.8955 66.2836 25.1414 66.5805 26.3216L68.3123 33.2052L62.3007 29.4311C61.27 28.784 59.96 28.784 58.9293 29.4311L59.8248 30.8575L58.9293 29.4311L52.9177 33.2052L54.6495 26.3216C54.9464 25.1414 54.5415 23.8955 53.6076 23.1152L48.1606 18.5641L55.2424 18.0839C56.4566 18.0016 57.5164 17.2316 57.9699 16.1023ZM68.7302 33.4675L68.7299 33.4674L68.7302 33.4675ZM52.7974 33.6837L52.7974 33.6835L52.7974 33.6837Z" stroke="#7936C9" stroke-width="3.36847"/>
    </g>
    <g style="mix-blend-mode:hard-light" filter="url(#filter7_ddi_472_9659)">
        <path d="M60.4311 8.90989C60.4548 8.85083 60.4818 8.82817 60.5012 8.81575C60.5269 8.7993 60.5663 8.78558 60.615 8.78558C60.6637 8.78558 60.7031 8.7993 60.7288 8.81575C60.7482 8.82817 60.7752 8.85083 60.7989 8.90989L63.6278 15.9546C64.0246 16.9427 64.952 17.6165 66.0144 17.6886L73.5885 18.2021C73.652 18.2064 73.6819 18.225 73.6997 18.2397C73.7233 18.259 73.7485 18.2923 73.7636 18.3386C73.7786 18.3849 73.7777 18.4266 73.77 18.4561C73.7642 18.4784 73.751 18.5111 73.7022 18.5519L67.8764 23.4193C67.0593 24.102 66.7051 25.1922 66.9649 26.2249L68.817 33.587C68.8325 33.6487 68.824 33.6829 68.8156 33.7044C68.8045 33.7328 68.7806 33.767 68.7413 33.7957C68.7019 33.8243 68.6619 33.8363 68.6315 33.8381C68.6085 33.8395 68.5733 33.837 68.5194 33.8032L62.09 29.7667C61.1882 29.2005 60.0418 29.2005 59.14 29.7667L52.7106 33.8032C52.6567 33.837 52.6215 33.8395 52.5985 33.8381C52.5681 33.8363 52.5281 33.8243 52.4887 33.7957C52.4494 33.767 52.4255 33.7328 52.4144 33.7044C52.406 33.6829 52.3975 33.6487 52.413 33.587L54.2651 26.2249C54.5249 25.1922 54.1707 24.102 53.3536 23.4193L47.5278 18.5519C47.479 18.5111 47.4658 18.4784 47.4599 18.4561C47.4523 18.4266 47.4514 18.3849 47.4664 18.3386C47.4815 18.2923 47.5067 18.259 47.5303 18.2397C47.5481 18.225 47.578 18.2064 47.6415 18.2021L55.2156 17.6886C56.278 17.6165 57.2054 16.9427 57.6022 15.9546L60.4311 8.90989Z" stroke="#8620FF" stroke-opacity="0.2" stroke-width="2.57589"/>
    </g>
    <g filter="url(#filter8_f_472_9659)">
        <path d="M59.9714 8.72529C60.2044 8.14519 61.0256 8.14519 61.2586 8.72529L64.0875 15.77C64.4135 16.5817 65.1752 17.1352 66.0479 17.1943L73.622 17.7079C74.2457 17.7502 74.4995 18.5312 74.0198 18.932L68.194 23.7995C67.5228 24.3603 67.2319 25.2558 67.4452 26.104L69.2974 33.4662C69.4499 34.0724 68.7855 34.5551 68.2561 34.2227L61.8266 30.1862C61.0858 29.7212 60.1442 29.7212 59.4034 30.1862L52.9739 34.2227C52.4445 34.5551 51.7801 34.0724 51.9326 33.4662L53.7848 26.104C53.9981 25.2558 53.7072 24.3603 53.0359 23.7995L47.2102 18.932C46.7305 18.5312 46.9843 17.7502 47.608 17.7079L55.1821 17.1943C56.0548 17.1352 56.8165 16.5817 57.1425 15.77L59.9714 8.72529Z" stroke="#8620FF" stroke-opacity="0.2" stroke-width="1.58516"/>
    </g>
    <g filter="url(#filter9_f_472_9659)">
        <path d="M59.6037 8.57761C59.9698 7.66603 61.2602 7.66603 61.6263 8.57762L64.4553 15.6223C64.7245 16.2929 65.3538 16.7501 66.0747 16.7989L73.6489 17.3125C74.6289 17.379 75.0277 18.6063 74.2739 19.2361L68.4481 24.1036C67.8937 24.5668 67.6533 25.3066 67.8296 26.0073L69.6817 33.3695C69.9213 34.3221 68.8773 35.0807 68.0453 34.5583L61.6159 30.5219C61.0039 30.1377 60.2261 30.1377 59.6141 30.5219L53.1847 34.5583C52.3527 35.0807 51.3087 34.3221 51.5483 33.3695L53.4004 26.0073C53.5767 25.3066 53.3363 24.5668 52.7819 24.1036L46.9561 19.2361C46.2023 18.6063 46.6011 17.379 47.5811 17.3125L55.1553 16.7989C55.8762 16.7501 56.5055 16.2929 56.7747 15.6223L59.6037 8.57761Z" stroke="white" stroke-width="0.792581"/>
    </g>
    <path d="M21.7767 56.3138C21.3001 56.3138 20.8234 56.2441 20.3467 56.1048C19.8701 55.9581 19.4411 55.7308 19.0597 55.4228C18.6784 55.1075 18.3667 54.7041 18.1247 54.2128C17.8901 53.7215 17.7727 53.1238 17.7727 52.4198C17.7727 51.7598 17.8827 51.1805 18.1027 50.6818C18.3227 50.1831 18.6234 49.7688 19.0047 49.4388C19.3934 49.1015 19.8481 48.8521 20.3687 48.6908C20.8894 48.5221 21.4541 48.4378 22.0627 48.4378C22.3707 48.4378 22.6567 48.4598 22.9207 48.5038C23.1921 48.5405 23.4744 48.6065 23.7677 48.7018V50.0438C23.5404 49.9558 23.2984 49.8825 23.0417 49.8238C22.7924 49.7651 22.5027 49.7358 22.1727 49.7358C21.7401 49.7358 21.3514 49.8018 21.0067 49.9338C20.6694 50.0585 20.3834 50.2381 20.1487 50.4728C19.9141 50.7075 19.7344 50.9898 19.6097 51.3198C19.4851 51.6425 19.4227 52.0018 19.4227 52.3978C19.4227 52.8598 19.4961 53.2595 19.6427 53.5968C19.7894 53.9268 19.9837 54.1981 20.2257 54.4108C20.4677 54.6161 20.7464 54.7701 21.0617 54.8728C21.3844 54.9681 21.7181 55.0158 22.0627 55.0158C22.4587 55.0158 22.7924 54.9755 23.0637 54.8948C23.3424 54.8068 23.5771 54.7188 23.7677 54.6308V55.9838C23.4231 56.1011 23.0821 56.1855 22.7447 56.2368C22.4074 56.2881 22.0847 56.3138 21.7767 56.3138ZM29.3764 50.5278V51.6278H27.5944V56.2258H26.0984V51.6278H24.3164V50.5278H29.3764ZM30.1182 50.8138C30.4628 50.6745 30.8002 50.5791 31.1302 50.5278C31.4602 50.4691 31.8195 50.4398 32.2082 50.4398C32.7875 50.4398 33.2422 50.5131 33.5722 50.6598C33.9095 50.8065 34.1625 50.9898 34.3312 51.2098C34.4998 51.4298 34.6062 51.6681 34.6502 51.9248C34.7015 52.1815 34.7272 52.4161 34.7272 52.6288V56.2258H33.2642V55.3898H33.2422C33.2128 55.4485 33.1615 55.5328 33.0882 55.6428C33.0148 55.7455 32.9085 55.8481 32.7692 55.9508C32.6298 56.0461 32.4538 56.1305 32.2412 56.2038C32.0285 56.2771 31.7682 56.3138 31.4602 56.3138C31.1008 56.3138 30.7928 56.2661 30.5362 56.1708C30.2795 56.0681 30.0705 55.9361 29.9092 55.7748C29.7478 55.6135 29.6268 55.4301 29.5462 55.2248C29.4728 55.0121 29.4362 54.7958 29.4362 54.5758C29.4362 54.3778 29.4692 54.1688 29.5352 53.9488C29.6012 53.7288 29.7368 53.5271 29.9422 53.3438C30.1475 53.1531 30.4335 52.9991 30.8002 52.8818C31.1668 52.7571 31.6545 52.6948 32.2632 52.6948C32.4025 52.6948 32.5418 52.6985 32.6812 52.7058C32.8205 52.7058 32.9598 52.7058 33.0992 52.7058H33.2312V52.4638C33.2312 52.3098 33.1945 52.1705 33.1212 52.0458C33.0552 51.9211 32.9635 51.8185 32.8462 51.7378C32.7288 51.6571 32.5895 51.5948 32.4282 51.5508C32.2742 51.5068 32.1128 51.4848 31.9442 51.4848C31.6948 51.4848 31.4235 51.5178 31.1302 51.5838C30.8368 51.6425 30.4995 51.7781 30.1182 51.9908V50.8138ZM32.9782 53.6408C32.7728 53.6408 32.5492 53.6481 32.3072 53.6628C32.0725 53.6701 31.8525 53.7031 31.6472 53.7618C31.4492 53.8205 31.2842 53.9121 31.1522 54.0368C31.0202 54.1615 30.9542 54.3375 30.9542 54.5648C30.9542 54.7701 31.0238 54.9461 31.1632 55.0928C31.3025 55.2321 31.5372 55.3018 31.8672 55.3018C32.0212 55.3018 32.1788 55.2798 32.3402 55.2358C32.5015 55.1918 32.6482 55.1148 32.7802 55.0048C32.9122 54.8948 33.0185 54.7408 33.0992 54.5428C33.1872 54.3448 33.2312 54.0918 33.2312 53.7838V53.6408H32.9782ZM36.1578 58.5798V50.5278H37.4668V51.5178H37.4888C37.6354 51.2611 37.8004 51.0595 37.9838 50.9128C38.1744 50.7661 38.3614 50.6598 38.5448 50.5938C38.7281 50.5205 38.8931 50.4765 39.0398 50.4618C39.1864 50.4471 39.2891 50.4398 39.3478 50.4398C39.6704 50.4398 39.9748 50.4948 40.2608 50.6048C40.5541 50.7075 40.8108 50.8798 41.0308 51.1218C41.2508 51.3565 41.4231 51.6608 41.5478 52.0348C41.6798 52.4015 41.7458 52.8488 41.7458 53.3768C41.7458 53.9048 41.6761 54.3558 41.5368 54.7298C41.3974 55.0965 41.2104 55.3971 40.9758 55.6318C40.7484 55.8665 40.4844 56.0388 40.1838 56.1488C39.8904 56.2588 39.5898 56.3138 39.2818 56.3138C38.8638 56.3138 38.5228 56.2295 38.2588 56.0608C38.0021 55.8921 37.7968 55.6905 37.6428 55.4558H37.6208L37.6538 56.3908V58.5798H36.1578ZM37.6538 53.3768C37.6538 53.6775 37.6904 53.9378 37.7638 54.1578C37.8371 54.3778 37.9324 54.5611 38.0498 54.7078C38.1744 54.8471 38.3101 54.9535 38.4568 55.0268C38.6108 55.0928 38.7648 55.1258 38.9188 55.1258C39.0728 55.1258 39.2231 55.0928 39.3698 55.0268C39.5238 54.9535 39.6594 54.8471 39.7768 54.7078C39.9014 54.5611 40.0004 54.3778 40.0738 54.1578C40.1471 53.9378 40.1838 53.6775 40.1838 53.3768C40.1838 53.0761 40.1471 52.8158 40.0738 52.5958C40.0004 52.3758 39.9014 52.1961 39.7768 52.0568C39.6594 51.9101 39.5238 51.8038 39.3698 51.7378C39.2231 51.6645 39.0728 51.6278 38.9188 51.6278C38.7648 51.6278 38.6108 51.6645 38.4568 51.7378C38.3101 51.8038 38.1744 51.9101 38.0498 52.0568C37.9324 52.1961 37.8371 52.3758 37.7638 52.5958C37.6904 52.8158 37.6538 53.0761 37.6538 53.3768ZM44.3462 50.5278V55.1258H46.1832V50.5278H47.6792V55.1258H49.5162V50.5278H51.0122V56.2258H42.8502V50.5278H44.3462ZM53.9389 50.5278V53.5198L53.8949 54.5428H53.9169L56.3699 50.5278H58.0419V56.2258H56.5459V53.2778L56.5899 52.2108H56.5569L54.0379 56.2258H52.4429V50.5278H53.9389ZM60.9643 50.5278V53.5198L60.9203 54.5428H60.9423L63.3953 50.5278H65.0673V56.2258H63.5713V53.2778L63.6153 52.2108H63.5823L61.0633 56.2258H59.4683V50.5278H60.9643ZM62.2623 49.8458C62.0643 49.8458 61.87 49.8201 61.6793 49.7688C61.496 49.7175 61.331 49.6368 61.1843 49.5268C61.0377 49.4095 60.9167 49.2591 60.8213 49.0758C60.7333 48.8851 60.682 48.6578 60.6673 48.3938L61.6023 48.3058C61.6317 48.5625 61.694 48.7458 61.7893 48.8558C61.892 48.9658 62.0497 49.0208 62.2623 49.0208C62.475 49.0208 62.629 48.9658 62.7243 48.8558C62.827 48.7458 62.893 48.5625 62.9223 48.3058L63.8573 48.3938C63.8427 48.6578 63.7877 48.8851 63.6923 49.0758C63.6043 49.2591 63.487 49.4095 63.3403 49.5268C63.1937 49.6368 63.025 49.7175 62.8343 49.7688C62.651 49.8201 62.4603 49.8458 62.2623 49.8458ZM13.7201 67.3138C13.2141 67.3138 12.7741 67.2295 12.4001 67.0608C12.0261 66.8921 11.7145 66.6685 11.4651 66.3898C11.2231 66.1038 11.0435 65.7811 10.9261 65.4218C10.8088 65.0625 10.7501 64.6958 10.7501 64.3218C10.7501 63.9405 10.8161 63.5775 10.9481 63.2328C11.0801 62.8808 11.2745 62.5728 11.5311 62.3088C11.7878 62.0448 12.1068 61.8358 12.4881 61.6818C12.8768 61.5205 13.3241 61.4398 13.8301 61.4398C14.0208 61.4398 14.2261 61.4508 14.4461 61.4728C14.6661 61.4948 14.8825 61.5351 15.0951 61.5938V62.7048C14.9558 62.6461 14.8055 62.6021 14.6441 62.5728C14.4901 62.5361 14.3031 62.5178 14.0831 62.5178C13.8338 62.5178 13.5991 62.5618 13.3791 62.6498C13.1665 62.7378 12.9795 62.8661 12.8181 63.0348C12.6641 63.1961 12.5395 63.3941 12.4441 63.6288C12.3561 63.8561 12.3121 64.1128 12.3121 64.3988C12.3121 64.6555 12.3488 64.8975 12.4221 65.1248C12.5028 65.3448 12.6128 65.5391 12.7521 65.7078C12.8988 65.8691 13.0748 65.9975 13.2801 66.0928C13.4855 66.1881 13.7201 66.2358 13.9841 66.2358C14.3875 66.2358 14.7871 66.1515 15.1831 65.9828V67.0938C15.0438 67.1378 14.8458 67.1855 14.5891 67.2368C14.3398 67.2881 14.0501 67.3138 13.7201 67.3138ZM21.4739 61.5278V67.2258H19.9779V62.6278H17.6679V67.2258H16.1719V61.5278H21.4739ZM24.1393 64.8278C24.1466 65.0111 24.187 65.1871 24.2603 65.3558C24.3336 65.5245 24.44 65.6748 24.5793 65.8068C24.7186 65.9388 24.891 66.0451 25.0963 66.1258C25.309 66.1991 25.5546 66.2358 25.8333 66.2358C26.1633 66.2358 26.475 66.2028 26.7683 66.1368C27.0616 66.0635 27.344 65.9645 27.6153 65.8398V66.9618C27.322 67.0718 27.0066 67.1598 26.6693 67.2258C26.332 67.2845 25.991 67.3138 25.6463 67.3138C25.221 67.3138 24.8213 67.2551 24.4473 67.1378C24.0733 67.0205 23.747 66.8408 23.4683 66.5988C23.197 66.3568 22.9806 66.0525 22.8193 65.6858C22.658 65.3191 22.5773 64.8828 22.5773 64.3768C22.5773 63.9148 22.6506 63.5041 22.7973 63.1448C22.9513 62.7781 23.1566 62.4701 23.4133 62.2208C23.67 61.9641 23.967 61.7698 24.3043 61.6378C24.649 61.5058 25.012 61.4398 25.3933 61.4398C25.826 61.4398 26.189 61.5058 26.4823 61.6378C26.783 61.7625 27.0286 61.9238 27.2193 62.1218C27.4173 62.3198 27.5676 62.5398 27.6703 62.7818C27.7803 63.0165 27.861 63.2475 27.9123 63.4748C27.9636 63.7021 27.993 63.9075 28.0003 64.0908C28.015 64.2741 28.0223 64.4061 28.0223 64.4868V64.8278H24.1393ZM26.4823 63.8048C26.4896 63.5628 26.4566 63.3575 26.3833 63.1888C26.3173 63.0201 26.2256 62.8845 26.1083 62.7818C25.991 62.6718 25.8626 62.5948 25.7233 62.5508C25.584 62.4995 25.4446 62.4738 25.3053 62.4738C25.1366 62.4738 24.9826 62.5105 24.8433 62.5838C24.704 62.6498 24.583 62.7415 24.4803 62.8588C24.3776 62.9761 24.2933 63.1191 24.2273 63.2878C24.1686 63.4491 24.1393 63.6215 24.1393 63.8048H26.4823ZM30.623 61.5278V66.1258H33.01V61.5278H34.506V66.1258H35.441V68.7108H34.066V67.2258H29.127V61.5278H30.623ZM37.8203 61.5278V64.5198L37.7763 65.5428H37.7983L40.2513 61.5278H41.9233V67.2258H40.4273V64.2778L40.4713 63.2108H40.4383L37.9193 67.2258H36.3243V61.5278H37.8203ZM43.7017 61.8138C44.0463 61.6745 44.3837 61.5791 44.7137 61.5278C45.0437 61.4691 45.403 61.4398 45.7917 61.4398C46.371 61.4398 46.8257 61.5131 47.1557 61.6598C47.493 61.8065 47.746 61.9898 47.9147 62.2098C48.0833 62.4298 48.1897 62.6681 48.2337 62.9248C48.285 63.1815 48.3107 63.4161 48.3107 63.6288V67.2258H46.8477V66.3898H46.8257C46.7963 66.4485 46.745 66.5328 46.6717 66.6428C46.5983 66.7455 46.492 66.8481 46.3527 66.9508C46.2133 67.0461 46.0373 67.1305 45.8247 67.2038C45.612 67.2771 45.3517 67.3138 45.0437 67.3138C44.6843 67.3138 44.3763 67.2661 44.1197 67.1708C43.863 67.0681 43.654 66.9361 43.4927 66.7748C43.3313 66.6135 43.2103 66.4301 43.1297 66.2248C43.0563 66.0121 43.0197 65.7958 43.0197 65.5758C43.0197 65.3778 43.0527 65.1688 43.1187 64.9488C43.1847 64.7288 43.3203 64.5271 43.5257 64.3438C43.731 64.1531 44.017 63.9991 44.3837 63.8818C44.7503 63.7571 45.238 63.6948 45.8467 63.6948C45.986 63.6948 46.1253 63.6985 46.2647 63.7058C46.404 63.7058 46.5433 63.7058 46.6827 63.7058H46.8147V63.4638C46.8147 63.3098 46.778 63.1705 46.7047 63.0458C46.6387 62.9211 46.547 62.8185 46.4297 62.7378C46.3123 62.6571 46.173 62.5948 46.0117 62.5508C45.8577 62.5068 45.6963 62.4848 45.5277 62.4848C45.2783 62.4848 45.007 62.5178 44.7137 62.5838C44.4203 62.6425 44.083 62.7781 43.7017 62.9908V61.8138ZM46.5617 64.6408C46.3563 64.6408 46.1327 64.6481 45.8907 64.6628C45.656 64.6701 45.436 64.7031 45.2307 64.7618C45.0327 64.8205 44.8677 64.9121 44.7357 65.0368C44.6037 65.1615 44.5377 65.3375 44.5377 65.5648C44.5377 65.7701 44.6073 65.9461 44.7467 66.0928C44.886 66.2321 45.1207 66.3018 45.4507 66.3018C45.6047 66.3018 45.7623 66.2798 45.9237 66.2358C46.085 66.1918 46.2317 66.1148 46.3637 66.0048C46.4957 65.8948 46.602 65.7408 46.6827 65.5428C46.7707 65.3448 46.8147 65.0918 46.8147 64.7838V64.6408H46.5617ZM49.6218 67.3138C49.5192 67.3138 49.4128 67.3028 49.3028 67.2808C49.1928 67.2661 49.0975 67.2478 49.0168 67.2258V66.0818C49.0755 66.0965 49.1342 66.1075 49.1928 66.1148C49.2515 66.1221 49.3028 66.1258 49.3468 66.1258C49.4495 66.1258 49.5448 66.0928 49.6328 66.0268C49.7282 65.9608 49.8088 65.8141 49.8748 65.5868C49.9408 65.3595 49.9922 65.0295 50.0288 64.5968C50.0728 64.1568 50.0948 63.5665 50.0948 62.8258V61.5278H54.6818V67.2258H53.1858V62.6278H51.4258V62.8258C51.4258 63.7865 51.3855 64.5601 51.3048 65.1468C51.2242 65.7335 51.1068 66.1881 50.9528 66.5108C50.7988 66.8261 50.6082 67.0388 50.3808 67.1488C50.1608 67.2588 49.9078 67.3138 49.6218 67.3138ZM57.6074 61.5278V64.5198L57.5634 65.5428H57.5854L60.0384 61.5278H61.7104V67.2258H60.2144V64.2778L60.2584 63.2108H60.2254L57.7064 67.2258H56.1114V61.5278H57.6074ZM65.7768 67.3138C65.2708 67.3138 64.8308 67.2295 64.4568 67.0608C64.0828 66.8921 63.7711 66.6685 63.5218 66.3898C63.2798 66.1038 63.1001 65.7811 62.9828 65.4218C62.8654 65.0625 62.8068 64.6958 62.8068 64.3218C62.8068 63.9405 62.8728 63.5775 63.0048 63.2328C63.1368 62.8808 63.3311 62.5728 63.5878 62.3088C63.8444 62.0448 64.1634 61.8358 64.5448 61.6818C64.9334 61.5205 65.3808 61.4398 65.8868 61.4398C66.0774 61.4398 66.2828 61.4508 66.5028 61.4728C66.7228 61.4948 66.9391 61.5351 67.1518 61.5938V62.7048C67.0124 62.6461 66.8621 62.6021 66.7008 62.5728C66.5468 62.5361 66.3598 62.5178 66.1398 62.5178C65.8904 62.5178 65.6558 62.5618 65.4358 62.6498C65.2231 62.7378 65.0361 62.8661 64.8748 63.0348C64.7208 63.1961 64.5961 63.3941 64.5008 63.6288C64.4128 63.8561 64.3688 64.1128 64.3688 64.3988C64.3688 64.6555 64.4054 64.8975 64.4788 65.1248C64.5594 65.3448 64.6694 65.5391 64.8088 65.7078C64.9554 65.8691 65.1314 65.9975 65.3368 66.0928C65.5421 66.1881 65.7768 66.2358 66.0408 66.2358C66.4441 66.2358 66.8438 66.1515 67.2398 65.9828V67.0938C67.1004 67.1378 66.9024 67.1855 66.6458 67.2368C66.3964 67.2881 66.1068 67.3138 65.7768 67.3138ZM72.5762 61.5278V62.6278H70.7942V67.2258H69.2982V62.6278H67.5162V61.5278H72.5762Z" fill="#8620FF"/>
    <defs>
        <filter id="filter0_f_472_9659" x="0.862863" y="0.423852" width="43.0444" height="41.7763" filterUnits="userSpaceOnUse" color-interpolation-filters="sRGB">
            <feFlood flood-opacity="0" result="BackgroundImageFix"/>
            <feBlend mode="normal" in="SourceGraphic" in2="BackgroundImageFix" result="shape"/>
            <feGaussianBlur stdDeviation="3.53689" result="effect1_foregroundBlur_472_9659"/>
        </filter>
        <filter id="filter1_f_472_9659" x="5.57872" y="5.13971" width="33.6127" height="32.3446" filterUnits="userSpaceOnUse" color-interpolation-filters="sRGB">
            <feFlood flood-opacity="0" result="BackgroundImageFix"/>
            <feBlend mode="normal" in="SourceGraphic" in2="BackgroundImageFix" result="shape"/>
            <feGaussianBlur stdDeviation="1.17896" result="effect1_foregroundBlur_472_9659"/>
        </filter>
        <filter id="filter2_ddi_472_9659" x="4.87134" y="6.79026" width="35.0275" height="33.7593" filterUnits="userSpaceOnUse" color-interpolation-filters="sRGB">
            <feFlood flood-opacity="0" result="BackgroundImageFix"/>
            <feColorMatrix in="SourceAlpha" type="matrix" values="0 0 0 0 0 0 0 0 0 0 0 0 0 0 0 0 0 0 127 0" result="hardAlpha"/>
            <feOffset dy="2.57589"/>
            <feGaussianBlur stdDeviation="0.990726"/>
            <feColorMatrix type="matrix" values="0 0 0 0 0 0 0 0 0 0.051 0 0 0 0 0.082 0 0 0 0.5 0"/>
            <feBlend mode="multiply" in2="BackgroundImageFix" result="effect1_dropShadow_472_9659"/>
            <feColorMatrix in="SourceAlpha" type="matrix" values="0 0 0 0 0 0 0 0 0 0 0 0 0 0 0 0 0 0 127 0" result="hardAlpha"/>
            <feOffset dy="2.35793"/>
            <feGaussianBlur stdDeviation="1.53265"/>
            <feColorMatrix type="matrix" values="0 0 0 0 0.702449 0 0 0 0 0.458646 0 0 0 0 0.991667 0 0 0 0.6 0"/>
            <feBlend mode="color-dodge" in2="effect1_dropShadow_472_9659" result="effect2_dropShadow_472_9659"/>
            <feBlend mode="normal" in="SourceGraphic" in2="effect2_dropShadow_472_9659" result="shape"/>
            <feColorMatrix in="SourceAlpha" type="matrix" values="0 0 0 0 0 0 0 0 0 0 0 0 0 0 0 0 0 0 127 0" result="hardAlpha"/>
            <feOffset dx="-0.257589" dy="0.515177"/>
            <feGaussianBlur stdDeviation="0.128794"/>
            <feComposite in2="hardAlpha" operator="arithmetic" k2="-1" k3="1"/>
            <feColorMatrix type="matrix" values="0 0 0 0 1 0 0 0 0 1 0 0 0 0 1 0 0 0 0.5 0"/>
            <feBlend mode="normal" in2="shape" result="effect3_innerShadow_472_9659"/>
        </filter>
        <filter id="filter3_f_472_9659" x="7.54036" y="7.10134" width="29.6894" height="28.4213" filterUnits="userSpaceOnUse" color-interpolation-filters="sRGB">
            <feFlood flood-opacity="0" result="BackgroundImageFix"/>
            <feBlend mode="normal" in="SourceGraphic" in2="BackgroundImageFix" result="shape"/>
            <feGaussianBlur stdDeviation="0.198145" result="effect1_foregroundBlur_472_9659"/>
        </filter>
        <filter id="filter4_f_472_9659" x="7.67245" y="7.23344" width="29.4252" height="28.1571" filterUnits="userSpaceOnUse" color-interpolation-filters="sRGB">
            <feFlood flood-opacity="0" result="BackgroundImageFix"/>
            <feBlend mode="normal" in="SourceGraphic" in2="BackgroundImageFix" result="shape"/>
            <feGaussianBlur stdDeviation="0.132097" result="effect1_foregroundBlur_472_9659"/>
        </filter>
        <filter id="filter5_f_472_9659" x="39.0928" y="0.423852" width="43.0444" height="41.7763" filterUnits="userSpaceOnUse" color-interpolation-filters="sRGB">
            <feFlood flood-opacity="0" result="BackgroundImageFix"/>
            <feBlend mode="normal" in="SourceGraphic" in2="BackgroundImageFix" result="shape"/>
            <feGaussianBlur stdDeviation="3.53689" result="effect1_foregroundBlur_472_9659"/>
        </filter>
        <filter id="filter6_f_472_9659" x="43.8087" y="5.13971" width="33.6127" height="32.3446" filterUnits="userSpaceOnUse" color-interpolation-filters="sRGB">
            <feFlood flood-opacity="0" result="BackgroundImageFix"/>
            <feBlend mode="normal" in="SourceGraphic" in2="BackgroundImageFix" result="shape"/>
            <feGaussianBlur stdDeviation="1.17896" result="effect1_foregroundBlur_472_9659"/>
        </filter>
        <filter id="filter7_ddi_472_9659" x="43.1013" y="6.79026" width="35.0275" height="33.7593" filterUnits="userSpaceOnUse" color-interpolation-filters="sRGB">
            <feFlood flood-opacity="0" result="BackgroundImageFix"/>
            <feColorMatrix in="SourceAlpha" type="matrix" values="0 0 0 0 0 0 0 0 0 0 0 0 0 0 0 0 0 0 127 0" result="hardAlpha"/>
            <feOffset dy="2.57589"/>
            <feGaussianBlur stdDeviation="0.990726"/>
            <feColorMatrix type="matrix" values="0 0 0 0 0 0 0 0 0 0.051 0 0 0 0 0.082 0 0 0 0.5 0"/>
            <feBlend mode="multiply" in2="BackgroundImageFix" result="effect1_dropShadow_472_9659"/>
            <feColorMatrix in="SourceAlpha" type="matrix" values="0 0 0 0 0 0 0 0 0 0 0 0 0 0 0 0 0 0 127 0" result="hardAlpha"/>
            <feOffset dy="2.35793"/>
            <feGaussianBlur stdDeviation="1.53265"/>
            <feColorMatrix type="matrix" values="0 0 0 0 0.702449 0 0 0 0 0.458646 0 0 0 0 0.991667 0 0 0 0.6 0"/>
            <feBlend mode="color-dodge" in2="effect1_dropShadow_472_9659" result="effect2_dropShadow_472_9659"/>
            <feBlend mode="normal" in="SourceGraphic" in2="effect2_dropShadow_472_9659" result="shape"/>
            <feColorMatrix in="SourceAlpha" type="matrix" values="0 0 0 0 0 0 0 0 0 0 0 0 0 0 0 0 0 0 127 0" result="hardAlpha"/>
            <feOffset dx="-0.257589" dy="0.515177"/>
            <feGaussianBlur stdDeviation="0.128794"/>
            <feComposite in2="hardAlpha" operator="arithmetic" k2="-1" k3="1"/>
            <feColorMatrix type="matrix" values="0 0 0 0 1 0 0 0 0 1 0 0 0 0 1 0 0 0 0.5 0"/>
            <feBlend mode="normal" in2="shape" result="effect3_innerShadow_472_9659"/>
        </filter>
        <filter id="filter8_f_472_9659" x="45.7703" y="7.10134" width="29.6894" height="28.4213" filterUnits="userSpaceOnUse" color-interpolation-filters="sRGB">
            <feFlood flood-opacity="0" result="BackgroundImageFix"/>
            <feBlend mode="normal" in="SourceGraphic" in2="BackgroundImageFix" result="shape"/>
            <feGaussianBlur stdDeviation="0.198145" result="effect1_foregroundBlur_472_9659"/>
        </filter>
        <filter id="filter9_f_472_9659" x="45.9024" y="7.23344" width="29.4252" height="28.1571" filterUnits="userSpaceOnUse" color-interpolation-filters="sRGB">
            <feFlood flood-opacity="0" result="BackgroundImageFix"/>
            <feBlend mode="normal" in="SourceGraphic" in2="BackgroundImageFix" result="shape"/>
            <feGaussianBlur stdDeviation="0.132097" result="effect1_foregroundBlur_472_9659"/>
        </filter>
    </defs>
</svg>
