<svg viewBox="0 0 656 659" fill="none" xmlns="http://www.w3.org/2000/svg">
<g filter="url(#filter0_f_576_3757)">
<g style="mix-blend-mode:hard-light" filter="url(#filter1_f_576_3757)">
<path d="M308.884 333.847C301.616 363.895 306.8 390.12 323.415 397.608C344.462 407.093 375.883 382.922 393.596 343.62C411.308 304.317 408.605 264.767 387.558 255.282C368.542 246.712 341.06 265.614 322.869 298.327" stroke="#0094FF" stroke-width="14.9141" stroke-linecap="round" stroke-linejoin="round"/>
</g>
<g style="mix-blend-mode:hard-light" filter="url(#filter2_f_576_3757)">
<path d="M308.884 333.847C301.616 363.895 306.8 390.12 323.415 397.608C344.462 407.093 375.883 382.922 393.596 343.62C411.308 304.317 408.605 264.767 387.558 255.282C368.542 246.712 341.06 265.614 322.869 298.327" stroke="#0094FF" stroke-width="19.503" stroke-linecap="round" stroke-linejoin="round"/>
</g>
<g style="mix-blend-mode:hard-light" filter="url(#filter3_ddi_576_3757)">
<path d="M308.884 333.847C301.616 363.895 306.8 390.12 323.415 397.608C344.462 407.093 375.883 382.922 393.596 343.62C411.308 304.317 408.605 264.767 387.558 255.282C368.542 246.712 341.06 265.614 322.869 298.327" stroke="#00B3FF" stroke-opacity="0.2" stroke-width="14.9141" stroke-linecap="round" stroke-linejoin="round"/>
</g>
<g filter="url(#filter4_f_576_3757)">
<path d="M308.884 333.847C301.616 363.895 306.8 390.12 323.415 397.608C344.462 407.093 375.883 382.922 393.596 343.62C411.308 304.317 408.605 264.767 387.558 255.282C368.542 246.712 341.06 265.614 322.869 298.327" stroke="#82D9FF" stroke-width="9.1779" stroke-linecap="round" stroke-linejoin="round"/>
</g>
<g filter="url(#filter5_f_576_3757)">
<path d="M308.884 333.847C301.616 363.895 306.8 390.12 323.415 397.608C344.462 407.093 375.883 382.922 393.596 343.62C411.308 304.317 408.605 264.767 387.558 255.282C368.542 246.712 341.06 265.614 322.869 298.327" stroke="white" stroke-width="4.58895" stroke-linecap="round" stroke-linejoin="round"/>
</g>
<g style="mix-blend-mode:hard-light" filter="url(#filter6_f_576_3757)">
<path d="M292.032 276.493C326.21 212.737 379.231 175.46 415.697 191.895C455.288 209.737 460.374 284.133 427.055 358.063C393.737 431.993 334.633 477.461 295.042 459.618C259.773 443.724 251.887 382.952 274.138 317.609" stroke="#0094FF" stroke-width="14.9141" stroke-linecap="round" stroke-linejoin="round"/>
</g>
<g style="mix-blend-mode:hard-light" filter="url(#filter7_f_576_3757)">
<path d="M292.032 276.493C326.21 212.737 379.231 175.46 415.697 191.895C455.288 209.737 460.374 284.133 427.055 358.063C393.737 431.993 334.633 477.461 295.042 459.618C259.773 443.724 251.887 382.952 274.138 317.609" stroke="#0094FF" stroke-width="19.503" stroke-linecap="round" stroke-linejoin="round"/>
</g>
<g style="mix-blend-mode:hard-light" filter="url(#filter8_ddi_576_3757)">
<path d="M292.032 276.493C326.21 212.737 379.231 175.46 415.697 191.895C455.288 209.737 460.374 284.133 427.055 358.063C393.737 431.993 334.633 477.461 295.042 459.618C259.773 443.724 251.887 382.952 274.138 317.609" stroke="#00B3FF" stroke-opacity="0.2" stroke-width="14.9141" stroke-linecap="round" stroke-linejoin="round"/>
</g>
<g filter="url(#filter9_f_576_3757)">
<path d="M292.032 276.493C326.21 212.737 379.231 175.46 415.697 191.895C455.288 209.737 460.374 284.133 427.055 358.063C393.737 431.993 334.633 477.461 295.042 459.618C259.773 443.724 251.887 382.952 274.138 317.609" stroke="#82D9FF" stroke-width="9.1779" stroke-linecap="round" stroke-linejoin="round"/>
</g>
<g filter="url(#filter10_f_576_3757)">
<path d="M292.032 276.493C326.21 212.737 379.231 175.46 415.697 191.895C455.288 209.737 460.374 284.133 427.055 358.063C393.737 431.993 334.633 477.461 295.042 459.618C259.773 443.724 251.887 382.952 274.138 317.609" stroke="white" stroke-width="4.58895" stroke-linecap="round" stroke-linejoin="round"/>
</g>
<g style="mix-blend-mode:hard-light" filter="url(#filter11_f_576_3757)">
<path d="M239.124 299.703C199.174 403.661 209.504 503.348 265.311 528.5C324.999 555.399 414.106 486.852 464.337 375.394C514.568 263.936 506.901 151.776 447.214 124.876C390.878 99.487 308.335 159.125 257.007 259.617M269.142 530.062C286.952 538.428 306.829 547.485 315.897 551.572C375.585 578.471 458.195 511.904 508.426 400.447C558.657 288.989 556.116 175.801 496.428 148.902C490.535 146.246 474.89 137.91 457.432 130.629" stroke="#0094FF" stroke-width="14.9141" stroke-linecap="round" stroke-linejoin="round"/>
</g>
<g style="mix-blend-mode:hard-light" filter="url(#filter12_f_576_3757)">
<path d="M239.124 299.703C199.174 403.661 209.504 503.348 265.311 528.5C324.999 555.399 414.106 486.852 464.337 375.394C514.568 263.936 506.901 151.776 447.214 124.876C390.878 99.487 308.335 159.125 257.007 259.617M269.142 530.062C286.952 538.428 306.829 547.485 315.897 551.572C375.585 578.471 458.195 511.904 508.426 400.447C558.657 288.989 556.116 175.801 496.428 148.902C490.535 146.246 474.89 137.91 457.432 130.629" stroke="#0094FF" stroke-width="19.503" stroke-linecap="round" stroke-linejoin="round"/>
</g>
<g style="mix-blend-mode:hard-light" filter="url(#filter13_ddi_576_3757)">
<path d="M239.124 299.703C199.174 403.661 209.504 503.348 265.311 528.5C324.999 555.399 414.106 486.852 464.337 375.394C514.568 263.936 506.901 151.776 447.214 124.876C390.878 99.487 308.335 159.125 257.007 259.617M269.142 530.062C286.952 538.428 306.829 547.485 315.897 551.572C375.585 578.471 458.195 511.904 508.426 400.447C558.657 288.989 556.116 175.801 496.428 148.902C490.535 146.246 474.89 137.91 457.432 130.629" stroke="#00B3FF" stroke-opacity="0.2" stroke-width="14.9141" stroke-linecap="round" stroke-linejoin="round"/>
</g>
<g filter="url(#filter14_f_576_3757)">
<path d="M239.124 299.703C199.174 403.661 209.504 503.348 265.311 528.5C324.999 555.399 414.106 486.852 464.337 375.394C514.568 263.936 506.901 151.776 447.214 124.876C390.878 99.487 308.335 159.125 257.007 259.617M269.142 530.062C286.952 538.428 306.829 547.485 315.897 551.572C375.585 578.471 458.195 511.904 508.426 400.447C558.657 288.989 556.116 175.801 496.428 148.902C490.535 146.246 474.89 137.91 457.432 130.629" stroke="#82D9FF" stroke-width="9.1779" stroke-linecap="round" stroke-linejoin="round"/>
</g>
<g filter="url(#filter15_f_576_3757)">
<path d="M239.124 299.703C199.174 403.661 209.504 503.348 265.311 528.5C324.999 555.399 414.106 486.852 464.337 375.394C514.568 263.936 506.901 151.776 447.214 124.876C390.878 99.487 308.335 159.125 257.007 259.617M269.142 530.062C286.952 538.428 306.829 547.485 315.897 551.572C375.585 578.471 458.195 511.904 508.426 400.447C558.657 288.989 556.116 175.801 496.428 148.902C490.535 146.246 474.89 137.91 457.432 130.629" stroke="white" stroke-width="4.58895" stroke-linecap="round" stroke-linejoin="round"/>
</g>
<g style="mix-blend-mode:hard-light" filter="url(#filter16_f_576_3757)">
<path d="M361.26 328.934L192.826 242.706M132.534 211.84C132.534 211.84 132.534 211.84 81.0543 238.595C124.299 266.275 192.826 242.706 192.826 242.706M132.534 211.84L192.826 242.706M132.534 211.84C132.534 211.84 134.364 199.744 136.386 155.711C192.43 187.39 192.826 242.706 192.826 242.706" stroke="#0094FF" stroke-width="14.9141" stroke-linecap="round" stroke-linejoin="round"/>
</g>
<g style="mix-blend-mode:hard-light" filter="url(#filter17_f_576_3757)">
<path d="M361.26 328.934L192.826 242.706M132.534 211.84C132.534 211.84 132.534 211.84 81.0543 238.595C124.299 266.275 192.826 242.706 192.826 242.706M132.534 211.84L192.826 242.706M132.534 211.84C132.534 211.84 134.364 199.744 136.386 155.711C192.43 187.39 192.826 242.706 192.826 242.706" stroke="#0094FF" stroke-width="19.503" stroke-linecap="round" stroke-linejoin="round"/>
</g>
<g style="mix-blend-mode:hard-light" filter="url(#filter18_ddi_576_3757)">
<path d="M361.26 328.934L192.826 242.706M132.534 211.84C132.534 211.84 132.534 211.84 81.0543 238.595C124.299 266.275 192.826 242.706 192.826 242.706M132.534 211.84L192.826 242.706M132.534 211.84C132.534 211.84 134.364 199.744 136.386 155.711C192.43 187.39 192.826 242.706 192.826 242.706" stroke="#00B3FF" stroke-opacity="0.2" stroke-width="14.9141" stroke-linecap="round" stroke-linejoin="round"/>
</g>
<g filter="url(#filter19_f_576_3757)">
<path d="M361.26 328.934L192.826 242.706M132.534 211.84C132.534 211.84 132.534 211.84 81.0543 238.595C124.299 266.275 192.826 242.706 192.826 242.706M132.534 211.84L192.826 242.706M132.534 211.84C132.534 211.84 134.364 199.744 136.386 155.711C192.43 187.39 192.826 242.706 192.826 242.706" stroke="#82D9FF" stroke-width="9.17791" stroke-linecap="round" stroke-linejoin="round"/>
</g>
<g filter="url(#filter20_f_576_3757)">
<path d="M361.26 328.934L192.826 242.706M132.534 211.84C132.534 211.84 132.534 211.84 81.0543 238.595C124.299 266.275 192.826 242.706 192.826 242.706M132.534 211.84L192.826 242.706M132.534 211.84C132.534 211.84 134.364 199.744 136.386 155.711C192.43 187.39 192.826 242.706 192.826 242.706" stroke="white" stroke-width="4.58895" stroke-linecap="round" stroke-linejoin="round"/>
</g>
</g>
<defs>
<filter id="filter0_f_576_3757" x="31.7067" y="28.59" width="617.396" height="617.372" filterUnits="userSpaceOnUse" color-interpolation-filters="sRGB">
<feFlood flood-opacity="0" result="BackgroundImageFix"/>
<feBlend mode="normal" in="SourceGraphic" in2="BackgroundImageFix" result="shape"/>
<feGaussianBlur stdDeviation="4.05315" result="effect1_foregroundBlur_576_3757"/>
</filter>
<filter id="filter1_f_576_3757" x="229.385" y="176.92" width="252.202" height="299.055" filterUnits="userSpaceOnUse" color-interpolation-filters="sRGB">
<feFlood flood-opacity="0" result="BackgroundImageFix"/>
<feBlend mode="normal" in="SourceGraphic" in2="BackgroundImageFix" result="shape"/>
<feGaussianBlur stdDeviation="34.4171" result="effect1_foregroundBlur_576_3757"/>
</filter>
<filter id="filter2_f_576_3757" x="272.981" y="220.512" width="165.012" height="211.873" filterUnits="userSpaceOnUse" color-interpolation-filters="sRGB">
<feFlood flood-opacity="0" result="BackgroundImageFix"/>
<feBlend mode="normal" in="SourceGraphic" in2="BackgroundImageFix" result="shape"/>
<feGaussianBlur stdDeviation="11.4724" result="effect1_foregroundBlur_576_3757"/>
</filter>
<filter id="filter3_ddi_576_3757" x="268.392" y="238.87" width="174.19" height="221.043" filterUnits="userSpaceOnUse" color-interpolation-filters="sRGB">
<feFlood flood-opacity="0" result="BackgroundImageFix"/>
<feColorMatrix in="SourceAlpha" type="matrix" values="0 0 0 0 0 0 0 0 0 0 0 0 0 0 0 0 0 0 127 0" result="hardAlpha"/>
<feOffset dy="14.9141"/>
<feGaussianBlur stdDeviation="5.73619"/>
<feColorMatrix type="matrix" values="0 0 0 0 0 0 0 0 0 0.051 0 0 0 0 0.082 0 0 0 0.7 0"/>
<feBlend mode="multiply" in2="BackgroundImageFix" result="effect1_dropShadow_576_3757"/>
<feColorMatrix in="SourceAlpha" type="matrix" values="0 0 0 0 0 0 0 0 0 0 0 0 0 0 0 0 0 0 127 0" result="hardAlpha"/>
<feOffset dy="22.9448"/>
<feGaussianBlur stdDeviation="14.9141"/>
<feColorMatrix type="matrix" values="0 0 0 0 0 0 0 0 0 0.4 0 0 0 0 1 0 0 0 1 0"/>
<feBlend mode="color-dodge" in2="effect1_dropShadow_576_3757" result="effect2_dropShadow_576_3757"/>
<feBlend mode="normal" in="SourceGraphic" in2="effect2_dropShadow_576_3757" result="shape"/>
<feColorMatrix in="SourceAlpha" type="matrix" values="0 0 0 0 0 0 0 0 0 0 0 0 0 0 0 0 0 0 127 0" result="hardAlpha"/>
<feOffset dx="-1.49141" dy="2.98282"/>
<feGaussianBlur stdDeviation="0.745705"/>
<feComposite in2="hardAlpha" operator="arithmetic" k2="-1" k3="1"/>
<feColorMatrix type="matrix" values="0 0 0 0 1 0 0 0 0 1 0 0 0 0 1 0 0 0 0.5 0"/>
<feBlend mode="normal" in2="shape" result="effect3_innerShadow_576_3757"/>
</filter>
<filter id="filter4_f_576_3757" x="298.793" y="246.332" width="113.386" height="160.23" filterUnits="userSpaceOnUse" color-interpolation-filters="sRGB">
<feFlood flood-opacity="0" result="BackgroundImageFix"/>
<feBlend mode="normal" in="SourceGraphic" in2="BackgroundImageFix" result="shape"/>
<feGaussianBlur stdDeviation="1.14724" result="effect1_foregroundBlur_576_3757"/>
</filter>
<filter id="filter5_f_576_3757" x="301.853" y="249.394" width="107.267" height="154.102" filterUnits="userSpaceOnUse" color-interpolation-filters="sRGB">
<feFlood flood-opacity="0" result="BackgroundImageFix"/>
<feBlend mode="normal" in="SourceGraphic" in2="BackgroundImageFix" result="shape"/>
<feGaussianBlur stdDeviation="0.764825" result="effect1_foregroundBlur_576_3757"/>
</filter>
<filter id="filter6_f_576_3757" x="185.383" y="111.717" width="339.973" height="428.083" filterUnits="userSpaceOnUse" color-interpolation-filters="sRGB">
<feFlood flood-opacity="0" result="BackgroundImageFix"/>
<feBlend mode="normal" in="SourceGraphic" in2="BackgroundImageFix" result="shape"/>
<feGaussianBlur stdDeviation="34.4171" result="effect1_foregroundBlur_576_3757"/>
</filter>
<filter id="filter7_f_576_3757" x="228.978" y="155.308" width="252.783" height="340.902" filterUnits="userSpaceOnUse" color-interpolation-filters="sRGB">
<feFlood flood-opacity="0" result="BackgroundImageFix"/>
<feBlend mode="normal" in="SourceGraphic" in2="BackgroundImageFix" result="shape"/>
<feGaussianBlur stdDeviation="11.4724" result="effect1_foregroundBlur_576_3757"/>
</filter>
<filter id="filter8_ddi_576_3757" x="224.389" y="173.668" width="261.961" height="350.07" filterUnits="userSpaceOnUse" color-interpolation-filters="sRGB">
<feFlood flood-opacity="0" result="BackgroundImageFix"/>
<feColorMatrix in="SourceAlpha" type="matrix" values="0 0 0 0 0 0 0 0 0 0 0 0 0 0 0 0 0 0 127 0" result="hardAlpha"/>
<feOffset dy="14.9141"/>
<feGaussianBlur stdDeviation="5.73619"/>
<feColorMatrix type="matrix" values="0 0 0 0 0 0 0 0 0 0.051 0 0 0 0 0.082 0 0 0 0.7 0"/>
<feBlend mode="multiply" in2="BackgroundImageFix" result="effect1_dropShadow_576_3757"/>
<feColorMatrix in="SourceAlpha" type="matrix" values="0 0 0 0 0 0 0 0 0 0 0 0 0 0 0 0 0 0 127 0" result="hardAlpha"/>
<feOffset dy="22.9448"/>
<feGaussianBlur stdDeviation="14.9141"/>
<feColorMatrix type="matrix" values="0 0 0 0 0 0 0 0 0 0.4 0 0 0 0 1 0 0 0 1 0"/>
<feBlend mode="color-dodge" in2="effect1_dropShadow_576_3757" result="effect2_dropShadow_576_3757"/>
<feBlend mode="normal" in="SourceGraphic" in2="effect2_dropShadow_576_3757" result="shape"/>
<feColorMatrix in="SourceAlpha" type="matrix" values="0 0 0 0 0 0 0 0 0 0 0 0 0 0 0 0 0 0 127 0" result="hardAlpha"/>
<feOffset dx="-1.49141" dy="2.98282"/>
<feGaussianBlur stdDeviation="0.745705"/>
<feComposite in2="hardAlpha" operator="arithmetic" k2="-1" k3="1"/>
<feColorMatrix type="matrix" values="0 0 0 0 1 0 0 0 0 1 0 0 0 0 1 0 0 0 0.5 0"/>
<feBlend mode="normal" in2="shape" result="effect3_innerShadow_576_3757"/>
</filter>
<filter id="filter9_f_576_3757" x="254.791" y="181.129" width="201.157" height="289.257" filterUnits="userSpaceOnUse" color-interpolation-filters="sRGB">
<feFlood flood-opacity="0" result="BackgroundImageFix"/>
<feBlend mode="normal" in="SourceGraphic" in2="BackgroundImageFix" result="shape"/>
<feGaussianBlur stdDeviation="1.14724" result="effect1_foregroundBlur_576_3757"/>
</filter>
<filter id="filter10_f_576_3757" x="257.85" y="184.192" width="195.038" height="283.131" filterUnits="userSpaceOnUse" color-interpolation-filters="sRGB">
<feFlood flood-opacity="0" result="BackgroundImageFix"/>
<feBlend mode="normal" in="SourceGraphic" in2="BackgroundImageFix" result="shape"/>
<feGaussianBlur stdDeviation="0.764825" result="effect1_foregroundBlur_576_3757"/>
</filter>
<filter id="filter11_f_576_3757" x="138.716" y="42.7302" width="481.403" height="591.108" filterUnits="userSpaceOnUse" color-interpolation-filters="sRGB">
<feFlood flood-opacity="0" result="BackgroundImageFix"/>
<feBlend mode="normal" in="SourceGraphic" in2="BackgroundImageFix" result="shape"/>
<feGaussianBlur stdDeviation="34.4171" result="effect1_foregroundBlur_576_3757"/>
</filter>
<filter id="filter12_f_576_3757" x="182.311" y="86.3209" width="394.213" height="503.928" filterUnits="userSpaceOnUse" color-interpolation-filters="sRGB">
<feFlood flood-opacity="0" result="BackgroundImageFix"/>
<feBlend mode="normal" in="SourceGraphic" in2="BackgroundImageFix" result="shape"/>
<feGaussianBlur stdDeviation="11.4724" result="effect1_foregroundBlur_576_3757"/>
</filter>
<filter id="filter13_ddi_576_3757" x="177.722" y="104.681" width="403.391" height="513.096" filterUnits="userSpaceOnUse" color-interpolation-filters="sRGB">
<feFlood flood-opacity="0" result="BackgroundImageFix"/>
<feColorMatrix in="SourceAlpha" type="matrix" values="0 0 0 0 0 0 0 0 0 0 0 0 0 0 0 0 0 0 127 0" result="hardAlpha"/>
<feOffset dy="14.9141"/>
<feGaussianBlur stdDeviation="5.73619"/>
<feColorMatrix type="matrix" values="0 0 0 0 0 0 0 0 0 0.051 0 0 0 0 0.082 0 0 0 0.7 0"/>
<feBlend mode="multiply" in2="BackgroundImageFix" result="effect1_dropShadow_576_3757"/>
<feColorMatrix in="SourceAlpha" type="matrix" values="0 0 0 0 0 0 0 0 0 0 0 0 0 0 0 0 0 0 127 0" result="hardAlpha"/>
<feOffset dy="22.9448"/>
<feGaussianBlur stdDeviation="14.9141"/>
<feColorMatrix type="matrix" values="0 0 0 0 0 0 0 0 0 0.4 0 0 0 0 1 0 0 0 1 0"/>
<feBlend mode="color-dodge" in2="effect1_dropShadow_576_3757" result="effect2_dropShadow_576_3757"/>
<feBlend mode="normal" in="SourceGraphic" in2="effect2_dropShadow_576_3757" result="shape"/>
<feColorMatrix in="SourceAlpha" type="matrix" values="0 0 0 0 0 0 0 0 0 0 0 0 0 0 0 0 0 0 127 0" result="hardAlpha"/>
<feOffset dx="-1.49141" dy="2.98282"/>
<feGaussianBlur stdDeviation="0.745705"/>
<feComposite in2="hardAlpha" operator="arithmetic" k2="-1" k3="1"/>
<feColorMatrix type="matrix" values="0 0 0 0 1 0 0 0 0 1 0 0 0 0 1 0 0 0 0.5 0"/>
<feBlend mode="normal" in2="shape" result="effect3_innerShadow_576_3757"/>
</filter>
<filter id="filter14_f_576_3757" x="208.123" y="112.143" width="342.587" height="452.281" filterUnits="userSpaceOnUse" color-interpolation-filters="sRGB">
<feFlood flood-opacity="0" result="BackgroundImageFix"/>
<feBlend mode="normal" in="SourceGraphic" in2="BackgroundImageFix" result="shape"/>
<feGaussianBlur stdDeviation="1.14724" result="effect1_foregroundBlur_576_3757"/>
</filter>
<filter id="filter15_f_576_3757" x="211.183" y="115.206" width="336.468" height="446.155" filterUnits="userSpaceOnUse" color-interpolation-filters="sRGB">
<feFlood flood-opacity="0" result="BackgroundImageFix"/>
<feBlend mode="normal" in="SourceGraphic" in2="BackgroundImageFix" result="shape"/>
<feGaussianBlur stdDeviation="0.764825" result="effect1_foregroundBlur_576_3757"/>
</filter>
<filter id="filter16_f_576_3757" x="38.8358" y="113.493" width="364.644" height="257.662" filterUnits="userSpaceOnUse" color-interpolation-filters="sRGB">
<feFlood flood-opacity="0" result="BackgroundImageFix"/>
<feBlend mode="normal" in="SourceGraphic" in2="BackgroundImageFix" result="shape"/>
<feGaussianBlur stdDeviation="17.3807" result="effect1_foregroundBlur_576_3757"/>
</filter>
<filter id="filter17_f_576_3757" x="59.7156" y="134.372" width="322.885" height="215.904" filterUnits="userSpaceOnUse" color-interpolation-filters="sRGB">
<feFlood flood-opacity="0" result="BackgroundImageFix"/>
<feBlend mode="normal" in="SourceGraphic" in2="BackgroundImageFix" result="shape"/>
<feGaussianBlur stdDeviation="5.79355" result="effect1_foregroundBlur_576_3757"/>
</filter>
<filter id="filter18_ddi_576_3757" x="58.5339" y="144.778" width="325.248" height="218.266" filterUnits="userSpaceOnUse" color-interpolation-filters="sRGB">
<feFlood flood-opacity="0" result="BackgroundImageFix"/>
<feColorMatrix in="SourceAlpha" type="matrix" values="0 0 0 0 0 0 0 0 0 0 0 0 0 0 0 0 0 0 127 0" result="hardAlpha"/>
<feOffset dy="14.9141"/>
<feGaussianBlur stdDeviation="5.73619"/>
<feColorMatrix type="matrix" values="0 0 0 0 0 0 0 0 0 0.051 0 0 0 0 0.082 0 0 0 0.7 0"/>
<feBlend mode="multiply" in2="BackgroundImageFix" result="effect1_dropShadow_576_3757"/>
<feColorMatrix in="SourceAlpha" type="matrix" values="0 0 0 0 0 0 0 0 0 0 0 0 0 0 0 0 0 0 127 0" result="hardAlpha"/>
<feOffset dy="11.5871"/>
<feGaussianBlur stdDeviation="7.53162"/>
<feColorMatrix type="matrix" values="0 0 0 0 0 0 0 0 0 0.4 0 0 0 0 1 0 0 0 1 0"/>
<feBlend mode="color-dodge" in2="effect1_dropShadow_576_3757" result="effect2_dropShadow_576_3757"/>
<feBlend mode="normal" in="SourceGraphic" in2="effect2_dropShadow_576_3757" result="shape"/>
<feColorMatrix in="SourceAlpha" type="matrix" values="0 0 0 0 0 0 0 0 0 0 0 0 0 0 0 0 0 0 127 0" result="hardAlpha"/>
<feOffset dx="-1.49141" dy="2.98282"/>
<feGaussianBlur stdDeviation="0.745705"/>
<feComposite in2="hardAlpha" operator="arithmetic" k2="-1" k3="1"/>
<feColorMatrix type="matrix" values="0 0 0 0 1 0 0 0 0 1 0 0 0 0 1 0 0 0 0.5 0"/>
<feBlend mode="normal" in2="shape" result="effect3_innerShadow_576_3757"/>
</filter>
<filter id="filter19_f_576_3757" x="74.1709" y="148.828" width="293.973" height="186.991" filterUnits="userSpaceOnUse" color-interpolation-filters="sRGB">
<feFlood flood-opacity="0" result="BackgroundImageFix"/>
<feBlend mode="normal" in="SourceGraphic" in2="BackgroundImageFix" result="shape"/>
<feGaussianBlur stdDeviation="1.14724" result="effect1_foregroundBlur_576_3757"/>
</filter>
<filter id="filter20_f_576_3757" x="77.2301" y="151.886" width="287.854" height="180.873" filterUnits="userSpaceOnUse" color-interpolation-filters="sRGB">
<feFlood flood-opacity="0" result="BackgroundImageFix"/>
<feBlend mode="normal" in="SourceGraphic" in2="BackgroundImageFix" result="shape"/>
<feGaussianBlur stdDeviation="0.764825" result="effect1_foregroundBlur_576_3757"/>
</filter>
</defs>
</svg>
