<svg viewBox="0 0 718 313" fill="none" xmlns="http://www.w3.org/2000/svg">
    <g filter="url(#filter0_f_824_5087)">
        <g style="mix-blend-mode:hard-light" filter="url(#filter1_f_824_5087)">
            <path d="M83.9137 32.2989C85.6681 27.9301 91.8528 27.9301 93.6072 32.2989L105.216 61.2065C105.963 63.0669 107.709 64.3355 109.709 64.4711L140.789 66.5785C145.486 66.897 147.397 72.779 143.784 75.7976L119.879 95.7708C118.34 97.0562 117.674 99.1089 118.163 101.053L125.763 131.263C126.911 135.829 121.908 139.464 117.92 136.961L91.5375 120.397C89.8396 119.331 87.6813 119.331 85.9834 120.397L59.6005 136.961C55.6132 139.464 50.6097 135.829 51.7583 131.263L59.3583 101.053C59.8474 99.1089 59.1804 97.0562 57.6419 95.7708L33.7364 75.7976C30.1236 72.779 32.0348 66.897 36.7319 66.5785L67.8118 64.4711C69.8121 64.3355 71.5581 63.0669 72.3052 61.2065L83.9137 32.2989Z" fill="#0094FF" fill-opacity="0.5"/>
            <path d="M86.1447 33.1949C87.0916 30.8371 90.4293 30.8371 91.3762 33.1949L102.985 62.1024C104.076 64.8192 106.625 66.6718 109.546 66.8698L140.626 68.9772C143.161 69.1491 144.193 72.3235 142.243 73.9526L118.337 93.9258C116.091 95.803 115.117 98.8005 115.831 101.64L123.431 131.85C124.051 134.314 121.351 136.276 119.199 134.925L92.8159 118.361C90.3363 116.805 87.1846 116.805 84.705 118.361L58.3222 134.925C56.1703 136.276 53.47 134.314 54.0898 131.85L61.6898 101.64C62.4041 98.8005 61.4301 95.803 59.1834 93.9258L35.2779 73.9526C33.3281 72.3235 34.3596 69.1491 36.8945 68.9772L67.9745 66.8698C70.8954 66.6718 73.4453 64.8192 74.5363 62.1024L86.1447 33.1949Z" stroke="#0094FF" stroke-width="4.8084"/>
        </g>
        <g style="mix-blend-mode:hard-light" filter="url(#filter2_f_824_5087)">
            <path d="M86.8312 33.4705C87.5295 31.7315 89.9914 31.7315 90.6897 33.4705L102.298 62.3781C103.495 65.3584 106.292 67.3906 109.496 67.6079L140.576 69.7153C142.446 69.842 143.207 72.1834 141.769 73.3849L117.863 93.3581C115.399 95.4173 114.33 98.7056 115.114 101.82L122.714 132.03C123.171 133.847 121.179 135.295 119.592 134.298L93.2092 117.735C90.4892 116.027 87.0317 116.027 84.3117 117.735L57.9288 134.298C56.3417 135.295 54.35 133.847 54.8072 132.03L62.4072 101.82C63.1908 98.7056 62.1224 95.4173 59.6577 93.3581L35.7523 73.3849C34.3141 72.1834 35.0749 69.842 36.9446 69.7153L68.0245 67.6079C71.2288 67.3906 74.0259 65.3584 75.2227 62.3781L86.8312 33.4705Z" stroke="#0094FF" stroke-width="6.2879"/>
        </g>
        <g style="mix-blend-mode:hard-light" filter="url(#filter3_ddi_824_5087)">
            <path d="M86.1447 33.1949C87.0916 30.8371 90.4293 30.8371 91.3762 33.1949L102.985 62.1024C104.076 64.8192 106.625 66.6718 109.546 66.8698L140.626 68.9772C143.161 69.1491 144.193 72.3235 142.243 73.9526L118.337 93.9258C116.091 95.803 115.117 98.8005 115.831 101.64L123.431 131.85C124.051 134.314 121.351 136.276 119.199 134.925L92.8159 118.361C90.3363 116.805 87.1846 116.805 84.705 118.361L58.3222 134.925C56.1703 136.276 53.47 134.314 54.0898 131.85L61.6898 101.64C62.4041 98.8005 61.4301 95.803 59.1834 93.9258L35.2779 73.9526C33.3281 72.3235 34.3596 69.1491 36.8945 68.9772L67.9745 66.8698C70.8954 66.6718 73.4453 64.8192 74.5363 62.1024L86.1447 33.1949Z" stroke="#00B3FF" stroke-opacity="0.2" stroke-width="4.8084"/>
        </g>
        <g filter="url(#filter4_f_824_5087)">
            <path d="M85.2866 32.8503C86.5441 29.719 90.9768 29.719 92.2343 32.8503L103.843 61.7578C104.801 64.1452 107.042 65.7732 109.609 65.9472L140.689 68.0546C144.055 68.2829 145.425 72.4987 142.836 74.6622L118.93 94.6354C116.956 96.285 116.1 98.9191 116.728 101.414L124.328 131.624C125.151 134.896 121.565 137.502 118.707 135.708L92.3242 119.144C90.1453 117.776 87.3756 117.776 85.1967 119.144L58.8138 135.708C55.956 137.502 52.3699 134.896 53.1931 131.624L60.7931 101.414C61.4207 98.9191 60.5649 96.285 58.5905 94.6354L34.6851 74.6622C32.0956 72.4987 33.4654 68.2829 36.832 68.0546L67.9119 65.9472C70.4788 65.7732 72.7194 64.1452 73.6782 61.7578L85.2866 32.8503Z" stroke="#82D9FF" stroke-width="2.95901"/>
        </g>
        <g filter="url(#filter5_f_824_5087)">
            <path d="M84.6002 32.5746C86.1061 28.8245 91.4148 28.8245 92.9207 32.5746L104.529 61.4821C105.382 63.6061 107.375 65.0543 109.659 65.2092L140.739 67.3166C144.771 67.59 146.411 72.6389 143.31 75.2299L119.405 95.2031C117.648 96.6706 116.887 99.014 117.445 101.234L125.045 131.444C126.031 135.363 121.736 138.483 118.314 136.334L91.9309 119.771C89.9924 118.554 87.5285 118.554 85.59 119.771L59.2072 136.334C55.7846 138.483 51.4898 135.363 52.4757 131.444L60.0757 101.234C60.6341 99.014 59.8727 96.6706 58.1162 95.2031L34.2108 75.2299C31.1096 72.6389 32.7501 67.59 36.7819 67.3166L67.8619 65.2092C70.1454 65.0543 72.1388 63.6061 72.9917 61.4821L84.6002 32.5746Z" stroke="white" stroke-width="1.47951"/>
        </g>
    </g>
    <g filter="url(#filter6_f_824_5087)">
        <g style="mix-blend-mode:hard-light" filter="url(#filter7_f_824_5087)">
            <path d="M264.073 32.2989C265.828 27.9301 272.012 27.9301 273.767 32.2989L285.375 61.2065C286.122 63.0669 287.869 64.3355 289.869 64.4711L320.949 66.5785C325.646 66.897 327.557 72.779 323.944 75.7976L300.039 95.7708C298.5 97.0562 297.833 99.1089 298.322 101.053L305.922 131.263C307.071 135.829 302.067 139.464 298.08 136.961L271.697 120.397C269.999 119.331 267.841 119.331 266.143 120.397L239.76 136.961C235.773 139.464 230.769 135.829 231.918 131.263L239.518 101.053C240.007 99.1089 239.34 97.0562 237.802 95.7708L213.896 75.7976C210.283 72.779 212.194 66.897 216.892 66.5785L247.971 64.4711C249.972 64.3355 251.718 63.0669 252.465 61.2065L264.073 32.2989Z" fill="#0094FF" fill-opacity="0.5"/>
            <path d="M266.304 33.1949C267.251 30.8371 270.589 30.8371 271.536 33.1949L283.144 62.1024C284.235 64.8192 286.785 66.6718 289.706 66.8698L320.786 68.9772C323.321 69.1491 324.352 72.3235 322.403 73.9526L298.497 93.9258C296.25 95.803 295.276 98.8005 295.991 101.64L303.591 131.85C304.211 134.314 301.51 136.276 299.358 134.925L272.976 118.361C270.496 116.805 267.344 116.805 264.865 118.361L238.482 134.925C236.33 136.276 233.63 134.314 234.25 131.85L241.849 101.64C242.564 98.8005 241.59 95.803 239.343 93.9258L215.438 73.9526C213.488 72.3235 214.519 69.1491 217.054 68.9772L248.134 66.8698C251.055 66.6718 253.605 64.8192 254.696 62.1024L266.304 33.1949Z" stroke="#0094FF" stroke-width="4.8084"/>
        </g>
        <g style="mix-blend-mode:hard-light" filter="url(#filter8_f_824_5087)">
            <path d="M266.991 33.4705C267.689 31.7315 270.151 31.7315 270.849 33.4705L282.458 62.3781C283.655 65.3584 286.452 67.3906 289.656 67.6079L320.736 69.7153C322.606 69.842 323.366 72.1834 321.928 73.3849L298.023 93.3581C295.558 95.4173 294.49 98.7056 295.273 101.82L302.873 132.03C303.331 133.847 301.339 135.295 299.752 134.298L273.369 117.735C270.649 116.027 267.191 116.027 264.471 117.735L238.088 134.298C236.501 135.295 234.51 133.847 234.967 132.03L242.567 101.82C243.35 98.7056 242.282 95.4173 239.817 93.3581L215.912 73.3849C214.474 72.1834 215.235 69.842 217.104 69.7153L248.184 67.6079C251.388 67.3906 254.186 65.3584 255.382 62.3781L266.991 33.4705Z" stroke="#0094FF" stroke-width="6.2879"/>
        </g>
        <g style="mix-blend-mode:hard-light" filter="url(#filter9_ddi_824_5087)">
            <path d="M266.304 33.1949C267.251 30.8371 270.589 30.8371 271.536 33.1949L283.144 62.1024C284.235 64.8192 286.785 66.6718 289.706 66.8698L320.786 68.9772C323.321 69.1491 324.352 72.3235 322.403 73.9526L298.497 93.9258C296.25 95.803 295.276 98.8005 295.991 101.64L303.591 131.85C304.211 134.314 301.51 136.276 299.358 134.925L272.976 118.361C270.496 116.805 267.344 116.805 264.865 118.361L238.482 134.925C236.33 136.276 233.63 134.314 234.25 131.85L241.849 101.64C242.564 98.8005 241.59 95.803 239.343 93.9258L215.438 73.9526C213.488 72.3235 214.519 69.1491 217.054 68.9772L248.134 66.8698C251.055 66.6718 253.605 64.8192 254.696 62.1024L266.304 33.1949Z" stroke="#00B3FF" stroke-opacity="0.2" stroke-width="4.8084"/>
        </g>
        <g filter="url(#filter10_f_824_5087)">
            <path d="M265.446 32.8503C266.704 29.719 271.136 29.719 272.394 32.8503L284.002 61.7578C284.961 64.1452 287.202 65.7732 289.769 65.9472L320.849 68.0546C324.215 68.2829 325.585 72.4987 322.995 74.6622L299.09 94.6354C297.116 96.285 296.26 98.9191 296.887 101.414L304.487 131.624C305.311 134.896 301.725 137.502 298.867 135.708L272.484 119.144C270.305 117.776 267.535 117.776 265.356 119.144L238.973 135.708C236.116 137.502 232.53 134.896 233.353 131.624L240.953 101.414C241.58 98.9191 240.725 96.285 238.75 94.6354L214.845 74.6622C212.255 72.4987 213.625 68.2829 216.992 68.0546L248.072 65.9472C250.638 65.7732 252.879 64.1452 253.838 61.7578L265.446 32.8503Z" stroke="#82D9FF" stroke-width="2.95901"/>
        </g>
        <g filter="url(#filter11_f_824_5087)">
            <path d="M264.76 32.5746C266.266 28.8245 271.574 28.8245 273.08 32.5746L284.689 61.4821C285.542 63.6061 287.535 65.0543 289.819 65.2092L320.899 67.3166C324.93 67.59 326.571 72.6389 323.47 75.2299L299.564 95.2031C297.808 96.6706 297.046 99.014 297.605 101.234L305.205 131.444C306.191 135.363 301.896 138.483 298.473 136.334L272.091 119.771C270.152 118.554 267.688 118.554 265.75 119.771L239.367 136.334C235.944 138.483 231.649 135.363 232.635 131.444L240.235 101.234C240.794 99.014 240.032 96.6706 238.276 95.2031L214.37 75.2299C211.269 72.6389 212.91 67.59 216.942 67.3166L248.022 65.2092C250.305 65.0543 252.298 63.6061 253.151 61.4821L264.76 32.5746Z" stroke="white" stroke-width="1.47951"/>
        </g>
    </g>
    <g filter="url(#filter12_f_824_5087)">
        <g style="mix-blend-mode:hard-light" filter="url(#filter13_f_824_5087)">
            <path d="M444.233 32.2989C445.987 27.9301 452.172 27.9301 453.927 32.2989L465.535 61.2065C466.282 63.0669 468.028 64.3355 470.028 64.4711L501.108 66.5785C505.805 66.897 507.717 72.779 504.104 75.7976L480.198 95.7708C478.66 97.0562 477.993 99.1089 478.482 101.053L486.082 131.263C487.231 135.829 482.227 139.464 478.24 136.961L451.857 120.397C450.159 119.331 448.001 119.331 446.303 120.397L419.92 136.961C415.933 139.464 410.929 135.829 412.078 131.263L419.678 101.053C420.167 99.1089 419.5 97.0562 417.961 95.7708L394.056 75.7976C390.443 72.779 392.354 66.897 397.051 66.5785L428.131 64.4711C430.131 64.3355 431.877 63.0669 432.625 61.2065L444.233 32.2989Z" fill="#0094FF" fill-opacity="0.5"/>
            <path d="M446.464 33.1949C447.411 30.8371 450.749 30.8371 451.696 33.1949L463.304 62.1024C464.395 64.8192 466.945 66.6718 469.866 66.8698L500.946 68.9772C503.481 69.1491 504.512 72.3235 502.562 73.9526L478.657 93.9258C476.41 95.803 475.436 98.8005 476.15 101.64L483.75 131.85C484.37 134.314 481.67 136.276 479.518 134.925L453.135 118.361C450.656 116.805 447.504 116.805 445.024 118.361L418.642 134.925C416.49 136.276 413.789 134.314 414.409 131.85L422.009 101.64C422.723 98.8005 421.749 95.803 419.503 93.9258L395.597 73.9526C393.647 72.3235 394.679 69.1491 397.214 68.9772L428.294 66.8698C431.215 66.6718 433.765 64.8192 434.856 62.1024L446.464 33.1949Z" stroke="#0094FF" stroke-width="4.8084"/>
        </g>
        <g style="mix-blend-mode:hard-light" filter="url(#filter14_f_824_5087)">
            <path d="M447.151 33.4705C447.849 31.7315 450.311 31.7315 451.009 33.4705L462.617 62.3781C463.814 65.3584 466.611 67.3906 469.816 67.6079L500.896 69.7153C502.765 69.842 503.526 72.1834 502.088 73.3849L478.182 93.3581C475.718 95.4173 474.649 98.7056 475.433 101.82L483.033 132.03C483.49 133.847 481.499 135.295 479.911 134.298L453.529 117.735C450.809 116.027 447.351 116.027 444.631 117.735L418.248 134.298C416.661 135.295 414.669 133.847 415.127 132.03L422.727 101.82C423.51 98.7056 422.442 95.4173 419.977 93.3581L396.072 73.3849C394.633 72.1834 395.394 69.842 397.264 69.7153L428.344 67.6079C431.548 67.3906 434.345 65.3584 435.542 62.3781L447.151 33.4705Z" stroke="#0094FF" stroke-width="6.2879"/>
        </g>
        <g style="mix-blend-mode:hard-light" filter="url(#filter15_ddi_824_5087)">
            <path d="M446.464 33.1949C447.411 30.8371 450.749 30.8371 451.696 33.1949L463.304 62.1024C464.395 64.8192 466.945 66.6718 469.866 66.8698L500.946 68.9772C503.481 69.1491 504.512 72.3235 502.562 73.9526L478.657 93.9258C476.41 95.803 475.436 98.8005 476.15 101.64L483.75 131.85C484.37 134.314 481.67 136.276 479.518 134.925L453.135 118.361C450.656 116.805 447.504 116.805 445.024 118.361L418.642 134.925C416.49 136.276 413.789 134.314 414.409 131.85L422.009 101.64C422.723 98.8005 421.749 95.803 419.503 93.9258L395.597 73.9526C393.647 72.3235 394.679 69.1491 397.214 68.9772L428.294 66.8698C431.215 66.6718 433.765 64.8192 434.856 62.1024L446.464 33.1949Z" stroke="#00B3FF" stroke-opacity="0.2" stroke-width="4.8084"/>
        </g>
        <g filter="url(#filter16_f_824_5087)">
            <path d="M445.606 32.8503C446.863 29.719 451.296 29.719 452.554 32.8503L464.162 61.7578C465.121 64.1452 467.361 65.7732 469.928 65.9472L501.008 68.0546C504.375 68.2829 505.745 72.4987 503.155 74.6622L479.25 94.6354C477.275 96.285 476.419 98.9191 477.047 101.414L484.647 131.624C485.47 134.896 481.884 137.502 479.026 135.708L452.644 119.144C450.465 117.776 447.695 117.776 445.516 119.144L419.133 135.708C416.275 137.502 412.689 134.896 413.512 131.624L421.112 101.414C421.74 98.9191 420.884 96.285 418.91 94.6354L395.004 74.6622C392.415 72.4987 393.785 68.2829 397.151 68.0546L428.231 65.9472C430.798 65.7732 433.039 64.1452 433.998 61.7578L445.606 32.8503Z" stroke="#82D9FF" stroke-width="2.95901"/>
        </g>
        <g filter="url(#filter17_f_824_5087)">
            <path d="M444.92 32.5746C446.425 28.8245 451.734 28.8245 453.24 32.5746L464.849 61.4821C465.701 63.6061 467.695 65.0543 469.978 65.2092L501.058 67.3166C505.09 67.59 506.731 72.6389 503.629 75.2299L479.724 95.2031C477.968 96.6706 477.206 99.014 477.765 101.234L485.365 131.444C486.35 135.363 482.056 138.483 478.633 136.334L452.25 119.771C450.312 118.554 447.848 118.554 445.909 119.771L419.527 136.334C416.104 138.483 411.809 135.363 412.795 131.444L420.395 101.234C420.953 99.014 420.192 96.6706 418.436 95.2031L394.53 75.2299C391.429 72.6389 393.069 67.59 397.101 67.3166L428.181 65.2092C430.465 65.0543 432.458 63.6061 433.311 61.4821L444.92 32.5746Z" stroke="white" stroke-width="1.47951"/>
        </g>
    </g>
    <g filter="url(#filter18_f_824_5087)">
        <g style="mix-blend-mode:hard-light" filter="url(#filter19_f_824_5087)">
            <path d="M624.393 32.2989C626.147 27.9301 632.332 27.9301 634.086 32.2989L645.695 61.2065C646.442 63.0669 648.188 64.3355 650.188 64.4711L681.268 66.5785C685.965 66.897 687.876 72.779 684.263 75.7976L660.358 95.7708C658.819 97.0562 658.153 99.1089 658.642 101.053L666.242 131.263C667.39 135.829 662.387 139.464 658.399 136.961L632.017 120.397C630.319 119.331 628.16 119.331 626.462 120.397L600.08 136.961C596.092 139.464 591.089 135.829 592.237 131.263L599.837 101.053C600.326 99.1089 599.659 97.0562 598.121 95.7708L574.215 75.7976C570.603 72.779 572.514 66.897 577.211 66.5785L608.291 64.4711C610.291 64.3355 612.037 63.0669 612.784 61.2065L624.393 32.2989Z" fill="#0094FF" fill-opacity="0.5"/>
            <path d="M626.624 33.1949C627.571 30.8371 630.908 30.8371 631.855 33.1949L643.464 62.1024C644.555 64.8192 647.104 66.6718 650.025 66.8698L681.105 68.9772C683.64 69.1491 684.672 72.3235 682.722 73.9526L658.816 93.9258C656.57 95.803 655.596 98.8005 656.31 101.64L663.91 131.85C664.53 134.314 661.83 136.276 659.678 134.925L633.295 118.361C630.815 116.805 627.664 116.805 625.184 118.361L598.801 134.925C596.649 136.276 593.949 134.314 594.569 131.85L602.169 101.64C602.883 98.8005 601.909 95.803 599.662 93.9258L575.757 73.9526C573.807 72.3235 574.839 69.1491 577.374 68.9772L608.453 66.8698C611.374 66.6718 613.924 64.8192 615.015 62.1024L626.624 33.1949Z" stroke="#0094FF" stroke-width="4.8084"/>
        </g>
        <g style="mix-blend-mode:hard-light" filter="url(#filter20_f_824_5087)">
            <path d="M627.31 33.4705C628.009 31.7315 630.47 31.7315 631.169 33.4705L642.777 62.3781C643.974 65.3584 646.771 67.3906 649.975 67.6079L681.055 69.7153C682.925 69.842 683.686 72.1834 682.248 73.3849L658.342 93.3581C655.878 95.4173 654.809 98.7056 655.593 101.82L663.193 132.03C663.65 133.847 661.658 135.295 660.071 134.298L633.688 117.735C630.968 116.027 627.511 116.027 624.791 117.735L598.408 134.298C596.821 135.295 594.829 133.847 595.286 132.03L602.886 101.82C603.67 98.7056 602.601 95.4173 600.137 93.3581L576.231 73.3849C574.793 72.1834 575.554 69.842 577.424 69.7153L608.504 67.6079C611.708 67.3906 614.505 65.3584 615.702 62.3781L627.31 33.4705Z" stroke="#0094FF" stroke-width="6.2879"/>
        </g>
        <g style="mix-blend-mode:hard-light" filter="url(#filter21_ddi_824_5087)">
            <path d="M626.624 33.1949C627.571 30.8371 630.908 30.8371 631.855 33.1949L643.464 62.1024C644.555 64.8192 647.104 66.6718 650.025 66.8698L681.105 68.9772C683.64 69.1491 684.672 72.3235 682.722 73.9526L658.816 93.9258C656.57 95.803 655.596 98.8005 656.31 101.64L663.91 131.85C664.53 134.314 661.83 136.276 659.678 134.925L633.295 118.361C630.815 116.805 627.664 116.805 625.184 118.361L598.801 134.925C596.649 136.276 593.949 134.314 594.569 131.85L602.169 101.64C602.883 98.8005 601.909 95.803 599.662 93.9258L575.757 73.9526C573.807 72.3235 574.839 69.1491 577.374 68.9772L608.453 66.8698C611.374 66.6718 613.924 64.8192 615.015 62.1024L626.624 33.1949Z" stroke="#00B3FF" stroke-opacity="0.2" stroke-width="4.8084"/>
        </g>
        <g filter="url(#filter22_f_824_5087)">
            <path d="M625.766 32.8503C627.023 29.719 631.456 29.719 632.713 32.8503L644.322 61.7578C645.28 64.1452 647.521 65.7732 650.088 65.9472L681.168 68.0546C684.534 68.2829 685.904 72.4987 683.315 74.6622L659.409 94.6354C657.435 96.285 656.579 98.9191 657.207 101.414L664.807 131.624C665.63 134.896 662.044 137.502 659.186 135.708L632.803 119.144C630.624 117.776 627.855 117.776 625.676 119.144L599.293 135.708C596.435 137.502 592.849 134.896 593.672 131.624L601.272 101.414C601.9 98.9191 601.044 96.285 599.07 94.6354L575.164 74.6622C572.575 72.4987 573.944 68.2829 577.311 68.0546L608.391 65.9472C610.958 65.7732 613.198 64.1452 614.157 61.7578L625.766 32.8503Z" stroke="#82D9FF" stroke-width="2.95901"/>
        </g>
        <g filter="url(#filter23_f_824_5087)">
            <path d="M625.079 32.5746C626.585 28.8245 631.894 28.8245 633.4 32.5746L645.008 61.4821C645.861 63.6061 647.854 65.0543 650.138 65.2092L681.218 67.3166C685.25 67.59 686.89 72.6389 683.789 75.2299L659.884 95.2031C658.127 96.6706 657.366 99.014 657.924 101.234L665.524 131.444C666.51 135.363 662.215 138.483 658.793 136.334L632.41 119.771C630.471 118.554 628.007 118.554 626.069 119.771L599.686 136.334C596.264 138.483 591.969 135.363 592.955 131.444L600.555 101.234C601.113 99.014 600.352 96.6706 598.595 95.2031L574.69 75.2299C571.589 72.6389 573.229 67.59 577.261 67.3166L608.341 65.2092C610.624 65.0543 612.618 63.6061 613.471 61.4821L625.079 32.5746Z" stroke="white" stroke-width="1.47951"/>
        </g>
    </g>
    <g filter="url(#filter24_f_824_5087)">
        <g style="mix-blend-mode:hard-light" filter="url(#filter25_f_824_5087)">
            <path d="M173.994 168.019C175.748 163.65 181.933 163.65 183.687 168.019L195.296 196.926C196.043 198.787 197.789 200.055 199.789 200.191L230.869 202.298C235.566 202.617 237.477 208.499 233.865 211.517L209.959 231.491C208.421 232.776 207.754 234.829 208.243 236.773L215.843 266.983C216.991 271.548 211.988 275.184 208 272.681L181.618 256.117C179.92 255.051 177.761 255.051 176.063 256.117L149.681 272.681C145.693 275.184 140.69 271.548 141.838 266.983L149.438 236.773C149.927 234.829 149.261 232.776 147.722 231.491L123.817 211.517C120.204 208.499 122.115 202.617 126.812 202.298L157.892 200.191C159.892 200.055 161.638 198.787 162.385 196.926L173.994 168.019Z" fill="#0094FF" fill-opacity="0.5"/>
            <path d="M176.225 168.915C177.172 166.557 180.509 166.557 181.456 168.915L193.065 197.822C194.156 200.539 196.706 202.391 199.627 202.59L230.706 204.697C233.241 204.869 234.273 208.043 232.323 209.672L208.418 229.646C206.171 231.523 205.197 234.52 205.911 237.359L213.511 267.569C214.131 270.033 211.431 271.995 209.279 270.644L182.896 254.081C180.416 252.524 177.265 252.524 174.785 254.081L148.402 270.644C146.25 271.995 143.55 270.033 144.17 267.569L151.77 237.359C152.484 234.52 151.51 231.523 149.264 229.646L125.358 209.672C123.408 208.043 124.44 204.869 126.975 204.697L158.055 202.59C160.976 202.391 163.525 200.539 164.616 197.822L176.225 168.915Z" stroke="#0094FF" stroke-width="4.8084"/>
        </g>
        <g style="mix-blend-mode:hard-light" filter="url(#filter26_f_824_5087)">
            <path d="M176.911 169.19C177.61 167.451 180.071 167.451 180.77 169.19L192.378 198.098C193.575 201.078 196.372 203.11 199.576 203.328L230.656 205.435C232.526 205.562 233.287 207.903 231.849 209.105L207.943 229.078C205.479 231.137 204.41 234.425 205.194 237.54L212.794 267.75C213.251 269.567 211.259 271.014 209.672 270.018L183.289 253.454C180.569 251.747 177.112 251.747 174.392 253.454L148.009 270.018C146.422 271.014 144.43 269.567 144.887 267.75L152.487 237.54C153.271 234.425 152.202 231.137 149.738 229.078L125.832 209.105C124.394 207.903 125.155 205.562 127.025 205.435L158.105 203.328C161.309 203.11 164.106 201.078 165.303 198.098L176.911 169.19Z" stroke="#0094FF" stroke-width="6.2879"/>
        </g>
        <g style="mix-blend-mode:hard-light" filter="url(#filter27_ddi_824_5087)">
            <path d="M176.225 168.915C177.172 166.557 180.509 166.557 181.456 168.915L193.065 197.822C194.156 200.539 196.706 202.391 199.627 202.59L230.706 204.697C233.241 204.869 234.273 208.043 232.323 209.672L208.418 229.646C206.171 231.523 205.197 234.52 205.911 237.359L213.511 267.569C214.131 270.033 211.431 271.995 209.279 270.644L182.896 254.081C180.416 252.524 177.265 252.524 174.785 254.081L148.402 270.644C146.25 271.995 143.55 270.033 144.17 267.569L151.77 237.359C152.484 234.52 151.51 231.523 149.264 229.646L125.358 209.672C123.408 208.043 124.44 204.869 126.975 204.697L158.055 202.59C160.976 202.391 163.525 200.539 164.616 197.822L176.225 168.915Z" stroke="#00B3FF" stroke-opacity="0.2" stroke-width="4.8084"/>
        </g>
        <g filter="url(#filter28_f_824_5087)">
            <path d="M175.367 168.57C176.624 165.439 181.057 165.439 182.314 168.57L193.923 197.478C194.882 199.865 197.122 201.493 199.689 201.667L230.769 203.774C234.136 204.003 235.505 208.218 232.916 210.382L209.01 230.355C207.036 232.005 206.18 234.639 206.808 237.134L214.408 267.344C215.231 270.616 211.645 273.222 208.787 271.427L182.404 254.864C180.225 253.496 177.456 253.496 175.277 254.864L148.894 271.427C146.036 273.222 142.45 270.616 143.273 267.344L150.873 237.134C151.501 234.639 150.645 232.005 148.671 230.355L124.765 210.382C122.176 208.218 123.545 204.003 126.912 203.774L157.992 201.667C160.559 201.493 162.8 199.865 163.758 197.478L175.367 168.57Z" stroke="#82D9FF" stroke-width="2.95901"/>
        </g>
        <g filter="url(#filter29_f_824_5087)">
            <path d="M174.68 168.294C176.186 164.544 181.495 164.544 183.001 168.294L194.609 197.202C195.462 199.326 197.456 200.774 199.739 200.929L230.819 203.036C234.851 203.31 236.491 208.359 233.39 210.95L209.485 230.923C207.728 232.39 206.967 234.734 207.525 236.953L215.125 267.163C216.111 271.082 211.816 274.203 208.394 272.054L182.011 255.491C180.073 254.274 177.609 254.274 175.67 255.491L149.287 272.054C145.865 274.203 141.57 271.082 142.556 267.163L150.156 236.953C150.714 234.734 149.953 232.39 148.196 230.923L124.291 210.95C121.19 208.359 122.83 203.31 126.862 203.036L157.942 200.929C160.225 200.774 162.219 199.326 163.072 197.202L174.68 168.294Z" stroke="white" stroke-width="1.47951"/>
        </g>
    </g>
    <g filter="url(#filter30_f_824_5087)">
        <g style="mix-blend-mode:hard-light" filter="url(#filter31_f_824_5087)">
            <path d="M354.153 168.019C355.908 163.65 362.093 163.65 363.847 168.019L375.455 196.926C376.202 198.787 377.949 200.055 379.949 200.191L411.029 202.298C415.726 202.617 417.637 208.499 414.024 211.517L390.119 231.491C388.58 232.776 387.913 234.829 388.402 236.773L396.002 266.983C397.151 271.548 392.147 275.184 388.16 272.681L361.777 256.117C360.079 255.051 357.921 255.051 356.223 256.117L329.84 272.681C325.853 275.184 320.849 271.548 321.998 266.983L329.598 236.773C330.087 234.829 329.42 232.776 327.882 231.491L303.976 211.517C300.363 208.499 302.275 202.617 306.972 202.298L338.052 200.191C340.052 200.055 341.798 198.787 342.545 196.926L354.153 168.019Z" fill="#0094FF" fill-opacity="0.5"/>
            <path d="M356.384 168.915C357.331 166.557 360.669 166.557 361.616 168.915L373.224 197.822C374.315 200.539 376.865 202.391 379.786 202.59L410.866 204.697C413.401 204.869 414.433 208.043 412.483 209.672L388.577 229.646C386.33 231.523 385.357 234.52 386.071 237.359L393.671 267.569C394.291 270.033 391.59 271.995 389.438 270.644L363.056 254.081C360.576 252.524 357.424 252.524 354.945 254.081L328.562 270.644C326.41 271.995 323.71 270.033 324.33 267.569L331.93 237.359C332.644 234.52 331.67 231.523 329.423 229.646L305.518 209.672C303.568 208.043 304.599 204.869 307.134 204.697L338.214 202.59C341.135 202.391 343.685 200.539 344.776 197.822L356.384 168.915Z" stroke="#0094FF" stroke-width="4.8084"/>
        </g>
        <g style="mix-blend-mode:hard-light" filter="url(#filter32_f_824_5087)">
            <path d="M357.071 169.19C357.769 167.451 360.231 167.451 360.929 169.19L372.538 198.098C373.735 201.078 376.532 203.11 379.736 203.328L410.816 205.435C412.686 205.562 413.446 207.903 412.008 209.105L388.103 229.078C385.638 231.137 384.57 234.425 385.353 237.54L392.953 267.75C393.411 269.567 391.419 271.014 389.832 270.018L363.449 253.454C360.729 251.747 357.271 251.747 354.551 253.454L328.169 270.018C326.581 271.014 324.59 269.567 325.047 267.75L332.647 237.54C333.431 234.425 332.362 231.137 329.897 229.078L305.992 209.105C304.554 207.903 305.315 205.562 307.184 205.435L338.264 203.328C341.469 203.11 344.266 201.078 345.462 198.098L357.071 169.19Z" stroke="#0094FF" stroke-width="6.2879"/>
        </g>
        <g style="mix-blend-mode:hard-light" filter="url(#filter33_ddi_824_5087)">
            <path d="M356.384 168.915C357.331 166.557 360.669 166.557 361.616 168.915L373.224 197.822C374.315 200.539 376.865 202.391 379.786 202.59L410.866 204.697C413.401 204.869 414.433 208.043 412.483 209.672L388.577 229.646C386.33 231.523 385.357 234.52 386.071 237.359L393.671 267.569C394.291 270.033 391.59 271.995 389.438 270.644L363.056 254.081C360.576 252.524 357.424 252.524 354.945 254.081L328.562 270.644C326.41 271.995 323.71 270.033 324.33 267.569L331.93 237.359C332.644 234.52 331.67 231.523 329.423 229.646L305.518 209.672C303.568 208.043 304.599 204.869 307.134 204.697L338.214 202.59C341.135 202.391 343.685 200.539 344.776 197.822L356.384 168.915Z" stroke="#00B3FF" stroke-opacity="0.2" stroke-width="4.8084"/>
        </g>
        <g filter="url(#filter34_f_824_5087)">
            <path d="M355.526 168.57C356.784 165.439 361.217 165.439 362.474 168.57L374.082 197.478C375.041 199.865 377.282 201.493 379.849 201.667L410.929 203.774C414.295 204.003 415.665 208.218 413.076 210.382L389.17 230.355C387.196 232.005 386.34 234.639 386.968 237.134L394.568 267.344C395.391 270.616 391.805 273.222 388.947 271.427L362.564 254.864C360.385 253.496 357.615 253.496 355.436 254.864L329.054 271.427C326.196 273.222 322.61 270.616 323.433 267.344L331.033 237.134C331.66 234.639 330.805 232.005 328.83 230.355L304.925 210.382C302.335 208.218 303.705 204.003 307.072 203.774L338.152 201.667C340.718 201.493 342.959 199.865 343.918 197.478L355.526 168.57Z" stroke="#82D9FF" stroke-width="2.95901"/>
        </g>
        <g filter="url(#filter35_f_824_5087)">
            <path d="M354.84 168.294C356.346 164.544 361.655 164.544 363.16 168.294L374.769 197.202C375.622 199.326 377.615 200.774 379.899 200.929L410.979 203.036C415.011 203.31 416.651 208.359 413.55 210.95L389.644 230.923C387.888 232.39 387.127 234.734 387.685 236.953L395.285 267.163C396.271 271.082 391.976 274.203 388.553 272.054L362.171 255.491C360.232 254.274 357.768 254.274 355.83 255.491L329.447 272.054C326.024 274.203 321.73 271.082 322.715 267.163L330.315 236.953C330.874 234.734 330.112 232.39 328.356 230.923L304.451 210.95C301.349 208.359 302.99 203.31 307.022 203.036L338.102 200.929C340.385 200.774 342.379 199.326 343.231 197.202L354.84 168.294Z" stroke="white" stroke-width="1.47951"/>
        </g>
    </g>
    <g filter="url(#filter36_f_824_5087)">
        <g style="mix-blend-mode:hard-light" filter="url(#filter37_f_824_5087)">
            <path d="M534.313 168.019C536.068 163.65 542.252 163.65 544.007 168.019L555.615 196.926C556.362 198.787 558.108 200.055 560.108 200.191L591.188 202.298C595.886 202.617 597.797 208.499 594.184 211.517L570.278 231.491C568.74 232.776 568.073 234.829 568.562 236.773L576.162 266.983C577.311 271.548 572.307 275.184 568.32 272.681L541.937 256.117C540.239 255.051 538.081 255.051 536.383 256.117L510 272.681C506.013 275.184 501.009 271.548 502.158 266.983L509.758 236.773C510.247 234.829 509.58 232.776 508.041 231.491L484.136 211.517C480.523 208.499 482.434 202.617 487.131 202.298L518.211 200.191C520.211 200.055 521.958 198.787 522.705 196.926L534.313 168.019Z" fill="#0094FF" fill-opacity="0.5"/>
            <path d="M536.544 168.915C537.491 166.557 540.829 166.557 541.776 168.915L553.384 197.822C554.475 200.539 557.025 202.391 559.946 202.59L591.026 204.697C593.561 204.869 594.592 208.043 592.642 209.672L568.737 229.646C566.49 231.523 565.516 234.52 566.23 237.359L573.83 267.569C574.45 270.033 571.75 271.995 569.598 270.644L543.215 254.081C540.736 252.524 537.584 252.524 535.104 254.081L508.722 270.644C506.57 271.995 503.869 270.033 504.489 267.569L512.089 237.359C512.803 234.52 511.83 231.523 509.583 229.646L485.677 209.672C483.728 208.043 484.759 204.869 487.294 204.697L518.374 202.59C521.295 202.391 523.845 200.539 524.936 197.822L536.544 168.915Z" stroke="#0094FF" stroke-width="4.8084"/>
        </g>
        <g style="mix-blend-mode:hard-light" filter="url(#filter38_f_824_5087)">
            <path d="M537.231 169.19C537.929 167.451 540.391 167.451 541.089 169.19L552.698 198.098C553.894 201.078 556.692 203.11 559.896 203.328L590.976 205.435C592.845 205.562 593.606 207.903 592.168 209.105L568.263 229.078C565.798 231.137 564.73 234.425 565.513 237.54L573.113 267.75C573.57 269.567 571.579 271.014 569.991 270.018L543.609 253.454C540.889 251.747 537.431 251.747 534.711 253.454L508.328 270.018C506.741 271.014 504.749 269.567 505.207 267.75L512.807 237.54C513.59 234.425 512.522 231.137 510.057 229.078L486.152 209.105C484.714 207.903 485.474 205.562 487.344 205.435L518.424 203.328C521.628 203.11 524.425 201.078 525.622 198.098L537.231 169.19Z" stroke="#0094FF" stroke-width="6.2879"/>
        </g>
        <g style="mix-blend-mode:hard-light" filter="url(#filter39_ddi_824_5087)">
            <path d="M536.544 168.915C537.491 166.557 540.829 166.557 541.776 168.915L553.384 197.822C554.475 200.539 557.025 202.391 559.946 202.59L591.026 204.697C593.561 204.869 594.592 208.043 592.642 209.672L568.737 229.646C566.49 231.523 565.516 234.52 566.23 237.359L573.83 267.569C574.45 270.033 571.75 271.995 569.598 270.644L543.215 254.081C540.736 252.524 537.584 252.524 535.104 254.081L508.722 270.644C506.57 271.995 503.869 270.033 504.489 267.569L512.089 237.359C512.803 234.52 511.83 231.523 509.583 229.646L485.677 209.672C483.728 208.043 484.759 204.869 487.294 204.697L518.374 202.59C521.295 202.391 523.845 200.539 524.936 197.822L536.544 168.915Z" stroke="#00B3FF" stroke-opacity="0.2" stroke-width="4.8084"/>
        </g>
        <g filter="url(#filter40_f_824_5087)">
            <path d="M535.686 168.57C536.943 165.439 541.376 165.439 542.634 168.57L554.242 197.478C555.201 199.865 557.442 201.493 560.008 201.667L591.088 203.774C594.455 204.003 595.825 208.218 593.235 210.382L569.33 230.355C567.355 232.005 566.5 234.639 567.127 237.134L574.727 267.344C575.55 270.616 571.964 273.222 569.106 271.427L542.724 254.864C540.545 253.496 537.775 253.496 535.596 254.864L509.213 271.427C506.355 273.222 502.769 270.616 503.593 267.344L511.192 237.134C511.82 234.639 510.964 232.005 508.99 230.355L485.084 210.382C482.495 208.218 483.865 204.003 487.231 203.774L518.311 201.667C520.878 201.493 523.119 199.865 524.078 197.478L535.686 168.57Z" stroke="#82D9FF" stroke-width="2.95901"/>
        </g>
        <g filter="url(#filter41_f_824_5087)">
            <path d="M535 168.294C536.506 164.544 541.814 164.544 543.32 168.294L554.929 197.202C555.782 199.326 557.775 200.774 560.058 200.929L591.138 203.036C595.17 203.31 596.811 208.359 593.71 210.95L569.804 230.923C568.048 232.39 567.286 234.734 567.845 236.953L575.445 267.163C576.431 271.082 572.136 274.203 568.713 272.054L542.33 255.491C540.392 254.274 537.928 254.274 535.989 255.491L509.607 272.054C506.184 274.203 501.889 271.082 502.875 267.163L510.475 236.953C511.033 234.734 510.272 232.39 508.516 230.923L484.61 210.95C481.509 208.359 483.149 203.31 487.181 203.036L518.261 200.929C520.545 200.774 522.538 199.326 523.391 197.202L535 168.294Z" stroke="white" stroke-width="1.47951"/>
        </g>
    </g>
    <defs>
        <filter id="filter0_f_824_5087" x="0.571594" y="0.390929" width="176.378" height="176.378" filterUnits="userSpaceOnUse" color-interpolation-filters="sRGB">
            <feFlood flood-opacity="0" result="BackgroundImageFix"/>
            <feBlend mode="normal" in="SourceGraphic" in2="BackgroundImageFix" result="shape"/>
            <feGaussianBlur stdDeviation="1.30454" result="effect1_foregroundBlur_824_5087"/>
        </filter>
        <filter id="filter1_f_824_5087" x="16.3197" y="13.4876" width="144.882" height="139.825" filterUnits="userSpaceOnUse" color-interpolation-filters="sRGB">
            <feFlood flood-opacity="0" result="BackgroundImageFix"/>
            <feBlend mode="normal" in="SourceGraphic" in2="BackgroundImageFix" result="shape"/>
            <feGaussianBlur stdDeviation="7.76741" result="effect1_foregroundBlur_824_5087"/>
        </filter>
        <filter id="filter2_f_824_5087" x="26.6762" y="23.8442" width="124.169" height="119.111" filterUnits="userSpaceOnUse" color-interpolation-filters="sRGB">
            <feFlood flood-opacity="0" result="BackgroundImageFix"/>
            <feBlend mode="normal" in="SourceGraphic" in2="BackgroundImageFix" result="shape"/>
            <feGaussianBlur stdDeviation="2.58914" result="effect1_foregroundBlur_824_5087"/>
        </filter>
        <filter id="filter3_ddi_824_5087" x="25.1227" y="27.469" width="127.276" height="122.218" filterUnits="userSpaceOnUse" color-interpolation-filters="sRGB">
            <feFlood flood-opacity="0" result="BackgroundImageFix"/>
            <feColorMatrix in="SourceAlpha" type="matrix" values="0 0 0 0 0 0 0 0 0 0 0 0 0 0 0 0 0 0 127 0" result="hardAlpha"/>
            <feOffset dy="4.8084"/>
            <feGaussianBlur stdDeviation="1.84938"/>
            <feColorMatrix type="matrix" values="0 0 0 0 0 0 0 0 0 0.051 0 0 0 0 0.082 0 0 0 0.7 0"/>
            <feBlend mode="multiply" in2="BackgroundImageFix" result="effect1_dropShadow_824_5087"/>
            <feColorMatrix in="SourceAlpha" type="matrix" values="0 0 0 0 0 0 0 0 0 0 0 0 0 0 0 0 0 0 127 0" result="hardAlpha"/>
            <feOffset dy="5.17827"/>
            <feGaussianBlur stdDeviation="3.36588"/>
            <feColorMatrix type="matrix" values="0 0 0 0 0 0 0 0 0 0.4 0 0 0 0 1 0 0 0 1 0"/>
            <feBlend mode="color-dodge" in2="effect1_dropShadow_824_5087" result="effect2_dropShadow_824_5087"/>
            <feBlend mode="normal" in="SourceGraphic" in2="effect2_dropShadow_824_5087" result="shape"/>
            <feColorMatrix in="SourceAlpha" type="matrix" values="0 0 0 0 0 0 0 0 0 0 0 0 0 0 0 0 0 0 127 0" result="hardAlpha"/>
            <feOffset dx="-0.48084" dy="0.961679"/>
            <feGaussianBlur stdDeviation="0.24042"/>
            <feComposite in2="hardAlpha" operator="arithmetic" k2="-1" k3="1"/>
            <feColorMatrix type="matrix" values="0 0 0 0 1 0 0 0 0 1 0 0 0 0 1 0 0 0 0.5 0"/>
            <feBlend mode="normal" in2="shape" result="effect3_innerShadow_824_5087"/>
        </filter>
        <filter id="filter4_f_824_5087" x="31.1147" y="28.2827" width="115.292" height="110.234" filterUnits="userSpaceOnUse" color-interpolation-filters="sRGB">
            <feFlood flood-opacity="0" result="BackgroundImageFix"/>
            <feBlend mode="normal" in="SourceGraphic" in2="BackgroundImageFix" result="shape"/>
            <feGaussianBlur stdDeviation="0.369877" result="effect1_foregroundBlur_824_5087"/>
        </filter>
        <filter id="filter5_f_824_5087" x="31.3613" y="28.5293" width="114.798" height="109.741" filterUnits="userSpaceOnUse" color-interpolation-filters="sRGB">
            <feFlood flood-opacity="0" result="BackgroundImageFix"/>
            <feBlend mode="normal" in="SourceGraphic" in2="BackgroundImageFix" result="shape"/>
            <feGaussianBlur stdDeviation="0.246584" result="effect1_foregroundBlur_824_5087"/>
        </filter>
        <filter id="filter6_f_824_5087" x="180.731" y="0.390929" width="176.378" height="176.378" filterUnits="userSpaceOnUse" color-interpolation-filters="sRGB">
            <feFlood flood-opacity="0" result="BackgroundImageFix"/>
            <feBlend mode="normal" in="SourceGraphic" in2="BackgroundImageFix" result="shape"/>
            <feGaussianBlur stdDeviation="1.30454" result="effect1_foregroundBlur_824_5087"/>
        </filter>
        <filter id="filter7_f_824_5087" x="196.479" y="13.4876" width="144.882" height="139.825" filterUnits="userSpaceOnUse" color-interpolation-filters="sRGB">
            <feFlood flood-opacity="0" result="BackgroundImageFix"/>
            <feBlend mode="normal" in="SourceGraphic" in2="BackgroundImageFix" result="shape"/>
            <feGaussianBlur stdDeviation="7.76741" result="effect1_foregroundBlur_824_5087"/>
        </filter>
        <filter id="filter8_f_824_5087" x="206.836" y="23.8442" width="124.169" height="119.111" filterUnits="userSpaceOnUse" color-interpolation-filters="sRGB">
            <feFlood flood-opacity="0" result="BackgroundImageFix"/>
            <feBlend mode="normal" in="SourceGraphic" in2="BackgroundImageFix" result="shape"/>
            <feGaussianBlur stdDeviation="2.58914" result="effect1_foregroundBlur_824_5087"/>
        </filter>
        <filter id="filter9_ddi_824_5087" x="205.282" y="27.469" width="127.276" height="122.218" filterUnits="userSpaceOnUse" color-interpolation-filters="sRGB">
            <feFlood flood-opacity="0" result="BackgroundImageFix"/>
            <feColorMatrix in="SourceAlpha" type="matrix" values="0 0 0 0 0 0 0 0 0 0 0 0 0 0 0 0 0 0 127 0" result="hardAlpha"/>
            <feOffset dy="4.8084"/>
            <feGaussianBlur stdDeviation="1.84938"/>
            <feColorMatrix type="matrix" values="0 0 0 0 0 0 0 0 0 0.051 0 0 0 0 0.082 0 0 0 0.7 0"/>
            <feBlend mode="multiply" in2="BackgroundImageFix" result="effect1_dropShadow_824_5087"/>
            <feColorMatrix in="SourceAlpha" type="matrix" values="0 0 0 0 0 0 0 0 0 0 0 0 0 0 0 0 0 0 127 0" result="hardAlpha"/>
            <feOffset dy="5.17827"/>
            <feGaussianBlur stdDeviation="3.36588"/>
            <feColorMatrix type="matrix" values="0 0 0 0 0 0 0 0 0 0.4 0 0 0 0 1 0 0 0 1 0"/>
            <feBlend mode="color-dodge" in2="effect1_dropShadow_824_5087" result="effect2_dropShadow_824_5087"/>
            <feBlend mode="normal" in="SourceGraphic" in2="effect2_dropShadow_824_5087" result="shape"/>
            <feColorMatrix in="SourceAlpha" type="matrix" values="0 0 0 0 0 0 0 0 0 0 0 0 0 0 0 0 0 0 127 0" result="hardAlpha"/>
            <feOffset dx="-0.48084" dy="0.961679"/>
            <feGaussianBlur stdDeviation="0.24042"/>
            <feComposite in2="hardAlpha" operator="arithmetic" k2="-1" k3="1"/>
            <feColorMatrix type="matrix" values="0 0 0 0 1 0 0 0 0 1 0 0 0 0 1 0 0 0 0.5 0"/>
            <feBlend mode="normal" in2="shape" result="effect3_innerShadow_824_5087"/>
        </filter>
        <filter id="filter10_f_824_5087" x="211.274" y="28.2827" width="115.292" height="110.234" filterUnits="userSpaceOnUse" color-interpolation-filters="sRGB">
            <feFlood flood-opacity="0" result="BackgroundImageFix"/>
            <feBlend mode="normal" in="SourceGraphic" in2="BackgroundImageFix" result="shape"/>
            <feGaussianBlur stdDeviation="0.369877" result="effect1_foregroundBlur_824_5087"/>
        </filter>
        <filter id="filter11_f_824_5087" x="211.521" y="28.5293" width="114.798" height="109.741" filterUnits="userSpaceOnUse" color-interpolation-filters="sRGB">
            <feFlood flood-opacity="0" result="BackgroundImageFix"/>
            <feBlend mode="normal" in="SourceGraphic" in2="BackgroundImageFix" result="shape"/>
            <feGaussianBlur stdDeviation="0.246584" result="effect1_foregroundBlur_824_5087"/>
        </filter>
        <filter id="filter12_f_824_5087" x="360.891" y="0.390929" width="176.378" height="176.378" filterUnits="userSpaceOnUse" color-interpolation-filters="sRGB">
            <feFlood flood-opacity="0" result="BackgroundImageFix"/>
            <feBlend mode="normal" in="SourceGraphic" in2="BackgroundImageFix" result="shape"/>
            <feGaussianBlur stdDeviation="1.30454" result="effect1_foregroundBlur_824_5087"/>
        </filter>
        <filter id="filter13_f_824_5087" x="376.639" y="13.4876" width="144.882" height="139.825" filterUnits="userSpaceOnUse" color-interpolation-filters="sRGB">
            <feFlood flood-opacity="0" result="BackgroundImageFix"/>
            <feBlend mode="normal" in="SourceGraphic" in2="BackgroundImageFix" result="shape"/>
            <feGaussianBlur stdDeviation="7.76741" result="effect1_foregroundBlur_824_5087"/>
        </filter>
        <filter id="filter14_f_824_5087" x="386.996" y="23.8442" width="124.169" height="119.111" filterUnits="userSpaceOnUse" color-interpolation-filters="sRGB">
            <feFlood flood-opacity="0" result="BackgroundImageFix"/>
            <feBlend mode="normal" in="SourceGraphic" in2="BackgroundImageFix" result="shape"/>
            <feGaussianBlur stdDeviation="2.58914" result="effect1_foregroundBlur_824_5087"/>
        </filter>
        <filter id="filter15_ddi_824_5087" x="385.442" y="27.469" width="127.276" height="122.218" filterUnits="userSpaceOnUse" color-interpolation-filters="sRGB">
            <feFlood flood-opacity="0" result="BackgroundImageFix"/>
            <feColorMatrix in="SourceAlpha" type="matrix" values="0 0 0 0 0 0 0 0 0 0 0 0 0 0 0 0 0 0 127 0" result="hardAlpha"/>
            <feOffset dy="4.8084"/>
            <feGaussianBlur stdDeviation="1.84938"/>
            <feColorMatrix type="matrix" values="0 0 0 0 0 0 0 0 0 0.051 0 0 0 0 0.082 0 0 0 0.7 0"/>
            <feBlend mode="multiply" in2="BackgroundImageFix" result="effect1_dropShadow_824_5087"/>
            <feColorMatrix in="SourceAlpha" type="matrix" values="0 0 0 0 0 0 0 0 0 0 0 0 0 0 0 0 0 0 127 0" result="hardAlpha"/>
            <feOffset dy="5.17827"/>
            <feGaussianBlur stdDeviation="3.36588"/>
            <feColorMatrix type="matrix" values="0 0 0 0 0 0 0 0 0 0.4 0 0 0 0 1 0 0 0 1 0"/>
            <feBlend mode="color-dodge" in2="effect1_dropShadow_824_5087" result="effect2_dropShadow_824_5087"/>
            <feBlend mode="normal" in="SourceGraphic" in2="effect2_dropShadow_824_5087" result="shape"/>
            <feColorMatrix in="SourceAlpha" type="matrix" values="0 0 0 0 0 0 0 0 0 0 0 0 0 0 0 0 0 0 127 0" result="hardAlpha"/>
            <feOffset dx="-0.48084" dy="0.961679"/>
            <feGaussianBlur stdDeviation="0.24042"/>
            <feComposite in2="hardAlpha" operator="arithmetic" k2="-1" k3="1"/>
            <feColorMatrix type="matrix" values="0 0 0 0 1 0 0 0 0 1 0 0 0 0 1 0 0 0 0.5 0"/>
            <feBlend mode="normal" in2="shape" result="effect3_innerShadow_824_5087"/>
        </filter>
        <filter id="filter16_f_824_5087" x="391.434" y="28.2827" width="115.292" height="110.234" filterUnits="userSpaceOnUse" color-interpolation-filters="sRGB">
            <feFlood flood-opacity="0" result="BackgroundImageFix"/>
            <feBlend mode="normal" in="SourceGraphic" in2="BackgroundImageFix" result="shape"/>
            <feGaussianBlur stdDeviation="0.369877" result="effect1_foregroundBlur_824_5087"/>
        </filter>
        <filter id="filter17_f_824_5087" x="391.681" y="28.5293" width="114.798" height="109.741" filterUnits="userSpaceOnUse" color-interpolation-filters="sRGB">
            <feFlood flood-opacity="0" result="BackgroundImageFix"/>
            <feBlend mode="normal" in="SourceGraphic" in2="BackgroundImageFix" result="shape"/>
            <feGaussianBlur stdDeviation="0.246584" result="effect1_foregroundBlur_824_5087"/>
        </filter>
        <filter id="filter18_f_824_5087" x="541.051" y="0.390929" width="176.378" height="176.378" filterUnits="userSpaceOnUse" color-interpolation-filters="sRGB">
            <feFlood flood-opacity="0" result="BackgroundImageFix"/>
            <feBlend mode="normal" in="SourceGraphic" in2="BackgroundImageFix" result="shape"/>
            <feGaussianBlur stdDeviation="1.30454" result="effect1_foregroundBlur_824_5087"/>
        </filter>
        <filter id="filter19_f_824_5087" x="556.799" y="13.4876" width="144.882" height="139.825" filterUnits="userSpaceOnUse" color-interpolation-filters="sRGB">
            <feFlood flood-opacity="0" result="BackgroundImageFix"/>
            <feBlend mode="normal" in="SourceGraphic" in2="BackgroundImageFix" result="shape"/>
            <feGaussianBlur stdDeviation="7.76741" result="effect1_foregroundBlur_824_5087"/>
        </filter>
        <filter id="filter20_f_824_5087" x="567.155" y="23.8442" width="124.169" height="119.111" filterUnits="userSpaceOnUse" color-interpolation-filters="sRGB">
            <feFlood flood-opacity="0" result="BackgroundImageFix"/>
            <feBlend mode="normal" in="SourceGraphic" in2="BackgroundImageFix" result="shape"/>
            <feGaussianBlur stdDeviation="2.58914" result="effect1_foregroundBlur_824_5087"/>
        </filter>
        <filter id="filter21_ddi_824_5087" x="565.602" y="27.469" width="127.276" height="122.218" filterUnits="userSpaceOnUse" color-interpolation-filters="sRGB">
            <feFlood flood-opacity="0" result="BackgroundImageFix"/>
            <feColorMatrix in="SourceAlpha" type="matrix" values="0 0 0 0 0 0 0 0 0 0 0 0 0 0 0 0 0 0 127 0" result="hardAlpha"/>
            <feOffset dy="4.8084"/>
            <feGaussianBlur stdDeviation="1.84938"/>
            <feColorMatrix type="matrix" values="0 0 0 0 0 0 0 0 0 0.051 0 0 0 0 0.082 0 0 0 0.7 0"/>
            <feBlend mode="multiply" in2="BackgroundImageFix" result="effect1_dropShadow_824_5087"/>
            <feColorMatrix in="SourceAlpha" type="matrix" values="0 0 0 0 0 0 0 0 0 0 0 0 0 0 0 0 0 0 127 0" result="hardAlpha"/>
            <feOffset dy="5.17827"/>
            <feGaussianBlur stdDeviation="3.36588"/>
            <feColorMatrix type="matrix" values="0 0 0 0 0 0 0 0 0 0.4 0 0 0 0 1 0 0 0 1 0"/>
            <feBlend mode="color-dodge" in2="effect1_dropShadow_824_5087" result="effect2_dropShadow_824_5087"/>
            <feBlend mode="normal" in="SourceGraphic" in2="effect2_dropShadow_824_5087" result="shape"/>
            <feColorMatrix in="SourceAlpha" type="matrix" values="0 0 0 0 0 0 0 0 0 0 0 0 0 0 0 0 0 0 127 0" result="hardAlpha"/>
            <feOffset dx="-0.48084" dy="0.961679"/>
            <feGaussianBlur stdDeviation="0.24042"/>
            <feComposite in2="hardAlpha" operator="arithmetic" k2="-1" k3="1"/>
            <feColorMatrix type="matrix" values="0 0 0 0 1 0 0 0 0 1 0 0 0 0 1 0 0 0 0.5 0"/>
            <feBlend mode="normal" in2="shape" result="effect3_innerShadow_824_5087"/>
        </filter>
        <filter id="filter22_f_824_5087" x="571.594" y="28.2827" width="115.292" height="110.234" filterUnits="userSpaceOnUse" color-interpolation-filters="sRGB">
            <feFlood flood-opacity="0" result="BackgroundImageFix"/>
            <feBlend mode="normal" in="SourceGraphic" in2="BackgroundImageFix" result="shape"/>
            <feGaussianBlur stdDeviation="0.369877" result="effect1_foregroundBlur_824_5087"/>
        </filter>
        <filter id="filter23_f_824_5087" x="571.84" y="28.5293" width="114.798" height="109.741" filterUnits="userSpaceOnUse" color-interpolation-filters="sRGB">
            <feFlood flood-opacity="0" result="BackgroundImageFix"/>
            <feBlend mode="normal" in="SourceGraphic" in2="BackgroundImageFix" result="shape"/>
            <feGaussianBlur stdDeviation="0.246584" result="effect1_foregroundBlur_824_5087"/>
        </filter>
        <filter id="filter24_f_824_5087" x="90.6517" y="136.111" width="176.378" height="176.377" filterUnits="userSpaceOnUse" color-interpolation-filters="sRGB">
            <feFlood flood-opacity="0" result="BackgroundImageFix"/>
            <feBlend mode="normal" in="SourceGraphic" in2="BackgroundImageFix" result="shape"/>
            <feGaussianBlur stdDeviation="1.30454" result="effect1_foregroundBlur_824_5087"/>
        </filter>
        <filter id="filter25_f_824_5087" x="106.4" y="149.207" width="144.882" height="139.825" filterUnits="userSpaceOnUse" color-interpolation-filters="sRGB">
            <feFlood flood-opacity="0" result="BackgroundImageFix"/>
            <feBlend mode="normal" in="SourceGraphic" in2="BackgroundImageFix" result="shape"/>
            <feGaussianBlur stdDeviation="7.76741" result="effect1_foregroundBlur_824_5087"/>
        </filter>
        <filter id="filter26_f_824_5087" x="116.756" y="159.564" width="124.169" height="119.111" filterUnits="userSpaceOnUse" color-interpolation-filters="sRGB">
            <feFlood flood-opacity="0" result="BackgroundImageFix"/>
            <feBlend mode="normal" in="SourceGraphic" in2="BackgroundImageFix" result="shape"/>
            <feGaussianBlur stdDeviation="2.58914" result="effect1_foregroundBlur_824_5087"/>
        </filter>
        <filter id="filter27_ddi_824_5087" x="115.203" y="163.189" width="127.276" height="122.218" filterUnits="userSpaceOnUse" color-interpolation-filters="sRGB">
            <feFlood flood-opacity="0" result="BackgroundImageFix"/>
            <feColorMatrix in="SourceAlpha" type="matrix" values="0 0 0 0 0 0 0 0 0 0 0 0 0 0 0 0 0 0 127 0" result="hardAlpha"/>
            <feOffset dy="4.8084"/>
            <feGaussianBlur stdDeviation="1.84938"/>
            <feColorMatrix type="matrix" values="0 0 0 0 0 0 0 0 0 0.051 0 0 0 0 0.082 0 0 0 0.7 0"/>
            <feBlend mode="multiply" in2="BackgroundImageFix" result="effect1_dropShadow_824_5087"/>
            <feColorMatrix in="SourceAlpha" type="matrix" values="0 0 0 0 0 0 0 0 0 0 0 0 0 0 0 0 0 0 127 0" result="hardAlpha"/>
            <feOffset dy="5.17827"/>
            <feGaussianBlur stdDeviation="3.36588"/>
            <feColorMatrix type="matrix" values="0 0 0 0 0 0 0 0 0 0.4 0 0 0 0 1 0 0 0 1 0"/>
            <feBlend mode="color-dodge" in2="effect1_dropShadow_824_5087" result="effect2_dropShadow_824_5087"/>
            <feBlend mode="normal" in="SourceGraphic" in2="effect2_dropShadow_824_5087" result="shape"/>
            <feColorMatrix in="SourceAlpha" type="matrix" values="0 0 0 0 0 0 0 0 0 0 0 0 0 0 0 0 0 0 127 0" result="hardAlpha"/>
            <feOffset dx="-0.48084" dy="0.961679"/>
            <feGaussianBlur stdDeviation="0.24042"/>
            <feComposite in2="hardAlpha" operator="arithmetic" k2="-1" k3="1"/>
            <feColorMatrix type="matrix" values="0 0 0 0 1 0 0 0 0 1 0 0 0 0 1 0 0 0 0.5 0"/>
            <feBlend mode="normal" in2="shape" result="effect3_innerShadow_824_5087"/>
        </filter>
        <filter id="filter28_f_824_5087" x="121.195" y="164.002" width="115.292" height="110.234" filterUnits="userSpaceOnUse" color-interpolation-filters="sRGB">
            <feFlood flood-opacity="0" result="BackgroundImageFix"/>
            <feBlend mode="normal" in="SourceGraphic" in2="BackgroundImageFix" result="shape"/>
            <feGaussianBlur stdDeviation="0.369877" result="effect1_foregroundBlur_824_5087"/>
        </filter>
        <filter id="filter29_f_824_5087" x="121.441" y="164.249" width="114.798" height="109.741" filterUnits="userSpaceOnUse" color-interpolation-filters="sRGB">
            <feFlood flood-opacity="0" result="BackgroundImageFix"/>
            <feBlend mode="normal" in="SourceGraphic" in2="BackgroundImageFix" result="shape"/>
            <feGaussianBlur stdDeviation="0.246584" result="effect1_foregroundBlur_824_5087"/>
        </filter>
        <filter id="filter30_f_824_5087" x="270.811" y="136.111" width="176.378" height="176.377" filterUnits="userSpaceOnUse" color-interpolation-filters="sRGB">
            <feFlood flood-opacity="0" result="BackgroundImageFix"/>
            <feBlend mode="normal" in="SourceGraphic" in2="BackgroundImageFix" result="shape"/>
            <feGaussianBlur stdDeviation="1.30454" result="effect1_foregroundBlur_824_5087"/>
        </filter>
        <filter id="filter31_f_824_5087" x="286.559" y="149.207" width="144.882" height="139.825" filterUnits="userSpaceOnUse" color-interpolation-filters="sRGB">
            <feFlood flood-opacity="0" result="BackgroundImageFix"/>
            <feBlend mode="normal" in="SourceGraphic" in2="BackgroundImageFix" result="shape"/>
            <feGaussianBlur stdDeviation="7.76741" result="effect1_foregroundBlur_824_5087"/>
        </filter>
        <filter id="filter32_f_824_5087" x="296.916" y="159.564" width="124.169" height="119.111" filterUnits="userSpaceOnUse" color-interpolation-filters="sRGB">
            <feFlood flood-opacity="0" result="BackgroundImageFix"/>
            <feBlend mode="normal" in="SourceGraphic" in2="BackgroundImageFix" result="shape"/>
            <feGaussianBlur stdDeviation="2.58914" result="effect1_foregroundBlur_824_5087"/>
        </filter>
        <filter id="filter33_ddi_824_5087" x="295.362" y="163.189" width="127.276" height="122.218" filterUnits="userSpaceOnUse" color-interpolation-filters="sRGB">
            <feFlood flood-opacity="0" result="BackgroundImageFix"/>
            <feColorMatrix in="SourceAlpha" type="matrix" values="0 0 0 0 0 0 0 0 0 0 0 0 0 0 0 0 0 0 127 0" result="hardAlpha"/>
            <feOffset dy="4.8084"/>
            <feGaussianBlur stdDeviation="1.84938"/>
            <feColorMatrix type="matrix" values="0 0 0 0 0 0 0 0 0 0.051 0 0 0 0 0.082 0 0 0 0.7 0"/>
            <feBlend mode="multiply" in2="BackgroundImageFix" result="effect1_dropShadow_824_5087"/>
            <feColorMatrix in="SourceAlpha" type="matrix" values="0 0 0 0 0 0 0 0 0 0 0 0 0 0 0 0 0 0 127 0" result="hardAlpha"/>
            <feOffset dy="5.17827"/>
            <feGaussianBlur stdDeviation="3.36588"/>
            <feColorMatrix type="matrix" values="0 0 0 0 0 0 0 0 0 0.4 0 0 0 0 1 0 0 0 1 0"/>
            <feBlend mode="color-dodge" in2="effect1_dropShadow_824_5087" result="effect2_dropShadow_824_5087"/>
            <feBlend mode="normal" in="SourceGraphic" in2="effect2_dropShadow_824_5087" result="shape"/>
            <feColorMatrix in="SourceAlpha" type="matrix" values="0 0 0 0 0 0 0 0 0 0 0 0 0 0 0 0 0 0 127 0" result="hardAlpha"/>
            <feOffset dx="-0.48084" dy="0.961679"/>
            <feGaussianBlur stdDeviation="0.24042"/>
            <feComposite in2="hardAlpha" operator="arithmetic" k2="-1" k3="1"/>
            <feColorMatrix type="matrix" values="0 0 0 0 1 0 0 0 0 1 0 0 0 0 1 0 0 0 0.5 0"/>
            <feBlend mode="normal" in2="shape" result="effect3_innerShadow_824_5087"/>
        </filter>
        <filter id="filter34_f_824_5087" x="301.354" y="164.002" width="115.292" height="110.234" filterUnits="userSpaceOnUse" color-interpolation-filters="sRGB">
            <feFlood flood-opacity="0" result="BackgroundImageFix"/>
            <feBlend mode="normal" in="SourceGraphic" in2="BackgroundImageFix" result="shape"/>
            <feGaussianBlur stdDeviation="0.369877" result="effect1_foregroundBlur_824_5087"/>
        </filter>
        <filter id="filter35_f_824_5087" x="301.601" y="164.249" width="114.798" height="109.741" filterUnits="userSpaceOnUse" color-interpolation-filters="sRGB">
            <feFlood flood-opacity="0" result="BackgroundImageFix"/>
            <feBlend mode="normal" in="SourceGraphic" in2="BackgroundImageFix" result="shape"/>
            <feGaussianBlur stdDeviation="0.246584" result="effect1_foregroundBlur_824_5087"/>
        </filter>
        <filter id="filter36_f_824_5087" x="450.971" y="136.111" width="176.378" height="176.377" filterUnits="userSpaceOnUse" color-interpolation-filters="sRGB">
            <feFlood flood-opacity="0" result="BackgroundImageFix"/>
            <feBlend mode="normal" in="SourceGraphic" in2="BackgroundImageFix" result="shape"/>
            <feGaussianBlur stdDeviation="1.30454" result="effect1_foregroundBlur_824_5087"/>
        </filter>
        <filter id="filter37_f_824_5087" x="466.719" y="149.207" width="144.882" height="139.825" filterUnits="userSpaceOnUse" color-interpolation-filters="sRGB">
            <feFlood flood-opacity="0" result="BackgroundImageFix"/>
            <feBlend mode="normal" in="SourceGraphic" in2="BackgroundImageFix" result="shape"/>
            <feGaussianBlur stdDeviation="7.76741" result="effect1_foregroundBlur_824_5087"/>
        </filter>
        <filter id="filter38_f_824_5087" x="477.076" y="159.564" width="124.169" height="119.111" filterUnits="userSpaceOnUse" color-interpolation-filters="sRGB">
            <feFlood flood-opacity="0" result="BackgroundImageFix"/>
            <feBlend mode="normal" in="SourceGraphic" in2="BackgroundImageFix" result="shape"/>
            <feGaussianBlur stdDeviation="2.58914" result="effect1_foregroundBlur_824_5087"/>
        </filter>
        <filter id="filter39_ddi_824_5087" x="475.522" y="163.189" width="127.276" height="122.218" filterUnits="userSpaceOnUse" color-interpolation-filters="sRGB">
            <feFlood flood-opacity="0" result="BackgroundImageFix"/>
            <feColorMatrix in="SourceAlpha" type="matrix" values="0 0 0 0 0 0 0 0 0 0 0 0 0 0 0 0 0 0 127 0" result="hardAlpha"/>
            <feOffset dy="4.8084"/>
            <feGaussianBlur stdDeviation="1.84938"/>
            <feColorMatrix type="matrix" values="0 0 0 0 0 0 0 0 0 0.051 0 0 0 0 0.082 0 0 0 0.7 0"/>
            <feBlend mode="multiply" in2="BackgroundImageFix" result="effect1_dropShadow_824_5087"/>
            <feColorMatrix in="SourceAlpha" type="matrix" values="0 0 0 0 0 0 0 0 0 0 0 0 0 0 0 0 0 0 127 0" result="hardAlpha"/>
            <feOffset dy="5.17827"/>
            <feGaussianBlur stdDeviation="3.36588"/>
            <feColorMatrix type="matrix" values="0 0 0 0 0 0 0 0 0 0.4 0 0 0 0 1 0 0 0 1 0"/>
            <feBlend mode="color-dodge" in2="effect1_dropShadow_824_5087" result="effect2_dropShadow_824_5087"/>
            <feBlend mode="normal" in="SourceGraphic" in2="effect2_dropShadow_824_5087" result="shape"/>
            <feColorMatrix in="SourceAlpha" type="matrix" values="0 0 0 0 0 0 0 0 0 0 0 0 0 0 0 0 0 0 127 0" result="hardAlpha"/>
            <feOffset dx="-0.48084" dy="0.961679"/>
            <feGaussianBlur stdDeviation="0.24042"/>
            <feComposite in2="hardAlpha" operator="arithmetic" k2="-1" k3="1"/>
            <feColorMatrix type="matrix" values="0 0 0 0 1 0 0 0 0 1 0 0 0 0 1 0 0 0 0.5 0"/>
            <feBlend mode="normal" in2="shape" result="effect3_innerShadow_824_5087"/>
        </filter>
        <filter id="filter40_f_824_5087" x="481.514" y="164.002" width="115.292" height="110.234" filterUnits="userSpaceOnUse" color-interpolation-filters="sRGB">
            <feFlood flood-opacity="0" result="BackgroundImageFix"/>
            <feBlend mode="normal" in="SourceGraphic" in2="BackgroundImageFix" result="shape"/>
            <feGaussianBlur stdDeviation="0.369877" result="effect1_foregroundBlur_824_5087"/>
        </filter>
        <filter id="filter41_f_824_5087" x="481.761" y="164.249" width="114.798" height="109.741" filterUnits="userSpaceOnUse" color-interpolation-filters="sRGB">
            <feFlood flood-opacity="0" result="BackgroundImageFix"/>
            <feBlend mode="normal" in="SourceGraphic" in2="BackgroundImageFix" result="shape"/>
            <feGaussianBlur stdDeviation="0.246584" result="effect1_foregroundBlur_824_5087"/>
        </filter>
    </defs>
</svg>
