<svg viewBox="0 0 187 186" fill="none" xmlns="http://www.w3.org/2000/svg">
<g filter="url(#filter0_f_617_8922)">
<g style="mix-blend-mode:hard-light" filter="url(#filter1_f_617_8922)">
<path d="M88.397 33.8137C90.2421 29.2189 96.7467 29.219 98.5918 33.8137L110.801 64.2162C111.586 66.1729 113.423 67.5071 115.526 67.6497L148.214 69.8661C153.154 70.201 155.164 76.3872 151.364 79.5619L126.222 100.568C124.604 101.92 123.903 104.079 124.417 106.124L132.41 137.896C133.618 142.698 128.356 146.521 124.162 143.888L96.4151 126.468C94.6293 125.347 92.3595 125.347 90.5737 126.468L62.8264 143.888C58.633 146.521 53.3707 142.698 54.5787 137.896L62.5717 106.124C63.0861 104.079 62.3847 101.92 60.7666 100.568L35.6248 79.5619C31.8251 76.3872 33.8351 70.201 38.7752 69.8661L71.4624 67.6497C73.5661 67.5071 75.4025 66.1729 76.1882 64.2162L88.397 33.8137Z" fill="#0094FF" fill-opacity="0.5"/>
<path d="M90.7434 34.756C91.7392 32.2763 95.2496 32.2762 96.2454 34.756L108.454 65.1585C109.602 68.0158 112.283 69.9641 115.355 70.1724L148.043 72.3888C150.709 72.5696 151.793 75.9082 149.743 77.6215L124.601 98.6276C122.238 100.602 121.214 103.754 121.965 106.74L129.958 138.513C130.61 141.104 127.77 143.168 125.507 141.747L97.7595 124.327C95.1518 122.69 91.837 122.69 89.2293 124.327L61.482 141.747C59.2188 143.168 56.3789 141.104 57.0308 138.513L65.0238 106.74C65.775 103.754 64.7507 100.602 62.3878 98.6276L37.2461 77.6215C35.1954 75.9082 36.2802 72.5696 38.9463 72.3888L71.6335 70.1724C74.7055 69.9641 77.3872 68.0158 78.5346 65.1585L90.7434 34.756Z" stroke="#0094FF" stroke-width="5.05706"/>
</g>
<g style="mix-blend-mode:hard-light" filter="url(#filter2_f_617_8922)">
<path d="M91.4654 35.0459C92.1998 33.217 94.789 33.2169 95.5234 35.0459L107.732 65.4484C108.991 68.5828 111.933 70.7202 115.303 70.9487L147.99 73.165C149.956 73.2984 150.756 75.7608 149.244 77.0245L124.102 98.0306C121.51 100.196 120.386 103.655 121.21 106.93L129.204 138.703C129.684 140.614 127.59 142.136 125.92 141.088L98.1732 123.668C95.3125 121.872 91.6763 121.872 88.8156 123.668L61.0683 141.088C59.3991 142.136 57.3045 140.614 57.7853 138.703L65.7783 106.93C66.6024 103.655 65.4787 100.196 62.8866 98.0306L37.7449 77.0245C36.2324 75.7608 37.0325 73.2984 38.9989 73.165L71.6861 70.9487C75.0561 70.7202 77.9979 68.5828 79.2566 65.4484L76.1882 64.2162L79.2566 65.4484L91.4654 35.0459Z" stroke="#0094FF" stroke-width="6.61308"/>
</g>
<g style="mix-blend-mode:hard-light" filter="url(#filter3_ddi_617_8922)">
<path d="M90.7434 34.756C91.7392 32.2763 95.2496 32.2762 96.2454 34.756L108.454 65.1585C109.602 68.0158 112.283 69.9641 115.355 70.1724L148.043 72.3888C150.709 72.5696 151.793 75.9082 149.743 77.6215L124.601 98.6276C122.238 100.602 121.214 103.754 121.965 106.74L129.958 138.513C130.61 141.104 127.77 143.168 125.507 141.747L97.7595 124.327C95.1518 122.69 91.837 122.69 89.2293 124.327L61.482 141.747C59.2188 143.168 56.3789 141.104 57.0308 138.513L65.0238 106.74C65.775 103.754 64.7507 100.602 62.3878 98.6276L37.2461 77.6215C35.1954 75.9082 36.2802 72.5696 38.9463 72.3888L71.6335 70.1724C74.7055 69.9641 77.3872 68.0158 78.5346 65.1585L90.7434 34.756Z" stroke="#00B3FF" stroke-opacity="0.2" stroke-width="5.05706"/>
</g>
<g filter="url(#filter4_f_617_8922)">
<path d="M89.841 34.3936C91.1634 31.1004 95.8254 31.1004 97.1479 34.3936L109.357 64.7961C110.365 67.307 112.722 69.0191 115.421 69.2022L148.108 71.4185C151.649 71.6586 153.09 76.0924 150.366 78.3678L125.225 99.3739C123.148 101.109 122.248 103.879 122.908 106.503L130.901 138.275C131.767 141.717 127.995 144.457 124.99 142.57L97.2424 125.15C94.9508 123.712 92.038 123.712 89.7464 125.15L61.9991 142.57C58.9935 144.457 55.2219 141.717 56.0877 138.275L64.0807 106.503C64.7408 103.879 63.8407 101.109 61.7643 99.3739L36.6225 78.3678C33.8991 76.0924 35.3398 71.6586 38.8805 71.4185L71.5677 69.2022C74.2673 69.0191 76.6238 67.307 77.6322 64.7961L89.841 34.3936Z" stroke="#82D9FF" stroke-width="3.11204"/>
</g>
<g filter="url(#filter5_f_617_8922)">
<path d="M89.119 34.1036C90.7028 30.1597 96.286 30.1597 97.8698 34.1037L110.079 64.5061C110.976 66.7399 113.072 68.2631 115.474 68.4259L148.161 70.6423C152.401 70.9298 154.127 76.2398 150.865 78.9649L125.723 99.971C123.876 101.514 123.075 103.979 123.663 106.313L131.656 138.086C132.693 142.207 128.176 145.489 124.576 143.229L96.8288 125.809C94.7901 124.529 92.1987 124.529 90.16 125.809L62.4128 143.229C58.8132 145.489 54.2963 142.207 55.3332 138.086L63.3262 106.313C63.9135 103.979 63.1127 101.514 61.2654 99.971L36.1237 78.9649C32.8621 76.2398 34.5875 70.9298 38.8278 70.6423L71.515 68.4259C73.9167 68.2631 76.0132 66.7399 76.9102 64.5061L89.119 34.1036Z" stroke="white" stroke-width="1.55602"/>
</g>
</g>
<defs>
<filter id="filter0_f_617_8922" x="0.744771" y="0.256001" width="185.499" height="185.499" filterUnits="userSpaceOnUse" color-interpolation-filters="sRGB">
<feFlood flood-opacity="0" result="BackgroundImageFix"/>
<feBlend mode="normal" in="SourceGraphic" in2="BackgroundImageFix" result="shape"/>
<feGaussianBlur stdDeviation="1.372" result="effect1_foregroundBlur_617_8922"/>
</filter>
<filter id="filter1_f_617_8922" x="17.3073" y="14.029" width="152.374" height="147.056" filterUnits="userSpaceOnUse" color-interpolation-filters="sRGB">
<feFlood flood-opacity="0" result="BackgroundImageFix"/>
<feBlend mode="normal" in="SourceGraphic" in2="BackgroundImageFix" result="shape"/>
<feGaussianBlur stdDeviation="8.1691" result="effect1_foregroundBlur_617_8922"/>
</filter>
<filter id="filter2_f_617_8922" x="28.1994" y="24.9211" width="130.59" height="125.272" filterUnits="userSpaceOnUse" color-interpolation-filters="sRGB">
<feFlood flood-opacity="0" result="BackgroundImageFix"/>
<feBlend mode="normal" in="SourceGraphic" in2="BackgroundImageFix" result="shape"/>
<feGaussianBlur stdDeviation="2.72303" result="effect1_foregroundBlur_617_8922"/>
</filter>
<filter id="filter3_ddi_617_8922" x="26.5656" y="28.7334" width="133.858" height="128.54" filterUnits="userSpaceOnUse" color-interpolation-filters="sRGB">
<feFlood flood-opacity="0" result="BackgroundImageFix"/>
<feColorMatrix in="SourceAlpha" type="matrix" values="0 0 0 0 0 0 0 0 0 0 0 0 0 0 0 0 0 0 127 0" result="hardAlpha"/>
<feOffset dy="5.05706"/>
<feGaussianBlur stdDeviation="1.94502"/>
<feColorMatrix type="matrix" values="0 0 0 0 0 0 0 0 0 0.051 0 0 0 0 0.082 0 0 0 0.7 0"/>
<feBlend mode="multiply" in2="BackgroundImageFix" result="effect1_dropShadow_617_8922"/>
<feColorMatrix in="SourceAlpha" type="matrix" values="0 0 0 0 0 0 0 0 0 0 0 0 0 0 0 0 0 0 127 0" result="hardAlpha"/>
<feOffset dy="5.44607"/>
<feGaussianBlur stdDeviation="3.53994"/>
<feColorMatrix type="matrix" values="0 0 0 0 0 0 0 0 0 0.4 0 0 0 0 1 0 0 0 1 0"/>
<feBlend mode="color-dodge" in2="effect1_dropShadow_617_8922" result="effect2_dropShadow_617_8922"/>
<feBlend mode="normal" in="SourceGraphic" in2="effect2_dropShadow_617_8922" result="shape"/>
<feColorMatrix in="SourceAlpha" type="matrix" values="0 0 0 0 0 0 0 0 0 0 0 0 0 0 0 0 0 0 127 0" result="hardAlpha"/>
<feOffset dx="-0.505706" dy="1.01141"/>
<feGaussianBlur stdDeviation="0.252853"/>
<feComposite in2="hardAlpha" operator="arithmetic" k2="-1" k3="1"/>
<feColorMatrix type="matrix" values="0 0 0 0 1 0 0 0 0 1 0 0 0 0 1 0 0 0 0.5 0"/>
<feBlend mode="normal" in2="shape" result="effect3_innerShadow_617_8922"/>
</filter>
<filter id="filter4_f_617_8922" x="32.8675" y="29.5892" width="121.254" height="115.936" filterUnits="userSpaceOnUse" color-interpolation-filters="sRGB">
<feFlood flood-opacity="0" result="BackgroundImageFix"/>
<feBlend mode="normal" in="SourceGraphic" in2="BackgroundImageFix" result="shape"/>
<feGaussianBlur stdDeviation="0.389005" result="effect1_foregroundBlur_617_8922"/>
</filter>
<filter id="filter5_f_617_8922" x="33.1268" y="29.8485" width="120.735" height="115.417" filterUnits="userSpaceOnUse" color-interpolation-filters="sRGB">
<feFlood flood-opacity="0" result="BackgroundImageFix"/>
<feBlend mode="normal" in="SourceGraphic" in2="BackgroundImageFix" result="shape"/>
<feGaussianBlur stdDeviation="0.259337" result="effect1_foregroundBlur_617_8922"/>
</filter>
</defs>
</svg>
