<svg viewBox="0 0 564 186" fill="none" xmlns="http://www.w3.org/2000/svg">
<g filter="url(#filter0_f_617_9094)">
<g style="mix-blend-mode:hard-light" filter="url(#filter1_f_617_9094)">
<path d="M87.8916 33.8137C89.7368 29.2189 96.2413 29.219 98.0864 33.8137L110.295 64.2162C111.081 66.1729 112.917 67.5071 115.021 67.6497L147.708 69.8661C152.648 70.201 154.658 76.3872 150.859 79.5619L125.717 100.568C124.099 101.92 123.397 104.079 123.912 106.124L131.905 137.896C133.113 142.698 127.85 146.521 123.657 143.888L95.9097 126.468C94.124 125.347 91.8541 125.347 90.0683 126.468L62.3211 143.888C58.1276 146.521 52.8653 142.698 54.0733 137.896L62.0663 106.124C62.5807 104.079 61.8793 101.92 60.2612 100.568L35.1195 79.5619C31.3198 76.3872 33.3298 70.201 38.2698 69.8661L70.957 67.6497C73.0607 67.5071 74.8971 66.1729 75.6828 64.2162L87.8916 33.8137Z" fill="#0094FF" fill-opacity="0.5"/>
<path d="M90.238 34.756C91.2338 32.2763 94.7442 32.2762 95.74 34.756L107.949 65.1585C109.096 68.0158 111.778 69.9641 114.85 70.1724L147.537 72.3888C150.203 72.5696 151.288 75.9082 149.237 77.6215L124.096 98.6276C121.733 100.602 120.708 103.754 121.46 106.74L129.453 138.513C130.105 141.104 127.265 143.168 125.001 141.747L97.2542 124.327C94.6464 122.69 91.3316 122.69 88.7239 124.327L60.9766 141.747C58.7135 143.168 55.8735 141.104 56.5254 138.513L64.5184 106.74C65.2696 103.754 64.2453 100.602 61.8824 98.6276L36.7407 77.6215C34.69 75.9082 35.7748 72.5696 38.4409 72.3888L71.1281 70.1724C74.2001 69.9641 76.8818 68.0158 78.0292 65.1585L90.238 34.756Z" stroke="#0094FF" stroke-width="5.05706"/>
</g>
<g style="mix-blend-mode:hard-light" filter="url(#filter2_f_617_9094)">
<path d="M90.96 35.0459C91.6945 33.217 94.2836 33.2169 95.0181 35.0459L107.227 65.4484C108.486 68.5828 111.427 70.7202 114.797 70.9487L147.485 73.165C149.451 73.2984 150.251 75.7608 148.739 77.0245L123.597 98.0306C121.005 100.196 119.881 103.655 120.705 106.93L128.698 138.703C129.179 140.614 127.084 142.136 125.415 141.088L97.6678 123.668C94.8071 121.872 91.1709 121.872 88.3102 123.668L60.5629 141.088C58.8937 142.136 56.7991 140.614 57.2799 138.703L65.2729 106.93C66.097 103.655 64.9733 100.196 62.3813 98.0306L37.2395 77.0245C35.727 75.7608 36.5272 73.2984 38.4935 73.165L71.1807 70.9487C74.5507 70.7202 77.4925 68.5828 78.7512 65.4484L75.6828 64.2162L78.7512 65.4484L90.96 35.0459Z" stroke="#0094FF" stroke-width="6.61308"/>
</g>
<g style="mix-blend-mode:hard-light" filter="url(#filter3_ddi_617_9094)">
<path d="M90.238 34.756C91.2338 32.2763 94.7442 32.2762 95.74 34.756L107.949 65.1585C109.096 68.0158 111.778 69.9641 114.85 70.1724L147.537 72.3888C150.203 72.5696 151.288 75.9082 149.237 77.6215L124.096 98.6276C121.733 100.602 120.708 103.754 121.46 106.74L129.453 138.513C130.105 141.104 127.265 143.168 125.001 141.747L97.2542 124.327C94.6464 122.69 91.3316 122.69 88.7239 124.327L60.9766 141.747C58.7135 143.168 55.8735 141.104 56.5254 138.513L64.5184 106.74C65.2696 103.754 64.2453 100.602 61.8824 98.6276L36.7407 77.6215C34.69 75.9082 35.7748 72.5696 38.4409 72.3888L71.1281 70.1724C74.2001 69.9641 76.8818 68.0158 78.0292 65.1585L90.238 34.756Z" stroke="#00B3FF" stroke-opacity="0.2" stroke-width="5.05706"/>
</g>
<g filter="url(#filter4_f_617_9094)">
<path d="M89.3356 34.3936C90.658 31.1004 95.32 31.1004 96.6425 34.3936L108.851 64.7961C109.86 67.307 112.216 69.0191 114.916 69.2022L147.603 71.4185C151.144 71.6586 152.584 76.0924 149.861 78.3678L124.719 99.3739C122.643 101.109 121.743 103.879 122.403 106.503L130.396 138.275C131.262 141.717 127.49 144.457 124.484 142.57L96.7371 125.15C94.4455 123.712 91.5326 123.712 89.241 125.15L61.4937 142.57C58.4881 144.457 54.7165 141.717 55.5823 138.275L63.5753 106.503C64.2355 103.879 63.3353 101.109 61.2589 99.3739L36.1171 78.3678C33.3938 76.0924 34.8344 71.6586 38.3751 71.4185L71.0623 69.2022C73.7619 69.0191 76.1185 67.307 77.1268 64.7961L89.3356 34.3936Z" stroke="#82D9FF" stroke-width="3.11204"/>
</g>
<g filter="url(#filter5_f_617_9094)">
<path d="M88.6136 34.1036C90.1974 30.1597 95.7807 30.1597 97.3645 34.1037L109.573 64.5061C110.47 66.7399 112.567 68.2631 114.968 68.4259L147.656 70.6423C151.896 70.9298 153.621 76.2398 150.36 78.9649L125.218 99.971C123.371 101.514 122.57 103.979 123.157 106.313L131.15 138.086C132.187 142.207 127.67 145.489 124.071 143.229L96.3234 125.809C94.2847 124.529 91.6933 124.529 89.6547 125.809L61.9074 143.229C58.3079 145.489 53.7909 142.207 54.8278 138.086L62.8208 106.313C63.4081 103.979 62.6073 101.514 60.7601 99.971L35.6183 78.9649C32.3568 76.2398 34.0821 70.9298 38.3225 70.6423L71.0097 68.4259C73.4113 68.2631 75.5078 66.7399 76.4048 64.5061L88.6136 34.1036Z" stroke="white" stroke-width="1.55602"/>
</g>
</g>
<g filter="url(#filter6_f_617_9094)">
<g style="mix-blend-mode:hard-light" filter="url(#filter7_f_617_9094)">
<path d="M276.903 33.8137C278.748 29.2189 285.253 29.219 287.098 33.8137L299.306 64.2162C300.092 66.1729 301.929 67.5071 304.032 67.6497L336.719 69.8661C341.66 70.201 343.67 76.3872 339.87 79.5619L314.728 100.568C313.11 101.92 312.409 104.079 312.923 106.124L320.916 137.896C322.124 142.698 316.862 146.521 312.668 143.888L284.921 126.468C283.135 125.347 280.865 125.347 279.08 126.468L251.332 143.888C247.139 146.521 241.877 142.698 243.085 137.896L251.078 106.124C251.592 104.079 250.891 101.92 249.272 100.568L224.131 79.5619C220.331 76.3872 222.341 70.201 227.281 69.8661L259.968 67.6497C262.072 67.5071 263.908 66.1729 264.694 64.2162L276.903 33.8137Z" fill="#0094FF" fill-opacity="0.5"/>
<path d="M279.249 34.756C280.245 32.2763 283.755 32.2762 284.751 34.756L296.96 65.1585C298.107 68.0158 300.789 69.9641 303.861 70.1724L336.548 72.3888C339.214 72.5696 340.299 75.9082 338.249 77.6215L313.107 98.6276C310.744 100.602 309.72 103.754 310.471 106.74L318.464 138.513C319.116 141.104 316.276 143.168 314.013 141.747L286.265 124.327C283.658 122.69 280.343 122.69 277.735 124.327L249.988 141.747C247.725 143.168 244.885 141.104 245.537 138.513L253.53 106.74C254.281 103.754 253.257 100.602 250.894 98.6276L225.752 77.6215C223.701 75.9082 224.786 72.5696 227.452 72.3888L260.139 70.1724C263.211 69.9641 265.893 68.0158 267.04 65.1585L279.249 34.756Z" stroke="#0094FF" stroke-width="5.05706"/>
</g>
<g style="mix-blend-mode:hard-light" filter="url(#filter8_f_617_9094)">
<path d="M279.971 35.0459C280.706 33.217 283.295 33.2169 284.029 35.0459L296.238 65.4484C297.497 68.5828 300.439 70.7202 303.809 70.9487L336.496 73.165C338.462 73.2984 339.262 75.7608 337.75 77.0245L312.608 98.0306C310.016 100.196 308.892 103.655 309.716 106.93L317.709 138.703C318.19 140.614 316.096 142.136 314.426 141.088L286.679 123.668C283.818 121.872 280.182 121.872 277.321 123.668L249.574 141.088C247.905 142.136 245.81 140.614 246.291 138.703L254.284 106.93C255.108 103.655 253.985 100.196 251.393 98.0306L226.251 77.0245C224.738 75.7608 225.538 73.2984 227.505 73.165L260.192 70.9487C263.562 70.7202 266.504 68.5828 267.762 65.4484L264.694 64.2162L267.762 65.4484L279.971 35.0459Z" stroke="#0094FF" stroke-width="6.61308"/>
</g>
<g style="mix-blend-mode:hard-light" filter="url(#filter9_ddi_617_9094)">
<path d="M279.249 34.756C280.245 32.2763 283.755 32.2762 284.751 34.756L296.96 65.1585C298.107 68.0158 300.789 69.9641 303.861 70.1724L336.548 72.3888C339.214 72.5696 340.299 75.9082 338.249 77.6215L313.107 98.6276C310.744 100.602 309.72 103.754 310.471 106.74L318.464 138.513C319.116 141.104 316.276 143.168 314.013 141.747L286.265 124.327C283.658 122.69 280.343 122.69 277.735 124.327L249.988 141.747C247.725 143.168 244.885 141.104 245.537 138.513L253.53 106.74C254.281 103.754 253.257 100.602 250.894 98.6276L225.752 77.6215C223.701 75.9082 224.786 72.5696 227.452 72.3888L260.139 70.1724C263.211 69.9641 265.893 68.0158 267.04 65.1585L279.249 34.756Z" stroke="#00B3FF" stroke-opacity="0.2" stroke-width="5.05706"/>
</g>
<g filter="url(#filter10_f_617_9094)">
<path d="M278.347 34.3936C279.669 31.1004 284.331 31.1004 285.654 34.3936L297.863 64.7961C298.871 67.307 301.227 69.0191 303.927 69.2022L336.614 71.4185C340.155 71.6586 341.596 76.0924 338.872 78.3678L313.73 99.3739C311.654 101.109 310.754 103.879 311.414 106.503L319.407 138.275C320.273 141.717 316.501 144.457 313.496 142.57L285.748 125.15C283.457 123.712 280.544 123.712 278.252 125.15L250.505 142.57C247.499 144.457 243.728 141.717 244.594 138.275L252.587 106.503C253.247 103.879 252.347 101.109 250.27 99.3739L225.128 78.3678C222.405 76.0924 223.846 71.6586 227.386 71.4185L260.074 69.2022C262.773 69.0191 265.13 67.307 266.138 64.7961L278.347 34.3936Z" stroke="#82D9FF" stroke-width="3.11204"/>
</g>
<g filter="url(#filter11_f_617_9094)">
<path d="M277.625 34.1036C279.209 30.1597 284.792 30.1597 286.376 34.1037L298.584 64.5061C299.481 66.7399 301.578 68.2631 303.98 68.4259L336.667 70.6423C340.907 70.9298 342.633 76.2398 339.371 78.9649L314.229 99.971C312.382 101.514 311.581 103.979 312.168 106.313L320.161 138.086C321.198 142.207 316.681 145.489 313.082 143.229L285.335 125.809C283.296 124.529 280.705 124.529 278.666 125.809L250.919 143.229C247.319 145.489 242.802 142.207 243.839 138.086L251.832 106.313C252.419 103.979 251.619 101.514 249.771 99.971L224.63 78.9649C221.368 76.2398 223.093 70.9298 227.334 70.6423L260.021 68.4259C262.423 68.2631 264.519 66.7399 265.416 64.5061L277.625 34.1036Z" stroke="white" stroke-width="1.55602"/>
</g>
</g>
<g filter="url(#filter12_f_617_9094)">
<g style="mix-blend-mode:hard-light" filter="url(#filter13_f_617_9094)">
<path d="M465.914 33.8137C467.759 29.2189 474.264 29.219 476.109 33.8137L488.318 64.2162C489.103 66.1729 490.94 67.5071 493.043 67.6497L525.731 69.8661C530.671 70.201 532.681 76.3872 528.881 79.5619L503.739 100.568C502.121 101.92 501.42 104.079 501.934 106.124L509.927 137.896C511.135 142.698 505.873 146.521 501.679 143.888L473.932 126.468C472.146 125.347 469.877 125.347 468.091 126.468L440.344 143.888C436.15 146.521 430.888 142.698 432.096 137.896L440.089 106.124C440.603 104.079 439.902 101.92 438.284 100.568L413.142 79.5619C409.342 76.3872 411.352 70.201 416.292 69.8661L448.98 67.6497C451.083 67.5071 452.92 66.1729 453.705 64.2162L465.914 33.8137Z" fill="#0094FF" fill-opacity="0.5"/>
<path d="M468.26 34.756C469.256 32.2763 472.767 32.2762 473.762 34.756L485.971 65.1585C487.119 68.0158 489.8 69.9641 492.872 70.1724L525.56 72.3888C528.226 72.5696 529.31 75.9082 527.26 77.6215L502.118 98.6276C499.755 100.602 498.731 103.754 499.482 106.74L507.475 138.513C508.127 141.104 505.287 143.168 503.024 141.747L475.277 124.327C472.669 122.69 469.354 122.69 466.746 124.327L438.999 141.747C436.736 143.168 433.896 141.104 434.548 138.513L442.541 106.74C443.292 103.754 442.268 100.602 439.905 98.6276L414.763 77.6215C412.712 75.9082 413.797 72.5696 416.463 72.3888L449.151 70.1724C452.223 69.9641 454.904 68.0158 456.052 65.1585L468.26 34.756Z" stroke="#0094FF" stroke-width="5.05706"/>
</g>
<g style="mix-blend-mode:hard-light" filter="url(#filter14_f_617_9094)">
<path d="M468.982 35.0459C469.717 33.217 472.306 33.2169 473.041 35.0459L485.249 65.4484C486.508 68.5828 489.45 70.7202 492.82 70.9487L525.507 73.165C527.473 73.2984 528.273 75.7608 526.761 77.0245L501.619 98.0306C499.027 100.196 497.904 103.655 498.728 106.93L506.721 138.703C507.201 140.614 505.107 142.136 503.438 141.088L475.69 123.668C472.83 121.872 469.193 121.872 466.333 123.668L438.585 141.088C436.916 142.136 434.822 140.614 435.302 138.703L443.295 106.93C444.119 103.655 442.996 100.196 440.404 98.0306L415.262 77.0245C413.75 75.7608 414.55 73.2984 416.516 73.165L449.203 70.9487C452.573 70.7202 455.515 68.5828 456.774 65.4484L453.705 64.2162L456.774 65.4484L468.982 35.0459Z" stroke="#0094FF" stroke-width="6.61308"/>
</g>
<g style="mix-blend-mode:hard-light" filter="url(#filter15_ddi_617_9094)">
<path d="M468.26 34.756C469.256 32.2763 472.767 32.2762 473.762 34.756L485.971 65.1585C487.119 68.0158 489.8 69.9641 492.872 70.1724L525.56 72.3888C528.226 72.5696 529.31 75.9082 527.26 77.6215L502.118 98.6276C499.755 100.602 498.731 103.754 499.482 106.74L507.475 138.513C508.127 141.104 505.287 143.168 503.024 141.747L475.277 124.327C472.669 122.69 469.354 122.69 466.746 124.327L438.999 141.747C436.736 143.168 433.896 141.104 434.548 138.513L442.541 106.74C443.292 103.754 442.268 100.602 439.905 98.6276L414.763 77.6215C412.712 75.9082 413.797 72.5696 416.463 72.3888L449.151 70.1724C452.223 69.9641 454.904 68.0158 456.052 65.1585L468.26 34.756Z" stroke="#00B3FF" stroke-opacity="0.2" stroke-width="5.05706"/>
</g>
<g filter="url(#filter16_f_617_9094)">
<path d="M467.358 34.3936C468.68 31.1004 473.342 31.1004 474.665 34.3936L486.874 64.7961C487.882 67.307 490.239 69.0191 492.938 69.2022L525.625 71.4185C529.166 71.6586 530.607 76.0924 527.883 78.3678L502.742 99.3739C500.665 101.109 499.765 103.879 500.425 106.503L508.418 138.275C509.284 141.717 505.512 144.457 502.507 142.57L474.76 125.15C472.468 123.712 469.555 123.712 467.263 125.15L439.516 142.57C436.511 144.457 432.739 141.717 433.605 138.275L441.598 106.503C442.258 103.879 441.358 101.109 439.281 99.3739L414.14 78.3678C411.416 76.0924 412.857 71.6586 416.398 71.4185L449.085 69.2022C451.784 69.0191 454.141 67.307 455.149 64.7961L467.358 34.3936Z" stroke="#82D9FF" stroke-width="3.11204"/>
</g>
<g filter="url(#filter17_f_617_9094)">
<path d="M466.636 34.1036C468.22 30.1597 473.803 30.1597 475.387 34.1037L487.596 64.5061C488.493 66.7399 490.589 68.2631 492.991 68.4259L525.678 70.6423C529.918 70.9298 531.644 76.2398 528.382 78.9649L503.24 99.971C501.393 101.514 500.592 103.979 501.18 106.313L509.173 138.086C510.21 142.207 505.693 145.489 502.093 143.229L474.346 125.809C472.307 124.529 469.716 124.529 467.677 125.809L439.93 143.229C436.33 145.489 431.813 142.207 432.85 138.086L440.843 106.313C441.431 103.979 440.63 101.514 438.783 99.971L413.641 78.9649C410.379 76.2398 412.105 70.9298 416.345 70.6423L449.032 68.4259C451.434 68.2631 453.53 66.7399 454.427 64.5061L466.636 34.1036Z" stroke="white" stroke-width="1.55602"/>
</g>
</g>
<defs>
<filter id="filter0_f_617_9094" x="0.2394" y="0.256001" width="185.499" height="185.499" filterUnits="userSpaceOnUse" color-interpolation-filters="sRGB">
<feFlood flood-opacity="0" result="BackgroundImageFix"/>
<feBlend mode="normal" in="SourceGraphic" in2="BackgroundImageFix" result="shape"/>
<feGaussianBlur stdDeviation="1.372" result="effect1_foregroundBlur_617_9094"/>
</filter>
<filter id="filter1_f_617_9094" x="16.8019" y="14.029" width="152.374" height="147.056" filterUnits="userSpaceOnUse" color-interpolation-filters="sRGB">
<feFlood flood-opacity="0" result="BackgroundImageFix"/>
<feBlend mode="normal" in="SourceGraphic" in2="BackgroundImageFix" result="shape"/>
<feGaussianBlur stdDeviation="8.1691" result="effect1_foregroundBlur_617_9094"/>
</filter>
<filter id="filter2_f_617_9094" x="27.6941" y="24.9211" width="130.59" height="125.272" filterUnits="userSpaceOnUse" color-interpolation-filters="sRGB">
<feFlood flood-opacity="0" result="BackgroundImageFix"/>
<feBlend mode="normal" in="SourceGraphic" in2="BackgroundImageFix" result="shape"/>
<feGaussianBlur stdDeviation="2.72303" result="effect1_foregroundBlur_617_9094"/>
</filter>
<filter id="filter3_ddi_617_9094" x="26.0602" y="28.7334" width="133.858" height="128.54" filterUnits="userSpaceOnUse" color-interpolation-filters="sRGB">
<feFlood flood-opacity="0" result="BackgroundImageFix"/>
<feColorMatrix in="SourceAlpha" type="matrix" values="0 0 0 0 0 0 0 0 0 0 0 0 0 0 0 0 0 0 127 0" result="hardAlpha"/>
<feOffset dy="5.05706"/>
<feGaussianBlur stdDeviation="1.94502"/>
<feColorMatrix type="matrix" values="0 0 0 0 0 0 0 0 0 0.051 0 0 0 0 0.082 0 0 0 0.7 0"/>
<feBlend mode="multiply" in2="BackgroundImageFix" result="effect1_dropShadow_617_9094"/>
<feColorMatrix in="SourceAlpha" type="matrix" values="0 0 0 0 0 0 0 0 0 0 0 0 0 0 0 0 0 0 127 0" result="hardAlpha"/>
<feOffset dy="5.44607"/>
<feGaussianBlur stdDeviation="3.53994"/>
<feColorMatrix type="matrix" values="0 0 0 0 0 0 0 0 0 0.4 0 0 0 0 1 0 0 0 1 0"/>
<feBlend mode="color-dodge" in2="effect1_dropShadow_617_9094" result="effect2_dropShadow_617_9094"/>
<feBlend mode="normal" in="SourceGraphic" in2="effect2_dropShadow_617_9094" result="shape"/>
<feColorMatrix in="SourceAlpha" type="matrix" values="0 0 0 0 0 0 0 0 0 0 0 0 0 0 0 0 0 0 127 0" result="hardAlpha"/>
<feOffset dx="-0.505706" dy="1.01141"/>
<feGaussianBlur stdDeviation="0.252853"/>
<feComposite in2="hardAlpha" operator="arithmetic" k2="-1" k3="1"/>
<feColorMatrix type="matrix" values="0 0 0 0 1 0 0 0 0 1 0 0 0 0 1 0 0 0 0.5 0"/>
<feBlend mode="normal" in2="shape" result="effect3_innerShadow_617_9094"/>
</filter>
<filter id="filter4_f_617_9094" x="32.3621" y="29.5892" width="121.254" height="115.936" filterUnits="userSpaceOnUse" color-interpolation-filters="sRGB">
<feFlood flood-opacity="0" result="BackgroundImageFix"/>
<feBlend mode="normal" in="SourceGraphic" in2="BackgroundImageFix" result="shape"/>
<feGaussianBlur stdDeviation="0.389005" result="effect1_foregroundBlur_617_9094"/>
</filter>
<filter id="filter5_f_617_9094" x="32.6215" y="29.8485" width="120.735" height="115.417" filterUnits="userSpaceOnUse" color-interpolation-filters="sRGB">
<feFlood flood-opacity="0" result="BackgroundImageFix"/>
<feBlend mode="normal" in="SourceGraphic" in2="BackgroundImageFix" result="shape"/>
<feGaussianBlur stdDeviation="0.259337" result="effect1_foregroundBlur_617_9094"/>
</filter>
<filter id="filter6_f_617_9094" x="189.251" y="0.256001" width="185.499" height="185.499" filterUnits="userSpaceOnUse" color-interpolation-filters="sRGB">
<feFlood flood-opacity="0" result="BackgroundImageFix"/>
<feBlend mode="normal" in="SourceGraphic" in2="BackgroundImageFix" result="shape"/>
<feGaussianBlur stdDeviation="1.372" result="effect1_foregroundBlur_617_9094"/>
</filter>
<filter id="filter7_f_617_9094" x="205.813" y="14.029" width="152.374" height="147.056" filterUnits="userSpaceOnUse" color-interpolation-filters="sRGB">
<feFlood flood-opacity="0" result="BackgroundImageFix"/>
<feBlend mode="normal" in="SourceGraphic" in2="BackgroundImageFix" result="shape"/>
<feGaussianBlur stdDeviation="8.1691" result="effect1_foregroundBlur_617_9094"/>
</filter>
<filter id="filter8_f_617_9094" x="216.705" y="24.9211" width="130.59" height="125.272" filterUnits="userSpaceOnUse" color-interpolation-filters="sRGB">
<feFlood flood-opacity="0" result="BackgroundImageFix"/>
<feBlend mode="normal" in="SourceGraphic" in2="BackgroundImageFix" result="shape"/>
<feGaussianBlur stdDeviation="2.72303" result="effect1_foregroundBlur_617_9094"/>
</filter>
<filter id="filter9_ddi_617_9094" x="215.071" y="28.7334" width="133.858" height="128.54" filterUnits="userSpaceOnUse" color-interpolation-filters="sRGB">
<feFlood flood-opacity="0" result="BackgroundImageFix"/>
<feColorMatrix in="SourceAlpha" type="matrix" values="0 0 0 0 0 0 0 0 0 0 0 0 0 0 0 0 0 0 127 0" result="hardAlpha"/>
<feOffset dy="5.05706"/>
<feGaussianBlur stdDeviation="1.94502"/>
<feColorMatrix type="matrix" values="0 0 0 0 0 0 0 0 0 0.051 0 0 0 0 0.082 0 0 0 0.7 0"/>
<feBlend mode="multiply" in2="BackgroundImageFix" result="effect1_dropShadow_617_9094"/>
<feColorMatrix in="SourceAlpha" type="matrix" values="0 0 0 0 0 0 0 0 0 0 0 0 0 0 0 0 0 0 127 0" result="hardAlpha"/>
<feOffset dy="5.44607"/>
<feGaussianBlur stdDeviation="3.53994"/>
<feColorMatrix type="matrix" values="0 0 0 0 0 0 0 0 0 0.4 0 0 0 0 1 0 0 0 1 0"/>
<feBlend mode="color-dodge" in2="effect1_dropShadow_617_9094" result="effect2_dropShadow_617_9094"/>
<feBlend mode="normal" in="SourceGraphic" in2="effect2_dropShadow_617_9094" result="shape"/>
<feColorMatrix in="SourceAlpha" type="matrix" values="0 0 0 0 0 0 0 0 0 0 0 0 0 0 0 0 0 0 127 0" result="hardAlpha"/>
<feOffset dx="-0.505706" dy="1.01141"/>
<feGaussianBlur stdDeviation="0.252853"/>
<feComposite in2="hardAlpha" operator="arithmetic" k2="-1" k3="1"/>
<feColorMatrix type="matrix" values="0 0 0 0 1 0 0 0 0 1 0 0 0 0 1 0 0 0 0.5 0"/>
<feBlend mode="normal" in2="shape" result="effect3_innerShadow_617_9094"/>
</filter>
<filter id="filter10_f_617_9094" x="221.373" y="29.5892" width="121.254" height="115.936" filterUnits="userSpaceOnUse" color-interpolation-filters="sRGB">
<feFlood flood-opacity="0" result="BackgroundImageFix"/>
<feBlend mode="normal" in="SourceGraphic" in2="BackgroundImageFix" result="shape"/>
<feGaussianBlur stdDeviation="0.389005" result="effect1_foregroundBlur_617_9094"/>
</filter>
<filter id="filter11_f_617_9094" x="221.633" y="29.8485" width="120.735" height="115.417" filterUnits="userSpaceOnUse" color-interpolation-filters="sRGB">
<feFlood flood-opacity="0" result="BackgroundImageFix"/>
<feBlend mode="normal" in="SourceGraphic" in2="BackgroundImageFix" result="shape"/>
<feGaussianBlur stdDeviation="0.259337" result="effect1_foregroundBlur_617_9094"/>
</filter>
<filter id="filter12_f_617_9094" x="378.262" y="0.256001" width="185.499" height="185.499" filterUnits="userSpaceOnUse" color-interpolation-filters="sRGB">
<feFlood flood-opacity="0" result="BackgroundImageFix"/>
<feBlend mode="normal" in="SourceGraphic" in2="BackgroundImageFix" result="shape"/>
<feGaussianBlur stdDeviation="1.372" result="effect1_foregroundBlur_617_9094"/>
</filter>
<filter id="filter13_f_617_9094" x="394.824" y="14.029" width="152.374" height="147.056" filterUnits="userSpaceOnUse" color-interpolation-filters="sRGB">
<feFlood flood-opacity="0" result="BackgroundImageFix"/>
<feBlend mode="normal" in="SourceGraphic" in2="BackgroundImageFix" result="shape"/>
<feGaussianBlur stdDeviation="8.1691" result="effect1_foregroundBlur_617_9094"/>
</filter>
<filter id="filter14_f_617_9094" x="405.717" y="24.9211" width="130.59" height="125.272" filterUnits="userSpaceOnUse" color-interpolation-filters="sRGB">
<feFlood flood-opacity="0" result="BackgroundImageFix"/>
<feBlend mode="normal" in="SourceGraphic" in2="BackgroundImageFix" result="shape"/>
<feGaussianBlur stdDeviation="2.72303" result="effect1_foregroundBlur_617_9094"/>
</filter>
<filter id="filter15_ddi_617_9094" x="404.083" y="28.7334" width="133.858" height="128.54" filterUnits="userSpaceOnUse" color-interpolation-filters="sRGB">
<feFlood flood-opacity="0" result="BackgroundImageFix"/>
<feColorMatrix in="SourceAlpha" type="matrix" values="0 0 0 0 0 0 0 0 0 0 0 0 0 0 0 0 0 0 127 0" result="hardAlpha"/>
<feOffset dy="5.05706"/>
<feGaussianBlur stdDeviation="1.94502"/>
<feColorMatrix type="matrix" values="0 0 0 0 0 0 0 0 0 0.051 0 0 0 0 0.082 0 0 0 0.7 0"/>
<feBlend mode="multiply" in2="BackgroundImageFix" result="effect1_dropShadow_617_9094"/>
<feColorMatrix in="SourceAlpha" type="matrix" values="0 0 0 0 0 0 0 0 0 0 0 0 0 0 0 0 0 0 127 0" result="hardAlpha"/>
<feOffset dy="5.44607"/>
<feGaussianBlur stdDeviation="3.53994"/>
<feColorMatrix type="matrix" values="0 0 0 0 0 0 0 0 0 0.4 0 0 0 0 1 0 0 0 1 0"/>
<feBlend mode="color-dodge" in2="effect1_dropShadow_617_9094" result="effect2_dropShadow_617_9094"/>
<feBlend mode="normal" in="SourceGraphic" in2="effect2_dropShadow_617_9094" result="shape"/>
<feColorMatrix in="SourceAlpha" type="matrix" values="0 0 0 0 0 0 0 0 0 0 0 0 0 0 0 0 0 0 127 0" result="hardAlpha"/>
<feOffset dx="-0.505706" dy="1.01141"/>
<feGaussianBlur stdDeviation="0.252853"/>
<feComposite in2="hardAlpha" operator="arithmetic" k2="-1" k3="1"/>
<feColorMatrix type="matrix" values="0 0 0 0 1 0 0 0 0 1 0 0 0 0 1 0 0 0 0.5 0"/>
<feBlend mode="normal" in2="shape" result="effect3_innerShadow_617_9094"/>
</filter>
<filter id="filter16_f_617_9094" x="410.385" y="29.5892" width="121.254" height="115.936" filterUnits="userSpaceOnUse" color-interpolation-filters="sRGB">
<feFlood flood-opacity="0" result="BackgroundImageFix"/>
<feBlend mode="normal" in="SourceGraphic" in2="BackgroundImageFix" result="shape"/>
<feGaussianBlur stdDeviation="0.389005" result="effect1_foregroundBlur_617_9094"/>
</filter>
<filter id="filter17_f_617_9094" x="410.644" y="29.8485" width="120.735" height="115.417" filterUnits="userSpaceOnUse" color-interpolation-filters="sRGB">
<feFlood flood-opacity="0" result="BackgroundImageFix"/>
<feBlend mode="normal" in="SourceGraphic" in2="BackgroundImageFix" result="shape"/>
<feGaussianBlur stdDeviation="0.259337" result="effect1_foregroundBlur_617_9094"/>
</filter>
</defs>
</svg>
