<svg viewBox="0 0 499 499" fill="none" xmlns="http://www.w3.org/2000/svg">
<g filter="url(#filter0_f_575_3653)">
<g style="mix-blend-mode:hard-light" filter="url(#filter1_f_575_3653)">
<path d="M362.665 235.606L409.544 233.772M297.427 345.513L315.532 387.637M181.711 321.401L152.004 351.008M160.867 200.827L117.38 176.359M270.98 143.612L269.152 92.906M260.584 186.98L203.939 137.361C199.59 133.551 192.816 136.988 193.323 142.748L199.918 217.762C200.134 220.215 198.926 222.575 196.811 223.835L132.116 262.374C127.149 265.333 128.324 272.837 133.959 274.135L207.34 291.044C209.739 291.596 211.61 293.474 212.155 295.875L228.816 369.313C230.095 374.951 237.595 376.152 240.571 371.195L279.328 306.63C280.595 304.519 282.959 303.32 285.411 303.544L360.403 310.391C366.161 310.917 369.62 304.155 365.825 299.793L316.397 242.982C314.781 241.124 314.371 238.506 315.342 236.243L345.028 167.037C347.307 161.724 341.945 156.344 336.624 158.605L267.319 188.058C265.053 189.021 262.436 188.602 260.584 186.98Z" stroke="#0094FF" stroke-width="10.6453" stroke-linecap="round" stroke-linejoin="round"/>
</g>
<g style="mix-blend-mode:hard-light" filter="url(#filter2_f_575_3653)">
<path d="M362.665 235.606L409.544 233.772M297.427 345.513L315.532 387.637M181.711 321.401L152.004 351.008M160.867 200.827L117.38 176.359M270.98 143.612L269.152 92.906M260.584 186.98L203.939 137.361C199.59 133.551 192.816 136.988 193.323 142.748L199.918 217.762C200.134 220.215 198.926 222.575 196.811 223.835L132.116 262.374C127.149 265.333 128.324 272.837 133.959 274.135L207.34 291.044C209.739 291.596 211.61 293.474 212.155 295.875L228.816 369.313C230.095 374.951 237.595 376.152 240.571 371.195L279.328 306.63C280.595 304.519 282.959 303.32 285.411 303.544L360.403 310.391C366.161 310.917 369.62 304.155 365.825 299.793L316.397 242.982C314.781 241.124 314.371 238.506 315.342 236.243L345.028 167.037C347.307 161.724 341.945 156.344 336.624 158.605L267.319 188.058C265.053 189.021 262.436 188.602 260.584 186.98Z" stroke="#0094FF" stroke-width="13.9208" stroke-linecap="round" stroke-linejoin="round"/>
</g>
<g style="mix-blend-mode:hard-light" filter="url(#filter3_ddi_575_3653)">
<path d="M362.665 235.606L409.544 233.772M297.427 345.513L315.532 387.637M181.711 321.401L152.004 351.008M160.867 200.827L117.38 176.359M270.98 143.612L269.152 92.906M260.584 186.98L203.939 137.361C199.59 133.551 192.816 136.988 193.323 142.748L199.918 217.762C200.134 220.215 198.926 222.575 196.811 223.835L132.116 262.374C127.149 265.333 128.324 272.837 133.959 274.135L207.34 291.044C209.739 291.596 211.61 293.474 212.155 295.875L228.816 369.313C230.095 374.951 237.595 376.152 240.571 371.195L279.328 306.63C280.595 304.519 282.959 303.32 285.411 303.544L360.403 310.391C366.161 310.917 369.62 304.155 365.825 299.793L316.397 242.982C314.781 241.124 314.371 238.506 315.342 236.243L345.028 167.037C347.307 161.724 341.945 156.344 336.624 158.605L267.319 188.058C265.053 189.021 262.436 188.602 260.584 186.98Z" stroke="#00B3FF" stroke-opacity="0.2" stroke-width="10.6453" stroke-linecap="round" stroke-linejoin="round"/>
</g>
<g filter="url(#filter4_f_575_3653)">
<path d="M362.665 235.606L409.544 233.772M297.427 345.513L315.532 387.637M181.711 321.401L152.004 351.008M160.867 200.827L117.38 176.359M270.98 143.612L269.152 92.906M260.584 186.98L203.939 137.361C199.59 133.551 192.816 136.988 193.323 142.748L199.918 217.762C200.134 220.215 198.926 222.575 196.811 223.835L132.116 262.374C127.149 265.333 128.324 272.837 133.959 274.135L207.34 291.044C209.739 291.596 211.61 293.474 212.155 295.875L228.816 369.313C230.095 374.951 237.595 376.152 240.571 371.195L279.328 306.63C280.595 304.519 282.959 303.32 285.411 303.544L360.403 310.391C366.161 310.917 369.62 304.155 365.825 299.793L316.397 242.982C314.781 241.124 314.371 238.506 315.342 236.243L345.028 167.037C347.307 161.724 341.945 156.344 336.624 158.605L267.319 188.058C265.053 189.021 262.436 188.602 260.584 186.98Z" stroke="#82D9FF" stroke-width="6.55096" stroke-linecap="round" stroke-linejoin="round"/>
</g>
<g filter="url(#filter5_f_575_3653)">
<path d="M362.665 235.606L409.544 233.772M297.427 345.513L315.532 387.637M181.711 321.401L152.004 351.008M160.867 200.827L117.38 176.359M270.98 143.612L269.152 92.906M260.584 186.98L203.939 137.361C199.59 133.551 192.816 136.988 193.323 142.748L199.918 217.762C200.134 220.215 198.926 222.575 196.811 223.835L132.116 262.374C127.149 265.333 128.324 272.837 133.959 274.135L207.34 291.044C209.739 291.596 211.61 293.474 212.155 295.875L228.816 369.313C230.095 374.951 237.595 376.152 240.571 371.195L279.328 306.63C280.595 304.519 282.959 303.32 285.411 303.544L360.403 310.391C366.161 310.917 369.62 304.155 365.825 299.793L316.397 242.982C314.781 241.124 314.371 238.506 315.342 236.243L345.028 167.037C347.307 161.724 341.945 156.344 336.624 158.605L267.319 188.058C265.053 189.021 262.436 188.602 260.584 186.98Z" stroke="white" stroke-width="3.27548" stroke-linecap="round" stroke-linejoin="round"/>
</g>
</g>
<defs>
<filter id="filter0_f_575_3653" x="0.194256" y="0.194256" width="498.166" height="498.185" filterUnits="userSpaceOnUse" color-interpolation-filters="sRGB">
<feFlood flood-opacity="0" result="BackgroundImageFix"/>
<feBlend mode="normal" in="SourceGraphic" in2="BackgroundImageFix" result="shape"/>
<feGaussianBlur stdDeviation="2.40287" result="effect1_foregroundBlur_575_3653"/>
</filter>
<filter id="filter1_f_575_3653" x="62.9244" y="38.4508" width="401.075" height="403.642" filterUnits="userSpaceOnUse" color-interpolation-filters="sRGB">
<feFlood flood-opacity="0" result="BackgroundImageFix"/>
<feBlend mode="normal" in="SourceGraphic" in2="BackgroundImageFix" result="shape"/>
<feGaussianBlur stdDeviation="24.5661" result="effect1_foregroundBlur_575_3653"/>
</filter>
<filter id="filter2_f_575_3653" x="94.0412" y="69.5679" width="338.841" height="341.408" filterUnits="userSpaceOnUse" color-interpolation-filters="sRGB">
<feFlood flood-opacity="0" result="BackgroundImageFix"/>
<feBlend mode="normal" in="SourceGraphic" in2="BackgroundImageFix" result="shape"/>
<feGaussianBlur stdDeviation="8.1887" result="effect1_foregroundBlur_575_3653"/>
</filter>
<filter id="filter3_ddi_575_3653" x="90.766" y="82.6698" width="345.392" height="347.959" filterUnits="userSpaceOnUse" color-interpolation-filters="sRGB">
<feFlood flood-opacity="0" result="BackgroundImageFix"/>
<feColorMatrix in="SourceAlpha" type="matrix" values="0 0 0 0 0 0 0 0 0 0 0 0 0 0 0 0 0 0 127 0" result="hardAlpha"/>
<feOffset dy="10.6453"/>
<feGaussianBlur stdDeviation="4.09435"/>
<feColorMatrix type="matrix" values="0 0 0 0 0 0 0 0 0 0.051 0 0 0 0 0.082 0 0 0 0.7 0"/>
<feBlend mode="multiply" in2="BackgroundImageFix" result="effect1_dropShadow_575_3653"/>
<feColorMatrix in="SourceAlpha" type="matrix" values="0 0 0 0 0 0 0 0 0 0 0 0 0 0 0 0 0 0 127 0" result="hardAlpha"/>
<feOffset dy="16.3774"/>
<feGaussianBlur stdDeviation="10.6453"/>
<feColorMatrix type="matrix" values="0 0 0 0 0 0 0 0 0 0.4 0 0 0 0 1 0 0 0 1 0"/>
<feBlend mode="color-dodge" in2="effect1_dropShadow_575_3653" result="effect2_dropShadow_575_3653"/>
<feBlend mode="normal" in="SourceGraphic" in2="effect2_dropShadow_575_3653" result="shape"/>
<feColorMatrix in="SourceAlpha" type="matrix" values="0 0 0 0 0 0 0 0 0 0 0 0 0 0 0 0 0 0 127 0" result="hardAlpha"/>
<feOffset dx="-1.06453" dy="2.12906"/>
<feGaussianBlur stdDeviation="0.532266"/>
<feComposite in2="hardAlpha" operator="arithmetic" k2="-1" k3="1"/>
<feColorMatrix type="matrix" values="0 0 0 0 1 0 0 0 0 1 0 0 0 0 1 0 0 0 0.5 0"/>
<feBlend mode="normal" in2="shape" result="effect3_innerShadow_575_3653"/>
</filter>
<filter id="filter4_f_575_3653" x="112.466" y="87.9931" width="301.991" height="304.558" filterUnits="userSpaceOnUse" color-interpolation-filters="sRGB">
<feFlood flood-opacity="0" result="BackgroundImageFix"/>
<feBlend mode="normal" in="SourceGraphic" in2="BackgroundImageFix" result="shape"/>
<feGaussianBlur stdDeviation="0.81887" result="effect1_foregroundBlur_575_3653"/>
</filter>
<filter id="filter5_f_575_3653" x="114.65" y="90.1767" width="297.624" height="300.19" filterUnits="userSpaceOnUse" color-interpolation-filters="sRGB">
<feFlood flood-opacity="0" result="BackgroundImageFix"/>
<feBlend mode="normal" in="SourceGraphic" in2="BackgroundImageFix" result="shape"/>
<feGaussianBlur stdDeviation="0.545914" result="effect1_foregroundBlur_575_3653"/>
</filter>
</defs>
</svg>
