<svg viewBox="0 0 92 63" fill="none" xmlns="http://www.w3.org/2000/svg">
<g style="mix-blend-mode:hard-light" filter="url(#filter0_f_474_15137)">
<path d="M16.8301 6.20221C16.8468 6.16061 16.8658 6.14464 16.8795 6.13589C16.8976 6.12431 16.9253 6.11464 16.9596 6.11464C16.9939 6.11464 17.0217 6.12431 17.0398 6.13589C17.0535 6.14464 17.0725 6.16061 17.0892 6.20221L19.483 12.1633C19.7625 12.8595 20.4159 13.3342 21.1644 13.3849L27.5734 13.8195C27.6182 13.8225 27.6392 13.8356 27.6518 13.8459C27.6684 13.8596 27.6862 13.883 27.6968 13.9156C27.7074 13.9482 27.7067 13.9776 27.7013 13.9984C27.6972 14.0142 27.6879 14.0371 27.6535 14.0659L22.7239 18.1846C22.1482 18.6656 21.8986 19.4337 22.0817 20.1612L23.6489 26.3909C23.6598 26.4344 23.6538 26.4584 23.6479 26.4735C23.6401 26.4936 23.6233 26.5177 23.5955 26.5379C23.5678 26.558 23.5397 26.5665 23.5182 26.5678C23.502 26.5688 23.4772 26.567 23.4393 26.5432L17.9988 23.1276C17.3634 22.7287 16.5558 22.7287 15.9205 23.1276L10.48 26.5432C10.442 26.567 10.4173 26.5688 10.4011 26.5678C10.3796 26.5665 10.3515 26.558 10.3237 26.5379C10.296 26.5177 10.2792 26.4936 10.2714 26.4735C10.2654 26.4584 10.2595 26.4344 10.2704 26.3909L11.8376 20.1612C12.0206 19.4337 11.7711 18.6656 11.1954 18.1846L6.26577 14.0659C6.23136 14.0371 6.22204 14.0142 6.21795 13.9984C6.21253 13.9776 6.21191 13.9482 6.22251 13.9156C6.2331 13.883 6.25088 13.8596 6.2675 13.8459C6.28005 13.8356 6.3011 13.8225 6.34583 13.8195L12.7549 13.3849C13.5034 13.3342 14.1567 12.8595 14.4363 12.1633L16.8301 6.20221Z" stroke="#0094FF" stroke-width="1.81475"/>
</g>
<g style="mix-blend-mode:hard-light" filter="url(#filter1_f_474_15137)">
<path d="M14.6954 12.2674L16.9596 6.62884L19.2239 12.2674L20.325 11.8252L19.2239 12.2674C19.5434 13.063 20.2901 13.6055 21.1455 13.6635L27.2077 14.0745L22.5449 17.9704C21.8869 18.5201 21.6017 19.3979 21.8109 20.2293L23.2933 26.1219L18.1472 22.8911C17.4211 22.4353 16.4982 22.4353 15.772 22.8911L10.626 26.1219L12.1084 20.2293C12.3175 19.3979 12.0323 18.5201 11.3744 17.9704L6.71154 14.0745L12.7738 13.6635C13.6292 13.6055 14.3759 13.063 14.6954 12.2674Z" stroke="#0094FF" stroke-width="2.37314"/>
</g>
<g style="mix-blend-mode:hard-light" filter="url(#filter2_ddi_474_15137)">
<path d="M16.8301 6.20221C16.8468 6.16061 16.8658 6.14464 16.8795 6.13589C16.8976 6.12431 16.9253 6.11464 16.9596 6.11464C16.9939 6.11464 17.0217 6.12431 17.0398 6.13589C17.0535 6.14464 17.0725 6.16061 17.0892 6.20221L19.483 12.1633C19.7625 12.8595 20.4159 13.3342 21.1644 13.3849L27.5734 13.8195C27.6182 13.8225 27.6392 13.8356 27.6518 13.8459C27.6684 13.8596 27.6862 13.883 27.6968 13.9156C27.7074 13.9482 27.7067 13.9776 27.7013 13.9984C27.6972 14.0142 27.6879 14.0371 27.6535 14.0659L22.7239 18.1846C22.1482 18.6656 21.8986 19.4337 22.0817 20.1612L23.6489 26.3909C23.6598 26.4344 23.6538 26.4584 23.6479 26.4735C23.6401 26.4936 23.6233 26.5177 23.5955 26.5379C23.5678 26.558 23.5397 26.5665 23.5182 26.5678C23.502 26.5688 23.4772 26.567 23.4393 26.5432L17.9988 23.1276C17.3634 22.7287 16.5558 22.7287 15.9205 23.1276L10.48 26.5432C10.442 26.567 10.4173 26.5688 10.4011 26.5678C10.3796 26.5665 10.3515 26.558 10.3237 26.5379C10.296 26.5177 10.2792 26.4936 10.2714 26.4735C10.2654 26.4584 10.2595 26.4344 10.2704 26.3909L11.8376 20.1612C12.0206 19.4337 11.7711 18.6656 11.1954 18.1846L6.26577 14.0659C6.23136 14.0371 6.22204 14.0142 6.21795 13.9984C6.21253 13.9776 6.21191 13.9482 6.22251 13.9156C6.2331 13.883 6.25088 13.8596 6.2675 13.8459C6.28005 13.8356 6.3011 13.8225 6.34583 13.8195L12.7549 13.3849C13.5034 13.3342 14.1567 12.8595 14.4363 12.1633L16.8301 6.20221Z" stroke="#00B3FF" stroke-opacity="0.2" stroke-width="1.81475"/>
</g>
<g filter="url(#filter3_f_474_15137)">
<path d="M16.5062 6.07216C16.6704 5.66348 17.2489 5.66347 17.413 6.07216L19.8068 12.0333C20.0365 12.6051 20.5732 12.995 21.188 13.0367L27.5971 13.4713C28.0365 13.5011 28.2152 14.0513 27.8773 14.3337L22.9476 18.4524C22.4748 18.8475 22.2698 19.4785 22.4201 20.076L23.9873 26.3057C24.0948 26.7328 23.6267 27.0729 23.2537 26.8387L17.8132 23.4231C17.2913 23.0955 16.6279 23.0955 16.1061 23.4231L10.6656 26.8387C10.2926 27.0729 9.82451 26.7328 9.93196 26.3057L11.4992 20.076C11.6495 19.4784 11.4445 18.8475 10.9716 18.4524L6.04201 14.3337C5.70404 14.0513 5.88282 13.5011 6.32222 13.4713L12.7313 13.0367C13.3461 12.995 13.8828 12.6051 14.1124 12.0333L16.5062 6.07216Z" stroke="#82D9FF" stroke-width="1.11677"/>
</g>
<g filter="url(#filter4_f_474_15137)">
<path d="M16.2472 5.96812C16.5051 5.3259 17.4142 5.3259 17.6721 5.96812L20.0659 11.9292C20.2556 12.4016 20.699 12.7237 21.2069 12.7582L27.6159 13.1927C28.3064 13.2396 28.5874 14.1042 28.0563 14.548L23.1267 18.6667C22.736 18.9931 22.5667 19.5143 22.6909 20.0079L24.2581 26.2376C24.4269 26.9088 23.6914 27.4432 23.1053 27.0752L17.6648 23.6596C17.2336 23.3889 16.6856 23.3889 16.2545 23.6596L10.814 27.0752C10.2279 27.4432 9.49235 26.9088 9.6612 26.2376L11.2284 20.0079C11.3526 19.5143 11.1833 18.9931 10.7926 18.6667L5.863 14.5479C5.3319 14.1042 5.61284 13.2396 6.30333 13.1927L12.7124 12.7582C13.2203 12.7237 13.6636 12.4016 13.8533 11.9292L16.2472 5.96812Z" stroke="white" stroke-width="0.558385"/>
</g>
<g style="mix-blend-mode:hard-light" filter="url(#filter5_f_474_15137)">
<path d="M45.7495 6.2022C45.7662 6.16059 45.7852 6.14463 45.7989 6.13588C45.817 6.12429 45.8448 6.11462 45.8791 6.11462C45.9134 6.11462 45.9411 6.12429 45.9592 6.13588C45.9729 6.14463 45.9919 6.16059 46.0086 6.2022L48.4024 12.1633C48.682 12.8595 49.3353 13.3341 50.0838 13.3849L56.4929 13.8195C56.5376 13.8225 56.5587 13.8356 56.5712 13.8459C56.5878 13.8596 56.6056 13.883 56.6162 13.9156C56.6268 13.9482 56.6262 13.9776 56.6208 13.9984C56.6167 14.0141 56.6073 14.0371 56.5729 14.0659L51.6433 18.1846C51.0676 18.6656 50.8181 19.4337 51.0011 20.1612L52.5683 26.3909C52.5792 26.4343 52.5733 26.4584 52.5674 26.4735C52.5595 26.4936 52.5427 26.5177 52.515 26.5379C52.4872 26.558 52.4591 26.5665 52.4376 26.5678C52.4214 26.5687 52.3967 26.567 52.3587 26.5431L46.9182 23.1276C46.2829 22.7287 45.4753 22.7287 44.8399 23.1276L39.3994 26.5431C39.3615 26.567 39.3367 26.5688 39.3205 26.5678C39.2991 26.5665 39.2709 26.558 39.2432 26.5379C39.2154 26.5177 39.1986 26.4936 39.1908 26.4735C39.1849 26.4584 39.1789 26.4343 39.1898 26.3909L40.757 20.1612C40.9401 19.4337 40.6905 18.6656 40.1148 18.1846L35.1852 14.0659C35.1508 14.0371 35.1415 14.0141 35.1374 13.9984C35.132 13.9776 35.1313 13.9482 35.1419 13.9156C35.1525 13.883 35.1703 13.8596 35.1869 13.8459C35.1995 13.8356 35.2205 13.8225 35.2653 13.8195L41.6743 13.3849C42.4228 13.3341 43.0762 12.8595 43.3557 12.1633L45.7495 6.2022Z" stroke="#0094FF" stroke-width="1.81475"/>
</g>
<g style="mix-blend-mode:hard-light" filter="url(#filter6_f_474_15137)">
<path d="M43.6148 12.2673L45.8791 6.62883L48.1433 12.2673L49.2444 11.8252L48.1433 12.2674C48.4628 13.0629 49.2095 13.6054 50.0649 13.6634L56.1272 14.0745L51.4643 17.9704C50.8064 18.5201 50.5212 19.3979 50.7303 20.2293L52.2127 26.1219L47.0667 22.8911C46.3406 22.4352 45.4176 22.4352 44.6915 22.8911L39.5454 26.1219L41.0278 20.2293C41.237 19.3978 40.9518 18.5201 40.2938 17.9704L35.631 14.0745L41.6932 13.6634C42.5486 13.6054 43.2953 13.0629 43.6148 12.2673Z" stroke="#0094FF" stroke-width="2.37314"/>
</g>
<g style="mix-blend-mode:hard-light" filter="url(#filter7_ddi_474_15137)">
<path d="M45.7495 6.2022C45.7662 6.16059 45.7852 6.14463 45.7989 6.13588C45.817 6.12429 45.8448 6.11462 45.8791 6.11462C45.9134 6.11462 45.9411 6.12429 45.9592 6.13588C45.9729 6.14463 45.9919 6.16059 46.0086 6.2022L48.4024 12.1633C48.682 12.8595 49.3353 13.3341 50.0838 13.3849L56.4929 13.8195C56.5376 13.8225 56.5587 13.8356 56.5712 13.8459C56.5878 13.8596 56.6056 13.883 56.6162 13.9156C56.6268 13.9482 56.6262 13.9776 56.6208 13.9984C56.6167 14.0141 56.6073 14.0371 56.5729 14.0659L51.6433 18.1846C51.0676 18.6656 50.8181 19.4337 51.0011 20.1612L52.5683 26.3909C52.5792 26.4343 52.5733 26.4584 52.5674 26.4735C52.5595 26.4936 52.5427 26.5177 52.515 26.5379C52.4872 26.558 52.4591 26.5665 52.4376 26.5678C52.4214 26.5687 52.3967 26.567 52.3587 26.5431L46.9182 23.1276C46.2829 22.7287 45.4753 22.7287 44.8399 23.1276L39.3994 26.5431C39.3615 26.567 39.3367 26.5688 39.3205 26.5678C39.2991 26.5665 39.2709 26.558 39.2432 26.5379C39.2154 26.5177 39.1986 26.4936 39.1908 26.4735C39.1849 26.4584 39.1789 26.4343 39.1898 26.3909L40.757 20.1612C40.9401 19.4337 40.6905 18.6656 40.1148 18.1846L35.1852 14.0659C35.1508 14.0371 35.1415 14.0141 35.1374 13.9984C35.132 13.9776 35.1313 13.9482 35.1419 13.9156C35.1525 13.883 35.1703 13.8596 35.1869 13.8459C35.1995 13.8356 35.2205 13.8225 35.2653 13.8195L41.6743 13.3849C42.4228 13.3341 43.0762 12.8595 43.3557 12.1633L45.7495 6.2022Z" stroke="#00B3FF" stroke-opacity="0.2" stroke-width="1.81475"/>
</g>
<g filter="url(#filter8_f_474_15137)">
<path d="M45.4257 6.07215C45.5898 5.66346 46.1683 5.66346 46.3325 6.07215L48.7263 12.0333C48.9559 12.6051 49.4926 12.995 50.1074 13.0367L56.5165 13.4713C56.9559 13.5011 57.1347 14.0513 56.7967 14.3337L51.8671 18.4524C51.3942 18.8475 51.1892 19.4784 51.3395 20.076L52.9067 26.3057C53.0142 26.7328 52.5461 27.0729 52.1731 26.8387L46.7327 23.4231C46.2108 23.0955 45.5474 23.0955 45.0255 23.4231L39.585 26.8387C39.212 27.0729 38.7439 26.7328 38.8514 26.3057L40.4186 20.076C40.5689 19.4784 40.3639 18.8475 39.8911 18.4524L34.9614 14.3337C34.6235 14.0513 34.8023 13.5011 35.2417 13.4713L41.6507 13.0367C42.2655 12.995 42.8022 12.6051 43.0319 12.0333L45.4257 6.07215Z" stroke="#82D9FF" stroke-width="1.11677"/>
</g>
<g filter="url(#filter9_f_474_15137)">
<path d="M45.1666 5.96811C45.4245 5.32588 46.3336 5.32588 46.5915 5.96811L48.9854 11.9292C49.1751 12.4016 49.6184 12.7237 50.1263 12.7582L56.5354 13.1927C57.2259 13.2395 57.5068 14.1042 56.9757 14.5479L52.0461 18.6667C51.6554 18.9931 51.4861 19.5142 51.6103 20.0079L53.1775 26.2376C53.3463 26.9088 52.6108 27.4432 52.0247 27.0752L46.5842 23.6596C46.1531 23.3889 45.6051 23.3889 45.1739 23.6596L39.7334 27.0752C39.1473 27.4432 38.4118 26.9088 38.5806 26.2376L40.1478 20.0079C40.272 19.5142 40.1027 18.9931 39.7121 18.6667L34.7824 14.5479C34.2513 14.1042 34.5323 13.2395 35.2228 13.1927L41.6318 12.7582C42.1397 12.7237 42.5831 12.4016 42.7728 11.9292L45.1666 5.96811Z" stroke="white" stroke-width="0.558385"/>
</g>
<g style="mix-blend-mode:hard-light" filter="url(#filter10_f_474_15137)">
<path d="M74.6685 6.2022C74.6852 6.16059 74.7042 6.14463 74.7178 6.13588C74.736 6.12429 74.7637 6.11462 74.798 6.11462C74.8323 6.11462 74.8601 6.12429 74.8782 6.13588C74.8919 6.14463 74.9108 6.16059 74.9276 6.2022L77.3214 12.1633C77.6009 12.8595 78.2543 13.3341 79.0027 13.3849L85.4118 13.8195C85.4566 13.8225 85.4776 13.8356 85.4902 13.8459C85.5068 13.8596 85.5245 13.883 85.5351 13.9156C85.5457 13.9482 85.5451 13.9776 85.5397 13.9984C85.5356 14.0141 85.5263 14.0371 85.4919 14.0659L80.5623 18.1846C79.9866 18.6656 79.737 19.4337 79.92 20.1612L81.4873 26.3909C81.4982 26.4343 81.4922 26.4584 81.4863 26.4735C81.4785 26.4936 81.4617 26.5177 81.4339 26.5379C81.4062 26.558 81.378 26.5665 81.3566 26.5678C81.3404 26.5687 81.3156 26.567 81.2776 26.5431L75.8372 23.1276C75.2018 22.7287 74.3942 22.7287 73.7589 23.1276L68.3184 26.5431C68.2804 26.567 68.2557 26.5688 68.2395 26.5678C68.218 26.5665 68.1898 26.558 68.1621 26.5379C68.1344 26.5177 68.1176 26.4936 68.1097 26.4735C68.1038 26.4584 68.0978 26.4343 68.1088 26.3909L69.676 20.1612C69.859 19.4337 69.6095 18.6656 69.0338 18.1846L64.1041 14.0659C64.0697 14.0371 64.0604 14.0141 64.0563 13.9984C64.0509 13.9776 64.0503 13.9482 64.0609 13.9156C64.0715 13.883 64.0893 13.8596 64.1059 13.8459C64.1184 13.8356 64.1395 13.8225 64.1842 13.8195L70.5933 13.3849C71.3417 13.3341 71.9951 12.8595 72.2747 12.1633L74.6685 6.2022Z" stroke="#0094FF" stroke-width="1.81475"/>
</g>
<g style="mix-blend-mode:hard-light" filter="url(#filter11_f_474_15137)">
<path d="M72.5337 12.2673L74.798 6.62883L77.0623 12.2673L78.1634 11.8252L77.0623 12.2674C77.3818 13.0629 78.1285 13.6054 78.9839 13.6634L85.0461 14.0745L80.3832 17.9704C79.7253 18.5201 79.4401 19.3979 79.6493 20.2293L81.1317 26.1219L75.9856 22.8911C75.2595 22.4352 74.3365 22.4352 73.6104 22.8911L68.4643 26.1219L69.9468 20.2293C70.1559 19.3978 69.8707 18.5201 69.2128 17.9704L64.5499 14.0745L70.6122 13.6634C71.4676 13.6054 72.2143 13.0629 72.5337 12.2673Z" stroke="#0094FF" stroke-width="2.37314"/>
</g>
<g style="mix-blend-mode:hard-light" filter="url(#filter12_ddi_474_15137)">
<path d="M74.6685 6.2022C74.6852 6.16059 74.7042 6.14463 74.7178 6.13588C74.736 6.12429 74.7637 6.11462 74.798 6.11462C74.8323 6.11462 74.8601 6.12429 74.8782 6.13588C74.8919 6.14463 74.9108 6.16059 74.9276 6.2022L77.3214 12.1633C77.6009 12.8595 78.2543 13.3341 79.0027 13.3849L85.4118 13.8195C85.4566 13.8225 85.4776 13.8356 85.4902 13.8459C85.5068 13.8596 85.5245 13.883 85.5351 13.9156C85.5457 13.9482 85.5451 13.9776 85.5397 13.9984C85.5356 14.0141 85.5263 14.0371 85.4919 14.0659L80.5623 18.1846C79.9866 18.6656 79.737 19.4337 79.92 20.1612L81.4873 26.3909C81.4982 26.4343 81.4922 26.4584 81.4863 26.4735C81.4785 26.4936 81.4617 26.5177 81.4339 26.5379C81.4062 26.558 81.378 26.5665 81.3566 26.5678C81.3404 26.5687 81.3156 26.567 81.2776 26.5431L75.8372 23.1276C75.2018 22.7287 74.3942 22.7287 73.7589 23.1276L68.3184 26.5431C68.2804 26.567 68.2557 26.5688 68.2395 26.5678C68.218 26.5665 68.1898 26.558 68.1621 26.5379C68.1344 26.5177 68.1176 26.4936 68.1097 26.4735C68.1038 26.4584 68.0978 26.4343 68.1088 26.3909L69.676 20.1612C69.859 19.4337 69.6095 18.6656 69.0338 18.1846L64.1041 14.0659C64.0697 14.0371 64.0604 14.0141 64.0563 13.9984C64.0509 13.9776 64.0503 13.9482 64.0609 13.9156C64.0715 13.883 64.0893 13.8596 64.1059 13.8459C64.1184 13.8356 64.1395 13.8225 64.1842 13.8195L70.5933 13.3849C71.3417 13.3341 71.9951 12.8595 72.2747 12.1633L74.6685 6.2022Z" stroke="#00B3FF" stroke-opacity="0.2" stroke-width="1.81475"/>
</g>
<g filter="url(#filter13_f_474_15137)">
<path d="M74.3446 6.07215C74.5087 5.66346 75.0873 5.66346 75.2514 6.07215L77.6452 12.0333C77.8749 12.6051 78.4115 12.995 79.0264 13.0367L85.4354 13.4713C85.8748 13.5011 86.0536 14.0513 85.7156 14.3337L80.786 18.4524C80.3131 18.8475 80.1081 19.4784 80.2585 20.076L81.8257 26.3057C81.9331 26.7328 81.4651 27.0729 81.0921 26.8387L75.6516 23.4231C75.1297 23.0955 74.4663 23.0955 73.9444 23.4231L68.5039 26.8387C68.131 27.0729 67.6629 26.7328 67.7703 26.3057L69.3375 20.076C69.4879 19.4784 69.2829 18.8475 68.81 18.4524L63.8804 14.3337C63.5424 14.0513 63.7212 13.5011 64.1606 13.4713L70.5697 13.0367C71.1845 12.995 71.7212 12.6051 71.9508 12.0333L74.3446 6.07215Z" stroke="#82D9FF" stroke-width="1.11677"/>
</g>
<g filter="url(#filter14_f_474_15137)">
<path d="M74.0855 5.96811C74.3434 5.32588 75.2526 5.32588 75.5105 5.96811L77.9043 11.9292C78.094 12.4016 78.5374 12.7237 79.0452 12.7582L85.4543 13.1927C86.1448 13.2395 86.4258 14.1042 85.8947 14.5479L80.965 18.6667C80.5744 18.9931 80.405 19.5142 80.5292 20.0079L82.0965 26.2376C82.2653 26.9088 81.5298 27.4432 80.9436 27.0752L75.5031 23.6596C75.072 23.3889 74.524 23.3889 74.0929 23.6596L68.6524 27.0752C68.0663 27.4432 67.3307 26.9088 67.4996 26.2376L69.0668 20.0079C69.191 19.5142 69.0216 18.9931 68.631 18.6667L63.7014 14.5479C63.1703 14.1042 63.4512 13.2395 64.1417 13.1927L70.5508 12.7582C71.0587 12.7237 71.502 12.4016 71.6917 11.9292L74.0855 5.96811Z" stroke="white" stroke-width="0.558385"/>
</g>
<path d="M12.5152 41.6639V49.3639H10.9532V42.9289H7.90622V49.3639H6.34422V41.6639H12.5152ZM15.2341 46.9659C15.2414 47.1493 15.2818 47.3253 15.3551 47.4939C15.4284 47.6626 15.5348 47.8129 15.6741 47.9449C15.8134 48.0769 15.9858 48.1833 16.1911 48.2639C16.4038 48.3373 16.6494 48.3739 16.9281 48.3739C17.2581 48.3739 17.5698 48.3409 17.8631 48.2749C18.1564 48.2016 18.4388 48.1026 18.7101 47.9779V49.0999C18.4168 49.2099 18.1014 49.2979 17.7641 49.3639C17.4268 49.4226 17.0858 49.4519 16.7411 49.4519C16.3158 49.4519 15.9161 49.3933 15.5421 49.2759C15.1681 49.1586 14.8418 48.9789 14.5631 48.7369C14.2918 48.4949 14.0754 48.1906 13.9141 47.8239C13.7528 47.4573 13.6721 47.0209 13.6721 46.5149C13.6721 46.0529 13.7454 45.6423 13.8921 45.2829C14.0461 44.9163 14.2514 44.6083 14.5081 44.3589C14.7648 44.1023 15.0618 43.9079 15.3991 43.7759C15.7438 43.6439 16.1068 43.5779 16.4881 43.5779C16.9208 43.5779 17.2838 43.6439 17.5771 43.7759C17.8778 43.9006 18.1234 44.0619 18.3141 44.2599C18.5121 44.4579 18.6624 44.6779 18.7651 44.9199C18.8751 45.1546 18.9558 45.3856 19.0071 45.6129C19.0584 45.8403 19.0878 46.0456 19.0951 46.2289C19.1098 46.4123 19.1171 46.5443 19.1171 46.6249V46.9659H15.2341ZM17.5771 45.9429C17.5844 45.7009 17.5514 45.4956 17.4781 45.3269C17.4121 45.1583 17.3204 45.0226 17.2031 44.9199C17.0858 44.8099 16.9574 44.7329 16.8181 44.6889C16.6788 44.6376 16.5394 44.6119 16.4001 44.6119C16.2314 44.6119 16.0774 44.6486 15.9381 44.7219C15.7988 44.7879 15.6778 44.8796 15.5751 44.9969C15.4724 45.1143 15.3881 45.2573 15.3221 45.4259C15.2634 45.5873 15.2341 45.7596 15.2341 45.9429H17.5771ZM20.2218 51.7179V43.6659H21.5308V44.6559H21.5528C21.6995 44.3993 21.8645 44.1976 22.0478 44.0509C22.2385 43.9043 22.4255 43.7979 22.6088 43.7319C22.7922 43.6586 22.9572 43.6146 23.1038 43.5999C23.2505 43.5853 23.3532 43.5779 23.4118 43.5779C23.7345 43.5779 24.0388 43.6329 24.3248 43.7429C24.6182 43.8456 24.8748 44.0179 25.0948 44.2599C25.3148 44.4946 25.4872 44.7989 25.6118 45.1729C25.7438 45.5396 25.8098 45.9869 25.8098 46.5149C25.8098 47.0429 25.7402 47.4939 25.6008 47.8679C25.4615 48.2346 25.2745 48.5353 25.0398 48.7699C24.8125 49.0046 24.5485 49.1769 24.2478 49.2869C23.9545 49.3969 23.6538 49.4519 23.3458 49.4519C22.9278 49.4519 22.5868 49.3676 22.3228 49.1989C22.0662 49.0303 21.8608 48.8286 21.7068 48.5939H21.6848L21.7178 49.5289V51.7179H20.2218ZM21.7178 46.5149C21.7178 46.8156 21.7545 47.0759 21.8278 47.2959C21.9012 47.5159 21.9965 47.6993 22.1138 47.8459C22.2385 47.9853 22.3742 48.0916 22.5208 48.1649C22.6748 48.2309 22.8288 48.2639 22.9828 48.2639C23.1368 48.2639 23.2872 48.2309 23.4338 48.1649C23.5878 48.0916 23.7235 47.9853 23.8408 47.8459C23.9655 47.6993 24.0645 47.5159 24.1378 47.2959C24.2112 47.0759 24.2478 46.8156 24.2478 46.5149C24.2478 46.2143 24.2112 45.9539 24.1378 45.7339C24.0645 45.5139 23.9655 45.3343 23.8408 45.1949C23.7235 45.0483 23.5878 44.9419 23.4338 44.8759C23.2872 44.8026 23.1368 44.7659 22.9828 44.7659C22.8288 44.7659 22.6748 44.8026 22.5208 44.8759C22.3742 44.9419 22.2385 45.0483 22.1138 45.1949C21.9965 45.3343 21.9012 45.5139 21.8278 45.7339C21.7545 45.9539 21.7178 46.2143 21.7178 46.5149ZM29.5542 49.4519C29.0482 49.4519 28.6082 49.3676 28.2342 49.1989C27.8602 49.0303 27.5486 48.8066 27.2992 48.5279C27.0572 48.2419 26.8776 47.9193 26.7602 47.5599C26.6429 47.2006 26.5842 46.8339 26.5842 46.4599C26.5842 46.0786 26.6502 45.7156 26.7822 45.3709C26.9142 45.0189 27.1086 44.7109 27.3652 44.4469C27.6219 44.1829 27.9409 43.9739 28.3222 43.8199C28.7109 43.6586 29.1582 43.5779 29.6642 43.5779C29.8549 43.5779 30.0602 43.5889 30.2802 43.6109C30.5002 43.6329 30.7166 43.6733 30.9292 43.7319V44.8429C30.7899 44.7843 30.6396 44.7403 30.4782 44.7109C30.3242 44.6743 30.1372 44.6559 29.9172 44.6559C29.6679 44.6559 29.4332 44.6999 29.2132 44.7879C29.0006 44.8759 28.8136 45.0043 28.6522 45.1729C28.4982 45.3343 28.3736 45.5323 28.2782 45.7669C28.1902 45.9943 28.1462 46.2509 28.1462 46.5369C28.1462 46.7936 28.1829 47.0356 28.2562 47.2629C28.3369 47.4829 28.4469 47.6773 28.5862 47.8459C28.7329 48.0073 28.9089 48.1356 29.1142 48.2309C29.3196 48.3263 29.5542 48.3739 29.8182 48.3739C30.2216 48.3739 30.6212 48.2896 31.0172 48.1209V49.2319C30.8779 49.2759 30.6799 49.3236 30.4232 49.3749C30.1739 49.4263 29.8842 49.4519 29.5542 49.4519ZM31.676 46.5149C31.676 46.0383 31.7493 45.6166 31.896 45.2499C32.0427 44.8833 32.2443 44.5789 32.501 44.3369C32.765 44.0876 33.0767 43.9006 33.436 43.7759C33.7953 43.6439 34.1877 43.5779 34.613 43.5779C35.0383 43.5779 35.4307 43.6439 35.79 43.7759C36.1493 43.9006 36.4573 44.0876 36.714 44.3369C36.978 44.5789 37.1833 44.8833 37.33 45.2499C37.4767 45.6166 37.55 46.0383 37.55 46.5149C37.55 46.9916 37.4767 47.4133 37.33 47.7799C37.1833 48.1466 36.978 48.4546 36.714 48.7039C36.4573 48.9459 36.1493 49.1329 35.79 49.2649C35.4307 49.3896 35.0383 49.4519 34.613 49.4519C34.1877 49.4519 33.7953 49.3896 33.436 49.2649C33.0767 49.1329 32.765 48.9459 32.501 48.7039C32.2443 48.4546 32.0427 48.1466 31.896 47.7799C31.7493 47.4133 31.676 46.9916 31.676 46.5149ZM33.238 46.5149C33.238 46.8449 33.2783 47.1273 33.359 47.3619C33.4397 47.5966 33.546 47.7909 33.678 47.9449C33.81 48.0916 33.9567 48.2016 34.118 48.2749C34.2793 48.3409 34.4443 48.3739 34.613 48.3739C34.7743 48.3739 34.9357 48.3409 35.097 48.2749C35.2657 48.2016 35.416 48.0916 35.548 47.9449C35.68 47.7909 35.7863 47.5966 35.867 47.3619C35.9477 47.1273 35.988 46.8449 35.988 46.5149C35.988 46.1849 35.9477 45.9026 35.867 45.6679C35.7863 45.4333 35.68 45.2426 35.548 45.0959C35.416 44.9419 35.2657 44.8319 35.097 44.7659C34.9357 44.6926 34.7743 44.6559 34.613 44.6559C34.4443 44.6559 34.2793 44.6926 34.118 44.7659C33.9567 44.8319 33.81 44.9419 33.678 45.0959C33.546 45.2426 33.4397 45.4333 33.359 45.6679C33.2783 45.9026 33.238 46.1849 33.238 46.5149ZM40.1407 43.6659V45.8219H42.5387V43.6659H44.0347V49.3639H42.5387V46.9219H40.1407V49.3639H38.6447V43.6659H40.1407ZM45.818 43.9519C46.1626 43.8126 46.5 43.7173 46.83 43.6659C47.16 43.6073 47.5193 43.5779 47.908 43.5779C48.4873 43.5779 48.942 43.6513 49.272 43.7979C49.6093 43.9446 49.8623 44.1279 50.031 44.3479C50.1996 44.5679 50.306 44.8063 50.35 45.0629C50.4013 45.3196 50.427 45.5543 50.427 45.7669V49.3639H48.964V48.5279H48.942C48.9126 48.5866 48.8613 48.6709 48.788 48.7809C48.7146 48.8836 48.6083 48.9863 48.469 49.0889C48.3296 49.1843 48.1536 49.2686 47.941 49.3419C47.7283 49.4153 47.468 49.4519 47.16 49.4519C46.8006 49.4519 46.4926 49.4043 46.236 49.3089C45.9793 49.2063 45.7703 49.0743 45.609 48.9129C45.4476 48.7516 45.3266 48.5683 45.246 48.3629C45.1726 48.1503 45.136 47.9339 45.136 47.7139C45.136 47.5159 45.169 47.3069 45.235 47.0869C45.301 46.8669 45.4366 46.6653 45.642 46.4819C45.8473 46.2913 46.1333 46.1373 46.5 46.0199C46.8666 45.8953 47.3543 45.8329 47.963 45.8329C48.1023 45.8329 48.2416 45.8366 48.381 45.8439C48.5203 45.8439 48.6596 45.8439 48.799 45.8439H48.931V45.6019C48.931 45.4479 48.8943 45.3086 48.821 45.1839C48.755 45.0593 48.6633 44.9566 48.546 44.8759C48.4286 44.7953 48.2893 44.7329 48.128 44.6889C47.974 44.6449 47.8126 44.6229 47.644 44.6229C47.3946 44.6229 47.1233 44.6559 46.83 44.7219C46.5366 44.7806 46.1993 44.9163 45.818 45.1289V43.9519ZM48.678 46.7789C48.4726 46.7789 48.249 46.7863 48.007 46.8009C47.7723 46.8083 47.5523 46.8413 47.347 46.8999C47.149 46.9586 46.984 47.0503 46.852 47.1749C46.72 47.2996 46.654 47.4756 46.654 47.7029C46.654 47.9083 46.7236 48.0843 46.863 48.2309C47.0023 48.3703 47.237 48.4399 47.567 48.4399C47.721 48.4399 47.8786 48.4179 48.04 48.3739C48.2013 48.3299 48.348 48.2529 48.48 48.1429C48.612 48.0329 48.7183 47.8789 48.799 47.6809C48.887 47.4829 48.931 47.2299 48.931 46.9219V46.7789H48.678ZM51.7381 49.4519C51.6355 49.4519 51.5291 49.4409 51.4191 49.4189C51.3091 49.4043 51.2138 49.3859 51.1331 49.3639V48.2199C51.1918 48.2346 51.2505 48.2456 51.3091 48.2529C51.3678 48.2603 51.4191 48.2639 51.4631 48.2639C51.5658 48.2639 51.6611 48.2309 51.7491 48.1649C51.8445 48.0989 51.9251 47.9523 51.9911 47.7249C52.0571 47.4976 52.1085 47.1676 52.1451 46.7349C52.1891 46.2949 52.2111 45.7046 52.2111 44.9639V43.6659H56.7981V49.3639H55.3021V44.7659H53.5421V44.9639C53.5421 45.9246 53.5018 46.6983 53.4211 47.2849C53.3405 47.8716 53.2231 48.3263 53.0691 48.6489C52.9151 48.9643 52.7245 49.1769 52.4971 49.2869C52.2771 49.3969 52.0241 49.4519 51.7381 49.4519ZM58.2167 43.6659H59.7127V45.5139H60.8567C61.678 45.5139 62.283 45.6899 62.6717 46.0419C63.0677 46.3939 63.2657 46.8596 63.2657 47.4389C63.2657 48.0183 63.0677 48.4839 62.6717 48.8359C62.283 49.1879 61.678 49.3639 60.8567 49.3639H58.2167V43.6659ZM61.7037 47.4389C61.7037 47.1603 61.6194 46.9439 61.4507 46.7899C61.282 46.6359 61.0107 46.5589 60.6367 46.5589H59.7127V48.3189H60.6367C61.0107 48.3189 61.282 48.2419 61.4507 48.0879C61.6194 47.9339 61.7037 47.7176 61.7037 47.4389ZM65.6964 43.6659V45.8219H68.0944V43.6659H69.5904V49.3639H68.0944V46.9219H65.6964V49.3639H64.2004V43.6659H65.6964ZM71.0106 43.6659H72.5066V45.5139H73.6506C74.472 45.5139 75.077 45.6899 75.4656 46.0419C75.8616 46.3939 76.0596 46.8596 76.0596 47.4389C76.0596 48.0183 75.8616 48.4839 75.4656 48.8359C75.077 49.1879 74.472 49.3639 73.6506 49.3639H71.0106V43.6659ZM74.4976 47.4389C74.4976 47.1603 74.4133 46.9439 74.2446 46.7899C74.076 46.6359 73.8046 46.5589 73.4306 46.5589H72.5066V48.3189H73.4306C73.8046 48.3189 74.076 48.2419 74.2446 48.0879C74.4133 47.9339 74.4976 47.7176 74.4976 47.4389ZM76.9506 43.6659H78.4466V49.3639H76.9506V43.6659ZM81.3692 43.6659V46.6579L81.3252 47.6809H81.3472L83.8002 43.6659H85.4722V49.3639H83.9762V46.4159L84.0202 45.3489H83.9872L81.4682 49.3639H79.8732V43.6659H81.3692ZM82.6672 42.9839C82.4692 42.9839 82.2749 42.9583 82.0842 42.9069C81.9009 42.8556 81.7359 42.7749 81.5892 42.6649C81.4425 42.5476 81.3215 42.3973 81.2262 42.2139C81.1382 42.0233 81.0869 41.7959 81.0722 41.5319L82.0072 41.4439C82.0365 41.7006 82.0989 41.8839 82.1942 41.9939C82.2969 42.1039 82.4545 42.1589 82.6672 42.1589C82.8799 42.1589 83.0339 42.1039 83.1292 41.9939C83.2319 41.8839 83.2979 41.7006 83.3272 41.4439L84.2622 41.5319C84.2475 41.7959 84.1925 42.0233 84.0972 42.2139C84.0092 42.3973 83.8919 42.5476 83.7452 42.6649C83.5985 42.7749 83.4299 42.8556 83.2392 42.9069C83.0559 42.9583 82.8652 42.9839 82.6672 42.9839ZM18.6051 54.6659H20.7831L22.0481 57.7459L23.3131 54.6659H25.4251V60.3639H23.9291V56.2059H23.9071L22.7631 58.9559H21.2671L20.1231 56.2059H20.1011V60.3639H18.6051V54.6659ZM28.0871 57.9659C28.0945 58.1493 28.1348 58.3253 28.2081 58.4939C28.2815 58.6626 28.3878 58.8129 28.5271 58.9449C28.6665 59.0769 28.8388 59.1833 29.0441 59.2639C29.2568 59.3373 29.5025 59.3739 29.7811 59.3739C30.1111 59.3739 30.4228 59.3409 30.7161 59.2749C31.0095 59.2016 31.2918 59.1026 31.5631 58.9779V60.0999C31.2698 60.2099 30.9545 60.2979 30.6171 60.3639C30.2798 60.4226 29.9388 60.4519 29.5941 60.4519C29.1688 60.4519 28.7691 60.3933 28.3951 60.2759C28.0211 60.1586 27.6948 59.9789 27.4161 59.7369C27.1448 59.4949 26.9285 59.1906 26.7671 58.8239C26.6058 58.4573 26.5251 58.0209 26.5251 57.5149C26.5251 57.0529 26.5985 56.6423 26.7451 56.2829C26.8991 55.9163 27.1045 55.6083 27.3611 55.3589C27.6178 55.1023 27.9148 54.9079 28.2521 54.7759C28.5968 54.6439 28.9598 54.5779 29.3411 54.5779C29.7738 54.5779 30.1368 54.6439 30.4301 54.7759C30.7308 54.9006 30.9765 55.0619 31.1671 55.2599C31.3651 55.4579 31.5155 55.6779 31.6181 55.9199C31.7281 56.1546 31.8088 56.3856 31.8601 56.6129C31.9115 56.8403 31.9408 57.0456 31.9481 57.2289C31.9628 57.4123 31.9701 57.5443 31.9701 57.6249V57.9659H28.0871ZM30.4301 56.9429C30.4375 56.7009 30.4045 56.4956 30.3311 56.3269C30.2651 56.1583 30.1735 56.0226 30.0561 55.9199C29.9388 55.8099 29.8105 55.7329 29.6711 55.6889C29.5318 55.6376 29.3925 55.6119 29.2531 55.6119C29.0845 55.6119 28.9305 55.6486 28.7911 55.7219C28.6518 55.7879 28.5308 55.8796 28.4281 55.9969C28.3255 56.1143 28.2411 56.2573 28.1751 56.4259C28.1165 56.5873 28.0871 56.7596 28.0871 56.9429H30.4301ZM34.5709 54.6659V56.8219H36.9689V54.6659H38.4649V60.3639H36.9689V57.9219H34.5709V60.3639H33.0749V54.6659H34.5709ZM41.1282 57.9659C41.1355 58.1493 41.1758 58.3253 41.2492 58.4939C41.3225 58.6626 41.4288 58.8129 41.5682 58.9449C41.7075 59.0769 41.8798 59.1833 42.0852 59.2639C42.2978 59.3373 42.5435 59.3739 42.8222 59.3739C43.1522 59.3739 43.4638 59.3409 43.7572 59.2749C44.0505 59.2016 44.3328 59.1026 44.6042 58.9779V60.0999C44.3108 60.2099 43.9955 60.2979 43.6582 60.3639C43.3208 60.4226 42.9798 60.4519 42.6352 60.4519C42.2098 60.4519 41.8102 60.3933 41.4362 60.2759C41.0622 60.1586 40.7358 59.9789 40.4572 59.7369C40.1858 59.4949 39.9695 59.1906 39.8082 58.8239C39.6468 58.4573 39.5662 58.0209 39.5662 57.5149C39.5662 57.0529 39.6395 56.6423 39.7862 56.2829C39.9402 55.9163 40.1455 55.6083 40.4022 55.3589C40.6588 55.1023 40.9558 54.9079 41.2932 54.7759C41.6378 54.6439 42.0008 54.5779 42.3822 54.5779C42.8148 54.5779 43.1778 54.6439 43.4712 54.7759C43.7718 54.9006 44.0175 55.0619 44.2082 55.2599C44.4062 55.4579 44.5565 55.6779 44.6592 55.9199C44.7692 56.1546 44.8498 56.3856 44.9012 56.6129C44.9525 56.8403 44.9818 57.0456 44.9892 57.2289C45.0038 57.4123 45.0112 57.5443 45.0112 57.6249V57.9659H41.1282ZM43.4712 56.9429C43.4785 56.7009 43.4455 56.4956 43.3722 56.3269C43.3062 56.1583 43.2145 56.0226 43.0972 55.9199C42.9798 55.8099 42.8515 55.7329 42.7122 55.6889C42.5728 55.6376 42.4335 55.6119 42.2942 55.6119C42.1255 55.6119 41.9715 55.6486 41.8322 55.7219C41.6928 55.7879 41.5718 55.8796 41.4692 55.9969C41.3665 56.1143 41.2822 56.2573 41.2162 56.4259C41.1575 56.5873 41.1282 56.7596 41.1282 56.9429H43.4712ZM51.3739 54.6659V59.2639H52.3089V61.8489H50.9339V60.3639H46.9079V61.8489H45.5329V59.2639H46.1709C46.3395 59.0659 46.4715 58.8643 46.5669 58.6589C46.6695 58.4536 46.7429 58.2373 46.7869 58.0099C46.8382 57.7826 46.8712 57.5479 46.8859 57.3059C46.9005 57.0566 46.9079 56.7926 46.9079 56.5139V54.6659H51.3739ZM49.8779 59.2639V55.7659H48.2279V56.6129C48.2279 56.8329 48.2242 57.0566 48.2169 57.2839C48.2169 57.5113 48.1949 57.7349 48.1509 57.9549C48.1142 58.1749 48.0555 58.3949 47.9749 58.6149C47.8942 58.8349 47.7769 59.0513 47.6229 59.2639H49.8779ZM57.64 54.6659V57.2069H57.695L59.4 54.6659H61.105L59.092 57.2729L61.292 60.3639H59.4L57.695 57.6029H57.64V60.3639H56.144V57.6029H56.089L54.384 60.3639H52.492L54.692 57.2729L52.679 54.6659H54.384L56.089 57.2069H56.144V54.6659H57.64ZM62.9026 57.9659C62.9099 58.1493 62.9502 58.3253 63.0236 58.4939C63.0969 58.6626 63.2032 58.8129 63.3426 58.9449C63.4819 59.0769 63.6542 59.1833 63.8596 59.2639C64.0722 59.3373 64.3179 59.3739 64.5966 59.3739C64.9266 59.3739 65.2382 59.3409 65.5316 59.2749C65.8249 59.2016 66.1072 59.1026 66.3786 58.9779V60.0999C66.0852 60.2099 65.7699 60.2979 65.4326 60.3639C65.0952 60.4226 64.7542 60.4519 64.4096 60.4519C63.9842 60.4519 63.5846 60.3933 63.2106 60.2759C62.8366 60.1586 62.5102 59.9789 62.2316 59.7369C61.9602 59.4949 61.7439 59.1906 61.5826 58.8239C61.4212 58.4573 61.3406 58.0209 61.3406 57.5149C61.3406 57.0529 61.4139 56.6423 61.5606 56.2829C61.7146 55.9163 61.9199 55.6083 62.1766 55.3589C62.4332 55.1023 62.7302 54.9079 63.0676 54.7759C63.4122 54.6439 63.7752 54.5779 64.1566 54.5779C64.5892 54.5779 64.9522 54.6439 65.2456 54.7759C65.5462 54.9006 65.7919 55.0619 65.9826 55.2599C66.1806 55.4579 66.3309 55.6779 66.4336 55.9199C66.5436 56.1546 66.6242 56.3856 66.6756 56.6129C66.7269 56.8403 66.7562 57.0456 66.7636 57.2289C66.7782 57.4123 66.7856 57.5443 66.7856 57.6249V57.9659H62.9026ZM65.2456 56.9429C65.2529 56.7009 65.2199 56.4956 65.1466 56.3269C65.0806 56.1583 64.9889 56.0226 64.8716 55.9199C64.7542 55.8099 64.6259 55.7329 64.4866 55.6889C64.3472 55.6376 64.2079 55.6119 64.0686 55.6119C63.8999 55.6119 63.7459 55.6486 63.6066 55.7219C63.4672 55.7879 63.3462 55.8796 63.2436 55.9969C63.1409 56.1143 63.0566 56.2573 62.9906 56.4259C62.9319 56.5873 62.9026 56.7596 62.9026 56.9429H65.2456ZM67.8903 62.7179V54.6659H69.1993V55.6559H69.2213C69.368 55.3993 69.533 55.1976 69.7163 55.0509C69.907 54.9043 70.094 54.7979 70.2773 54.7319C70.4606 54.6586 70.6256 54.6146 70.7723 54.5999C70.919 54.5853 71.0216 54.5779 71.0803 54.5779C71.403 54.5779 71.7073 54.6329 71.9933 54.7429C72.2866 54.8456 72.5433 55.0179 72.7633 55.2599C72.9833 55.4946 73.1556 55.7989 73.2803 56.1729C73.4123 56.5396 73.4783 56.9869 73.4783 57.5149C73.4783 58.0429 73.4086 58.4939 73.2693 58.8679C73.13 59.2346 72.943 59.5353 72.7083 59.7699C72.481 60.0046 72.217 60.1769 71.9163 60.2869C71.623 60.3969 71.3223 60.4519 71.0143 60.4519C70.5963 60.4519 70.2553 60.3676 69.9913 60.1989C69.7346 60.0303 69.5293 59.8286 69.3753 59.5939H69.3533L69.3863 60.5289V62.7179H67.8903ZM69.3863 57.5149C69.3863 57.8156 69.423 58.0759 69.4963 58.2959C69.5696 58.5159 69.665 58.6993 69.7823 58.8459C69.907 58.9853 70.0426 59.0916 70.1893 59.1649C70.3433 59.2309 70.4973 59.2639 70.6513 59.2639C70.8053 59.2639 70.9556 59.2309 71.1023 59.1649C71.2563 59.0916 71.392 58.9853 71.5093 58.8459C71.634 58.6993 71.733 58.5159 71.8063 58.2959C71.8796 58.0759 71.9163 57.8156 71.9163 57.5149C71.9163 57.2143 71.8796 56.9539 71.8063 56.7339C71.733 56.5139 71.634 56.3343 71.5093 56.1949C71.392 56.0483 71.2563 55.9419 71.1023 55.8759C70.9556 55.8026 70.8053 55.7659 70.6513 55.7659C70.4973 55.7659 70.3433 55.8026 70.1893 55.8759C70.0426 55.9419 69.907 56.0483 69.7823 56.1949C69.665 56.3343 69.5696 56.5139 69.4963 56.7339C69.423 56.9539 69.3863 57.2143 69.3863 57.5149Z" fill="#0094FF"/>
<defs>
<filter id="filter0_f_474_15137" x="0.32305" y="0.223672" width="33.2728" height="32.2353" filterUnits="userSpaceOnUse" color-interpolation-filters="sRGB">
<feFlood flood-opacity="0" result="BackgroundImageFix"/>
<feBlend mode="normal" in="SourceGraphic" in2="BackgroundImageFix" result="shape"/>
<feGaussianBlur stdDeviation="2.4918" result="effect1_foregroundBlur_474_15137"/>
</filter>
<filter id="filter1_f_474_15137" x="3.64544" y="3.54607" width="26.6281" height="25.5905" filterUnits="userSpaceOnUse" color-interpolation-filters="sRGB">
<feFlood flood-opacity="0" result="BackgroundImageFix"/>
<feBlend mode="normal" in="SourceGraphic" in2="BackgroundImageFix" result="shape"/>
<feGaussianBlur stdDeviation="0.830598" result="effect1_foregroundBlur_474_15137"/>
</filter>
<filter id="filter2_ddi_474_15137" x="3.14708" y="4.7089" width="27.6248" height="26.5872" filterUnits="userSpaceOnUse" color-interpolation-filters="sRGB">
<feFlood flood-opacity="0" result="BackgroundImageFix"/>
<feColorMatrix in="SourceAlpha" type="matrix" values="0 0 0 0 0 0 0 0 0 0 0 0 0 0 0 0 0 0 127 0" result="hardAlpha"/>
<feOffset dy="1.81475"/>
<feGaussianBlur stdDeviation="0.697982"/>
<feColorMatrix type="matrix" values="0 0 0 0 0 0 0 0 0 0.051 0 0 0 0 0.082 0 0 0 0.7 0"/>
<feBlend mode="multiply" in2="BackgroundImageFix" result="effect1_dropShadow_474_15137"/>
<feColorMatrix in="SourceAlpha" type="matrix" values="0 0 0 0 0 0 0 0 0 0 0 0 0 0 0 0 0 0 127 0" result="hardAlpha"/>
<feOffset dy="1.6612"/>
<feGaussianBlur stdDeviation="1.07978"/>
<feColorMatrix type="matrix" values="0 0 0 0 0 0 0 0 0 0.4 0 0 0 0 1 0 0 0 1 0"/>
<feBlend mode="color-dodge" in2="effect1_dropShadow_474_15137" result="effect2_dropShadow_474_15137"/>
<feBlend mode="normal" in="SourceGraphic" in2="effect2_dropShadow_474_15137" result="shape"/>
<feColorMatrix in="SourceAlpha" type="matrix" values="0 0 0 0 0 0 0 0 0 0 0 0 0 0 0 0 0 0 127 0" result="hardAlpha"/>
<feOffset dx="-0.181475" dy="0.362951"/>
<feGaussianBlur stdDeviation="0.0907376"/>
<feComposite in2="hardAlpha" operator="arithmetic" k2="-1" k3="1"/>
<feColorMatrix type="matrix" values="0 0 0 0 1 0 0 0 0 1 0 0 0 0 1 0 0 0 0.5 0"/>
<feBlend mode="normal" in2="shape" result="effect3_innerShadow_474_15137"/>
</filter>
<filter id="filter3_f_474_15137" x="5.02745" y="4.92807" width="23.864" height="22.8265" filterUnits="userSpaceOnUse" color-interpolation-filters="sRGB">
<feFlood flood-opacity="0" result="BackgroundImageFix"/>
<feBlend mode="normal" in="SourceGraphic" in2="BackgroundImageFix" result="shape"/>
<feGaussianBlur stdDeviation="0.139596" result="effect1_foregroundBlur_474_15137"/>
</filter>
<filter id="filter4_f_474_15137" x="5.12051" y="5.02113" width="23.6779" height="22.6404" filterUnits="userSpaceOnUse" color-interpolation-filters="sRGB">
<feFlood flood-opacity="0" result="BackgroundImageFix"/>
<feBlend mode="normal" in="SourceGraphic" in2="BackgroundImageFix" result="shape"/>
<feGaussianBlur stdDeviation="0.0930643" result="effect1_foregroundBlur_474_15137"/>
</filter>
<filter id="filter5_f_474_15137" x="29.2425" y="0.223657" width="33.2728" height="32.2353" filterUnits="userSpaceOnUse" color-interpolation-filters="sRGB">
<feFlood flood-opacity="0" result="BackgroundImageFix"/>
<feBlend mode="normal" in="SourceGraphic" in2="BackgroundImageFix" result="shape"/>
<feGaussianBlur stdDeviation="2.4918" result="effect1_foregroundBlur_474_15137"/>
</filter>
<filter id="filter6_f_474_15137" x="32.5649" y="3.54605" width="26.6281" height="25.5905" filterUnits="userSpaceOnUse" color-interpolation-filters="sRGB">
<feFlood flood-opacity="0" result="BackgroundImageFix"/>
<feBlend mode="normal" in="SourceGraphic" in2="BackgroundImageFix" result="shape"/>
<feGaussianBlur stdDeviation="0.830598" result="effect1_foregroundBlur_474_15137"/>
</filter>
<filter id="filter7_ddi_474_15137" x="32.0665" y="4.70889" width="27.6248" height="26.5872" filterUnits="userSpaceOnUse" color-interpolation-filters="sRGB">
<feFlood flood-opacity="0" result="BackgroundImageFix"/>
<feColorMatrix in="SourceAlpha" type="matrix" values="0 0 0 0 0 0 0 0 0 0 0 0 0 0 0 0 0 0 127 0" result="hardAlpha"/>
<feOffset dy="1.81475"/>
<feGaussianBlur stdDeviation="0.697982"/>
<feColorMatrix type="matrix" values="0 0 0 0 0 0 0 0 0 0.051 0 0 0 0 0.082 0 0 0 0.7 0"/>
<feBlend mode="multiply" in2="BackgroundImageFix" result="effect1_dropShadow_474_15137"/>
<feColorMatrix in="SourceAlpha" type="matrix" values="0 0 0 0 0 0 0 0 0 0 0 0 0 0 0 0 0 0 127 0" result="hardAlpha"/>
<feOffset dy="1.6612"/>
<feGaussianBlur stdDeviation="1.07978"/>
<feColorMatrix type="matrix" values="0 0 0 0 0 0 0 0 0 0.4 0 0 0 0 1 0 0 0 1 0"/>
<feBlend mode="color-dodge" in2="effect1_dropShadow_474_15137" result="effect2_dropShadow_474_15137"/>
<feBlend mode="normal" in="SourceGraphic" in2="effect2_dropShadow_474_15137" result="shape"/>
<feColorMatrix in="SourceAlpha" type="matrix" values="0 0 0 0 0 0 0 0 0 0 0 0 0 0 0 0 0 0 127 0" result="hardAlpha"/>
<feOffset dx="-0.181475" dy="0.362951"/>
<feGaussianBlur stdDeviation="0.0907376"/>
<feComposite in2="hardAlpha" operator="arithmetic" k2="-1" k3="1"/>
<feColorMatrix type="matrix" values="0 0 0 0 1 0 0 0 0 1 0 0 0 0 1 0 0 0 0.5 0"/>
<feBlend mode="normal" in2="shape" result="effect3_innerShadow_474_15137"/>
</filter>
<filter id="filter8_f_474_15137" x="33.9469" y="4.92805" width="23.864" height="22.8265" filterUnits="userSpaceOnUse" color-interpolation-filters="sRGB">
<feFlood flood-opacity="0" result="BackgroundImageFix"/>
<feBlend mode="normal" in="SourceGraphic" in2="BackgroundImageFix" result="shape"/>
<feGaussianBlur stdDeviation="0.139596" result="effect1_foregroundBlur_474_15137"/>
</filter>
<filter id="filter9_f_474_15137" x="34.0399" y="5.02112" width="23.6779" height="22.6404" filterUnits="userSpaceOnUse" color-interpolation-filters="sRGB">
<feFlood flood-opacity="0" result="BackgroundImageFix"/>
<feBlend mode="normal" in="SourceGraphic" in2="BackgroundImageFix" result="shape"/>
<feGaussianBlur stdDeviation="0.0930643" result="effect1_foregroundBlur_474_15137"/>
</filter>
<filter id="filter10_f_474_15137" x="58.1614" y="0.223657" width="33.2728" height="32.2353" filterUnits="userSpaceOnUse" color-interpolation-filters="sRGB">
<feFlood flood-opacity="0" result="BackgroundImageFix"/>
<feBlend mode="normal" in="SourceGraphic" in2="BackgroundImageFix" result="shape"/>
<feGaussianBlur stdDeviation="2.4918" result="effect1_foregroundBlur_474_15137"/>
</filter>
<filter id="filter11_f_474_15137" x="61.4838" y="3.54605" width="26.6281" height="25.5905" filterUnits="userSpaceOnUse" color-interpolation-filters="sRGB">
<feFlood flood-opacity="0" result="BackgroundImageFix"/>
<feBlend mode="normal" in="SourceGraphic" in2="BackgroundImageFix" result="shape"/>
<feGaussianBlur stdDeviation="0.830598" result="effect1_foregroundBlur_474_15137"/>
</filter>
<filter id="filter12_ddi_474_15137" x="60.9855" y="4.70889" width="27.6248" height="26.5872" filterUnits="userSpaceOnUse" color-interpolation-filters="sRGB">
<feFlood flood-opacity="0" result="BackgroundImageFix"/>
<feColorMatrix in="SourceAlpha" type="matrix" values="0 0 0 0 0 0 0 0 0 0 0 0 0 0 0 0 0 0 127 0" result="hardAlpha"/>
<feOffset dy="1.81475"/>
<feGaussianBlur stdDeviation="0.697982"/>
<feColorMatrix type="matrix" values="0 0 0 0 0 0 0 0 0 0.051 0 0 0 0 0.082 0 0 0 0.7 0"/>
<feBlend mode="multiply" in2="BackgroundImageFix" result="effect1_dropShadow_474_15137"/>
<feColorMatrix in="SourceAlpha" type="matrix" values="0 0 0 0 0 0 0 0 0 0 0 0 0 0 0 0 0 0 127 0" result="hardAlpha"/>
<feOffset dy="1.6612"/>
<feGaussianBlur stdDeviation="1.07978"/>
<feColorMatrix type="matrix" values="0 0 0 0 0 0 0 0 0 0.4 0 0 0 0 1 0 0 0 1 0"/>
<feBlend mode="color-dodge" in2="effect1_dropShadow_474_15137" result="effect2_dropShadow_474_15137"/>
<feBlend mode="normal" in="SourceGraphic" in2="effect2_dropShadow_474_15137" result="shape"/>
<feColorMatrix in="SourceAlpha" type="matrix" values="0 0 0 0 0 0 0 0 0 0 0 0 0 0 0 0 0 0 127 0" result="hardAlpha"/>
<feOffset dx="-0.181475" dy="0.362951"/>
<feGaussianBlur stdDeviation="0.0907376"/>
<feComposite in2="hardAlpha" operator="arithmetic" k2="-1" k3="1"/>
<feColorMatrix type="matrix" values="0 0 0 0 1 0 0 0 0 1 0 0 0 0 1 0 0 0 0.5 0"/>
<feBlend mode="normal" in2="shape" result="effect3_innerShadow_474_15137"/>
</filter>
<filter id="filter13_f_474_15137" x="62.8658" y="4.92805" width="23.864" height="22.8265" filterUnits="userSpaceOnUse" color-interpolation-filters="sRGB">
<feFlood flood-opacity="0" result="BackgroundImageFix"/>
<feBlend mode="normal" in="SourceGraphic" in2="BackgroundImageFix" result="shape"/>
<feGaussianBlur stdDeviation="0.139596" result="effect1_foregroundBlur_474_15137"/>
</filter>
<filter id="filter14_f_474_15137" x="62.9589" y="5.02112" width="23.6779" height="22.6404" filterUnits="userSpaceOnUse" color-interpolation-filters="sRGB">
<feFlood flood-opacity="0" result="BackgroundImageFix"/>
<feBlend mode="normal" in="SourceGraphic" in2="BackgroundImageFix" result="shape"/>
<feGaussianBlur stdDeviation="0.0930643" result="effect1_foregroundBlur_474_15137"/>
</filter>
</defs>
</svg>
