<svg viewBox="0 0 83 70" fill="none" xmlns="http://www.w3.org/2000/svg">
    <g style="mix-blend-mode:hard-light" filter="url(#filter0_f_474_15086)">
        <path d="M22.2011 8.90989C22.2249 8.85083 22.2518 8.82817 22.2712 8.81575C22.2969 8.7993 22.3363 8.78558 22.385 8.78558C22.4337 8.78558 22.4731 8.7993 22.4988 8.81575C22.5182 8.82817 22.5452 8.85083 22.5689 8.90989L25.3979 15.9546C25.7947 16.9427 26.722 17.6165 27.7844 17.6886L35.3586 18.2021C35.422 18.2064 35.4519 18.225 35.4697 18.2397C35.4933 18.259 35.5186 18.2923 35.5336 18.3386C35.5486 18.3849 35.5478 18.4266 35.5401 18.4561C35.5343 18.4784 35.521 18.5111 35.4722 18.5519L29.6465 23.4193C28.8293 24.102 28.4751 25.1922 28.7349 26.2249L30.587 33.587C30.6025 33.6487 30.594 33.6829 30.5856 33.7044C30.5745 33.7328 30.5507 33.767 30.5113 33.7957C30.4719 33.8243 30.432 33.8363 30.4015 33.8381C30.3785 33.8395 30.3434 33.837 30.2895 33.8032L23.86 29.7667C22.9582 29.2005 21.8119 29.2005 20.91 29.7667L14.4806 33.8032C14.4267 33.837 14.3916 33.8395 14.3686 33.8381C14.3381 33.8363 14.2981 33.8243 14.2588 33.7957C14.2194 33.767 14.1956 33.7328 14.1844 33.7044C14.176 33.6829 14.1675 33.6487 14.1831 33.587L16.0352 26.2249C16.295 25.1922 15.9407 24.102 15.1236 23.4193L9.29784 18.5519C9.24901 18.5111 9.23578 18.4784 9.22997 18.4561C9.22227 18.4266 9.2214 18.3849 9.23644 18.3386C9.25148 18.2923 9.27672 18.259 9.30031 18.2397C9.31811 18.225 9.34799 18.2064 9.41149 18.2021L16.9856 17.6886C18.048 17.6165 18.9754 16.9427 19.3722 15.9546L22.2011 8.90989Z" stroke="#6A11D5" stroke-width="2.57589"/>
    </g>
    <g style="mix-blend-mode:hard-light" filter="url(#filter1_f_474_15086)">
        <path d="M19.7399 16.1023L22.385 9.51545L25.0301 16.1023C25.4836 17.2316 26.5435 18.0016 27.7576 18.0839L34.8394 18.5641L29.3924 23.1152C28.4585 23.8955 28.0537 25.1414 28.3506 26.3216L30.0823 33.2052L24.0707 29.4311C23.0401 28.784 21.73 28.784 20.6993 29.4311L21.5949 30.8575L20.6993 29.4311L14.6878 33.2052L16.4195 26.3216C16.7164 25.1414 16.3115 23.8955 15.3777 23.1152L9.93059 18.5641L17.0124 18.0839C18.2266 18.0016 19.2864 17.2316 19.7399 16.1023ZM30.5002 33.4675L30.4999 33.4674L30.5002 33.4675ZM14.5674 33.6837L14.5674 33.6835L14.5674 33.6837Z" stroke="#7936C9" stroke-width="3.36847"/>
    </g>
    <g style="mix-blend-mode:hard-light" filter="url(#filter2_ddi_474_15086)">
        <path d="M22.2011 8.90989C22.2249 8.85083 22.2518 8.82817 22.2712 8.81575C22.2969 8.7993 22.3363 8.78558 22.385 8.78558C22.4337 8.78558 22.4731 8.7993 22.4988 8.81575C22.5182 8.82817 22.5452 8.85083 22.5689 8.90989L25.3979 15.9546C25.7947 16.9427 26.722 17.6165 27.7844 17.6886L35.3586 18.2021C35.422 18.2064 35.4519 18.225 35.4697 18.2397C35.4933 18.259 35.5186 18.2923 35.5336 18.3386C35.5486 18.3849 35.5478 18.4266 35.5401 18.4561C35.5343 18.4784 35.521 18.5111 35.4722 18.5519L29.6465 23.4193C28.8293 24.102 28.4751 25.1922 28.7349 26.2249L30.587 33.587C30.6025 33.6487 30.594 33.6829 30.5856 33.7044C30.5745 33.7328 30.5507 33.767 30.5113 33.7957C30.4719 33.8243 30.432 33.8363 30.4015 33.8381C30.3785 33.8395 30.3434 33.837 30.2895 33.8032L23.86 29.7667C22.9582 29.2005 21.8119 29.2005 20.91 29.7667L14.4806 33.8032C14.4267 33.837 14.3916 33.8395 14.3686 33.8381C14.3381 33.8363 14.2981 33.8243 14.2588 33.7957C14.2194 33.767 14.1956 33.7328 14.1844 33.7044C14.176 33.6829 14.1675 33.6487 14.1831 33.587L16.0352 26.2249C16.295 25.1922 15.9407 24.102 15.1236 23.4193L9.29784 18.5519C9.24901 18.5111 9.23578 18.4784 9.22997 18.4561C9.22227 18.4266 9.2214 18.3849 9.23644 18.3386C9.25148 18.2923 9.27672 18.259 9.30031 18.2397C9.31811 18.225 9.34799 18.2064 9.41149 18.2021L16.9856 17.6886C18.048 17.6165 18.9754 16.9427 19.3722 15.9546L22.2011 8.90989Z" stroke="#8620FF" stroke-opacity="0.2" stroke-width="2.57589"/>
    </g>
    <g filter="url(#filter3_f_474_15086)">
        <path d="M21.7415 8.72529C21.9744 8.14519 22.7956 8.14519 23.0286 8.72529L25.8575 15.77C26.1835 16.5817 26.9453 17.1352 27.8179 17.1943L35.3921 17.7079C36.0158 17.7502 36.2695 18.5312 35.7898 18.932L29.9641 23.7995C29.2928 24.3603 29.0019 25.2558 29.2153 26.104L31.0674 33.4662C31.2199 34.0724 30.5555 34.5551 30.0261 34.2227L23.5966 30.1862C22.8558 29.7212 21.9142 29.7212 21.1734 30.1862L14.744 34.2227C14.2145 34.5551 13.5502 34.0724 13.7027 33.4662L15.5548 26.104C15.7682 25.2558 15.4772 24.3603 14.806 23.7995L8.98023 18.932C8.50052 18.5312 8.75428 17.7502 9.37797 17.7079L16.9521 17.1943C17.8248 17.1352 18.5866 16.5817 18.9125 15.77L21.7415 8.72529Z" stroke="#8620FF" stroke-opacity="0.2" stroke-width="1.58516"/>
    </g>
    <g filter="url(#filter4_f_474_15086)">
        <path d="M21.3737 8.57761C21.7398 7.66603 23.0303 7.66603 23.3963 8.57762L26.2253 15.6223C26.4945 16.2929 27.1238 16.7501 27.8447 16.7989L35.4189 17.3125C36.399 17.379 36.7977 18.6063 36.0439 19.2361L30.2182 24.1036C29.6637 24.5668 29.4233 25.3066 29.5996 26.0073L31.4517 33.3695C31.6913 34.3221 30.6473 35.0807 29.8154 34.5583L23.3859 30.5219C22.7739 30.1377 21.9961 30.1377 21.3841 30.5219L14.9547 34.5583C14.1227 35.0807 13.0787 34.3221 13.3184 33.3695L15.1705 26.0073C15.3467 25.3066 15.1064 24.5668 14.5519 24.1036L8.72614 19.2361C7.9723 18.6063 8.37108 17.379 9.35117 17.3125L16.9253 16.7989C17.6462 16.7501 18.2755 16.2929 18.5448 15.6223L21.3737 8.57761Z" stroke="white" stroke-width="0.792581"/>
    </g>
    <g style="mix-blend-mode:hard-light" filter="url(#filter5_f_474_15086)">
        <path d="M60.4311 8.90989C60.4548 8.85083 60.4818 8.82817 60.5012 8.81575C60.5269 8.7993 60.5663 8.78558 60.615 8.78558C60.6637 8.78558 60.7031 8.7993 60.7288 8.81575C60.7482 8.82817 60.7752 8.85083 60.7989 8.90989L63.6278 15.9546C64.0246 16.9427 64.952 17.6165 66.0144 17.6886L73.5885 18.2021C73.652 18.2064 73.6819 18.225 73.6997 18.2397C73.7233 18.259 73.7485 18.2923 73.7636 18.3386C73.7786 18.3849 73.7777 18.4266 73.77 18.4561C73.7642 18.4784 73.751 18.5111 73.7022 18.5519L67.8764 23.4193C67.0593 24.102 66.7051 25.1922 66.9649 26.2249L68.817 33.587C68.8325 33.6487 68.824 33.6829 68.8156 33.7044C68.8045 33.7328 68.7806 33.767 68.7413 33.7957C68.7019 33.8243 68.6619 33.8363 68.6315 33.8381C68.6085 33.8395 68.5733 33.837 68.5194 33.8032L62.09 29.7667C61.1882 29.2005 60.0418 29.2005 59.14 29.7667L52.7106 33.8032C52.6567 33.837 52.6215 33.8395 52.5985 33.8381C52.5681 33.8363 52.5281 33.8243 52.4887 33.7957C52.4494 33.767 52.4255 33.7328 52.4144 33.7044C52.406 33.6829 52.3975 33.6487 52.413 33.587L54.2651 26.2249C54.5249 25.1922 54.1707 24.102 53.3536 23.4193L47.5278 18.5519C47.479 18.5111 47.4658 18.4784 47.4599 18.4561C47.4523 18.4266 47.4514 18.3849 47.4664 18.3386C47.4815 18.2923 47.5067 18.259 47.5303 18.2397C47.5481 18.225 47.578 18.2064 47.6415 18.2021L55.2156 17.6886C56.278 17.6165 57.2054 16.9427 57.6022 15.9546L60.4311 8.90989Z" stroke="#6A11D5" stroke-width="2.57589"/>
    </g>
    <g style="mix-blend-mode:hard-light" filter="url(#filter6_f_474_15086)">
        <path d="M57.9699 16.1023L60.615 9.51545L63.2601 16.1023C63.7136 17.2316 64.7735 18.0016 65.9876 18.0839L73.0694 18.5641L67.6224 23.1152C66.6885 23.8955 66.2836 25.1414 66.5805 26.3216L68.3123 33.2052L62.3007 29.4311C61.27 28.784 59.96 28.784 58.9293 29.4311L59.8248 30.8575L58.9293 29.4311L52.9177 33.2052L54.6495 26.3216C54.9464 25.1414 54.5415 23.8955 53.6076 23.1152L48.1606 18.5641L55.2424 18.0839C56.4566 18.0016 57.5164 17.2316 57.9699 16.1023ZM68.7302 33.4675L68.7299 33.4674L68.7302 33.4675ZM52.7974 33.6837L52.7974 33.6835L52.7974 33.6837Z" stroke="#7936C9" stroke-width="3.36847"/>
    </g>
    <g style="mix-blend-mode:hard-light" filter="url(#filter7_ddi_474_15086)">
        <path d="M60.4311 8.90989C60.4548 8.85083 60.4818 8.82817 60.5012 8.81575C60.5269 8.7993 60.5663 8.78558 60.615 8.78558C60.6637 8.78558 60.7031 8.7993 60.7288 8.81575C60.7482 8.82817 60.7752 8.85083 60.7989 8.90989L63.6278 15.9546C64.0246 16.9427 64.952 17.6165 66.0144 17.6886L73.5885 18.2021C73.652 18.2064 73.6819 18.225 73.6997 18.2397C73.7233 18.259 73.7485 18.2923 73.7636 18.3386C73.7786 18.3849 73.7777 18.4266 73.77 18.4561C73.7642 18.4784 73.751 18.5111 73.7022 18.5519L67.8764 23.4193C67.0593 24.102 66.7051 25.1922 66.9649 26.2249L68.817 33.587C68.8325 33.6487 68.824 33.6829 68.8156 33.7044C68.8045 33.7328 68.7806 33.767 68.7413 33.7957C68.7019 33.8243 68.6619 33.8363 68.6315 33.8381C68.6085 33.8395 68.5733 33.837 68.5194 33.8032L62.09 29.7667C61.1882 29.2005 60.0418 29.2005 59.14 29.7667L52.7106 33.8032C52.6567 33.837 52.6215 33.8395 52.5985 33.8381C52.5681 33.8363 52.5281 33.8243 52.4887 33.7957C52.4494 33.767 52.4255 33.7328 52.4144 33.7044C52.406 33.6829 52.3975 33.6487 52.413 33.587L54.2651 26.2249C54.5249 25.1922 54.1707 24.102 53.3536 23.4193L47.5278 18.5519C47.479 18.5111 47.4658 18.4784 47.4599 18.4561C47.4523 18.4266 47.4514 18.3849 47.4664 18.3386C47.4815 18.2923 47.5067 18.259 47.5303 18.2397C47.5481 18.225 47.578 18.2064 47.6415 18.2021L55.2156 17.6886C56.278 17.6165 57.2054 16.9427 57.6022 15.9546L60.4311 8.90989Z" stroke="#8620FF" stroke-opacity="0.2" stroke-width="2.57589"/>
    </g>
    <g filter="url(#filter8_f_474_15086)">
        <path d="M59.9714 8.72529C60.2044 8.14519 61.0256 8.14519 61.2586 8.72529L64.0875 15.77C64.4135 16.5817 65.1752 17.1352 66.0479 17.1943L73.622 17.7079C74.2457 17.7502 74.4995 18.5312 74.0198 18.932L68.194 23.7995C67.5228 24.3603 67.2319 25.2558 67.4452 26.104L69.2974 33.4662C69.4499 34.0724 68.7855 34.5551 68.2561 34.2227L61.8266 30.1862C61.0858 29.7212 60.1442 29.7212 59.4034 30.1862L52.9739 34.2227C52.4445 34.5551 51.7801 34.0724 51.9326 33.4662L53.7848 26.104C53.9981 25.2558 53.7072 24.3603 53.0359 23.7995L47.2102 18.932C46.7305 18.5312 46.9843 17.7502 47.608 17.7079L55.1821 17.1943C56.0548 17.1352 56.8165 16.5817 57.1425 15.77L59.9714 8.72529Z" stroke="#8620FF" stroke-opacity="0.2" stroke-width="1.58516"/>
    </g>
    <g filter="url(#filter9_f_474_15086)">
        <path d="M59.6037 8.57761C59.9698 7.66603 61.2602 7.66603 61.6263 8.57762L64.4553 15.6223C64.7245 16.2929 65.3538 16.7501 66.0747 16.7989L73.6489 17.3125C74.6289 17.379 75.0277 18.6063 74.2739 19.2361L68.4481 24.1036C67.8937 24.5668 67.6533 25.3066 67.8296 26.0073L69.6817 33.3695C69.9213 34.3221 68.8773 35.0807 68.0453 34.5583L61.6159 30.5219C61.0039 30.1377 60.2261 30.1377 59.6141 30.5219L53.1847 34.5583C52.3527 35.0807 51.3087 34.3221 51.5483 33.3695L53.4004 26.0073C53.5767 25.3066 53.3363 24.5668 52.7819 24.1036L46.9561 19.2361C46.2023 18.6063 46.6011 17.379 47.5811 17.3125L55.1553 16.7989C55.8762 16.7501 56.5055 16.2929 56.7747 15.6223L59.6037 8.57761Z" stroke="white" stroke-width="0.792581"/>
    </g>
    <path d="M11.9076 48.5258V51.8148H11.9406L14.7236 48.5258H16.5826L13.3706 52.0128L16.7806 56.2258H14.8006L11.9406 52.3978H11.9076V56.2258H10.3456V48.5258H11.9076ZM17.3791 56.3138C17.2765 56.3138 17.1701 56.3028 17.0601 56.2808C16.9501 56.2661 16.8548 56.2478 16.7741 56.2258V55.0818C16.8328 55.0965 16.8915 55.1075 16.9501 55.1148C17.0088 55.1221 17.0601 55.1258 17.1041 55.1258C17.2068 55.1258 17.3021 55.0928 17.3901 55.0268C17.4855 54.9608 17.5661 54.8141 17.6321 54.5868C17.6981 54.3595 17.7495 54.0295 17.7861 53.5968C17.8301 53.1568 17.8521 52.5665 17.8521 51.8258V50.5278H22.4391V56.2258H20.9431V51.6278H19.1831V51.8258C19.1831 52.7865 19.1428 53.5601 19.0621 54.1468C18.9815 54.7335 18.8641 55.1881 18.7101 55.5108C18.5561 55.8261 18.3655 56.0388 18.1381 56.1488C17.9181 56.2588 17.6651 56.3138 17.3791 56.3138ZM25.3647 50.5278V53.5198L25.3207 54.5428H25.3427L27.7957 50.5278H29.4677V56.2258H27.9717V53.2778L28.0157 52.2108H27.9827L25.4637 56.2258H23.8687V50.5278H25.3647ZM32.1261 53.8278C32.1334 54.0111 32.1738 54.1871 32.2471 54.3558C32.3204 54.5245 32.4268 54.6748 32.5661 54.8068C32.7054 54.9388 32.8778 55.0451 33.0831 55.1258C33.2958 55.1991 33.5414 55.2358 33.8201 55.2358C34.1501 55.2358 34.4618 55.2028 34.7551 55.1368C35.0484 55.0635 35.3308 54.9645 35.6021 54.8398V55.9618C35.3088 56.0718 34.9934 56.1598 34.6561 56.2258C34.3188 56.2845 33.9778 56.3138 33.6331 56.3138C33.2078 56.3138 32.8081 56.2551 32.4341 56.1378C32.0601 56.0205 31.7338 55.8408 31.4551 55.5988C31.1838 55.3568 30.9674 55.0525 30.8061 54.6858C30.6448 54.3191 30.5641 53.8828 30.5641 53.3768C30.5641 52.9148 30.6374 52.5041 30.7841 52.1448C30.9381 51.7781 31.1434 51.4701 31.4001 51.2208C31.6568 50.9641 31.9538 50.7698 32.2911 50.6378C32.6358 50.5058 32.9988 50.4398 33.3801 50.4398C33.8128 50.4398 34.1758 50.5058 34.4691 50.6378C34.7698 50.7625 35.0154 50.9238 35.2061 51.1218C35.4041 51.3198 35.5544 51.5398 35.6571 51.7818C35.7671 52.0165 35.8478 52.2475 35.8991 52.4748C35.9504 52.7021 35.9798 52.9075 35.9871 53.0908C36.0018 53.2741 36.0091 53.4061 36.0091 53.4868V53.8278H32.1261ZM34.4691 52.8048C34.4764 52.5628 34.4434 52.3575 34.3701 52.1888C34.3041 52.0201 34.2124 51.8845 34.0951 51.7818C33.9778 51.6718 33.8494 51.5948 33.7101 51.5508C33.5708 51.4995 33.4314 51.4738 33.2921 51.4738C33.1234 51.4738 32.9694 51.5105 32.8301 51.5838C32.6908 51.6498 32.5698 51.7415 32.4671 51.8588C32.3644 51.9761 32.2801 52.1191 32.2141 52.2878C32.1554 52.4491 32.1261 52.6215 32.1261 52.8048H34.4691ZM38.6098 50.5278V52.6838H41.0078V50.5278H42.5038V56.2258H41.0078V53.7838H38.6098V56.2258H37.1138V50.5278H38.6098ZM48.3901 50.5278V51.6278H46.6081V56.2258H45.1121V51.6278H43.3301V50.5278H48.3901ZM51.581 56.3138C51.075 56.3138 50.635 56.2295 50.261 56.0608C49.887 55.8921 49.5753 55.6685 49.326 55.3898C49.084 55.1038 48.9043 54.7811 48.787 54.4218C48.6696 54.0625 48.611 53.6958 48.611 53.3218C48.611 52.9405 48.677 52.5775 48.809 52.2328C48.941 51.8808 49.1353 51.5728 49.392 51.3088C49.6486 51.0448 49.9676 50.8358 50.349 50.6818C50.7376 50.5205 51.185 50.4398 51.691 50.4398C51.8816 50.4398 52.087 50.4508 52.307 50.4728C52.527 50.4948 52.7433 50.5351 52.956 50.5938V51.7048C52.8166 51.6461 52.6663 51.6021 52.505 51.5728C52.351 51.5361 52.164 51.5178 51.944 51.5178C51.6946 51.5178 51.46 51.5618 51.24 51.6498C51.0273 51.7378 50.8403 51.8661 50.679 52.0348C50.525 52.1961 50.4003 52.3941 50.305 52.6288C50.217 52.8561 50.173 53.1128 50.173 53.3988C50.173 53.6555 50.2096 53.8975 50.283 54.1248C50.3636 54.3448 50.4736 54.5391 50.613 54.7078C50.7596 54.8691 50.9356 54.9975 51.141 55.0928C51.3463 55.1881 51.581 55.2358 51.845 55.2358C52.2483 55.2358 52.648 55.1515 53.044 54.9828V56.0938C52.9046 56.1378 52.7066 56.1855 52.45 56.2368C52.2006 56.2881 51.911 56.3138 51.581 56.3138ZM55.5288 50.5278V53.1128H55.5838L57.4098 50.5278H59.0818L56.9698 53.2228L59.3788 56.2258H57.4978L55.5838 53.4978H55.5288V56.2258H54.0328V50.5278H55.5288ZM61.6411 50.5278V53.5198L61.5971 54.5428H61.6191L64.0721 50.5278H65.7441V56.2258H64.2481V53.2778L64.2921 52.2108H64.2591L61.7401 56.2258H60.1451V50.5278H61.6411ZM68.6665 50.5278V53.5198L68.6225 54.5428H68.6445L71.0975 50.5278H72.7695V56.2258H71.2735V53.2778L71.3175 52.2108H71.2845L68.7655 56.2258H67.1705V50.5278H68.6665ZM69.9645 49.8458C69.7665 49.8458 69.5721 49.8201 69.3815 49.7688C69.1981 49.7175 69.0331 49.6368 68.8865 49.5268C68.7398 49.4095 68.6188 49.2591 68.5235 49.0758C68.4355 48.8851 68.3841 48.6578 68.3695 48.3938L69.3045 48.3058C69.3338 48.5625 69.3961 48.7458 69.4915 48.8558C69.5941 48.9658 69.7518 49.0208 69.9645 49.0208C70.1771 49.0208 70.3311 48.9658 70.4265 48.8558C70.5291 48.7458 70.5951 48.5625 70.6245 48.3058L71.5595 48.3938C71.5448 48.6578 71.4898 48.8851 71.3945 49.0758C71.3065 49.2591 71.1891 49.4095 71.0425 49.5268C70.8958 49.6368 70.7271 49.7175 70.5365 49.7688C70.3531 49.8201 70.1625 49.8458 69.9645 49.8458ZM14.2545 61.5278H16.4325L17.6975 64.6078L18.9625 61.5278H21.0745V67.2258H19.5785V63.0678H19.5565L18.4125 65.8178H16.9165L15.7725 63.0678H15.7505V67.2258H14.2545V61.5278ZM23.7365 64.8278C23.7438 65.0111 23.7841 65.1871 23.8575 65.3558C23.9308 65.5245 24.0371 65.6748 24.1765 65.8068C24.3158 65.9388 24.4881 66.0451 24.6935 66.1258C24.9061 66.1991 25.1518 66.2358 25.4305 66.2358C25.7605 66.2358 26.0721 66.2028 26.3655 66.1368C26.6588 66.0635 26.9411 65.9645 27.2125 65.8398V66.9618C26.9191 67.0718 26.6038 67.1598 26.2665 67.2258C25.9291 67.2845 25.5881 67.3138 25.2435 67.3138C24.8181 67.3138 24.4185 67.2551 24.0445 67.1378C23.6705 67.0205 23.3441 66.8408 23.0655 66.5988C22.7941 66.3568 22.5778 66.0525 22.4165 65.6858C22.2551 65.3191 22.1745 64.8828 22.1745 64.3768C22.1745 63.9148 22.2478 63.5041 22.3945 63.1448C22.5485 62.7781 22.7538 62.4701 23.0105 62.2208C23.2671 61.9641 23.5641 61.7698 23.9015 61.6378C24.2461 61.5058 24.6091 61.4398 24.9905 61.4398C25.4231 61.4398 25.7861 61.5058 26.0795 61.6378C26.3801 61.7625 26.6258 61.9238 26.8165 62.1218C27.0145 62.3198 27.1648 62.5398 27.2675 62.7818C27.3775 63.0165 27.4581 63.2475 27.5095 63.4748C27.5608 63.7021 27.5901 63.9075 27.5975 64.0908C27.6121 64.2741 27.6195 64.4061 27.6195 64.4868V64.8278H23.7365ZM26.0795 63.8048C26.0868 63.5628 26.0538 63.3575 25.9805 63.1888C25.9145 63.0201 25.8228 62.8845 25.7055 62.7818C25.5881 62.6718 25.4598 62.5948 25.3205 62.5508C25.1811 62.4995 25.0418 62.4738 24.9025 62.4738C24.7338 62.4738 24.5798 62.5105 24.4405 62.5838C24.3011 62.6498 24.1801 62.7415 24.0775 62.8588C23.9748 62.9761 23.8905 63.1191 23.8245 63.2878C23.7658 63.4491 23.7365 63.6215 23.7365 63.8048H26.0795ZM30.2202 61.5278V63.6838H32.6182V61.5278H34.1142V67.2258H32.6182V64.7838H30.2202V67.2258H28.7242V61.5278H30.2202ZM36.7775 64.8278C36.7848 65.0111 36.8251 65.1871 36.8985 65.3558C36.9718 65.5245 37.0781 65.6748 37.2175 65.8068C37.3568 65.9388 37.5291 66.0451 37.7345 66.1258C37.9471 66.1991 38.1928 66.2358 38.4715 66.2358C38.8015 66.2358 39.1131 66.2028 39.4065 66.1368C39.6998 66.0635 39.9821 65.9645 40.2535 65.8398V66.9618C39.9601 67.0718 39.6448 67.1598 39.3075 67.2258C38.9701 67.2845 38.6291 67.3138 38.2845 67.3138C37.8591 67.3138 37.4595 67.2551 37.0855 67.1378C36.7115 67.0205 36.3851 66.8408 36.1065 66.5988C35.8351 66.3568 35.6188 66.0525 35.4575 65.6858C35.2961 65.3191 35.2155 64.8828 35.2155 64.3768C35.2155 63.9148 35.2888 63.5041 35.4355 63.1448C35.5895 62.7781 35.7948 62.4701 36.0515 62.2208C36.3081 61.9641 36.6051 61.7698 36.9425 61.6378C37.2871 61.5058 37.6501 61.4398 38.0315 61.4398C38.4641 61.4398 38.8271 61.5058 39.1205 61.6378C39.4211 61.7625 39.6668 61.9238 39.8575 62.1218C40.0555 62.3198 40.2058 62.5398 40.3085 62.7818C40.4185 63.0165 40.4991 63.2475 40.5505 63.4748C40.6018 63.7021 40.6311 63.9075 40.6385 64.0908C40.6531 64.2741 40.6605 64.4061 40.6605 64.4868V64.8278H36.7775ZM39.1205 63.8048C39.1278 63.5628 39.0948 63.3575 39.0215 63.1888C38.9555 63.0201 38.8638 62.8845 38.7465 62.7818C38.6291 62.6718 38.5008 62.5948 38.3615 62.5508C38.2221 62.4995 38.0828 62.4738 37.9435 62.4738C37.7748 62.4738 37.6208 62.5105 37.4815 62.5838C37.3421 62.6498 37.2211 62.7415 37.1185 62.8588C37.0158 62.9761 36.9315 63.1191 36.8655 63.2878C36.8068 63.4491 36.7775 63.6215 36.7775 63.8048H39.1205ZM47.0232 61.5278V66.1258H47.9582V68.7108H46.5832V67.2258H42.5572V68.7108H41.1822V66.1258H41.8202C41.9889 65.9278 42.1209 65.7261 42.2162 65.5208C42.3189 65.3155 42.3922 65.0991 42.4362 64.8718C42.4875 64.6445 42.5205 64.4098 42.5352 64.1678C42.5499 63.9185 42.5572 63.6545 42.5572 63.3758V61.5278H47.0232ZM45.5272 66.1258V62.6278H43.8772V63.4748C43.8772 63.6948 43.8735 63.9185 43.8662 64.1458C43.8662 64.3731 43.8442 64.5968 43.8002 64.8168C43.7635 65.0368 43.7049 65.2568 43.6242 65.4768C43.5435 65.6968 43.4262 65.9131 43.2722 66.1258H45.5272ZM53.2893 61.5278V64.0688H53.3443L55.0493 61.5278H56.7543L54.7413 64.1348L56.9413 67.2258H55.0493L53.3443 64.4648H53.2893V67.2258H51.7933V64.4648H51.7383L50.0333 67.2258H48.1413L50.3413 64.1348L48.3283 61.5278H50.0333L51.7383 64.0688H51.7933V61.5278H53.2893ZM58.5519 64.8278C58.5592 65.0111 58.5996 65.1871 58.6729 65.3558C58.7462 65.5245 58.8526 65.6748 58.9919 65.8068C59.1312 65.9388 59.3036 66.0451 59.5089 66.1258C59.7216 66.1991 59.9672 66.2358 60.2459 66.2358C60.5759 66.2358 60.8876 66.2028 61.1809 66.1368C61.4742 66.0635 61.7566 65.9645 62.0279 65.8398V66.9618C61.7346 67.0718 61.4192 67.1598 61.0819 67.2258C60.7446 67.2845 60.4036 67.3138 60.0589 67.3138C59.6336 67.3138 59.2339 67.2551 58.8599 67.1378C58.4859 67.0205 58.1596 66.8408 57.8809 66.5988C57.6096 66.3568 57.3932 66.0525 57.2319 65.6858C57.0706 65.3191 56.9899 64.8828 56.9899 64.3768C56.9899 63.9148 57.0632 63.5041 57.2099 63.1448C57.3639 62.7781 57.5692 62.4701 57.8259 62.2208C58.0826 61.9641 58.3796 61.7698 58.7169 61.6378C59.0616 61.5058 59.4246 61.4398 59.8059 61.4398C60.2386 61.4398 60.6016 61.5058 60.8949 61.6378C61.1956 61.7625 61.4412 61.9238 61.6319 62.1218C61.8299 62.3198 61.9802 62.5398 62.0829 62.7818C62.1929 63.0165 62.2736 63.2475 62.3249 63.4748C62.3762 63.7021 62.4056 63.9075 62.4129 64.0908C62.4276 64.2741 62.4349 64.4061 62.4349 64.4868V64.8278H58.5519ZM60.8949 63.8048C60.9022 63.5628 60.8692 63.3575 60.7959 63.1888C60.7299 63.0201 60.6382 62.8845 60.5209 62.7818C60.4036 62.6718 60.2752 62.5948 60.1359 62.5508C59.9966 62.4995 59.8572 62.4738 59.7179 62.4738C59.5492 62.4738 59.3952 62.5105 59.2559 62.5838C59.1166 62.6498 58.9956 62.7415 58.8929 62.8588C58.7902 62.9761 58.7059 63.1191 58.6399 63.2878C58.5812 63.4491 58.5519 63.6215 58.5519 63.8048H60.8949ZM63.5396 69.5798V61.5278H64.8486V62.5178H64.8706C65.0173 62.2611 65.1823 62.0595 65.3656 61.9128C65.5563 61.7661 65.7433 61.6598 65.9266 61.5938C66.1099 61.5205 66.2749 61.4765 66.4216 61.4618C66.5683 61.4471 66.6709 61.4398 66.7296 61.4398C67.0523 61.4398 67.3566 61.4948 67.6426 61.6048C67.9359 61.7075 68.1926 61.8798 68.4126 62.1218C68.6326 62.3565 68.8049 62.6608 68.9296 63.0348C69.0616 63.4015 69.1276 63.8488 69.1276 64.3768C69.1276 64.9048 69.0579 65.3558 68.9186 65.7298C68.7793 66.0965 68.5923 66.3971 68.3576 66.6318C68.1303 66.8665 67.8663 67.0388 67.5656 67.1488C67.2723 67.2588 66.9716 67.3138 66.6636 67.3138C66.2456 67.3138 65.9046 67.2295 65.6406 67.0608C65.3839 66.8921 65.1786 66.6905 65.0246 66.4558H65.0026L65.0356 67.3908V69.5798H63.5396ZM65.0356 64.3768C65.0356 64.6775 65.0723 64.9378 65.1456 65.1578C65.2189 65.3778 65.3143 65.5611 65.4316 65.7078C65.5563 65.8471 65.6919 65.9535 65.8386 66.0268C65.9926 66.0928 66.1466 66.1258 66.3006 66.1258C66.4546 66.1258 66.6049 66.0928 66.7516 66.0268C66.9056 65.9535 67.0413 65.8471 67.1586 65.7078C67.2833 65.5611 67.3823 65.3778 67.4556 65.1578C67.5289 64.9378 67.5656 64.6775 67.5656 64.3768C67.5656 64.0761 67.5289 63.8158 67.4556 63.5958C67.3823 63.3758 67.2833 63.1961 67.1586 63.0568C67.0413 62.9101 66.9056 62.8038 66.7516 62.7378C66.6049 62.6645 66.4546 62.6278 66.3006 62.6278C66.1466 62.6278 65.9926 62.6645 65.8386 62.7378C65.6919 62.8038 65.5563 62.9101 65.4316 63.0568C65.3143 63.1961 65.2189 63.3758 65.1456 63.5958C65.0723 63.8158 65.0356 64.0761 65.0356 64.3768Z" fill="#8620FF"/>
    <defs>
        <filter id="filter0_f_474_15086" x="0.862741" y="0.423852" width="43.0445" height="41.7763" filterUnits="userSpaceOnUse" color-interpolation-filters="sRGB">
            <feFlood flood-opacity="0" result="BackgroundImageFix"/>
            <feBlend mode="normal" in="SourceGraphic" in2="BackgroundImageFix" result="shape"/>
            <feGaussianBlur stdDeviation="3.53689" result="effect1_foregroundBlur_474_15086"/>
        </filter>
        <filter id="filter1_f_474_15086" x="5.5786" y="5.13971" width="33.6128" height="32.3446" filterUnits="userSpaceOnUse" color-interpolation-filters="sRGB">
            <feFlood flood-opacity="0" result="BackgroundImageFix"/>
            <feBlend mode="normal" in="SourceGraphic" in2="BackgroundImageFix" result="shape"/>
            <feGaussianBlur stdDeviation="1.17896" result="effect1_foregroundBlur_474_15086"/>
        </filter>
        <filter id="filter2_ddi_474_15086" x="4.87122" y="6.79026" width="35.0276" height="33.7593" filterUnits="userSpaceOnUse" color-interpolation-filters="sRGB">
            <feFlood flood-opacity="0" result="BackgroundImageFix"/>
            <feColorMatrix in="SourceAlpha" type="matrix" values="0 0 0 0 0 0 0 0 0 0 0 0 0 0 0 0 0 0 127 0" result="hardAlpha"/>
            <feOffset dy="2.57589"/>
            <feGaussianBlur stdDeviation="0.990726"/>
            <feColorMatrix type="matrix" values="0 0 0 0 0 0 0 0 0 0.051 0 0 0 0 0.082 0 0 0 0.5 0"/>
            <feBlend mode="multiply" in2="BackgroundImageFix" result="effect1_dropShadow_474_15086"/>
            <feColorMatrix in="SourceAlpha" type="matrix" values="0 0 0 0 0 0 0 0 0 0 0 0 0 0 0 0 0 0 127 0" result="hardAlpha"/>
            <feOffset dy="2.35793"/>
            <feGaussianBlur stdDeviation="1.53265"/>
            <feColorMatrix type="matrix" values="0 0 0 0 0.702449 0 0 0 0 0.458646 0 0 0 0 0.991667 0 0 0 0.6 0"/>
            <feBlend mode="color-dodge" in2="effect1_dropShadow_474_15086" result="effect2_dropShadow_474_15086"/>
            <feBlend mode="normal" in="SourceGraphic" in2="effect2_dropShadow_474_15086" result="shape"/>
            <feColorMatrix in="SourceAlpha" type="matrix" values="0 0 0 0 0 0 0 0 0 0 0 0 0 0 0 0 0 0 127 0" result="hardAlpha"/>
            <feOffset dx="-0.257589" dy="0.515177"/>
            <feGaussianBlur stdDeviation="0.128794"/>
            <feComposite in2="hardAlpha" operator="arithmetic" k2="-1" k3="1"/>
            <feColorMatrix type="matrix" values="0 0 0 0 1 0 0 0 0 1 0 0 0 0 1 0 0 0 0.5 0"/>
            <feBlend mode="normal" in2="shape" result="effect3_innerShadow_474_15086"/>
        </filter>
        <filter id="filter3_f_474_15086" x="7.54023" y="7.10134" width="29.6896" height="28.4213" filterUnits="userSpaceOnUse" color-interpolation-filters="sRGB">
            <feFlood flood-opacity="0" result="BackgroundImageFix"/>
            <feBlend mode="normal" in="SourceGraphic" in2="BackgroundImageFix" result="shape"/>
            <feGaussianBlur stdDeviation="0.198145" result="effect1_foregroundBlur_474_15086"/>
        </filter>
        <filter id="filter4_f_474_15086" x="7.67233" y="7.23344" width="29.4254" height="28.1571" filterUnits="userSpaceOnUse" color-interpolation-filters="sRGB">
            <feFlood flood-opacity="0" result="BackgroundImageFix"/>
            <feBlend mode="normal" in="SourceGraphic" in2="BackgroundImageFix" result="shape"/>
            <feGaussianBlur stdDeviation="0.132097" result="effect1_foregroundBlur_474_15086"/>
        </filter>
        <filter id="filter5_f_474_15086" x="39.0927" y="0.423852" width="43.0445" height="41.7763" filterUnits="userSpaceOnUse" color-interpolation-filters="sRGB">
            <feFlood flood-opacity="0" result="BackgroundImageFix"/>
            <feBlend mode="normal" in="SourceGraphic" in2="BackgroundImageFix" result="shape"/>
            <feGaussianBlur stdDeviation="3.53689" result="effect1_foregroundBlur_474_15086"/>
        </filter>
        <filter id="filter6_f_474_15086" x="43.8086" y="5.13971" width="33.6128" height="32.3446" filterUnits="userSpaceOnUse" color-interpolation-filters="sRGB">
            <feFlood flood-opacity="0" result="BackgroundImageFix"/>
            <feBlend mode="normal" in="SourceGraphic" in2="BackgroundImageFix" result="shape"/>
            <feGaussianBlur stdDeviation="1.17896" result="effect1_foregroundBlur_474_15086"/>
        </filter>
        <filter id="filter7_ddi_474_15086" x="43.1012" y="6.79026" width="35.0276" height="33.7593" filterUnits="userSpaceOnUse" color-interpolation-filters="sRGB">
            <feFlood flood-opacity="0" result="BackgroundImageFix"/>
            <feColorMatrix in="SourceAlpha" type="matrix" values="0 0 0 0 0 0 0 0 0 0 0 0 0 0 0 0 0 0 127 0" result="hardAlpha"/>
            <feOffset dy="2.57589"/>
            <feGaussianBlur stdDeviation="0.990726"/>
            <feColorMatrix type="matrix" values="0 0 0 0 0 0 0 0 0 0.051 0 0 0 0 0.082 0 0 0 0.5 0"/>
            <feBlend mode="multiply" in2="BackgroundImageFix" result="effect1_dropShadow_474_15086"/>
            <feColorMatrix in="SourceAlpha" type="matrix" values="0 0 0 0 0 0 0 0 0 0 0 0 0 0 0 0 0 0 127 0" result="hardAlpha"/>
            <feOffset dy="2.35793"/>
            <feGaussianBlur stdDeviation="1.53265"/>
            <feColorMatrix type="matrix" values="0 0 0 0 0.702449 0 0 0 0 0.458646 0 0 0 0 0.991667 0 0 0 0.6 0"/>
            <feBlend mode="color-dodge" in2="effect1_dropShadow_474_15086" result="effect2_dropShadow_474_15086"/>
            <feBlend mode="normal" in="SourceGraphic" in2="effect2_dropShadow_474_15086" result="shape"/>
            <feColorMatrix in="SourceAlpha" type="matrix" values="0 0 0 0 0 0 0 0 0 0 0 0 0 0 0 0 0 0 127 0" result="hardAlpha"/>
            <feOffset dx="-0.257589" dy="0.515177"/>
            <feGaussianBlur stdDeviation="0.128794"/>
            <feComposite in2="hardAlpha" operator="arithmetic" k2="-1" k3="1"/>
            <feColorMatrix type="matrix" values="0 0 0 0 1 0 0 0 0 1 0 0 0 0 1 0 0 0 0.5 0"/>
            <feBlend mode="normal" in2="shape" result="effect3_innerShadow_474_15086"/>
        </filter>
        <filter id="filter8_f_474_15086" x="45.7702" y="7.10134" width="29.6896" height="28.4213" filterUnits="userSpaceOnUse" color-interpolation-filters="sRGB">
            <feFlood flood-opacity="0" result="BackgroundImageFix"/>
            <feBlend mode="normal" in="SourceGraphic" in2="BackgroundImageFix" result="shape"/>
            <feGaussianBlur stdDeviation="0.198145" result="effect1_foregroundBlur_474_15086"/>
        </filter>
        <filter id="filter9_f_474_15086" x="45.9023" y="7.23344" width="29.4254" height="28.1571" filterUnits="userSpaceOnUse" color-interpolation-filters="sRGB">
            <feFlood flood-opacity="0" result="BackgroundImageFix"/>
            <feBlend mode="normal" in="SourceGraphic" in2="BackgroundImageFix" result="shape"/>
            <feGaussianBlur stdDeviation="0.132097" result="effect1_foregroundBlur_474_15086"/>
        </filter>
    </defs>
</svg>
