<svg viewBox="0 0 78 63" fill="none" xmlns="http://www.w3.org/2000/svg">
<g style="mix-blend-mode:hard-light" filter="url(#filter0_f_474_15127)">
<path d="M46.3989 9.6758L49.9557 5.81626M49.9557 23.5247L54.7234 25.4167M38.9068 30.7898V35.4818M27.7066 22.9193L22.3335 24.4329M31.8688 9.6758L27.7066 5.81626M33.9873 13.9581L28.0503 14.3607C26.6914 14.4528 26.1385 16.1545 27.1837 17.0277L31.7502 20.8431C32.1953 21.215 32.3882 21.8088 32.2467 22.3712L30.795 28.1421C30.4627 29.4629 31.9102 30.5146 33.0637 29.7904L38.1034 26.6264C38.5946 26.318 39.219 26.318 39.7102 26.6264L44.75 29.7904C45.9035 30.5146 47.351 29.4629 47.0187 28.1421L45.5669 22.3712C45.4254 21.8088 45.6184 21.215 46.0635 20.8431L50.63 17.0277C51.6752 16.1545 51.1223 14.4528 49.7634 14.3607L43.8264 13.9581C43.2477 13.9189 42.7426 13.5519 42.5265 13.0137L40.309 7.49164C39.8014 6.22776 38.0122 6.22776 37.5047 7.49164L35.2872 13.0137C35.0711 13.5519 34.5659 13.9189 33.9873 13.9581Z" stroke="#0094FF" stroke-width="3.24763" stroke-linecap="round" stroke-linejoin="round"/>
</g>
<g style="mix-blend-mode:hard-light" filter="url(#filter1_ddi_474_15127)">
<path d="M46.3989 9.6758L49.9557 5.81626M49.9557 23.5247L54.7234 25.4167M38.9068 30.7898V35.4818M27.7066 22.9193L22.3335 24.4329M31.8688 9.6758L27.7066 5.81626M33.9873 13.9581L28.0503 14.3607C26.6914 14.4528 26.1385 16.1545 27.1837 17.0277L31.7502 20.8431C32.1953 21.215 32.3882 21.8088 32.2467 22.3712L30.795 28.1421C30.4627 29.4629 31.9102 30.5146 33.0637 29.7904L38.1034 26.6264C38.5946 26.318 39.219 26.318 39.7102 26.6264L44.75 29.7904C45.9035 30.5146 47.351 29.4629 47.0187 28.1421L45.5669 22.3712C45.4254 21.8088 45.6184 21.215 46.0635 20.8431L50.63 17.0277C51.6752 16.1545 51.1223 14.4528 49.7634 14.3607L43.8264 13.9581C43.2477 13.9189 42.7426 13.5519 42.5265 13.0137L40.309 7.49164C39.8014 6.22776 38.0122 6.22776 37.5047 7.49164L35.2872 13.0137C35.0711 13.5519 34.5659 13.9189 33.9873 13.9581Z" stroke="#00B3FF" stroke-opacity="0.2" stroke-width="2.48348" stroke-linecap="round" stroke-linejoin="round"/>
</g>
<g filter="url(#filter2_f_474_15127)">
<path d="M46.3989 9.6758L49.9557 5.81626M49.9557 23.5247L54.7234 25.4167M38.9068 30.7898V35.4818M27.7066 22.9193L22.3335 24.4329M31.8688 9.6758L27.7066 5.81626M33.9873 13.9581L28.0503 14.3607C26.6914 14.4528 26.1385 16.1545 27.1837 17.0277L31.7502 20.8431C32.1953 21.215 32.3882 21.8088 32.2467 22.3712L30.795 28.1421C30.4627 29.4629 31.9102 30.5146 33.0637 29.7904L38.1034 26.6264C38.5946 26.318 39.219 26.318 39.7102 26.6264L44.75 29.7904C45.9035 30.5146 47.351 29.4629 47.0187 28.1421L45.5669 22.3712C45.4254 21.8088 45.6184 21.215 46.0635 20.8431L50.63 17.0277C51.6752 16.1545 51.1223 14.4528 49.7634 14.3607L43.8264 13.9581C43.2477 13.9189 42.7426 13.5519 42.5265 13.0137L40.309 7.49164C39.8014 6.22776 38.0122 6.22776 37.5047 7.49164L35.2872 13.0137C35.0711 13.5519 34.5659 13.9189 33.9873 13.9581Z" stroke="#82D9FF" stroke-width="1.5283" stroke-linecap="round" stroke-linejoin="round"/>
</g>
<g filter="url(#filter3_f_474_15127)">
<path d="M46.3989 9.6758L49.9557 5.81626M49.9557 23.5247L54.7234 25.4167M38.9068 30.7898V35.4818M27.7066 22.9193L22.3335 24.4329M31.8688 9.6758L27.7066 5.81626M33.9873 13.9581L28.0503 14.3607C26.6914 14.4528 26.1385 16.1545 27.1837 17.0277L31.7502 20.8431C32.1953 21.215 32.3882 21.8088 32.2467 22.3712L30.795 28.1421C30.4627 29.4629 31.9102 30.5146 33.0637 29.7904L38.1034 26.6264C38.5946 26.318 39.219 26.318 39.7102 26.6264L44.75 29.7904C45.9035 30.5146 47.351 29.4629 47.0187 28.1421L45.5669 22.3712C45.4254 21.8088 45.6184 21.215 46.0635 20.8431L50.63 17.0277C51.6752 16.1545 51.1223 14.4528 49.7634 14.3607L43.8264 13.9581C43.2477 13.9189 42.7426 13.5519 42.5265 13.0137L40.309 7.49164C39.8014 6.22776 38.0122 6.22776 37.5047 7.49164L35.2872 13.0137C35.0711 13.5519 34.5659 13.9189 33.9873 13.9581Z" stroke="white" stroke-width="0.764148" stroke-linecap="round" stroke-linejoin="round"/>
</g>
<path d="M11.287 41.7817V44.8838H14.411V41.7817H15.973V49.4818H14.411V46.1488H11.287V49.4818H9.72498V41.7817H11.287ZM17.8101 44.0698C18.1547 43.9304 18.4921 43.8351 18.8221 43.7838C19.1521 43.7251 19.5114 43.6958 19.9001 43.6958C20.4794 43.6958 20.9341 43.7691 21.2641 43.9158C21.6014 44.0624 21.8544 44.2458 22.0231 44.4658C22.1917 44.6858 22.2981 44.9241 22.3421 45.1808C22.3934 45.4374 22.4191 45.6721 22.4191 45.8848V49.4818H20.9561V48.6458H20.9341C20.9047 48.7044 20.8534 48.7888 20.7801 48.8988C20.7067 49.0014 20.6004 49.1041 20.4611 49.2068C20.3217 49.3021 20.1457 49.3864 19.9331 49.4598C19.7204 49.5331 19.4601 49.5698 19.1521 49.5698C18.7927 49.5698 18.4847 49.5221 18.2281 49.4268C17.9714 49.3241 17.7624 49.1921 17.6011 49.0308C17.4397 48.8694 17.3187 48.6861 17.2381 48.4808C17.1647 48.2681 17.1281 48.0518 17.1281 47.8318C17.1281 47.6338 17.1611 47.4248 17.2271 47.2048C17.2931 46.9848 17.4287 46.7831 17.6341 46.5998C17.8394 46.4091 18.1254 46.2551 18.4921 46.1378C18.8587 46.0131 19.3464 45.9508 19.9551 45.9508C20.0944 45.9508 20.2337 45.9544 20.3731 45.9618C20.5124 45.9618 20.6517 45.9618 20.7911 45.9618H20.9231V45.7198C20.9231 45.5658 20.8864 45.4264 20.8131 45.3018C20.7471 45.1771 20.6554 45.0744 20.5381 44.9938C20.4207 44.9131 20.2814 44.8508 20.1201 44.8068C19.9661 44.7628 19.8047 44.7408 19.6361 44.7408C19.3867 44.7408 19.1154 44.7738 18.8221 44.8398C18.5287 44.8984 18.1914 45.0341 17.8101 45.2468V44.0698ZM20.6701 46.8968C20.4647 46.8968 20.2411 46.9041 19.9991 46.9188C19.7644 46.9261 19.5444 46.9591 19.3391 47.0178C19.1411 47.0764 18.9761 47.1681 18.8441 47.2928C18.7121 47.4174 18.6461 47.5934 18.6461 47.8208C18.6461 48.0261 18.7157 48.2021 18.8551 48.3488C18.9944 48.4881 19.2291 48.5578 19.5591 48.5578C19.7131 48.5578 19.8707 48.5358 20.0321 48.4918C20.1934 48.4478 20.3401 48.3708 20.4721 48.2608C20.6041 48.1508 20.7104 47.9968 20.7911 47.7988C20.8791 47.6008 20.9231 47.3478 20.9231 47.0398V46.8968H20.6701ZM25.1257 43.7838V45.5988C25.1257 45.7014 25.133 45.8041 25.1477 45.9068C25.1697 46.0021 25.2137 46.0901 25.2797 46.1708C25.3457 46.2441 25.4373 46.3064 25.5547 46.3578C25.6793 46.4018 25.8407 46.4238 26.0387 46.4238C26.2073 46.4238 26.3943 46.4128 26.5997 46.3908C26.805 46.3688 27.003 46.3321 27.1937 46.2808V43.7838H28.6897V49.4818H27.1937V47.3808C26.8637 47.4394 26.574 47.4798 26.3247 47.5018C26.0827 47.5164 25.8993 47.5238 25.7747 47.5238C25.298 47.5238 24.9167 47.4724 24.6307 47.3698C24.352 47.2671 24.1357 47.1351 23.9817 46.9738C23.835 46.8051 23.7397 46.6181 23.6957 46.4128C23.6517 46.2074 23.6297 45.9984 23.6297 45.7858V43.7838H25.1257ZM30.4751 44.0698C30.8198 43.9304 31.1571 43.8351 31.4871 43.7838C31.8171 43.7251 32.1764 43.6958 32.5651 43.6958C33.1444 43.6958 33.5991 43.7691 33.9291 43.9158C34.2664 44.0624 34.5194 44.2458 34.6881 44.4658C34.8568 44.6858 34.9631 44.9241 35.0071 45.1808C35.0584 45.4374 35.0841 45.6721 35.0841 45.8848V49.4818H33.6211V48.6458H33.5991C33.5698 48.7044 33.5184 48.7888 33.4451 48.8988C33.3718 49.0014 33.2654 49.1041 33.1261 49.2068C32.9868 49.3021 32.8108 49.3864 32.5981 49.4598C32.3854 49.5331 32.1251 49.5698 31.8171 49.5698C31.4578 49.5698 31.1498 49.5221 30.8931 49.4268C30.6364 49.3241 30.4274 49.1921 30.2661 49.0308C30.1048 48.8694 29.9838 48.6861 29.9031 48.4808C29.8298 48.2681 29.7931 48.0518 29.7931 47.8318C29.7931 47.6338 29.8261 47.4248 29.8921 47.2048C29.9581 46.9848 30.0938 46.7831 30.2991 46.5998C30.5044 46.4091 30.7904 46.2551 31.1571 46.1378C31.5238 46.0131 32.0114 45.9508 32.6201 45.9508C32.7594 45.9508 32.8988 45.9544 33.0381 45.9618C33.1774 45.9618 33.3168 45.9618 33.4561 45.9618H33.5881V45.7198C33.5881 45.5658 33.5514 45.4264 33.4781 45.3018C33.4121 45.1771 33.3204 45.0744 33.2031 44.9938C33.0858 44.9131 32.9464 44.8508 32.7851 44.8068C32.6311 44.7628 32.4698 44.7408 32.3011 44.7408C32.0518 44.7408 31.7804 44.7738 31.4871 44.8398C31.1938 44.8984 30.8564 45.0341 30.4751 45.2468V44.0698ZM33.3351 46.8968C33.1298 46.8968 32.9061 46.9041 32.6641 46.9188C32.4294 46.9261 32.2094 46.9591 32.0041 47.0178C31.8061 47.0764 31.6411 47.1681 31.5091 47.2928C31.3771 47.4174 31.3111 47.5934 31.3111 47.8208C31.3111 48.0261 31.3808 48.2021 31.5201 48.3488C31.6594 48.4881 31.8941 48.5578 32.2241 48.5578C32.3781 48.5578 32.5358 48.5358 32.6971 48.4918C32.8584 48.4478 33.0051 48.3708 33.1371 48.2608C33.2691 48.1508 33.3754 47.9968 33.4561 47.7988C33.5441 47.6008 33.5881 47.3478 33.5881 47.0398V46.8968H33.3351ZM36.3953 49.5698C36.2926 49.5698 36.1863 49.5588 36.0763 49.5368C35.9663 49.5221 35.8709 49.5038 35.7903 49.4818V48.3378C35.8489 48.3524 35.9076 48.3634 35.9663 48.3708C36.0249 48.3781 36.0763 48.3818 36.1203 48.3818C36.2229 48.3818 36.3183 48.3488 36.4063 48.2828C36.5016 48.2168 36.5823 48.0701 36.6483 47.8428C36.7143 47.6154 36.7656 47.2854 36.8023 46.8528C36.8463 46.4128 36.8683 45.8224 36.8683 45.0818V43.7838H41.4553V49.4818H39.9593V44.8838H38.1993V45.0818C38.1993 46.0424 38.1589 46.8161 38.0783 47.4028C37.9976 47.9894 37.8803 48.4441 37.7263 48.7668C37.5723 49.0821 37.3816 49.2948 37.1543 49.4048C36.9343 49.5148 36.6813 49.5698 36.3953 49.5698ZM42.8738 43.7838H44.3698V45.6318H45.5138C46.3352 45.6318 46.9402 45.8078 47.3288 46.1598C47.7248 46.5118 47.9228 46.9774 47.9228 47.5568C47.9228 48.1361 47.7248 48.6018 47.3288 48.9538C46.9402 49.3058 46.3352 49.4818 45.5138 49.4818H42.8738V43.7838ZM46.3608 47.5568C46.3608 47.2781 46.2765 47.0618 46.1078 46.9078C45.9392 46.7538 45.6678 46.6768 45.2938 46.6768H44.3698V48.4368H45.2938C45.6678 48.4368 45.9392 48.3598 46.1078 48.2058C46.2765 48.0518 46.3608 47.8354 46.3608 47.5568ZM50.3535 43.7838V45.9398H52.7515V43.7838H54.2475V49.4818H52.7515V47.0398H50.3535V49.4818H48.8575V43.7838H50.3535ZM57.1748 43.7838V46.7758L57.1308 47.7988H57.1528L59.6058 43.7838H61.2778V49.4818H59.7818V46.5338L59.8258 45.4668H59.7928L57.2738 49.4818H55.6788V43.7838H57.1748ZM64.2002 43.7838V46.3688H64.2552L66.0812 43.7838H67.7532L65.6412 46.4788L68.0502 49.4818H66.1692L64.2552 46.7538H64.2002V49.4818H62.7042V43.7838H64.2002ZM20.1037 57.6328C20.1037 57.1561 20.177 56.7344 20.3237 56.3678C20.4703 56.0011 20.672 55.6968 20.9287 55.4548C21.1927 55.2054 21.5043 55.0184 21.8637 54.8938C22.223 54.7618 22.6153 54.6958 23.0407 54.6958C23.466 54.6958 23.8583 54.7618 24.2177 54.8938C24.577 55.0184 24.885 55.2054 25.1417 55.4548C25.4057 55.6968 25.611 56.0011 25.7577 56.3678C25.9043 56.7344 25.9777 57.1561 25.9777 57.6328C25.9777 58.1094 25.9043 58.5311 25.7577 58.8978C25.611 59.2644 25.4057 59.5724 25.1417 59.8218C24.885 60.0638 24.577 60.2508 24.2177 60.3828C23.8583 60.5074 23.466 60.5698 23.0407 60.5698C22.6153 60.5698 22.223 60.5074 21.8637 60.3828C21.5043 60.2508 21.1927 60.0638 20.9287 59.8218C20.672 59.5724 20.4703 59.2644 20.3237 58.8978C20.177 58.5311 20.1037 58.1094 20.1037 57.6328ZM21.6657 57.6328C21.6657 57.9628 21.706 58.2451 21.7867 58.4798C21.8673 58.7144 21.9737 58.9088 22.1057 59.0628C22.2377 59.2094 22.3843 59.3194 22.5457 59.3928C22.707 59.4588 22.872 59.4918 23.0407 59.4918C23.202 59.4918 23.3633 59.4588 23.5247 59.3928C23.6933 59.3194 23.8437 59.2094 23.9757 59.0628C24.1077 58.9088 24.214 58.7144 24.2947 58.4798C24.3753 58.2451 24.4157 57.9628 24.4157 57.6328C24.4157 57.3028 24.3753 57.0204 24.2947 56.7858C24.214 56.5511 24.1077 56.3604 23.9757 56.2138C23.8437 56.0598 23.6933 55.9498 23.5247 55.8838C23.3633 55.8104 23.202 55.7738 23.0407 55.7738C22.872 55.7738 22.707 55.8104 22.5457 55.8838C22.3843 55.9498 22.2377 56.0598 22.1057 56.2138C21.9737 56.3604 21.8673 56.5511 21.7867 56.7858C21.706 57.0204 21.6657 57.3028 21.6657 57.6328ZM31.5273 54.7838V55.8838H29.7453V60.4818H28.2493V55.8838H26.4673V54.7838H31.5273ZM37.3362 54.7838V59.3818H38.2712V61.9668H36.8962V60.4818H32.8702V61.9668H31.4952V59.3818H32.1332C32.3019 59.1838 32.4339 58.9821 32.5292 58.7768C32.6319 58.5714 32.7052 58.3551 32.7492 58.1278C32.8005 57.9004 32.8335 57.6658 32.8482 57.4238C32.8629 57.1744 32.8702 56.9104 32.8702 56.6318V54.7838H37.3362ZM35.8402 59.3818V55.8838H34.1902V56.7308C34.1902 56.9508 34.1865 57.1744 34.1792 57.4018C34.1792 57.6291 34.1572 57.8528 34.1132 58.0728C34.0765 58.2928 34.0179 58.5128 33.9372 58.7328C33.8565 58.9528 33.7392 59.1691 33.5852 59.3818H35.8402ZM40.3463 58.0838C40.3537 58.2671 40.394 58.4431 40.4673 58.6118C40.5407 58.7804 40.647 58.9308 40.7863 59.0628C40.9257 59.1948 41.098 59.3011 41.3033 59.3818C41.516 59.4551 41.7617 59.4918 42.0403 59.4918C42.3703 59.4918 42.682 59.4588 42.9753 59.3928C43.2687 59.3194 43.551 59.2204 43.8223 59.0958V60.2178C43.529 60.3278 43.2137 60.4158 42.8763 60.4818C42.539 60.5404 42.198 60.5698 41.8533 60.5698C41.428 60.5698 41.0283 60.5111 40.6543 60.3938C40.2803 60.2764 39.954 60.0968 39.6753 59.8548C39.404 59.6128 39.1877 59.3084 39.0263 58.9418C38.865 58.5751 38.7843 58.1388 38.7843 57.6328C38.7843 57.1708 38.8577 56.7601 39.0043 56.4008C39.1583 56.0341 39.3637 55.7261 39.6203 55.4768C39.877 55.2201 40.174 55.0258 40.5113 54.8938C40.856 54.7618 41.219 54.6958 41.6003 54.6958C42.033 54.6958 42.396 54.7618 42.6893 54.8938C42.99 55.0184 43.2357 55.1798 43.4263 55.3778C43.6243 55.5758 43.7747 55.7958 43.8773 56.0378C43.9873 56.2724 44.068 56.5034 44.1193 56.7308C44.1707 56.9581 44.2 57.1634 44.2073 57.3468C44.222 57.5301 44.2293 57.6621 44.2293 57.7428V58.0838H40.3463ZM42.6893 57.0608C42.6967 56.8188 42.6637 56.6134 42.5903 56.4448C42.5243 56.2761 42.4327 56.1404 42.3153 56.0378C42.198 55.9278 42.0697 55.8508 41.9303 55.8068C41.791 55.7554 41.6517 55.7298 41.5123 55.7298C41.3437 55.7298 41.1897 55.7664 41.0503 55.8398C40.911 55.9058 40.79 55.9974 40.6873 56.1148C40.5847 56.2321 40.5003 56.3751 40.4343 56.5438C40.3757 56.7051 40.3463 56.8774 40.3463 57.0608H42.6893ZM45.1716 60.5698C45.069 60.5698 44.9626 60.5588 44.8526 60.5368C44.7426 60.5221 44.6473 60.5038 44.5666 60.4818V59.3378C44.6253 59.3524 44.684 59.3634 44.7426 59.3708C44.8013 59.3781 44.8526 59.3818 44.8966 59.3818C44.9993 59.3818 45.0946 59.3488 45.1826 59.2828C45.278 59.2168 45.3586 59.0701 45.4246 58.8428C45.4906 58.6154 45.542 58.2854 45.5786 57.8528C45.6226 57.4128 45.6446 56.8224 45.6446 56.0818V54.7838H50.2316V60.4818H48.7356V55.8838H46.9756V56.0818C46.9756 57.0424 46.9353 57.8161 46.8546 58.4028C46.774 58.9894 46.6566 59.4441 46.5026 59.7668C46.3486 60.0821 46.158 60.2948 45.9306 60.4048C45.7106 60.5148 45.4576 60.5698 45.1716 60.5698ZM52.0132 55.0698C52.3579 54.9304 52.6952 54.8351 53.0252 54.7838C53.3552 54.7251 53.7145 54.6958 54.1032 54.6958C54.6825 54.6958 55.1372 54.7691 55.4672 54.9158C55.8045 55.0624 56.0575 55.2458 56.2262 55.4658C56.3949 55.6858 56.5012 55.9241 56.5452 56.1808C56.5965 56.4374 56.6222 56.6721 56.6222 56.8848V60.4818H55.1592V59.6458H55.1372C55.1079 59.7044 55.0565 59.7888 54.9832 59.8988C54.9099 60.0014 54.8035 60.1041 54.6642 60.2068C54.5249 60.3021 54.3489 60.3864 54.1362 60.4598C53.9235 60.5331 53.6632 60.5698 53.3552 60.5698C52.9959 60.5698 52.6879 60.5221 52.4312 60.4268C52.1745 60.3241 51.9655 60.1921 51.8042 60.0308C51.6429 59.8694 51.5219 59.6861 51.4412 59.4808C51.3679 59.2681 51.3312 59.0518 51.3312 58.8318C51.3312 58.6338 51.3642 58.4248 51.4302 58.2048C51.4962 57.9848 51.6319 57.7831 51.8372 57.5998C52.0425 57.4091 52.3285 57.2551 52.6952 57.1378C53.0619 57.0131 53.5495 56.9508 54.1582 56.9508C54.2975 56.9508 54.4369 56.9544 54.5762 56.9618C54.7155 56.9618 54.8549 56.9618 54.9942 56.9618H55.1262V56.7198C55.1262 56.5658 55.0895 56.4264 55.0162 56.3018C54.9502 56.1771 54.8585 56.0744 54.7412 55.9938C54.6239 55.9131 54.4845 55.8508 54.3232 55.8068C54.1692 55.7628 54.0079 55.7408 53.8392 55.7408C53.5899 55.7408 53.3185 55.7738 53.0252 55.8398C52.7319 55.8984 52.3945 56.0341 52.0132 56.2468V55.0698ZM54.8732 57.8968C54.6679 57.8968 54.4442 57.9041 54.2022 57.9188C53.9675 57.9261 53.7475 57.9591 53.5422 58.0178C53.3442 58.0764 53.1792 58.1681 53.0472 58.2928C52.9152 58.4174 52.8492 58.5934 52.8492 58.8208C52.8492 59.0261 52.9189 59.2021 53.0582 59.3488C53.1975 59.4881 53.4322 59.5578 53.7622 59.5578C53.9162 59.5578 54.0739 59.5358 54.2352 59.4918C54.3965 59.4478 54.5432 59.3708 54.6752 59.2608C54.8072 59.1508 54.9135 58.9968 54.9942 58.7988C55.0822 58.6008 55.1262 58.3478 55.1262 58.0398V57.8968H54.8732Z" fill="#0094FF"/>
<defs>
<filter id="filter0_f_474_15127" x="16.8887" y="0.371702" width="43.2797" height="40.5546" filterUnits="userSpaceOnUse" color-interpolation-filters="sRGB">
<feFlood flood-opacity="0" result="BackgroundImageFix"/>
<feBlend mode="normal" in="SourceGraphic" in2="BackgroundImageFix" result="shape"/>
<feGaussianBlur stdDeviation="1.91037" result="effect1_foregroundBlur_474_15127"/>
</filter>
<filter id="filter1_ddi_474_15127" x="16.1243" y="3.42827" width="44.808" height="42.0829" filterUnits="userSpaceOnUse" color-interpolation-filters="sRGB">
<feFlood flood-opacity="0" result="BackgroundImageFix"/>
<feColorMatrix in="SourceAlpha" type="matrix" values="0 0 0 0 0 0 0 0 0 0 0 0 0 0 0 0 0 0 127 0" result="hardAlpha"/>
<feOffset dy="2.48348"/>
<feGaussianBlur stdDeviation="0.955185"/>
<feColorMatrix type="matrix" values="0 0 0 0 0 0 0 0 0 0.051 0 0 0 0 0.082 0 0 0 0.7 0"/>
<feBlend mode="multiply" in2="BackgroundImageFix" result="effect1_dropShadow_474_15127"/>
<feColorMatrix in="SourceAlpha" type="matrix" values="0 0 0 0 0 0 0 0 0 0 0 0 0 0 0 0 0 0 127 0" result="hardAlpha"/>
<feOffset dy="3.82074"/>
<feGaussianBlur stdDeviation="2.48348"/>
<feColorMatrix type="matrix" values="0 0 0 0 0 0 0 0 0 0.4 0 0 0 0 1 0 0 0 1 0"/>
<feBlend mode="color-dodge" in2="effect1_dropShadow_474_15127" result="effect2_dropShadow_474_15127"/>
<feBlend mode="normal" in="SourceGraphic" in2="effect2_dropShadow_474_15127" result="shape"/>
<feColorMatrix in="SourceAlpha" type="matrix" values="0 0 0 0 0 0 0 0 0 0 0 0 0 0 0 0 0 0 127 0" result="hardAlpha"/>
<feOffset dx="-0.248348" dy="0.496696"/>
<feGaussianBlur stdDeviation="0.124174"/>
<feComposite in2="hardAlpha" operator="arithmetic" k2="-1" k3="1"/>
<feColorMatrix type="matrix" values="0 0 0 0 1 0 0 0 0 1 0 0 0 0 1 0 0 0 0.5 0"/>
<feBlend mode="normal" in2="shape" result="effect3_innerShadow_474_15127"/>
</filter>
<filter id="filter2_f_474_15127" x="21.1873" y="4.67002" width="34.6826" height="31.958" filterUnits="userSpaceOnUse" color-interpolation-filters="sRGB">
<feFlood flood-opacity="0" result="BackgroundImageFix"/>
<feBlend mode="normal" in="SourceGraphic" in2="BackgroundImageFix" result="shape"/>
<feGaussianBlur stdDeviation="0.191037" result="effect1_foregroundBlur_474_15127"/>
</filter>
<filter id="filter3_f_474_15127" x="21.6965" y="5.17946" width="33.6637" height="30.9391" filterUnits="userSpaceOnUse" color-interpolation-filters="sRGB">
<feFlood flood-opacity="0" result="BackgroundImageFix"/>
<feBlend mode="normal" in="SourceGraphic" in2="BackgroundImageFix" result="shape"/>
<feGaussianBlur stdDeviation="0.127358" result="effect1_foregroundBlur_474_15127"/>
</filter>
</defs>
</svg>
