<svg viewBox="0 0 84 70" fill="none" xmlns="http://www.w3.org/2000/svg">
<g style="mix-blend-mode:hard-light" filter="url(#filter0_f_474_15086)">
<path d="M21.4495 8.47918C21.4705 8.42669 21.4945 8.40654 21.5117 8.3955C21.5346 8.38088 21.5696 8.36869 21.6129 8.36869C21.6562 8.36869 21.6912 8.38088 21.7141 8.3955C21.7313 8.40654 21.7553 8.42669 21.7763 8.47918L24.7966 16.0003C25.1493 16.8786 25.9737 17.4776 26.918 17.5416L35.0044 18.0899C35.0608 18.0937 35.0874 18.1103 35.1032 18.1233C35.1242 18.1405 35.1466 18.17 35.16 18.2112C35.1733 18.2523 35.1726 18.2894 35.1657 18.3157C35.1606 18.3355 35.1488 18.3645 35.1054 18.4008L28.8857 23.5974C28.1593 24.2043 27.8445 25.1733 28.0754 26.0912L30.0527 33.9513C30.0665 34.0061 30.059 34.0365 30.0515 34.0556C30.0416 34.0808 30.0204 34.1113 29.9854 34.1367C29.9504 34.1621 29.9149 34.1729 29.8878 34.1745C29.8674 34.1757 29.8362 34.1735 29.7883 34.1434L22.924 29.8339C22.1224 29.3307 21.1034 29.3307 20.3018 29.8339L13.4375 34.1434C13.3896 34.1735 13.3584 34.1757 13.338 34.1745C13.3109 34.1729 13.2754 34.1621 13.2404 34.1367C13.2054 34.1113 13.1842 34.0808 13.1743 34.0556C13.1668 34.0365 13.1593 34.0061 13.1731 33.9513L15.1504 26.0912C15.3814 25.1733 15.0665 24.2043 14.3401 23.5974L8.12043 18.4008C8.07702 18.3645 8.06526 18.3355 8.06009 18.3157C8.05325 18.2894 8.05248 18.2523 8.06585 18.2112C8.07922 18.17 8.10165 18.1405 8.12261 18.1233C8.13844 18.1103 8.165 18.0937 8.22144 18.0899L16.3078 17.5416C17.2521 17.4776 18.0765 16.8787 18.4292 16.0003L21.4495 8.47918Z" stroke="#0094FF" stroke-width="2.28968"/>
</g>
<g style="mix-blend-mode:hard-light" filter="url(#filter1_f_474_15086)">
<path d="M21.6129 9.01746L24.4697 16.1316C24.8728 17.1354 25.8149 17.8199 26.8942 17.8931L34.5429 18.4117L28.6598 23.3271C27.8297 24.0206 27.4698 25.1282 27.7338 26.1772L29.1856 25.8119L27.7338 26.1772L29.6041 33.6119L23.1113 29.5356C22.1952 28.9604 21.0306 28.9604 20.1145 29.5356L13.6217 33.6119L15.4921 26.1772C15.756 25.1282 15.3961 24.0206 14.566 23.3271L8.68286 18.4117L16.3316 17.8931C17.4109 17.8199 18.353 17.1354 18.7561 16.1316L21.6129 9.01746Z" stroke="#0094FF" stroke-width="2.99419"/>
</g>
<g style="mix-blend-mode:hard-light" filter="url(#filter2_ddi_474_15086)">
<path d="M21.4495 8.47918C21.4705 8.42669 21.4945 8.40654 21.5117 8.3955C21.5346 8.38088 21.5696 8.36869 21.6129 8.36869C21.6562 8.36869 21.6912 8.38088 21.7141 8.3955C21.7313 8.40654 21.7553 8.42669 21.7763 8.47918L24.7966 16.0003C25.1493 16.8786 25.9737 17.4776 26.918 17.5416L35.0044 18.0899C35.0608 18.0937 35.0874 18.1103 35.1032 18.1233C35.1242 18.1405 35.1466 18.17 35.16 18.2112C35.1733 18.2523 35.1726 18.2894 35.1657 18.3157C35.1606 18.3355 35.1488 18.3645 35.1054 18.4008L28.8857 23.5974C28.1593 24.2043 27.8445 25.1733 28.0754 26.0912L30.0527 33.9513C30.0665 34.0061 30.059 34.0365 30.0515 34.0556C30.0416 34.0808 30.0204 34.1113 29.9854 34.1367C29.9504 34.1621 29.9149 34.1729 29.8878 34.1745C29.8674 34.1757 29.8362 34.1735 29.7883 34.1434L22.924 29.8339C22.1224 29.3307 21.1034 29.3307 20.3018 29.8339L13.4375 34.1434C13.3896 34.1735 13.3584 34.1757 13.338 34.1745C13.3109 34.1729 13.2754 34.1621 13.2404 34.1367C13.2054 34.1113 13.1842 34.0808 13.1743 34.0556C13.1668 34.0365 13.1593 34.0061 13.1731 33.9513L15.1504 26.0912C15.3814 25.1733 15.0665 24.2043 14.3401 23.5974L8.12043 18.4008C8.07702 18.3645 8.06526 18.3355 8.06009 18.3157C8.05325 18.2894 8.05248 18.2523 8.06585 18.2112C8.07922 18.17 8.10165 18.1405 8.12261 18.1233C8.13844 18.1103 8.165 18.0937 8.22144 18.0899L16.3078 17.5416C17.2521 17.4776 18.0765 16.8787 18.4292 16.0003L21.4495 8.47918Z" stroke="#00B3FF" stroke-opacity="0.2" stroke-width="2.28968"/>
</g>
<g filter="url(#filter3_f_474_15086)">
<path d="M21.0409 8.3151C21.2479 7.79945 21.9779 7.79945 22.185 8.3151L25.2052 15.8362C25.495 16.5577 26.1721 17.0497 26.9478 17.1023L35.0342 17.6506C35.5885 17.6882 35.8141 18.3824 35.3877 18.7387L29.168 23.9353C28.5713 24.4338 28.3127 25.2298 28.5024 25.9838L30.4797 33.8438C30.6153 34.3827 30.0248 34.8118 29.5541 34.5163L22.6899 30.2069C22.0314 29.7935 21.1944 29.7935 20.5359 30.2069L13.6717 34.5163C13.2011 34.8118 12.6105 34.3827 12.7461 33.8438L14.7234 25.9838C14.9131 25.2298 14.6545 24.4338 14.0578 23.9353L7.83811 18.7387C7.41169 18.3824 7.63726 17.6882 8.19165 17.6506L16.278 17.1023C17.0537 17.0497 17.7308 16.5577 18.0206 15.8362L21.0409 8.3151Z" stroke="#82D9FF" stroke-width="1.40903"/>
</g>
<g filter="url(#filter4_f_474_15086)">
<path d="M20.714 8.18383C21.0394 7.37353 22.1864 7.37353 22.5118 8.18383L25.5321 15.705C25.7715 16.301 26.3308 16.7074 26.9716 16.7508L35.058 17.2991C35.9292 17.3582 36.2836 18.4492 35.6136 19.009L29.3938 24.2056C28.901 24.6174 28.6873 25.275 28.844 25.8979L30.8214 33.7579C31.0344 34.6047 30.1064 35.2789 29.3668 34.8147L22.5026 30.5052C21.9586 30.1637 21.2672 30.1637 20.7232 30.5052L13.859 34.8147C13.1194 35.2789 12.1914 34.6047 12.4045 33.7579L14.3818 25.8979C14.5385 25.275 14.3248 24.6174 13.832 24.2056L7.61225 19.009C6.94216 18.4492 7.29663 17.3582 8.16782 17.2991L16.2542 16.7508C16.895 16.7074 17.4543 16.301 17.6937 15.705L20.714 8.18383Z" stroke="white" stroke-width="0.704516"/>
</g>
<g style="mix-blend-mode:hard-light" filter="url(#filter5_f_474_15086)">
<path d="M62.6753 8.47918C62.6964 8.42669 62.7203 8.40654 62.7376 8.3955C62.7604 8.38088 62.7955 8.36869 62.8387 8.36869C62.882 8.36869 62.917 8.38088 62.9399 8.3955C62.9572 8.40654 62.9811 8.42669 63.0022 8.47918L66.0225 16.0003C66.3752 16.8786 67.1995 17.4776 68.1438 17.5416L76.2302 18.0899C76.2866 18.0937 76.3132 18.1103 76.329 18.1233C76.35 18.1405 76.3724 18.17 76.3858 18.2112C76.3992 18.2523 76.3984 18.2894 76.3915 18.3157C76.3864 18.3355 76.3746 18.3645 76.3312 18.4008L70.1115 23.5974C69.3851 24.2043 69.0703 25.1733 69.3012 26.0912L71.2786 33.9513C71.2924 34.0061 71.2848 34.0365 71.2774 34.0556C71.2675 34.0808 71.2463 34.1113 71.2113 34.1367C71.1763 34.1621 71.1408 34.1729 71.1137 34.1745C71.0932 34.1757 71.062 34.1735 71.0141 34.1434L64.1498 29.8339C63.3482 29.3307 62.3293 29.3307 61.5276 29.8339L54.6634 34.1434C54.6155 34.1735 54.5842 34.1757 54.5638 34.1745C54.5367 34.1729 54.5012 34.1621 54.4662 34.1367C54.4312 34.1113 54.41 34.0808 54.4001 34.0556C54.3926 34.0365 54.3851 34.0061 54.3989 33.9513L56.3763 26.0912C56.6072 25.1733 56.2923 24.2043 55.566 23.5974L49.3463 18.4008C49.3028 18.3645 49.2911 18.3355 49.2859 18.3157C49.2791 18.2894 49.2783 18.2523 49.2917 18.2112C49.305 18.17 49.3275 18.1405 49.3484 18.1233C49.3643 18.1103 49.3908 18.0937 49.4473 18.0899L57.5336 17.5416C58.478 17.4776 59.3023 16.8787 59.655 16.0003L62.6753 8.47918Z" stroke="#0094FF" stroke-width="2.28968"/>
</g>
<g style="mix-blend-mode:hard-light" filter="url(#filter6_f_474_15086)">
<path d="M62.8387 9.01746L65.6956 16.1316C66.0987 17.1354 67.0408 17.8199 68.12 17.8931L75.7688 18.4117L69.8856 23.3271C69.0555 24.0206 68.6957 25.1282 68.9596 26.1772L70.4114 25.8119L68.9596 26.1772L70.8299 33.6119L64.3371 29.5356C63.421 28.9604 62.2565 28.9604 61.3403 29.5356L54.8475 33.6119L56.7179 26.1772C56.9818 25.1282 56.6219 24.0206 55.7918 23.3271L49.9087 18.4117L57.5574 17.8931C58.6367 17.8199 59.5788 17.1354 59.9819 16.1316L62.8387 9.01746Z" stroke="#0094FF" stroke-width="2.99419"/>
</g>
<g style="mix-blend-mode:hard-light" filter="url(#filter7_ddi_474_15086)">
<path d="M62.6753 8.47918C62.6964 8.42669 62.7203 8.40654 62.7376 8.3955C62.7604 8.38088 62.7955 8.36869 62.8387 8.36869C62.882 8.36869 62.917 8.38088 62.9399 8.3955C62.9572 8.40654 62.9811 8.42669 63.0022 8.47918L66.0225 16.0003C66.3752 16.8786 67.1995 17.4776 68.1438 17.5416L76.2302 18.0899C76.2866 18.0937 76.3132 18.1103 76.329 18.1233C76.35 18.1405 76.3724 18.17 76.3858 18.2112C76.3992 18.2523 76.3984 18.2894 76.3915 18.3157C76.3864 18.3355 76.3746 18.3645 76.3312 18.4008L70.1115 23.5974C69.3851 24.2043 69.0703 25.1733 69.3012 26.0912L71.2786 33.9513C71.2924 34.0061 71.2848 34.0365 71.2774 34.0556C71.2675 34.0808 71.2463 34.1113 71.2113 34.1367C71.1763 34.1621 71.1408 34.1729 71.1137 34.1745C71.0932 34.1757 71.062 34.1735 71.0141 34.1434L64.1498 29.8339C63.3482 29.3307 62.3293 29.3307 61.5276 29.8339L54.6634 34.1434C54.6155 34.1735 54.5842 34.1757 54.5638 34.1745C54.5367 34.1729 54.5012 34.1621 54.4662 34.1367C54.4312 34.1113 54.41 34.0808 54.4001 34.0556C54.3926 34.0365 54.3851 34.0061 54.3989 33.9513L56.3763 26.0912C56.6072 25.1733 56.2923 24.2043 55.566 23.5974L49.3463 18.4008C49.3028 18.3645 49.2911 18.3355 49.2859 18.3157C49.2791 18.2894 49.2783 18.2523 49.2917 18.2112C49.305 18.17 49.3275 18.1405 49.3484 18.1233C49.3643 18.1103 49.3908 18.0937 49.4473 18.0899L57.5336 17.5416C58.478 17.4776 59.3023 16.8787 59.655 16.0003L62.6753 8.47918Z" stroke="#00B3FF" stroke-opacity="0.2" stroke-width="2.28968"/>
</g>
<g filter="url(#filter8_f_474_15086)">
<path d="M62.2667 8.3151C62.4738 7.79945 63.2037 7.79945 63.4108 8.3151L66.4311 15.8362C66.7208 16.5577 67.3979 17.0497 68.1736 17.1023L76.26 17.6506C76.8144 17.6882 77.0399 18.3824 76.6135 18.7387L70.3938 23.9353C69.7972 24.4338 69.5385 25.2298 69.7282 25.9838L71.7056 33.8438C71.8411 34.3827 71.2506 34.8118 70.78 34.5163L63.9157 30.2069C63.2572 29.7935 62.4202 29.7935 61.7618 30.2069L54.8975 34.5163C54.4269 34.8118 53.8363 34.3827 53.9719 33.8438L55.9493 25.9838C56.1389 25.2298 55.8803 24.4338 55.2836 23.9353L49.0639 18.7387C48.6375 18.3824 48.8631 17.6882 49.4175 17.6506L57.5038 17.1023C58.2795 17.0497 58.9567 16.5577 59.2464 15.8362L62.2667 8.3151Z" stroke="#82D9FF" stroke-width="1.40903"/>
</g>
<g filter="url(#filter9_f_474_15086)">
<path d="M61.9398 8.18383C62.2652 7.37353 63.4123 7.37353 63.7377 8.18383L66.7579 15.705C66.9973 16.301 67.5567 16.7074 68.1975 16.7508L76.2838 17.2991C77.155 17.3582 77.5095 18.4492 76.8394 19.009L70.6197 24.2056C70.1268 24.6174 69.9131 25.275 70.0698 25.8979L72.0472 33.7579C72.2602 34.6047 71.3322 35.2789 70.5927 34.8147L63.7284 30.5052C63.1844 30.1637 62.493 30.1637 61.9491 30.5052L55.0848 34.8147C54.3453 35.2789 53.4172 34.6047 53.6303 33.7579L55.6076 25.8979C55.7643 25.275 55.5507 24.6174 55.0578 24.2056L48.8381 19.009C48.168 18.4492 48.5225 17.3582 49.3937 17.2991L57.48 16.7508C58.1208 16.7074 58.6802 16.301 58.9195 15.705L61.9398 8.18383Z" stroke="white" stroke-width="0.704516"/>
</g>
<path d="M12.9076 48.5258V51.8148H12.9406L15.7236 48.5258H17.5826L14.3706 52.0128L17.7806 56.2258H15.8006L12.9406 52.3978H12.9076V56.2258H11.3456V48.5258H12.9076ZM18.3791 56.3138C18.2765 56.3138 18.1701 56.3028 18.0601 56.2808C17.9501 56.2661 17.8548 56.2478 17.7741 56.2258V55.0818C17.8328 55.0965 17.8915 55.1075 17.9501 55.1148C18.0088 55.1221 18.0601 55.1258 18.1041 55.1258C18.2068 55.1258 18.3021 55.0928 18.3901 55.0268C18.4855 54.9608 18.5661 54.8141 18.6321 54.5868C18.6981 54.3595 18.7495 54.0295 18.7861 53.5968C18.8301 53.1568 18.8521 52.5665 18.8521 51.8258V50.5278H23.4391V56.2258H21.9431V51.6278H20.1831V51.8258C20.1831 52.7865 20.1428 53.5601 20.0621 54.1468C19.9815 54.7335 19.8641 55.1881 19.7101 55.5108C19.5561 55.8261 19.3655 56.0388 19.1381 56.1488C18.9181 56.2588 18.6651 56.3138 18.3791 56.3138ZM26.3647 50.5278V53.5198L26.3207 54.5428H26.3427L28.7957 50.5278H30.4677V56.2258H28.9717V53.2778L29.0157 52.2108H28.9827L26.4637 56.2258H24.8687V50.5278H26.3647ZM33.1261 53.8278C33.1334 54.0111 33.1738 54.1871 33.2471 54.3558C33.3204 54.5245 33.4268 54.6748 33.5661 54.8068C33.7054 54.9388 33.8778 55.0451 34.0831 55.1258C34.2958 55.1991 34.5414 55.2358 34.8201 55.2358C35.1501 55.2358 35.4618 55.2028 35.7551 55.1368C36.0484 55.0635 36.3308 54.9645 36.6021 54.8398V55.9618C36.3088 56.0718 35.9934 56.1598 35.6561 56.2258C35.3188 56.2845 34.9778 56.3138 34.6331 56.3138C34.2078 56.3138 33.8081 56.2551 33.4341 56.1378C33.0601 56.0205 32.7338 55.8408 32.4551 55.5988C32.1838 55.3568 31.9674 55.0525 31.8061 54.6858C31.6448 54.3191 31.5641 53.8828 31.5641 53.3768C31.5641 52.9148 31.6374 52.5041 31.7841 52.1448C31.9381 51.7781 32.1434 51.4701 32.4001 51.2208C32.6568 50.9641 32.9538 50.7698 33.2911 50.6378C33.6358 50.5058 33.9988 50.4398 34.3801 50.4398C34.8128 50.4398 35.1758 50.5058 35.4691 50.6378C35.7698 50.7625 36.0154 50.9238 36.2061 51.1218C36.4041 51.3198 36.5544 51.5398 36.6571 51.7818C36.7671 52.0165 36.8478 52.2475 36.8991 52.4748C36.9504 52.7021 36.9798 52.9075 36.9871 53.0908C37.0018 53.2741 37.0091 53.4061 37.0091 53.4868V53.8278H33.1261ZM35.4691 52.8048C35.4764 52.5628 35.4434 52.3575 35.3701 52.1888C35.3041 52.0201 35.2124 51.8845 35.0951 51.7818C34.9778 51.6718 34.8494 51.5948 34.7101 51.5508C34.5708 51.4995 34.4314 51.4738 34.2921 51.4738C34.1234 51.4738 33.9694 51.5105 33.8301 51.5838C33.6908 51.6498 33.5698 51.7415 33.4671 51.8588C33.3644 51.9761 33.2801 52.1191 33.2141 52.2878C33.1554 52.4491 33.1261 52.6215 33.1261 52.8048H35.4691ZM39.6098 50.5278V52.6838H42.0078V50.5278H43.5038V56.2258H42.0078V53.7838H39.6098V56.2258H38.1138V50.5278H39.6098ZM49.3901 50.5278V51.6278H47.6081V56.2258H46.1121V51.6278H44.3301V50.5278H49.3901ZM52.581 56.3138C52.075 56.3138 51.635 56.2295 51.261 56.0608C50.887 55.8921 50.5753 55.6685 50.326 55.3898C50.084 55.1038 49.9043 54.7811 49.787 54.4218C49.6696 54.0625 49.611 53.6958 49.611 53.3218C49.611 52.9405 49.677 52.5775 49.809 52.2328C49.941 51.8808 50.1353 51.5728 50.392 51.3088C50.6486 51.0448 50.9676 50.8358 51.349 50.6818C51.7376 50.5205 52.185 50.4398 52.691 50.4398C52.8816 50.4398 53.087 50.4508 53.307 50.4728C53.527 50.4948 53.7433 50.5351 53.956 50.5938V51.7048C53.8166 51.6461 53.6663 51.6021 53.505 51.5728C53.351 51.5361 53.164 51.5178 52.944 51.5178C52.6946 51.5178 52.46 51.5618 52.24 51.6498C52.0273 51.7378 51.8403 51.8661 51.679 52.0348C51.525 52.1961 51.4003 52.3941 51.305 52.6288C51.217 52.8561 51.173 53.1128 51.173 53.3988C51.173 53.6555 51.2096 53.8975 51.283 54.1248C51.3636 54.3448 51.4736 54.5391 51.613 54.7078C51.7596 54.8691 51.9356 54.9975 52.141 55.0928C52.3463 55.1881 52.581 55.2358 52.845 55.2358C53.2483 55.2358 53.648 55.1515 54.044 54.9828V56.0938C53.9046 56.1378 53.7066 56.1855 53.45 56.2368C53.2006 56.2881 52.911 56.3138 52.581 56.3138ZM56.5288 50.5278V53.1128H56.5838L58.4098 50.5278H60.0818L57.9698 53.2228L60.3788 56.2258H58.4978L56.5838 53.4978H56.5288V56.2258H55.0328V50.5278H56.5288ZM62.6411 50.5278V53.5198L62.5971 54.5428H62.6191L65.0721 50.5278H66.7441V56.2258H65.2481V53.2778L65.2921 52.2108H65.2591L62.7401 56.2258H61.1451V50.5278H62.6411ZM69.6665 50.5278V53.5198L69.6225 54.5428H69.6445L72.0975 50.5278H73.7695V56.2258H72.2735V53.2778L72.3175 52.2108H72.2845L69.7655 56.2258H68.1705V50.5278H69.6665ZM70.9645 49.8458C70.7665 49.8458 70.5721 49.8201 70.3815 49.7688C70.1981 49.7175 70.0331 49.6368 69.8865 49.5268C69.7398 49.4095 69.6188 49.2591 69.5235 49.0758C69.4355 48.8851 69.3841 48.6578 69.3695 48.3938L70.3045 48.3058C70.3338 48.5625 70.3961 48.7458 70.4915 48.8558C70.5941 48.9658 70.7518 49.0208 70.9645 49.0208C71.1771 49.0208 71.3311 48.9658 71.4265 48.8558C71.5291 48.7458 71.5951 48.5625 71.6245 48.3058L72.5595 48.3938C72.5448 48.6578 72.4898 48.8851 72.3945 49.0758C72.3065 49.2591 72.1891 49.4095 72.0425 49.5268C71.8958 49.6368 71.7271 49.7175 71.5365 49.7688C71.3531 49.8201 71.1625 49.8458 70.9645 49.8458ZM15.2545 61.5278H17.4325L18.6975 64.6078L19.9625 61.5278H22.0745V67.2258H20.5785V63.0678H20.5565L19.4125 65.8178H17.9165L16.7725 63.0678H16.7505V67.2258H15.2545V61.5278ZM24.7365 64.8278C24.7438 65.0111 24.7841 65.1871 24.8575 65.3558C24.9308 65.5245 25.0371 65.6748 25.1765 65.8068C25.3158 65.9388 25.4881 66.0451 25.6935 66.1258C25.9061 66.1991 26.1518 66.2358 26.4305 66.2358C26.7605 66.2358 27.0721 66.2028 27.3655 66.1368C27.6588 66.0635 27.9411 65.9645 28.2125 65.8398V66.9618C27.9191 67.0718 27.6038 67.1598 27.2665 67.2258C26.9291 67.2845 26.5881 67.3138 26.2435 67.3138C25.8181 67.3138 25.4185 67.2551 25.0445 67.1378C24.6705 67.0205 24.3441 66.8408 24.0655 66.5988C23.7941 66.3568 23.5778 66.0525 23.4165 65.6858C23.2551 65.3191 23.1745 64.8828 23.1745 64.3768C23.1745 63.9148 23.2478 63.5041 23.3945 63.1448C23.5485 62.7781 23.7538 62.4701 24.0105 62.2208C24.2671 61.9641 24.5641 61.7698 24.9015 61.6378C25.2461 61.5058 25.6091 61.4398 25.9905 61.4398C26.4231 61.4398 26.7861 61.5058 27.0795 61.6378C27.3801 61.7625 27.6258 61.9238 27.8165 62.1218C28.0145 62.3198 28.1648 62.5398 28.2675 62.7818C28.3775 63.0165 28.4581 63.2475 28.5095 63.4748C28.5608 63.7021 28.5901 63.9075 28.5975 64.0908C28.6121 64.2741 28.6195 64.4061 28.6195 64.4868V64.8278H24.7365ZM27.0795 63.8048C27.0868 63.5628 27.0538 63.3575 26.9805 63.1888C26.9145 63.0201 26.8228 62.8845 26.7055 62.7818C26.5881 62.6718 26.4598 62.5948 26.3205 62.5508C26.1811 62.4995 26.0418 62.4738 25.9025 62.4738C25.7338 62.4738 25.5798 62.5105 25.4405 62.5838C25.3011 62.6498 25.1801 62.7415 25.0775 62.8588C24.9748 62.9761 24.8905 63.1191 24.8245 63.2878C24.7658 63.4491 24.7365 63.6215 24.7365 63.8048H27.0795ZM31.2202 61.5278V63.6838H33.6182V61.5278H35.1142V67.2258H33.6182V64.7838H31.2202V67.2258H29.7242V61.5278H31.2202ZM37.7775 64.8278C37.7848 65.0111 37.8251 65.1871 37.8985 65.3558C37.9718 65.5245 38.0781 65.6748 38.2175 65.8068C38.3568 65.9388 38.5291 66.0451 38.7345 66.1258C38.9471 66.1991 39.1928 66.2358 39.4715 66.2358C39.8015 66.2358 40.1131 66.2028 40.4065 66.1368C40.6998 66.0635 40.9821 65.9645 41.2535 65.8398V66.9618C40.9601 67.0718 40.6448 67.1598 40.3075 67.2258C39.9701 67.2845 39.6291 67.3138 39.2845 67.3138C38.8591 67.3138 38.4595 67.2551 38.0855 67.1378C37.7115 67.0205 37.3851 66.8408 37.1065 66.5988C36.8351 66.3568 36.6188 66.0525 36.4575 65.6858C36.2961 65.3191 36.2155 64.8828 36.2155 64.3768C36.2155 63.9148 36.2888 63.5041 36.4355 63.1448C36.5895 62.7781 36.7948 62.4701 37.0515 62.2208C37.3081 61.9641 37.6051 61.7698 37.9425 61.6378C38.2871 61.5058 38.6501 61.4398 39.0315 61.4398C39.4641 61.4398 39.8271 61.5058 40.1205 61.6378C40.4211 61.7625 40.6668 61.9238 40.8575 62.1218C41.0555 62.3198 41.2058 62.5398 41.3085 62.7818C41.4185 63.0165 41.4991 63.2475 41.5505 63.4748C41.6018 63.7021 41.6311 63.9075 41.6385 64.0908C41.6531 64.2741 41.6605 64.4061 41.6605 64.4868V64.8278H37.7775ZM40.1205 63.8048C40.1278 63.5628 40.0948 63.3575 40.0215 63.1888C39.9555 63.0201 39.8638 62.8845 39.7465 62.7818C39.6291 62.6718 39.5008 62.5948 39.3615 62.5508C39.2221 62.4995 39.0828 62.4738 38.9435 62.4738C38.7748 62.4738 38.6208 62.5105 38.4815 62.5838C38.3421 62.6498 38.2211 62.7415 38.1185 62.8588C38.0158 62.9761 37.9315 63.1191 37.8655 63.2878C37.8068 63.4491 37.7775 63.6215 37.7775 63.8048H40.1205ZM48.0232 61.5278V66.1258H48.9582V68.7108H47.5832V67.2258H43.5572V68.7108H42.1822V66.1258H42.8202C42.9889 65.9278 43.1209 65.7261 43.2162 65.5208C43.3189 65.3155 43.3922 65.0991 43.4362 64.8718C43.4875 64.6445 43.5205 64.4098 43.5352 64.1678C43.5499 63.9185 43.5572 63.6545 43.5572 63.3758V61.5278H48.0232ZM46.5272 66.1258V62.6278H44.8772V63.4748C44.8772 63.6948 44.8735 63.9185 44.8662 64.1458C44.8662 64.3731 44.8442 64.5968 44.8002 64.8168C44.7635 65.0368 44.7049 65.2568 44.6242 65.4768C44.5435 65.6968 44.4262 65.9131 44.2722 66.1258H46.5272ZM54.2893 61.5278V64.0688H54.3443L56.0493 61.5278H57.7543L55.7413 64.1348L57.9413 67.2258H56.0493L54.3443 64.4648H54.2893V67.2258H52.7933V64.4648H52.7383L51.0333 67.2258H49.1413L51.3413 64.1348L49.3283 61.5278H51.0333L52.7383 64.0688H52.7933V61.5278H54.2893ZM59.5519 64.8278C59.5592 65.0111 59.5996 65.1871 59.6729 65.3558C59.7462 65.5245 59.8526 65.6748 59.9919 65.8068C60.1312 65.9388 60.3036 66.0451 60.5089 66.1258C60.7216 66.1991 60.9672 66.2358 61.2459 66.2358C61.5759 66.2358 61.8876 66.2028 62.1809 66.1368C62.4742 66.0635 62.7566 65.9645 63.0279 65.8398V66.9618C62.7346 67.0718 62.4192 67.1598 62.0819 67.2258C61.7446 67.2845 61.4036 67.3138 61.0589 67.3138C60.6336 67.3138 60.2339 67.2551 59.8599 67.1378C59.4859 67.0205 59.1596 66.8408 58.8809 66.5988C58.6096 66.3568 58.3932 66.0525 58.2319 65.6858C58.0706 65.3191 57.9899 64.8828 57.9899 64.3768C57.9899 63.9148 58.0632 63.5041 58.2099 63.1448C58.3639 62.7781 58.5692 62.4701 58.8259 62.2208C59.0826 61.9641 59.3796 61.7698 59.7169 61.6378C60.0616 61.5058 60.4246 61.4398 60.8059 61.4398C61.2386 61.4398 61.6016 61.5058 61.8949 61.6378C62.1956 61.7625 62.4412 61.9238 62.6319 62.1218C62.8299 62.3198 62.9802 62.5398 63.0829 62.7818C63.1929 63.0165 63.2736 63.2475 63.3249 63.4748C63.3762 63.7021 63.4056 63.9075 63.4129 64.0908C63.4276 64.2741 63.4349 64.4061 63.4349 64.4868V64.8278H59.5519ZM61.8949 63.8048C61.9022 63.5628 61.8692 63.3575 61.7959 63.1888C61.7299 63.0201 61.6382 62.8845 61.5209 62.7818C61.4036 62.6718 61.2752 62.5948 61.1359 62.5508C60.9966 62.4995 60.8572 62.4738 60.7179 62.4738C60.5492 62.4738 60.3952 62.5105 60.2559 62.5838C60.1166 62.6498 59.9956 62.7415 59.8929 62.8588C59.7902 62.9761 59.7059 63.1191 59.6399 63.2878C59.5812 63.4491 59.5519 63.6215 59.5519 63.8048H61.8949ZM64.5396 69.5798V61.5278H65.8486V62.5178H65.8706C66.0173 62.2611 66.1823 62.0595 66.3656 61.9128C66.5563 61.7661 66.7433 61.6598 66.9266 61.5938C67.1099 61.5205 67.2749 61.4765 67.4216 61.4618C67.5683 61.4471 67.6709 61.4398 67.7296 61.4398C68.0523 61.4398 68.3566 61.4948 68.6426 61.6048C68.9359 61.7075 69.1926 61.8798 69.4126 62.1218C69.6326 62.3565 69.8049 62.6608 69.9296 63.0348C70.0616 63.4015 70.1276 63.8488 70.1276 64.3768C70.1276 64.9048 70.0579 65.3558 69.9186 65.7298C69.7793 66.0965 69.5923 66.3971 69.3576 66.6318C69.1303 66.8665 68.8663 67.0388 68.5656 67.1488C68.2723 67.2588 67.9716 67.3138 67.6636 67.3138C67.2456 67.3138 66.9046 67.2295 66.6406 67.0608C66.3839 66.8921 66.1786 66.6905 66.0246 66.4558H66.0026L66.0356 67.3908V69.5798H64.5396ZM66.0356 64.3768C66.0356 64.6775 66.0723 64.9378 66.1456 65.1578C66.2189 65.3778 66.3143 65.5611 66.4316 65.7078C66.5563 65.8471 66.6919 65.9535 66.8386 66.0268C66.9926 66.0928 67.1466 66.1258 67.3006 66.1258C67.4546 66.1258 67.6049 66.0928 67.7516 66.0268C67.9056 65.9535 68.0413 65.8471 68.1586 65.7078C68.2833 65.5611 68.3823 65.3778 68.4556 65.1578C68.5289 64.9378 68.5656 64.6775 68.5656 64.3768C68.5656 64.0761 68.5289 63.8158 68.4556 63.5958C68.3823 63.3758 68.2833 63.1961 68.1586 63.0568C68.0413 62.9101 67.9056 62.8038 67.7516 62.7378C67.6049 62.6645 67.4546 62.6278 67.3006 62.6278C67.1466 62.6278 66.9926 62.6645 66.8386 62.7378C66.6919 62.8038 66.5563 62.9101 66.4316 63.0568C66.3143 63.1961 66.2189 63.3758 66.1456 63.5958C66.0723 63.8158 66.0356 64.0761 66.0356 64.3768Z" fill="#0094FF"/>
<defs>
<filter id="filter0_f_474_15086" x="0.622594" y="0.93604" width="41.9806" height="40.6713" filterUnits="userSpaceOnUse" color-interpolation-filters="sRGB">
<feFlood flood-opacity="0" result="BackgroundImageFix"/>
<feBlend mode="normal" in="SourceGraphic" in2="BackgroundImageFix" result="shape"/>
<feGaussianBlur stdDeviation="3.1439" result="effect1_foregroundBlur_474_15086"/>
</filter>
<filter id="filter1_f_474_15086" x="4.81446" y="5.12791" width="33.5969" height="32.2876" filterUnits="userSpaceOnUse" color-interpolation-filters="sRGB">
<feFlood flood-opacity="0" result="BackgroundImageFix"/>
<feBlend mode="normal" in="SourceGraphic" in2="BackgroundImageFix" result="shape"/>
<feGaussianBlur stdDeviation="1.04797" result="effect1_foregroundBlur_474_15086"/>
</filter>
<filter id="filter2_ddi_474_15086" x="4.18568" y="6.59507" width="34.8545" height="33.5451" filterUnits="userSpaceOnUse" color-interpolation-filters="sRGB">
<feFlood flood-opacity="0" result="BackgroundImageFix"/>
<feColorMatrix in="SourceAlpha" type="matrix" values="0 0 0 0 0 0 0 0 0 0 0 0 0 0 0 0 0 0 127 0" result="hardAlpha"/>
<feOffset dy="2.28968"/>
<feGaussianBlur stdDeviation="0.880645"/>
<feColorMatrix type="matrix" values="0 0 0 0 0 0 0 0 0 0.051 0 0 0 0 0.082 0 0 0 0.7 0"/>
<feBlend mode="multiply" in2="BackgroundImageFix" result="effect1_dropShadow_474_15086"/>
<feColorMatrix in="SourceAlpha" type="matrix" values="0 0 0 0 0 0 0 0 0 0 0 0 0 0 0 0 0 0 127 0" result="hardAlpha"/>
<feOffset dy="2.09594"/>
<feGaussianBlur stdDeviation="1.36236"/>
<feColorMatrix type="matrix" values="0 0 0 0 0 0 0 0 0 0.4 0 0 0 0 1 0 0 0 1 0"/>
<feBlend mode="color-dodge" in2="effect1_dropShadow_474_15086" result="effect2_dropShadow_474_15086"/>
<feBlend mode="normal" in="SourceGraphic" in2="effect2_dropShadow_474_15086" result="shape"/>
<feColorMatrix in="SourceAlpha" type="matrix" values="0 0 0 0 0 0 0 0 0 0 0 0 0 0 0 0 0 0 127 0" result="hardAlpha"/>
<feOffset dx="-0.228968" dy="0.457936"/>
<feGaussianBlur stdDeviation="0.114484"/>
<feComposite in2="hardAlpha" operator="arithmetic" k2="-1" k3="1"/>
<feColorMatrix type="matrix" values="0 0 0 0 1 0 0 0 0 1 0 0 0 0 1 0 0 0 0.5 0"/>
<feBlend mode="normal" in2="shape" result="effect3_innerShadow_474_15086"/>
</filter>
<filter id="filter3_f_474_15086" x="6.55814" y="6.87159" width="30.1095" height="28.8002" filterUnits="userSpaceOnUse" color-interpolation-filters="sRGB">
<feFlood flood-opacity="0" result="BackgroundImageFix"/>
<feBlend mode="normal" in="SourceGraphic" in2="BackgroundImageFix" result="shape"/>
<feGaussianBlur stdDeviation="0.176129" result="effect1_foregroundBlur_474_15086"/>
</filter>
<filter id="filter4_f_474_15086" x="6.67556" y="6.98901" width="29.8747" height="28.5654" filterUnits="userSpaceOnUse" color-interpolation-filters="sRGB">
<feFlood flood-opacity="0" result="BackgroundImageFix"/>
<feBlend mode="normal" in="SourceGraphic" in2="BackgroundImageFix" result="shape"/>
<feGaussianBlur stdDeviation="0.117419" result="effect1_foregroundBlur_474_15086"/>
</filter>
<filter id="filter5_f_474_15086" x="41.8484" y="0.93604" width="41.9806" height="40.6713" filterUnits="userSpaceOnUse" color-interpolation-filters="sRGB">
<feFlood flood-opacity="0" result="BackgroundImageFix"/>
<feBlend mode="normal" in="SourceGraphic" in2="BackgroundImageFix" result="shape"/>
<feGaussianBlur stdDeviation="3.1439" result="effect1_foregroundBlur_474_15086"/>
</filter>
<filter id="filter6_f_474_15086" x="46.0403" y="5.12791" width="33.5969" height="32.2876" filterUnits="userSpaceOnUse" color-interpolation-filters="sRGB">
<feFlood flood-opacity="0" result="BackgroundImageFix"/>
<feBlend mode="normal" in="SourceGraphic" in2="BackgroundImageFix" result="shape"/>
<feGaussianBlur stdDeviation="1.04797" result="effect1_foregroundBlur_474_15086"/>
</filter>
<filter id="filter7_ddi_474_15086" x="45.4115" y="6.59507" width="34.8545" height="33.5451" filterUnits="userSpaceOnUse" color-interpolation-filters="sRGB">
<feFlood flood-opacity="0" result="BackgroundImageFix"/>
<feColorMatrix in="SourceAlpha" type="matrix" values="0 0 0 0 0 0 0 0 0 0 0 0 0 0 0 0 0 0 127 0" result="hardAlpha"/>
<feOffset dy="2.28968"/>
<feGaussianBlur stdDeviation="0.880645"/>
<feColorMatrix type="matrix" values="0 0 0 0 0 0 0 0 0 0.051 0 0 0 0 0.082 0 0 0 0.7 0"/>
<feBlend mode="multiply" in2="BackgroundImageFix" result="effect1_dropShadow_474_15086"/>
<feColorMatrix in="SourceAlpha" type="matrix" values="0 0 0 0 0 0 0 0 0 0 0 0 0 0 0 0 0 0 127 0" result="hardAlpha"/>
<feOffset dy="2.09594"/>
<feGaussianBlur stdDeviation="1.36236"/>
<feColorMatrix type="matrix" values="0 0 0 0 0 0 0 0 0 0.4 0 0 0 0 1 0 0 0 1 0"/>
<feBlend mode="color-dodge" in2="effect1_dropShadow_474_15086" result="effect2_dropShadow_474_15086"/>
<feBlend mode="normal" in="SourceGraphic" in2="effect2_dropShadow_474_15086" result="shape"/>
<feColorMatrix in="SourceAlpha" type="matrix" values="0 0 0 0 0 0 0 0 0 0 0 0 0 0 0 0 0 0 127 0" result="hardAlpha"/>
<feOffset dx="-0.228968" dy="0.457936"/>
<feGaussianBlur stdDeviation="0.114484"/>
<feComposite in2="hardAlpha" operator="arithmetic" k2="-1" k3="1"/>
<feColorMatrix type="matrix" values="0 0 0 0 1 0 0 0 0 1 0 0 0 0 1 0 0 0 0.5 0"/>
<feBlend mode="normal" in2="shape" result="effect3_innerShadow_474_15086"/>
</filter>
<filter id="filter8_f_474_15086" x="47.784" y="6.87159" width="30.1095" height="28.8002" filterUnits="userSpaceOnUse" color-interpolation-filters="sRGB">
<feFlood flood-opacity="0" result="BackgroundImageFix"/>
<feBlend mode="normal" in="SourceGraphic" in2="BackgroundImageFix" result="shape"/>
<feGaussianBlur stdDeviation="0.176129" result="effect1_foregroundBlur_474_15086"/>
</filter>
<filter id="filter9_f_474_15086" x="47.9014" y="6.98901" width="29.8747" height="28.5654" filterUnits="userSpaceOnUse" color-interpolation-filters="sRGB">
<feFlood flood-opacity="0" result="BackgroundImageFix"/>
<feBlend mode="normal" in="SourceGraphic" in2="BackgroundImageFix" result="shape"/>
<feGaussianBlur stdDeviation="0.117419" result="effect1_foregroundBlur_474_15086"/>
</filter>
</defs>
</svg>
