<svg viewBox="0 0 1038 630" fill="none" xmlns="http://www.w3.org/2000/svg">
<g opacity="0.5" filter="url(#filter0_f_611_3815)">
<g style="mix-blend-mode:hard-light" filter="url(#filter1_f_611_3815)">
<path d="M248.77 20.5959C249.74 14.6792 257.428 12.9659 260.819 17.9106L276.73 41.111C280.638 46.8086 287.461 49.7668 294.291 48.7237L322.1 44.4762C328.027 43.5709 332.033 50.3531 328.378 55.1062L311.23 77.4075C307.018 82.8843 306.314 90.2884 309.416 96.4613L322.049 121.597C324.742 126.954 319.529 132.859 313.879 130.852L287.371 121.435C280.86 119.122 273.601 120.74 268.689 125.598L248.687 145.38C244.424 149.596 237.197 146.464 237.36 140.47L238.125 112.348C238.313 105.442 234.531 99.038 228.393 95.8676L203.398 82.958C198.071 80.2065 198.817 72.3655 204.568 70.6684L231.549 62.7057C238.175 60.7502 243.098 55.1744 244.216 48.3568L248.77 20.5959Z" stroke="#0094FF" stroke-width="11.3469"/>
</g>
<g style="mix-blend-mode:hard-light" filter="url(#filter2_f_611_3815)">
<path d="M250.492 20.8785C251.208 16.5146 256.879 15.2509 259.38 18.8979L275.29 42.0983C279.577 48.3486 287.063 51.5937 294.555 50.4494L322.364 46.2018C326.736 45.5341 329.69 50.5364 326.994 54.0421L309.846 76.3434C305.226 82.3514 304.453 90.4736 307.856 97.2452L320.49 122.381C322.475 126.332 318.631 130.688 314.464 129.207L287.955 119.79C280.813 117.253 272.85 119.027 267.461 124.357L247.46 144.139C244.315 147.249 238.985 144.938 239.106 140.517L239.87 112.396C240.076 104.82 235.928 97.7945 229.194 94.3166L204.199 81.407C200.27 79.3776 200.82 73.5944 205.062 72.3427L232.043 64.38C239.312 62.2348 244.712 56.1182 245.939 48.6394L250.492 20.8785Z" stroke="#0094FF" stroke-width="14.8382"/>
</g>
<g style="mix-blend-mode:hard-light" filter="url(#filter3_ddi_611_3815)">
<path d="M248.77 20.5959C249.74 14.6792 257.428 12.9659 260.819 17.9106L276.73 41.111C280.638 46.8086 287.461 49.7668 294.291 48.7237L322.1 44.4762C328.027 43.5709 332.033 50.3531 328.378 55.1062L311.23 77.4075C307.018 82.8843 306.314 90.2884 309.416 96.4613L322.049 121.597C324.742 126.954 319.529 132.859 313.879 130.852L287.371 121.435C280.86 119.122 273.601 120.74 268.689 125.598L248.687 145.38C244.424 149.596 237.197 146.464 237.36 140.47L238.125 112.348C238.313 105.442 234.531 99.038 228.393 95.8676L203.398 82.958C198.071 80.2065 198.817 72.3655 204.568 70.6684L231.549 62.7057C238.175 60.7502 243.098 55.1744 244.216 48.3568L248.77 20.5959Z" stroke="#00B3FF" stroke-opacity="0.2" stroke-width="11.3469"/>
</g>
<g filter="url(#filter4_f_611_3815)">
<path d="M246.617 20.2426C247.906 12.385 258.115 10.1097 262.619 16.6765L278.53 39.8769C281.963 44.8837 287.96 47.4833 293.962 46.5666L321.771 42.3191C329.642 41.1168 334.961 50.124 330.108 56.4363L312.959 78.7376C309.259 83.5504 308.639 90.0568 311.366 95.4814L323.999 120.617C327.575 127.732 320.652 135.574 313.149 132.908L286.64 123.491C280.919 121.458 274.54 122.88 270.223 127.149L250.222 146.932C244.56 152.531 234.963 148.37 235.179 140.411L235.944 112.289C236.109 106.22 232.786 100.592 227.392 97.8064L202.397 84.8967C195.322 81.2427 196.313 70.8293 203.95 68.5755L230.932 60.6129C236.754 58.8945 241.08 53.9946 242.063 48.0036L246.617 20.2426Z" stroke="#82D9FF" stroke-width="6.98268"/>
</g>
<g filter="url(#filter5_f_611_3815)">
<path d="M244.894 19.9601C246.438 10.5496 258.665 7.82468 264.059 15.6892L279.969 38.8896C283.024 43.3438 288.359 45.6565 293.698 44.841L321.507 40.5934C330.934 39.1536 337.304 49.9407 331.491 57.5004L314.343 79.8017C311.051 84.0833 310.5 89.8716 312.926 94.6975L325.559 119.833C329.841 128.354 321.551 137.746 312.565 134.553L286.056 125.136C280.966 123.328 275.291 124.592 271.451 128.39L251.449 148.173C244.669 154.879 233.175 149.896 233.434 140.363L234.199 112.242C234.346 106.843 231.389 101.836 226.59 99.3574L201.596 86.4478C193.123 82.0716 194.31 69.6004 203.456 66.9012L230.437 58.9386C235.618 57.4098 239.466 53.0508 240.34 47.721L244.894 19.9601Z" stroke="white" stroke-width="3.49134"/>
</g>
</g>
<g opacity="0.5" filter="url(#filter6_f_611_3815)">
<g style="mix-blend-mode:hard-light" filter="url(#filter7_f_611_3815)">
<path d="M542.706 -37.5452C545.671 -42.7564 553.475 -41.6927 554.938 -35.878L561.799 -8.59564C563.485 -1.89554 568.856 3.24869 575.623 4.64269L603.176 10.319C609.049 11.5288 610.449 19.2799 605.37 22.4675L581.544 37.424C575.692 41.0971 572.46 47.7954 573.225 54.6617L576.341 82.6205C577.005 88.5794 570.066 92.3061 565.465 88.4615L543.878 70.4228C538.576 65.9928 531.207 64.9883 524.913 67.8379L499.285 79.4412C493.823 81.9142 488.135 76.4663 490.37 70.9025L500.855 44.7975C503.429 38.3865 502.107 31.0674 497.452 25.9623L478.498 5.17466C474.458 0.744175 477.881 -6.34949 483.863 -5.9435L511.931 -4.0386C518.824 -3.57079 525.376 -7.08979 528.793 -13.0945L542.706 -37.5452Z" stroke="#0094FF" stroke-width="11.3469"/>
</g>
<g style="mix-blend-mode:hard-light" filter="url(#filter8_f_611_3815)">
<path d="M544.223 -36.6819C546.41 -40.5254 552.166 -39.7409 553.245 -35.4522L560.106 -8.16986C561.955 -0.819909 567.848 4.82326 575.27 6.35246L602.824 12.0287C607.155 12.921 608.188 18.6379 604.442 20.989L580.616 35.9455C574.197 39.9748 570.65 47.3228 571.49 54.855L574.606 82.8139C575.096 87.2089 569.978 89.9576 566.584 87.122L544.997 69.0833C539.181 64.2236 531.097 63.1217 524.193 66.2477L498.565 77.8509C494.537 79.6749 490.341 75.6568 491.989 71.5531L502.474 45.4481C505.299 38.4153 503.849 30.3864 498.742 24.7861L479.788 3.99846C476.808 0.730719 479.333 -4.50128 483.745 -4.20183L511.813 -2.29694C519.374 -1.78375 526.562 -5.64405 530.31 -12.2311L544.223 -36.6819Z" stroke="#0094FF" stroke-width="14.8382"/>
</g>
<g style="mix-blend-mode:hard-light" filter="url(#filter9_ddi_611_3815)">
<path d="M542.706 -37.5452C545.671 -42.7564 553.475 -41.6927 554.938 -35.878L561.799 -8.59564C563.485 -1.89554 568.856 3.24869 575.623 4.64269L603.176 10.319C609.049 11.5288 610.449 19.2799 605.37 22.4675L581.544 37.424C575.692 41.0971 572.46 47.7954 573.225 54.6617L576.341 82.6205C577.005 88.5794 570.066 92.3061 565.465 88.4615L543.878 70.4228C538.576 65.9928 531.207 64.9883 524.913 67.8379L499.285 79.4412C493.823 81.9142 488.135 76.4663 490.37 70.9025L500.855 44.7975C503.429 38.3865 502.107 31.0674 497.452 25.9623L478.498 5.17466C474.458 0.744175 477.881 -6.34949 483.863 -5.9435L511.931 -4.0386C518.824 -3.57079 525.376 -7.08979 528.793 -13.0945L542.706 -37.5452Z" stroke="#00B3FF" stroke-opacity="0.2" stroke-width="11.3469"/>
</g>
<g filter="url(#filter10_f_611_3815)">
<path d="M540.809 -38.6244C544.747 -45.5451 555.112 -44.1324 557.054 -36.4102L563.916 -9.12787C565.396 -3.24007 570.117 1.28049 576.063 2.50549L603.616 8.18176C611.415 9.78843 613.275 20.0823 606.53 24.3157L582.704 39.2722C577.562 42.4999 574.721 48.3862 575.394 54.42L578.51 82.3788C579.392 90.2925 570.176 95.2418 564.066 90.136L542.478 72.0973C537.82 68.2043 531.344 67.3217 525.813 69.8257L500.186 81.429C492.932 84.7133 485.377 77.4782 488.345 70.0892L498.83 43.9842C501.092 38.3505 499.931 31.9187 495.84 27.4326L476.885 6.6449C471.52 0.760993 476.067 -8.65975 484.011 -8.12058L512.079 -6.21569C518.136 -5.80458 523.894 -8.89695 526.896 -14.1737L540.809 -38.6244Z" stroke="#82D9FF" stroke-width="6.98268"/>
</g>
<g filter="url(#filter11_f_611_3815)">
<path d="M539.292 -39.4877C544.008 -47.7761 556.421 -46.0842 558.747 -36.836L565.609 -9.55365C566.926 -4.31569 571.125 -0.294073 576.415 0.795725L603.969 6.472C613.309 8.39616 615.535 20.7242 607.459 25.7942L583.632 40.7507C579.057 43.6222 576.53 48.8588 577.128 54.2266L580.244 82.1855C581.301 91.663 570.264 97.5903 562.946 91.4755L541.359 73.4368C537.215 69.9735 531.453 69.1883 526.533 71.416L500.906 83.0193C492.218 86.9525 483.171 78.2878 486.725 69.4386L497.21 43.3336C499.223 38.3217 498.189 32.5998 494.55 28.6087L475.595 7.82109C469.17 0.774442 474.615 -10.508 484.129 -9.86224L512.197 -7.95735C517.585 -7.59162 522.708 -10.3427 525.379 -15.037L539.292 -39.4877Z" stroke="white" stroke-width="3.49134"/>
</g>
</g>
<g opacity="0.5" filter="url(#filter12_f_611_3815)">
<g style="mix-blend-mode:hard-light" filter="url(#filter13_f_611_3815)">
<path d="M764.256 64.1227C761.775 58.6646 767.214 52.9675 772.781 55.1935L798.902 65.6379C805.317 68.2029 812.634 66.8695 817.732 62.2066L838.49 43.2197C842.915 39.173 850.014 42.5853 849.617 48.5679L847.756 76.6383C847.298 83.5319 850.828 90.0788 856.838 93.4862L881.31 107.361C886.526 110.318 885.474 118.124 879.662 119.596L852.39 126.5C845.693 128.195 840.557 133.575 839.173 140.344L833.54 167.906C832.339 173.78 824.59 175.192 821.395 170.119L806.401 146.315C802.719 140.47 796.016 137.248 789.151 138.024L761.197 141.183C755.239 141.856 751.501 134.923 755.339 130.316L773.344 108.701C777.766 103.392 778.759 96.0215 775.899 89.7322L764.256 64.1227Z" stroke="#0094FF" stroke-width="11.3469"/>
</g>
<g style="mix-blend-mode:hard-light" filter="url(#filter14_f_611_3815)">
<path d="M765.845 63.4002C764.015 59.3745 768.027 55.1726 772.133 56.8144L798.254 67.2588C805.291 70.0726 813.318 68.6099 818.91 63.4948L839.669 44.5078C842.932 41.5231 848.168 44.0399 847.875 48.4524L846.014 76.5228C845.512 84.085 849.384 91.2669 855.977 95.0048L880.449 108.88C884.296 111.061 883.52 116.818 879.233 117.903L851.962 124.807C844.615 126.667 838.981 132.569 837.463 139.994L831.829 167.556C830.944 171.889 825.229 172.93 822.872 169.189L807.878 145.385C803.839 138.972 796.485 135.438 788.955 136.289L761.001 139.448C756.606 139.945 753.85 134.831 756.68 131.433L774.685 109.818C779.536 103.995 780.625 95.909 777.488 89.0097L765.845 63.4002Z" stroke="#0094FF" stroke-width="14.8382"/>
</g>
<g style="mix-blend-mode:hard-light" filter="url(#filter15_ddi_611_3815)">
<path d="M764.256 64.1227C761.775 58.6646 767.214 52.9675 772.781 55.1935L798.902 65.6379C805.317 68.2029 812.634 66.8695 817.732 62.2066L838.49 43.2197C842.915 39.173 850.014 42.5853 849.617 48.5679L847.756 76.6383C847.298 83.5319 850.828 90.0788 856.838 93.4862L881.31 107.361C886.526 110.318 885.474 118.124 879.662 119.596L852.39 126.5C845.693 128.195 840.557 133.575 839.173 140.344L833.54 167.906C832.339 173.78 824.59 175.192 821.395 170.119L806.401 146.315C802.719 140.47 796.016 137.248 789.151 138.024L761.197 141.183C755.239 141.856 751.501 134.923 755.339 130.316L773.344 108.701C777.766 103.392 778.759 96.0215 775.899 89.7322L764.256 64.1227Z" stroke="#00B3FF" stroke-opacity="0.2" stroke-width="11.3469"/>
</g>
<g filter="url(#filter16_f_611_3815)">
<path d="M762.27 65.0258C758.974 57.7771 766.198 50.2111 773.591 53.1674L799.712 63.6118C805.35 65.8658 811.78 64.6941 816.259 60.5965L837.018 41.6096C842.893 36.2353 852.321 40.7671 851.794 48.7123L849.933 76.7826C849.531 82.8405 852.632 88.5937 857.914 91.588L882.386 105.463C889.313 109.39 887.916 119.757 880.197 121.711L852.926 128.615C847.04 130.105 842.527 134.832 841.311 140.781L835.678 168.343C834.083 176.144 823.792 178.019 819.548 171.282L804.555 147.478C801.319 142.341 795.428 139.51 789.396 140.192L761.442 143.351C753.529 144.246 748.566 135.038 753.662 128.92L771.667 107.304C775.553 102.639 776.426 96.1621 773.913 90.6353L762.27 65.0258Z" stroke="#82D9FF" stroke-width="6.98268"/>
</g>
<g filter="url(#filter17_f_611_3815)">
<path d="M760.681 65.7483C756.734 57.0671 765.385 48.006 774.239 51.5465L800.361 61.9909C805.376 63.9961 811.096 62.9537 815.081 59.3084L835.839 40.3214C842.876 33.8852 854.167 39.3125 853.536 48.8278L851.675 76.8981C851.317 82.2874 854.076 87.4056 858.775 90.0694L883.247 103.944C891.543 108.648 889.87 121.063 880.626 123.403L853.354 130.307C848.118 131.633 844.103 135.838 843.021 141.13L837.388 168.692C835.478 178.035 823.154 180.281 818.071 172.212L803.078 148.409C800.199 143.839 794.959 141.32 789.592 141.926L761.638 145.086C752.162 146.157 746.217 135.129 752.321 127.802L770.326 106.187C773.783 102.037 774.559 96.2746 772.324 91.3578L760.681 65.7483Z" stroke="white" stroke-width="3.49134"/>
</g>
</g>
<g opacity="0.5" filter="url(#filter18_f_611_3815)">
<g style="mix-blend-mode:hard-light" filter="url(#filter19_f_611_3815)">
<path d="M990.579 -7.55453C988.098 -13.0127 993.537 -18.7098 999.104 -16.4837L1025.23 -6.03934C1031.64 -3.47436 1038.96 -4.80771 1044.06 -9.4706L1064.81 -28.4576C1069.24 -32.5043 1076.34 -29.0919 1075.94 -23.1093L1074.08 4.96101C1073.62 11.8546 1077.15 18.4015 1083.16 21.809L1107.63 35.6839C1112.85 38.641 1111.8 46.447 1105.98 47.9185L1078.71 54.8225C1072.02 56.518 1066.88 61.8976 1065.5 68.6664L1059.86 96.2285C1058.66 102.103 1050.91 103.515 1047.72 98.4416L1032.72 74.6383C1029.04 68.7925 1022.34 65.5704 1015.47 66.3463L987.52 69.5057C981.562 70.1791 977.825 63.2458 981.662 58.6389L999.667 37.0236C1004.09 31.7152 1005.08 24.3442 1002.22 18.055L990.579 -7.55453Z" stroke="#0094FF" stroke-width="11.3469"/>
</g>
<g style="mix-blend-mode:hard-light" filter="url(#filter20_f_611_3815)">
<path d="M992.169 -8.27701C990.338 -12.3027 994.35 -16.5047 998.456 -14.8628L1024.58 -4.41844C1031.61 -1.60468 1039.64 -3.06735 1045.23 -8.18249L1065.99 -27.1695C1069.25 -30.1542 1074.49 -27.6373 1074.2 -23.2248L1072.34 4.84552C1071.84 12.4077 1075.71 19.5896 1082.3 23.3276L1106.77 37.2025C1110.62 39.3835 1109.84 45.1409 1105.56 46.2262L1078.28 53.1302C1070.94 54.9902 1065.3 60.8915 1063.79 68.3168L1058.15 95.8789C1057.27 100.212 1051.55 101.253 1049.19 97.5113L1034.2 73.7079C1030.16 67.2952 1022.81 63.7605 1015.28 64.6117L987.324 67.7711C982.93 68.2677 980.173 63.154 983.003 59.7562L1001.01 38.1408C1005.86 32.3176 1006.95 24.2318 1003.81 17.3325L992.169 -8.27701Z" stroke="#0094FF" stroke-width="14.8382"/>
</g>
<g style="mix-blend-mode:hard-light" filter="url(#filter21_ddi_611_3815)">
<path d="M990.579 -7.55453C988.098 -13.0127 993.537 -18.7098 999.104 -16.4837L1025.23 -6.03934C1031.64 -3.47436 1038.96 -4.80771 1044.06 -9.4706L1064.81 -28.4576C1069.24 -32.5043 1076.34 -29.0919 1075.94 -23.1093L1074.08 4.96101C1073.62 11.8546 1077.15 18.4015 1083.16 21.809L1107.63 35.6839C1112.85 38.641 1111.8 46.447 1105.98 47.9185L1078.71 54.8225C1072.02 56.518 1066.88 61.8976 1065.5 68.6664L1059.86 96.2285C1058.66 102.103 1050.91 103.515 1047.72 98.4416L1032.72 74.6383C1029.04 68.7925 1022.34 65.5704 1015.47 66.3463L987.52 69.5057C981.562 70.1791 977.825 63.2458 981.662 58.6389L999.667 37.0236C1004.09 31.7152 1005.08 24.3442 1002.22 18.055L990.579 -7.55453Z" stroke="#00B3FF" stroke-opacity="0.2" stroke-width="11.3469"/>
</g>
<g filter="url(#filter22_f_611_3815)">
<path d="M988.593 -6.65142C985.298 -13.9001 992.521 -21.4661 999.914 -18.5099L1026.04 -8.06546C1031.67 -5.81146 1038.1 -6.98315 1042.58 -11.0807L1063.34 -30.0677C1069.22 -35.4419 1078.64 -30.9102 1078.12 -22.9649L1076.26 5.10539C1075.85 11.1632 1078.96 16.9164 1084.24 19.9107L1108.71 33.7856C1115.64 37.7129 1114.24 48.0797 1106.52 50.0339L1079.25 56.9379C1073.36 58.4278 1068.85 63.1552 1067.63 69.1033L1062 96.6655C1060.41 104.467 1050.12 106.342 1045.87 99.6046L1030.88 75.8012C1027.64 70.6642 1021.75 67.8327 1015.72 68.5146L987.765 71.674C979.853 72.5683 974.889 63.3605 979.985 57.2423L997.99 35.627C1001.88 30.9622 1002.75 24.4849 1000.24 18.9581L988.593 -6.65142Z" stroke="#82D9FF" stroke-width="6.98268"/>
</g>
<g filter="url(#filter23_f_611_3815)">
<path d="M987.004 -5.92893C983.057 -14.6101 991.708 -23.6712 1000.56 -20.1308L1026.68 -9.68637C1031.7 -7.68114 1037.42 -8.72351 1041.4 -12.3688L1062.16 -31.3558C1069.2 -37.7921 1080.49 -32.3648 1079.86 -22.8494L1078 5.22088C1077.64 10.6101 1080.4 15.7283 1085.1 18.3922L1109.57 32.2671C1117.87 36.9704 1116.19 49.3858 1106.95 51.7261L1079.68 58.6302C1074.44 59.9557 1070.43 64.1612 1069.34 69.4529L1063.71 97.015C1061.8 106.358 1049.48 108.604 1044.39 100.535L1029.4 76.7316C1026.52 72.1616 1021.28 69.6426 1015.91 70.2492L987.961 73.4086C978.485 74.4796 972.541 63.4522 978.644 56.125L996.649 34.5097C1000.11 30.3598 1000.88 24.5974 998.647 19.6806L987.004 -5.92893Z" stroke="white" stroke-width="3.49134"/>
</g>
</g>
<g opacity="0.5" filter="url(#filter24_f_611_3815)">
<g style="mix-blend-mode:hard-light" filter="url(#filter25_f_611_3815)">
<path d="M213.77 553.596C214.74 547.679 222.428 545.966 225.819 550.911L241.73 574.111C245.638 579.809 252.461 582.767 259.291 581.724L287.1 577.476C293.027 576.571 297.033 583.353 293.378 588.106L276.23 610.407C272.018 615.884 271.314 623.288 274.416 629.461L287.049 654.597C289.742 659.954 284.529 665.859 278.879 663.852L252.371 654.435C245.86 652.122 238.601 653.74 233.689 658.598L213.687 678.38C209.424 682.596 202.197 679.464 202.36 673.47L203.125 645.348C203.313 638.442 199.531 632.038 193.393 628.868L168.398 615.958C163.071 613.207 163.817 605.365 169.568 603.668L196.549 595.706C203.175 593.75 208.098 588.174 209.216 581.357L213.77 553.596Z" stroke="#0094FF" stroke-width="11.3469"/>
</g>
<g style="mix-blend-mode:hard-light" filter="url(#filter26_f_611_3815)">
<path d="M215.492 553.878C216.208 549.515 221.879 548.251 224.38 551.898L240.29 575.098C244.577 581.349 252.063 584.594 259.555 583.449L287.364 579.202C291.736 578.534 294.69 583.536 291.994 587.042L274.846 609.343C270.226 615.351 269.453 623.474 272.856 630.245L285.49 655.381C287.475 659.332 283.631 663.688 279.464 662.207L252.955 652.79C245.813 650.253 237.85 652.027 232.461 657.357L212.46 677.139C209.315 680.249 203.985 677.938 204.106 673.517L204.87 645.396C205.076 637.82 200.928 630.795 194.194 627.317L169.199 614.407C165.27 612.378 165.82 606.594 170.062 605.343L197.043 597.38C204.312 595.235 209.712 589.118 210.939 581.639L215.492 553.878Z" stroke="#0094FF" stroke-width="14.8382"/>
</g>
<g style="mix-blend-mode:hard-light" filter="url(#filter27_ddi_611_3815)">
<path d="M213.77 553.596C214.74 547.679 222.428 545.966 225.819 550.911L241.73 574.111C245.638 579.809 252.461 582.767 259.291 581.724L287.1 577.476C293.027 576.571 297.033 583.353 293.378 588.106L276.23 610.407C272.018 615.884 271.314 623.288 274.416 629.461L287.049 654.597C289.742 659.954 284.529 665.859 278.879 663.852L252.371 654.435C245.86 652.122 238.601 653.74 233.689 658.598L213.687 678.38C209.424 682.596 202.197 679.464 202.36 673.47L203.125 645.348C203.313 638.442 199.531 632.038 193.393 628.868L168.398 615.958C163.071 613.207 163.817 605.365 169.568 603.668L196.549 595.706C203.175 593.75 208.098 588.174 209.216 581.357L213.77 553.596Z" stroke="#00B3FF" stroke-opacity="0.2" stroke-width="11.3469"/>
</g>
<g filter="url(#filter28_f_611_3815)">
<path d="M211.617 553.243C212.906 545.385 223.115 543.11 227.619 549.677L243.53 572.877C246.963 577.884 252.96 580.483 258.962 579.567L286.771 575.319C294.642 574.117 299.961 583.124 295.108 589.436L277.959 611.738C274.259 616.55 273.639 623.057 276.366 628.481L288.999 653.617C292.575 660.732 285.652 668.574 278.149 665.908L251.64 656.491C245.919 654.458 239.54 655.88 235.223 660.149L215.222 679.932C209.56 685.531 199.963 681.37 200.179 673.411L200.944 645.289C201.109 639.22 197.786 633.592 192.392 630.806L167.397 617.897C160.322 614.243 161.313 603.829 168.95 601.576L195.932 593.613C201.754 591.894 206.08 586.995 207.063 581.004L211.617 553.243Z" stroke="#82D9FF" stroke-width="6.98268"/>
</g>
<g filter="url(#filter29_f_611_3815)">
<path d="M209.894 552.96C211.438 543.55 223.665 540.825 229.059 548.689L244.969 571.89C248.024 576.344 253.359 578.656 258.698 577.841L286.507 573.593C295.934 572.154 302.304 582.941 296.491 590.5L279.343 612.802C276.051 617.083 275.5 622.872 277.926 627.697L290.559 652.833C294.841 661.354 286.551 670.746 277.565 667.553L251.056 658.136C245.966 656.328 240.291 657.592 236.451 661.39L216.449 681.173C209.669 687.879 198.175 682.896 198.434 673.363L199.199 645.242C199.346 639.843 196.389 634.836 191.59 632.357L166.596 619.448C158.123 615.072 159.31 602.6 168.456 599.901L195.437 591.939C200.618 590.41 204.466 586.051 205.34 580.721L209.894 552.96Z" stroke="white" stroke-width="3.49134"/>
</g>
</g>
<g opacity="0.5" filter="url(#filter30_f_611_3815)">
<g style="mix-blend-mode:hard-light" filter="url(#filter31_f_611_3815)">
<path d="M531.463 495.211C534.428 490 542.232 491.064 543.695 496.878L550.556 524.161C552.241 530.861 557.613 536.005 564.38 537.399L591.933 543.075C597.805 544.285 599.205 552.036 594.127 555.224L570.3 570.18C564.449 573.853 561.216 580.552 561.982 587.418L565.098 615.377C565.762 621.336 558.823 625.062 554.222 621.218L532.634 603.179C527.333 598.749 519.964 597.745 513.67 600.594L488.042 612.198C482.58 614.671 476.892 609.223 479.126 603.659L489.611 577.554C492.186 571.143 490.864 563.824 486.209 558.719L467.255 537.931C463.215 533.501 466.638 526.407 472.62 526.813L500.688 528.718C507.58 529.186 514.133 525.667 517.55 519.662L531.463 495.211Z" stroke="#0094FF" stroke-width="11.3469"/>
</g>
<g style="mix-blend-mode:hard-light" filter="url(#filter32_f_611_3815)">
<path d="M532.98 496.074C535.167 492.231 540.923 493.015 542.002 497.304L548.863 524.586C550.712 531.936 556.604 537.58 564.027 539.109L591.581 544.785C595.912 545.677 596.945 551.394 593.199 553.745L569.372 568.702C562.953 572.731 559.407 580.079 560.247 587.611L563.363 615.57C563.853 619.965 558.735 622.714 555.341 619.878L533.754 601.84C527.938 596.98 519.854 595.878 512.95 599.004L487.322 610.607C483.294 612.431 479.098 608.413 480.746 604.309L491.231 578.204C494.056 571.172 492.606 563.143 487.499 557.542L468.545 536.755C465.565 533.487 468.09 528.255 472.502 528.555L500.569 530.459C508.131 530.973 515.319 527.112 519.067 520.525L532.98 496.074Z" stroke="#0094FF" stroke-width="14.8382"/>
</g>
<g style="mix-blend-mode:hard-light" filter="url(#filter33_ddi_611_3815)">
<path d="M531.463 495.211C534.428 490 542.232 491.064 543.695 496.878L550.556 524.161C552.241 530.861 557.613 536.005 564.38 537.399L591.933 543.075C597.805 544.285 599.205 552.036 594.127 555.224L570.3 570.18C564.449 573.853 561.216 580.552 561.982 587.418L565.098 615.377C565.762 621.336 558.823 625.062 554.222 621.218L532.634 603.179C527.333 598.749 519.964 597.745 513.67 600.594L488.042 612.198C482.58 614.671 476.892 609.223 479.126 603.659L489.611 577.554C492.186 571.143 490.864 563.824 486.209 558.719L467.255 537.931C463.215 533.501 466.638 526.407 472.62 526.813L500.688 528.718C507.58 529.186 514.133 525.667 517.55 519.662L531.463 495.211Z" stroke="#00B3FF" stroke-opacity="0.2" stroke-width="11.3469"/>
</g>
<g filter="url(#filter34_f_611_3815)">
<path d="M529.566 494.132C533.504 487.211 543.869 488.624 545.811 496.346L552.672 523.628C554.153 529.516 558.874 534.037 564.82 535.262L592.373 540.938C600.172 542.545 602.031 552.839 595.287 557.072L571.461 572.029C566.319 575.256 563.478 581.143 564.15 587.176L567.266 615.135C568.148 623.049 558.933 627.998 552.823 622.892L531.235 604.854C526.577 600.961 520.101 600.078 514.57 602.582L488.942 614.185C481.689 617.47 474.134 610.235 477.102 602.846L487.586 576.741C489.849 571.107 488.688 564.675 484.597 560.189L465.642 539.401C460.277 533.517 464.824 524.097 472.768 524.636L500.835 526.541C506.893 526.952 512.651 523.859 515.653 518.583L529.566 494.132Z" stroke="#82D9FF" stroke-width="6.98268"/>
</g>
<g filter="url(#filter35_f_611_3815)">
<path d="M528.049 493.269C532.765 484.98 545.178 486.672 547.504 495.92L554.365 523.203C555.683 528.441 559.882 532.462 565.172 533.552L592.725 539.228C602.066 541.153 604.292 553.481 596.215 558.551L572.389 573.507C567.814 576.379 565.287 581.615 565.885 586.983L569.001 614.942C570.058 624.419 559.021 630.347 551.703 624.232L530.116 606.193C525.971 602.73 520.21 601.945 515.29 604.172L489.662 615.776C480.975 619.709 471.927 611.044 475.482 602.195L485.967 576.09C487.98 571.078 486.946 565.356 483.307 561.365L464.352 540.577C457.927 533.531 463.372 522.248 472.886 522.894L500.954 524.799C506.342 525.165 511.465 522.414 514.136 517.719L528.049 493.269Z" stroke="white" stroke-width="3.49134"/>
</g>
</g>
<g opacity="0.5" filter="url(#filter36_f_611_3815)">
<g style="mix-blend-mode:hard-light" filter="url(#filter37_f_611_3815)">
<path d="M749.579 559.445C747.098 553.987 752.537 548.29 758.104 550.516L784.226 560.96C790.641 563.525 797.958 562.192 803.055 557.529L823.814 538.542C828.238 534.495 835.337 537.908 834.94 543.89L833.079 571.961C832.622 578.854 836.151 585.401 842.161 588.808L866.633 602.683C871.849 605.641 870.797 613.447 864.985 614.918L837.713 621.822C831.016 623.518 825.88 628.897 824.496 635.666L818.863 663.228C817.662 669.102 809.913 670.514 806.718 665.441L791.724 641.638C788.042 635.792 781.339 632.57 774.474 633.346L746.52 636.505C740.562 637.179 736.825 630.245 740.662 625.638L758.667 604.023C763.089 598.715 764.082 591.344 761.223 585.054L749.579 559.445Z" stroke="#0094FF" stroke-width="11.3469"/>
</g>
<g style="mix-blend-mode:hard-light" filter="url(#filter38_f_611_3815)">
<path d="M751.169 558.723C749.338 554.697 753.35 550.495 757.456 552.137L783.577 562.581C790.615 565.395 798.641 563.932 804.234 558.817L824.992 539.83C828.255 536.845 833.491 539.362 833.198 543.775L831.337 571.845C830.835 579.407 834.707 586.589 841.3 590.327L865.772 604.202C869.619 606.383 868.844 612.14 864.557 613.226L837.285 620.13C829.938 621.99 824.304 627.891 822.786 635.316L817.153 662.878C816.267 667.211 810.552 668.253 808.195 664.511L793.201 640.707C789.162 634.295 781.809 630.76 774.278 631.611L746.324 634.771C741.93 635.267 739.173 630.154 742.003 626.756L760.008 605.14C764.859 599.317 765.948 591.231 762.812 584.332L751.169 558.723Z" stroke="#0094FF" stroke-width="14.8382"/>
</g>
<g style="mix-blend-mode:hard-light" filter="url(#filter39_ddi_611_3815)">
<path d="M749.579 559.445C747.098 553.987 752.537 548.29 758.104 550.516L784.226 560.96C790.641 563.525 797.958 562.192 803.055 557.529L823.814 538.542C828.238 534.495 835.337 537.908 834.94 543.89L833.079 571.961C832.622 578.854 836.151 585.401 842.161 588.808L866.633 602.683C871.849 605.641 870.797 613.447 864.985 614.918L837.713 621.822C831.016 623.518 825.88 628.897 824.496 635.666L818.863 663.228C817.662 669.102 809.913 670.514 806.718 665.441L791.724 641.638C788.042 635.792 781.339 632.57 774.474 633.346L746.52 636.505C740.562 637.179 736.825 630.245 740.662 625.638L758.667 604.023C763.089 598.715 764.082 591.344 761.223 585.054L749.579 559.445Z" stroke="#00B3FF" stroke-opacity="0.2" stroke-width="11.3469"/>
</g>
<g filter="url(#filter40_f_611_3815)">
<path d="M747.593 560.348C744.298 553.099 751.521 545.533 758.914 548.49L785.036 558.934C790.673 561.188 797.103 560.016 801.583 555.919L822.341 536.932C828.216 531.558 837.644 536.089 837.117 544.035L835.256 572.105C834.854 578.163 837.956 583.916 843.237 586.91L867.709 600.785C874.636 604.712 873.24 615.079 865.52 617.033L838.249 623.937C832.363 625.427 827.85 630.155 826.634 636.103L821.001 663.665C819.406 671.466 809.115 673.342 804.872 666.604L789.878 642.801C786.642 637.664 780.752 634.832 774.719 635.514L746.765 638.674C738.853 639.568 733.889 630.36 738.985 624.242L756.99 602.626C760.876 597.962 761.749 591.484 759.236 585.958L747.593 560.348Z" stroke="#82D9FF" stroke-width="6.98268"/>
</g>
<g filter="url(#filter41_f_611_3815)">
<path d="M746.004 561.071C742.057 552.389 750.708 543.328 759.563 546.869L785.684 557.313C790.699 559.318 796.419 558.276 800.404 554.631L821.163 535.644C828.199 529.207 839.49 534.635 838.859 544.15L836.998 572.22C836.641 577.61 839.4 582.728 844.098 585.392L868.57 599.267C876.866 603.97 875.193 616.385 865.949 618.726L838.677 625.63C833.441 626.955 829.426 631.161 828.345 636.452L822.711 664.015C820.802 673.358 808.477 675.603 803.394 667.535L788.401 643.731C785.522 639.161 780.282 636.642 774.915 637.249L746.961 640.408C737.485 641.479 731.541 630.452 737.644 623.125L755.649 601.509C759.106 597.359 759.882 591.597 757.647 586.68L746.004 561.071Z" stroke="white" stroke-width="3.49134"/>
</g>
</g>
<g opacity="0.5" filter="url(#filter42_f_611_3815)">
<g style="mix-blend-mode:hard-light" filter="url(#filter43_f_611_3815)">
<path d="M981.579 429.445C979.098 423.987 984.537 418.29 990.104 420.516L1016.23 430.96C1022.64 433.525 1029.96 432.192 1035.06 427.529L1055.81 408.542C1060.24 404.495 1067.34 407.908 1066.94 413.89L1065.08 441.961C1064.62 448.854 1068.15 455.401 1074.16 458.808L1098.63 472.683C1103.85 475.641 1102.8 483.447 1096.98 484.918L1069.71 491.822C1063.02 493.518 1057.88 498.897 1056.5 505.666L1050.86 533.228C1049.66 539.102 1041.91 540.514 1038.72 535.441L1023.72 511.638C1020.04 505.792 1013.34 502.57 1006.47 503.346L978.52 506.505C972.562 507.179 968.825 500.245 972.662 495.638L990.667 474.023C995.089 468.715 996.082 461.344 993.223 455.054L981.579 429.445Z" stroke="#0094FF" stroke-width="11.3469"/>
</g>
<g style="mix-blend-mode:hard-light" filter="url(#filter44_f_611_3815)">
<path d="M983.169 428.723C981.338 424.697 985.35 420.495 989.456 422.137L1015.58 432.581C1022.61 435.395 1030.64 433.932 1036.23 428.817L1056.99 409.83C1060.25 406.845 1065.49 409.362 1065.2 413.775L1063.34 441.845C1062.84 449.407 1066.71 456.589 1073.3 460.327L1097.77 474.202C1101.62 476.383 1100.84 482.14 1096.56 483.226L1069.28 490.13C1061.94 491.99 1056.3 497.891 1054.79 505.316L1049.15 532.878C1048.27 537.211 1042.55 538.253 1040.19 534.511L1025.2 510.707C1021.16 504.295 1013.81 500.76 1006.28 501.611L978.324 504.771C973.93 505.267 971.173 500.154 974.003 496.756L992.008 475.14C996.859 469.317 997.948 461.231 994.812 454.332L983.169 428.723Z" stroke="#0094FF" stroke-width="14.8382"/>
</g>
<g style="mix-blend-mode:hard-light" filter="url(#filter45_ddi_611_3815)">
<path d="M981.579 429.445C979.098 423.987 984.537 418.29 990.104 420.516L1016.23 430.96C1022.64 433.525 1029.96 432.192 1035.06 427.529L1055.81 408.542C1060.24 404.495 1067.34 407.908 1066.94 413.89L1065.08 441.961C1064.62 448.854 1068.15 455.401 1074.16 458.808L1098.63 472.683C1103.85 475.641 1102.8 483.447 1096.98 484.918L1069.71 491.822C1063.02 493.518 1057.88 498.897 1056.5 505.666L1050.86 533.228C1049.66 539.102 1041.91 540.514 1038.72 535.441L1023.72 511.638C1020.04 505.792 1013.34 502.57 1006.47 503.346L978.52 506.505C972.562 507.179 968.825 500.245 972.662 495.638L990.667 474.023C995.089 468.715 996.082 461.344 993.223 455.054L981.579 429.445Z" stroke="#00B3FF" stroke-opacity="0.2" stroke-width="11.3469"/>
</g>
<g filter="url(#filter46_f_611_3815)">
<path d="M979.593 430.348C976.298 423.099 983.521 415.533 990.914 418.49L1017.04 428.934C1022.67 431.188 1029.1 430.016 1033.58 425.919L1054.34 406.932C1060.22 401.558 1069.64 406.089 1069.12 414.035L1067.26 442.105C1066.85 448.163 1069.96 453.916 1075.24 456.91L1099.71 470.785C1106.64 474.712 1105.24 485.079 1097.52 487.033L1070.25 493.937C1064.36 495.427 1059.85 500.155 1058.63 506.103L1053 533.665C1051.41 541.466 1041.12 543.342 1036.87 536.604L1021.88 512.801C1018.64 507.664 1012.75 504.832 1006.72 505.514L978.765 508.674C970.853 509.568 965.889 500.36 970.985 494.242L988.99 472.626C992.876 467.962 993.749 461.484 991.236 455.958L979.593 430.348Z" stroke="#82D9FF" stroke-width="6.98268"/>
</g>
<g filter="url(#filter47_f_611_3815)">
<path d="M978.004 431.071C974.057 422.389 982.708 413.328 991.563 416.869L1017.68 427.313C1022.7 429.318 1028.42 428.276 1032.4 424.631L1053.16 405.644C1060.2 399.207 1071.49 404.635 1070.86 414.15L1069 442.22C1068.64 447.61 1071.4 452.728 1076.1 455.392L1100.57 469.267C1108.87 473.97 1107.19 486.385 1097.95 488.726L1070.68 495.63C1065.44 496.955 1061.43 501.161 1060.34 506.452L1054.71 534.015C1052.8 543.358 1040.48 545.603 1035.39 537.535L1020.4 513.731C1017.52 509.161 1012.28 506.642 1006.91 507.249L978.961 510.408C969.485 511.479 963.541 500.452 969.644 493.125L987.649 471.509C991.106 467.359 991.882 461.597 989.647 456.68L978.004 431.071Z" stroke="white" stroke-width="3.49134"/>
</g>
</g>
<g opacity="0.5" filter="url(#filter48_f_611_3815)">
<g style="mix-blend-mode:hard-light" filter="url(#filter49_f_611_3815)">
<path d="M25.9893 496.886C30.61 493.065 37.5298 496.828 36.8349 502.783L33.5745 530.726C32.7737 537.588 35.9716 544.303 41.804 548.006L65.5531 563.085C70.6147 566.299 69.1747 574.043 63.2961 575.222L35.7137 580.756C28.94 582.115 23.5419 587.232 21.8222 593.923L14.8197 621.169C13.3272 626.977 5.51745 628 2.57915 622.773L-11.2072 598.251C-14.5929 592.229 -21.127 588.676 -28.0222 589.108L-56.0991 590.868C-62.0831 591.243 -65.4698 584.132 -61.4071 579.722L-42.3452 559.033C-37.6639 553.952 -36.3042 546.64 -38.8459 540.216L-49.1959 514.057C-51.4017 508.481 -45.6851 503.063 -40.2359 505.564L-14.6686 517.3C-8.38974 520.182 -1.01526 519.216 4.30906 514.813L25.9893 496.886Z" stroke="#0094FF" stroke-width="11.3469"/>
</g>
<g style="mix-blend-mode:hard-light" filter="url(#filter50_f_611_3815)">
<path d="M27.1017 498.231C30.5098 495.413 35.6135 498.188 35.101 502.581L31.8405 530.523C30.9622 538.051 34.4702 545.417 40.8683 549.48L64.6173 564.559C68.3506 566.93 67.2885 572.641 62.9527 573.511L35.3704 579.045C27.9396 580.536 22.018 586.148 20.1315 593.488L13.1289 620.735C12.0282 625.018 6.26801 625.773 4.10083 621.918L-9.68553 597.396C-13.3996 590.789 -20.5674 586.892 -28.1314 587.366L-56.2083 589.126C-60.6219 589.402 -63.1197 584.157 -60.1233 580.905L-41.0614 560.216C-35.9261 554.642 -34.4344 546.621 -37.2227 539.573L-47.5726 513.414C-49.1996 509.302 -44.9832 505.306 -40.9641 507.151L-15.3969 518.886C-8.50897 522.048 -0.419246 520.988 5.42148 516.158L27.1017 498.231Z" stroke="#0094FF" stroke-width="14.8382"/>
</g>
<g style="mix-blend-mode:hard-light" filter="url(#filter51_ddi_611_3815)">
<path d="M25.9893 496.886C30.61 493.065 37.5298 496.828 36.8349 502.783L33.5745 530.726C32.7737 537.588 35.9716 544.303 41.804 548.006L65.5531 563.085C70.6147 566.299 69.1747 574.043 63.2961 575.222L35.7137 580.756C28.94 582.115 23.5419 587.232 21.8222 593.923L14.8197 621.169C13.3272 626.977 5.51745 628 2.57915 622.773L-11.2072 598.251C-14.5929 592.229 -21.127 588.676 -28.0222 589.108L-56.0991 590.868C-62.0831 591.243 -65.4698 584.132 -61.4071 579.722L-42.3452 559.033C-37.6639 553.952 -36.3042 546.64 -38.8459 540.216L-49.1959 514.057C-51.4017 508.481 -45.6851 503.063 -40.2359 505.564L-14.6686 517.3C-8.38974 520.182 -1.01526 519.216 4.30906 514.813L25.9893 496.886Z" stroke="#00B3FF" stroke-opacity="0.2" stroke-width="11.3469"/>
</g>
<g filter="url(#filter52_f_611_3815)">
<path d="M24.5988 495.204C30.7354 490.13 39.9251 495.127 39.0023 503.036L35.7418 530.978C35.0382 537.009 37.8484 542.91 42.9737 546.164L66.7227 561.243C73.4449 565.511 71.5324 575.796 63.7253 577.362L36.143 582.896C30.1904 584.09 25.4468 588.586 23.9356 594.466L16.9331 621.713C14.951 629.425 4.57928 630.784 0.677051 623.843L-13.1093 599.321C-16.0845 594.028 -21.8265 590.906 -27.8857 591.286L-55.9626 593.046C-63.9097 593.544 -68.4073 584.1 -63.0119 578.244L-43.95 557.554C-39.8363 553.089 -38.6414 546.664 -40.875 541.018L-51.2249 514.86C-54.1544 507.455 -46.5624 500.259 -39.3256 503.581L-13.7584 515.317C-8.24069 517.849 -1.76028 517 2.91854 513.131L24.5988 495.204Z" stroke="#82D9FF" stroke-width="6.98268"/>
</g>
<g filter="url(#filter53_f_611_3815)">
<path d="M23.4864 493.859C30.8356 487.782 41.8414 493.766 40.7362 503.238L37.4757 531.181C36.8498 536.545 39.3498 541.795 43.9094 544.69L67.6585 559.77C75.709 564.881 73.4186 577.198 64.0687 579.073L36.4864 584.607C31.1908 585.67 26.9707 589.67 25.6263 594.901L18.6238 622.147C16.2501 631.383 3.82873 633.011 -0.844626 624.698L-14.631 600.176C-17.2778 595.468 -22.386 592.69 -27.7765 593.028L-55.8534 594.788C-65.3709 595.385 -70.7574 584.074 -64.2957 577.061L-45.2339 556.372C-41.5742 552.399 -40.5111 546.683 -42.4982 541.661L-52.8481 515.502C-56.3566 506.634 -47.2642 498.016 -38.5974 501.995L-13.0301 513.73C-8.12146 515.983 -2.35629 515.228 1.80613 511.786L23.4864 493.859Z" stroke="white" stroke-width="3.49134"/>
</g>
</g>
<g opacity="0.5" filter="url(#filter54_f_611_3815)">
<g style="mix-blend-mode:hard-light" filter="url(#filter55_f_611_3815)">
<path d="M46.9893 31.8861C51.61 28.0653 58.5298 31.8278 57.8349 37.7832L54.5745 65.7256C53.7737 72.5878 56.9716 79.3027 62.804 83.0059L86.5531 98.0854C91.6147 101.299 90.1747 109.043 84.2961 110.222L56.7137 115.756C49.94 117.115 44.5419 122.232 42.8222 128.923L35.8197 156.169C34.3272 161.977 26.5175 163 23.5791 157.773L9.79279 133.251C6.40708 127.229 -0.127004 123.676 -7.02223 124.108L-35.0991 125.868C-41.0831 126.243 -44.4698 119.132 -40.4071 114.722L-21.3452 94.0329C-16.6639 88.9519 -15.3042 81.6398 -17.8459 75.2156L-28.1959 49.0567C-30.4017 43.4815 -24.6851 38.0631 -19.2359 40.5643L6.33136 52.2998C12.6103 55.1819 19.9847 54.2155 25.3091 49.813L46.9893 31.8861Z" stroke="#0094FF" stroke-width="11.3469"/>
</g>
<g style="mix-blend-mode:hard-light" filter="url(#filter56_f_611_3815)">
<path d="M48.1017 33.2314C51.5098 30.4134 56.6135 33.1884 56.101 37.5809L52.8405 65.5232C51.9622 73.051 55.4702 80.4172 61.8683 84.4797L85.6173 99.5591C89.3506 101.93 88.2885 107.641 83.9527 108.511L56.3704 114.045C48.9396 115.536 43.018 121.148 41.1315 128.488L34.1289 155.735C33.0282 160.018 27.268 160.773 25.1008 156.918L11.3145 132.396C7.60039 125.789 0.432564 121.892 -7.13143 122.366L-35.2083 124.126C-39.6219 124.402 -42.1197 119.157 -39.1233 115.905L-20.0614 95.2158C-14.9261 89.642 -13.4344 81.6206 -16.2227 74.5733L-26.5726 48.4145C-28.1996 44.3024 -23.9832 40.306 -19.9641 42.1508L5.60313 53.8863C12.491 57.0479 20.5808 55.9878 26.4215 51.1583L48.1017 33.2314Z" stroke="#0094FF" stroke-width="14.8382"/>
</g>
<g style="mix-blend-mode:hard-light" filter="url(#filter57_ddi_611_3815)">
<path d="M46.9893 31.8861C51.61 28.0653 58.5298 31.8278 57.8349 37.7832L54.5745 65.7256C53.7737 72.5878 56.9716 79.3027 62.804 83.0059L86.5531 98.0854C91.6147 101.299 90.1747 109.043 84.2961 110.222L56.7137 115.756C49.94 117.115 44.5419 122.232 42.8222 128.923L35.8197 156.169C34.3272 161.977 26.5175 163 23.5791 157.773L9.79279 133.251C6.40708 127.229 -0.127004 123.676 -7.02223 124.108L-35.0991 125.868C-41.0831 126.243 -44.4698 119.132 -40.4071 114.722L-21.3452 94.0329C-16.6639 88.9519 -15.3042 81.6398 -17.8459 75.2156L-28.1959 49.0567C-30.4017 43.4815 -24.6851 38.0631 -19.2359 40.5643L6.33136 52.2998C12.6103 55.1819 19.9847 54.2155 25.3091 49.813L46.9893 31.8861Z" stroke="#00B3FF" stroke-opacity="0.2" stroke-width="11.3469"/>
</g>
<g filter="url(#filter58_f_611_3815)">
<path d="M45.5988 30.2044C51.7354 25.1302 60.9251 30.127 60.0023 38.0361L56.7418 65.9785C56.0382 72.0087 58.8484 77.9095 63.9737 81.1638L87.7227 96.2433C94.4449 100.511 92.5324 110.796 84.7253 112.362L57.143 117.896C51.1904 119.09 46.4468 123.586 44.9356 129.466L37.9331 156.713C35.951 164.425 25.5793 165.784 21.6771 158.843L7.89069 134.321C4.91546 129.028 -0.826457 125.906 -6.88573 126.286L-34.9626 128.046C-42.9097 128.544 -47.4073 119.1 -42.0119 113.244L-22.95 92.5544C-18.8363 88.0894 -17.6414 81.6637 -19.875 76.0184L-30.2249 49.8595C-33.1544 42.4553 -25.5624 35.2594 -18.3256 38.5811L7.24164 50.3167C12.7593 52.8493 19.2397 52.0001 23.9185 48.1313L45.5988 30.2044Z" stroke="#82D9FF" stroke-width="6.98268"/>
</g>
<g filter="url(#filter59_f_611_3815)">
<path d="M44.4864 28.8591C51.8356 22.7822 62.8414 28.7664 61.7362 38.2384L58.4757 66.1808C57.8498 71.5455 60.3498 76.795 64.9094 79.6901L88.6585 94.7696C96.709 99.8812 94.4186 112.198 85.0687 114.073L57.4864 119.607C52.1908 120.67 47.9707 124.67 46.6263 129.901L39.6238 157.147C37.2501 166.383 24.8287 168.011 20.1554 159.698L6.36901 135.176C3.72216 130.468 -1.38601 127.69 -6.77652 128.028L-34.8534 129.788C-44.3709 130.385 -49.7574 119.074 -43.2957 112.061L-24.2339 91.3715C-20.5742 87.3994 -19.5111 81.6829 -21.4982 76.6606L-31.8481 50.5018C-35.3566 41.6344 -26.2642 33.0165 -17.5974 36.9946L7.96986 48.7301C12.8785 50.9833 18.6437 50.2278 22.8061 46.786L44.4864 28.8591Z" stroke="white" stroke-width="3.49134"/>
</g>
</g>
<defs>
<filter id="filter0_f_611_3815" x="98.85" y="-87.15" width="340.302" height="340.302" filterUnits="userSpaceOnUse" color-interpolation-filters="sRGB">
<feFlood flood-opacity="0" result="BackgroundImageFix"/>
<feBlend mode="normal" in="SourceGraphic" in2="BackgroundImageFix" result="shape"/>
<feGaussianBlur stdDeviation="3.575" result="effect1_foregroundBlur_611_3815"/>
</filter>
<filter id="filter1_f_611_3815" x="157.464" y="-27.3212" width="214.662" height="216.984" filterUnits="userSpaceOnUse" color-interpolation-filters="sRGB">
<feFlood flood-opacity="0" result="BackgroundImageFix"/>
<feBlend mode="normal" in="SourceGraphic" in2="BackgroundImageFix" result="shape"/>
<feGaussianBlur stdDeviation="18.3295" result="effect1_foregroundBlur_611_3815"/>
</filter>
<filter id="filter2_f_611_3815" x="181.903" y="-2.8818" width="165.783" height="168.105" filterUnits="userSpaceOnUse" color-interpolation-filters="sRGB">
<feFlood flood-opacity="0" result="BackgroundImageFix"/>
<feBlend mode="normal" in="SourceGraphic" in2="BackgroundImageFix" result="shape"/>
<feGaussianBlur stdDeviation="6.10984" result="effect1_foregroundBlur_611_3815"/>
</filter>
<filter id="filter3_ddi_611_3815" x="178.237" y="5.67198" width="173.115" height="175.437" filterUnits="userSpaceOnUse" color-interpolation-filters="sRGB">
<feFlood flood-opacity="0" result="BackgroundImageFix"/>
<feColorMatrix in="SourceAlpha" type="matrix" values="0 0 0 0 0 0 0 0 0 0 0 0 0 0 0 0 0 0 127 0" result="hardAlpha"/>
<feOffset dy="11.3469"/>
<feGaussianBlur stdDeviation="4.36417"/>
<feColorMatrix type="matrix" values="0 0 0 0 0 0 0 0 0 0.051 0 0 0 0 0.082 0 0 0 0.7 0"/>
<feBlend mode="multiply" in2="BackgroundImageFix" result="effect1_dropShadow_611_3815"/>
<feColorMatrix in="SourceAlpha" type="matrix" values="0 0 0 0 0 0 0 0 0 0 0 0 0 0 0 0 0 0 127 0" result="hardAlpha"/>
<feOffset dy="12.2197"/>
<feGaussianBlur stdDeviation="7.9428"/>
<feColorMatrix type="matrix" values="0 0 0 0 0 0 0 0 0 0.4 0 0 0 0 1 0 0 0 1 0"/>
<feBlend mode="color-dodge" in2="effect1_dropShadow_611_3815" result="effect2_dropShadow_611_3815"/>
<feBlend mode="normal" in="SourceGraphic" in2="effect2_dropShadow_611_3815" result="shape"/>
<feColorMatrix in="SourceAlpha" type="matrix" values="0 0 0 0 0 0 0 0 0 0 0 0 0 0 0 0 0 0 127 0" result="hardAlpha"/>
<feOffset dx="-1.13469" dy="2.26937"/>
<feGaussianBlur stdDeviation="0.567343"/>
<feComposite in2="hardAlpha" operator="arithmetic" k2="-1" k3="1"/>
<feColorMatrix type="matrix" values="0 0 0 0 1 0 0 0 0 1 0 0 0 0 1 0 0 0 0.5 0"/>
<feBlend mode="normal" in2="shape" result="effect3_innerShadow_611_3815"/>
</filter>
<filter id="filter4_f_611_3815" x="192.377" y="7.59222" width="144.835" height="147.157" filterUnits="userSpaceOnUse" color-interpolation-filters="sRGB">
<feFlood flood-opacity="0" result="BackgroundImageFix"/>
<feBlend mode="normal" in="SourceGraphic" in2="BackgroundImageFix" result="shape"/>
<feGaussianBlur stdDeviation="0.872835" result="effect1_foregroundBlur_611_3815"/>
</filter>
<filter id="filter5_f_611_3815" x="192.959" y="8.17411" width="143.671" height="145.993" filterUnits="userSpaceOnUse" color-interpolation-filters="sRGB">
<feFlood flood-opacity="0" result="BackgroundImageFix"/>
<feBlend mode="normal" in="SourceGraphic" in2="BackgroundImageFix" result="shape"/>
<feGaussianBlur stdDeviation="0.58189" result="effect1_foregroundBlur_611_3815"/>
</filter>
<filter id="filter6_f_611_3815" x="379.093" y="-132.907" width="321.817" height="321.817" filterUnits="userSpaceOnUse" color-interpolation-filters="sRGB">
<feFlood flood-opacity="0" result="BackgroundImageFix"/>
<feBlend mode="normal" in="SourceGraphic" in2="BackgroundImageFix" result="shape"/>
<feGaussianBlur stdDeviation="3.575" result="effect1_foregroundBlur_611_3815"/>
</filter>
<filter id="filter7_f_611_3815" x="434.398" y="-83.244" width="216.427" height="215.62" filterUnits="userSpaceOnUse" color-interpolation-filters="sRGB">
<feFlood flood-opacity="0" result="BackgroundImageFix"/>
<feBlend mode="normal" in="SourceGraphic" in2="BackgroundImageFix" result="shape"/>
<feGaussianBlur stdDeviation="18.3295" result="effect1_foregroundBlur_611_3815"/>
</filter>
<filter id="filter8_f_611_3815" x="458.837" y="-58.8046" width="167.549" height="166.741" filterUnits="userSpaceOnUse" color-interpolation-filters="sRGB">
<feFlood flood-opacity="0" result="BackgroundImageFix"/>
<feBlend mode="normal" in="SourceGraphic" in2="BackgroundImageFix" result="shape"/>
<feGaussianBlur stdDeviation="6.10984" result="effect1_foregroundBlur_611_3815"/>
</filter>
<filter id="filter9_ddi_611_3815" x="455.171" y="-50.2509" width="174.881" height="174.073" filterUnits="userSpaceOnUse" color-interpolation-filters="sRGB">
<feFlood flood-opacity="0" result="BackgroundImageFix"/>
<feColorMatrix in="SourceAlpha" type="matrix" values="0 0 0 0 0 0 0 0 0 0 0 0 0 0 0 0 0 0 127 0" result="hardAlpha"/>
<feOffset dy="11.3469"/>
<feGaussianBlur stdDeviation="4.36417"/>
<feColorMatrix type="matrix" values="0 0 0 0 0 0 0 0 0 0.051 0 0 0 0 0.082 0 0 0 0.7 0"/>
<feBlend mode="multiply" in2="BackgroundImageFix" result="effect1_dropShadow_611_3815"/>
<feColorMatrix in="SourceAlpha" type="matrix" values="0 0 0 0 0 0 0 0 0 0 0 0 0 0 0 0 0 0 127 0" result="hardAlpha"/>
<feOffset dy="12.2197"/>
<feGaussianBlur stdDeviation="7.9428"/>
<feColorMatrix type="matrix" values="0 0 0 0 0 0 0 0 0 0.4 0 0 0 0 1 0 0 0 1 0"/>
<feBlend mode="color-dodge" in2="effect1_dropShadow_611_3815" result="effect2_dropShadow_611_3815"/>
<feBlend mode="normal" in="SourceGraphic" in2="effect2_dropShadow_611_3815" result="shape"/>
<feColorMatrix in="SourceAlpha" type="matrix" values="0 0 0 0 0 0 0 0 0 0 0 0 0 0 0 0 0 0 127 0" result="hardAlpha"/>
<feOffset dx="-1.13469" dy="2.26937"/>
<feGaussianBlur stdDeviation="0.567343"/>
<feComposite in2="hardAlpha" operator="arithmetic" k2="-1" k3="1"/>
<feColorMatrix type="matrix" values="0 0 0 0 1 0 0 0 0 1 0 0 0 0 1 0 0 0 0.5 0"/>
<feBlend mode="normal" in2="shape" result="effect3_innerShadow_611_3815"/>
</filter>
<filter id="filter10_f_611_3815" x="469.311" y="-48.3306" width="146.601" height="145.793" filterUnits="userSpaceOnUse" color-interpolation-filters="sRGB">
<feFlood flood-opacity="0" result="BackgroundImageFix"/>
<feBlend mode="normal" in="SourceGraphic" in2="BackgroundImageFix" result="shape"/>
<feGaussianBlur stdDeviation="0.872835" result="effect1_foregroundBlur_611_3815"/>
</filter>
<filter id="filter11_f_611_3815" x="469.893" y="-47.7487" width="145.437" height="144.629" filterUnits="userSpaceOnUse" color-interpolation-filters="sRGB">
<feFlood flood-opacity="0" result="BackgroundImageFix"/>
<feBlend mode="normal" in="SourceGraphic" in2="BackgroundImageFix" result="shape"/>
<feGaussianBlur stdDeviation="0.58189" result="effect1_foregroundBlur_611_3815"/>
</filter>
<filter id="filter12_f_611_3815" x="615.527" y="-95.4732" width="400.463" height="400.463" filterUnits="userSpaceOnUse" color-interpolation-filters="sRGB">
<feFlood flood-opacity="0" result="BackgroundImageFix"/>
<feBlend mode="normal" in="SourceGraphic" in2="BackgroundImageFix" result="shape"/>
<feGaussianBlur stdDeviation="3.575" result="effect1_foregroundBlur_611_3815"/>
</filter>
<filter id="filter13_f_611_3815" x="711.431" y="-0.887085" width="215.587" height="216.452" filterUnits="userSpaceOnUse" color-interpolation-filters="sRGB">
<feFlood flood-opacity="0" result="BackgroundImageFix"/>
<feBlend mode="normal" in="SourceGraphic" in2="BackgroundImageFix" result="shape"/>
<feGaussianBlur stdDeviation="18.3295" result="effect1_foregroundBlur_611_3815"/>
</filter>
<filter id="filter14_f_611_3815" x="735.87" y="23.5523" width="166.708" height="167.573" filterUnits="userSpaceOnUse" color-interpolation-filters="sRGB">
<feFlood flood-opacity="0" result="BackgroundImageFix"/>
<feBlend mode="normal" in="SourceGraphic" in2="BackgroundImageFix" result="shape"/>
<feGaussianBlur stdDeviation="6.10984" result="effect1_foregroundBlur_611_3815"/>
</filter>
<filter id="filter15_ddi_611_3815" x="732.204" y="32.1061" width="174.04" height="174.905" filterUnits="userSpaceOnUse" color-interpolation-filters="sRGB">
<feFlood flood-opacity="0" result="BackgroundImageFix"/>
<feColorMatrix in="SourceAlpha" type="matrix" values="0 0 0 0 0 0 0 0 0 0 0 0 0 0 0 0 0 0 127 0" result="hardAlpha"/>
<feOffset dy="11.3469"/>
<feGaussianBlur stdDeviation="4.36417"/>
<feColorMatrix type="matrix" values="0 0 0 0 0 0 0 0 0 0.051 0 0 0 0 0.082 0 0 0 0.7 0"/>
<feBlend mode="multiply" in2="BackgroundImageFix" result="effect1_dropShadow_611_3815"/>
<feColorMatrix in="SourceAlpha" type="matrix" values="0 0 0 0 0 0 0 0 0 0 0 0 0 0 0 0 0 0 127 0" result="hardAlpha"/>
<feOffset dy="12.2197"/>
<feGaussianBlur stdDeviation="7.9428"/>
<feColorMatrix type="matrix" values="0 0 0 0 0 0 0 0 0 0.4 0 0 0 0 1 0 0 0 1 0"/>
<feBlend mode="color-dodge" in2="effect1_dropShadow_611_3815" result="effect2_dropShadow_611_3815"/>
<feBlend mode="normal" in="SourceGraphic" in2="effect2_dropShadow_611_3815" result="shape"/>
<feColorMatrix in="SourceAlpha" type="matrix" values="0 0 0 0 0 0 0 0 0 0 0 0 0 0 0 0 0 0 127 0" result="hardAlpha"/>
<feOffset dx="-1.13469" dy="2.26937"/>
<feGaussianBlur stdDeviation="0.567343"/>
<feComposite in2="hardAlpha" operator="arithmetic" k2="-1" k3="1"/>
<feColorMatrix type="matrix" values="0 0 0 0 1 0 0 0 0 1 0 0 0 0 1 0 0 0 0.5 0"/>
<feBlend mode="normal" in2="shape" result="effect3_innerShadow_611_3815"/>
</filter>
<filter id="filter16_f_611_3815" x="746.344" y="34.0263" width="145.76" height="146.625" filterUnits="userSpaceOnUse" color-interpolation-filters="sRGB">
<feFlood flood-opacity="0" result="BackgroundImageFix"/>
<feBlend mode="normal" in="SourceGraphic" in2="BackgroundImageFix" result="shape"/>
<feGaussianBlur stdDeviation="0.872835" result="effect1_foregroundBlur_611_3815"/>
</filter>
<filter id="filter17_f_611_3815" x="746.926" y="34.6082" width="144.596" height="145.461" filterUnits="userSpaceOnUse" color-interpolation-filters="sRGB">
<feFlood flood-opacity="0" result="BackgroundImageFix"/>
<feBlend mode="normal" in="SourceGraphic" in2="BackgroundImageFix" result="shape"/>
<feGaussianBlur stdDeviation="0.58189" result="effect1_foregroundBlur_611_3815"/>
</filter>
<filter id="filter18_f_611_3815" x="841.85" y="-167.15" width="400.463" height="400.463" filterUnits="userSpaceOnUse" color-interpolation-filters="sRGB">
<feFlood flood-opacity="0" result="BackgroundImageFix"/>
<feBlend mode="normal" in="SourceGraphic" in2="BackgroundImageFix" result="shape"/>
<feGaussianBlur stdDeviation="3.575" result="effect1_foregroundBlur_611_3815"/>
</filter>
<filter id="filter19_f_611_3815" x="937.754" y="-72.5643" width="215.587" height="216.452" filterUnits="userSpaceOnUse" color-interpolation-filters="sRGB">
<feFlood flood-opacity="0" result="BackgroundImageFix"/>
<feBlend mode="normal" in="SourceGraphic" in2="BackgroundImageFix" result="shape"/>
<feGaussianBlur stdDeviation="18.3295" result="effect1_foregroundBlur_611_3815"/>
</filter>
<filter id="filter20_f_611_3815" x="962.193" y="-48.125" width="166.708" height="167.573" filterUnits="userSpaceOnUse" color-interpolation-filters="sRGB">
<feFlood flood-opacity="0" result="BackgroundImageFix"/>
<feBlend mode="normal" in="SourceGraphic" in2="BackgroundImageFix" result="shape"/>
<feGaussianBlur stdDeviation="6.10984" result="effect1_foregroundBlur_611_3815"/>
</filter>
<filter id="filter21_ddi_611_3815" x="958.527" y="-39.5712" width="174.04" height="174.905" filterUnits="userSpaceOnUse" color-interpolation-filters="sRGB">
<feFlood flood-opacity="0" result="BackgroundImageFix"/>
<feColorMatrix in="SourceAlpha" type="matrix" values="0 0 0 0 0 0 0 0 0 0 0 0 0 0 0 0 0 0 127 0" result="hardAlpha"/>
<feOffset dy="11.3469"/>
<feGaussianBlur stdDeviation="4.36417"/>
<feColorMatrix type="matrix" values="0 0 0 0 0 0 0 0 0 0.051 0 0 0 0 0.082 0 0 0 0.7 0"/>
<feBlend mode="multiply" in2="BackgroundImageFix" result="effect1_dropShadow_611_3815"/>
<feColorMatrix in="SourceAlpha" type="matrix" values="0 0 0 0 0 0 0 0 0 0 0 0 0 0 0 0 0 0 127 0" result="hardAlpha"/>
<feOffset dy="12.2197"/>
<feGaussianBlur stdDeviation="7.9428"/>
<feColorMatrix type="matrix" values="0 0 0 0 0 0 0 0 0 0.4 0 0 0 0 1 0 0 0 1 0"/>
<feBlend mode="color-dodge" in2="effect1_dropShadow_611_3815" result="effect2_dropShadow_611_3815"/>
<feBlend mode="normal" in="SourceGraphic" in2="effect2_dropShadow_611_3815" result="shape"/>
<feColorMatrix in="SourceAlpha" type="matrix" values="0 0 0 0 0 0 0 0 0 0 0 0 0 0 0 0 0 0 127 0" result="hardAlpha"/>
<feOffset dx="-1.13469" dy="2.26937"/>
<feGaussianBlur stdDeviation="0.567343"/>
<feComposite in2="hardAlpha" operator="arithmetic" k2="-1" k3="1"/>
<feColorMatrix type="matrix" values="0 0 0 0 1 0 0 0 0 1 0 0 0 0 1 0 0 0 0.5 0"/>
<feBlend mode="normal" in2="shape" result="effect3_innerShadow_611_3815"/>
</filter>
<filter id="filter22_f_611_3815" x="972.667" y="-37.6509" width="145.76" height="146.625" filterUnits="userSpaceOnUse" color-interpolation-filters="sRGB">
<feFlood flood-opacity="0" result="BackgroundImageFix"/>
<feBlend mode="normal" in="SourceGraphic" in2="BackgroundImageFix" result="shape"/>
<feGaussianBlur stdDeviation="0.872835" result="effect1_foregroundBlur_611_3815"/>
</filter>
<filter id="filter23_f_611_3815" x="973.249" y="-37.0691" width="144.596" height="145.461" filterUnits="userSpaceOnUse" color-interpolation-filters="sRGB">
<feFlood flood-opacity="0" result="BackgroundImageFix"/>
<feBlend mode="normal" in="SourceGraphic" in2="BackgroundImageFix" result="shape"/>
<feGaussianBlur stdDeviation="0.58189" result="effect1_foregroundBlur_611_3815"/>
</filter>
<filter id="filter24_f_611_3815" x="63.85" y="445.85" width="340.302" height="340.302" filterUnits="userSpaceOnUse" color-interpolation-filters="sRGB">
<feFlood flood-opacity="0" result="BackgroundImageFix"/>
<feBlend mode="normal" in="SourceGraphic" in2="BackgroundImageFix" result="shape"/>
<feGaussianBlur stdDeviation="3.575" result="effect1_foregroundBlur_611_3815"/>
</filter>
<filter id="filter25_f_611_3815" x="122.464" y="505.679" width="214.662" height="216.984" filterUnits="userSpaceOnUse" color-interpolation-filters="sRGB">
<feFlood flood-opacity="0" result="BackgroundImageFix"/>
<feBlend mode="normal" in="SourceGraphic" in2="BackgroundImageFix" result="shape"/>
<feGaussianBlur stdDeviation="18.3295" result="effect1_foregroundBlur_611_3815"/>
</filter>
<filter id="filter26_f_611_3815" x="146.903" y="530.118" width="165.783" height="168.105" filterUnits="userSpaceOnUse" color-interpolation-filters="sRGB">
<feFlood flood-opacity="0" result="BackgroundImageFix"/>
<feBlend mode="normal" in="SourceGraphic" in2="BackgroundImageFix" result="shape"/>
<feGaussianBlur stdDeviation="6.10984" result="effect1_foregroundBlur_611_3815"/>
</filter>
<filter id="filter27_ddi_611_3815" x="143.237" y="538.672" width="173.115" height="175.437" filterUnits="userSpaceOnUse" color-interpolation-filters="sRGB">
<feFlood flood-opacity="0" result="BackgroundImageFix"/>
<feColorMatrix in="SourceAlpha" type="matrix" values="0 0 0 0 0 0 0 0 0 0 0 0 0 0 0 0 0 0 127 0" result="hardAlpha"/>
<feOffset dy="11.3469"/>
<feGaussianBlur stdDeviation="4.36417"/>
<feColorMatrix type="matrix" values="0 0 0 0 0 0 0 0 0 0.051 0 0 0 0 0.082 0 0 0 0.7 0"/>
<feBlend mode="multiply" in2="BackgroundImageFix" result="effect1_dropShadow_611_3815"/>
<feColorMatrix in="SourceAlpha" type="matrix" values="0 0 0 0 0 0 0 0 0 0 0 0 0 0 0 0 0 0 127 0" result="hardAlpha"/>
<feOffset dy="12.2197"/>
<feGaussianBlur stdDeviation="7.9428"/>
<feColorMatrix type="matrix" values="0 0 0 0 0 0 0 0 0 0.4 0 0 0 0 1 0 0 0 1 0"/>
<feBlend mode="color-dodge" in2="effect1_dropShadow_611_3815" result="effect2_dropShadow_611_3815"/>
<feBlend mode="normal" in="SourceGraphic" in2="effect2_dropShadow_611_3815" result="shape"/>
<feColorMatrix in="SourceAlpha" type="matrix" values="0 0 0 0 0 0 0 0 0 0 0 0 0 0 0 0 0 0 127 0" result="hardAlpha"/>
<feOffset dx="-1.13469" dy="2.26937"/>
<feGaussianBlur stdDeviation="0.567343"/>
<feComposite in2="hardAlpha" operator="arithmetic" k2="-1" k3="1"/>
<feColorMatrix type="matrix" values="0 0 0 0 1 0 0 0 0 1 0 0 0 0 1 0 0 0 0.5 0"/>
<feBlend mode="normal" in2="shape" result="effect3_innerShadow_611_3815"/>
</filter>
<filter id="filter28_f_611_3815" x="157.377" y="540.592" width="144.835" height="147.157" filterUnits="userSpaceOnUse" color-interpolation-filters="sRGB">
<feFlood flood-opacity="0" result="BackgroundImageFix"/>
<feBlend mode="normal" in="SourceGraphic" in2="BackgroundImageFix" result="shape"/>
<feGaussianBlur stdDeviation="0.872835" result="effect1_foregroundBlur_611_3815"/>
</filter>
<filter id="filter29_f_611_3815" x="157.959" y="541.174" width="143.671" height="145.993" filterUnits="userSpaceOnUse" color-interpolation-filters="sRGB">
<feFlood flood-opacity="0" result="BackgroundImageFix"/>
<feBlend mode="normal" in="SourceGraphic" in2="BackgroundImageFix" result="shape"/>
<feGaussianBlur stdDeviation="0.58189" result="effect1_foregroundBlur_611_3815"/>
</filter>
<filter id="filter30_f_611_3815" x="367.85" y="399.85" width="321.817" height="321.817" filterUnits="userSpaceOnUse" color-interpolation-filters="sRGB">
<feFlood flood-opacity="0" result="BackgroundImageFix"/>
<feBlend mode="normal" in="SourceGraphic" in2="BackgroundImageFix" result="shape"/>
<feGaussianBlur stdDeviation="3.575" result="effect1_foregroundBlur_611_3815"/>
</filter>
<filter id="filter31_f_611_3815" x="423.154" y="449.513" width="216.427" height="215.619" filterUnits="userSpaceOnUse" color-interpolation-filters="sRGB">
<feFlood flood-opacity="0" result="BackgroundImageFix"/>
<feBlend mode="normal" in="SourceGraphic" in2="BackgroundImageFix" result="shape"/>
<feGaussianBlur stdDeviation="18.3295" result="effect1_foregroundBlur_611_3815"/>
</filter>
<filter id="filter32_f_611_3815" x="447.594" y="473.952" width="167.549" height="166.741" filterUnits="userSpaceOnUse" color-interpolation-filters="sRGB">
<feFlood flood-opacity="0" result="BackgroundImageFix"/>
<feBlend mode="normal" in="SourceGraphic" in2="BackgroundImageFix" result="shape"/>
<feGaussianBlur stdDeviation="6.10984" result="effect1_foregroundBlur_611_3815"/>
</filter>
<filter id="filter33_ddi_611_3815" x="443.928" y="482.506" width="174.881" height="174.072" filterUnits="userSpaceOnUse" color-interpolation-filters="sRGB">
<feFlood flood-opacity="0" result="BackgroundImageFix"/>
<feColorMatrix in="SourceAlpha" type="matrix" values="0 0 0 0 0 0 0 0 0 0 0 0 0 0 0 0 0 0 127 0" result="hardAlpha"/>
<feOffset dy="11.3469"/>
<feGaussianBlur stdDeviation="4.36417"/>
<feColorMatrix type="matrix" values="0 0 0 0 0 0 0 0 0 0.051 0 0 0 0 0.082 0 0 0 0.7 0"/>
<feBlend mode="multiply" in2="BackgroundImageFix" result="effect1_dropShadow_611_3815"/>
<feColorMatrix in="SourceAlpha" type="matrix" values="0 0 0 0 0 0 0 0 0 0 0 0 0 0 0 0 0 0 127 0" result="hardAlpha"/>
<feOffset dy="12.2197"/>
<feGaussianBlur stdDeviation="7.9428"/>
<feColorMatrix type="matrix" values="0 0 0 0 0 0 0 0 0 0.4 0 0 0 0 1 0 0 0 1 0"/>
<feBlend mode="color-dodge" in2="effect1_dropShadow_611_3815" result="effect2_dropShadow_611_3815"/>
<feBlend mode="normal" in="SourceGraphic" in2="effect2_dropShadow_611_3815" result="shape"/>
<feColorMatrix in="SourceAlpha" type="matrix" values="0 0 0 0 0 0 0 0 0 0 0 0 0 0 0 0 0 0 127 0" result="hardAlpha"/>
<feOffset dx="-1.13469" dy="2.26937"/>
<feGaussianBlur stdDeviation="0.567343"/>
<feComposite in2="hardAlpha" operator="arithmetic" k2="-1" k3="1"/>
<feColorMatrix type="matrix" values="0 0 0 0 1 0 0 0 0 1 0 0 0 0 1 0 0 0 0.5 0"/>
<feBlend mode="normal" in2="shape" result="effect3_innerShadow_611_3815"/>
</filter>
<filter id="filter34_f_611_3815" x="458.068" y="484.426" width="146.601" height="145.793" filterUnits="userSpaceOnUse" color-interpolation-filters="sRGB">
<feFlood flood-opacity="0" result="BackgroundImageFix"/>
<feBlend mode="normal" in="SourceGraphic" in2="BackgroundImageFix" result="shape"/>
<feGaussianBlur stdDeviation="0.872835" result="effect1_foregroundBlur_611_3815"/>
</filter>
<filter id="filter35_f_611_3815" x="458.65" y="485.008" width="145.437" height="144.629" filterUnits="userSpaceOnUse" color-interpolation-filters="sRGB">
<feFlood flood-opacity="0" result="BackgroundImageFix"/>
<feBlend mode="normal" in="SourceGraphic" in2="BackgroundImageFix" result="shape"/>
<feGaussianBlur stdDeviation="0.58189" result="effect1_foregroundBlur_611_3815"/>
</filter>
<filter id="filter36_f_611_3815" x="600.85" y="399.85" width="400.463" height="400.463" filterUnits="userSpaceOnUse" color-interpolation-filters="sRGB">
<feFlood flood-opacity="0" result="BackgroundImageFix"/>
<feBlend mode="normal" in="SourceGraphic" in2="BackgroundImageFix" result="shape"/>
<feGaussianBlur stdDeviation="3.575" result="effect1_foregroundBlur_611_3815"/>
</filter>
<filter id="filter37_f_611_3815" x="696.754" y="494.435" width="215.587" height="216.452" filterUnits="userSpaceOnUse" color-interpolation-filters="sRGB">
<feFlood flood-opacity="0" result="BackgroundImageFix"/>
<feBlend mode="normal" in="SourceGraphic" in2="BackgroundImageFix" result="shape"/>
<feGaussianBlur stdDeviation="18.3295" result="effect1_foregroundBlur_611_3815"/>
</filter>
<filter id="filter38_f_611_3815" x="721.193" y="518.875" width="166.708" height="167.573" filterUnits="userSpaceOnUse" color-interpolation-filters="sRGB">
<feFlood flood-opacity="0" result="BackgroundImageFix"/>
<feBlend mode="normal" in="SourceGraphic" in2="BackgroundImageFix" result="shape"/>
<feGaussianBlur stdDeviation="6.10984" result="effect1_foregroundBlur_611_3815"/>
</filter>
<filter id="filter39_ddi_611_3815" x="717.527" y="527.428" width="174.04" height="174.905" filterUnits="userSpaceOnUse" color-interpolation-filters="sRGB">
<feFlood flood-opacity="0" result="BackgroundImageFix"/>
<feColorMatrix in="SourceAlpha" type="matrix" values="0 0 0 0 0 0 0 0 0 0 0 0 0 0 0 0 0 0 127 0" result="hardAlpha"/>
<feOffset dy="11.3469"/>
<feGaussianBlur stdDeviation="4.36417"/>
<feColorMatrix type="matrix" values="0 0 0 0 0 0 0 0 0 0.051 0 0 0 0 0.082 0 0 0 0.7 0"/>
<feBlend mode="multiply" in2="BackgroundImageFix" result="effect1_dropShadow_611_3815"/>
<feColorMatrix in="SourceAlpha" type="matrix" values="0 0 0 0 0 0 0 0 0 0 0 0 0 0 0 0 0 0 127 0" result="hardAlpha"/>
<feOffset dy="12.2197"/>
<feGaussianBlur stdDeviation="7.9428"/>
<feColorMatrix type="matrix" values="0 0 0 0 0 0 0 0 0 0.4 0 0 0 0 1 0 0 0 1 0"/>
<feBlend mode="color-dodge" in2="effect1_dropShadow_611_3815" result="effect2_dropShadow_611_3815"/>
<feBlend mode="normal" in="SourceGraphic" in2="effect2_dropShadow_611_3815" result="shape"/>
<feColorMatrix in="SourceAlpha" type="matrix" values="0 0 0 0 0 0 0 0 0 0 0 0 0 0 0 0 0 0 127 0" result="hardAlpha"/>
<feOffset dx="-1.13469" dy="2.26937"/>
<feGaussianBlur stdDeviation="0.567343"/>
<feComposite in2="hardAlpha" operator="arithmetic" k2="-1" k3="1"/>
<feColorMatrix type="matrix" values="0 0 0 0 1 0 0 0 0 1 0 0 0 0 1 0 0 0 0.5 0"/>
<feBlend mode="normal" in2="shape" result="effect3_innerShadow_611_3815"/>
</filter>
<filter id="filter40_f_611_3815" x="731.667" y="529.349" width="145.76" height="146.625" filterUnits="userSpaceOnUse" color-interpolation-filters="sRGB">
<feFlood flood-opacity="0" result="BackgroundImageFix"/>
<feBlend mode="normal" in="SourceGraphic" in2="BackgroundImageFix" result="shape"/>
<feGaussianBlur stdDeviation="0.872835" result="effect1_foregroundBlur_611_3815"/>
</filter>
<filter id="filter41_f_611_3815" x="732.249" y="529.93" width="144.596" height="145.461" filterUnits="userSpaceOnUse" color-interpolation-filters="sRGB">
<feFlood flood-opacity="0" result="BackgroundImageFix"/>
<feBlend mode="normal" in="SourceGraphic" in2="BackgroundImageFix" result="shape"/>
<feGaussianBlur stdDeviation="0.58189" result="effect1_foregroundBlur_611_3815"/>
</filter>
<filter id="filter42_f_611_3815" x="832.85" y="269.85" width="400.463" height="400.463" filterUnits="userSpaceOnUse" color-interpolation-filters="sRGB">
<feFlood flood-opacity="0" result="BackgroundImageFix"/>
<feBlend mode="normal" in="SourceGraphic" in2="BackgroundImageFix" result="shape"/>
<feGaussianBlur stdDeviation="3.575" result="effect1_foregroundBlur_611_3815"/>
</filter>
<filter id="filter43_f_611_3815" x="928.754" y="364.435" width="215.587" height="216.452" filterUnits="userSpaceOnUse" color-interpolation-filters="sRGB">
<feFlood flood-opacity="0" result="BackgroundImageFix"/>
<feBlend mode="normal" in="SourceGraphic" in2="BackgroundImageFix" result="shape"/>
<feGaussianBlur stdDeviation="18.3295" result="effect1_foregroundBlur_611_3815"/>
</filter>
<filter id="filter44_f_611_3815" x="953.193" y="388.875" width="166.708" height="167.573" filterUnits="userSpaceOnUse" color-interpolation-filters="sRGB">
<feFlood flood-opacity="0" result="BackgroundImageFix"/>
<feBlend mode="normal" in="SourceGraphic" in2="BackgroundImageFix" result="shape"/>
<feGaussianBlur stdDeviation="6.10984" result="effect1_foregroundBlur_611_3815"/>
</filter>
<filter id="filter45_ddi_611_3815" x="949.527" y="397.428" width="174.04" height="174.905" filterUnits="userSpaceOnUse" color-interpolation-filters="sRGB">
<feFlood flood-opacity="0" result="BackgroundImageFix"/>
<feColorMatrix in="SourceAlpha" type="matrix" values="0 0 0 0 0 0 0 0 0 0 0 0 0 0 0 0 0 0 127 0" result="hardAlpha"/>
<feOffset dy="11.3469"/>
<feGaussianBlur stdDeviation="4.36417"/>
<feColorMatrix type="matrix" values="0 0 0 0 0 0 0 0 0 0.051 0 0 0 0 0.082 0 0 0 0.7 0"/>
<feBlend mode="multiply" in2="BackgroundImageFix" result="effect1_dropShadow_611_3815"/>
<feColorMatrix in="SourceAlpha" type="matrix" values="0 0 0 0 0 0 0 0 0 0 0 0 0 0 0 0 0 0 127 0" result="hardAlpha"/>
<feOffset dy="12.2197"/>
<feGaussianBlur stdDeviation="7.9428"/>
<feColorMatrix type="matrix" values="0 0 0 0 0 0 0 0 0 0.4 0 0 0 0 1 0 0 0 1 0"/>
<feBlend mode="color-dodge" in2="effect1_dropShadow_611_3815" result="effect2_dropShadow_611_3815"/>
<feBlend mode="normal" in="SourceGraphic" in2="effect2_dropShadow_611_3815" result="shape"/>
<feColorMatrix in="SourceAlpha" type="matrix" values="0 0 0 0 0 0 0 0 0 0 0 0 0 0 0 0 0 0 127 0" result="hardAlpha"/>
<feOffset dx="-1.13469" dy="2.26937"/>
<feGaussianBlur stdDeviation="0.567343"/>
<feComposite in2="hardAlpha" operator="arithmetic" k2="-1" k3="1"/>
<feColorMatrix type="matrix" values="0 0 0 0 1 0 0 0 0 1 0 0 0 0 1 0 0 0 0.5 0"/>
<feBlend mode="normal" in2="shape" result="effect3_innerShadow_611_3815"/>
</filter>
<filter id="filter46_f_611_3815" x="963.667" y="399.349" width="145.76" height="146.625" filterUnits="userSpaceOnUse" color-interpolation-filters="sRGB">
<feFlood flood-opacity="0" result="BackgroundImageFix"/>
<feBlend mode="normal" in="SourceGraphic" in2="BackgroundImageFix" result="shape"/>
<feGaussianBlur stdDeviation="0.872835" result="effect1_foregroundBlur_611_3815"/>
</filter>
<filter id="filter47_f_611_3815" x="964.249" y="399.93" width="144.596" height="145.461" filterUnits="userSpaceOnUse" color-interpolation-filters="sRGB">
<feFlood flood-opacity="0" result="BackgroundImageFix"/>
<feBlend mode="normal" in="SourceGraphic" in2="BackgroundImageFix" result="shape"/>
<feGaussianBlur stdDeviation="0.58189" result="effect1_foregroundBlur_611_3815"/>
</filter>
<filter id="filter48_f_611_3815" x="-192.15" y="364.85" width="384.726" height="384.726" filterUnits="userSpaceOnUse" color-interpolation-filters="sRGB">
<feFlood flood-opacity="0" result="BackgroundImageFix"/>
<feBlend mode="normal" in="SourceGraphic" in2="BackgroundImageFix" result="shape"/>
<feGaussianBlur stdDeviation="3.575" result="effect1_foregroundBlur_611_3815"/>
</filter>
<filter id="filter49_f_611_3815" x="-105.53" y="452.993" width="216.509" height="215.508" filterUnits="userSpaceOnUse" color-interpolation-filters="sRGB">
<feFlood flood-opacity="0" result="BackgroundImageFix"/>
<feBlend mode="normal" in="SourceGraphic" in2="BackgroundImageFix" result="shape"/>
<feGaussianBlur stdDeviation="18.3295" result="effect1_foregroundBlur_611_3815"/>
</filter>
<filter id="filter50_f_611_3815" x="-81.0908" y="477.433" width="167.63" height="166.629" filterUnits="userSpaceOnUse" color-interpolation-filters="sRGB">
<feFlood flood-opacity="0" result="BackgroundImageFix"/>
<feBlend mode="normal" in="SourceGraphic" in2="BackgroundImageFix" result="shape"/>
<feGaussianBlur stdDeviation="6.10984" result="effect1_foregroundBlur_611_3815"/>
</filter>
<filter id="filter51_ddi_611_3815" x="-84.7567" y="485.986" width="174.962" height="173.961" filterUnits="userSpaceOnUse" color-interpolation-filters="sRGB">
<feFlood flood-opacity="0" result="BackgroundImageFix"/>
<feColorMatrix in="SourceAlpha" type="matrix" values="0 0 0 0 0 0 0 0 0 0 0 0 0 0 0 0 0 0 127 0" result="hardAlpha"/>
<feOffset dy="11.3469"/>
<feGaussianBlur stdDeviation="4.36417"/>
<feColorMatrix type="matrix" values="0 0 0 0 0 0 0 0 0 0.051 0 0 0 0 0.082 0 0 0 0.7 0"/>
<feBlend mode="multiply" in2="BackgroundImageFix" result="effect1_dropShadow_611_3815"/>
<feColorMatrix in="SourceAlpha" type="matrix" values="0 0 0 0 0 0 0 0 0 0 0 0 0 0 0 0 0 0 127 0" result="hardAlpha"/>
<feOffset dy="12.2197"/>
<feGaussianBlur stdDeviation="7.9428"/>
<feColorMatrix type="matrix" values="0 0 0 0 0 0 0 0 0 0.4 0 0 0 0 1 0 0 0 1 0"/>
<feBlend mode="color-dodge" in2="effect1_dropShadow_611_3815" result="effect2_dropShadow_611_3815"/>
<feBlend mode="normal" in="SourceGraphic" in2="effect2_dropShadow_611_3815" result="shape"/>
<feColorMatrix in="SourceAlpha" type="matrix" values="0 0 0 0 0 0 0 0 0 0 0 0 0 0 0 0 0 0 127 0" result="hardAlpha"/>
<feOffset dx="-1.13469" dy="2.26937"/>
<feGaussianBlur stdDeviation="0.567343"/>
<feComposite in2="hardAlpha" operator="arithmetic" k2="-1" k3="1"/>
<feColorMatrix type="matrix" values="0 0 0 0 1 0 0 0 0 1 0 0 0 0 1 0 0 0 0.5 0"/>
<feBlend mode="normal" in2="shape" result="effect3_innerShadow_611_3815"/>
</filter>
<filter id="filter52_f_611_3815" x="-70.6168" y="487.907" width="146.682" height="145.681" filterUnits="userSpaceOnUse" color-interpolation-filters="sRGB">
<feFlood flood-opacity="0" result="BackgroundImageFix"/>
<feBlend mode="normal" in="SourceGraphic" in2="BackgroundImageFix" result="shape"/>
<feGaussianBlur stdDeviation="0.872835" result="effect1_foregroundBlur_611_3815"/>
</filter>
<filter id="filter53_f_611_3815" x="-70.0349" y="488.489" width="145.518" height="144.518" filterUnits="userSpaceOnUse" color-interpolation-filters="sRGB">
<feFlood flood-opacity="0" result="BackgroundImageFix"/>
<feBlend mode="normal" in="SourceGraphic" in2="BackgroundImageFix" result="shape"/>
<feGaussianBlur stdDeviation="0.58189" result="effect1_foregroundBlur_611_3815"/>
</filter>
<filter id="filter54_f_611_3815" x="-171.15" y="-100.15" width="384.726" height="384.726" filterUnits="userSpaceOnUse" color-interpolation-filters="sRGB">
<feFlood flood-opacity="0" result="BackgroundImageFix"/>
<feBlend mode="normal" in="SourceGraphic" in2="BackgroundImageFix" result="shape"/>
<feGaussianBlur stdDeviation="3.575" result="effect1_foregroundBlur_611_3815"/>
</filter>
<filter id="filter55_f_611_3815" x="-84.5302" y="-12.0067" width="216.509" height="215.508" filterUnits="userSpaceOnUse" color-interpolation-filters="sRGB">
<feFlood flood-opacity="0" result="BackgroundImageFix"/>
<feBlend mode="normal" in="SourceGraphic" in2="BackgroundImageFix" result="shape"/>
<feGaussianBlur stdDeviation="18.3295" result="effect1_foregroundBlur_611_3815"/>
</filter>
<filter id="filter56_f_611_3815" x="-60.0908" y="12.4327" width="167.63" height="166.629" filterUnits="userSpaceOnUse" color-interpolation-filters="sRGB">
<feFlood flood-opacity="0" result="BackgroundImageFix"/>
<feBlend mode="normal" in="SourceGraphic" in2="BackgroundImageFix" result="shape"/>
<feGaussianBlur stdDeviation="6.10984" result="effect1_foregroundBlur_611_3815"/>
</filter>
<filter id="filter57_ddi_611_3815" x="-63.7567" y="20.9864" width="174.962" height="173.961" filterUnits="userSpaceOnUse" color-interpolation-filters="sRGB">
<feFlood flood-opacity="0" result="BackgroundImageFix"/>
<feColorMatrix in="SourceAlpha" type="matrix" values="0 0 0 0 0 0 0 0 0 0 0 0 0 0 0 0 0 0 127 0" result="hardAlpha"/>
<feOffset dy="11.3469"/>
<feGaussianBlur stdDeviation="4.36417"/>
<feColorMatrix type="matrix" values="0 0 0 0 0 0 0 0 0 0.051 0 0 0 0 0.082 0 0 0 0.7 0"/>
<feBlend mode="multiply" in2="BackgroundImageFix" result="effect1_dropShadow_611_3815"/>
<feColorMatrix in="SourceAlpha" type="matrix" values="0 0 0 0 0 0 0 0 0 0 0 0 0 0 0 0 0 0 127 0" result="hardAlpha"/>
<feOffset dy="12.2197"/>
<feGaussianBlur stdDeviation="7.9428"/>
<feColorMatrix type="matrix" values="0 0 0 0 0 0 0 0 0 0.4 0 0 0 0 1 0 0 0 1 0"/>
<feBlend mode="color-dodge" in2="effect1_dropShadow_611_3815" result="effect2_dropShadow_611_3815"/>
<feBlend mode="normal" in="SourceGraphic" in2="effect2_dropShadow_611_3815" result="shape"/>
<feColorMatrix in="SourceAlpha" type="matrix" values="0 0 0 0 0 0 0 0 0 0 0 0 0 0 0 0 0 0 127 0" result="hardAlpha"/>
<feOffset dx="-1.13469" dy="2.26937"/>
<feGaussianBlur stdDeviation="0.567343"/>
<feComposite in2="hardAlpha" operator="arithmetic" k2="-1" k3="1"/>
<feColorMatrix type="matrix" values="0 0 0 0 1 0 0 0 0 1 0 0 0 0 1 0 0 0 0.5 0"/>
<feBlend mode="normal" in2="shape" result="effect3_innerShadow_611_3815"/>
</filter>
<filter id="filter58_f_611_3815" x="-49.6168" y="22.9067" width="146.682" height="145.681" filterUnits="userSpaceOnUse" color-interpolation-filters="sRGB">
<feFlood flood-opacity="0" result="BackgroundImageFix"/>
<feBlend mode="normal" in="SourceGraphic" in2="BackgroundImageFix" result="shape"/>
<feGaussianBlur stdDeviation="0.872835" result="effect1_foregroundBlur_611_3815"/>
</filter>
<filter id="filter59_f_611_3815" x="-49.0349" y="23.4886" width="145.518" height="144.518" filterUnits="userSpaceOnUse" color-interpolation-filters="sRGB">
<feFlood flood-opacity="0" result="BackgroundImageFix"/>
<feBlend mode="normal" in="SourceGraphic" in2="BackgroundImageFix" result="shape"/>
<feGaussianBlur stdDeviation="0.58189" result="effect1_foregroundBlur_611_3815"/>
</filter>
</defs>
</svg>
