<svg viewBox="0 0 322 84" fill="none" xmlns="http://www.w3.org/2000/svg">
<g style="mix-blend-mode:hard-light" filter="url(#filter0_f_599_5260)">
<mask id="path-1-outside-1_599_5260" maskUnits="userSpaceOnUse" x="19.3291" y="19" width="283" height="45" fill="black">
<rect fill="white" x="19.3291" y="19" width="283" height="45"/>
<path d="M41.4791 24C43.6458 24 45.7458 24.3333 47.7791 25C49.8458 25.6667 51.6791 26.7333 53.2791 28.2C54.8791 29.6333 56.1624 31.4833 57.1291 33.75C58.1291 36.0167 58.6291 38.7333 58.6291 41.9C58.6291 45.0667 58.1291 47.7833 57.1291 50.05C56.1624 52.3167 54.8791 54.1833 53.2791 55.65C51.6791 57.0833 49.8458 58.1333 47.7791 58.8C45.7458 59.4667 43.6458 59.8 41.4791 59.8C39.3124 59.8 37.1958 59.4667 35.1291 58.8C33.0958 58.1333 31.2791 57.0833 29.6791 55.65C28.0791 54.1833 26.7791 52.3167 25.7791 50.05C24.8124 47.7833 24.3291 45.0667 24.3291 41.9C24.3291 38.7333 24.8124 36.0167 25.7791 33.75C26.7791 31.4833 28.0791 29.6333 29.6791 28.2C31.2791 26.7333 33.0958 25.6667 35.1291 25C37.1958 24.3333 39.3124 24 41.4791 24ZM41.4791 29C40.8124 29 39.9291 29.1167 38.8291 29.35C37.7624 29.5833 36.6958 30.1333 35.6291 31C34.5958 31.8667 33.6958 33.1667 32.9291 34.9C32.1958 36.6 31.8291 38.9333 31.8291 41.9C31.8291 44.8667 32.1958 47.2167 32.9291 48.95C33.6958 50.65 34.5958 51.9333 35.6291 52.8C36.6958 53.6667 37.7624 54.2167 38.8291 54.45C39.9291 54.6833 40.8124 54.8 41.4791 54.8C42.1458 54.8 43.0124 54.6833 44.0791 54.45C45.1791 54.2167 46.2458 53.6667 47.2791 52.8C48.3458 51.9333 49.2458 50.65 49.9791 48.95C50.7458 47.2167 51.1291 44.8667 51.1291 41.9C51.1291 38.9333 50.7458 36.6 49.9791 34.9C49.2458 33.1667 48.3458 31.8667 47.2791 31C46.2458 30.1333 45.1791 29.5833 44.0791 29.35C43.0124 29.1167 42.1458 29 41.4791 29ZM89.2975 24.4V30.6H73.9975V37.9H79.6975C82.2641 37.9 84.3475 38.2833 85.9475 39.05C87.5808 39.7833 88.8475 40.7167 89.7475 41.85C90.6808 42.9833 91.3141 44.2167 91.6475 45.55C91.9808 46.85 92.1475 48.0667 92.1475 49.2C92.1475 50.1333 91.9641 51.1833 91.5975 52.35C91.2308 53.5167 90.5808 54.6333 89.6475 55.7C88.7475 56.7333 87.4808 57.6167 85.8475 58.35C84.2475 59.05 82.1975 59.4 79.6975 59.4H66.8975V24.4H89.2975ZM73.9975 53.9H78.3975C80.3975 53.9 81.9308 53.4833 82.9975 52.65C84.0975 51.7833 84.6475 50.45 84.6475 48.65C84.6475 46.85 84.0975 45.5333 82.9975 44.7C81.9308 43.8333 80.3975 43.4 78.3975 43.4H73.9975V53.9ZM105.29 59.8C104.456 59.8 103.64 59.7333 102.84 59.6C102.073 59.5 101.256 59.2667 100.39 58.9V53.4C100.89 53.6667 101.44 53.8667 102.04 54C102.64 54.1 103.223 54.15 103.79 54.15C104.89 54.15 105.723 53.9667 106.29 53.6C106.89 53.2333 107.373 52.6333 107.74 51.8L108.74 49.45L95.8896 24.4H103.84L110.79 39.3L112.29 43H112.44L113.94 39.25L120.59 24.4H127.59L113.59 54.15C112.623 56.25 111.456 57.7167 110.09 58.55C108.756 59.3833 107.156 59.8 105.29 59.8ZM139.667 24.4V36.35C139.667 36.95 139.701 37.5833 139.767 38.25C139.834 38.8833 140.084 39.4833 140.517 40.05C140.951 40.5833 141.617 41.0333 142.517 41.4C143.451 41.7333 144.767 41.9 146.467 41.9C147.634 41.9 148.751 41.8333 149.817 41.7C150.884 41.5333 151.951 41.3167 153.017 41.05V24.4H160.117V59.4H153.017V46.95C152.051 47.15 151.067 47.3167 150.067 47.45C149.067 47.5833 147.867 47.65 146.467 47.65C143.467 47.65 141.051 47.35 139.217 46.75C137.417 46.15 136.017 45.3667 135.017 44.4C134.017 43.4333 133.351 42.3333 133.017 41.1C132.717 39.8667 132.567 38.6 132.567 37.3V24.4H139.667ZM190.512 24.4V30.6H176.712V38.5H189.262V44.25H176.712V53.2H190.512V59.4H169.612V24.4H190.512ZM206.117 24.4V38.5H220.317V24.4H227.417V59.4H220.317V44.25H206.117V59.4H199.017V24.4H206.117ZM244.017 24.4V42.4L243.867 50.9H244.017L246.517 45.8L258.767 24.4H267.267V59.4H260.167V41.35L260.317 32.9H260.167L257.767 38.2L245.417 59.4H236.917V24.4H244.017ZM297.671 24.4V30.6H283.871V38.5H296.421V44.25H283.871V53.2H297.671V59.4H276.771V24.4H297.671Z"/>
</mask>
<path d="M41.4791 24C43.6458 24 45.7458 24.3333 47.7791 25C49.8458 25.6667 51.6791 26.7333 53.2791 28.2C54.8791 29.6333 56.1624 31.4833 57.1291 33.75C58.1291 36.0167 58.6291 38.7333 58.6291 41.9C58.6291 45.0667 58.1291 47.7833 57.1291 50.05C56.1624 52.3167 54.8791 54.1833 53.2791 55.65C51.6791 57.0833 49.8458 58.1333 47.7791 58.8C45.7458 59.4667 43.6458 59.8 41.4791 59.8C39.3124 59.8 37.1958 59.4667 35.1291 58.8C33.0958 58.1333 31.2791 57.0833 29.6791 55.65C28.0791 54.1833 26.7791 52.3167 25.7791 50.05C24.8124 47.7833 24.3291 45.0667 24.3291 41.9C24.3291 38.7333 24.8124 36.0167 25.7791 33.75C26.7791 31.4833 28.0791 29.6333 29.6791 28.2C31.2791 26.7333 33.0958 25.6667 35.1291 25C37.1958 24.3333 39.3124 24 41.4791 24ZM41.4791 29C40.8124 29 39.9291 29.1167 38.8291 29.35C37.7624 29.5833 36.6958 30.1333 35.6291 31C34.5958 31.8667 33.6958 33.1667 32.9291 34.9C32.1958 36.6 31.8291 38.9333 31.8291 41.9C31.8291 44.8667 32.1958 47.2167 32.9291 48.95C33.6958 50.65 34.5958 51.9333 35.6291 52.8C36.6958 53.6667 37.7624 54.2167 38.8291 54.45C39.9291 54.6833 40.8124 54.8 41.4791 54.8C42.1458 54.8 43.0124 54.6833 44.0791 54.45C45.1791 54.2167 46.2458 53.6667 47.2791 52.8C48.3458 51.9333 49.2458 50.65 49.9791 48.95C50.7458 47.2167 51.1291 44.8667 51.1291 41.9C51.1291 38.9333 50.7458 36.6 49.9791 34.9C49.2458 33.1667 48.3458 31.8667 47.2791 31C46.2458 30.1333 45.1791 29.5833 44.0791 29.35C43.0124 29.1167 42.1458 29 41.4791 29ZM89.2975 24.4V30.6H73.9975V37.9H79.6975C82.2641 37.9 84.3475 38.2833 85.9475 39.05C87.5808 39.7833 88.8475 40.7167 89.7475 41.85C90.6808 42.9833 91.3141 44.2167 91.6475 45.55C91.9808 46.85 92.1475 48.0667 92.1475 49.2C92.1475 50.1333 91.9641 51.1833 91.5975 52.35C91.2308 53.5167 90.5808 54.6333 89.6475 55.7C88.7475 56.7333 87.4808 57.6167 85.8475 58.35C84.2475 59.05 82.1975 59.4 79.6975 59.4H66.8975V24.4H89.2975ZM73.9975 53.9H78.3975C80.3975 53.9 81.9308 53.4833 82.9975 52.65C84.0975 51.7833 84.6475 50.45 84.6475 48.65C84.6475 46.85 84.0975 45.5333 82.9975 44.7C81.9308 43.8333 80.3975 43.4 78.3975 43.4H73.9975V53.9ZM105.29 59.8C104.456 59.8 103.64 59.7333 102.84 59.6C102.073 59.5 101.256 59.2667 100.39 58.9V53.4C100.89 53.6667 101.44 53.8667 102.04 54C102.64 54.1 103.223 54.15 103.79 54.15C104.89 54.15 105.723 53.9667 106.29 53.6C106.89 53.2333 107.373 52.6333 107.74 51.8L108.74 49.45L95.8896 24.4H103.84L110.79 39.3L112.29 43H112.44L113.94 39.25L120.59 24.4H127.59L113.59 54.15C112.623 56.25 111.456 57.7167 110.09 58.55C108.756 59.3833 107.156 59.8 105.29 59.8ZM139.667 24.4V36.35C139.667 36.95 139.701 37.5833 139.767 38.25C139.834 38.8833 140.084 39.4833 140.517 40.05C140.951 40.5833 141.617 41.0333 142.517 41.4C143.451 41.7333 144.767 41.9 146.467 41.9C147.634 41.9 148.751 41.8333 149.817 41.7C150.884 41.5333 151.951 41.3167 153.017 41.05V24.4H160.117V59.4H153.017V46.95C152.051 47.15 151.067 47.3167 150.067 47.45C149.067 47.5833 147.867 47.65 146.467 47.65C143.467 47.65 141.051 47.35 139.217 46.75C137.417 46.15 136.017 45.3667 135.017 44.4C134.017 43.4333 133.351 42.3333 133.017 41.1C132.717 39.8667 132.567 38.6 132.567 37.3V24.4H139.667ZM190.512 24.4V30.6H176.712V38.5H189.262V44.25H176.712V53.2H190.512V59.4H169.612V24.4H190.512ZM206.117 24.4V38.5H220.317V24.4H227.417V59.4H220.317V44.25H206.117V59.4H199.017V24.4H206.117ZM244.017 24.4V42.4L243.867 50.9H244.017L246.517 45.8L258.767 24.4H267.267V59.4H260.167V41.35L260.317 32.9H260.167L257.767 38.2L245.417 59.4H236.917V24.4H244.017ZM297.671 24.4V30.6H283.871V38.5H296.421V44.25H283.871V53.2H297.671V59.4H276.771V24.4H297.671Z" stroke="#0094FF" stroke-width="8.34638" mask="url(#path-1-outside-1_599_5260)"/>
</g>
<g style="mix-blend-mode:hard-light" filter="url(#filter1_f_599_5260)">
<mask id="path-2-outside-2_599_5260" maskUnits="userSpaceOnUse" x="18.3291" y="18" width="285" height="48" fill="black">
<rect fill="white" x="18.3291" y="18" width="285" height="48"/>
<path d="M41.4791 24C43.6458 24 45.7458 24.3333 47.7791 25C49.8458 25.6667 51.6791 26.7333 53.2791 28.2C54.8791 29.6333 56.1624 31.4833 57.1291 33.75C58.1291 36.0167 58.6291 38.7333 58.6291 41.9C58.6291 45.0667 58.1291 47.7833 57.1291 50.05C56.1624 52.3167 54.8791 54.1833 53.2791 55.65C51.6791 57.0833 49.8458 58.1333 47.7791 58.8C45.7458 59.4667 43.6458 59.8 41.4791 59.8C39.3124 59.8 37.1958 59.4667 35.1291 58.8C33.0958 58.1333 31.2791 57.0833 29.6791 55.65C28.0791 54.1833 26.7791 52.3167 25.7791 50.05C24.8124 47.7833 24.3291 45.0667 24.3291 41.9C24.3291 38.7333 24.8124 36.0167 25.7791 33.75C26.7791 31.4833 28.0791 29.6333 29.6791 28.2C31.2791 26.7333 33.0958 25.6667 35.1291 25C37.1958 24.3333 39.3124 24 41.4791 24ZM41.4791 29C40.8124 29 39.9291 29.1167 38.8291 29.35C37.7624 29.5833 36.6958 30.1333 35.6291 31C34.5958 31.8667 33.6958 33.1667 32.9291 34.9C32.1958 36.6 31.8291 38.9333 31.8291 41.9C31.8291 44.8667 32.1958 47.2167 32.9291 48.95C33.6958 50.65 34.5958 51.9333 35.6291 52.8C36.6958 53.6667 37.7624 54.2167 38.8291 54.45C39.9291 54.6833 40.8124 54.8 41.4791 54.8C42.1458 54.8 43.0124 54.6833 44.0791 54.45C45.1791 54.2167 46.2458 53.6667 47.2791 52.8C48.3458 51.9333 49.2458 50.65 49.9791 48.95C50.7458 47.2167 51.1291 44.8667 51.1291 41.9C51.1291 38.9333 50.7458 36.6 49.9791 34.9C49.2458 33.1667 48.3458 31.8667 47.2791 31C46.2458 30.1333 45.1791 29.5833 44.0791 29.35C43.0124 29.1167 42.1458 29 41.4791 29ZM89.2975 24.4V30.6H73.9975V37.9H79.6975C82.2641 37.9 84.3475 38.2833 85.9475 39.05C87.5808 39.7833 88.8475 40.7167 89.7475 41.85C90.6808 42.9833 91.3141 44.2167 91.6475 45.55C91.9808 46.85 92.1475 48.0667 92.1475 49.2C92.1475 50.1333 91.9641 51.1833 91.5975 52.35C91.2308 53.5167 90.5808 54.6333 89.6475 55.7C88.7475 56.7333 87.4808 57.6167 85.8475 58.35C84.2475 59.05 82.1975 59.4 79.6975 59.4H66.8975V24.4H89.2975ZM73.9975 53.9H78.3975C80.3975 53.9 81.9308 53.4833 82.9975 52.65C84.0975 51.7833 84.6475 50.45 84.6475 48.65C84.6475 46.85 84.0975 45.5333 82.9975 44.7C81.9308 43.8333 80.3975 43.4 78.3975 43.4H73.9975V53.9ZM105.29 59.8C104.456 59.8 103.64 59.7333 102.84 59.6C102.073 59.5 101.256 59.2667 100.39 58.9V53.4C100.89 53.6667 101.44 53.8667 102.04 54C102.64 54.1 103.223 54.15 103.79 54.15C104.89 54.15 105.723 53.9667 106.29 53.6C106.89 53.2333 107.373 52.6333 107.74 51.8L108.74 49.45L95.8896 24.4H103.84L110.79 39.3L112.29 43H112.44L113.94 39.25L120.59 24.4H127.59L113.59 54.15C112.623 56.25 111.456 57.7167 110.09 58.55C108.756 59.3833 107.156 59.8 105.29 59.8ZM139.667 24.4V36.35C139.667 36.95 139.701 37.5833 139.767 38.25C139.834 38.8833 140.084 39.4833 140.517 40.05C140.951 40.5833 141.617 41.0333 142.517 41.4C143.451 41.7333 144.767 41.9 146.467 41.9C147.634 41.9 148.751 41.8333 149.817 41.7C150.884 41.5333 151.951 41.3167 153.017 41.05V24.4H160.117V59.4H153.017V46.95C152.051 47.15 151.067 47.3167 150.067 47.45C149.067 47.5833 147.867 47.65 146.467 47.65C143.467 47.65 141.051 47.35 139.217 46.75C137.417 46.15 136.017 45.3667 135.017 44.4C134.017 43.4333 133.351 42.3333 133.017 41.1C132.717 39.8667 132.567 38.6 132.567 37.3V24.4H139.667ZM190.512 24.4V30.6H176.712V38.5H189.262V44.25H176.712V53.2H190.512V59.4H169.612V24.4H190.512ZM206.117 24.4V38.5H220.317V24.4H227.417V59.4H220.317V44.25H206.117V59.4H199.017V24.4H206.117ZM244.017 24.4V42.4L243.867 50.9H244.017L246.517 45.8L258.767 24.4H267.267V59.4H260.167V41.35L260.317 32.9H260.167L257.767 38.2L245.417 59.4H236.917V24.4H244.017ZM297.671 24.4V30.6H283.871V38.5H296.421V44.25H283.871V53.2H297.671V59.4H276.771V24.4H297.671Z"/>
</mask>
<path d="M41.4791 24C43.6458 24 45.7458 24.3333 47.7791 25C49.8458 25.6667 51.6791 26.7333 53.2791 28.2C54.8791 29.6333 56.1624 31.4833 57.1291 33.75C58.1291 36.0167 58.6291 38.7333 58.6291 41.9C58.6291 45.0667 58.1291 47.7833 57.1291 50.05C56.1624 52.3167 54.8791 54.1833 53.2791 55.65C51.6791 57.0833 49.8458 58.1333 47.7791 58.8C45.7458 59.4667 43.6458 59.8 41.4791 59.8C39.3124 59.8 37.1958 59.4667 35.1291 58.8C33.0958 58.1333 31.2791 57.0833 29.6791 55.65C28.0791 54.1833 26.7791 52.3167 25.7791 50.05C24.8124 47.7833 24.3291 45.0667 24.3291 41.9C24.3291 38.7333 24.8124 36.0167 25.7791 33.75C26.7791 31.4833 28.0791 29.6333 29.6791 28.2C31.2791 26.7333 33.0958 25.6667 35.1291 25C37.1958 24.3333 39.3124 24 41.4791 24ZM41.4791 29C40.8124 29 39.9291 29.1167 38.8291 29.35C37.7624 29.5833 36.6958 30.1333 35.6291 31C34.5958 31.8667 33.6958 33.1667 32.9291 34.9C32.1958 36.6 31.8291 38.9333 31.8291 41.9C31.8291 44.8667 32.1958 47.2167 32.9291 48.95C33.6958 50.65 34.5958 51.9333 35.6291 52.8C36.6958 53.6667 37.7624 54.2167 38.8291 54.45C39.9291 54.6833 40.8124 54.8 41.4791 54.8C42.1458 54.8 43.0124 54.6833 44.0791 54.45C45.1791 54.2167 46.2458 53.6667 47.2791 52.8C48.3458 51.9333 49.2458 50.65 49.9791 48.95C50.7458 47.2167 51.1291 44.8667 51.1291 41.9C51.1291 38.9333 50.7458 36.6 49.9791 34.9C49.2458 33.1667 48.3458 31.8667 47.2791 31C46.2458 30.1333 45.1791 29.5833 44.0791 29.35C43.0124 29.1167 42.1458 29 41.4791 29ZM89.2975 24.4V30.6H73.9975V37.9H79.6975C82.2641 37.9 84.3475 38.2833 85.9475 39.05C87.5808 39.7833 88.8475 40.7167 89.7475 41.85C90.6808 42.9833 91.3141 44.2167 91.6475 45.55C91.9808 46.85 92.1475 48.0667 92.1475 49.2C92.1475 50.1333 91.9641 51.1833 91.5975 52.35C91.2308 53.5167 90.5808 54.6333 89.6475 55.7C88.7475 56.7333 87.4808 57.6167 85.8475 58.35C84.2475 59.05 82.1975 59.4 79.6975 59.4H66.8975V24.4H89.2975ZM73.9975 53.9H78.3975C80.3975 53.9 81.9308 53.4833 82.9975 52.65C84.0975 51.7833 84.6475 50.45 84.6475 48.65C84.6475 46.85 84.0975 45.5333 82.9975 44.7C81.9308 43.8333 80.3975 43.4 78.3975 43.4H73.9975V53.9ZM105.29 59.8C104.456 59.8 103.64 59.7333 102.84 59.6C102.073 59.5 101.256 59.2667 100.39 58.9V53.4C100.89 53.6667 101.44 53.8667 102.04 54C102.64 54.1 103.223 54.15 103.79 54.15C104.89 54.15 105.723 53.9667 106.29 53.6C106.89 53.2333 107.373 52.6333 107.74 51.8L108.74 49.45L95.8896 24.4H103.84L110.79 39.3L112.29 43H112.44L113.94 39.25L120.59 24.4H127.59L113.59 54.15C112.623 56.25 111.456 57.7167 110.09 58.55C108.756 59.3833 107.156 59.8 105.29 59.8ZM139.667 24.4V36.35C139.667 36.95 139.701 37.5833 139.767 38.25C139.834 38.8833 140.084 39.4833 140.517 40.05C140.951 40.5833 141.617 41.0333 142.517 41.4C143.451 41.7333 144.767 41.9 146.467 41.9C147.634 41.9 148.751 41.8333 149.817 41.7C150.884 41.5333 151.951 41.3167 153.017 41.05V24.4H160.117V59.4H153.017V46.95C152.051 47.15 151.067 47.3167 150.067 47.45C149.067 47.5833 147.867 47.65 146.467 47.65C143.467 47.65 141.051 47.35 139.217 46.75C137.417 46.15 136.017 45.3667 135.017 44.4C134.017 43.4333 133.351 42.3333 133.017 41.1C132.717 39.8667 132.567 38.6 132.567 37.3V24.4H139.667ZM190.512 24.4V30.6H176.712V38.5H189.262V44.25H176.712V53.2H190.512V59.4H169.612V24.4H190.512ZM206.117 24.4V38.5H220.317V24.4H227.417V59.4H220.317V44.25H206.117V59.4H199.017V24.4H206.117ZM244.017 24.4V42.4L243.867 50.9H244.017L246.517 45.8L258.767 24.4H267.267V59.4H260.167V41.35L260.317 32.9H260.167L257.767 38.2L245.417 59.4H236.917V24.4H244.017ZM297.671 24.4V30.6H283.871V38.5H296.421V44.25H283.871V53.2H297.671V59.4H276.771V24.4H297.671Z" stroke="#0094FF" stroke-width="10.9145" mask="url(#path-2-outside-2_599_5260)"/>
</g>
<mask id="path-3-outside-3_599_5260" maskUnits="userSpaceOnUse" x="22.3291" y="22" width="277" height="40" fill="black">
<rect fill="white" x="22.3291" y="22" width="277" height="40"/>
<path d="M41.4791 24C43.6458 24 45.7458 24.3333 47.7791 25C49.8458 25.6667 51.6791 26.7333 53.2791 28.2C54.8791 29.6333 56.1624 31.4833 57.1291 33.75C58.1291 36.0167 58.6291 38.7333 58.6291 41.9C58.6291 45.0667 58.1291 47.7833 57.1291 50.05C56.1624 52.3167 54.8791 54.1833 53.2791 55.65C51.6791 57.0833 49.8458 58.1333 47.7791 58.8C45.7458 59.4667 43.6458 59.8 41.4791 59.8C39.3124 59.8 37.1958 59.4667 35.1291 58.8C33.0958 58.1333 31.2791 57.0833 29.6791 55.65C28.0791 54.1833 26.7791 52.3167 25.7791 50.05C24.8124 47.7833 24.3291 45.0667 24.3291 41.9C24.3291 38.7333 24.8124 36.0167 25.7791 33.75C26.7791 31.4833 28.0791 29.6333 29.6791 28.2C31.2791 26.7333 33.0958 25.6667 35.1291 25C37.1958 24.3333 39.3124 24 41.4791 24ZM41.4791 29C40.8124 29 39.9291 29.1167 38.8291 29.35C37.7624 29.5833 36.6958 30.1333 35.6291 31C34.5958 31.8667 33.6958 33.1667 32.9291 34.9C32.1958 36.6 31.8291 38.9333 31.8291 41.9C31.8291 44.8667 32.1958 47.2167 32.9291 48.95C33.6958 50.65 34.5958 51.9333 35.6291 52.8C36.6958 53.6667 37.7624 54.2167 38.8291 54.45C39.9291 54.6833 40.8124 54.8 41.4791 54.8C42.1458 54.8 43.0124 54.6833 44.0791 54.45C45.1791 54.2167 46.2458 53.6667 47.2791 52.8C48.3458 51.9333 49.2458 50.65 49.9791 48.95C50.7458 47.2167 51.1291 44.8667 51.1291 41.9C51.1291 38.9333 50.7458 36.6 49.9791 34.9C49.2458 33.1667 48.3458 31.8667 47.2791 31C46.2458 30.1333 45.1791 29.5833 44.0791 29.35C43.0124 29.1167 42.1458 29 41.4791 29Z"/>
<path d="M89.2975 24.4V30.6H73.9975V37.9H79.6975C82.2641 37.9 84.3475 38.2833 85.9475 39.05C87.5808 39.7833 88.8475 40.7167 89.7475 41.85C90.6808 42.9833 91.3141 44.2167 91.6475 45.55C91.9808 46.85 92.1475 48.0667 92.1475 49.2C92.1475 50.1333 91.9641 51.1833 91.5975 52.35C91.2308 53.5167 90.5808 54.6333 89.6475 55.7C88.7475 56.7333 87.4808 57.6167 85.8475 58.35C84.2475 59.05 82.1975 59.4 79.6975 59.4H66.8975V24.4H89.2975ZM73.9975 53.9H78.3975C80.3975 53.9 81.9308 53.4833 82.9975 52.65C84.0975 51.7833 84.6475 50.45 84.6475 48.65C84.6475 46.85 84.0975 45.5333 82.9975 44.7C81.9308 43.8333 80.3975 43.4 78.3975 43.4H73.9975V53.9Z"/>
<path d="M105.29 59.8C104.456 59.8 103.64 59.7333 102.84 59.6C102.073 59.5 101.256 59.2667 100.39 58.9V53.4C100.89 53.6667 101.44 53.8667 102.04 54C102.64 54.1 103.223 54.15 103.79 54.15C104.89 54.15 105.723 53.9667 106.29 53.6C106.89 53.2333 107.373 52.6333 107.74 51.8L108.74 49.45L95.8896 24.4H103.84L110.79 39.3L112.29 43H112.44L113.94 39.25L120.59 24.4H127.59L113.59 54.15C112.623 56.25 111.456 57.7167 110.09 58.55C108.756 59.3833 107.156 59.8 105.29 59.8Z"/>
<path d="M139.667 24.4V36.35C139.667 36.95 139.701 37.5833 139.767 38.25C139.834 38.8833 140.084 39.4833 140.517 40.05C140.951 40.5833 141.617 41.0333 142.517 41.4C143.451 41.7333 144.767 41.9 146.467 41.9C147.634 41.9 148.751 41.8333 149.817 41.7C150.884 41.5333 151.951 41.3167 153.017 41.05V24.4H160.117V59.4H153.017V46.95C152.051 47.15 151.067 47.3167 150.067 47.45C149.067 47.5833 147.867 47.65 146.467 47.65C143.467 47.65 141.051 47.35 139.217 46.75C137.417 46.15 136.017 45.3667 135.017 44.4C134.017 43.4333 133.351 42.3333 133.017 41.1C132.717 39.8667 132.567 38.6 132.567 37.3V24.4H139.667Z"/>
<path d="M190.512 24.4V30.6H176.712V38.5H189.262V44.25H176.712V53.2H190.512V59.4H169.612V24.4H190.512Z"/>
<path d="M206.117 24.4V38.5H220.317V24.4H227.417V59.4H220.317V44.25H206.117V59.4H199.017V24.4H206.117Z"/>
<path d="M244.017 24.4V42.4L243.867 50.9H244.017L246.517 45.8L258.767 24.4H267.267V59.4H260.167V41.35L260.317 32.9H260.167L257.767 38.2L245.417 59.4H236.917V24.4H244.017Z"/>
<path d="M297.671 24.4V30.6H283.871V38.5H296.421V44.25H283.871V53.2H297.671V59.4H276.771V24.4H297.671Z"/>
</mask>
<path d="M41.4791 24C43.6458 24 45.7458 24.3333 47.7791 25C49.8458 25.6667 51.6791 26.7333 53.2791 28.2C54.8791 29.6333 56.1624 31.4833 57.1291 33.75C58.1291 36.0167 58.6291 38.7333 58.6291 41.9C58.6291 45.0667 58.1291 47.7833 57.1291 50.05C56.1624 52.3167 54.8791 54.1833 53.2791 55.65C51.6791 57.0833 49.8458 58.1333 47.7791 58.8C45.7458 59.4667 43.6458 59.8 41.4791 59.8C39.3124 59.8 37.1958 59.4667 35.1291 58.8C33.0958 58.1333 31.2791 57.0833 29.6791 55.65C28.0791 54.1833 26.7791 52.3167 25.7791 50.05C24.8124 47.7833 24.3291 45.0667 24.3291 41.9C24.3291 38.7333 24.8124 36.0167 25.7791 33.75C26.7791 31.4833 28.0791 29.6333 29.6791 28.2C31.2791 26.7333 33.0958 25.6667 35.1291 25C37.1958 24.3333 39.3124 24 41.4791 24ZM41.4791 29C40.8124 29 39.9291 29.1167 38.8291 29.35C37.7624 29.5833 36.6958 30.1333 35.6291 31C34.5958 31.8667 33.6958 33.1667 32.9291 34.9C32.1958 36.6 31.8291 38.9333 31.8291 41.9C31.8291 44.8667 32.1958 47.2167 32.9291 48.95C33.6958 50.65 34.5958 51.9333 35.6291 52.8C36.6958 53.6667 37.7624 54.2167 38.8291 54.45C39.9291 54.6833 40.8124 54.8 41.4791 54.8C42.1458 54.8 43.0124 54.6833 44.0791 54.45C45.1791 54.2167 46.2458 53.6667 47.2791 52.8C48.3458 51.9333 49.2458 50.65 49.9791 48.95C50.7458 47.2167 51.1291 44.8667 51.1291 41.9C51.1291 38.9333 50.7458 36.6 49.9791 34.9C49.2458 33.1667 48.3458 31.8667 47.2791 31C46.2458 30.1333 45.1791 29.5833 44.0791 29.35C43.0124 29.1167 42.1458 29 41.4791 29Z" fill="#0094FF"/>
<path d="M89.2975 24.4V30.6H73.9975V37.9H79.6975C82.2641 37.9 84.3475 38.2833 85.9475 39.05C87.5808 39.7833 88.8475 40.7167 89.7475 41.85C90.6808 42.9833 91.3141 44.2167 91.6475 45.55C91.9808 46.85 92.1475 48.0667 92.1475 49.2C92.1475 50.1333 91.9641 51.1833 91.5975 52.35C91.2308 53.5167 90.5808 54.6333 89.6475 55.7C88.7475 56.7333 87.4808 57.6167 85.8475 58.35C84.2475 59.05 82.1975 59.4 79.6975 59.4H66.8975V24.4H89.2975ZM73.9975 53.9H78.3975C80.3975 53.9 81.9308 53.4833 82.9975 52.65C84.0975 51.7833 84.6475 50.45 84.6475 48.65C84.6475 46.85 84.0975 45.5333 82.9975 44.7C81.9308 43.8333 80.3975 43.4 78.3975 43.4H73.9975V53.9Z" fill="#0094FF"/>
<path d="M105.29 59.8C104.456 59.8 103.64 59.7333 102.84 59.6C102.073 59.5 101.256 59.2667 100.39 58.9V53.4C100.89 53.6667 101.44 53.8667 102.04 54C102.64 54.1 103.223 54.15 103.79 54.15C104.89 54.15 105.723 53.9667 106.29 53.6C106.89 53.2333 107.373 52.6333 107.74 51.8L108.74 49.45L95.8896 24.4H103.84L110.79 39.3L112.29 43H112.44L113.94 39.25L120.59 24.4H127.59L113.59 54.15C112.623 56.25 111.456 57.7167 110.09 58.55C108.756 59.3833 107.156 59.8 105.29 59.8Z" fill="#0094FF"/>
<path d="M139.667 24.4V36.35C139.667 36.95 139.701 37.5833 139.767 38.25C139.834 38.8833 140.084 39.4833 140.517 40.05C140.951 40.5833 141.617 41.0333 142.517 41.4C143.451 41.7333 144.767 41.9 146.467 41.9C147.634 41.9 148.751 41.8333 149.817 41.7C150.884 41.5333 151.951 41.3167 153.017 41.05V24.4H160.117V59.4H153.017V46.95C152.051 47.15 151.067 47.3167 150.067 47.45C149.067 47.5833 147.867 47.65 146.467 47.65C143.467 47.65 141.051 47.35 139.217 46.75C137.417 46.15 136.017 45.3667 135.017 44.4C134.017 43.4333 133.351 42.3333 133.017 41.1C132.717 39.8667 132.567 38.6 132.567 37.3V24.4H139.667Z" fill="#0094FF"/>
<path d="M190.512 24.4V30.6H176.712V38.5H189.262V44.25H176.712V53.2H190.512V59.4H169.612V24.4H190.512Z" fill="#0094FF"/>
<path d="M206.117 24.4V38.5H220.317V24.4H227.417V59.4H220.317V44.25H206.117V59.4H199.017V24.4H206.117Z" fill="#0094FF"/>
<path d="M244.017 24.4V42.4L243.867 50.9H244.017L246.517 45.8L258.767 24.4H267.267V59.4H260.167V41.35L260.317 32.9H260.167L257.767 38.2L245.417 59.4H236.917V24.4H244.017Z" fill="#0094FF"/>
<path d="M297.671 24.4V30.6H283.871V38.5H296.421V44.25H283.871V53.2H297.671V59.4H276.771V24.4H297.671Z" fill="#0094FF"/>
<path d="M41.4791 24C43.6458 24 45.7458 24.3333 47.7791 25C49.8458 25.6667 51.6791 26.7333 53.2791 28.2C54.8791 29.6333 56.1624 31.4833 57.1291 33.75C58.1291 36.0167 58.6291 38.7333 58.6291 41.9C58.6291 45.0667 58.1291 47.7833 57.1291 50.05C56.1624 52.3167 54.8791 54.1833 53.2791 55.65C51.6791 57.0833 49.8458 58.1333 47.7791 58.8C45.7458 59.4667 43.6458 59.8 41.4791 59.8C39.3124 59.8 37.1958 59.4667 35.1291 58.8C33.0958 58.1333 31.2791 57.0833 29.6791 55.65C28.0791 54.1833 26.7791 52.3167 25.7791 50.05C24.8124 47.7833 24.3291 45.0667 24.3291 41.9C24.3291 38.7333 24.8124 36.0167 25.7791 33.75C26.7791 31.4833 28.0791 29.6333 29.6791 28.2C31.2791 26.7333 33.0958 25.6667 35.1291 25C37.1958 24.3333 39.3124 24 41.4791 24ZM41.4791 29C40.8124 29 39.9291 29.1167 38.8291 29.35C37.7624 29.5833 36.6958 30.1333 35.6291 31C34.5958 31.8667 33.6958 33.1667 32.9291 34.9C32.1958 36.6 31.8291 38.9333 31.8291 41.9C31.8291 44.8667 32.1958 47.2167 32.9291 48.95C33.6958 50.65 34.5958 51.9333 35.6291 52.8C36.6958 53.6667 37.7624 54.2167 38.8291 54.45C39.9291 54.6833 40.8124 54.8 41.4791 54.8C42.1458 54.8 43.0124 54.6833 44.0791 54.45C45.1791 54.2167 46.2458 53.6667 47.2791 52.8C48.3458 51.9333 49.2458 50.65 49.9791 48.95C50.7458 47.2167 51.1291 44.8667 51.1291 41.9C51.1291 38.9333 50.7458 36.6 49.9791 34.9C49.2458 33.1667 48.3458 31.8667 47.2791 31C46.2458 30.1333 45.1791 29.5833 44.0791 29.35C43.0124 29.1167 42.1458 29 41.4791 29Z" stroke="white" stroke-width="2.56812" mask="url(#path-3-outside-3_599_5260)"/>
<path d="M89.2975 24.4V30.6H73.9975V37.9H79.6975C82.2641 37.9 84.3475 38.2833 85.9475 39.05C87.5808 39.7833 88.8475 40.7167 89.7475 41.85C90.6808 42.9833 91.3141 44.2167 91.6475 45.55C91.9808 46.85 92.1475 48.0667 92.1475 49.2C92.1475 50.1333 91.9641 51.1833 91.5975 52.35C91.2308 53.5167 90.5808 54.6333 89.6475 55.7C88.7475 56.7333 87.4808 57.6167 85.8475 58.35C84.2475 59.05 82.1975 59.4 79.6975 59.4H66.8975V24.4H89.2975ZM73.9975 53.9H78.3975C80.3975 53.9 81.9308 53.4833 82.9975 52.65C84.0975 51.7833 84.6475 50.45 84.6475 48.65C84.6475 46.85 84.0975 45.5333 82.9975 44.7C81.9308 43.8333 80.3975 43.4 78.3975 43.4H73.9975V53.9Z" stroke="white" stroke-width="2.56812" mask="url(#path-3-outside-3_599_5260)"/>
<path d="M105.29 59.8C104.456 59.8 103.64 59.7333 102.84 59.6C102.073 59.5 101.256 59.2667 100.39 58.9V53.4C100.89 53.6667 101.44 53.8667 102.04 54C102.64 54.1 103.223 54.15 103.79 54.15C104.89 54.15 105.723 53.9667 106.29 53.6C106.89 53.2333 107.373 52.6333 107.74 51.8L108.74 49.45L95.8896 24.4H103.84L110.79 39.3L112.29 43H112.44L113.94 39.25L120.59 24.4H127.59L113.59 54.15C112.623 56.25 111.456 57.7167 110.09 58.55C108.756 59.3833 107.156 59.8 105.29 59.8Z" stroke="white" stroke-width="2.56812" mask="url(#path-3-outside-3_599_5260)"/>
<path d="M139.667 24.4V36.35C139.667 36.95 139.701 37.5833 139.767 38.25C139.834 38.8833 140.084 39.4833 140.517 40.05C140.951 40.5833 141.617 41.0333 142.517 41.4C143.451 41.7333 144.767 41.9 146.467 41.9C147.634 41.9 148.751 41.8333 149.817 41.7C150.884 41.5333 151.951 41.3167 153.017 41.05V24.4H160.117V59.4H153.017V46.95C152.051 47.15 151.067 47.3167 150.067 47.45C149.067 47.5833 147.867 47.65 146.467 47.65C143.467 47.65 141.051 47.35 139.217 46.75C137.417 46.15 136.017 45.3667 135.017 44.4C134.017 43.4333 133.351 42.3333 133.017 41.1C132.717 39.8667 132.567 38.6 132.567 37.3V24.4H139.667Z" stroke="white" stroke-width="2.56812" mask="url(#path-3-outside-3_599_5260)"/>
<path d="M190.512 24.4V30.6H176.712V38.5H189.262V44.25H176.712V53.2H190.512V59.4H169.612V24.4H190.512Z" stroke="white" stroke-width="2.56812" mask="url(#path-3-outside-3_599_5260)"/>
<path d="M206.117 24.4V38.5H220.317V24.4H227.417V59.4H220.317V44.25H206.117V59.4H199.017V24.4H206.117Z" stroke="white" stroke-width="2.56812" mask="url(#path-3-outside-3_599_5260)"/>
<path d="M244.017 24.4V42.4L243.867 50.9H244.017L246.517 45.8L258.767 24.4H267.267V59.4H260.167V41.35L260.317 32.9H260.167L257.767 38.2L245.417 59.4H236.917V24.4H244.017Z" stroke="white" stroke-width="2.56812" mask="url(#path-3-outside-3_599_5260)"/>
<path d="M297.671 24.4V30.6H283.871V38.5H296.421V44.25H283.871V53.2H297.671V59.4H276.771V24.4H297.671Z" stroke="white" stroke-width="2.56812" mask="url(#path-3-outside-3_599_5260)"/>
<g style="mix-blend-mode:hard-light" filter="url(#filter2_ddi_599_5260)">
<mask id="path-4-outside-4_599_5260" maskUnits="userSpaceOnUse" x="19.3291" y="19" width="283" height="45" fill="black">
<rect fill="white" x="19.3291" y="19" width="283" height="45"/>
<path d="M41.4791 24C43.6458 24 45.7458 24.3333 47.7791 25C49.8458 25.6667 51.6791 26.7333 53.2791 28.2C54.8791 29.6333 56.1624 31.4833 57.1291 33.75C58.1291 36.0167 58.6291 38.7333 58.6291 41.9C58.6291 45.0667 58.1291 47.7833 57.1291 50.05C56.1624 52.3167 54.8791 54.1833 53.2791 55.65C51.6791 57.0833 49.8458 58.1333 47.7791 58.8C45.7458 59.4667 43.6458 59.8 41.4791 59.8C39.3124 59.8 37.1958 59.4667 35.1291 58.8C33.0958 58.1333 31.2791 57.0833 29.6791 55.65C28.0791 54.1833 26.7791 52.3167 25.7791 50.05C24.8124 47.7833 24.3291 45.0667 24.3291 41.9C24.3291 38.7333 24.8124 36.0167 25.7791 33.75C26.7791 31.4833 28.0791 29.6333 29.6791 28.2C31.2791 26.7333 33.0958 25.6667 35.1291 25C37.1958 24.3333 39.3124 24 41.4791 24ZM41.4791 29C40.8124 29 39.9291 29.1167 38.8291 29.35C37.7624 29.5833 36.6958 30.1333 35.6291 31C34.5958 31.8667 33.6958 33.1667 32.9291 34.9C32.1958 36.6 31.8291 38.9333 31.8291 41.9C31.8291 44.8667 32.1958 47.2167 32.9291 48.95C33.6958 50.65 34.5958 51.9333 35.6291 52.8C36.6958 53.6667 37.7624 54.2167 38.8291 54.45C39.9291 54.6833 40.8124 54.8 41.4791 54.8C42.1458 54.8 43.0124 54.6833 44.0791 54.45C45.1791 54.2167 46.2458 53.6667 47.2791 52.8C48.3458 51.9333 49.2458 50.65 49.9791 48.95C50.7458 47.2167 51.1291 44.8667 51.1291 41.9C51.1291 38.9333 50.7458 36.6 49.9791 34.9C49.2458 33.1667 48.3458 31.8667 47.2791 31C46.2458 30.1333 45.1791 29.5833 44.0791 29.35C43.0124 29.1167 42.1458 29 41.4791 29ZM89.2975 24.4V30.6H73.9975V37.9H79.6975C82.2641 37.9 84.3475 38.2833 85.9475 39.05C87.5808 39.7833 88.8475 40.7167 89.7475 41.85C90.6808 42.9833 91.3141 44.2167 91.6475 45.55C91.9808 46.85 92.1475 48.0667 92.1475 49.2C92.1475 50.1333 91.9641 51.1833 91.5975 52.35C91.2308 53.5167 90.5808 54.6333 89.6475 55.7C88.7475 56.7333 87.4808 57.6167 85.8475 58.35C84.2475 59.05 82.1975 59.4 79.6975 59.4H66.8975V24.4H89.2975ZM73.9975 53.9H78.3975C80.3975 53.9 81.9308 53.4833 82.9975 52.65C84.0975 51.7833 84.6475 50.45 84.6475 48.65C84.6475 46.85 84.0975 45.5333 82.9975 44.7C81.9308 43.8333 80.3975 43.4 78.3975 43.4H73.9975V53.9ZM105.29 59.8C104.456 59.8 103.64 59.7333 102.84 59.6C102.073 59.5 101.256 59.2667 100.39 58.9V53.4C100.89 53.6667 101.44 53.8667 102.04 54C102.64 54.1 103.223 54.15 103.79 54.15C104.89 54.15 105.723 53.9667 106.29 53.6C106.89 53.2333 107.373 52.6333 107.74 51.8L108.74 49.45L95.8896 24.4H103.84L110.79 39.3L112.29 43H112.44L113.94 39.25L120.59 24.4H127.59L113.59 54.15C112.623 56.25 111.456 57.7167 110.09 58.55C108.756 59.3833 107.156 59.8 105.29 59.8ZM139.667 24.4V36.35C139.667 36.95 139.701 37.5833 139.767 38.25C139.834 38.8833 140.084 39.4833 140.517 40.05C140.951 40.5833 141.617 41.0333 142.517 41.4C143.451 41.7333 144.767 41.9 146.467 41.9C147.634 41.9 148.751 41.8333 149.817 41.7C150.884 41.5333 151.951 41.3167 153.017 41.05V24.4H160.117V59.4H153.017V46.95C152.051 47.15 151.067 47.3167 150.067 47.45C149.067 47.5833 147.867 47.65 146.467 47.65C143.467 47.65 141.051 47.35 139.217 46.75C137.417 46.15 136.017 45.3667 135.017 44.4C134.017 43.4333 133.351 42.3333 133.017 41.1C132.717 39.8667 132.567 38.6 132.567 37.3V24.4H139.667ZM190.512 24.4V30.6H176.712V38.5H189.262V44.25H176.712V53.2H190.512V59.4H169.612V24.4H190.512ZM206.117 24.4V38.5H220.317V24.4H227.417V59.4H220.317V44.25H206.117V59.4H199.017V24.4H206.117ZM244.017 24.4V42.4L243.867 50.9H244.017L246.517 45.8L258.767 24.4H267.267V59.4H260.167V41.35L260.317 32.9H260.167L257.767 38.2L245.417 59.4H236.917V24.4H244.017ZM297.671 24.4V30.6H283.871V38.5H296.421V44.25H283.871V53.2H297.671V59.4H276.771V24.4H297.671Z"/>
</mask>
<path d="M41.4791 24C43.6458 24 45.7458 24.3333 47.7791 25C49.8458 25.6667 51.6791 26.7333 53.2791 28.2C54.8791 29.6333 56.1624 31.4833 57.1291 33.75C58.1291 36.0167 58.6291 38.7333 58.6291 41.9C58.6291 45.0667 58.1291 47.7833 57.1291 50.05C56.1624 52.3167 54.8791 54.1833 53.2791 55.65C51.6791 57.0833 49.8458 58.1333 47.7791 58.8C45.7458 59.4667 43.6458 59.8 41.4791 59.8C39.3124 59.8 37.1958 59.4667 35.1291 58.8C33.0958 58.1333 31.2791 57.0833 29.6791 55.65C28.0791 54.1833 26.7791 52.3167 25.7791 50.05C24.8124 47.7833 24.3291 45.0667 24.3291 41.9C24.3291 38.7333 24.8124 36.0167 25.7791 33.75C26.7791 31.4833 28.0791 29.6333 29.6791 28.2C31.2791 26.7333 33.0958 25.6667 35.1291 25C37.1958 24.3333 39.3124 24 41.4791 24ZM41.4791 29C40.8124 29 39.9291 29.1167 38.8291 29.35C37.7624 29.5833 36.6958 30.1333 35.6291 31C34.5958 31.8667 33.6958 33.1667 32.9291 34.9C32.1958 36.6 31.8291 38.9333 31.8291 41.9C31.8291 44.8667 32.1958 47.2167 32.9291 48.95C33.6958 50.65 34.5958 51.9333 35.6291 52.8C36.6958 53.6667 37.7624 54.2167 38.8291 54.45C39.9291 54.6833 40.8124 54.8 41.4791 54.8C42.1458 54.8 43.0124 54.6833 44.0791 54.45C45.1791 54.2167 46.2458 53.6667 47.2791 52.8C48.3458 51.9333 49.2458 50.65 49.9791 48.95C50.7458 47.2167 51.1291 44.8667 51.1291 41.9C51.1291 38.9333 50.7458 36.6 49.9791 34.9C49.2458 33.1667 48.3458 31.8667 47.2791 31C46.2458 30.1333 45.1791 29.5833 44.0791 29.35C43.0124 29.1167 42.1458 29 41.4791 29ZM89.2975 24.4V30.6H73.9975V37.9H79.6975C82.2641 37.9 84.3475 38.2833 85.9475 39.05C87.5808 39.7833 88.8475 40.7167 89.7475 41.85C90.6808 42.9833 91.3141 44.2167 91.6475 45.55C91.9808 46.85 92.1475 48.0667 92.1475 49.2C92.1475 50.1333 91.9641 51.1833 91.5975 52.35C91.2308 53.5167 90.5808 54.6333 89.6475 55.7C88.7475 56.7333 87.4808 57.6167 85.8475 58.35C84.2475 59.05 82.1975 59.4 79.6975 59.4H66.8975V24.4H89.2975ZM73.9975 53.9H78.3975C80.3975 53.9 81.9308 53.4833 82.9975 52.65C84.0975 51.7833 84.6475 50.45 84.6475 48.65C84.6475 46.85 84.0975 45.5333 82.9975 44.7C81.9308 43.8333 80.3975 43.4 78.3975 43.4H73.9975V53.9ZM105.29 59.8C104.456 59.8 103.64 59.7333 102.84 59.6C102.073 59.5 101.256 59.2667 100.39 58.9V53.4C100.89 53.6667 101.44 53.8667 102.04 54C102.64 54.1 103.223 54.15 103.79 54.15C104.89 54.15 105.723 53.9667 106.29 53.6C106.89 53.2333 107.373 52.6333 107.74 51.8L108.74 49.45L95.8896 24.4H103.84L110.79 39.3L112.29 43H112.44L113.94 39.25L120.59 24.4H127.59L113.59 54.15C112.623 56.25 111.456 57.7167 110.09 58.55C108.756 59.3833 107.156 59.8 105.29 59.8ZM139.667 24.4V36.35C139.667 36.95 139.701 37.5833 139.767 38.25C139.834 38.8833 140.084 39.4833 140.517 40.05C140.951 40.5833 141.617 41.0333 142.517 41.4C143.451 41.7333 144.767 41.9 146.467 41.9C147.634 41.9 148.751 41.8333 149.817 41.7C150.884 41.5333 151.951 41.3167 153.017 41.05V24.4H160.117V59.4H153.017V46.95C152.051 47.15 151.067 47.3167 150.067 47.45C149.067 47.5833 147.867 47.65 146.467 47.65C143.467 47.65 141.051 47.35 139.217 46.75C137.417 46.15 136.017 45.3667 135.017 44.4C134.017 43.4333 133.351 42.3333 133.017 41.1C132.717 39.8667 132.567 38.6 132.567 37.3V24.4H139.667ZM190.512 24.4V30.6H176.712V38.5H189.262V44.25H176.712V53.2H190.512V59.4H169.612V24.4H190.512ZM206.117 24.4V38.5H220.317V24.4H227.417V59.4H220.317V44.25H206.117V59.4H199.017V24.4H206.117ZM244.017 24.4V42.4L243.867 50.9H244.017L246.517 45.8L258.767 24.4H267.267V59.4H260.167V41.35L260.317 32.9H260.167L257.767 38.2L245.417 59.4H236.917V24.4H244.017ZM297.671 24.4V30.6H283.871V38.5H296.421V44.25H283.871V53.2H297.671V59.4H276.771V24.4H297.671Z" stroke="#00B3FF" stroke-opacity="0.2" stroke-width="8.34638" mask="url(#path-4-outside-4_599_5260)"/>
</g>
<g filter="url(#filter3_f_599_5260)">
<mask id="path-5-outside-5_599_5260" maskUnits="userSpaceOnUse" x="21.3291" y="21" width="279" height="42" fill="black">
<rect fill="white" x="21.3291" y="21" width="279" height="42"/>
<path d="M41.4791 24C43.6458 24 45.7458 24.3333 47.7791 25C49.8458 25.6667 51.6791 26.7333 53.2791 28.2C54.8791 29.6333 56.1624 31.4833 57.1291 33.75C58.1291 36.0167 58.6291 38.7333 58.6291 41.9C58.6291 45.0667 58.1291 47.7833 57.1291 50.05C56.1624 52.3167 54.8791 54.1833 53.2791 55.65C51.6791 57.0833 49.8458 58.1333 47.7791 58.8C45.7458 59.4667 43.6458 59.8 41.4791 59.8C39.3124 59.8 37.1958 59.4667 35.1291 58.8C33.0958 58.1333 31.2791 57.0833 29.6791 55.65C28.0791 54.1833 26.7791 52.3167 25.7791 50.05C24.8124 47.7833 24.3291 45.0667 24.3291 41.9C24.3291 38.7333 24.8124 36.0167 25.7791 33.75C26.7791 31.4833 28.0791 29.6333 29.6791 28.2C31.2791 26.7333 33.0958 25.6667 35.1291 25C37.1958 24.3333 39.3124 24 41.4791 24ZM41.4791 29C40.8124 29 39.9291 29.1167 38.8291 29.35C37.7624 29.5833 36.6958 30.1333 35.6291 31C34.5958 31.8667 33.6958 33.1667 32.9291 34.9C32.1958 36.6 31.8291 38.9333 31.8291 41.9C31.8291 44.8667 32.1958 47.2167 32.9291 48.95C33.6958 50.65 34.5958 51.9333 35.6291 52.8C36.6958 53.6667 37.7624 54.2167 38.8291 54.45C39.9291 54.6833 40.8124 54.8 41.4791 54.8C42.1458 54.8 43.0124 54.6833 44.0791 54.45C45.1791 54.2167 46.2458 53.6667 47.2791 52.8C48.3458 51.9333 49.2458 50.65 49.9791 48.95C50.7458 47.2167 51.1291 44.8667 51.1291 41.9C51.1291 38.9333 50.7458 36.6 49.9791 34.9C49.2458 33.1667 48.3458 31.8667 47.2791 31C46.2458 30.1333 45.1791 29.5833 44.0791 29.35C43.0124 29.1167 42.1458 29 41.4791 29ZM89.2975 24.4V30.6H73.9975V37.9H79.6975C82.2641 37.9 84.3475 38.2833 85.9475 39.05C87.5808 39.7833 88.8475 40.7167 89.7475 41.85C90.6808 42.9833 91.3141 44.2167 91.6475 45.55C91.9808 46.85 92.1475 48.0667 92.1475 49.2C92.1475 50.1333 91.9641 51.1833 91.5975 52.35C91.2308 53.5167 90.5808 54.6333 89.6475 55.7C88.7475 56.7333 87.4808 57.6167 85.8475 58.35C84.2475 59.05 82.1975 59.4 79.6975 59.4H66.8975V24.4H89.2975ZM73.9975 53.9H78.3975C80.3975 53.9 81.9308 53.4833 82.9975 52.65C84.0975 51.7833 84.6475 50.45 84.6475 48.65C84.6475 46.85 84.0975 45.5333 82.9975 44.7C81.9308 43.8333 80.3975 43.4 78.3975 43.4H73.9975V53.9ZM105.29 59.8C104.456 59.8 103.64 59.7333 102.84 59.6C102.073 59.5 101.256 59.2667 100.39 58.9V53.4C100.89 53.6667 101.44 53.8667 102.04 54C102.64 54.1 103.223 54.15 103.79 54.15C104.89 54.15 105.723 53.9667 106.29 53.6C106.89 53.2333 107.373 52.6333 107.74 51.8L108.74 49.45L95.8896 24.4H103.84L110.79 39.3L112.29 43H112.44L113.94 39.25L120.59 24.4H127.59L113.59 54.15C112.623 56.25 111.456 57.7167 110.09 58.55C108.756 59.3833 107.156 59.8 105.29 59.8ZM139.667 24.4V36.35C139.667 36.95 139.701 37.5833 139.767 38.25C139.834 38.8833 140.084 39.4833 140.517 40.05C140.951 40.5833 141.617 41.0333 142.517 41.4C143.451 41.7333 144.767 41.9 146.467 41.9C147.634 41.9 148.751 41.8333 149.817 41.7C150.884 41.5333 151.951 41.3167 153.017 41.05V24.4H160.117V59.4H153.017V46.95C152.051 47.15 151.067 47.3167 150.067 47.45C149.067 47.5833 147.867 47.65 146.467 47.65C143.467 47.65 141.051 47.35 139.217 46.75C137.417 46.15 136.017 45.3667 135.017 44.4C134.017 43.4333 133.351 42.3333 133.017 41.1C132.717 39.8667 132.567 38.6 132.567 37.3V24.4H139.667ZM190.512 24.4V30.6H176.712V38.5H189.262V44.25H176.712V53.2H190.512V59.4H169.612V24.4H190.512ZM206.117 24.4V38.5H220.317V24.4H227.417V59.4H220.317V44.25H206.117V59.4H199.017V24.4H206.117ZM244.017 24.4V42.4L243.867 50.9H244.017L246.517 45.8L258.767 24.4H267.267V59.4H260.167V41.35L260.317 32.9H260.167L257.767 38.2L245.417 59.4H236.917V24.4H244.017ZM297.671 24.4V30.6H283.871V38.5H296.421V44.25H283.871V53.2H297.671V59.4H276.771V24.4H297.671Z"/>
</mask>
<path d="M41.4791 24C43.6458 24 45.7458 24.3333 47.7791 25C49.8458 25.6667 51.6791 26.7333 53.2791 28.2C54.8791 29.6333 56.1624 31.4833 57.1291 33.75C58.1291 36.0167 58.6291 38.7333 58.6291 41.9C58.6291 45.0667 58.1291 47.7833 57.1291 50.05C56.1624 52.3167 54.8791 54.1833 53.2791 55.65C51.6791 57.0833 49.8458 58.1333 47.7791 58.8C45.7458 59.4667 43.6458 59.8 41.4791 59.8C39.3124 59.8 37.1958 59.4667 35.1291 58.8C33.0958 58.1333 31.2791 57.0833 29.6791 55.65C28.0791 54.1833 26.7791 52.3167 25.7791 50.05C24.8124 47.7833 24.3291 45.0667 24.3291 41.9C24.3291 38.7333 24.8124 36.0167 25.7791 33.75C26.7791 31.4833 28.0791 29.6333 29.6791 28.2C31.2791 26.7333 33.0958 25.6667 35.1291 25C37.1958 24.3333 39.3124 24 41.4791 24ZM41.4791 29C40.8124 29 39.9291 29.1167 38.8291 29.35C37.7624 29.5833 36.6958 30.1333 35.6291 31C34.5958 31.8667 33.6958 33.1667 32.9291 34.9C32.1958 36.6 31.8291 38.9333 31.8291 41.9C31.8291 44.8667 32.1958 47.2167 32.9291 48.95C33.6958 50.65 34.5958 51.9333 35.6291 52.8C36.6958 53.6667 37.7624 54.2167 38.8291 54.45C39.9291 54.6833 40.8124 54.8 41.4791 54.8C42.1458 54.8 43.0124 54.6833 44.0791 54.45C45.1791 54.2167 46.2458 53.6667 47.2791 52.8C48.3458 51.9333 49.2458 50.65 49.9791 48.95C50.7458 47.2167 51.1291 44.8667 51.1291 41.9C51.1291 38.9333 50.7458 36.6 49.9791 34.9C49.2458 33.1667 48.3458 31.8667 47.2791 31C46.2458 30.1333 45.1791 29.5833 44.0791 29.35C43.0124 29.1167 42.1458 29 41.4791 29ZM89.2975 24.4V30.6H73.9975V37.9H79.6975C82.2641 37.9 84.3475 38.2833 85.9475 39.05C87.5808 39.7833 88.8475 40.7167 89.7475 41.85C90.6808 42.9833 91.3141 44.2167 91.6475 45.55C91.9808 46.85 92.1475 48.0667 92.1475 49.2C92.1475 50.1333 91.9641 51.1833 91.5975 52.35C91.2308 53.5167 90.5808 54.6333 89.6475 55.7C88.7475 56.7333 87.4808 57.6167 85.8475 58.35C84.2475 59.05 82.1975 59.4 79.6975 59.4H66.8975V24.4H89.2975ZM73.9975 53.9H78.3975C80.3975 53.9 81.9308 53.4833 82.9975 52.65C84.0975 51.7833 84.6475 50.45 84.6475 48.65C84.6475 46.85 84.0975 45.5333 82.9975 44.7C81.9308 43.8333 80.3975 43.4 78.3975 43.4H73.9975V53.9ZM105.29 59.8C104.456 59.8 103.64 59.7333 102.84 59.6C102.073 59.5 101.256 59.2667 100.39 58.9V53.4C100.89 53.6667 101.44 53.8667 102.04 54C102.64 54.1 103.223 54.15 103.79 54.15C104.89 54.15 105.723 53.9667 106.29 53.6C106.89 53.2333 107.373 52.6333 107.74 51.8L108.74 49.45L95.8896 24.4H103.84L110.79 39.3L112.29 43H112.44L113.94 39.25L120.59 24.4H127.59L113.59 54.15C112.623 56.25 111.456 57.7167 110.09 58.55C108.756 59.3833 107.156 59.8 105.29 59.8ZM139.667 24.4V36.35C139.667 36.95 139.701 37.5833 139.767 38.25C139.834 38.8833 140.084 39.4833 140.517 40.05C140.951 40.5833 141.617 41.0333 142.517 41.4C143.451 41.7333 144.767 41.9 146.467 41.9C147.634 41.9 148.751 41.8333 149.817 41.7C150.884 41.5333 151.951 41.3167 153.017 41.05V24.4H160.117V59.4H153.017V46.95C152.051 47.15 151.067 47.3167 150.067 47.45C149.067 47.5833 147.867 47.65 146.467 47.65C143.467 47.65 141.051 47.35 139.217 46.75C137.417 46.15 136.017 45.3667 135.017 44.4C134.017 43.4333 133.351 42.3333 133.017 41.1C132.717 39.8667 132.567 38.6 132.567 37.3V24.4H139.667ZM190.512 24.4V30.6H176.712V38.5H189.262V44.25H176.712V53.2H190.512V59.4H169.612V24.4H190.512ZM206.117 24.4V38.5H220.317V24.4H227.417V59.4H220.317V44.25H206.117V59.4H199.017V24.4H206.117ZM244.017 24.4V42.4L243.867 50.9H244.017L246.517 45.8L258.767 24.4H267.267V59.4H260.167V41.35L260.317 32.9H260.167L257.767 38.2L245.417 59.4H236.917V24.4H244.017ZM297.671 24.4V30.6H283.871V38.5H296.421V44.25H283.871V53.2H297.671V59.4H276.771V24.4H297.671Z" stroke="#82D9FF" stroke-width="5.13623" mask="url(#path-5-outside-5_599_5260)"/>
</g>
<g filter="url(#filter4_f_599_5260)">
<mask id="path-6-outside-6_599_5260" maskUnits="userSpaceOnUse" x="22.3291" y="22" width="277" height="40" fill="black">
<rect fill="white" x="22.3291" y="22" width="277" height="40"/>
<path d="M41.4791 24C43.6458 24 45.7458 24.3333 47.7791 25C49.8458 25.6667 51.6791 26.7333 53.2791 28.2C54.8791 29.6333 56.1624 31.4833 57.1291 33.75C58.1291 36.0167 58.6291 38.7333 58.6291 41.9C58.6291 45.0667 58.1291 47.7833 57.1291 50.05C56.1624 52.3167 54.8791 54.1833 53.2791 55.65C51.6791 57.0833 49.8458 58.1333 47.7791 58.8C45.7458 59.4667 43.6458 59.8 41.4791 59.8C39.3124 59.8 37.1958 59.4667 35.1291 58.8C33.0958 58.1333 31.2791 57.0833 29.6791 55.65C28.0791 54.1833 26.7791 52.3167 25.7791 50.05C24.8124 47.7833 24.3291 45.0667 24.3291 41.9C24.3291 38.7333 24.8124 36.0167 25.7791 33.75C26.7791 31.4833 28.0791 29.6333 29.6791 28.2C31.2791 26.7333 33.0958 25.6667 35.1291 25C37.1958 24.3333 39.3124 24 41.4791 24ZM41.4791 29C40.8124 29 39.9291 29.1167 38.8291 29.35C37.7624 29.5833 36.6958 30.1333 35.6291 31C34.5958 31.8667 33.6958 33.1667 32.9291 34.9C32.1958 36.6 31.8291 38.9333 31.8291 41.9C31.8291 44.8667 32.1958 47.2167 32.9291 48.95C33.6958 50.65 34.5958 51.9333 35.6291 52.8C36.6958 53.6667 37.7624 54.2167 38.8291 54.45C39.9291 54.6833 40.8124 54.8 41.4791 54.8C42.1458 54.8 43.0124 54.6833 44.0791 54.45C45.1791 54.2167 46.2458 53.6667 47.2791 52.8C48.3458 51.9333 49.2458 50.65 49.9791 48.95C50.7458 47.2167 51.1291 44.8667 51.1291 41.9C51.1291 38.9333 50.7458 36.6 49.9791 34.9C49.2458 33.1667 48.3458 31.8667 47.2791 31C46.2458 30.1333 45.1791 29.5833 44.0791 29.35C43.0124 29.1167 42.1458 29 41.4791 29ZM89.2975 24.4V30.6H73.9975V37.9H79.6975C82.2641 37.9 84.3475 38.2833 85.9475 39.05C87.5808 39.7833 88.8475 40.7167 89.7475 41.85C90.6808 42.9833 91.3141 44.2167 91.6475 45.55C91.9808 46.85 92.1475 48.0667 92.1475 49.2C92.1475 50.1333 91.9641 51.1833 91.5975 52.35C91.2308 53.5167 90.5808 54.6333 89.6475 55.7C88.7475 56.7333 87.4808 57.6167 85.8475 58.35C84.2475 59.05 82.1975 59.4 79.6975 59.4H66.8975V24.4H89.2975ZM73.9975 53.9H78.3975C80.3975 53.9 81.9308 53.4833 82.9975 52.65C84.0975 51.7833 84.6475 50.45 84.6475 48.65C84.6475 46.85 84.0975 45.5333 82.9975 44.7C81.9308 43.8333 80.3975 43.4 78.3975 43.4H73.9975V53.9ZM105.29 59.8C104.456 59.8 103.64 59.7333 102.84 59.6C102.073 59.5 101.256 59.2667 100.39 58.9V53.4C100.89 53.6667 101.44 53.8667 102.04 54C102.64 54.1 103.223 54.15 103.79 54.15C104.89 54.15 105.723 53.9667 106.29 53.6C106.89 53.2333 107.373 52.6333 107.74 51.8L108.74 49.45L95.8896 24.4H103.84L110.79 39.3L112.29 43H112.44L113.94 39.25L120.59 24.4H127.59L113.59 54.15C112.623 56.25 111.456 57.7167 110.09 58.55C108.756 59.3833 107.156 59.8 105.29 59.8ZM139.667 24.4V36.35C139.667 36.95 139.701 37.5833 139.767 38.25C139.834 38.8833 140.084 39.4833 140.517 40.05C140.951 40.5833 141.617 41.0333 142.517 41.4C143.451 41.7333 144.767 41.9 146.467 41.9C147.634 41.9 148.751 41.8333 149.817 41.7C150.884 41.5333 151.951 41.3167 153.017 41.05V24.4H160.117V59.4H153.017V46.95C152.051 47.15 151.067 47.3167 150.067 47.45C149.067 47.5833 147.867 47.65 146.467 47.65C143.467 47.65 141.051 47.35 139.217 46.75C137.417 46.15 136.017 45.3667 135.017 44.4C134.017 43.4333 133.351 42.3333 133.017 41.1C132.717 39.8667 132.567 38.6 132.567 37.3V24.4H139.667ZM190.512 24.4V30.6H176.712V38.5H189.262V44.25H176.712V53.2H190.512V59.4H169.612V24.4H190.512ZM206.117 24.4V38.5H220.317V24.4H227.417V59.4H220.317V44.25H206.117V59.4H199.017V24.4H206.117ZM244.017 24.4V42.4L243.867 50.9H244.017L246.517 45.8L258.767 24.4H267.267V59.4H260.167V41.35L260.317 32.9H260.167L257.767 38.2L245.417 59.4H236.917V24.4H244.017ZM297.671 24.4V30.6H283.871V38.5H296.421V44.25H283.871V53.2H297.671V59.4H276.771V24.4H297.671Z"/>
</mask>
<path d="M41.4791 24C43.6458 24 45.7458 24.3333 47.7791 25C49.8458 25.6667 51.6791 26.7333 53.2791 28.2C54.8791 29.6333 56.1624 31.4833 57.1291 33.75C58.1291 36.0167 58.6291 38.7333 58.6291 41.9C58.6291 45.0667 58.1291 47.7833 57.1291 50.05C56.1624 52.3167 54.8791 54.1833 53.2791 55.65C51.6791 57.0833 49.8458 58.1333 47.7791 58.8C45.7458 59.4667 43.6458 59.8 41.4791 59.8C39.3124 59.8 37.1958 59.4667 35.1291 58.8C33.0958 58.1333 31.2791 57.0833 29.6791 55.65C28.0791 54.1833 26.7791 52.3167 25.7791 50.05C24.8124 47.7833 24.3291 45.0667 24.3291 41.9C24.3291 38.7333 24.8124 36.0167 25.7791 33.75C26.7791 31.4833 28.0791 29.6333 29.6791 28.2C31.2791 26.7333 33.0958 25.6667 35.1291 25C37.1958 24.3333 39.3124 24 41.4791 24ZM41.4791 29C40.8124 29 39.9291 29.1167 38.8291 29.35C37.7624 29.5833 36.6958 30.1333 35.6291 31C34.5958 31.8667 33.6958 33.1667 32.9291 34.9C32.1958 36.6 31.8291 38.9333 31.8291 41.9C31.8291 44.8667 32.1958 47.2167 32.9291 48.95C33.6958 50.65 34.5958 51.9333 35.6291 52.8C36.6958 53.6667 37.7624 54.2167 38.8291 54.45C39.9291 54.6833 40.8124 54.8 41.4791 54.8C42.1458 54.8 43.0124 54.6833 44.0791 54.45C45.1791 54.2167 46.2458 53.6667 47.2791 52.8C48.3458 51.9333 49.2458 50.65 49.9791 48.95C50.7458 47.2167 51.1291 44.8667 51.1291 41.9C51.1291 38.9333 50.7458 36.6 49.9791 34.9C49.2458 33.1667 48.3458 31.8667 47.2791 31C46.2458 30.1333 45.1791 29.5833 44.0791 29.35C43.0124 29.1167 42.1458 29 41.4791 29ZM89.2975 24.4V30.6H73.9975V37.9H79.6975C82.2641 37.9 84.3475 38.2833 85.9475 39.05C87.5808 39.7833 88.8475 40.7167 89.7475 41.85C90.6808 42.9833 91.3141 44.2167 91.6475 45.55C91.9808 46.85 92.1475 48.0667 92.1475 49.2C92.1475 50.1333 91.9641 51.1833 91.5975 52.35C91.2308 53.5167 90.5808 54.6333 89.6475 55.7C88.7475 56.7333 87.4808 57.6167 85.8475 58.35C84.2475 59.05 82.1975 59.4 79.6975 59.4H66.8975V24.4H89.2975ZM73.9975 53.9H78.3975C80.3975 53.9 81.9308 53.4833 82.9975 52.65C84.0975 51.7833 84.6475 50.45 84.6475 48.65C84.6475 46.85 84.0975 45.5333 82.9975 44.7C81.9308 43.8333 80.3975 43.4 78.3975 43.4H73.9975V53.9ZM105.29 59.8C104.456 59.8 103.64 59.7333 102.84 59.6C102.073 59.5 101.256 59.2667 100.39 58.9V53.4C100.89 53.6667 101.44 53.8667 102.04 54C102.64 54.1 103.223 54.15 103.79 54.15C104.89 54.15 105.723 53.9667 106.29 53.6C106.89 53.2333 107.373 52.6333 107.74 51.8L108.74 49.45L95.8896 24.4H103.84L110.79 39.3L112.29 43H112.44L113.94 39.25L120.59 24.4H127.59L113.59 54.15C112.623 56.25 111.456 57.7167 110.09 58.55C108.756 59.3833 107.156 59.8 105.29 59.8ZM139.667 24.4V36.35C139.667 36.95 139.701 37.5833 139.767 38.25C139.834 38.8833 140.084 39.4833 140.517 40.05C140.951 40.5833 141.617 41.0333 142.517 41.4C143.451 41.7333 144.767 41.9 146.467 41.9C147.634 41.9 148.751 41.8333 149.817 41.7C150.884 41.5333 151.951 41.3167 153.017 41.05V24.4H160.117V59.4H153.017V46.95C152.051 47.15 151.067 47.3167 150.067 47.45C149.067 47.5833 147.867 47.65 146.467 47.65C143.467 47.65 141.051 47.35 139.217 46.75C137.417 46.15 136.017 45.3667 135.017 44.4C134.017 43.4333 133.351 42.3333 133.017 41.1C132.717 39.8667 132.567 38.6 132.567 37.3V24.4H139.667ZM190.512 24.4V30.6H176.712V38.5H189.262V44.25H176.712V53.2H190.512V59.4H169.612V24.4H190.512ZM206.117 24.4V38.5H220.317V24.4H227.417V59.4H220.317V44.25H206.117V59.4H199.017V24.4H206.117ZM244.017 24.4V42.4L243.867 50.9H244.017L246.517 45.8L258.767 24.4H267.267V59.4H260.167V41.35L260.317 32.9H260.167L257.767 38.2L245.417 59.4H236.917V24.4H244.017ZM297.671 24.4V30.6H283.871V38.5H296.421V44.25H283.871V53.2H297.671V59.4H276.771V24.4H297.671Z" stroke="white" stroke-width="2.56812" mask="url(#path-6-outside-6_599_5260)"/>
</g>
<defs>
<filter id="filter0_f_599_5260" x="0.895376" y="0.565786" width="320.209" height="82.6682" filterUnits="userSpaceOnUse" color-interpolation-filters="sRGB">
<feFlood flood-opacity="0" result="BackgroundImageFix"/>
<feBlend mode="normal" in="SourceGraphic" in2="BackgroundImageFix" result="shape"/>
<feGaussianBlur stdDeviation="9.63044" result="effect1_foregroundBlur_599_5260"/>
</filter>
<filter id="filter1_f_599_5260" x="12.4518" y="12.1227" width="297.096" height="59.5549" filterUnits="userSpaceOnUse" color-interpolation-filters="sRGB">
<feFlood flood-opacity="0" result="BackgroundImageFix"/>
<feBlend mode="normal" in="SourceGraphic" in2="BackgroundImageFix" result="shape"/>
<feGaussianBlur stdDeviation="3.21015" result="effect1_foregroundBlur_599_5260"/>
</filter>
<filter id="filter2_ddi_599_5260" x="11.8099" y="17.9006" width="298.38" height="60.8392" filterUnits="userSpaceOnUse" color-interpolation-filters="sRGB">
<feFlood flood-opacity="0" result="BackgroundImageFix"/>
<feColorMatrix in="SourceAlpha" type="matrix" values="0 0 0 0 0 0 0 0 0 0 0 0 0 0 0 0 0 0 127 0" result="hardAlpha"/>
<feOffset dy="4.17319"/>
<feGaussianBlur stdDeviation="1.60507"/>
<feColorMatrix type="matrix" values="0 0 0 0 0 0 0 0 0 0.051 0 0 0 0 0.082 0 0 0 0.7 0"/>
<feBlend mode="multiply" in2="BackgroundImageFix" result="effect1_dropShadow_599_5260"/>
<feColorMatrix in="SourceAlpha" type="matrix" values="0 0 0 0 0 0 0 0 0 0 0 0 0 0 0 0 0 0 127 0" result="hardAlpha"/>
<feOffset dy="6.42029"/>
<feGaussianBlur stdDeviation="4.17319"/>
<feColorMatrix type="matrix" values="0 0 0 0 0 0 0 0 0 0.4 0 0 0 0 1 0 0 0 1 0"/>
<feBlend mode="color-dodge" in2="effect1_dropShadow_599_5260" result="effect2_dropShadow_599_5260"/>
<feBlend mode="normal" in="SourceGraphic" in2="effect2_dropShadow_599_5260" result="shape"/>
<feColorMatrix in="SourceAlpha" type="matrix" values="0 0 0 0 0 0 0 0 0 0 0 0 0 0 0 0 0 0 127 0" result="hardAlpha"/>
<feOffset dx="-0.417319" dy="0.834638"/>
<feGaussianBlur stdDeviation="0.208659"/>
<feComposite in2="hardAlpha" operator="arithmetic" k2="-1" k3="1"/>
<feColorMatrix type="matrix" values="0 0 0 0 1 0 0 0 0 1 0 0 0 0 1 0 0 0 0.5 0"/>
<feBlend mode="normal" in2="shape" result="effect3_innerShadow_599_5260"/>
</filter>
<filter id="filter3_f_599_5260" x="21.1187" y="20.7896" width="279.762" height="42.2206" filterUnits="userSpaceOnUse" color-interpolation-filters="sRGB">
<feFlood flood-opacity="0" result="BackgroundImageFix"/>
<feBlend mode="normal" in="SourceGraphic" in2="BackgroundImageFix" result="shape"/>
<feGaussianBlur stdDeviation="0.321015" result="effect1_foregroundBlur_599_5260"/>
</filter>
<filter id="filter4_f_599_5260" x="22.6169" y="22.2878" width="276.765" height="39.2242" filterUnits="userSpaceOnUse" color-interpolation-filters="sRGB">
<feFlood flood-opacity="0" result="BackgroundImageFix"/>
<feBlend mode="normal" in="SourceGraphic" in2="BackgroundImageFix" result="shape"/>
<feGaussianBlur stdDeviation="0.21401" result="effect1_foregroundBlur_599_5260"/>
</filter>
</defs>
</svg>
