<svg viewBox="0 0 196 134" fill="none" xmlns="http://www.w3.org/2000/svg">
<g style="mix-blend-mode:hard-light" filter="url(#filter0_f_474_15894)">
<path d="M116.758 39.7751L93.0351 69.9886C92.4795 70.6963 91.346 70.2034 91.4847 69.3144L94.7705 48.2519C94.8531 47.7221 94.4434 47.2436 93.9072 47.2436H81.1361C80.4085 47.2436 79.9997 46.4063 80.4472 45.8325L103.296 16.5379C103.855 15.8217 105 16.3277 104.846 17.2229L101.396 37.3405C101.305 37.8742 101.716 38.3618 102.257 38.3618H116.071C116.8 38.3618 117.208 39.2018 116.758 39.7751Z" stroke="#0094FF" stroke-width="3.1234" stroke-linecap="round" stroke-linejoin="round"/>
</g>
<g style="mix-blend-mode:hard-light" filter="url(#filter1_f_474_15894)">
<path d="M116.758 39.7751L93.0351 69.9886C92.4795 70.6963 91.346 70.2034 91.4847 69.3144L94.7705 48.2519C94.8531 47.7221 94.4434 47.2436 93.9072 47.2436H81.1361C80.4085 47.2436 79.9997 46.4063 80.4472 45.8325L103.296 16.5379C103.855 15.8217 105 16.3277 104.846 17.2229L101.396 37.3405C101.305 37.8742 101.716 38.3618 102.257 38.3618H116.071C116.8 38.3618 117.208 39.2018 116.758 39.7751Z" stroke="#0094FF" stroke-width="4.08445" stroke-linecap="round" stroke-linejoin="round"/>
</g>
<g style="mix-blend-mode:hard-light" filter="url(#filter2_ddi_474_15894)">
<path d="M116.758 39.7751L93.0351 69.9886C92.4795 70.6963 91.346 70.2034 91.4847 69.3144L94.7705 48.2519C94.8531 47.7221 94.4434 47.2436 93.9072 47.2436H81.1361C80.4085 47.2436 79.9997 46.4063 80.4472 45.8325L103.296 16.5379C103.855 15.8217 105 16.3277 104.846 17.2229L101.396 37.3405C101.305 37.8742 101.716 38.3618 102.257 38.3618H116.071C116.8 38.3618 117.208 39.2018 116.758 39.7751Z" stroke="#00B3FF" stroke-opacity="0.2" stroke-width="3.1234" stroke-linecap="round" stroke-linejoin="round"/>
</g>
<g filter="url(#filter3_f_474_15894)">
<path d="M116.758 39.7751L93.0351 69.9886C92.4795 70.6963 91.346 70.2034 91.4847 69.3144L94.7705 48.2519C94.8531 47.7221 94.4434 47.2436 93.9072 47.2436H81.1361C80.4085 47.2436 79.9997 46.4063 80.4472 45.8325L103.296 16.5379C103.855 15.8217 105 16.3277 104.846 17.2229L101.396 37.3405C101.305 37.8742 101.716 38.3618 102.257 38.3618H116.071C116.8 38.3618 117.208 39.2018 116.758 39.7751Z" stroke="#82D9FF" stroke-width="1.92209" stroke-linecap="round" stroke-linejoin="round"/>
</g>
<g filter="url(#filter4_f_474_15894)">
<path d="M116.758 39.7751L93.0351 69.9886C92.4795 70.6963 91.346 70.2034 91.4847 69.3144L94.7705 48.2519C94.8531 47.7221 94.4434 47.2436 93.9072 47.2436H81.1361C80.4085 47.2436 79.9997 46.4063 80.4472 45.8325L103.296 16.5379C103.855 15.8217 105 16.3277 104.846 17.2229L101.396 37.3405C101.305 37.8742 101.716 38.3618 102.257 38.3618H116.071C116.8 38.3618 117.208 39.2018 116.758 39.7751Z" stroke="white" stroke-width="0.961047" stroke-linecap="round" stroke-linejoin="round"/>
</g>
<g style="mix-blend-mode:hard-light" filter="url(#filter5_f_474_15894)">
<path d="M19.3351 115.46L19.0024 118.344L19.3351 115.46ZM17.5981 115.188L16.894 118.004L16.961 118.021L17.0287 118.034L17.5981 115.188ZM15.9632 114.711L15.0095 117.453L15.0273 117.459L15.0452 117.465L15.9632 114.711ZM14.2943 114.098H11.3912V116.091L13.2521 116.807L14.2943 114.098ZM14.2943 109.908L15.4733 107.255L11.3912 105.441V109.908H14.2943ZM18.3815 111.339L17.7894 114.181L17.8179 114.187L17.8465 114.192L18.3815 111.339ZM23.3201 111.339L24.2382 114.093L24.2836 114.078L24.3284 114.061L23.3201 111.339ZM24.7507 110.521L22.839 108.337L22.8039 108.367L22.7698 108.399L24.7507 110.521ZM25.5 109.5L22.8403 108.336L22.8091 108.407L22.7817 108.48L25.5 109.5ZM25.1253 106.4L22.8282 108.175L22.8732 108.233L22.9211 108.289L25.1253 106.4ZM22.1962 104.901L21.9333 107.793L21.9447 107.794L22.1962 104.901ZM18.2112 104.833H15.3081V107.736H18.2112V104.833ZM18.2112 100.916V98.0134H15.3081V100.916H18.2112ZM23.9332 100.099L25.7841 102.336L23.9332 100.099ZM24.7166 96.8974L21.9625 97.8154L22.0007 97.93L22.0483 98.0409L24.7166 96.8974ZM24.1035 96.0118L22.1344 98.145L22.1805 98.1875L22.2283 98.228L24.1035 96.0118ZM22.9114 95.3647L21.8779 98.0776L21.9538 98.1065L22.0312 98.1311L22.9114 95.3647ZM17.9046 95.5009L17.0704 92.7203L17.0606 92.7232L17.0509 92.7262L17.9046 95.5009ZM15.1117 96.5908H12.2086V101.143L16.336 99.2231L15.1117 96.5908ZM15.1117 92.3674L14.1621 89.6241L12.2086 90.3002V92.3674H15.1117ZM16.8147 91.8565L17.5188 94.6729L17.5735 94.6592L17.6276 94.6434L16.8147 91.8565ZM18.4496 91.4818L18.9268 94.3454L18.973 94.3377L19.0189 94.3285L18.4496 91.4818ZM25.6703 91.6181L26.476 88.8291L26.476 88.8291L25.6703 91.6181ZM28.1907 92.8783L26.3398 95.1148L26.3815 95.1493L26.4244 95.1822L28.1907 92.8783ZM29.6893 94.7857L27.0168 95.9194L27.0379 95.969L27.0607 96.0178L29.6893 94.7857ZM29.2125 100.508L26.7886 98.9101L26.7758 98.9295L26.7633 98.9491L29.2125 100.508ZM26.2493 102.551L25.4895 99.7494L23.3462 100.331V102.551H26.2493ZM26.2493 102.653H23.3462V105.084L25.739 105.511L26.2493 102.653ZM28.0545 103.267L26.7151 105.842L26.7563 105.864L26.7982 105.884L28.0545 103.267ZM29.5531 104.391L27.4004 106.338L27.449 106.392L27.5003 106.443L29.5531 104.391ZM30.6089 106.059L27.8946 107.089L27.9099 107.129L27.9265 107.169L30.6089 106.059ZM30.4387 111.271L27.8273 110.002L27.8125 110.033L27.7984 110.064L30.4387 111.271ZM29.0081 113.28L30.9737 115.417L30.9772 115.413L29.0081 113.28ZM27.0327 114.54L28.1253 117.23L28.1459 117.222L28.1665 117.213L27.0327 114.54ZM24.8528 115.222L25.4045 118.072L25.4389 118.065L25.4732 118.058L24.8528 115.222ZM22.8433 115.494L22.6365 112.598L22.8433 115.494ZM21.2765 112.659C20.6642 112.659 20.1299 112.629 19.6679 112.576L19.0024 118.344C19.7211 118.427 20.4811 118.465 21.2765 118.465V112.659ZM19.6679 112.576C19.1548 112.517 18.6547 112.438 18.1674 112.341L17.0287 118.034C17.6768 118.164 18.3348 118.267 19.0024 118.344L19.6679 112.576ZM18.3022 112.371C17.8309 112.253 17.3573 112.115 16.8812 111.957L15.0452 117.465C15.659 117.669 16.2753 117.849 16.894 118.004L18.3022 112.371ZM16.9169 111.969C16.4282 111.799 15.9016 111.605 15.3364 111.388L13.2521 116.807C13.8677 117.044 14.4537 117.259 15.0095 117.453L16.9169 111.969ZM17.1973 114.098V109.908H11.3912V114.098H17.1973ZM13.1152 112.561C14.8397 113.328 16.4139 113.894 17.7894 114.181L18.9736 108.497C18.1692 108.329 17.0186 107.942 15.4733 107.255L13.1152 112.561ZM17.8465 114.192C19.0178 114.412 20.1014 114.548 21.0381 114.548V108.742C20.6124 108.742 19.9249 108.674 18.9165 108.485L17.8465 114.192ZM21.0381 114.548C22.1422 114.548 23.2359 114.427 24.2382 114.093L22.4021 108.585C22.1782 108.659 21.7506 108.742 21.0381 108.742V114.548ZM24.3284 114.061C25.1671 113.75 26.0206 113.307 26.7315 112.644L22.7698 108.399C22.7898 108.38 22.7744 108.399 22.6973 108.444C22.6202 108.488 22.4963 108.548 22.3119 108.616L24.3284 114.061ZM26.6623 112.706C27.2999 112.148 27.8772 111.428 28.2182 110.519L22.7817 108.48C22.8502 108.298 22.928 108.259 22.839 108.337L26.6623 112.706ZM28.1596 110.663C28.4406 110.021 28.6415 109.282 28.6415 108.478H22.8353C22.8353 108.309 22.8772 108.252 22.8403 108.336L28.1596 110.663ZM28.6415 108.478C28.6415 107.18 28.3535 105.706 27.3295 104.511L22.9211 108.289C22.8219 108.174 22.7972 108.087 22.8007 108.099C22.807 108.12 22.8353 108.234 22.8353 108.478H28.6415ZM27.4225 104.625C26.7705 103.781 25.9385 103.09 24.9204 102.648L22.6054 107.972C22.6319 107.984 22.7081 108.02 22.8282 108.175L27.4225 104.625ZM24.9204 102.648C24.1354 102.306 23.3082 102.084 22.4477 102.009L21.9447 107.794C22.1287 107.81 22.346 107.86 22.6054 107.972L24.9204 102.648ZM22.459 102.01C21.9504 101.964 21.4748 101.93 21.1062 101.93V107.736C21.1918 107.736 21.4428 107.748 21.9333 107.793L22.459 102.01ZM21.1062 101.93H18.2112V107.736H21.1062V101.93ZM21.1142 104.833V100.916H15.3081V104.833H21.1142ZM18.2112 103.819H21.1062V98.0134H18.2112V103.819ZM21.1062 103.819C22.7207 103.819 24.4199 103.465 25.7841 102.336L22.0823 97.8625C22.1296 97.8234 21.9441 98.0134 21.1062 98.0134V103.819ZM25.7841 102.336C27.1915 101.171 27.824 99.5567 27.824 97.851H22.0179C22.0179 97.9226 22.0117 97.9626 22.0089 97.9769C22.0064 97.9903 22.0066 97.9823 22.0162 97.9605C22.0261 97.938 22.0405 97.9132 22.0576 97.8907C22.0744 97.8687 22.0856 97.8598 22.0823 97.8625L25.7841 102.336ZM27.824 97.851C27.824 97.1065 27.6623 96.401 27.3849 95.7538L22.0483 98.0409C22.0471 98.0383 22.0389 98.0183 22.0312 97.9825C22.0234 97.9461 22.0179 97.9012 22.0179 97.851H27.824ZM27.4707 95.9793C27.1758 95.0947 26.6479 94.3618 25.9787 93.7957L22.2283 98.228C22.1962 98.2008 22.1449 98.1504 22.0913 98.073C22.0369 97.9944 21.9927 97.9061 21.9625 97.8154L27.4707 95.9793ZM26.0726 93.8786C25.3852 93.2441 24.5777 92.8484 23.7916 92.5983L22.0312 98.1311C22.1332 98.1635 22.1846 98.1892 22.1991 98.197C22.2125 98.2043 22.1839 98.1907 22.1344 98.145L26.0726 93.8786ZM23.9449 92.6518C23.0218 92.3001 22.0243 92.1891 21.0722 92.1891V97.9953C21.6187 97.9953 21.8474 98.0659 21.8779 98.0776L23.9449 92.6518ZM21.0722 92.1891C19.6583 92.1891 18.3107 92.3482 17.0704 92.7203L18.7388 98.2815C19.3151 98.1087 20.0792 97.9953 21.0722 97.9953V92.1891ZM17.0509 92.7262C16.0203 93.0433 14.9651 93.4573 13.8874 93.9586L16.336 99.2231C17.211 98.8161 18.0178 98.5035 18.7584 98.2756L17.0509 92.7262ZM18.0148 96.5908V92.3674H12.2086V96.5908H18.0148ZM16.0613 95.1108C16.5798 94.9313 17.0653 94.7863 17.5188 94.6729L16.1106 89.0401C15.4742 89.1992 14.8244 89.3948 14.1621 89.6241L16.0613 95.1108ZM17.6276 94.6434C18.0653 94.5158 18.4982 94.4168 18.9268 94.3454L17.9723 88.6183C17.311 88.7285 16.654 88.8793 16.0018 89.0696L17.6276 94.6434ZM19.0189 94.3285C19.4695 94.2384 19.9327 94.1746 20.4093 94.1379L19.964 88.3489C19.2598 88.4031 18.565 88.4982 17.8802 88.6352L19.0189 94.3285ZM20.4093 94.1379C20.9156 94.099 21.4763 94.0784 22.094 94.0784V88.2722C21.3493 88.2722 20.6384 88.297 19.964 88.3489L20.4093 94.1379ZM22.094 94.0784C23.2561 94.0784 24.1661 94.2053 24.8646 94.4071L26.476 88.8291C25.1309 88.4405 23.6566 88.2722 22.094 88.2722V94.0784ZM24.8646 94.4071C25.5944 94.6179 26.0533 94.8777 26.3398 95.1148L30.0416 90.6418C29.0111 89.789 27.7897 89.2086 26.476 88.8291L24.8646 94.4071ZM26.4244 95.1822C26.73 95.4165 26.9056 95.6573 27.0168 95.9194L32.3618 93.6519C31.8373 92.4153 31.0138 91.3846 29.957 90.5744L26.4244 95.1822ZM27.0607 96.0178C27.2072 96.3303 27.2972 96.7003 27.2972 97.1698H33.1033C33.1033 95.9137 32.8526 94.6942 32.3179 93.5535L27.0607 96.0178ZM27.2972 97.1698C27.2972 97.843 27.1264 98.3975 26.7886 98.9101L31.6364 102.105C32.6156 100.62 33.1033 98.949 33.1033 97.1698H27.2972ZM26.7633 98.9491C26.5817 99.2345 26.2586 99.5409 25.4895 99.7494L27.0091 105.353C28.9194 104.835 30.5717 103.779 31.6617 102.066L26.7633 98.9491ZM23.3462 102.551V102.653H29.1524V102.551H23.3462ZM25.739 105.511C26.0885 105.574 26.4104 105.684 26.7151 105.842L29.3938 100.691C28.5632 100.259 27.6817 99.9603 26.7596 99.7956L25.739 105.511ZM26.7982 105.884C27.0192 105.99 27.216 106.135 27.4004 106.338L31.7058 102.443C31.0273 101.693 30.2251 101.088 29.3107 100.649L26.7982 105.884ZM27.5003 106.443C27.637 106.58 27.7763 106.777 27.8946 107.089L33.3233 105.03C32.9421 104.025 32.3775 103.109 31.6059 102.338L27.5003 106.443ZM27.9265 107.169C28.0226 107.402 28.1146 107.781 28.1146 108.376H33.9207C33.9207 107.199 33.7402 106.034 33.2914 104.949L27.9265 107.169ZM28.1146 108.376C28.1146 109.192 27.9747 109.699 27.8273 110.002L33.05 112.539C33.6746 111.253 33.9207 109.829 33.9207 108.376H28.1146ZM27.7984 110.064C27.581 110.539 27.3225 110.885 27.039 111.147L30.9772 115.413C31.8745 114.585 32.5697 113.592 33.0789 112.478L27.7984 110.064ZM27.0426 111.144C26.7327 111.429 26.3593 111.673 25.8989 111.868L28.1665 117.213C29.2046 116.772 30.1482 116.176 30.9737 115.417L27.0426 111.144ZM25.94 111.851C25.3581 112.087 24.7893 112.264 24.2325 112.386L25.4732 118.058C26.3696 117.861 27.254 117.584 28.1253 117.23L25.94 111.851ZM24.3012 112.371C23.6974 112.488 23.1433 112.562 22.6365 112.598L23.0501 118.39C23.8149 118.335 24.6005 118.227 25.4045 118.072L24.3012 112.371ZM22.6365 112.598C22.0361 112.641 21.5894 112.659 21.2765 112.659V118.465C21.7812 118.465 22.3789 118.438 23.0501 118.39L22.6365 112.598ZM43.0033 91.4478V88.5447H41.0115L40.2947 90.4031L43.0033 91.4478ZM48.4529 91.4478L51.1614 90.4031L50.4446 88.5447H48.4529V91.4478ZM57.649 115.29V118.193H61.8803L60.3576 114.245L57.649 115.29ZM52.1994 115.29L49.4524 116.229L50.1237 118.193H52.1994V115.29ZM50.3602 109.908L53.1073 108.969L52.436 107.005H50.3602V109.908ZM40.7553 109.908V107.005H38.6796L38.0083 108.969L40.7553 109.908ZM38.9161 115.29V118.193H40.9918L41.6632 116.229L38.9161 115.29ZM33.8071 115.29L31.0986 114.245L29.5758 118.193H33.8071V115.29ZM49.0319 105.991V108.894H53.0811L51.7813 105.059L49.0319 105.991ZM45.5918 95.8415L48.3413 94.9097L47.6732 92.9384H45.5918V95.8415ZM45.5237 95.8415V92.9384H43.4424L42.7743 94.9097L45.5237 95.8415ZM42.0837 105.991L39.3342 105.059L38.0345 108.894H42.0837V105.991ZM43.0033 94.3509H48.4529V88.5447H43.0033V94.3509ZM45.7443 92.4925L54.9405 116.334L60.3576 114.245L51.1614 90.4031L45.7443 92.4925ZM57.649 112.387H52.1994V118.193H57.649V112.387ZM54.9465 114.351L53.1073 108.969L47.6132 110.847L49.4524 116.229L54.9465 114.351ZM50.3602 107.005H40.7553V112.811H50.3602V107.005ZM38.0083 108.969L36.169 114.351L41.6632 116.229L43.5024 110.847L38.0083 108.969ZM38.9161 112.387H33.8071V118.193H38.9161V112.387ZM36.5157 116.334L45.7118 92.4925L40.2947 90.4031L31.0986 114.245L36.5157 116.334ZM51.7813 105.059L48.3413 94.9097L42.8424 96.7734L46.2824 106.923L51.7813 105.059ZM45.5918 92.9384H45.5237V98.7446H45.5918V92.9384ZM42.7743 94.9097L39.3342 105.059L44.8331 106.923L48.2732 96.7734L42.7743 94.9097ZM42.0837 108.894H49.0319V103.088H42.0837V108.894ZM62.8192 111.066V113.969H64.4629L65.3086 112.56L62.8192 111.066ZM64.2838 108.103L61.584 107.036L61.5774 107.053L61.5709 107.07L64.2838 108.103ZM65.1693 105.174L68.0108 105.769L65.1693 105.174ZM65.5781 102.211L62.6869 101.948L62.6839 101.981L62.6817 102.013L65.5781 102.211ZM65.7143 91.4478V88.5447H62.8112V91.4478H65.7143ZM81.2456 91.4478H84.1487V88.5447H81.2456V91.4478ZM81.2456 111.066H78.3425V113.969H81.2456V111.066ZM83.9704 111.066H86.8734V108.163H83.9704V111.066ZM83.9704 120.296V123.2H86.8734V120.296H83.9704ZM79.202 120.296H76.2989V123.2H79.202V120.296ZM79.202 115.29H82.1051V112.387H79.202V115.29ZM64.8628 115.29V112.387H61.9597V115.29H64.8628ZM64.8628 120.296V123.2H67.7659V120.296H64.8628ZM60.0944 120.296H57.1913V123.2H60.0944V120.296ZM60.0944 111.066V108.163H57.1913V111.066H60.0944ZM70.3124 95.6712V92.7681H67.4093V95.6712H70.3124ZM70.2102 102.415L67.3133 102.226L67.3113 102.256L67.31 102.286L70.2102 102.415ZM69.8696 105.412L67.0155 104.881L67.0105 104.908L67.006 104.935L69.8696 105.412ZM69.1543 108.239L66.407 107.301V107.301L69.1543 108.239ZM67.8601 111.066L65.3395 109.626L62.8576 113.969H67.8601V111.066ZM76.4091 111.066V113.969H79.3121V111.066H76.4091ZM76.4091 95.6712H79.3121V92.7681H76.4091V95.6712ZM65.3086 112.56C65.9953 111.415 66.5634 110.274 66.9967 109.137L61.5709 107.07C61.2775 107.84 60.8692 108.674 60.3298 109.573L65.3086 112.56ZM66.9835 109.17C67.4269 108.049 67.771 106.914 68.0108 105.769L62.3278 104.579C62.159 105.386 61.9126 106.205 61.584 107.036L66.9835 109.17ZM68.0108 105.769C68.2427 104.661 68.3972 103.54 68.4744 102.408L62.6817 102.013C62.6227 102.879 62.5047 103.734 62.3278 104.579L68.0108 105.769ZM68.4692 102.474C68.5686 101.38 68.6174 100.247 68.6174 99.0772H62.8112C62.8112 100.087 62.7691 101.043 62.6869 101.948L68.4692 102.474ZM68.6174 99.0772V91.4478H62.8112V99.0772H68.6174ZM65.7143 94.3509H81.2456V88.5447H65.7143V94.3509ZM78.3425 91.4478V111.066H84.1487V91.4478H78.3425ZM81.2456 113.969H83.9704V108.163H81.2456V113.969ZM81.0673 111.066V120.296H86.8734V111.066H81.0673ZM83.9704 117.393H79.202V123.2H83.9704V117.393ZM82.1051 120.296V115.29H76.2989V120.296H82.1051ZM79.202 112.387H64.8628V118.193H79.202V112.387ZM61.9597 115.29V120.296H67.7659V115.29H61.9597ZM64.8628 117.393H60.0944V123.2H64.8628V117.393ZM62.9975 120.296V111.066H57.1913V120.296H62.9975ZM60.0944 113.969H62.8192V108.163H60.0944V113.969ZM67.4093 95.6712V99.0772H73.2154V95.6712H67.4093ZM67.4093 99.0772C67.4093 100.203 67.3768 101.252 67.3133 102.226L73.1071 102.604C73.1798 101.489 73.2154 100.313 73.2154 99.0772H67.4093ZM67.31 102.286C67.2704 103.177 67.1717 104.042 67.0155 104.881L72.7237 105.943C72.9308 104.83 73.0592 103.697 73.1104 102.544L67.31 102.286ZM67.006 104.935C66.8736 105.729 66.6745 106.518 66.407 107.301L71.9017 109.177C72.2699 108.099 72.5477 107.003 72.7332 105.89L67.006 104.935ZM66.407 107.301C66.155 108.039 65.8035 108.814 65.3395 109.626L70.3806 112.507C71.0065 111.411 71.5179 110.301 71.9017 109.177L66.407 107.301ZM67.8601 113.969H76.4091V108.163H67.8601V113.969ZM79.3121 111.066V95.6712H73.506V111.066H79.3121ZM76.4091 92.7681H70.3124V98.5743H76.4091V92.7681ZM95.7362 91.4478V88.5447H93.7444L93.0276 90.4031L95.7362 91.4478ZM101.186 91.4478L103.894 90.4031L103.178 88.5447H101.186V91.4478ZM110.382 115.29V118.193H114.613L113.091 114.245L110.382 115.29ZM104.932 115.29L102.185 116.229L102.857 118.193H104.932V115.29ZM103.093 109.908L105.84 108.969L105.169 107.005H103.093V109.908ZM93.4883 109.908V107.005H91.4125L90.7412 108.969L93.4883 109.908ZM91.649 115.29V118.193H93.7248L94.3961 116.229L91.649 115.29ZM86.54 115.29L83.8315 114.245L82.3087 118.193H86.54V115.29ZM101.765 105.991V108.894H105.814L104.514 105.059L101.765 105.991ZM98.3247 95.8415L101.074 94.9097L100.406 92.9384H98.3247V95.8415ZM98.2566 95.8415V92.9384H96.1753L95.5072 94.9097L98.2566 95.8415ZM94.8166 105.991L92.0671 105.059L90.7674 108.894H94.8166V105.991ZM95.7362 94.3509H101.186V88.5447H95.7362V94.3509ZM98.4772 92.4925L107.673 116.334L113.091 114.245L103.894 90.4031L98.4772 92.4925ZM110.382 112.387H104.932V118.193H110.382V112.387ZM107.679 114.351L105.84 108.969L100.346 110.847L102.185 116.229L107.679 114.351ZM103.093 107.005H93.4883V112.811H103.093V107.005ZM90.7412 108.969L88.902 114.351L94.3961 116.229L96.2353 110.847L90.7412 108.969ZM91.649 112.387H86.54V118.193H91.649V112.387ZM89.2486 116.334L98.4448 92.4925L93.0276 90.4031L83.8315 114.245L89.2486 116.334ZM104.514 105.059L101.074 94.9097L95.5753 96.7734L99.0154 106.923L104.514 105.059ZM98.3247 92.9384H98.2566V98.7446H98.3247V92.9384ZM95.5072 94.9097L92.0671 105.059L97.566 106.923L101.006 96.7734L95.5072 94.9097ZM94.8166 108.894H101.765V103.088H94.8166V108.894ZM119.832 91.4478H122.736V88.5447H119.832V91.4478ZM119.832 101.053H116.929V103.956H119.832V101.053ZM129.505 101.053V103.956H132.409V101.053H129.505ZM129.505 91.4478V88.5447H126.602V91.4478H129.505ZM134.342 91.4478H137.245V88.5447H134.342V91.4478ZM134.342 115.29V118.193H137.245V115.29H134.342ZM129.505 115.29H126.602V118.193H129.505V115.29ZM129.505 104.97H132.409V102.066H129.505V104.97ZM119.832 104.97V102.066H116.929V104.97H119.832ZM119.832 115.29V118.193H122.736V115.29H119.832ZM114.996 115.29H112.093V118.193H114.996V115.29ZM114.996 91.4478V88.5447H112.093V91.4478H114.996ZM116.929 91.4478V101.053H122.736V91.4478H116.929ZM119.832 103.956H129.505V98.1496H119.832V103.956ZM132.409 101.053V91.4478H126.602V101.053H132.409ZM129.505 94.3509H134.342V88.5447H129.505V94.3509ZM131.439 91.4478V115.29H137.245V91.4478H131.439ZM134.342 112.387H129.505V118.193H134.342V112.387ZM132.409 115.29V104.97H126.602V115.29H132.409ZM129.505 102.066H119.832V107.873H129.505V102.066ZM116.929 104.97V115.29H122.736V104.97H116.929ZM119.832 112.387H114.996V118.193H119.832V112.387ZM117.899 115.29V91.4478H112.093V115.29H117.899ZM114.996 94.3509H119.832V88.5447H114.996V94.3509ZM145.65 91.4478H148.553V88.5447H145.65V91.4478ZM145.65 103.709L148.553 103.761L148.553 103.735V103.709H145.65ZM145.548 109.5L142.645 109.448L142.593 112.403H145.548V109.5ZM145.65 109.5V112.403H147.46L148.257 110.777L145.65 109.5ZM147.353 106.025L144.834 104.583L144.787 104.664L144.746 104.748L147.353 106.025ZM155.698 91.4478V88.5447H154.015L153.178 90.0056L155.698 91.4478ZM161.488 91.4478H164.391V88.5447H161.488V91.4478ZM161.488 115.29V118.193H164.391V115.29H161.488ZM156.651 115.29H153.748V118.193H156.651V115.29ZM156.651 102.994L153.749 102.943L153.748 102.968V102.994H156.651ZM156.754 97.238L159.656 97.2895L159.709 94.3349H156.754V97.238ZM156.651 97.238V94.3349H154.779L154.007 96.0404L156.651 97.238ZM155.017 100.848L157.525 102.31L157.6 102.181L157.661 102.046L155.017 100.848ZM146.604 115.29V118.193H148.272L149.112 116.751L146.604 115.29ZM140.814 115.29H137.911V118.193H140.814V115.29ZM140.814 91.4478V88.5447H137.911V91.4478H140.814ZM142.747 91.4478V103.709H148.553V91.4478H142.747ZM142.748 103.658L142.645 109.448L148.451 109.551L148.553 103.761L142.748 103.658ZM145.548 112.403H145.65V106.596H145.548V112.403ZM148.257 110.777L149.96 107.303L144.746 104.748L143.043 108.222L148.257 110.777ZM149.873 107.468L158.217 92.89L153.178 90.0056L144.834 104.583L149.873 107.468ZM155.698 94.3509H161.488V88.5447H155.698V94.3509ZM158.585 91.4478V115.29H164.391V91.4478H158.585ZM161.488 112.387H156.651V118.193H161.488V112.387ZM159.555 115.29V102.994H153.748V115.29H159.555ZM159.554 103.046L159.656 97.2895L153.851 97.1864L153.749 102.943L159.554 103.046ZM156.754 94.3349H156.651V100.141H156.754V94.3349ZM154.007 96.0404L152.372 99.6508L157.661 102.046L159.296 98.4355L154.007 96.0404ZM152.508 99.387L144.095 113.828L149.112 116.751L157.525 102.31L152.508 99.387ZM146.604 112.387H140.814V118.193H146.604V112.387ZM143.717 115.29V91.4478H137.911V115.29H143.717ZM140.814 94.3509H145.65V88.5447H140.814V94.3509ZM182.199 91.4478H185.102V88.5447H182.199V91.4478ZM182.199 95.6712V98.5743H185.102V95.6712H182.199ZM172.798 95.6712V92.7681H169.895V95.6712H172.798ZM172.798 101.053H169.895V103.956H172.798V101.053ZM181.347 101.053H184.25V98.1496H181.347V101.053ZM181.347 104.97V107.873H184.25V104.97H181.347ZM172.798 104.97V102.066H169.895V104.97H172.798ZM172.798 111.066H169.895V113.969H172.798V111.066ZM182.199 111.066H185.102V108.163H182.199V111.066ZM182.199 115.29V118.193H185.102V115.29H182.199ZM167.962 115.29H165.059V118.193H167.962V115.29ZM167.962 91.4478V88.5447H165.059V91.4478H167.962ZM179.296 91.4478V95.6712H185.102V91.4478H179.296ZM182.199 92.7681H172.798V98.5743H182.199V92.7681ZM169.895 95.6712V101.053H175.701V95.6712H169.895ZM172.798 103.956H181.347V98.1496H172.798V103.956ZM178.444 101.053V104.97H184.25V101.053H178.444ZM181.347 102.066H172.798V107.873H181.347V102.066ZM169.895 104.97V111.066H175.701V104.97H169.895ZM172.798 113.969H182.199V108.163H172.798V113.969ZM179.296 111.066V115.29H185.102V111.066H179.296ZM182.199 112.387H167.962V118.193H182.199V112.387ZM170.865 115.29V91.4478H165.059V115.29H170.865ZM167.962 94.3509H182.199V88.5447H167.962V94.3509Z" fill="#0094FF"/>
</g>
<g filter="url(#filter6_f_474_15894)">
<path d="M21.4909 116.013C20.787 116.013 20.1399 115.979 19.5495 115.911C18.9591 115.843 18.3801 115.752 17.8124 115.638C17.2675 115.502 16.7225 115.343 16.1776 115.161C15.6553 114.98 15.099 114.775 14.5086 114.548V110.359C16.1435 111.086 17.5059 111.562 18.5958 111.79C19.6857 111.994 20.5713 112.096 21.2525 112.096C22.1607 112.096 22.9214 111.994 23.5345 111.79C24.1476 111.562 24.6244 111.29 24.965 110.972C25.3283 110.654 25.5781 110.314 25.7143 109.95C25.8733 109.587 25.9527 109.246 25.9527 108.929C25.9527 108.02 25.7484 107.328 25.3397 106.851C24.9537 106.351 24.4995 105.988 23.9773 105.761C23.455 105.534 22.9328 105.398 22.4105 105.352C21.911 105.307 21.5477 105.284 21.3206 105.284H18.4255V101.367H21.3206C22.5468 101.367 23.4891 101.095 24.1476 100.55C24.8061 100.005 25.1353 99.2555 25.1353 98.3018C25.1353 97.9839 25.0672 97.666 24.9309 97.3482C24.8174 97.0076 24.6131 96.7124 24.3179 96.4626C24.0227 96.1901 23.6253 95.9744 23.1258 95.8155C22.6489 95.6338 22.0359 95.543 21.2865 95.543C20.0831 95.543 19.0272 95.6792 18.119 95.9517C17.2334 96.2242 16.3024 96.5875 15.3261 97.0416V92.8182C15.9164 92.6138 16.4841 92.4435 17.0291 92.3073C17.574 92.1484 18.119 92.0235 18.6639 91.9326C19.2316 91.8191 19.8106 91.7396 20.401 91.6942C20.9914 91.6488 21.6271 91.6261 22.3083 91.6261C23.6707 91.6261 24.8628 91.7737 25.8846 92.0689C26.9064 92.3641 27.7466 92.7841 28.4051 93.3291C29.0863 93.8513 29.5858 94.4871 29.9037 95.2364C30.2443 95.9631 30.4146 96.7578 30.4146 97.6206C30.4146 98.8468 30.0853 99.9594 29.4269 100.959C28.7911 101.958 27.8033 102.639 26.4636 103.002V103.104C27.0994 103.218 27.7012 103.422 28.2688 103.717C28.8365 103.99 29.336 104.364 29.7675 104.841C30.2216 105.295 30.5735 105.852 30.8233 106.51C31.0958 107.169 31.232 107.941 31.232 108.826C31.232 109.962 31.039 110.927 30.653 111.721C30.2897 112.516 29.8129 113.186 29.2225 113.731C28.6548 114.253 27.9963 114.673 27.247 114.991C26.5204 115.286 25.7938 115.513 25.0672 115.672C24.3633 115.809 23.6934 115.899 23.0577 115.945C22.4219 115.99 21.8996 116.013 21.4909 116.013ZM43.2176 91.8986H48.6672L57.8634 115.74H52.4138L50.5746 110.359H40.9697L39.1305 115.74H34.0215L43.2176 91.8986ZM49.2462 106.442L45.8062 96.2923H45.7381L42.298 106.442H49.2462ZM63.0336 111.517C63.6466 110.495 64.1348 109.508 64.4981 108.554C64.8841 107.577 65.1793 106.601 65.3837 105.625C65.588 104.648 65.7243 103.661 65.7924 102.661C65.8832 101.662 65.9286 100.618 65.9286 99.528V91.8986H81.4599V111.517H84.1847V120.747H79.4164V115.74H65.0771V120.747H60.3088V111.517H63.0336ZM70.5267 96.122V99.528C70.5267 100.709 70.4927 101.821 70.4245 102.866C70.3791 103.888 70.2656 104.887 70.0839 105.863C69.925 106.817 69.6866 107.759 69.3687 108.69C69.0508 109.621 68.6194 110.563 68.0744 111.517H76.6234V96.122H70.5267ZM95.9506 91.8986H101.4L110.596 115.74H105.147L103.307 110.359H93.7026L91.8634 115.74H86.7544L95.9506 91.8986ZM101.979 106.442L98.5391 96.2923H98.471L95.0309 106.442H101.979ZM120.047 91.8986V101.503H129.72V91.8986H134.556V115.74H129.72V105.42H120.047V115.74H115.21V91.8986H120.047ZM145.864 91.8986V104.16L145.762 109.95H145.864L147.567 106.476L155.912 91.8986H161.702V115.74H156.866V103.445L156.968 97.6888H156.866L155.231 101.299L146.818 115.74H141.028V91.8986H145.864ZM182.413 91.8986V96.122H173.013V101.503H181.562V105.42H173.013V111.517H182.413V115.74H168.176V91.8986H182.413Z" fill="white"/>
</g>
<defs>
<filter id="filter0_f_474_15894" x="64.2806" y="0.214825" width="68.6461" height="86.0941" filterUnits="userSpaceOnUse" color-interpolation-filters="sRGB">
<feFlood flood-opacity="0" result="BackgroundImageFix"/>
<feBlend mode="normal" in="SourceGraphic" in2="BackgroundImageFix" result="shape"/>
<feGaussianBlur stdDeviation="7.20785" result="effect1_foregroundBlur_474_15894"/>
</filter>
<filter id="filter1_f_474_15894" x="73.4096" y="9.34294" width="50.3881" height="67.8378" filterUnits="userSpaceOnUse" color-interpolation-filters="sRGB">
<feFlood flood-opacity="0" result="BackgroundImageFix"/>
<feBlend mode="normal" in="SourceGraphic" in2="BackgroundImageFix" result="shape"/>
<feGaussianBlur stdDeviation="2.40262" result="effect1_foregroundBlur_474_15894"/>
</filter>
<filter id="filter2_ddi_474_15894" x="72.4495" y="13.189" width="52.3083" height="69.7563" filterUnits="userSpaceOnUse" color-interpolation-filters="sRGB">
<feFlood flood-opacity="0" result="BackgroundImageFix"/>
<feColorMatrix in="SourceAlpha" type="matrix" values="0 0 0 0 0 0 0 0 0 0 0 0 0 0 0 0 0 0 127 0" result="hardAlpha"/>
<feOffset dy="3.1234"/>
<feGaussianBlur stdDeviation="1.20131"/>
<feColorMatrix type="matrix" values="0 0 0 0 0 0 0 0 0 0.051 0 0 0 0 0.082 0 0 0 0.7 0"/>
<feBlend mode="multiply" in2="BackgroundImageFix" result="effect1_dropShadow_474_15894"/>
<feColorMatrix in="SourceAlpha" type="matrix" values="0 0 0 0 0 0 0 0 0 0 0 0 0 0 0 0 0 0 127 0" result="hardAlpha"/>
<feOffset dy="4.80524"/>
<feGaussianBlur stdDeviation="3.1234"/>
<feColorMatrix type="matrix" values="0 0 0 0 0 0 0 0 0 0.4 0 0 0 0 1 0 0 0 1 0"/>
<feBlend mode="color-dodge" in2="effect1_dropShadow_474_15894" result="effect2_dropShadow_474_15894"/>
<feBlend mode="normal" in="SourceGraphic" in2="effect2_dropShadow_474_15894" result="shape"/>
<feColorMatrix in="SourceAlpha" type="matrix" values="0 0 0 0 0 0 0 0 0 0 0 0 0 0 0 0 0 0 127 0" result="hardAlpha"/>
<feOffset dx="-0.31234" dy="0.624681"/>
<feGaussianBlur stdDeviation="0.15617"/>
<feComposite in2="hardAlpha" operator="arithmetic" k2="-1" k3="1"/>
<feColorMatrix type="matrix" values="0 0 0 0 1 0 0 0 0 1 0 0 0 0 1 0 0 0 0.5 0"/>
<feBlend mode="normal" in2="shape" result="effect3_innerShadow_474_15894"/>
</filter>
<filter id="filter3_f_474_15894" x="78.8176" y="14.753" width="39.5724" height="57.018" filterUnits="userSpaceOnUse" color-interpolation-filters="sRGB">
<feFlood flood-opacity="0" result="BackgroundImageFix"/>
<feBlend mode="normal" in="SourceGraphic" in2="BackgroundImageFix" result="shape"/>
<feGaussianBlur stdDeviation="0.240262" result="effect1_foregroundBlur_474_15894"/>
</filter>
<filter id="filter4_f_474_15894" x="79.4589" y="15.3955" width="38.2894" height="55.733" filterUnits="userSpaceOnUse" color-interpolation-filters="sRGB">
<feFlood flood-opacity="0" result="BackgroundImageFix"/>
<feBlend mode="normal" in="SourceGraphic" in2="BackgroundImageFix" result="shape"/>
<feGaussianBlur stdDeviation="0.160175" result="effect1_foregroundBlur_474_15894"/>
</filter>
<filter id="filter5_f_474_15894" x="0.895432" y="77.7766" width="194.702" height="55.9187" filterUnits="userSpaceOnUse" color-interpolation-filters="sRGB">
<feFlood flood-opacity="0" result="BackgroundImageFix"/>
<feBlend mode="normal" in="SourceGraphic" in2="BackgroundImageFix" result="shape"/>
<feGaussianBlur stdDeviation="6.69938" result="effect1_foregroundBlur_474_15894"/>
</filter>
<filter id="filter6_f_474_15894" x="14.2108" y="91.3283" width="168.5" height="29.7167" filterUnits="userSpaceOnUse" color-interpolation-filters="sRGB">
<feFlood flood-opacity="0" result="BackgroundImageFix"/>
<feBlend mode="normal" in="SourceGraphic" in2="BackgroundImageFix" result="shape"/>
<feGaussianBlur stdDeviation="0.148875" result="effect1_foregroundBlur_474_15894"/>
</filter>
</defs>
</svg>
