<svg viewBox="0 0 420 532" fill="none" xmlns="http://www.w3.org/2000/svg">
<g filter="url(#filter0_f_576_3746)">
<g style="mix-blend-mode:hard-light" filter="url(#filter1_f_576_3746)">
<path d="M160.994 382.475C165.953 379.64 175.484 373.016 175.435 360.589C175.373 345.056 159.686 326.44 149.46 308.033C122.851 269.361 128.115 204.914 133.044 172.302C134.771 160.871 145.646 153.623 157.036 155.601L296.562 179.823C307.635 181.746 315.347 191.761 313.408 202.832C308.01 233.65 292.537 293.223 250.869 325.639C228.433 343.094 214.528 359.984 213.282 367.16C210.791 381.511 215.842 387.562 221.599 392.996M131.821 174.137L91.3863 167.118C87.9337 166.518 84.6273 168.401 83.8829 171.602C81.1507 183.351 76.6943 211.535 89.8389 233.744C105.685 260.518 132.983 266.736 132.983 266.736M312.608 205.524L353.043 212.544C356.495 213.143 358.974 216.03 358.596 219.295C357.208 231.277 351.904 259.314 332.043 275.793C308.099 295.659 280.303 292.312 280.303 292.312M311.722 222.371L334.72 226.364C336.292 226.636 337.377 228.201 337.146 230.026C336.298 236.724 331.077 252.033 321.684 261.562C310.36 273.049 295.002 271.21 295.002 271.21M129.292 190.699L106.293 186.707C104.722 186.434 103.173 187.541 102.775 189.337C101.316 195.928 101.071 212.102 106.703 224.239C113.493 238.871 128.572 242.316 128.572 242.316M166.742 72.2808C196.849 84.8993 213.483 118.093 208.999 143.925M232.18 152.015C226.586 135.891 238.623 75.5203 269.437 66.0864M254.551 151.833C253.144 144.444 253.698 127.44 267.167 118.543M200.945 220.84L187.253 219.35C181.687 218.745 178.325 224.821 181.983 228.873L190.982 238.842C192.54 240.568 192.93 242.96 191.986 244.997L186.532 256.766C184.314 261.55 189.485 266.563 194.636 264.624L207.306 259.852C209.5 259.026 212.03 259.465 213.816 260.982L224.137 269.745C228.332 273.308 234.89 270.33 234.415 265.079L233.247 252.16C233.045 249.924 234.218 247.804 236.266 246.704L248.099 240.352C252.91 237.769 251.792 230.916 246.347 229.61L232.955 226.398C230.636 225.842 228.832 224.092 228.311 221.895L225.304 209.206C224.081 204.047 216.832 202.789 213.943 207.234L206.834 218.167C205.603 220.059 203.315 221.098 200.945 220.84ZM261.243 433.881L255.388 467.605C254.769 471.172 251.184 473.528 247.38 472.868L105.054 448.159C101.25 447.498 98.6688 444.072 99.288 440.505L105.143 406.78C105.762 403.214 109.347 400.858 113.151 401.518L131.898 404.773C135.702 405.433 139.287 403.077 139.906 399.51L142.211 386.236C142.83 382.669 146.415 380.313 150.219 380.974L229.416 394.723C233.22 395.383 235.801 398.81 235.182 402.377L232.877 415.651C232.258 419.218 234.84 422.644 238.643 423.305L255.477 426.227C259.281 426.888 261.862 430.314 261.243 433.881Z" stroke="#0094FF" stroke-width="11.3501" stroke-linecap="round"/>
</g>
<g style="mix-blend-mode:hard-light" filter="url(#filter2_f_576_3746)">
<path d="M160.994 382.475C165.953 379.64 175.484 373.016 175.435 360.589C175.373 345.056 159.686 326.44 149.46 308.033C122.851 269.361 128.115 204.914 133.044 172.302C134.771 160.871 145.646 153.623 157.036 155.601L296.562 179.823C307.635 181.746 315.347 191.761 313.408 202.832C308.01 233.65 292.537 293.223 250.869 325.639C228.433 343.094 214.528 359.984 213.282 367.16C210.791 381.511 215.842 387.562 221.599 392.996M131.821 174.137L91.3863 167.118C87.9337 166.518 84.6273 168.401 83.8829 171.602C81.1507 183.351 76.6943 211.535 89.8389 233.744C105.685 260.518 132.983 266.736 132.983 266.736M312.608 205.524L353.043 212.544C356.495 213.143 358.974 216.03 358.596 219.295C357.208 231.277 351.904 259.314 332.043 275.793C308.099 295.659 280.303 292.312 280.303 292.312M311.722 222.371L334.72 226.364C336.292 226.636 337.377 228.201 337.146 230.026C336.298 236.724 331.077 252.033 321.684 261.562C310.36 273.049 295.002 271.21 295.002 271.21M129.292 190.699L106.293 186.707C104.722 186.434 103.173 187.541 102.775 189.337C101.316 195.928 101.071 212.102 106.703 224.239C113.493 238.871 128.572 242.316 128.572 242.316M166.742 72.2808C196.849 84.8993 213.483 118.093 208.999 143.925M232.18 152.015C226.586 135.891 238.623 75.5203 269.437 66.0864M254.551 151.833C253.144 144.444 253.698 127.44 267.167 118.543M200.945 220.84L187.253 219.35C181.687 218.745 178.325 224.821 181.983 228.873L190.982 238.842C192.54 240.568 192.93 242.96 191.986 244.997L186.532 256.766C184.314 261.55 189.485 266.563 194.636 264.624L207.306 259.852C209.5 259.026 212.03 259.465 213.816 260.982L224.137 269.745C228.332 273.308 234.89 270.33 234.415 265.079L233.247 252.16C233.045 249.924 234.218 247.804 236.266 246.704L248.099 240.352C252.91 237.769 251.792 230.916 246.347 229.61L232.955 226.398C230.636 225.842 228.832 224.092 228.311 221.895L225.304 209.206C224.081 204.047 216.832 202.789 213.943 207.234L206.834 218.167C205.603 220.059 203.315 221.098 200.945 220.84ZM261.243 433.881L255.388 467.605C254.769 471.172 251.184 473.528 247.38 472.868L105.054 448.159C101.25 447.498 98.6688 444.072 99.288 440.505L105.143 406.78C105.762 403.214 109.347 400.858 113.151 401.518L131.898 404.773C135.702 405.433 139.287 403.077 139.906 399.51L142.211 386.236C142.83 382.669 146.415 380.313 150.219 380.974L229.416 394.723C233.22 395.383 235.801 398.81 235.182 402.377L232.877 415.651C232.258 419.218 234.84 422.644 238.643 423.305L255.477 426.227C259.281 426.888 261.862 430.314 261.243 433.881Z" stroke="#0094FF" stroke-width="14.8425" stroke-linecap="round"/>
</g>
<g style="mix-blend-mode:hard-light" filter="url(#filter3_ddi_576_3746)">
<path d="M160.994 382.475C165.953 379.64 175.484 373.016 175.435 360.589C175.373 345.056 159.686 326.44 149.46 308.033C122.851 269.361 128.115 204.914 133.044 172.302C134.771 160.871 145.646 153.623 157.036 155.601L296.562 179.823C307.635 181.746 315.347 191.761 313.408 202.832C308.01 233.65 292.537 293.223 250.869 325.639C228.433 343.094 214.528 359.984 213.282 367.16C210.791 381.511 215.842 387.562 221.599 392.996M131.821 174.137L91.3863 167.118C87.9337 166.518 84.6273 168.401 83.8829 171.602C81.1507 183.351 76.6943 211.535 89.8389 233.744C105.685 260.518 132.983 266.736 132.983 266.736M312.608 205.524L353.043 212.544C356.495 213.143 358.974 216.03 358.596 219.295C357.208 231.277 351.904 259.314 332.043 275.793C308.099 295.659 280.303 292.312 280.303 292.312M311.722 222.371L334.72 226.364C336.292 226.636 337.377 228.201 337.146 230.026C336.298 236.724 331.077 252.033 321.684 261.562C310.36 273.049 295.002 271.21 295.002 271.21M129.292 190.699L106.293 186.707C104.722 186.434 103.173 187.541 102.775 189.337C101.316 195.928 101.071 212.102 106.703 224.239C113.493 238.871 128.572 242.316 128.572 242.316M166.742 72.2808C196.849 84.8993 213.483 118.093 208.999 143.925M232.18 152.015C226.586 135.891 238.623 75.5203 269.437 66.0864M254.551 151.833C253.144 144.444 253.698 127.44 267.167 118.543M200.945 220.84L187.253 219.35C181.687 218.745 178.325 224.821 181.983 228.873L190.982 238.842C192.54 240.568 192.93 242.96 191.986 244.997L186.532 256.766C184.314 261.55 189.485 266.563 194.636 264.624L207.306 259.852C209.5 259.026 212.03 259.465 213.816 260.982L224.137 269.745C228.332 273.308 234.89 270.33 234.415 265.079L233.247 252.16C233.045 249.924 234.218 247.804 236.266 246.704L248.099 240.352C252.91 237.769 251.792 230.916 246.347 229.61L232.955 226.398C230.636 225.842 228.832 224.092 228.311 221.895L225.304 209.206C224.081 204.047 216.832 202.789 213.943 207.234L206.834 218.167C205.603 220.059 203.315 221.098 200.945 220.84ZM261.243 433.881L255.388 467.605C254.769 471.172 251.184 473.528 247.38 472.868L105.054 448.159C101.25 447.498 98.6688 444.072 99.288 440.505L105.143 406.78C105.762 403.214 109.347 400.858 113.151 401.518L131.898 404.773C135.702 405.433 139.287 403.077 139.906 399.51L142.211 386.236C142.83 382.669 146.415 380.313 150.219 380.974L229.416 394.723C233.22 395.383 235.801 398.81 235.182 402.377L232.877 415.651C232.258 419.218 234.84 422.644 238.643 423.305L255.477 426.227C259.281 426.888 261.862 430.314 261.243 433.881Z" stroke="#00B3FF" stroke-opacity="0.2" stroke-width="11.3501" stroke-linecap="round"/>
</g>
<g filter="url(#filter4_f_576_3746)">
<path d="M160.994 382.475C165.953 379.64 175.484 373.016 175.435 360.589C175.373 345.056 159.686 326.44 149.46 308.033C122.851 269.361 128.115 204.914 133.044 172.302C134.771 160.871 145.646 153.623 157.036 155.601L296.562 179.823C307.635 181.746 315.347 191.761 313.408 202.832C308.01 233.65 292.537 293.223 250.869 325.639C228.433 343.094 214.528 359.984 213.282 367.16C210.791 381.511 215.842 387.562 221.599 392.996M131.821 174.137L91.3863 167.118C87.9337 166.518 84.6273 168.401 83.8829 171.602C81.1507 183.351 76.6943 211.535 89.8389 233.744C105.685 260.518 132.983 266.736 132.983 266.736M312.608 205.524L353.043 212.544C356.495 213.143 358.974 216.03 358.596 219.295C357.208 231.277 351.904 259.314 332.043 275.793C308.099 295.659 280.303 292.312 280.303 292.312M311.722 222.371L334.72 226.364C336.292 226.636 337.377 228.201 337.146 230.026C336.298 236.724 331.077 252.033 321.684 261.562C310.36 273.049 295.002 271.21 295.002 271.21M129.292 190.699L106.293 186.707C104.722 186.434 103.173 187.541 102.775 189.337C101.316 195.928 101.071 212.102 106.703 224.239C113.493 238.871 128.572 242.316 128.572 242.316M166.742 72.2808C196.849 84.8993 213.483 118.093 208.999 143.925M232.18 152.015C226.586 135.891 238.623 75.5203 269.437 66.0864M254.551 151.833C253.144 144.444 253.698 127.44 267.167 118.543M200.945 220.84L187.253 219.35C181.687 218.745 178.325 224.821 181.983 228.873L190.982 238.842C192.54 240.568 192.93 242.96 191.986 244.997L186.532 256.766C184.314 261.55 189.485 266.563 194.636 264.624L207.306 259.852C209.5 259.026 212.03 259.465 213.816 260.982L224.137 269.745C228.332 273.308 234.89 270.33 234.415 265.079L233.247 252.16C233.045 249.924 234.218 247.804 236.266 246.704L248.099 240.352C252.91 237.769 251.792 230.916 246.347 229.61L232.955 226.398C230.636 225.842 228.832 224.092 228.311 221.895L225.304 209.206C224.081 204.047 216.832 202.789 213.943 207.234L206.834 218.167C205.603 220.059 203.315 221.098 200.945 220.84ZM261.243 433.881L255.388 467.605C254.769 471.172 251.184 473.528 247.38 472.868L105.054 448.159C101.25 447.498 98.6688 444.072 99.288 440.505L105.143 406.78C105.762 403.214 109.347 400.858 113.151 401.518L131.898 404.773C135.702 405.433 139.287 403.077 139.906 399.51L142.211 386.236C142.83 382.669 146.415 380.313 150.219 380.974L229.416 394.723C233.22 395.383 235.801 398.81 235.182 402.377L232.877 415.651C232.258 419.218 234.84 422.644 238.643 423.305L255.477 426.227C259.281 426.888 261.862 430.314 261.243 433.881Z" stroke="#82D9FF" stroke-width="6.9847" stroke-linecap="round"/>
</g>
<g filter="url(#filter5_f_576_3746)">
<path d="M160.994 382.475C165.953 379.64 175.484 373.016 175.435 360.589C175.373 345.056 159.686 326.44 149.46 308.033C122.851 269.361 128.115 204.914 133.044 172.302C134.771 160.871 145.646 153.623 157.036 155.601L296.562 179.823C307.635 181.746 315.347 191.761 313.408 202.832C308.01 233.65 292.537 293.223 250.869 325.639C228.433 343.094 214.528 359.984 213.282 367.16C210.791 381.511 215.842 387.562 221.599 392.996M131.821 174.137L91.3863 167.118C87.9337 166.518 84.6273 168.401 83.8829 171.602C81.1507 183.351 76.6943 211.535 89.8389 233.744C105.685 260.518 132.983 266.736 132.983 266.736M312.608 205.524L353.043 212.544C356.495 213.143 358.974 216.03 358.596 219.295C357.208 231.277 351.904 259.314 332.043 275.793C308.099 295.659 280.303 292.312 280.303 292.312M311.722 222.371L334.72 226.364C336.292 226.636 337.377 228.201 337.146 230.026C336.298 236.724 331.077 252.033 321.684 261.562C310.36 273.049 295.002 271.21 295.002 271.21M129.292 190.699L106.293 186.707C104.722 186.434 103.173 187.541 102.775 189.337C101.316 195.928 101.071 212.102 106.703 224.239C113.493 238.871 128.572 242.316 128.572 242.316M166.742 72.2808C196.849 84.8993 213.483 118.093 208.999 143.925M232.18 152.015C226.586 135.891 238.623 75.5203 269.437 66.0864M254.551 151.833C253.144 144.444 253.698 127.44 267.167 118.543M200.945 220.84L187.253 219.35C181.687 218.745 178.325 224.821 181.983 228.873L190.982 238.842C192.54 240.568 192.93 242.96 191.986 244.997L186.532 256.766C184.314 261.55 189.485 266.563 194.636 264.624L207.306 259.852C209.5 259.026 212.03 259.465 213.816 260.982L224.137 269.745C228.332 273.308 234.89 270.33 234.415 265.079L233.247 252.16C233.045 249.924 234.218 247.804 236.266 246.704L248.099 240.352C252.91 237.769 251.792 230.916 246.347 229.61L232.955 226.398C230.636 225.842 228.832 224.092 228.311 221.895L225.304 209.206C224.081 204.047 216.832 202.789 213.943 207.234L206.834 218.167C205.603 220.059 203.315 221.098 200.945 220.84ZM261.243 433.881L255.388 467.605C254.769 471.172 251.184 473.528 247.38 472.868L105.054 448.159C101.25 447.498 98.6688 444.072 99.288 440.505L105.143 406.78C105.762 403.214 109.347 400.858 113.151 401.518L131.898 404.773C135.702 405.433 139.287 403.077 139.906 399.51L142.211 386.236C142.83 382.669 146.415 380.313 150.219 380.974L229.416 394.723C233.22 395.383 235.801 398.81 235.182 402.377L232.877 415.651C232.258 419.218 234.84 422.644 238.643 423.305L255.477 426.227C259.281 426.888 261.862 430.314 261.243 433.881Z" stroke="white" stroke-width="2.29618" stroke-linecap="round"/>
</g>
</g>
<defs>
<filter id="filter0_f_576_3746" x="0.10908" y="0.263621" width="419.484" height="521.567" filterUnits="userSpaceOnUse" color-interpolation-filters="sRGB">
<feFlood flood-opacity="0" result="BackgroundImageFix"/>
<feBlend mode="normal" in="SourceGraphic" in2="BackgroundImageFix" result="shape"/>
<feGaussianBlur stdDeviation="1.45901" result="effect1_foregroundBlur_576_3746"/>
</filter>
<filter id="filter1_f_576_3746" x="22.833" y="8.02488" width="393.865" height="523.01" filterUnits="userSpaceOnUse" color-interpolation-filters="sRGB">
<feFlood flood-opacity="0" result="BackgroundImageFix"/>
<feBlend mode="normal" in="SourceGraphic" in2="BackgroundImageFix" result="shape"/>
<feGaussianBlur stdDeviation="26.1926" result="effect1_foregroundBlur_576_3746"/>
</filter>
<filter id="filter2_f_576_3746" x="56.0103" y="41.2013" width="327.512" height="456.655" filterUnits="userSpaceOnUse" color-interpolation-filters="sRGB">
<feFlood flood-opacity="0" result="BackgroundImageFix"/>
<feBlend mode="normal" in="SourceGraphic" in2="BackgroundImageFix" result="shape"/>
<feGaussianBlur stdDeviation="8.73088" result="effect1_foregroundBlur_576_3746"/>
</filter>
<filter id="filter3_ddi_576_3746" x="52.518" y="55.1716" width="334.495" height="463.64" filterUnits="userSpaceOnUse" color-interpolation-filters="sRGB">
<feFlood flood-opacity="0" result="BackgroundImageFix"/>
<feColorMatrix in="SourceAlpha" type="matrix" values="0 0 0 0 0 0 0 0 0 0 0 0 0 0 0 0 0 0 127 0" result="hardAlpha"/>
<feOffset dy="11.3501"/>
<feGaussianBlur stdDeviation="4.36544"/>
<feColorMatrix type="matrix" values="0 0 0 0 0 0 0 0 0 0.051 0 0 0 0 0.082 0 0 0 0.7 0"/>
<feBlend mode="multiply" in2="BackgroundImageFix" result="effect1_dropShadow_576_3746"/>
<feColorMatrix in="SourceAlpha" type="matrix" values="0 0 0 0 0 0 0 0 0 0 0 0 0 0 0 0 0 0 127 0" result="hardAlpha"/>
<feOffset dy="17.4618"/>
<feGaussianBlur stdDeviation="11.3501"/>
<feColorMatrix type="matrix" values="0 0 0 0 0 0 0 0 0 0.4 0 0 0 0 1 0 0 0 1 0"/>
<feBlend mode="color-dodge" in2="effect1_dropShadow_576_3746" result="effect2_dropShadow_576_3746"/>
<feBlend mode="normal" in="SourceGraphic" in2="effect2_dropShadow_576_3746" result="shape"/>
<feColorMatrix in="SourceAlpha" type="matrix" values="0 0 0 0 0 0 0 0 0 0 0 0 0 0 0 0 0 0 127 0" result="hardAlpha"/>
<feOffset dx="-1.13501" dy="2.27003"/>
<feGaussianBlur stdDeviation="0.567507"/>
<feComposite in2="hardAlpha" operator="arithmetic" k2="-1" k3="1"/>
<feColorMatrix type="matrix" values="0 0 0 0 1 0 0 0 0 1 0 0 0 0 1 0 0 0 0.5 0"/>
<feBlend mode="normal" in2="shape" result="effect3_innerShadow_576_3746"/>
</filter>
<filter id="filter4_f_576_3746" x="75.6549" y="60.8466" width="288.22" height="417.368" filterUnits="userSpaceOnUse" color-interpolation-filters="sRGB">
<feFlood flood-opacity="0" result="BackgroundImageFix"/>
<feBlend mode="normal" in="SourceGraphic" in2="BackgroundImageFix" result="shape"/>
<feGaussianBlur stdDeviation="0.873088" result="effect1_foregroundBlur_576_3746"/>
</filter>
<filter id="filter5_f_576_3746" x="78.5813" y="63.7744" width="282.365" height="411.516" filterUnits="userSpaceOnUse" color-interpolation-filters="sRGB">
<feFlood flood-opacity="0" result="BackgroundImageFix"/>
<feBlend mode="normal" in="SourceGraphic" in2="BackgroundImageFix" result="shape"/>
<feGaussianBlur stdDeviation="0.582059" result="effect1_foregroundBlur_576_3746"/>
</filter>
</defs>
</svg>
